<?xml version="1.0" encoding="utf-8" standalone="no"?>
<!DOCTYPE svg PUBLIC "-//W3C//DTD SVG 1.1//EN"
  "http://www.w3.org/Graphics/SVG/1.1/DTD/svg11.dtd">
<svg xmlns:xlink="http://www.w3.org/1999/xlink" width="847.875313pt" height="370.537812pt" viewBox="0 0 847.875313 370.537812" xmlns="http://www.w3.org/2000/svg" version="1.1">
 <metadata>
  <rdf:RDF xmlns:dc="http://purl.org/dc/elements/1.1/" xmlns:cc="http://creativecommons.org/ns#" xmlns:rdf="http://www.w3.org/1999/02/22-rdf-syntax-ns#">
   <cc:Work>
    <dc:type rdf:resource="http://purl.org/dc/dcmitype/StillImage"/>
    <dc:date>2026-01-05T10:58:46.379665</dc:date>
    <dc:format>image/svg+xml</dc:format>
    <dc:creator>
     <cc:Agent>
      <dc:title>Matplotlib v3.10.8, https://matplotlib.org/</dc:title>
     </cc:Agent>
    </dc:creator>
   </cc:Work>
  </rdf:RDF>
 </metadata>
 <defs>
  <style type="text/css">*{stroke-linejoin: round; stroke-linecap: butt}</style>
 </defs>
 <g id="figure_1">
  <g id="patch_1">
   <path d="M 0 370.537812 
L 847.875313 370.537812 
L 847.875313 0 
L 0 0 
z
" style="fill: #ffffff"/>
  </g>
  <g id="axes_1">
   <g id="patch_2">
    <path d="M 59.475313 320.4 
L 399.127486 320.4 
L 399.127486 43.2 
L 59.475313 43.2 
z
" style="fill: #ffffff"/>
   </g>
   <g id="matplotlib.axis_1">
    <g id="xtick_1">
     <g id="line2d_1">
      <defs>
       <path id="m52bc90d63e" d="M 0 0 
L 0 3.5 
" style="stroke: #000000; stroke-width: 0.8"/>
      </defs>
      <g>
       <use xlink:href="#m52bc90d63e" x="72.072519" y="320.4" style="stroke: #000000; stroke-width: 0.8"/>
      </g>
     </g>
     <g id="text_1">
      <!-- −20 -->
      <g transform="translate(56.244003 338.797656) scale(0.15 -0.15)">
       <defs>
        <path id="DejaVuSans-2212" d="M 678 2272 
L 4684 2272 
L 4684 1741 
L 678 1741 
L 678 2272 
z
" transform="scale(0.015625)"/>
        <path id="DejaVuSans-32" d="M 1228 531 
L 3431 531 
L 3431 0 
L 469 0 
L 469 531 
Q 828 903 1448 1529 
Q 2069 2156 2228 2338 
Q 2531 2678 2651 2914 
Q 2772 3150 2772 3378 
Q 2772 3750 2511 3984 
Q 2250 4219 1831 4219 
Q 1534 4219 1204 4116 
Q 875 4013 500 3803 
L 500 4441 
Q 881 4594 1212 4672 
Q 1544 4750 1819 4750 
Q 2544 4750 2975 4387 
Q 3406 4025 3406 3419 
Q 3406 3131 3298 2873 
Q 3191 2616 2906 2266 
Q 2828 2175 2409 1742 
Q 1991 1309 1228 531 
z
" transform="scale(0.015625)"/>
        <path id="DejaVuSans-30" d="M 2034 4250 
Q 1547 4250 1301 3770 
Q 1056 3291 1056 2328 
Q 1056 1369 1301 889 
Q 1547 409 2034 409 
Q 2525 409 2770 889 
Q 3016 1369 3016 2328 
Q 3016 3291 2770 3770 
Q 2525 4250 2034 4250 
z
M 2034 4750 
Q 2819 4750 3233 4129 
Q 3647 3509 3647 2328 
Q 3647 1150 3233 529 
Q 2819 -91 2034 -91 
Q 1250 -91 836 529 
Q 422 1150 422 2328 
Q 422 3509 836 4129 
Q 1250 4750 2034 4750 
z
" transform="scale(0.015625)"/>
       </defs>
       <use xlink:href="#DejaVuSans-2212"/>
       <use xlink:href="#DejaVuSans-32" transform="translate(83.789062 0)"/>
       <use xlink:href="#DejaVuSans-30" transform="translate(147.412109 0)"/>
      </g>
     </g>
    </g>
    <g id="xtick_2">
     <g id="line2d_2">
      <g>
       <use xlink:href="#m52bc90d63e" x="135.05855" y="320.4" style="stroke: #000000; stroke-width: 0.8"/>
      </g>
     </g>
     <g id="text_2">
      <!-- 0 -->
      <g transform="translate(130.286675 338.797656) scale(0.15 -0.15)">
       <use xlink:href="#DejaVuSans-30"/>
      </g>
     </g>
    </g>
    <g id="xtick_3">
     <g id="line2d_3">
      <g>
       <use xlink:href="#m52bc90d63e" x="198.044581" y="320.4" style="stroke: #000000; stroke-width: 0.8"/>
      </g>
     </g>
     <g id="text_3">
      <!-- 20 -->
      <g transform="translate(188.500831 338.797656) scale(0.15 -0.15)">
       <use xlink:href="#DejaVuSans-32"/>
       <use xlink:href="#DejaVuSans-30" transform="translate(63.623047 0)"/>
      </g>
     </g>
    </g>
    <g id="xtick_4">
     <g id="line2d_4">
      <g>
       <use xlink:href="#m52bc90d63e" x="261.030613" y="320.4" style="stroke: #000000; stroke-width: 0.8"/>
      </g>
     </g>
     <g id="text_4">
      <!-- 40 -->
      <g transform="translate(251.486863 338.797656) scale(0.15 -0.15)">
       <defs>
        <path id="DejaVuSans-34" d="M 2419 4116 
L 825 1625 
L 2419 1625 
L 2419 4116 
z
M 2253 4666 
L 3047 4666 
L 3047 1625 
L 3713 1625 
L 3713 1100 
L 3047 1100 
L 3047 0 
L 2419 0 
L 2419 1100 
L 313 1100 
L 313 1709 
L 2253 4666 
z
" transform="scale(0.015625)"/>
       </defs>
       <use xlink:href="#DejaVuSans-34"/>
       <use xlink:href="#DejaVuSans-30" transform="translate(63.623047 0)"/>
      </g>
     </g>
    </g>
    <g id="xtick_5">
     <g id="line2d_5">
      <g>
       <use xlink:href="#m52bc90d63e" x="324.016644" y="320.4" style="stroke: #000000; stroke-width: 0.8"/>
      </g>
     </g>
     <g id="text_5">
      <!-- 60 -->
      <g transform="translate(314.472894 338.797656) scale(0.15 -0.15)">
       <defs>
        <path id="DejaVuSans-36" d="M 2113 2584 
Q 1688 2584 1439 2293 
Q 1191 2003 1191 1497 
Q 1191 994 1439 701 
Q 1688 409 2113 409 
Q 2538 409 2786 701 
Q 3034 994 3034 1497 
Q 3034 2003 2786 2293 
Q 2538 2584 2113 2584 
z
M 3366 4563 
L 3366 3988 
Q 3128 4100 2886 4159 
Q 2644 4219 2406 4219 
Q 1781 4219 1451 3797 
Q 1122 3375 1075 2522 
Q 1259 2794 1537 2939 
Q 1816 3084 2150 3084 
Q 2853 3084 3261 2657 
Q 3669 2231 3669 1497 
Q 3669 778 3244 343 
Q 2819 -91 2113 -91 
Q 1303 -91 875 529 
Q 447 1150 447 2328 
Q 447 3434 972 4092 
Q 1497 4750 2381 4750 
Q 2619 4750 2861 4703 
Q 3103 4656 3366 4563 
z
" transform="scale(0.015625)"/>
       </defs>
       <use xlink:href="#DejaVuSans-36"/>
       <use xlink:href="#DejaVuSans-30" transform="translate(63.623047 0)"/>
      </g>
     </g>
    </g>
    <g id="xtick_6">
     <g id="line2d_6">
      <g>
       <use xlink:href="#m52bc90d63e" x="387.002675" y="320.4" style="stroke: #000000; stroke-width: 0.8"/>
      </g>
     </g>
     <g id="text_6">
      <!-- 80 -->
      <g transform="translate(377.458925 338.797656) scale(0.15 -0.15)">
       <defs>
        <path id="DejaVuSans-38" d="M 2034 2216 
Q 1584 2216 1326 1975 
Q 1069 1734 1069 1313 
Q 1069 891 1326 650 
Q 1584 409 2034 409 
Q 2484 409 2743 651 
Q 3003 894 3003 1313 
Q 3003 1734 2745 1975 
Q 2488 2216 2034 2216 
z
M 1403 2484 
Q 997 2584 770 2862 
Q 544 3141 544 3541 
Q 544 4100 942 4425 
Q 1341 4750 2034 4750 
Q 2731 4750 3128 4425 
Q 3525 4100 3525 3541 
Q 3525 3141 3298 2862 
Q 3072 2584 2669 2484 
Q 3125 2378 3379 2068 
Q 3634 1759 3634 1313 
Q 3634 634 3220 271 
Q 2806 -91 2034 -91 
Q 1263 -91 848 271 
Q 434 634 434 1313 
Q 434 1759 690 2068 
Q 947 2378 1403 2484 
z
M 1172 3481 
Q 1172 3119 1398 2916 
Q 1625 2713 2034 2713 
Q 2441 2713 2670 2916 
Q 2900 3119 2900 3481 
Q 2900 3844 2670 4047 
Q 2441 4250 2034 4250 
Q 1625 4250 1398 4047 
Q 1172 3844 1172 3481 
z
" transform="scale(0.015625)"/>
       </defs>
       <use xlink:href="#DejaVuSans-38"/>
       <use xlink:href="#DejaVuSans-30" transform="translate(63.623047 0)"/>
      </g>
     </g>
    </g>
    <g id="text_7">
     <!-- time [hr] -->
     <g transform="translate(184.226868 359.594375) scale(0.18 -0.18)">
      <defs>
       <path id="DejaVuSans-Bold-74" d="M 1759 4494 
L 1759 3500 
L 2913 3500 
L 2913 2700 
L 1759 2700 
L 1759 1216 
Q 1759 972 1856 886 
Q 1953 800 2241 800 
L 2816 800 
L 2816 0 
L 1856 0 
Q 1194 0 917 276 
Q 641 553 641 1216 
L 641 2700 
L 84 2700 
L 84 3500 
L 641 3500 
L 641 4494 
L 1759 4494 
z
" transform="scale(0.015625)"/>
       <path id="DejaVuSans-Bold-69" d="M 538 3500 
L 1656 3500 
L 1656 0 
L 538 0 
L 538 3500 
z
M 538 4863 
L 1656 4863 
L 1656 3950 
L 538 3950 
L 538 4863 
z
" transform="scale(0.015625)"/>
       <path id="DejaVuSans-Bold-6d" d="M 3781 2919 
Q 3994 3244 4286 3414 
Q 4578 3584 4928 3584 
Q 5531 3584 5847 3212 
Q 6163 2841 6163 2131 
L 6163 0 
L 5038 0 
L 5038 1825 
Q 5041 1866 5042 1909 
Q 5044 1953 5044 2034 
Q 5044 2406 4934 2573 
Q 4825 2741 4581 2741 
Q 4263 2741 4089 2478 
Q 3916 2216 3909 1719 
L 3909 0 
L 2784 0 
L 2784 1825 
Q 2784 2406 2684 2573 
Q 2584 2741 2328 2741 
Q 2006 2741 1831 2477 
Q 1656 2213 1656 1722 
L 1656 0 
L 531 0 
L 531 3500 
L 1656 3500 
L 1656 2988 
Q 1863 3284 2130 3434 
Q 2397 3584 2719 3584 
Q 3081 3584 3359 3409 
Q 3638 3234 3781 2919 
z
" transform="scale(0.015625)"/>
       <path id="DejaVuSans-Bold-65" d="M 4031 1759 
L 4031 1441 
L 1416 1441 
Q 1456 1047 1700 850 
Q 1944 653 2381 653 
Q 2734 653 3104 758 
Q 3475 863 3866 1075 
L 3866 213 
Q 3469 63 3072 -14 
Q 2675 -91 2278 -91 
Q 1328 -91 801 392 
Q 275 875 275 1747 
Q 275 2603 792 3093 
Q 1309 3584 2216 3584 
Q 3041 3584 3536 3087 
Q 4031 2591 4031 1759 
z
M 2881 2131 
Q 2881 2450 2695 2645 
Q 2509 2841 2209 2841 
Q 1884 2841 1681 2658 
Q 1478 2475 1428 2131 
L 2881 2131 
z
" transform="scale(0.015625)"/>
       <path id="DejaVuSans-Bold-20" transform="scale(0.015625)"/>
       <path id="DejaVuSans-Bold-5b" d="M 550 4863 
L 2491 4863 
L 2491 4159 
L 1613 4159 
L 1613 -141 
L 2491 -141 
L 2491 -844 
L 550 -844 
L 550 4863 
z
" transform="scale(0.015625)"/>
       <path id="DejaVuSans-Bold-68" d="M 4056 2131 
L 4056 0 
L 2931 0 
L 2931 347 
L 2931 1625 
Q 2931 2084 2911 2256 
Q 2891 2428 2841 2509 
Q 2775 2619 2662 2680 
Q 2550 2741 2406 2741 
Q 2056 2741 1856 2470 
Q 1656 2200 1656 1722 
L 1656 0 
L 538 0 
L 538 4863 
L 1656 4863 
L 1656 2988 
Q 1909 3294 2193 3439 
Q 2478 3584 2822 3584 
Q 3428 3584 3742 3212 
Q 4056 2841 4056 2131 
z
" transform="scale(0.015625)"/>
       <path id="DejaVuSans-Bold-72" d="M 3138 2547 
Q 2991 2616 2845 2648 
Q 2700 2681 2553 2681 
Q 2122 2681 1889 2404 
Q 1656 2128 1656 1613 
L 1656 0 
L 538 0 
L 538 3500 
L 1656 3500 
L 1656 2925 
Q 1872 3269 2151 3426 
Q 2431 3584 2822 3584 
Q 2878 3584 2943 3579 
Q 3009 3575 3134 3559 
L 3138 2547 
z
" transform="scale(0.015625)"/>
       <path id="DejaVuSans-Bold-5d" d="M 2375 -844 
L 434 -844 
L 434 -141 
L 1313 -141 
L 1313 4159 
L 434 4159 
L 434 4863 
L 2375 4863 
L 2375 -844 
z
" transform="scale(0.015625)"/>
      </defs>
      <use xlink:href="#DejaVuSans-Bold-74"/>
      <use xlink:href="#DejaVuSans-Bold-69" transform="translate(47.802734 0)"/>
      <use xlink:href="#DejaVuSans-Bold-6d" transform="translate(82.080078 0)"/>
      <use xlink:href="#DejaVuSans-Bold-65" transform="translate(186.279297 0)"/>
      <use xlink:href="#DejaVuSans-Bold-20" transform="translate(254.101562 0)"/>
      <use xlink:href="#DejaVuSans-Bold-5b" transform="translate(288.916016 0)"/>
      <use xlink:href="#DejaVuSans-Bold-68" transform="translate(334.619141 0)"/>
      <use xlink:href="#DejaVuSans-Bold-72" transform="translate(405.810547 0)"/>
      <use xlink:href="#DejaVuSans-Bold-5d" transform="translate(455.126953 0)"/>
     </g>
    </g>
   </g>
   <g id="matplotlib.axis_2">
    <g id="ytick_1">
     <g id="line2d_7">
      <defs>
       <path id="madef3c5ec8" d="M 0 0 
L -3.5 0 
" style="stroke: #000000; stroke-width: 0.8"/>
      </defs>
      <g>
       <use xlink:href="#madef3c5ec8" x="59.475313" y="299.152941" style="stroke: #000000; stroke-width: 0.8"/>
      </g>
     </g>
     <g id="text_8">
      <!-- 1.0 -->
      <g transform="translate(28.620625 304.851769) scale(0.15 -0.15)">
       <defs>
        <path id="DejaVuSans-31" d="M 794 531 
L 1825 531 
L 1825 4091 
L 703 3866 
L 703 4441 
L 1819 4666 
L 2450 4666 
L 2450 531 
L 3481 531 
L 3481 0 
L 794 0 
L 794 531 
z
" transform="scale(0.015625)"/>
        <path id="DejaVuSans-2e" d="M 684 794 
L 1344 794 
L 1344 0 
L 684 0 
L 684 794 
z
" transform="scale(0.015625)"/>
       </defs>
       <use xlink:href="#DejaVuSans-31"/>
       <use xlink:href="#DejaVuSans-2e" transform="translate(63.623047 0)"/>
       <use xlink:href="#DejaVuSans-30" transform="translate(95.410156 0)"/>
      </g>
     </g>
    </g>
    <g id="ytick_2">
     <g id="line2d_8">
      <g>
       <use xlink:href="#madef3c5ec8" x="59.475313" y="266.108824" style="stroke: #000000; stroke-width: 0.8"/>
      </g>
     </g>
     <g id="text_9">
      <!-- 1.1 -->
      <g transform="translate(28.620625 271.807652) scale(0.15 -0.15)">
       <use xlink:href="#DejaVuSans-31"/>
       <use xlink:href="#DejaVuSans-2e" transform="translate(63.623047 0)"/>
       <use xlink:href="#DejaVuSans-31" transform="translate(95.410156 0)"/>
      </g>
     </g>
    </g>
    <g id="ytick_3">
     <g id="line2d_9">
      <g>
       <use xlink:href="#madef3c5ec8" x="59.475313" y="233.064706" style="stroke: #000000; stroke-width: 0.8"/>
      </g>
     </g>
     <g id="text_10">
      <!-- 1.2 -->
      <g transform="translate(28.620625 238.763534) scale(0.15 -0.15)">
       <use xlink:href="#DejaVuSans-31"/>
       <use xlink:href="#DejaVuSans-2e" transform="translate(63.623047 0)"/>
       <use xlink:href="#DejaVuSans-32" transform="translate(95.410156 0)"/>
      </g>
     </g>
    </g>
    <g id="ytick_4">
     <g id="line2d_10">
      <g>
       <use xlink:href="#madef3c5ec8" x="59.475313" y="200.020588" style="stroke: #000000; stroke-width: 0.8"/>
      </g>
     </g>
     <g id="text_11">
      <!-- 1.3 -->
      <g transform="translate(28.620625 205.719416) scale(0.15 -0.15)">
       <defs>
        <path id="DejaVuSans-33" d="M 2597 2516 
Q 3050 2419 3304 2112 
Q 3559 1806 3559 1356 
Q 3559 666 3084 287 
Q 2609 -91 1734 -91 
Q 1441 -91 1130 -33 
Q 819 25 488 141 
L 488 750 
Q 750 597 1062 519 
Q 1375 441 1716 441 
Q 2309 441 2620 675 
Q 2931 909 2931 1356 
Q 2931 1769 2642 2001 
Q 2353 2234 1838 2234 
L 1294 2234 
L 1294 2753 
L 1863 2753 
Q 2328 2753 2575 2939 
Q 2822 3125 2822 3475 
Q 2822 3834 2567 4026 
Q 2313 4219 1838 4219 
Q 1578 4219 1281 4162 
Q 984 4106 628 3988 
L 628 4550 
Q 988 4650 1302 4700 
Q 1616 4750 1894 4750 
Q 2613 4750 3031 4423 
Q 3450 4097 3450 3541 
Q 3450 3153 3228 2886 
Q 3006 2619 2597 2516 
z
" transform="scale(0.015625)"/>
       </defs>
       <use xlink:href="#DejaVuSans-31"/>
       <use xlink:href="#DejaVuSans-2e" transform="translate(63.623047 0)"/>
       <use xlink:href="#DejaVuSans-33" transform="translate(95.410156 0)"/>
      </g>
     </g>
    </g>
    <g id="ytick_5">
     <g id="line2d_11">
      <g>
       <use xlink:href="#madef3c5ec8" x="59.475313" y="166.976471" style="stroke: #000000; stroke-width: 0.8"/>
      </g>
     </g>
     <g id="text_12">
      <!-- 1.4 -->
      <g transform="translate(28.620625 172.675299) scale(0.15 -0.15)">
       <use xlink:href="#DejaVuSans-31"/>
       <use xlink:href="#DejaVuSans-2e" transform="translate(63.623047 0)"/>
       <use xlink:href="#DejaVuSans-34" transform="translate(95.410156 0)"/>
      </g>
     </g>
    </g>
    <g id="ytick_6">
     <g id="line2d_12">
      <g>
       <use xlink:href="#madef3c5ec8" x="59.475313" y="133.932353" style="stroke: #000000; stroke-width: 0.8"/>
      </g>
     </g>
     <g id="text_13">
      <!-- 1.5 -->
      <g transform="translate(28.620625 139.631181) scale(0.15 -0.15)">
       <defs>
        <path id="DejaVuSans-35" d="M 691 4666 
L 3169 4666 
L 3169 4134 
L 1269 4134 
L 1269 2991 
Q 1406 3038 1543 3061 
Q 1681 3084 1819 3084 
Q 2600 3084 3056 2656 
Q 3513 2228 3513 1497 
Q 3513 744 3044 326 
Q 2575 -91 1722 -91 
Q 1428 -91 1123 -41 
Q 819 9 494 109 
L 494 744 
Q 775 591 1075 516 
Q 1375 441 1709 441 
Q 2250 441 2565 725 
Q 2881 1009 2881 1497 
Q 2881 1984 2565 2268 
Q 2250 2553 1709 2553 
Q 1456 2553 1204 2497 
Q 953 2441 691 2322 
L 691 4666 
z
" transform="scale(0.015625)"/>
       </defs>
       <use xlink:href="#DejaVuSans-31"/>
       <use xlink:href="#DejaVuSans-2e" transform="translate(63.623047 0)"/>
       <use xlink:href="#DejaVuSans-35" transform="translate(95.410156 0)"/>
      </g>
     </g>
    </g>
    <g id="ytick_7">
     <g id="line2d_13">
      <g>
       <use xlink:href="#madef3c5ec8" x="59.475313" y="100.888235" style="stroke: #000000; stroke-width: 0.8"/>
      </g>
     </g>
     <g id="text_14">
      <!-- 1.6 -->
      <g transform="translate(28.620625 106.587063) scale(0.15 -0.15)">
       <use xlink:href="#DejaVuSans-31"/>
       <use xlink:href="#DejaVuSans-2e" transform="translate(63.623047 0)"/>
       <use xlink:href="#DejaVuSans-36" transform="translate(95.410156 0)"/>
      </g>
     </g>
    </g>
    <g id="ytick_8">
     <g id="line2d_14">
      <g>
       <use xlink:href="#madef3c5ec8" x="59.475313" y="67.844118" style="stroke: #000000; stroke-width: 0.8"/>
      </g>
     </g>
     <g id="text_15">
      <!-- 1.7 -->
      <g transform="translate(28.620625 73.542946) scale(0.15 -0.15)">
       <defs>
        <path id="DejaVuSans-37" d="M 525 4666 
L 3525 4666 
L 3525 4397 
L 1831 0 
L 1172 0 
L 2766 4134 
L 525 4134 
L 525 4666 
z
" transform="scale(0.015625)"/>
       </defs>
       <use xlink:href="#DejaVuSans-31"/>
       <use xlink:href="#DejaVuSans-2e" transform="translate(63.623047 0)"/>
       <use xlink:href="#DejaVuSans-37" transform="translate(95.410156 0)"/>
      </g>
     </g>
    </g>
    <g id="text_16">
     <!-- PT ratio [-] -->
     <g transform="translate(20.877187 236.84625) rotate(-90) scale(0.18 -0.18)">
      <defs>
       <path id="DejaVuSans-Bold-50" d="M 588 4666 
L 2584 4666 
Q 3475 4666 3951 4270 
Q 4428 3875 4428 3144 
Q 4428 2409 3951 2014 
Q 3475 1619 2584 1619 
L 1791 1619 
L 1791 0 
L 588 0 
L 588 4666 
z
M 1791 3794 
L 1791 2491 
L 2456 2491 
Q 2806 2491 2997 2661 
Q 3188 2831 3188 3144 
Q 3188 3456 2997 3625 
Q 2806 3794 2456 3794 
L 1791 3794 
z
" transform="scale(0.015625)"/>
       <path id="DejaVuSans-Bold-54" d="M 31 4666 
L 4331 4666 
L 4331 3756 
L 2784 3756 
L 2784 0 
L 1581 0 
L 1581 3756 
L 31 3756 
L 31 4666 
z
" transform="scale(0.015625)"/>
       <path id="DejaVuSans-Bold-61" d="M 2106 1575 
Q 1756 1575 1579 1456 
Q 1403 1338 1403 1106 
Q 1403 894 1545 773 
Q 1688 653 1941 653 
Q 2256 653 2472 879 
Q 2688 1106 2688 1447 
L 2688 1575 
L 2106 1575 
z
M 3816 1997 
L 3816 0 
L 2688 0 
L 2688 519 
Q 2463 200 2181 54 
Q 1900 -91 1497 -91 
Q 953 -91 614 226 
Q 275 544 275 1050 
Q 275 1666 698 1953 
Q 1122 2241 2028 2241 
L 2688 2241 
L 2688 2328 
Q 2688 2594 2478 2717 
Q 2269 2841 1825 2841 
Q 1466 2841 1156 2769 
Q 847 2697 581 2553 
L 581 3406 
Q 941 3494 1303 3539 
Q 1666 3584 2028 3584 
Q 2975 3584 3395 3211 
Q 3816 2838 3816 1997 
z
" transform="scale(0.015625)"/>
       <path id="DejaVuSans-Bold-6f" d="M 2203 2784 
Q 1831 2784 1636 2517 
Q 1441 2250 1441 1747 
Q 1441 1244 1636 976 
Q 1831 709 2203 709 
Q 2569 709 2762 976 
Q 2956 1244 2956 1747 
Q 2956 2250 2762 2517 
Q 2569 2784 2203 2784 
z
M 2203 3584 
Q 3106 3584 3614 3096 
Q 4122 2609 4122 1747 
Q 4122 884 3614 396 
Q 3106 -91 2203 -91 
Q 1297 -91 786 396 
Q 275 884 275 1747 
Q 275 2609 786 3096 
Q 1297 3584 2203 3584 
z
" transform="scale(0.015625)"/>
       <path id="DejaVuSans-Bold-2d" d="M 347 2297 
L 2309 2297 
L 2309 1388 
L 347 1388 
L 347 2297 
z
" transform="scale(0.015625)"/>
      </defs>
      <use xlink:href="#DejaVuSans-Bold-50"/>
      <use xlink:href="#DejaVuSans-Bold-54" transform="translate(73.291016 0)"/>
      <use xlink:href="#DejaVuSans-Bold-20" transform="translate(141.503906 0)"/>
      <use xlink:href="#DejaVuSans-Bold-72" transform="translate(176.318359 0)"/>
      <use xlink:href="#DejaVuSans-Bold-61" transform="translate(225.634766 0)"/>
      <use xlink:href="#DejaVuSans-Bold-74" transform="translate(293.115234 0)"/>
      <use xlink:href="#DejaVuSans-Bold-69" transform="translate(340.917969 0)"/>
      <use xlink:href="#DejaVuSans-Bold-6f" transform="translate(375.195312 0)"/>
      <use xlink:href="#DejaVuSans-Bold-20" transform="translate(443.896484 0)"/>
      <use xlink:href="#DejaVuSans-Bold-5b" transform="translate(478.710938 0)"/>
      <use xlink:href="#DejaVuSans-Bold-2d" transform="translate(524.414062 0)"/>
      <use xlink:href="#DejaVuSans-Bold-5d" transform="translate(565.917969 0)"/>
     </g>
    </g>
   </g>
   <g id="LineCollection_1">
    <path d="M 135.05855 289.270588 
L 135.05855 269.505882 
" clip-path="url(#p495846d549)" style="fill: none; stroke: #d62728"/>
    <path d="M 138.207852 264.564706 
L 138.207852 123.741176 
" clip-path="url(#p495846d549)" style="fill: none; stroke: #d62728"/>
    <path d="M 141.357153 176.858824 
L 141.357153 55.8 
" clip-path="url(#p495846d549)" style="fill: none; stroke: #d62728"/>
    <path d="M 144.506455 144.741176 
L 144.506455 63.211765 
" clip-path="url(#p495846d549)" style="fill: none; stroke: #d62728"/>
    <path d="M 147.655756 158.329412 
L 147.655756 76.8 
" clip-path="url(#p495846d549)" style="fill: none; stroke: #d62728"/>
    <path d="M 153.954359 202.8 
L 153.954359 138.564706 
" clip-path="url(#p495846d549)" style="fill: none; stroke: #d62728"/>
    <path d="M 172.850169 268.486678 
L 172.850169 237.295675 
" clip-path="url(#p495846d549)" style="fill: none; stroke: #d62728"/>
    <path d="M 191.745978 279.388235 
L 191.745978 257.152941 
" clip-path="url(#p495846d549)" style="fill: none; stroke: #d62728"/>
    <path d="M 210.641788 290.219794 
L 210.641788 268.433147 
" clip-path="url(#p495846d549)" style="fill: none; stroke: #d62728"/>
    <path d="M 248.433406 302.689323 
L 248.433406 282.398913 
" clip-path="url(#p495846d549)" style="fill: none; stroke: #d62728"/>
    <path d="M 286.225025 302.318568 
L 286.225025 282.769668 
" clip-path="url(#p495846d549)" style="fill: none; stroke: #d62728"/>
    <path d="M 324.016644 307.8 
L 324.016644 285.564706 
" clip-path="url(#p495846d549)" style="fill: none; stroke: #d62728"/>
   </g>
   <g id="line2d_15">
    <path d="M 59.399729 293.967153 
L 59.550896 293.905071 
L 59.702062 292.668731 
L 60.004395 286.437675 
L 60.533478 268.844837 
L 62.045143 216.14679 
L 62.800975 197.716699 
L 63.481224 185.902526 
L 64.161473 177.811866 
L 64.766139 173.105033 
L 65.295222 170.50377 
L 65.748721 169.181731 
L 66.126637 168.60834 
L 66.42897 168.443277 
L 66.731303 168.50426 
L 67.109219 168.855331 
L 67.562719 169.616553 
L 68.167385 171.094245 
L 68.9988 173.76636 
L 70.208132 178.503228 
L 72.324463 187.89289 
L 76.632707 207.046509 
L 79.202538 217.374464 
L 81.621201 226.176492 
L 83.964281 233.876688 
L 86.307362 240.816172 
L 88.650442 247.055899 
L 90.993523 252.657288 
L 93.336603 257.679162 
L 95.679683 262.176602 
L 98.022764 266.200595 
L 100.365844 269.798002 
L 102.784508 273.109416 
L 105.203171 276.054824 
L 107.697418 278.750003 
L 110.267248 281.203454 
L 112.912661 283.425465 
L 115.709241 285.47961 
L 118.581404 287.313199 
L 121.604734 288.980625 
L 124.854813 290.514095 
L 128.256059 291.873486 
L 131.959637 293.112867 
L 135.05855 293.986893 
L 135.05855 293.986893 
L 135.288449 292.627552 
L 135.748247 281.709469 
L 138.047237 205.195493 
L 138.736934 191.075259 
L 139.426631 181.183608 
L 140.116328 174.677497 
L 140.576126 171.835611 
L 141.035924 169.958655 
L 141.495722 168.879373 
L 141.955521 168.456093 
L 142.18542 168.452463 
L 142.645218 168.79628 
L 143.105016 169.534369 
L 143.794713 171.219314 
L 144.714309 174.243778 
L 146.093703 179.787758 
L 148.852491 192.207171 
L 152.300976 207.403916 
L 154.829865 217.542905 
L 157.128855 225.914795 
L 159.427846 233.502334 
L 161.726836 240.354619 
L 164.025826 246.529064 
L 166.324816 252.083808 
L 168.623806 257.074724 
L 170.922796 261.554285 
L 173.221786 265.571183 
L 175.520777 269.170282 
L 177.819767 272.392712 
L 180.348656 275.547066 
L 182.877545 278.336349 
L 185.406434 280.801306 
L 188.165222 283.163286 
L 190.924011 285.224927 
L 193.912698 287.162604 
L 196.901385 288.833107 
L 200.119971 290.374752 
L 203.568456 291.773508 
L 207.246841 293.022039 
L 211.155124 294.118993 
L 215.523205 295.115233 
L 220.351084 295.989242 
L 225.868661 296.759427 
L 232.305833 297.424729 
L 239.892501 297.975837 
L 249.088461 298.414069 
L 261.04321 298.749701 
L 277.825838 298.980653 
L 305.41372 299.110374 
L 364.957564 299.150859 
L 364.957564 299.150859 
" clip-path="url(#p495846d549)" style="fill: none; stroke: #d62728; stroke-width: 2; stroke-linecap: square"/>
   </g>
   <g id="line2d_16">
    <path d="M 135.05855 279.388235 
L 138.207852 194.152941 
L 141.357153 116.329412 
L 144.506455 103.976471 
L 147.655756 117.564706 
L 153.954359 170.682353 
L 172.850169 252.891176 
L 191.745978 268.270588 
L 210.641788 279.326471 
L 248.433406 292.544118 
L 286.225025 292.544118 
L 324.016644 296.682353 
" clip-path="url(#p495846d549)" style="fill: none; stroke-dasharray: 3.7,1.6; stroke-dashoffset: 0; stroke: #d62728"/>
    <defs>
     <path id="md32fe1f2a9" d="M -3 3 
L 3 3 
L 3 -3 
L -3 -3 
z
" style="stroke: #000000; stroke-linejoin: miter"/>
    </defs>
    <g clip-path="url(#p495846d549)">
     <use xlink:href="#md32fe1f2a9" x="135.05855" y="279.388235" style="fill: #d62728; stroke: #000000; stroke-linejoin: miter"/>
     <use xlink:href="#md32fe1f2a9" x="138.207852" y="194.152941" style="fill: #d62728; stroke: #000000; stroke-linejoin: miter"/>
     <use xlink:href="#md32fe1f2a9" x="141.357153" y="116.329412" style="fill: #d62728; stroke: #000000; stroke-linejoin: miter"/>
     <use xlink:href="#md32fe1f2a9" x="144.506455" y="103.976471" style="fill: #d62728; stroke: #000000; stroke-linejoin: miter"/>
     <use xlink:href="#md32fe1f2a9" x="147.655756" y="117.564706" style="fill: #d62728; stroke: #000000; stroke-linejoin: miter"/>
     <use xlink:href="#md32fe1f2a9" x="153.954359" y="170.682353" style="fill: #d62728; stroke: #000000; stroke-linejoin: miter"/>
     <use xlink:href="#md32fe1f2a9" x="172.850169" y="252.891176" style="fill: #d62728; stroke: #000000; stroke-linejoin: miter"/>
     <use xlink:href="#md32fe1f2a9" x="191.745978" y="268.270588" style="fill: #d62728; stroke: #000000; stroke-linejoin: miter"/>
     <use xlink:href="#md32fe1f2a9" x="210.641788" y="279.326471" style="fill: #d62728; stroke: #000000; stroke-linejoin: miter"/>
     <use xlink:href="#md32fe1f2a9" x="248.433406" y="292.544118" style="fill: #d62728; stroke: #000000; stroke-linejoin: miter"/>
     <use xlink:href="#md32fe1f2a9" x="286.225025" y="292.544118" style="fill: #d62728; stroke: #000000; stroke-linejoin: miter"/>
     <use xlink:href="#md32fe1f2a9" x="324.016644" y="296.682353" style="fill: #d62728; stroke: #000000; stroke-linejoin: miter"/>
    </g>
   </g>
   <g id="patch_3">
    <path d="M 59.475313 320.4 
L 59.475313 43.2 
" style="fill: none; stroke: #000000; stroke-width: 0.8; stroke-linejoin: miter; stroke-linecap: square"/>
   </g>
   <g id="patch_4">
    <path d="M 399.127486 320.4 
L 399.127486 43.2 
" style="fill: none; stroke: #000000; stroke-width: 0.8; stroke-linejoin: miter; stroke-linecap: square"/>
   </g>
   <g id="patch_5">
    <path d="M 59.475313 320.4 
L 399.127486 320.4 
" style="fill: none; stroke: #000000; stroke-width: 0.8; stroke-linejoin: miter; stroke-linecap: square"/>
   </g>
   <g id="patch_6">
    <path d="M 59.475313 43.2 
L 399.127486 43.2 
" style="fill: none; stroke: #000000; stroke-width: 0.8; stroke-linejoin: miter; stroke-linecap: square"/>
   </g>
   <g id="legend_1">
    <g id="patch_7">
     <path d="M 169.757174 80.55625 
L 392.127486 80.55625 
Q 394.127486 80.55625 394.127486 78.55625 
L 394.127486 50.2 
Q 394.127486 48.2 392.127486 48.2 
L 169.757174 48.2 
Q 167.757174 48.2 167.757174 50.2 
L 167.757174 78.55625 
Q 167.757174 80.55625 169.757174 80.55625 
z
" style="fill: #ffffff; opacity: 0.8; stroke: #cccccc; stroke-linejoin: miter"/>
    </g>
    <g id="line2d_17">
     <path d="M 171.757174 56.298437 
L 191.757174 56.298437 
" style="fill: none; stroke: #d62728; stroke-width: 2; stroke-linecap: square"/>
    </g>
    <g id="line2d_18"/>
    <g id="text_17">
     <!-- sim chronic fed: 20mg PO -->
     <g transform="translate(199.757174 59.798437) scale(0.1 -0.1)">
      <defs>
       <path id="DejaVuSans-73" d="M 2834 3397 
L 2834 2853 
Q 2591 2978 2328 3040 
Q 2066 3103 1784 3103 
Q 1356 3103 1142 2972 
Q 928 2841 928 2578 
Q 928 2378 1081 2264 
Q 1234 2150 1697 2047 
L 1894 2003 
Q 2506 1872 2764 1633 
Q 3022 1394 3022 966 
Q 3022 478 2636 193 
Q 2250 -91 1575 -91 
Q 1294 -91 989 -36 
Q 684 19 347 128 
L 347 722 
Q 666 556 975 473 
Q 1284 391 1588 391 
Q 1994 391 2212 530 
Q 2431 669 2431 922 
Q 2431 1156 2273 1281 
Q 2116 1406 1581 1522 
L 1381 1569 
Q 847 1681 609 1914 
Q 372 2147 372 2553 
Q 372 3047 722 3315 
Q 1072 3584 1716 3584 
Q 2034 3584 2315 3537 
Q 2597 3491 2834 3397 
z
" transform="scale(0.015625)"/>
       <path id="DejaVuSans-69" d="M 603 3500 
L 1178 3500 
L 1178 0 
L 603 0 
L 603 3500 
z
M 603 4863 
L 1178 4863 
L 1178 4134 
L 603 4134 
L 603 4863 
z
" transform="scale(0.015625)"/>
       <path id="DejaVuSans-6d" d="M 3328 2828 
Q 3544 3216 3844 3400 
Q 4144 3584 4550 3584 
Q 5097 3584 5394 3201 
Q 5691 2819 5691 2113 
L 5691 0 
L 5113 0 
L 5113 2094 
Q 5113 2597 4934 2840 
Q 4756 3084 4391 3084 
Q 3944 3084 3684 2787 
Q 3425 2491 3425 1978 
L 3425 0 
L 2847 0 
L 2847 2094 
Q 2847 2600 2669 2842 
Q 2491 3084 2119 3084 
Q 1678 3084 1418 2786 
Q 1159 2488 1159 1978 
L 1159 0 
L 581 0 
L 581 3500 
L 1159 3500 
L 1159 2956 
Q 1356 3278 1631 3431 
Q 1906 3584 2284 3584 
Q 2666 3584 2933 3390 
Q 3200 3197 3328 2828 
z
" transform="scale(0.015625)"/>
       <path id="DejaVuSans-20" transform="scale(0.015625)"/>
       <path id="DejaVuSans-63" d="M 3122 3366 
L 3122 2828 
Q 2878 2963 2633 3030 
Q 2388 3097 2138 3097 
Q 1578 3097 1268 2742 
Q 959 2388 959 1747 
Q 959 1106 1268 751 
Q 1578 397 2138 397 
Q 2388 397 2633 464 
Q 2878 531 3122 666 
L 3122 134 
Q 2881 22 2623 -34 
Q 2366 -91 2075 -91 
Q 1284 -91 818 406 
Q 353 903 353 1747 
Q 353 2603 823 3093 
Q 1294 3584 2113 3584 
Q 2378 3584 2631 3529 
Q 2884 3475 3122 3366 
z
" transform="scale(0.015625)"/>
       <path id="DejaVuSans-68" d="M 3513 2113 
L 3513 0 
L 2938 0 
L 2938 2094 
Q 2938 2591 2744 2837 
Q 2550 3084 2163 3084 
Q 1697 3084 1428 2787 
Q 1159 2491 1159 1978 
L 1159 0 
L 581 0 
L 581 4863 
L 1159 4863 
L 1159 2956 
Q 1366 3272 1645 3428 
Q 1925 3584 2291 3584 
Q 2894 3584 3203 3211 
Q 3513 2838 3513 2113 
z
" transform="scale(0.015625)"/>
       <path id="DejaVuSans-72" d="M 2631 2963 
Q 2534 3019 2420 3045 
Q 2306 3072 2169 3072 
Q 1681 3072 1420 2755 
Q 1159 2438 1159 1844 
L 1159 0 
L 581 0 
L 581 3500 
L 1159 3500 
L 1159 2956 
Q 1341 3275 1631 3429 
Q 1922 3584 2338 3584 
Q 2397 3584 2469 3576 
Q 2541 3569 2628 3553 
L 2631 2963 
z
" transform="scale(0.015625)"/>
       <path id="DejaVuSans-6f" d="M 1959 3097 
Q 1497 3097 1228 2736 
Q 959 2375 959 1747 
Q 959 1119 1226 758 
Q 1494 397 1959 397 
Q 2419 397 2687 759 
Q 2956 1122 2956 1747 
Q 2956 2369 2687 2733 
Q 2419 3097 1959 3097 
z
M 1959 3584 
Q 2709 3584 3137 3096 
Q 3566 2609 3566 1747 
Q 3566 888 3137 398 
Q 2709 -91 1959 -91 
Q 1206 -91 779 398 
Q 353 888 353 1747 
Q 353 2609 779 3096 
Q 1206 3584 1959 3584 
z
" transform="scale(0.015625)"/>
       <path id="DejaVuSans-6e" d="M 3513 2113 
L 3513 0 
L 2938 0 
L 2938 2094 
Q 2938 2591 2744 2837 
Q 2550 3084 2163 3084 
Q 1697 3084 1428 2787 
Q 1159 2491 1159 1978 
L 1159 0 
L 581 0 
L 581 3500 
L 1159 3500 
L 1159 2956 
Q 1366 3272 1645 3428 
Q 1925 3584 2291 3584 
Q 2894 3584 3203 3211 
Q 3513 2838 3513 2113 
z
" transform="scale(0.015625)"/>
       <path id="DejaVuSans-66" d="M 2375 4863 
L 2375 4384 
L 1825 4384 
Q 1516 4384 1395 4259 
Q 1275 4134 1275 3809 
L 1275 3500 
L 2222 3500 
L 2222 3053 
L 1275 3053 
L 1275 0 
L 697 0 
L 697 3053 
L 147 3053 
L 147 3500 
L 697 3500 
L 697 3744 
Q 697 4328 969 4595 
Q 1241 4863 1831 4863 
L 2375 4863 
z
" transform="scale(0.015625)"/>
       <path id="DejaVuSans-65" d="M 3597 1894 
L 3597 1613 
L 953 1613 
Q 991 1019 1311 708 
Q 1631 397 2203 397 
Q 2534 397 2845 478 
Q 3156 559 3463 722 
L 3463 178 
Q 3153 47 2828 -22 
Q 2503 -91 2169 -91 
Q 1331 -91 842 396 
Q 353 884 353 1716 
Q 353 2575 817 3079 
Q 1281 3584 2069 3584 
Q 2775 3584 3186 3129 
Q 3597 2675 3597 1894 
z
M 3022 2063 
Q 3016 2534 2758 2815 
Q 2500 3097 2075 3097 
Q 1594 3097 1305 2825 
Q 1016 2553 972 2059 
L 3022 2063 
z
" transform="scale(0.015625)"/>
       <path id="DejaVuSans-64" d="M 2906 2969 
L 2906 4863 
L 3481 4863 
L 3481 0 
L 2906 0 
L 2906 525 
Q 2725 213 2448 61 
Q 2172 -91 1784 -91 
Q 1150 -91 751 415 
Q 353 922 353 1747 
Q 353 2572 751 3078 
Q 1150 3584 1784 3584 
Q 2172 3584 2448 3432 
Q 2725 3281 2906 2969 
z
M 947 1747 
Q 947 1113 1208 752 
Q 1469 391 1925 391 
Q 2381 391 2643 752 
Q 2906 1113 2906 1747 
Q 2906 2381 2643 2742 
Q 2381 3103 1925 3103 
Q 1469 3103 1208 2742 
Q 947 2381 947 1747 
z
" transform="scale(0.015625)"/>
       <path id="DejaVuSans-3a" d="M 750 794 
L 1409 794 
L 1409 0 
L 750 0 
L 750 794 
z
M 750 3309 
L 1409 3309 
L 1409 2516 
L 750 2516 
L 750 3309 
z
" transform="scale(0.015625)"/>
       <path id="DejaVuSans-67" d="M 2906 1791 
Q 2906 2416 2648 2759 
Q 2391 3103 1925 3103 
Q 1463 3103 1205 2759 
Q 947 2416 947 1791 
Q 947 1169 1205 825 
Q 1463 481 1925 481 
Q 2391 481 2648 825 
Q 2906 1169 2906 1791 
z
M 3481 434 
Q 3481 -459 3084 -895 
Q 2688 -1331 1869 -1331 
Q 1566 -1331 1297 -1286 
Q 1028 -1241 775 -1147 
L 775 -588 
Q 1028 -725 1275 -790 
Q 1522 -856 1778 -856 
Q 2344 -856 2625 -561 
Q 2906 -266 2906 331 
L 2906 616 
Q 2728 306 2450 153 
Q 2172 0 1784 0 
Q 1141 0 747 490 
Q 353 981 353 1791 
Q 353 2603 747 3093 
Q 1141 3584 1784 3584 
Q 2172 3584 2450 3431 
Q 2728 3278 2906 2969 
L 2906 3500 
L 3481 3500 
L 3481 434 
z
" transform="scale(0.015625)"/>
       <path id="DejaVuSans-50" d="M 1259 4147 
L 1259 2394 
L 2053 2394 
Q 2494 2394 2734 2622 
Q 2975 2850 2975 3272 
Q 2975 3691 2734 3919 
Q 2494 4147 2053 4147 
L 1259 4147 
z
M 628 4666 
L 2053 4666 
Q 2838 4666 3239 4311 
Q 3641 3956 3641 3272 
Q 3641 2581 3239 2228 
Q 2838 1875 2053 1875 
L 1259 1875 
L 1259 0 
L 628 0 
L 628 4666 
z
" transform="scale(0.015625)"/>
       <path id="DejaVuSans-4f" d="M 2522 4238 
Q 1834 4238 1429 3725 
Q 1025 3213 1025 2328 
Q 1025 1447 1429 934 
Q 1834 422 2522 422 
Q 3209 422 3611 934 
Q 4013 1447 4013 2328 
Q 4013 3213 3611 3725 
Q 3209 4238 2522 4238 
z
M 2522 4750 
Q 3503 4750 4090 4092 
Q 4678 3434 4678 2328 
Q 4678 1225 4090 567 
Q 3503 -91 2522 -91 
Q 1538 -91 948 565 
Q 359 1222 359 2328 
Q 359 3434 948 4092 
Q 1538 4750 2522 4750 
z
" transform="scale(0.015625)"/>
      </defs>
      <use xlink:href="#DejaVuSans-73"/>
      <use xlink:href="#DejaVuSans-69" transform="translate(52.099609 0)"/>
      <use xlink:href="#DejaVuSans-6d" transform="translate(79.882812 0)"/>
      <use xlink:href="#DejaVuSans-20" transform="translate(177.294922 0)"/>
      <use xlink:href="#DejaVuSans-63" transform="translate(209.082031 0)"/>
      <use xlink:href="#DejaVuSans-68" transform="translate(264.0625 0)"/>
      <use xlink:href="#DejaVuSans-72" transform="translate(327.441406 0)"/>
      <use xlink:href="#DejaVuSans-6f" transform="translate(366.304688 0)"/>
      <use xlink:href="#DejaVuSans-6e" transform="translate(427.486328 0)"/>
      <use xlink:href="#DejaVuSans-69" transform="translate(490.865234 0)"/>
      <use xlink:href="#DejaVuSans-63" transform="translate(518.648438 0)"/>
      <use xlink:href="#DejaVuSans-20" transform="translate(573.628906 0)"/>
      <use xlink:href="#DejaVuSans-66" transform="translate(605.416016 0)"/>
      <use xlink:href="#DejaVuSans-65" transform="translate(640.621094 0)"/>
      <use xlink:href="#DejaVuSans-64" transform="translate(702.144531 0)"/>
      <use xlink:href="#DejaVuSans-3a" transform="translate(765.621094 0)"/>
      <use xlink:href="#DejaVuSans-20" transform="translate(799.3125 0)"/>
      <use xlink:href="#DejaVuSans-32" transform="translate(831.099609 0)"/>
      <use xlink:href="#DejaVuSans-30" transform="translate(894.722656 0)"/>
      <use xlink:href="#DejaVuSans-6d" transform="translate(958.345703 0)"/>
      <use xlink:href="#DejaVuSans-67" transform="translate(1055.757812 0)"/>
      <use xlink:href="#DejaVuSans-20" transform="translate(1119.234375 0)"/>
      <use xlink:href="#DejaVuSans-50" transform="translate(1151.021484 0)"/>
      <use xlink:href="#DejaVuSans-4f" transform="translate(1211.324219 0)"/>
     </g>
    </g>
    <g id="LineCollection_2">
     <path d="M 181.757174 75.976562 
L 181.757174 65.976562 
" style="fill: none; stroke: #d62728"/>
    </g>
    <g id="line2d_19">
     <path d="M 171.757174 70.976562 
L 191.757174 70.976562 
" style="fill: none; stroke-dasharray: 3.7,1.6; stroke-dashoffset: 0; stroke: #d62728"/>
    </g>
    <g id="line2d_20">
     <g>
      <use xlink:href="#md32fe1f2a9" x="181.757174" y="70.976562" style="fill: #d62728; stroke: #000000; stroke-linejoin: miter"/>
     </g>
    </g>
    <g id="text_18">
     <!-- exp chronic fed: 20mg PO±SD (n=24) -->
     <g transform="translate(199.757174 74.476562) scale(0.1 -0.1)">
      <defs>
       <path id="DejaVuSans-78" d="M 3513 3500 
L 2247 1797 
L 3578 0 
L 2900 0 
L 1881 1375 
L 863 0 
L 184 0 
L 1544 1831 
L 300 3500 
L 978 3500 
L 1906 2253 
L 2834 3500 
L 3513 3500 
z
" transform="scale(0.015625)"/>
       <path id="DejaVuSans-70" d="M 1159 525 
L 1159 -1331 
L 581 -1331 
L 581 3500 
L 1159 3500 
L 1159 2969 
Q 1341 3281 1617 3432 
Q 1894 3584 2278 3584 
Q 2916 3584 3314 3078 
Q 3713 2572 3713 1747 
Q 3713 922 3314 415 
Q 2916 -91 2278 -91 
Q 1894 -91 1617 61 
Q 1341 213 1159 525 
z
M 3116 1747 
Q 3116 2381 2855 2742 
Q 2594 3103 2138 3103 
Q 1681 3103 1420 2742 
Q 1159 2381 1159 1747 
Q 1159 1113 1420 752 
Q 1681 391 2138 391 
Q 2594 391 2855 752 
Q 3116 1113 3116 1747 
z
" transform="scale(0.015625)"/>
       <path id="DejaVuSans-b1" d="M 2944 4013 
L 2944 2803 
L 4684 2803 
L 4684 2272 
L 2944 2272 
L 2944 1063 
L 2419 1063 
L 2419 2272 
L 678 2272 
L 678 2803 
L 2419 2803 
L 2419 4013 
L 2944 4013 
z
M 678 531 
L 4684 531 
L 4684 0 
L 678 0 
L 678 531 
z
" transform="scale(0.015625)"/>
       <path id="DejaVuSans-53" d="M 3425 4513 
L 3425 3897 
Q 3066 4069 2747 4153 
Q 2428 4238 2131 4238 
Q 1616 4238 1336 4038 
Q 1056 3838 1056 3469 
Q 1056 3159 1242 3001 
Q 1428 2844 1947 2747 
L 2328 2669 
Q 3034 2534 3370 2195 
Q 3706 1856 3706 1288 
Q 3706 609 3251 259 
Q 2797 -91 1919 -91 
Q 1588 -91 1214 -16 
Q 841 59 441 206 
L 441 856 
Q 825 641 1194 531 
Q 1563 422 1919 422 
Q 2459 422 2753 634 
Q 3047 847 3047 1241 
Q 3047 1584 2836 1778 
Q 2625 1972 2144 2069 
L 1759 2144 
Q 1053 2284 737 2584 
Q 422 2884 422 3419 
Q 422 4038 858 4394 
Q 1294 4750 2059 4750 
Q 2388 4750 2728 4690 
Q 3069 4631 3425 4513 
z
" transform="scale(0.015625)"/>
       <path id="DejaVuSans-44" d="M 1259 4147 
L 1259 519 
L 2022 519 
Q 2988 519 3436 956 
Q 3884 1394 3884 2338 
Q 3884 3275 3436 3711 
Q 2988 4147 2022 4147 
L 1259 4147 
z
M 628 4666 
L 1925 4666 
Q 3281 4666 3915 4102 
Q 4550 3538 4550 2338 
Q 4550 1131 3912 565 
Q 3275 0 1925 0 
L 628 0 
L 628 4666 
z
" transform="scale(0.015625)"/>
       <path id="DejaVuSans-28" d="M 1984 4856 
Q 1566 4138 1362 3434 
Q 1159 2731 1159 2009 
Q 1159 1288 1364 580 
Q 1569 -128 1984 -844 
L 1484 -844 
Q 1016 -109 783 600 
Q 550 1309 550 2009 
Q 550 2706 781 3412 
Q 1013 4119 1484 4856 
L 1984 4856 
z
" transform="scale(0.015625)"/>
       <path id="DejaVuSans-3d" d="M 678 2906 
L 4684 2906 
L 4684 2381 
L 678 2381 
L 678 2906 
z
M 678 1631 
L 4684 1631 
L 4684 1100 
L 678 1100 
L 678 1631 
z
" transform="scale(0.015625)"/>
       <path id="DejaVuSans-29" d="M 513 4856 
L 1013 4856 
Q 1481 4119 1714 3412 
Q 1947 2706 1947 2009 
Q 1947 1309 1714 600 
Q 1481 -109 1013 -844 
L 513 -844 
Q 928 -128 1133 580 
Q 1338 1288 1338 2009 
Q 1338 2731 1133 3434 
Q 928 4138 513 4856 
z
" transform="scale(0.015625)"/>
      </defs>
      <use xlink:href="#DejaVuSans-65"/>
      <use xlink:href="#DejaVuSans-78" transform="translate(59.773438 0)"/>
      <use xlink:href="#DejaVuSans-70" transform="translate(118.953125 0)"/>
      <use xlink:href="#DejaVuSans-20" transform="translate(182.429688 0)"/>
      <use xlink:href="#DejaVuSans-63" transform="translate(214.216797 0)"/>
      <use xlink:href="#DejaVuSans-68" transform="translate(269.197266 0)"/>
      <use xlink:href="#DejaVuSans-72" transform="translate(332.576172 0)"/>
      <use xlink:href="#DejaVuSans-6f" transform="translate(371.439453 0)"/>
      <use xlink:href="#DejaVuSans-6e" transform="translate(432.621094 0)"/>
      <use xlink:href="#DejaVuSans-69" transform="translate(496 0)"/>
      <use xlink:href="#DejaVuSans-63" transform="translate(523.783203 0)"/>
      <use xlink:href="#DejaVuSans-20" transform="translate(578.763672 0)"/>
      <use xlink:href="#DejaVuSans-66" transform="translate(610.550781 0)"/>
      <use xlink:href="#DejaVuSans-65" transform="translate(645.755859 0)"/>
      <use xlink:href="#DejaVuSans-64" transform="translate(707.279297 0)"/>
      <use xlink:href="#DejaVuSans-3a" transform="translate(770.755859 0)"/>
      <use xlink:href="#DejaVuSans-20" transform="translate(804.447266 0)"/>
      <use xlink:href="#DejaVuSans-32" transform="translate(836.234375 0)"/>
      <use xlink:href="#DejaVuSans-30" transform="translate(899.857422 0)"/>
      <use xlink:href="#DejaVuSans-6d" transform="translate(963.480469 0)"/>
      <use xlink:href="#DejaVuSans-67" transform="translate(1060.892578 0)"/>
      <use xlink:href="#DejaVuSans-20" transform="translate(1124.369141 0)"/>
      <use xlink:href="#DejaVuSans-50" transform="translate(1156.15625 0)"/>
      <use xlink:href="#DejaVuSans-4f" transform="translate(1216.458984 0)"/>
      <use xlink:href="#DejaVuSans-b1" transform="translate(1295.169922 0)"/>
      <use xlink:href="#DejaVuSans-53" transform="translate(1378.958984 0)"/>
      <use xlink:href="#DejaVuSans-44" transform="translate(1442.435547 0)"/>
      <use xlink:href="#DejaVuSans-20" transform="translate(1519.4375 0)"/>
      <use xlink:href="#DejaVuSans-28" transform="translate(1551.224609 0)"/>
      <use xlink:href="#DejaVuSans-6e" transform="translate(1590.238281 0)"/>
      <use xlink:href="#DejaVuSans-3d" transform="translate(1653.617188 0)"/>
      <use xlink:href="#DejaVuSans-32" transform="translate(1737.40625 0)"/>
      <use xlink:href="#DejaVuSans-34" transform="translate(1801.029297 0)"/>
      <use xlink:href="#DejaVuSans-29" transform="translate(1864.652344 0)"/>
     </g>
    </g>
   </g>
  </g>
  <g id="axes_2">
   <g id="patch_8">
    <path d="M 501.023139 320.4 
L 840.675313 320.4 
L 840.675313 43.2 
L 501.023139 43.2 
z
" style="fill: #ffffff"/>
   </g>
   <g id="matplotlib.axis_3">
    <g id="xtick_7">
     <g id="line2d_21">
      <g>
       <use xlink:href="#m52bc90d63e" x="513.620345" y="320.4" style="stroke: #000000; stroke-width: 0.8"/>
      </g>
     </g>
     <g id="text_19">
      <!-- −20 -->
      <g transform="translate(497.791829 338.797656) scale(0.15 -0.15)">
       <use xlink:href="#DejaVuSans-2212"/>
       <use xlink:href="#DejaVuSans-32" transform="translate(83.789062 0)"/>
       <use xlink:href="#DejaVuSans-30" transform="translate(147.412109 0)"/>
      </g>
     </g>
    </g>
    <g id="xtick_8">
     <g id="line2d_22">
      <g>
       <use xlink:href="#m52bc90d63e" x="576.606376" y="320.4" style="stroke: #000000; stroke-width: 0.8"/>
      </g>
     </g>
     <g id="text_20">
      <!-- 0 -->
      <g transform="translate(571.834501 338.797656) scale(0.15 -0.15)">
       <use xlink:href="#DejaVuSans-30"/>
      </g>
     </g>
    </g>
    <g id="xtick_9">
     <g id="line2d_23">
      <g>
       <use xlink:href="#m52bc90d63e" x="639.592407" y="320.4" style="stroke: #000000; stroke-width: 0.8"/>
      </g>
     </g>
     <g id="text_21">
      <!-- 20 -->
      <g transform="translate(630.048657 338.797656) scale(0.15 -0.15)">
       <use xlink:href="#DejaVuSans-32"/>
       <use xlink:href="#DejaVuSans-30" transform="translate(63.623047 0)"/>
      </g>
     </g>
    </g>
    <g id="xtick_10">
     <g id="line2d_24">
      <g>
       <use xlink:href="#m52bc90d63e" x="702.578439" y="320.4" style="stroke: #000000; stroke-width: 0.8"/>
      </g>
     </g>
     <g id="text_22">
      <!-- 40 -->
      <g transform="translate(693.034689 338.797656) scale(0.15 -0.15)">
       <use xlink:href="#DejaVuSans-34"/>
       <use xlink:href="#DejaVuSans-30" transform="translate(63.623047 0)"/>
      </g>
     </g>
    </g>
    <g id="xtick_11">
     <g id="line2d_25">
      <g>
       <use xlink:href="#m52bc90d63e" x="765.56447" y="320.4" style="stroke: #000000; stroke-width: 0.8"/>
      </g>
     </g>
     <g id="text_23">
      <!-- 60 -->
      <g transform="translate(756.02072 338.797656) scale(0.15 -0.15)">
       <use xlink:href="#DejaVuSans-36"/>
       <use xlink:href="#DejaVuSans-30" transform="translate(63.623047 0)"/>
      </g>
     </g>
    </g>
    <g id="xtick_12">
     <g id="line2d_26">
      <g>
       <use xlink:href="#m52bc90d63e" x="828.550501" y="320.4" style="stroke: #000000; stroke-width: 0.8"/>
      </g>
     </g>
     <g id="text_24">
      <!-- 80 -->
      <g transform="translate(819.006751 338.797656) scale(0.15 -0.15)">
       <use xlink:href="#DejaVuSans-38"/>
       <use xlink:href="#DejaVuSans-30" transform="translate(63.623047 0)"/>
      </g>
     </g>
    </g>
    <g id="text_25">
     <!-- time [hr] -->
     <g transform="translate(625.774694 359.594375) scale(0.18 -0.18)">
      <use xlink:href="#DejaVuSans-Bold-74"/>
      <use xlink:href="#DejaVuSans-Bold-69" transform="translate(47.802734 0)"/>
      <use xlink:href="#DejaVuSans-Bold-6d" transform="translate(82.080078 0)"/>
      <use xlink:href="#DejaVuSans-Bold-65" transform="translate(186.279297 0)"/>
      <use xlink:href="#DejaVuSans-Bold-20" transform="translate(254.101562 0)"/>
      <use xlink:href="#DejaVuSans-Bold-5b" transform="translate(288.916016 0)"/>
      <use xlink:href="#DejaVuSans-Bold-68" transform="translate(334.619141 0)"/>
      <use xlink:href="#DejaVuSans-Bold-72" transform="translate(405.810547 0)"/>
      <use xlink:href="#DejaVuSans-Bold-5d" transform="translate(455.126953 0)"/>
     </g>
    </g>
   </g>
   <g id="matplotlib.axis_4">
    <g id="ytick_9">
     <g id="line2d_27">
      <g>
       <use xlink:href="#madef3c5ec8" x="501.023139" y="278.907995" style="stroke: #000000; stroke-width: 0.8"/>
      </g>
     </g>
     <g id="text_26">
      <!-- 1.0 -->
      <g transform="translate(470.168451 284.606823) scale(0.15 -0.15)">
       <use xlink:href="#DejaVuSans-31"/>
       <use xlink:href="#DejaVuSans-2e" transform="translate(63.623047 0)"/>
       <use xlink:href="#DejaVuSans-30" transform="translate(95.410156 0)"/>
      </g>
     </g>
    </g>
    <g id="ytick_10">
     <g id="line2d_28">
      <g>
       <use xlink:href="#madef3c5ec8" x="501.023139" y="234.031707" style="stroke: #000000; stroke-width: 0.8"/>
      </g>
     </g>
     <g id="text_27">
      <!-- 1.1 -->
      <g transform="translate(470.168451 239.730535) scale(0.15 -0.15)">
       <use xlink:href="#DejaVuSans-31"/>
       <use xlink:href="#DejaVuSans-2e" transform="translate(63.623047 0)"/>
       <use xlink:href="#DejaVuSans-31" transform="translate(95.410156 0)"/>
      </g>
     </g>
    </g>
    <g id="ytick_11">
     <g id="line2d_29">
      <g>
       <use xlink:href="#madef3c5ec8" x="501.023139" y="189.155419" style="stroke: #000000; stroke-width: 0.8"/>
      </g>
     </g>
     <g id="text_28">
      <!-- 1.2 -->
      <g transform="translate(470.168451 194.854248) scale(0.15 -0.15)">
       <use xlink:href="#DejaVuSans-31"/>
       <use xlink:href="#DejaVuSans-2e" transform="translate(63.623047 0)"/>
       <use xlink:href="#DejaVuSans-32" transform="translate(95.410156 0)"/>
      </g>
     </g>
    </g>
    <g id="ytick_12">
     <g id="line2d_30">
      <g>
       <use xlink:href="#madef3c5ec8" x="501.023139" y="144.279132" style="stroke: #000000; stroke-width: 0.8"/>
      </g>
     </g>
     <g id="text_29">
      <!-- 1.3 -->
      <g transform="translate(470.168451 149.97796) scale(0.15 -0.15)">
       <use xlink:href="#DejaVuSans-31"/>
       <use xlink:href="#DejaVuSans-2e" transform="translate(63.623047 0)"/>
       <use xlink:href="#DejaVuSans-33" transform="translate(95.410156 0)"/>
      </g>
     </g>
    </g>
    <g id="ytick_13">
     <g id="line2d_31">
      <g>
       <use xlink:href="#madef3c5ec8" x="501.023139" y="99.402844" style="stroke: #000000; stroke-width: 0.8"/>
      </g>
     </g>
     <g id="text_30">
      <!-- 1.4 -->
      <g transform="translate(470.168451 105.101672) scale(0.15 -0.15)">
       <use xlink:href="#DejaVuSans-31"/>
       <use xlink:href="#DejaVuSans-2e" transform="translate(63.623047 0)"/>
       <use xlink:href="#DejaVuSans-34" transform="translate(95.410156 0)"/>
      </g>
     </g>
    </g>
    <g id="ytick_14">
     <g id="line2d_32">
      <g>
       <use xlink:href="#madef3c5ec8" x="501.023139" y="54.526556" style="stroke: #000000; stroke-width: 0.8"/>
      </g>
     </g>
     <g id="text_31">
      <!-- 1.5 -->
      <g transform="translate(470.168451 60.225384) scale(0.15 -0.15)">
       <use xlink:href="#DejaVuSans-31"/>
       <use xlink:href="#DejaVuSans-2e" transform="translate(63.623047 0)"/>
       <use xlink:href="#DejaVuSans-35" transform="translate(95.410156 0)"/>
      </g>
     </g>
    </g>
    <g id="text_32">
     <!-- aPTT ratio [-] -->
     <g transform="translate(462.425014 249.262031) rotate(-90) scale(0.18 -0.18)">
      <use xlink:href="#DejaVuSans-Bold-61"/>
      <use xlink:href="#DejaVuSans-Bold-50" transform="translate(67.480469 0)"/>
      <use xlink:href="#DejaVuSans-Bold-54" transform="translate(140.771484 0)"/>
      <use xlink:href="#DejaVuSans-Bold-54" transform="translate(211.234375 0)"/>
      <use xlink:href="#DejaVuSans-Bold-20" transform="translate(279.447266 0)"/>
      <use xlink:href="#DejaVuSans-Bold-72" transform="translate(314.261719 0)"/>
      <use xlink:href="#DejaVuSans-Bold-61" transform="translate(363.578125 0)"/>
      <use xlink:href="#DejaVuSans-Bold-74" transform="translate(431.058594 0)"/>
      <use xlink:href="#DejaVuSans-Bold-69" transform="translate(478.861328 0)"/>
      <use xlink:href="#DejaVuSans-Bold-6f" transform="translate(513.138672 0)"/>
      <use xlink:href="#DejaVuSans-Bold-20" transform="translate(581.839844 0)"/>
      <use xlink:href="#DejaVuSans-Bold-5b" transform="translate(616.654297 0)"/>
      <use xlink:href="#DejaVuSans-Bold-2d" transform="translate(662.357422 0)"/>
      <use xlink:href="#DejaVuSans-Bold-5d" transform="translate(703.861328 0)"/>
     </g>
    </g>
   </g>
   <g id="LineCollection_3">
    <path d="M 576.606376 275.439417 
L 576.606376 240.571082 
" clip-path="url(#p32a5f4a4aa)" style="fill: none; stroke: #d62728"/>
    <path d="M 579.755678 251.044073 
L 579.755678 109.197493 
" clip-path="url(#p32a5f4a4aa)" style="fill: none; stroke: #d62728"/>
    <path d="M 582.904979 168.509214 
L 582.904979 66.210187 
" clip-path="url(#p32a5f4a4aa)" style="fill: none; stroke: #d62728"/>
    <path d="M 586.054281 131.330094 
L 586.054281 70.865383 
" clip-path="url(#p32a5f4a4aa)" style="fill: none; stroke: #d62728"/>
    <path d="M 589.203582 141.803086 
L 589.203582 72.047198 
" clip-path="url(#p32a5f4a4aa)" style="fill: none; stroke: #d62728"/>
    <path d="M 595.502186 174.384658 
L 595.502186 111.613967 
" clip-path="url(#p32a5f4a4aa)" style="fill: none; stroke: #d62728"/>
    <path d="M 614.397995 234.507396 
L 614.397995 188.679731 
" clip-path="url(#p32a5f4a4aa)" style="fill: none; stroke: #d62728"/>
    <path d="M 633.293804 258.293497 
L 633.293804 211.789572 
" clip-path="url(#p32a5f4a4aa)" style="fill: none; stroke: #d62728"/>
    <path d="M 652.189614 263.992912 
L 652.189614 222.021018 
" clip-path="url(#p32a5f4a4aa)" style="fill: none; stroke: #d62728"/>
    <path d="M 689.981233 281.212841 
L 689.981233 240.702119 
" clip-path="url(#p32a5f4a4aa)" style="fill: none; stroke: #d62728"/>
    <path d="M 727.772851 291.263335 
L 727.772851 248.60214 
" clip-path="url(#p32a5f4a4aa)" style="fill: none; stroke: #d62728"/>
    <path d="M 765.56447 307.8 
L 765.56447 261.296075 
" clip-path="url(#p32a5f4a4aa)" style="fill: none; stroke: #d62728"/>
   </g>
   <g id="line2d_33">
    <path d="M 500.947555 262.953787 
L 501.023139 263.012511 
L 501.023139 263.012511 
L 501.098722 262.769194 
L 501.249888 259.12338 
L 501.552221 241.585634 
L 503.215052 124.403845 
L 503.819718 100.411909 
L 504.424384 83.986859 
L 505.02905 72.844895 
L 505.633716 65.404135 
L 506.238382 60.598587 
L 506.767465 57.980727 
L 507.220964 56.63809 
L 507.674463 55.95559 
L 508.05238 55.8 
L 508.354713 55.903422 
L 508.732629 56.276707 
L 509.261711 57.183024 
L 509.941961 58.87661 
L 510.848959 61.830404 
L 512.058291 66.626579 
L 513.721123 74.205282 
L 516.442119 87.790797 
L 525.814441 135.279916 
L 529.442436 152.22399 
L 532.692515 166.38257 
L 535.791428 178.900284 
L 538.739174 189.88019 
L 541.535754 199.452337 
L 544.25675 207.984851 
L 546.902164 215.561557 
L 549.471994 222.269537 
L 552.041824 228.366091 
L 554.611654 233.886331 
L 557.105901 238.728694 
L 559.600148 243.099142 
L 562.094395 247.03344 
L 564.588641 250.56685 
L 567.158471 253.824152 
L 569.728302 256.727951 
L 572.373715 259.383502 
L 575.094711 261.797645 
L 576.606376 263.012511 
L 576.606376 263.012511 
L 576.836275 259.002931 
L 577.296073 229.142365 
L 578.215669 157.337465 
L 578.905366 119.47977 
L 579.595063 94.497574 
L 580.28476 78.33419 
L 580.974457 68.021185 
L 581.664154 61.641355 
L 582.123953 58.948147 
L 582.583751 57.199319 
L 583.043549 56.204272 
L 583.503347 55.816108 
L 583.963145 55.920272 
L 584.422943 56.426455 
L 584.882741 57.262738 
L 585.572438 59.012747 
L 586.492034 62.0476 
L 587.641529 66.626579 
L 589.480721 75.05295 
L 592.469408 90.07167 
L 600.745773 132.121114 
L 604.424157 149.493926 
L 607.642743 163.705654 
L 610.63143 175.988207 
L 613.620117 187.347177 
L 616.378906 196.998952 
L 619.137694 205.855366 
L 621.896482 213.93484 
L 624.425371 220.683262 
L 626.95426 226.831774 
L 629.483149 232.413014 
L 632.012039 237.46233 
L 634.540928 242.016553 
L 637.069817 246.112979 
L 639.598706 249.788549 
L 642.127595 253.07921 
L 644.656484 256.019435 
L 647.185374 258.641895 
L 649.944162 261.17631 
L 652.70295 263.405879 
L 655.461738 265.364395 
L 658.450425 267.215826 
L 661.669011 268.934468 
L 664.887598 270.405666 
L 668.336083 271.746132 
L 672.244366 273.015277 
L 676.382548 274.117622 
L 680.980529 275.104517 
L 686.038307 275.958595 
L 691.785782 276.700048 
L 698.452854 277.330789 
L 706.499319 277.857679 
L 716.384977 278.270975 
L 729.489221 278.579872 
L 748.34094 278.781723 
L 781.906196 278.884948 
L 806.505391 278.90137 
L 806.505391 278.90137 
" clip-path="url(#p32a5f4a4aa)" style="fill: none; stroke: #d62728; stroke-width: 2; stroke-linecap: square"/>
   </g>
   <g id="line2d_34">
    <path d="M 576.606376 258.005249 
L 579.755678 180.120783 
L 582.904979 117.3597 
L 586.054281 101.097739 
L 589.203582 106.925142 
L 595.502186 142.999313 
L 614.397995 211.593563 
L 633.293804 235.041534 
L 652.189614 243.006965 
L 689.981233 260.95748 
L 727.772851 269.932738 
L 765.56447 284.548037 
" clip-path="url(#p32a5f4a4aa)" style="fill: none; stroke-dasharray: 3.7,1.6; stroke-dashoffset: 0; stroke: #d62728"/>
    <g clip-path="url(#p32a5f4a4aa)">
     <use xlink:href="#md32fe1f2a9" x="576.606376" y="258.005249" style="fill: #d62728; stroke: #000000; stroke-linejoin: miter"/>
     <use xlink:href="#md32fe1f2a9" x="579.755678" y="180.120783" style="fill: #d62728; stroke: #000000; stroke-linejoin: miter"/>
     <use xlink:href="#md32fe1f2a9" x="582.904979" y="117.3597" style="fill: #d62728; stroke: #000000; stroke-linejoin: miter"/>
     <use xlink:href="#md32fe1f2a9" x="586.054281" y="101.097739" style="fill: #d62728; stroke: #000000; stroke-linejoin: miter"/>
     <use xlink:href="#md32fe1f2a9" x="589.203582" y="106.925142" style="fill: #d62728; stroke: #000000; stroke-linejoin: miter"/>
     <use xlink:href="#md32fe1f2a9" x="595.502186" y="142.999313" style="fill: #d62728; stroke: #000000; stroke-linejoin: miter"/>
     <use xlink:href="#md32fe1f2a9" x="614.397995" y="211.593563" style="fill: #d62728; stroke: #000000; stroke-linejoin: miter"/>
     <use xlink:href="#md32fe1f2a9" x="633.293804" y="235.041534" style="fill: #d62728; stroke: #000000; stroke-linejoin: miter"/>
     <use xlink:href="#md32fe1f2a9" x="652.189614" y="243.006965" style="fill: #d62728; stroke: #000000; stroke-linejoin: miter"/>
     <use xlink:href="#md32fe1f2a9" x="689.981233" y="260.95748" style="fill: #d62728; stroke: #000000; stroke-linejoin: miter"/>
     <use xlink:href="#md32fe1f2a9" x="727.772851" y="269.932738" style="fill: #d62728; stroke: #000000; stroke-linejoin: miter"/>
     <use xlink:href="#md32fe1f2a9" x="765.56447" y="284.548037" style="fill: #d62728; stroke: #000000; stroke-linejoin: miter"/>
    </g>
   </g>
   <g id="patch_9">
    <path d="M 501.023139 320.4 
L 501.023139 43.2 
" style="fill: none; stroke: #000000; stroke-width: 0.8; stroke-linejoin: miter; stroke-linecap: square"/>
   </g>
   <g id="patch_10">
    <path d="M 840.675313 320.4 
L 840.675313 43.2 
" style="fill: none; stroke: #000000; stroke-width: 0.8; stroke-linejoin: miter; stroke-linecap: square"/>
   </g>
   <g id="patch_11">
    <path d="M 501.023139 320.4 
L 840.675313 320.4 
" style="fill: none; stroke: #000000; stroke-width: 0.8; stroke-linejoin: miter; stroke-linecap: square"/>
   </g>
   <g id="patch_12">
    <path d="M 501.023139 43.2 
L 840.675313 43.2 
" style="fill: none; stroke: #000000; stroke-width: 0.8; stroke-linejoin: miter; stroke-linecap: square"/>
   </g>
   <g id="legend_2">
    <g id="patch_13">
     <path d="M 611.305 80.55625 
L 833.675313 80.55625 
Q 835.675313 80.55625 835.675313 78.55625 
L 835.675313 50.2 
Q 835.675313 48.2 833.675313 48.2 
L 611.305 48.2 
Q 609.305 48.2 609.305 50.2 
L 609.305 78.55625 
Q 609.305 80.55625 611.305 80.55625 
z
" style="fill: #ffffff; opacity: 0.8; stroke: #cccccc; stroke-linejoin: miter"/>
    </g>
    <g id="line2d_35">
     <path d="M 613.305 56.298437 
L 633.305 56.298437 
" style="fill: none; stroke: #d62728; stroke-width: 2; stroke-linecap: square"/>
    </g>
    <g id="line2d_36"/>
    <g id="text_33">
     <!-- sim chronic fed: 20mg PO -->
     <g transform="translate(641.305 59.798437) scale(0.1 -0.1)">
      <use xlink:href="#DejaVuSans-73"/>
      <use xlink:href="#DejaVuSans-69" transform="translate(52.099609 0)"/>
      <use xlink:href="#DejaVuSans-6d" transform="translate(79.882812 0)"/>
      <use xlink:href="#DejaVuSans-20" transform="translate(177.294922 0)"/>
      <use xlink:href="#DejaVuSans-63" transform="translate(209.082031 0)"/>
      <use xlink:href="#DejaVuSans-68" transform="translate(264.0625 0)"/>
      <use xlink:href="#DejaVuSans-72" transform="translate(327.441406 0)"/>
      <use xlink:href="#DejaVuSans-6f" transform="translate(366.304688 0)"/>
      <use xlink:href="#DejaVuSans-6e" transform="translate(427.486328 0)"/>
      <use xlink:href="#DejaVuSans-69" transform="translate(490.865234 0)"/>
      <use xlink:href="#DejaVuSans-63" transform="translate(518.648438 0)"/>
      <use xlink:href="#DejaVuSans-20" transform="translate(573.628906 0)"/>
      <use xlink:href="#DejaVuSans-66" transform="translate(605.416016 0)"/>
      <use xlink:href="#DejaVuSans-65" transform="translate(640.621094 0)"/>
      <use xlink:href="#DejaVuSans-64" transform="translate(702.144531 0)"/>
      <use xlink:href="#DejaVuSans-3a" transform="translate(765.621094 0)"/>
      <use xlink:href="#DejaVuSans-20" transform="translate(799.3125 0)"/>
      <use xlink:href="#DejaVuSans-32" transform="translate(831.099609 0)"/>
      <use xlink:href="#DejaVuSans-30" transform="translate(894.722656 0)"/>
      <use xlink:href="#DejaVuSans-6d" transform="translate(958.345703 0)"/>
      <use xlink:href="#DejaVuSans-67" transform="translate(1055.757812 0)"/>
      <use xlink:href="#DejaVuSans-20" transform="translate(1119.234375 0)"/>
      <use xlink:href="#DejaVuSans-50" transform="translate(1151.021484 0)"/>
      <use xlink:href="#DejaVuSans-4f" transform="translate(1211.324219 0)"/>
     </g>
    </g>
    <g id="LineCollection_4">
     <path d="M 623.305 75.976562 
L 623.305 65.976562 
" style="fill: none; stroke: #d62728"/>
    </g>
    <g id="line2d_37">
     <path d="M 613.305 70.976562 
L 633.305 70.976562 
" style="fill: none; stroke-dasharray: 3.7,1.6; stroke-dashoffset: 0; stroke: #d62728"/>
    </g>
    <g id="line2d_38">
     <g>
      <use xlink:href="#md32fe1f2a9" x="623.305" y="70.976562" style="fill: #d62728; stroke: #000000; stroke-linejoin: miter"/>
     </g>
    </g>
    <g id="text_34">
     <!-- exp chronic fed: 20mg PO±SD (n=24) -->
     <g transform="translate(641.305 74.476562) scale(0.1 -0.1)">
      <use xlink:href="#DejaVuSans-65"/>
      <use xlink:href="#DejaVuSans-78" transform="translate(59.773438 0)"/>
      <use xlink:href="#DejaVuSans-70" transform="translate(118.953125 0)"/>
      <use xlink:href="#DejaVuSans-20" transform="translate(182.429688 0)"/>
      <use xlink:href="#DejaVuSans-63" transform="translate(214.216797 0)"/>
      <use xlink:href="#DejaVuSans-68" transform="translate(269.197266 0)"/>
      <use xlink:href="#DejaVuSans-72" transform="translate(332.576172 0)"/>
      <use xlink:href="#DejaVuSans-6f" transform="translate(371.439453 0)"/>
      <use xlink:href="#DejaVuSans-6e" transform="translate(432.621094 0)"/>
      <use xlink:href="#DejaVuSans-69" transform="translate(496 0)"/>
      <use xlink:href="#DejaVuSans-63" transform="translate(523.783203 0)"/>
      <use xlink:href="#DejaVuSans-20" transform="translate(578.763672 0)"/>
      <use xlink:href="#DejaVuSans-66" transform="translate(610.550781 0)"/>
      <use xlink:href="#DejaVuSans-65" transform="translate(645.755859 0)"/>
      <use xlink:href="#DejaVuSans-64" transform="translate(707.279297 0)"/>
      <use xlink:href="#DejaVuSans-3a" transform="translate(770.755859 0)"/>
      <use xlink:href="#DejaVuSans-20" transform="translate(804.447266 0)"/>
      <use xlink:href="#DejaVuSans-32" transform="translate(836.234375 0)"/>
      <use xlink:href="#DejaVuSans-30" transform="translate(899.857422 0)"/>
      <use xlink:href="#DejaVuSans-6d" transform="translate(963.480469 0)"/>
      <use xlink:href="#DejaVuSans-67" transform="translate(1060.892578 0)"/>
      <use xlink:href="#DejaVuSans-20" transform="translate(1124.369141 0)"/>
      <use xlink:href="#DejaVuSans-50" transform="translate(1156.15625 0)"/>
      <use xlink:href="#DejaVuSans-4f" transform="translate(1216.458984 0)"/>
      <use xlink:href="#DejaVuSans-b1" transform="translate(1295.169922 0)"/>
      <use xlink:href="#DejaVuSans-53" transform="translate(1378.958984 0)"/>
      <use xlink:href="#DejaVuSans-44" transform="translate(1442.435547 0)"/>
      <use xlink:href="#DejaVuSans-20" transform="translate(1519.4375 0)"/>
      <use xlink:href="#DejaVuSans-28" transform="translate(1551.224609 0)"/>
      <use xlink:href="#DejaVuSans-6e" transform="translate(1590.238281 0)"/>
      <use xlink:href="#DejaVuSans-3d" transform="translate(1653.617188 0)"/>
      <use xlink:href="#DejaVuSans-32" transform="translate(1737.40625 0)"/>
      <use xlink:href="#DejaVuSans-34" transform="translate(1801.029297 0)"/>
      <use xlink:href="#DejaVuSans-29" transform="translate(1864.652344 0)"/>
     </g>
    </g>
   </g>
  </g>
  <g id="text_35">
   <!-- Kreutz2017 -->
   <g transform="translate(356.209687 26.196094) scale(0.25 -0.25)">
    <defs>
     <path id="DejaVuSans-Bold-4b" d="M 588 4666 
L 1791 4666 
L 1791 2963 
L 3525 4666 
L 4922 4666 
L 2675 2456 
L 5153 0 
L 3647 0 
L 1791 1838 
L 1791 0 
L 588 0 
L 588 4666 
z
" transform="scale(0.015625)"/>
     <path id="DejaVuSans-Bold-75" d="M 500 1363 
L 500 3500 
L 1625 3500 
L 1625 3150 
Q 1625 2866 1622 2436 
Q 1619 2006 1619 1863 
Q 1619 1441 1641 1255 
Q 1663 1069 1716 984 
Q 1784 875 1895 815 
Q 2006 756 2150 756 
Q 2500 756 2700 1025 
Q 2900 1294 2900 1772 
L 2900 3500 
L 4019 3500 
L 4019 0 
L 2900 0 
L 2900 506 
Q 2647 200 2364 54 
Q 2081 -91 1741 -91 
Q 1134 -91 817 281 
Q 500 653 500 1363 
z
" transform="scale(0.015625)"/>
     <path id="DejaVuSans-Bold-7a" d="M 366 3500 
L 3419 3500 
L 3419 2719 
L 1575 800 
L 3419 800 
L 3419 0 
L 288 0 
L 288 781 
L 2131 2700 
L 366 2700 
L 366 3500 
z
" transform="scale(0.015625)"/>
     <path id="DejaVuSans-Bold-32" d="M 1844 884 
L 3897 884 
L 3897 0 
L 506 0 
L 506 884 
L 2209 2388 
Q 2438 2594 2547 2791 
Q 2656 2988 2656 3200 
Q 2656 3528 2436 3728 
Q 2216 3928 1850 3928 
Q 1569 3928 1234 3808 
Q 900 3688 519 3450 
L 519 4475 
Q 925 4609 1322 4679 
Q 1719 4750 2100 4750 
Q 2938 4750 3402 4381 
Q 3866 4013 3866 3353 
Q 3866 2972 3669 2642 
Q 3472 2313 2841 1759 
L 1844 884 
z
" transform="scale(0.015625)"/>
     <path id="DejaVuSans-Bold-30" d="M 2944 2338 
Q 2944 3213 2780 3570 
Q 2616 3928 2228 3928 
Q 1841 3928 1675 3570 
Q 1509 3213 1509 2338 
Q 1509 1453 1675 1090 
Q 1841 728 2228 728 
Q 2613 728 2778 1090 
Q 2944 1453 2944 2338 
z
M 4147 2328 
Q 4147 1169 3647 539 
Q 3147 -91 2228 -91 
Q 1306 -91 806 539 
Q 306 1169 306 2328 
Q 306 3491 806 4120 
Q 1306 4750 2228 4750 
Q 3147 4750 3647 4120 
Q 4147 3491 4147 2328 
z
" transform="scale(0.015625)"/>
     <path id="DejaVuSans-Bold-31" d="M 750 831 
L 1813 831 
L 1813 3847 
L 722 3622 
L 722 4441 
L 1806 4666 
L 2950 4666 
L 2950 831 
L 4013 831 
L 4013 0 
L 750 0 
L 750 831 
z
" transform="scale(0.015625)"/>
     <path id="DejaVuSans-Bold-37" d="M 428 4666 
L 3944 4666 
L 3944 3988 
L 2125 0 
L 953 0 
L 2675 3781 
L 428 3781 
L 428 4666 
z
" transform="scale(0.015625)"/>
    </defs>
    <use xlink:href="#DejaVuSans-Bold-4b"/>
    <use xlink:href="#DejaVuSans-Bold-72" transform="translate(77.490234 0)"/>
    <use xlink:href="#DejaVuSans-Bold-65" transform="translate(126.806641 0)"/>
    <use xlink:href="#DejaVuSans-Bold-75" transform="translate(194.628906 0)"/>
    <use xlink:href="#DejaVuSans-Bold-74" transform="translate(265.820312 0)"/>
    <use xlink:href="#DejaVuSans-Bold-7a" transform="translate(313.623047 0)"/>
    <use xlink:href="#DejaVuSans-Bold-32" transform="translate(371.826172 0)"/>
    <use xlink:href="#DejaVuSans-Bold-30" transform="translate(441.40625 0)"/>
    <use xlink:href="#DejaVuSans-Bold-31" transform="translate(510.986328 0)"/>
    <use xlink:href="#DejaVuSans-Bold-37" transform="translate(580.566406 0)"/>
   </g>
  </g>
 </g>
 <defs>
  <clipPath id="p495846d549">
   <rect x="59.475313" y="43.2" width="339.652174" height="277.2"/>
  </clipPath>
  <clipPath id="p32a5f4a4aa">
   <rect x="501.023139" y="43.2" width="339.652174" height="277.2"/>
  </clipPath>
 </defs>
</svg>
