<?xml version="1.0" encoding="utf-8" standalone="no"?>
<!DOCTYPE svg PUBLIC "-//W3C//DTD SVG 1.1//EN"
  "http://www.w3.org/Graphics/SVG/1.1/DTD/svg11.dtd">
<svg xmlns:xlink="http://www.w3.org/1999/xlink" width="872.39952pt" height="368.396469pt" viewBox="0 0 872.39952 368.396469" xmlns="http://www.w3.org/2000/svg" version="1.1">
 <metadata>
  <rdf:RDF xmlns:dc="http://purl.org/dc/elements/1.1/" xmlns:cc="http://creativecommons.org/ns#" xmlns:rdf="http://www.w3.org/1999/02/22-rdf-syntax-ns#">
   <cc:Work>
    <dc:type rdf:resource="http://purl.org/dc/dcmitype/StillImage"/>
    <dc:date>2026-01-05T10:59:26.486623</dc:date>
    <dc:format>image/svg+xml</dc:format>
    <dc:creator>
     <cc:Agent>
      <dc:title>Matplotlib v3.10.8, https://matplotlib.org/</dc:title>
     </cc:Agent>
    </dc:creator>
   </cc:Work>
  </rdf:RDF>
 </metadata>
 <defs>
  <style type="text/css">*{stroke-linejoin: round; stroke-linecap: butt}</style>
 </defs>
 <g id="figure_1">
  <g id="patch_1">
   <path d="M 0 368.396469 
L 872.39952 368.396469 
L 872.39952 -0 
L 0 -0 
z
" style="fill: #ffffff"/>
  </g>
  <g id="axes_1">
   <g id="patch_2">
    <path d="M 48.394375 314.387407 
L 418.373041 314.387407 
L 418.373041 10.397247 
L 48.394375 10.397247 
z
" style="fill: #ffffff"/>
   </g>
   <g id="matplotlib.axis_1">
    <g id="xtick_1">
     <g id="line2d_1">
      <defs>
       <path id="m4d7208e298" d="M 0 0 
L 0 3.5 
" style="stroke: #000000; stroke-width: 0.8"/>
      </defs>
      <g>
       <use xlink:href="#m4d7208e298" x="65.211587" y="314.387407" style="stroke: #000000; stroke-width: 0.8"/>
      </g>
     </g>
     <g id="text_1">
      <!-- $\mathdefault{10^{-1}}$ -->
      <g transform="translate(45.236587 334.30475) scale(0.17 -0.17)">
       <defs>
        <path id="DejaVuSans-31" d="M 794 531 
L 1825 531 
L 1825 4091 
L 703 3866 
L 703 4441 
L 1819 4666 
L 2450 4666 
L 2450 531 
L 3481 531 
L 3481 0 
L 794 0 
L 794 531 
z
" transform="scale(0.015625)"/>
        <path id="DejaVuSans-30" d="M 2034 4250 
Q 1547 4250 1301 3770 
Q 1056 3291 1056 2328 
Q 1056 1369 1301 889 
Q 1547 409 2034 409 
Q 2525 409 2770 889 
Q 3016 1369 3016 2328 
Q 3016 3291 2770 3770 
Q 2525 4250 2034 4250 
z
M 2034 4750 
Q 2819 4750 3233 4129 
Q 3647 3509 3647 2328 
Q 3647 1150 3233 529 
Q 2819 -91 2034 -91 
Q 1250 -91 836 529 
Q 422 1150 422 2328 
Q 422 3509 836 4129 
Q 1250 4750 2034 4750 
z
" transform="scale(0.015625)"/>
        <path id="DejaVuSans-2212" d="M 678 2272 
L 4684 2272 
L 4684 1741 
L 678 1741 
L 678 2272 
z
" transform="scale(0.015625)"/>
       </defs>
       <use xlink:href="#DejaVuSans-31" transform="translate(0 0.684375)"/>
       <use xlink:href="#DejaVuSans-30" transform="translate(63.623047 0.684375)"/>
       <use xlink:href="#DejaVuSans-2212" transform="translate(128.203125 38.965625) scale(0.7)"/>
       <use xlink:href="#DejaVuSans-31" transform="translate(186.855469 38.965625) scale(0.7)"/>
      </g>
     </g>
    </g>
    <g id="xtick_2">
     <g id="line2d_2">
      <g>
       <use xlink:href="#m4d7208e298" x="233.383708" y="314.387407" style="stroke: #000000; stroke-width: 0.8"/>
      </g>
     </g>
     <g id="text_2">
      <!-- $\mathdefault{10^{0}}$ -->
      <g transform="translate(218.423708 334.30475) scale(0.17 -0.17)">
       <use xlink:href="#DejaVuSans-31" transform="translate(0 0.765625)"/>
       <use xlink:href="#DejaVuSans-30" transform="translate(63.623047 0.765625)"/>
       <use xlink:href="#DejaVuSans-30" transform="translate(128.203125 39.046875) scale(0.7)"/>
      </g>
     </g>
    </g>
    <g id="xtick_3">
     <g id="line2d_3">
      <g>
       <use xlink:href="#m4d7208e298" x="401.555829" y="314.387407" style="stroke: #000000; stroke-width: 0.8"/>
      </g>
     </g>
     <g id="text_3">
      <!-- $\mathdefault{10^{1}}$ -->
      <g transform="translate(386.595829 334.30475) scale(0.17 -0.17)">
       <use xlink:href="#DejaVuSans-31" transform="translate(0 0.684375)"/>
       <use xlink:href="#DejaVuSans-30" transform="translate(63.623047 0.684375)"/>
       <use xlink:href="#DejaVuSans-31" transform="translate(128.203125 38.965625) scale(0.7)"/>
      </g>
     </g>
    </g>
    <g id="xtick_4">
     <g id="line2d_4">
      <defs>
       <path id="m05bfd170f6" d="M 0 0 
L 0 2 
" style="stroke: #000000; stroke-width: 0.6"/>
      </defs>
      <g>
       <use xlink:href="#m05bfd170f6" x="48.914025" y="314.387407" style="stroke: #000000; stroke-width: 0.6"/>
      </g>
     </g>
    </g>
    <g id="xtick_5">
     <g id="line2d_5">
      <g>
       <use xlink:href="#m05bfd170f6" x="57.516453" y="314.387407" style="stroke: #000000; stroke-width: 0.6"/>
      </g>
     </g>
    </g>
    <g id="xtick_6">
     <g id="line2d_6">
      <g>
       <use xlink:href="#m05bfd170f6" x="115.83644" y="314.387407" style="stroke: #000000; stroke-width: 0.6"/>
      </g>
     </g>
    </g>
    <g id="xtick_7">
     <g id="line2d_7">
      <g>
       <use xlink:href="#m05bfd170f6" x="145.45008" y="314.387407" style="stroke: #000000; stroke-width: 0.6"/>
      </g>
     </g>
    </g>
    <g id="xtick_8">
     <g id="line2d_8">
      <g>
       <use xlink:href="#m05bfd170f6" x="166.461293" y="314.387407" style="stroke: #000000; stroke-width: 0.6"/>
      </g>
     </g>
    </g>
    <g id="xtick_9">
     <g id="line2d_9">
      <g>
       <use xlink:href="#m05bfd170f6" x="182.758855" y="314.387407" style="stroke: #000000; stroke-width: 0.6"/>
      </g>
     </g>
    </g>
    <g id="xtick_10">
     <g id="line2d_10">
      <g>
       <use xlink:href="#m05bfd170f6" x="196.074933" y="314.387407" style="stroke: #000000; stroke-width: 0.6"/>
      </g>
     </g>
    </g>
    <g id="xtick_11">
     <g id="line2d_11">
      <g>
       <use xlink:href="#m05bfd170f6" x="207.333517" y="314.387407" style="stroke: #000000; stroke-width: 0.6"/>
      </g>
     </g>
    </g>
    <g id="xtick_12">
     <g id="line2d_12">
      <g>
       <use xlink:href="#m05bfd170f6" x="217.086146" y="314.387407" style="stroke: #000000; stroke-width: 0.6"/>
      </g>
     </g>
    </g>
    <g id="xtick_13">
     <g id="line2d_13">
      <g>
       <use xlink:href="#m05bfd170f6" x="225.688574" y="314.387407" style="stroke: #000000; stroke-width: 0.6"/>
      </g>
     </g>
    </g>
    <g id="xtick_14">
     <g id="line2d_14">
      <g>
       <use xlink:href="#m05bfd170f6" x="284.008561" y="314.387407" style="stroke: #000000; stroke-width: 0.6"/>
      </g>
     </g>
    </g>
    <g id="xtick_15">
     <g id="line2d_15">
      <g>
       <use xlink:href="#m05bfd170f6" x="313.622202" y="314.387407" style="stroke: #000000; stroke-width: 0.6"/>
      </g>
     </g>
    </g>
    <g id="xtick_16">
     <g id="line2d_16">
      <g>
       <use xlink:href="#m05bfd170f6" x="334.633414" y="314.387407" style="stroke: #000000; stroke-width: 0.6"/>
      </g>
     </g>
    </g>
    <g id="xtick_17">
     <g id="line2d_17">
      <g>
       <use xlink:href="#m05bfd170f6" x="350.930976" y="314.387407" style="stroke: #000000; stroke-width: 0.6"/>
      </g>
     </g>
    </g>
    <g id="xtick_18">
     <g id="line2d_18">
      <g>
       <use xlink:href="#m05bfd170f6" x="364.247054" y="314.387407" style="stroke: #000000; stroke-width: 0.6"/>
      </g>
     </g>
    </g>
    <g id="xtick_19">
     <g id="line2d_19">
      <g>
       <use xlink:href="#m05bfd170f6" x="375.505638" y="314.387407" style="stroke: #000000; stroke-width: 0.6"/>
      </g>
     </g>
    </g>
    <g id="xtick_20">
     <g id="line2d_20">
      <g>
       <use xlink:href="#m05bfd170f6" x="385.258267" y="314.387407" style="stroke: #000000; stroke-width: 0.6"/>
      </g>
     </g>
    </g>
    <g id="xtick_21">
     <g id="line2d_21">
      <g>
       <use xlink:href="#m05bfd170f6" x="393.860695" y="314.387407" style="stroke: #000000; stroke-width: 0.6"/>
      </g>
     </g>
    </g>
    <g id="text_4">
     <!-- renal function [-] -->
     <g transform="translate(137.408708 357.037094) scale(0.2 -0.2)">
      <defs>
       <path id="DejaVuSans-Bold-72" d="M 3138 2547 
Q 2991 2616 2845 2648 
Q 2700 2681 2553 2681 
Q 2122 2681 1889 2404 
Q 1656 2128 1656 1613 
L 1656 0 
L 538 0 
L 538 3500 
L 1656 3500 
L 1656 2925 
Q 1872 3269 2151 3426 
Q 2431 3584 2822 3584 
Q 2878 3584 2943 3579 
Q 3009 3575 3134 3559 
L 3138 2547 
z
" transform="scale(0.015625)"/>
       <path id="DejaVuSans-Bold-65" d="M 4031 1759 
L 4031 1441 
L 1416 1441 
Q 1456 1047 1700 850 
Q 1944 653 2381 653 
Q 2734 653 3104 758 
Q 3475 863 3866 1075 
L 3866 213 
Q 3469 63 3072 -14 
Q 2675 -91 2278 -91 
Q 1328 -91 801 392 
Q 275 875 275 1747 
Q 275 2603 792 3093 
Q 1309 3584 2216 3584 
Q 3041 3584 3536 3087 
Q 4031 2591 4031 1759 
z
M 2881 2131 
Q 2881 2450 2695 2645 
Q 2509 2841 2209 2841 
Q 1884 2841 1681 2658 
Q 1478 2475 1428 2131 
L 2881 2131 
z
" transform="scale(0.015625)"/>
       <path id="DejaVuSans-Bold-6e" d="M 4056 2131 
L 4056 0 
L 2931 0 
L 2931 347 
L 2931 1631 
Q 2931 2084 2911 2256 
Q 2891 2428 2841 2509 
Q 2775 2619 2662 2680 
Q 2550 2741 2406 2741 
Q 2056 2741 1856 2470 
Q 1656 2200 1656 1722 
L 1656 0 
L 538 0 
L 538 3500 
L 1656 3500 
L 1656 2988 
Q 1909 3294 2193 3439 
Q 2478 3584 2822 3584 
Q 3428 3584 3742 3212 
Q 4056 2841 4056 2131 
z
" transform="scale(0.015625)"/>
       <path id="DejaVuSans-Bold-61" d="M 2106 1575 
Q 1756 1575 1579 1456 
Q 1403 1338 1403 1106 
Q 1403 894 1545 773 
Q 1688 653 1941 653 
Q 2256 653 2472 879 
Q 2688 1106 2688 1447 
L 2688 1575 
L 2106 1575 
z
M 3816 1997 
L 3816 0 
L 2688 0 
L 2688 519 
Q 2463 200 2181 54 
Q 1900 -91 1497 -91 
Q 953 -91 614 226 
Q 275 544 275 1050 
Q 275 1666 698 1953 
Q 1122 2241 2028 2241 
L 2688 2241 
L 2688 2328 
Q 2688 2594 2478 2717 
Q 2269 2841 1825 2841 
Q 1466 2841 1156 2769 
Q 847 2697 581 2553 
L 581 3406 
Q 941 3494 1303 3539 
Q 1666 3584 2028 3584 
Q 2975 3584 3395 3211 
Q 3816 2838 3816 1997 
z
" transform="scale(0.015625)"/>
       <path id="DejaVuSans-Bold-6c" d="M 538 4863 
L 1656 4863 
L 1656 0 
L 538 0 
L 538 4863 
z
" transform="scale(0.015625)"/>
       <path id="DejaVuSans-Bold-20" transform="scale(0.015625)"/>
       <path id="DejaVuSans-Bold-66" d="M 2841 4863 
L 2841 4128 
L 2222 4128 
Q 1984 4128 1890 4042 
Q 1797 3956 1797 3744 
L 1797 3500 
L 2753 3500 
L 2753 2700 
L 1797 2700 
L 1797 0 
L 678 0 
L 678 2700 
L 122 2700 
L 122 3500 
L 678 3500 
L 678 3744 
Q 678 4316 997 4589 
Q 1316 4863 1984 4863 
L 2841 4863 
z
" transform="scale(0.015625)"/>
       <path id="DejaVuSans-Bold-75" d="M 500 1363 
L 500 3500 
L 1625 3500 
L 1625 3150 
Q 1625 2866 1622 2436 
Q 1619 2006 1619 1863 
Q 1619 1441 1641 1255 
Q 1663 1069 1716 984 
Q 1784 875 1895 815 
Q 2006 756 2150 756 
Q 2500 756 2700 1025 
Q 2900 1294 2900 1772 
L 2900 3500 
L 4019 3500 
L 4019 0 
L 2900 0 
L 2900 506 
Q 2647 200 2364 54 
Q 2081 -91 1741 -91 
Q 1134 -91 817 281 
Q 500 653 500 1363 
z
" transform="scale(0.015625)"/>
       <path id="DejaVuSans-Bold-63" d="M 3366 3391 
L 3366 2478 
Q 3138 2634 2908 2709 
Q 2678 2784 2431 2784 
Q 1963 2784 1702 2511 
Q 1441 2238 1441 1747 
Q 1441 1256 1702 982 
Q 1963 709 2431 709 
Q 2694 709 2930 787 
Q 3166 866 3366 1019 
L 3366 103 
Q 3103 6 2833 -42 
Q 2563 -91 2291 -91 
Q 1344 -91 809 395 
Q 275 881 275 1747 
Q 275 2613 809 3098 
Q 1344 3584 2291 3584 
Q 2566 3584 2833 3536 
Q 3100 3488 3366 3391 
z
" transform="scale(0.015625)"/>
       <path id="DejaVuSans-Bold-74" d="M 1759 4494 
L 1759 3500 
L 2913 3500 
L 2913 2700 
L 1759 2700 
L 1759 1216 
Q 1759 972 1856 886 
Q 1953 800 2241 800 
L 2816 800 
L 2816 0 
L 1856 0 
Q 1194 0 917 276 
Q 641 553 641 1216 
L 641 2700 
L 84 2700 
L 84 3500 
L 641 3500 
L 641 4494 
L 1759 4494 
z
" transform="scale(0.015625)"/>
       <path id="DejaVuSans-Bold-69" d="M 538 3500 
L 1656 3500 
L 1656 0 
L 538 0 
L 538 3500 
z
M 538 4863 
L 1656 4863 
L 1656 3950 
L 538 3950 
L 538 4863 
z
" transform="scale(0.015625)"/>
       <path id="DejaVuSans-Bold-6f" d="M 2203 2784 
Q 1831 2784 1636 2517 
Q 1441 2250 1441 1747 
Q 1441 1244 1636 976 
Q 1831 709 2203 709 
Q 2569 709 2762 976 
Q 2956 1244 2956 1747 
Q 2956 2250 2762 2517 
Q 2569 2784 2203 2784 
z
M 2203 3584 
Q 3106 3584 3614 3096 
Q 4122 2609 4122 1747 
Q 4122 884 3614 396 
Q 3106 -91 2203 -91 
Q 1297 -91 786 396 
Q 275 884 275 1747 
Q 275 2609 786 3096 
Q 1297 3584 2203 3584 
z
" transform="scale(0.015625)"/>
       <path id="DejaVuSans-Bold-5b" d="M 550 4863 
L 2491 4863 
L 2491 4159 
L 1613 4159 
L 1613 -141 
L 2491 -141 
L 2491 -844 
L 550 -844 
L 550 4863 
z
" transform="scale(0.015625)"/>
       <path id="DejaVuSans-Bold-2d" d="M 347 2297 
L 2309 2297 
L 2309 1388 
L 347 1388 
L 347 2297 
z
" transform="scale(0.015625)"/>
       <path id="DejaVuSans-Bold-5d" d="M 2375 -844 
L 434 -844 
L 434 -141 
L 1313 -141 
L 1313 4159 
L 434 4159 
L 434 4863 
L 2375 4863 
L 2375 -844 
z
" transform="scale(0.015625)"/>
      </defs>
      <use xlink:href="#DejaVuSans-Bold-72"/>
      <use xlink:href="#DejaVuSans-Bold-65" transform="translate(49.316406 0)"/>
      <use xlink:href="#DejaVuSans-Bold-6e" transform="translate(117.138672 0)"/>
      <use xlink:href="#DejaVuSans-Bold-61" transform="translate(188.330078 0)"/>
      <use xlink:href="#DejaVuSans-Bold-6c" transform="translate(255.810547 0)"/>
      <use xlink:href="#DejaVuSans-Bold-20" transform="translate(290.087891 0)"/>
      <use xlink:href="#DejaVuSans-Bold-66" transform="translate(324.902344 0)"/>
      <use xlink:href="#DejaVuSans-Bold-75" transform="translate(368.408203 0)"/>
      <use xlink:href="#DejaVuSans-Bold-6e" transform="translate(439.599609 0)"/>
      <use xlink:href="#DejaVuSans-Bold-63" transform="translate(510.791016 0)"/>
      <use xlink:href="#DejaVuSans-Bold-74" transform="translate(570.068359 0)"/>
      <use xlink:href="#DejaVuSans-Bold-69" transform="translate(617.871094 0)"/>
      <use xlink:href="#DejaVuSans-Bold-6f" transform="translate(652.148438 0)"/>
      <use xlink:href="#DejaVuSans-Bold-6e" transform="translate(720.849609 0)"/>
      <use xlink:href="#DejaVuSans-Bold-20" transform="translate(792.041016 0)"/>
      <use xlink:href="#DejaVuSans-Bold-5b" transform="translate(826.855469 0)"/>
      <use xlink:href="#DejaVuSans-Bold-2d" transform="translate(872.558594 0)"/>
      <use xlink:href="#DejaVuSans-Bold-5d" transform="translate(914.0625 0)"/>
     </g>
    </g>
   </g>
   <g id="matplotlib.axis_2">
    <g id="ytick_1">
     <g id="line2d_22">
      <defs>
       <path id="m671009b66e" d="M 0 0 
L -3.5 0 
" style="stroke: #000000; stroke-width: 0.8"/>
      </defs>
      <g>
       <use xlink:href="#m671009b66e" x="48.394375" y="304.689034" style="stroke: #000000; stroke-width: 0.8"/>
      </g>
     </g>
     <g id="text_5">
      <!-- 0 -->
      <g transform="translate(30.578125 311.147706) scale(0.17 -0.17)">
       <use xlink:href="#DejaVuSans-30"/>
      </g>
     </g>
    </g>
    <g id="ytick_2">
     <g id="line2d_23">
      <g>
       <use xlink:href="#m671009b66e" x="48.394375" y="246.482962" style="stroke: #000000; stroke-width: 0.8"/>
      </g>
     </g>
     <g id="text_6">
      <!-- 1 -->
      <g transform="translate(30.578125 252.941634) scale(0.17 -0.17)">
       <use xlink:href="#DejaVuSans-31"/>
      </g>
     </g>
    </g>
    <g id="ytick_3">
     <g id="line2d_24">
      <g>
       <use xlink:href="#m671009b66e" x="48.394375" y="188.276889" style="stroke: #000000; stroke-width: 0.8"/>
      </g>
     </g>
     <g id="text_7">
      <!-- 2 -->
      <g transform="translate(30.578125 194.735561) scale(0.17 -0.17)">
       <defs>
        <path id="DejaVuSans-32" d="M 1228 531 
L 3431 531 
L 3431 0 
L 469 0 
L 469 531 
Q 828 903 1448 1529 
Q 2069 2156 2228 2338 
Q 2531 2678 2651 2914 
Q 2772 3150 2772 3378 
Q 2772 3750 2511 3984 
Q 2250 4219 1831 4219 
Q 1534 4219 1204 4116 
Q 875 4013 500 3803 
L 500 4441 
Q 881 4594 1212 4672 
Q 1544 4750 1819 4750 
Q 2544 4750 2975 4387 
Q 3406 4025 3406 3419 
Q 3406 3131 3298 2873 
Q 3191 2616 2906 2266 
Q 2828 2175 2409 1742 
Q 1991 1309 1228 531 
z
" transform="scale(0.015625)"/>
       </defs>
       <use xlink:href="#DejaVuSans-32"/>
      </g>
     </g>
    </g>
    <g id="ytick_4">
     <g id="line2d_25">
      <g>
       <use xlink:href="#m671009b66e" x="48.394375" y="130.070817" style="stroke: #000000; stroke-width: 0.8"/>
      </g>
     </g>
     <g id="text_8">
      <!-- 3 -->
      <g transform="translate(30.578125 136.529489) scale(0.17 -0.17)">
       <defs>
        <path id="DejaVuSans-33" d="M 2597 2516 
Q 3050 2419 3304 2112 
Q 3559 1806 3559 1356 
Q 3559 666 3084 287 
Q 2609 -91 1734 -91 
Q 1441 -91 1130 -33 
Q 819 25 488 141 
L 488 750 
Q 750 597 1062 519 
Q 1375 441 1716 441 
Q 2309 441 2620 675 
Q 2931 909 2931 1356 
Q 2931 1769 2642 2001 
Q 2353 2234 1838 2234 
L 1294 2234 
L 1294 2753 
L 1863 2753 
Q 2328 2753 2575 2939 
Q 2822 3125 2822 3475 
Q 2822 3834 2567 4026 
Q 2313 4219 1838 4219 
Q 1578 4219 1281 4162 
Q 984 4106 628 3988 
L 628 4550 
Q 988 4650 1302 4700 
Q 1616 4750 1894 4750 
Q 2613 4750 3031 4423 
Q 3450 4097 3450 3541 
Q 3450 3153 3228 2886 
Q 3006 2619 2597 2516 
z
" transform="scale(0.015625)"/>
       </defs>
       <use xlink:href="#DejaVuSans-33"/>
      </g>
     </g>
    </g>
    <g id="ytick_5">
     <g id="line2d_26">
      <g>
       <use xlink:href="#m671009b66e" x="48.394375" y="71.864744" style="stroke: #000000; stroke-width: 0.8"/>
      </g>
     </g>
     <g id="text_9">
      <!-- 4 -->
      <g transform="translate(30.578125 78.323416) scale(0.17 -0.17)">
       <defs>
        <path id="DejaVuSans-34" d="M 2419 4116 
L 825 1625 
L 2419 1625 
L 2419 4116 
z
M 2253 4666 
L 3047 4666 
L 3047 1625 
L 3713 1625 
L 3713 1100 
L 3047 1100 
L 3047 0 
L 2419 0 
L 2419 1100 
L 313 1100 
L 313 1709 
L 2253 4666 
z
" transform="scale(0.015625)"/>
       </defs>
       <use xlink:href="#DejaVuSans-34"/>
      </g>
     </g>
    </g>
    <g id="ytick_6">
     <g id="line2d_27">
      <g>
       <use xlink:href="#m671009b66e" x="48.394375" y="13.658672" style="stroke: #000000; stroke-width: 0.8"/>
      </g>
     </g>
     <g id="text_10">
      <!-- 5 -->
      <g transform="translate(30.578125 20.117344) scale(0.17 -0.17)">
       <defs>
        <path id="DejaVuSans-35" d="M 691 4666 
L 3169 4666 
L 3169 4134 
L 1269 4134 
L 1269 2991 
Q 1406 3038 1543 3061 
Q 1681 3084 1819 3084 
Q 2600 3084 3056 2656 
Q 3513 2228 3513 1497 
Q 3513 744 3044 326 
Q 2575 -91 1722 -91 
Q 1428 -91 1123 -41 
Q 819 9 494 109 
L 494 744 
Q 775 591 1075 516 
Q 1375 441 1709 441 
Q 2250 441 2565 725 
Q 2881 1009 2881 1497 
Q 2881 1984 2565 2268 
Q 2250 2553 1709 2553 
Q 1456 2553 1204 2497 
Q 953 2441 691 2322 
L 691 4666 
z
" transform="scale(0.015625)"/>
       </defs>
       <use xlink:href="#DejaVuSans-35"/>
      </g>
     </g>
    </g>
    <g id="text_11">
     <!-- AUC [µmole/l*hr] -->
     <g transform="translate(22.396875 257.120452) rotate(-90) scale(0.2 -0.2)">
      <defs>
       <path id="DejaVuSans-Bold-41" d="M 3419 850 
L 1538 850 
L 1241 0 
L 31 0 
L 1759 4666 
L 3194 4666 
L 4922 0 
L 3713 0 
L 3419 850 
z
M 1838 1716 
L 3116 1716 
L 2478 3572 
L 1838 1716 
z
" transform="scale(0.015625)"/>
       <path id="DejaVuSans-Bold-55" d="M 588 4666 
L 1791 4666 
L 1791 1869 
Q 1791 1291 1980 1042 
Q 2169 794 2597 794 
Q 3028 794 3217 1042 
Q 3406 1291 3406 1869 
L 3406 4666 
L 4609 4666 
L 4609 1869 
Q 4609 878 4112 393 
Q 3616 -91 2597 -91 
Q 1581 -91 1084 393 
Q 588 878 588 1869 
L 588 4666 
z
" transform="scale(0.015625)"/>
       <path id="DejaVuSans-Bold-43" d="M 4288 256 
Q 3956 84 3597 -3 
Q 3238 -91 2847 -91 
Q 1681 -91 1000 561 
Q 319 1213 319 2328 
Q 319 3447 1000 4098 
Q 1681 4750 2847 4750 
Q 3238 4750 3597 4662 
Q 3956 4575 4288 4403 
L 4288 3438 
Q 3953 3666 3628 3772 
Q 3303 3878 2944 3878 
Q 2300 3878 1931 3465 
Q 1563 3053 1563 2328 
Q 1563 1606 1931 1193 
Q 2300 781 2944 781 
Q 3303 781 3628 887 
Q 3953 994 4288 1222 
L 4288 256 
z
" transform="scale(0.015625)"/>
       <path id="DejaVuSans-Bold-b5" d="M 544 -1338 
L 544 3500 
L 1672 3500 
L 1672 1466 
Q 1672 1103 1828 926 
Q 1984 750 2303 750 
Q 2625 750 2781 926 
Q 2938 1103 2938 1466 
L 2938 3500 
L 4063 3500 
L 4063 1159 
Q 4063 938 4114 850 
Q 4166 763 4288 763 
Q 4344 763 4395 778 
Q 4447 794 4506 831 
L 4506 50 
Q 4341 -22 4195 -56 
Q 4050 -91 3909 -91 
Q 3631 -91 3454 26 
Q 3278 144 3169 403 
Q 3022 156 2811 32 
Q 2600 -91 2322 -91 
Q 2091 -91 1928 -17 
Q 1766 56 1672 206 
L 1672 -1338 
L 544 -1338 
z
" transform="scale(0.015625)"/>
       <path id="DejaVuSans-Bold-6d" d="M 3781 2919 
Q 3994 3244 4286 3414 
Q 4578 3584 4928 3584 
Q 5531 3584 5847 3212 
Q 6163 2841 6163 2131 
L 6163 0 
L 5038 0 
L 5038 1825 
Q 5041 1866 5042 1909 
Q 5044 1953 5044 2034 
Q 5044 2406 4934 2573 
Q 4825 2741 4581 2741 
Q 4263 2741 4089 2478 
Q 3916 2216 3909 1719 
L 3909 0 
L 2784 0 
L 2784 1825 
Q 2784 2406 2684 2573 
Q 2584 2741 2328 2741 
Q 2006 2741 1831 2477 
Q 1656 2213 1656 1722 
L 1656 0 
L 531 0 
L 531 3500 
L 1656 3500 
L 1656 2988 
Q 1863 3284 2130 3434 
Q 2397 3584 2719 3584 
Q 3081 3584 3359 3409 
Q 3638 3234 3781 2919 
z
" transform="scale(0.015625)"/>
       <path id="DejaVuSans-Bold-2f" d="M 1644 4666 
L 2338 4666 
L 691 -594 
L 0 -594 
L 1644 4666 
z
" transform="scale(0.015625)"/>
       <path id="DejaVuSans-Bold-2a" d="M 3219 3803 
L 2188 3263 
L 3219 2719 
L 2981 2278 
L 1941 2853 
L 1941 1778 
L 1409 1778 
L 1409 2853 
L 366 2278 
L 128 2719 
L 1172 3263 
L 128 3803 
L 366 4244 
L 1409 3675 
L 1409 4750 
L 1941 4750 
L 1941 3675 
L 2981 4244 
L 3219 3803 
z
" transform="scale(0.015625)"/>
       <path id="DejaVuSans-Bold-68" d="M 4056 2131 
L 4056 0 
L 2931 0 
L 2931 347 
L 2931 1625 
Q 2931 2084 2911 2256 
Q 2891 2428 2841 2509 
Q 2775 2619 2662 2680 
Q 2550 2741 2406 2741 
Q 2056 2741 1856 2470 
Q 1656 2200 1656 1722 
L 1656 0 
L 538 0 
L 538 4863 
L 1656 4863 
L 1656 2988 
Q 1909 3294 2193 3439 
Q 2478 3584 2822 3584 
Q 3428 3584 3742 3212 
Q 4056 2841 4056 2131 
z
" transform="scale(0.015625)"/>
      </defs>
      <use xlink:href="#DejaVuSans-Bold-41"/>
      <use xlink:href="#DejaVuSans-Bold-55" transform="translate(74.267578 0)"/>
      <use xlink:href="#DejaVuSans-Bold-43" transform="translate(155.46875 0)"/>
      <use xlink:href="#DejaVuSans-Bold-20" transform="translate(228.857422 0)"/>
      <use xlink:href="#DejaVuSans-Bold-5b" transform="translate(263.671875 0)"/>
      <use xlink:href="#DejaVuSans-Bold-b5" transform="translate(309.375 0)"/>
      <use xlink:href="#DejaVuSans-Bold-6d" transform="translate(382.958984 0)"/>
      <use xlink:href="#DejaVuSans-Bold-6f" transform="translate(487.158203 0)"/>
      <use xlink:href="#DejaVuSans-Bold-6c" transform="translate(555.859375 0)"/>
      <use xlink:href="#DejaVuSans-Bold-65" transform="translate(590.136719 0)"/>
      <use xlink:href="#DejaVuSans-Bold-2f" transform="translate(657.958984 0)"/>
      <use xlink:href="#DejaVuSans-Bold-6c" transform="translate(694.482422 0)"/>
      <use xlink:href="#DejaVuSans-Bold-2a" transform="translate(728.759766 0)"/>
      <use xlink:href="#DejaVuSans-Bold-68" transform="translate(781.054688 0)"/>
      <use xlink:href="#DejaVuSans-Bold-72" transform="translate(852.246094 0)"/>
      <use xlink:href="#DejaVuSans-Bold-5d" transform="translate(901.5625 0)"/>
     </g>
    </g>
   </g>
   <g id="line2d_28">
    <path d="M 233.383708 314.387407 
L 233.383708 10.397247 
" clip-path="url(#pb5427bd868)" style="fill: none; stroke-dasharray: 5.55,2.4; stroke-dashoffset: 0; stroke: #808080; stroke-width: 1.5"/>
   </g>
   <g id="line2d_29">
    <path d="M 65.211587 129.776556 
L 102.58317 135.733106 
L 139.954752 144.755166 
L 177.326334 157.697617 
L 214.697917 174.886871 
L 233.383708 184.878428 
L 252.069499 195.520949 
L 289.441082 217.484864 
L 326.812664 238.066156 
L 364.184247 255.172535 
L 401.555829 268.029312 
" clip-path="url(#pb5427bd868)" style="fill: none; stroke: #000000; stroke-width: 2; stroke-linecap: square"/>
    <defs>
     <path id="m95155738d2" d="M 0 4.5 
C 1.193414 4.5 2.338109 4.025852 3.181981 3.181981 
C 4.025852 2.338109 4.5 1.193414 4.5 0 
C 4.5 -1.193414 4.025852 -2.338109 3.181981 -3.181981 
C 2.338109 -4.025852 1.193414 -4.5 0 -4.5 
C -1.193414 -4.5 -2.338109 -4.025852 -3.181981 -3.181981 
C -4.025852 -2.338109 -4.5 -1.193414 -4.5 0 
C -4.5 1.193414 -4.025852 2.338109 -3.181981 3.181981 
C -2.338109 4.025852 -1.193414 4.5 0 4.5 
z
" style="stroke: #000000; stroke-width: 2"/>
    </defs>
    <g clip-path="url(#pb5427bd868)">
     <use xlink:href="#m95155738d2" x="65.211587" y="129.776556" style="fill: #ffffff; stroke: #000000; stroke-width: 2"/>
     <use xlink:href="#m95155738d2" x="102.58317" y="135.733106" style="fill: #ffffff; stroke: #000000; stroke-width: 2"/>
     <use xlink:href="#m95155738d2" x="139.954752" y="144.755166" style="fill: #ffffff; stroke: #000000; stroke-width: 2"/>
     <use xlink:href="#m95155738d2" x="177.326334" y="157.697617" style="fill: #ffffff; stroke: #000000; stroke-width: 2"/>
     <use xlink:href="#m95155738d2" x="214.697917" y="174.886871" style="fill: #ffffff; stroke: #000000; stroke-width: 2"/>
     <use xlink:href="#m95155738d2" x="233.383708" y="184.878428" style="fill: #ffffff; stroke: #000000; stroke-width: 2"/>
     <use xlink:href="#m95155738d2" x="252.069499" y="195.520949" style="fill: #ffffff; stroke: #000000; stroke-width: 2"/>
     <use xlink:href="#m95155738d2" x="289.441082" y="217.484864" style="fill: #ffffff; stroke: #000000; stroke-width: 2"/>
     <use xlink:href="#m95155738d2" x="326.812664" y="238.066156" style="fill: #ffffff; stroke: #000000; stroke-width: 2"/>
     <use xlink:href="#m95155738d2" x="364.184247" y="255.172535" style="fill: #ffffff; stroke: #000000; stroke-width: 2"/>
     <use xlink:href="#m95155738d2" x="401.555829" y="268.029312" style="fill: #ffffff; stroke: #000000; stroke-width: 2"/>
    </g>
   </g>
   <g id="line2d_30">
    <path d="M 233.383708 314.387407 
L 233.383708 10.397247 
" clip-path="url(#pb5427bd868)" style="fill: none; stroke-dasharray: 5.55,2.4; stroke-dashoffset: 0; stroke: #808080; stroke-width: 1.5"/>
   </g>
   <g id="line2d_31">
    <path d="M 65.211587 24.214982 
L 102.58317 136.676255 
L 139.954752 204.107856 
L 177.326334 244.445991 
L 214.697917 268.487459 
L 233.383708 276.544509 
L 252.069499 282.736135 
L 289.441082 291.123117 
L 326.812664 296.030584 
L 364.184247 298.894929 
L 401.555829 300.569672 
" clip-path="url(#pb5427bd868)" style="fill: none; stroke: #1f77b4; stroke-width: 2; stroke-linecap: square"/>
    <defs>
     <path id="m480871051f" d="M 0 4.5 
C 1.193414 4.5 2.338109 4.025852 3.181981 3.181981 
C 4.025852 2.338109 4.5 1.193414 4.5 0 
C 4.5 -1.193414 4.025852 -2.338109 3.181981 -3.181981 
C 2.338109 -4.025852 1.193414 -4.5 0 -4.5 
C -1.193414 -4.5 -2.338109 -4.025852 -3.181981 -3.181981 
C -4.025852 -2.338109 -4.5 -1.193414 -4.5 0 
C -4.5 1.193414 -4.025852 2.338109 -3.181981 3.181981 
C -2.338109 4.025852 -1.193414 4.5 0 4.5 
z
" style="stroke: #1f77b4; stroke-width: 2"/>
    </defs>
    <g clip-path="url(#pb5427bd868)">
     <use xlink:href="#m480871051f" x="65.211587" y="24.214982" style="fill: #ffffff; stroke: #1f77b4; stroke-width: 2"/>
     <use xlink:href="#m480871051f" x="102.58317" y="136.676255" style="fill: #ffffff; stroke: #1f77b4; stroke-width: 2"/>
     <use xlink:href="#m480871051f" x="139.954752" y="204.107856" style="fill: #ffffff; stroke: #1f77b4; stroke-width: 2"/>
     <use xlink:href="#m480871051f" x="177.326334" y="244.445991" style="fill: #ffffff; stroke: #1f77b4; stroke-width: 2"/>
     <use xlink:href="#m480871051f" x="214.697917" y="268.487459" style="fill: #ffffff; stroke: #1f77b4; stroke-width: 2"/>
     <use xlink:href="#m480871051f" x="233.383708" y="276.544509" style="fill: #ffffff; stroke: #1f77b4; stroke-width: 2"/>
     <use xlink:href="#m480871051f" x="252.069499" y="282.736135" style="fill: #ffffff; stroke: #1f77b4; stroke-width: 2"/>
     <use xlink:href="#m480871051f" x="289.441082" y="291.123117" style="fill: #ffffff; stroke: #1f77b4; stroke-width: 2"/>
     <use xlink:href="#m480871051f" x="326.812664" y="296.030584" style="fill: #ffffff; stroke: #1f77b4; stroke-width: 2"/>
     <use xlink:href="#m480871051f" x="364.184247" y="298.894929" style="fill: #ffffff; stroke: #1f77b4; stroke-width: 2"/>
     <use xlink:href="#m480871051f" x="401.555829" y="300.569672" style="fill: #ffffff; stroke: #1f77b4; stroke-width: 2"/>
    </g>
   </g>
   <g id="patch_3">
    <path d="M 48.394375 314.387407 
L 48.394375 10.397247 
" style="fill: none; stroke: #000000; stroke-width: 0.8; stroke-linejoin: miter; stroke-linecap: square"/>
   </g>
   <g id="patch_4">
    <path d="M 418.373041 314.387407 
L 418.373041 10.397247 
" style="fill: none; stroke: #000000; stroke-width: 0.8; stroke-linejoin: miter; stroke-linecap: square"/>
   </g>
   <g id="patch_5">
    <path d="M 48.394375 314.387407 
L 418.373041 314.387407 
" style="fill: none; stroke: #000000; stroke-width: 0.8; stroke-linejoin: miter; stroke-linecap: square"/>
   </g>
   <g id="patch_6">
    <path d="M 48.394375 10.397247 
L 418.373041 10.397247 
" style="fill: none; stroke: #000000; stroke-width: 0.8; stroke-linejoin: miter; stroke-linecap: square"/>
   </g>
   <g id="legend_1">
    <g id="patch_7">
     <path d="M 371.74601 44.017872 
L 412.073041 44.017872 
Q 413.873041 44.017872 413.873041 42.217872 
L 413.873041 16.697247 
Q 413.873041 14.897247 412.073041 14.897247 
L 371.74601 14.897247 
Q 369.94601 14.897247 369.94601 16.697247 
L 369.94601 42.217872 
Q 369.94601 44.017872 371.74601 44.017872 
z
" style="fill: #ffffff; opacity: 0.8; stroke: #cccccc; stroke-linejoin: miter"/>
    </g>
    <g id="line2d_32">
     <path d="M 373.54601 22.185841 
L 382.54601 22.185841 
L 391.54601 22.185841 
" style="fill: none; stroke: #000000; stroke-width: 2; stroke-linecap: square"/>
     <g>
      <use xlink:href="#m95155738d2" x="382.54601" y="22.185841" style="fill: #ffffff; stroke: #000000; stroke-width: 2"/>
     </g>
    </g>
    <g id="text_12">
     <!-- riv -->
     <g transform="translate(398.74601 25.335841) scale(0.09 -0.09)">
      <defs>
       <path id="DejaVuSans-72" d="M 2631 2963 
Q 2534 3019 2420 3045 
Q 2306 3072 2169 3072 
Q 1681 3072 1420 2755 
Q 1159 2438 1159 1844 
L 1159 0 
L 581 0 
L 581 3500 
L 1159 3500 
L 1159 2956 
Q 1341 3275 1631 3429 
Q 1922 3584 2338 3584 
Q 2397 3584 2469 3576 
Q 2541 3569 2628 3553 
L 2631 2963 
z
" transform="scale(0.015625)"/>
       <path id="DejaVuSans-69" d="M 603 3500 
L 1178 3500 
L 1178 0 
L 603 0 
L 603 3500 
z
M 603 4863 
L 1178 4863 
L 1178 4134 
L 603 4134 
L 603 4863 
z
" transform="scale(0.015625)"/>
       <path id="DejaVuSans-76" d="M 191 3500 
L 800 3500 
L 1894 563 
L 2988 3500 
L 3597 3500 
L 2284 0 
L 1503 0 
L 191 3500 
z
" transform="scale(0.015625)"/>
      </defs>
      <use xlink:href="#DejaVuSans-72"/>
      <use xlink:href="#DejaVuSans-69" transform="translate(41.113281 0)"/>
      <use xlink:href="#DejaVuSans-76" transform="translate(68.896484 0)"/>
     </g>
    </g>
    <g id="line2d_33">
     <path d="M 373.54601 35.396154 
L 382.54601 35.396154 
L 391.54601 35.396154 
" style="fill: none; stroke: #1f77b4; stroke-width: 2; stroke-linecap: square"/>
     <g>
      <use xlink:href="#m480871051f" x="382.54601" y="35.396154" style="fill: #ffffff; stroke: #1f77b4; stroke-width: 2"/>
     </g>
    </g>
    <g id="text_13">
     <!-- rx -->
     <g transform="translate(398.74601 38.546154) scale(0.09 -0.09)">
      <defs>
       <path id="DejaVuSans-78" d="M 3513 3500 
L 2247 1797 
L 3578 0 
L 2900 0 
L 1881 1375 
L 863 0 
L 184 0 
L 1544 1831 
L 300 3500 
L 978 3500 
L 1906 2253 
L 2834 3500 
L 3513 3500 
z
" transform="scale(0.015625)"/>
      </defs>
      <use xlink:href="#DejaVuSans-72"/>
      <use xlink:href="#DejaVuSans-78" transform="translate(38.488281 0)"/>
     </g>
    </g>
   </g>
  </g>
  <g id="axes_2">
   <g id="patch_8">
    <path d="M 495.220854 314.387407 
L 865.19952 314.387407 
L 865.19952 10.397247 
L 495.220854 10.397247 
z
" style="fill: #ffffff"/>
   </g>
   <g id="matplotlib.axis_3">
    <g id="xtick_22">
     <g id="line2d_34">
      <g>
       <use xlink:href="#m4d7208e298" x="512.038066" y="314.387407" style="stroke: #000000; stroke-width: 0.8"/>
      </g>
     </g>
     <g id="text_14">
      <!-- $\mathdefault{10^{-1}}$ -->
      <g transform="translate(492.063066 334.30475) scale(0.17 -0.17)">
       <use xlink:href="#DejaVuSans-31" transform="translate(0 0.684375)"/>
       <use xlink:href="#DejaVuSans-30" transform="translate(63.623047 0.684375)"/>
       <use xlink:href="#DejaVuSans-2212" transform="translate(128.203125 38.965625) scale(0.7)"/>
       <use xlink:href="#DejaVuSans-31" transform="translate(186.855469 38.965625) scale(0.7)"/>
      </g>
     </g>
    </g>
    <g id="xtick_23">
     <g id="line2d_35">
      <g>
       <use xlink:href="#m4d7208e298" x="680.210187" y="314.387407" style="stroke: #000000; stroke-width: 0.8"/>
      </g>
     </g>
     <g id="text_15">
      <!-- $\mathdefault{10^{0}}$ -->
      <g transform="translate(665.250187 334.30475) scale(0.17 -0.17)">
       <use xlink:href="#DejaVuSans-31" transform="translate(0 0.765625)"/>
       <use xlink:href="#DejaVuSans-30" transform="translate(63.623047 0.765625)"/>
       <use xlink:href="#DejaVuSans-30" transform="translate(128.203125 39.046875) scale(0.7)"/>
      </g>
     </g>
    </g>
    <g id="xtick_24">
     <g id="line2d_36">
      <g>
       <use xlink:href="#m4d7208e298" x="848.382308" y="314.387407" style="stroke: #000000; stroke-width: 0.8"/>
      </g>
     </g>
     <g id="text_16">
      <!-- $\mathdefault{10^{1}}$ -->
      <g transform="translate(833.422308 334.30475) scale(0.17 -0.17)">
       <use xlink:href="#DejaVuSans-31" transform="translate(0 0.684375)"/>
       <use xlink:href="#DejaVuSans-30" transform="translate(63.623047 0.684375)"/>
       <use xlink:href="#DejaVuSans-31" transform="translate(128.203125 38.965625) scale(0.7)"/>
      </g>
     </g>
    </g>
    <g id="xtick_25">
     <g id="line2d_37">
      <g>
       <use xlink:href="#m05bfd170f6" x="495.740503" y="314.387407" style="stroke: #000000; stroke-width: 0.6"/>
      </g>
     </g>
    </g>
    <g id="xtick_26">
     <g id="line2d_38">
      <g>
       <use xlink:href="#m05bfd170f6" x="504.342932" y="314.387407" style="stroke: #000000; stroke-width: 0.6"/>
      </g>
     </g>
    </g>
    <g id="xtick_27">
     <g id="line2d_39">
      <g>
       <use xlink:href="#m05bfd170f6" x="562.662919" y="314.387407" style="stroke: #000000; stroke-width: 0.6"/>
      </g>
     </g>
    </g>
    <g id="xtick_28">
     <g id="line2d_40">
      <g>
       <use xlink:href="#m05bfd170f6" x="592.276559" y="314.387407" style="stroke: #000000; stroke-width: 0.6"/>
      </g>
     </g>
    </g>
    <g id="xtick_29">
     <g id="line2d_41">
      <g>
       <use xlink:href="#m05bfd170f6" x="613.287772" y="314.387407" style="stroke: #000000; stroke-width: 0.6"/>
      </g>
     </g>
    </g>
    <g id="xtick_30">
     <g id="line2d_42">
      <g>
       <use xlink:href="#m05bfd170f6" x="629.585334" y="314.387407" style="stroke: #000000; stroke-width: 0.6"/>
      </g>
     </g>
    </g>
    <g id="xtick_31">
     <g id="line2d_43">
      <g>
       <use xlink:href="#m05bfd170f6" x="642.901412" y="314.387407" style="stroke: #000000; stroke-width: 0.6"/>
      </g>
     </g>
    </g>
    <g id="xtick_32">
     <g id="line2d_44">
      <g>
       <use xlink:href="#m05bfd170f6" x="654.159996" y="314.387407" style="stroke: #000000; stroke-width: 0.6"/>
      </g>
     </g>
    </g>
    <g id="xtick_33">
     <g id="line2d_45">
      <g>
       <use xlink:href="#m05bfd170f6" x="663.912624" y="314.387407" style="stroke: #000000; stroke-width: 0.6"/>
      </g>
     </g>
    </g>
    <g id="xtick_34">
     <g id="line2d_46">
      <g>
       <use xlink:href="#m05bfd170f6" x="672.515053" y="314.387407" style="stroke: #000000; stroke-width: 0.6"/>
      </g>
     </g>
    </g>
    <g id="xtick_35">
     <g id="line2d_47">
      <g>
       <use xlink:href="#m05bfd170f6" x="730.83504" y="314.387407" style="stroke: #000000; stroke-width: 0.6"/>
      </g>
     </g>
    </g>
    <g id="xtick_36">
     <g id="line2d_48">
      <g>
       <use xlink:href="#m05bfd170f6" x="760.44868" y="314.387407" style="stroke: #000000; stroke-width: 0.6"/>
      </g>
     </g>
    </g>
    <g id="xtick_37">
     <g id="line2d_49">
      <g>
       <use xlink:href="#m05bfd170f6" x="781.459893" y="314.387407" style="stroke: #000000; stroke-width: 0.6"/>
      </g>
     </g>
    </g>
    <g id="xtick_38">
     <g id="line2d_50">
      <g>
       <use xlink:href="#m05bfd170f6" x="797.757455" y="314.387407" style="stroke: #000000; stroke-width: 0.6"/>
      </g>
     </g>
    </g>
    <g id="xtick_39">
     <g id="line2d_51">
      <g>
       <use xlink:href="#m05bfd170f6" x="811.073533" y="314.387407" style="stroke: #000000; stroke-width: 0.6"/>
      </g>
     </g>
    </g>
    <g id="xtick_40">
     <g id="line2d_52">
      <g>
       <use xlink:href="#m05bfd170f6" x="822.332117" y="314.387407" style="stroke: #000000; stroke-width: 0.6"/>
      </g>
     </g>
    </g>
    <g id="xtick_41">
     <g id="line2d_53">
      <g>
       <use xlink:href="#m05bfd170f6" x="832.084745" y="314.387407" style="stroke: #000000; stroke-width: 0.6"/>
      </g>
     </g>
    </g>
    <g id="xtick_42">
     <g id="line2d_54">
      <g>
       <use xlink:href="#m05bfd170f6" x="840.687174" y="314.387407" style="stroke: #000000; stroke-width: 0.6"/>
      </g>
     </g>
    </g>
    <g id="text_17">
     <!-- renal function [-] -->
     <g transform="translate(584.235187 357.037094) scale(0.2 -0.2)">
      <use xlink:href="#DejaVuSans-Bold-72"/>
      <use xlink:href="#DejaVuSans-Bold-65" transform="translate(49.316406 0)"/>
      <use xlink:href="#DejaVuSans-Bold-6e" transform="translate(117.138672 0)"/>
      <use xlink:href="#DejaVuSans-Bold-61" transform="translate(188.330078 0)"/>
      <use xlink:href="#DejaVuSans-Bold-6c" transform="translate(255.810547 0)"/>
      <use xlink:href="#DejaVuSans-Bold-20" transform="translate(290.087891 0)"/>
      <use xlink:href="#DejaVuSans-Bold-66" transform="translate(324.902344 0)"/>
      <use xlink:href="#DejaVuSans-Bold-75" transform="translate(368.408203 0)"/>
      <use xlink:href="#DejaVuSans-Bold-6e" transform="translate(439.599609 0)"/>
      <use xlink:href="#DejaVuSans-Bold-63" transform="translate(510.791016 0)"/>
      <use xlink:href="#DejaVuSans-Bold-74" transform="translate(570.068359 0)"/>
      <use xlink:href="#DejaVuSans-Bold-69" transform="translate(617.871094 0)"/>
      <use xlink:href="#DejaVuSans-Bold-6f" transform="translate(652.148438 0)"/>
      <use xlink:href="#DejaVuSans-Bold-6e" transform="translate(720.849609 0)"/>
      <use xlink:href="#DejaVuSans-Bold-20" transform="translate(792.041016 0)"/>
      <use xlink:href="#DejaVuSans-Bold-5b" transform="translate(826.855469 0)"/>
      <use xlink:href="#DejaVuSans-Bold-2d" transform="translate(872.558594 0)"/>
      <use xlink:href="#DejaVuSans-Bold-5d" transform="translate(914.0625 0)"/>
     </g>
    </g>
   </g>
   <g id="matplotlib.axis_4">
    <g id="ytick_7">
     <g id="line2d_55">
      <g>
       <use xlink:href="#m671009b66e" x="495.220854" y="277.625538" style="stroke: #000000; stroke-width: 0.8"/>
      </g>
     </g>
     <g id="text_18">
      <!-- 4.35 -->
      <g transform="translate(450.369291 284.084209) scale(0.17 -0.17)">
       <defs>
        <path id="DejaVuSans-2e" d="M 684 794 
L 1344 794 
L 1344 0 
L 684 0 
L 684 794 
z
" transform="scale(0.015625)"/>
       </defs>
       <use xlink:href="#DejaVuSans-34"/>
       <use xlink:href="#DejaVuSans-2e" transform="translate(63.623047 0)"/>
       <use xlink:href="#DejaVuSans-33" transform="translate(95.410156 0)"/>
       <use xlink:href="#DejaVuSans-35" transform="translate(159.033203 0)"/>
      </g>
     </g>
    </g>
    <g id="ytick_8">
     <g id="line2d_56">
      <g>
       <use xlink:href="#m671009b66e" x="495.220854" y="238.444621" style="stroke: #000000; stroke-width: 0.8"/>
      </g>
     </g>
     <g id="text_19">
      <!-- 4.36 -->
      <g transform="translate(450.369291 244.903292) scale(0.17 -0.17)">
       <defs>
        <path id="DejaVuSans-36" d="M 2113 2584 
Q 1688 2584 1439 2293 
Q 1191 2003 1191 1497 
Q 1191 994 1439 701 
Q 1688 409 2113 409 
Q 2538 409 2786 701 
Q 3034 994 3034 1497 
Q 3034 2003 2786 2293 
Q 2538 2584 2113 2584 
z
M 3366 4563 
L 3366 3988 
Q 3128 4100 2886 4159 
Q 2644 4219 2406 4219 
Q 1781 4219 1451 3797 
Q 1122 3375 1075 2522 
Q 1259 2794 1537 2939 
Q 1816 3084 2150 3084 
Q 2853 3084 3261 2657 
Q 3669 2231 3669 1497 
Q 3669 778 3244 343 
Q 2819 -91 2113 -91 
Q 1303 -91 875 529 
Q 447 1150 447 2328 
Q 447 3434 972 4092 
Q 1497 4750 2381 4750 
Q 2619 4750 2861 4703 
Q 3103 4656 3366 4563 
z
" transform="scale(0.015625)"/>
       </defs>
       <use xlink:href="#DejaVuSans-34"/>
       <use xlink:href="#DejaVuSans-2e" transform="translate(63.623047 0)"/>
       <use xlink:href="#DejaVuSans-33" transform="translate(95.410156 0)"/>
       <use xlink:href="#DejaVuSans-36" transform="translate(159.033203 0)"/>
      </g>
     </g>
    </g>
    <g id="ytick_9">
     <g id="line2d_57">
      <g>
       <use xlink:href="#m671009b66e" x="495.220854" y="199.263704" style="stroke: #000000; stroke-width: 0.8"/>
      </g>
     </g>
     <g id="text_20">
      <!-- 4.37 -->
      <g transform="translate(450.369291 205.722375) scale(0.17 -0.17)">
       <defs>
        <path id="DejaVuSans-37" d="M 525 4666 
L 3525 4666 
L 3525 4397 
L 1831 0 
L 1172 0 
L 2766 4134 
L 525 4134 
L 525 4666 
z
" transform="scale(0.015625)"/>
       </defs>
       <use xlink:href="#DejaVuSans-34"/>
       <use xlink:href="#DejaVuSans-2e" transform="translate(63.623047 0)"/>
       <use xlink:href="#DejaVuSans-33" transform="translate(95.410156 0)"/>
       <use xlink:href="#DejaVuSans-37" transform="translate(159.033203 0)"/>
      </g>
     </g>
    </g>
    <g id="ytick_10">
     <g id="line2d_58">
      <g>
       <use xlink:href="#m671009b66e" x="495.220854" y="160.082787" style="stroke: #000000; stroke-width: 0.8"/>
      </g>
     </g>
     <g id="text_21">
      <!-- 4.38 -->
      <g transform="translate(450.369291 166.541458) scale(0.17 -0.17)">
       <defs>
        <path id="DejaVuSans-38" d="M 2034 2216 
Q 1584 2216 1326 1975 
Q 1069 1734 1069 1313 
Q 1069 891 1326 650 
Q 1584 409 2034 409 
Q 2484 409 2743 651 
Q 3003 894 3003 1313 
Q 3003 1734 2745 1975 
Q 2488 2216 2034 2216 
z
M 1403 2484 
Q 997 2584 770 2862 
Q 544 3141 544 3541 
Q 544 4100 942 4425 
Q 1341 4750 2034 4750 
Q 2731 4750 3128 4425 
Q 3525 4100 3525 3541 
Q 3525 3141 3298 2862 
Q 3072 2584 2669 2484 
Q 3125 2378 3379 2068 
Q 3634 1759 3634 1313 
Q 3634 634 3220 271 
Q 2806 -91 2034 -91 
Q 1263 -91 848 271 
Q 434 634 434 1313 
Q 434 1759 690 2068 
Q 947 2378 1403 2484 
z
M 1172 3481 
Q 1172 3119 1398 2916 
Q 1625 2713 2034 2713 
Q 2441 2713 2670 2916 
Q 2900 3119 2900 3481 
Q 2900 3844 2670 4047 
Q 2441 4250 2034 4250 
Q 1625 4250 1398 4047 
Q 1172 3844 1172 3481 
z
" transform="scale(0.015625)"/>
       </defs>
       <use xlink:href="#DejaVuSans-34"/>
       <use xlink:href="#DejaVuSans-2e" transform="translate(63.623047 0)"/>
       <use xlink:href="#DejaVuSans-33" transform="translate(95.410156 0)"/>
       <use xlink:href="#DejaVuSans-38" transform="translate(159.033203 0)"/>
      </g>
     </g>
    </g>
    <g id="ytick_11">
     <g id="line2d_59">
      <g>
       <use xlink:href="#m671009b66e" x="495.220854" y="120.90187" style="stroke: #000000; stroke-width: 0.8"/>
      </g>
     </g>
     <g id="text_22">
      <!-- 4.39 -->
      <g transform="translate(450.369291 127.360541) scale(0.17 -0.17)">
       <defs>
        <path id="DejaVuSans-39" d="M 703 97 
L 703 672 
Q 941 559 1184 500 
Q 1428 441 1663 441 
Q 2288 441 2617 861 
Q 2947 1281 2994 2138 
Q 2813 1869 2534 1725 
Q 2256 1581 1919 1581 
Q 1219 1581 811 2004 
Q 403 2428 403 3163 
Q 403 3881 828 4315 
Q 1253 4750 1959 4750 
Q 2769 4750 3195 4129 
Q 3622 3509 3622 2328 
Q 3622 1225 3098 567 
Q 2575 -91 1691 -91 
Q 1453 -91 1209 -44 
Q 966 3 703 97 
z
M 1959 2075 
Q 2384 2075 2632 2365 
Q 2881 2656 2881 3163 
Q 2881 3666 2632 3958 
Q 2384 4250 1959 4250 
Q 1534 4250 1286 3958 
Q 1038 3666 1038 3163 
Q 1038 2656 1286 2365 
Q 1534 2075 1959 2075 
z
" transform="scale(0.015625)"/>
       </defs>
       <use xlink:href="#DejaVuSans-34"/>
       <use xlink:href="#DejaVuSans-2e" transform="translate(63.623047 0)"/>
       <use xlink:href="#DejaVuSans-33" transform="translate(95.410156 0)"/>
       <use xlink:href="#DejaVuSans-39" transform="translate(159.033203 0)"/>
      </g>
     </g>
    </g>
    <g id="ytick_12">
     <g id="line2d_60">
      <g>
       <use xlink:href="#m671009b66e" x="495.220854" y="81.720953" style="stroke: #000000; stroke-width: 0.8"/>
      </g>
     </g>
     <g id="text_23">
      <!-- 4.40 -->
      <g transform="translate(450.369291 88.179624) scale(0.17 -0.17)">
       <use xlink:href="#DejaVuSans-34"/>
       <use xlink:href="#DejaVuSans-2e" transform="translate(63.623047 0)"/>
       <use xlink:href="#DejaVuSans-34" transform="translate(95.410156 0)"/>
       <use xlink:href="#DejaVuSans-30" transform="translate(159.033203 0)"/>
      </g>
     </g>
    </g>
    <g id="ytick_13">
     <g id="line2d_61">
      <g>
       <use xlink:href="#m671009b66e" x="495.220854" y="42.540036" style="stroke: #000000; stroke-width: 0.8"/>
      </g>
     </g>
     <g id="text_24">
      <!-- 4.41 -->
      <g transform="translate(450.369291 48.998708) scale(0.17 -0.17)">
       <use xlink:href="#DejaVuSans-34"/>
       <use xlink:href="#DejaVuSans-2e" transform="translate(63.623047 0)"/>
       <use xlink:href="#DejaVuSans-34" transform="translate(95.410156 0)"/>
       <use xlink:href="#DejaVuSans-31" transform="translate(159.033203 0)"/>
      </g>
     </g>
    </g>
    <g id="text_25">
     <!-- Half-life [hr] -->
     <g transform="translate(442.209916 231.923577) rotate(-90) scale(0.2 -0.2)">
      <defs>
       <path id="DejaVuSans-Bold-48" d="M 588 4666 
L 1791 4666 
L 1791 2888 
L 3566 2888 
L 3566 4666 
L 4769 4666 
L 4769 0 
L 3566 0 
L 3566 1978 
L 1791 1978 
L 1791 0 
L 588 0 
L 588 4666 
z
" transform="scale(0.015625)"/>
      </defs>
      <use xlink:href="#DejaVuSans-Bold-48"/>
      <use xlink:href="#DejaVuSans-Bold-61" transform="translate(83.691406 0)"/>
      <use xlink:href="#DejaVuSans-Bold-6c" transform="translate(151.171875 0)"/>
      <use xlink:href="#DejaVuSans-Bold-66" transform="translate(185.449219 0)"/>
      <use xlink:href="#DejaVuSans-Bold-2d" transform="translate(227.205078 0)"/>
      <use xlink:href="#DejaVuSans-Bold-6c" transform="translate(268.708984 0)"/>
      <use xlink:href="#DejaVuSans-Bold-69" transform="translate(302.986328 0)"/>
      <use xlink:href="#DejaVuSans-Bold-66" transform="translate(337.263672 0)"/>
      <use xlink:href="#DejaVuSans-Bold-65" transform="translate(380.769531 0)"/>
      <use xlink:href="#DejaVuSans-Bold-20" transform="translate(448.591797 0)"/>
      <use xlink:href="#DejaVuSans-Bold-5b" transform="translate(483.40625 0)"/>
      <use xlink:href="#DejaVuSans-Bold-68" transform="translate(529.109375 0)"/>
      <use xlink:href="#DejaVuSans-Bold-72" transform="translate(600.300781 0)"/>
      <use xlink:href="#DejaVuSans-Bold-5d" transform="translate(649.617188 0)"/>
     </g>
    </g>
   </g>
   <g id="line2d_62">
    <path d="M 680.210187 314.387407 
L 680.210187 10.397247 
" clip-path="url(#p33c9a88200)" style="fill: none; stroke-dasharray: 5.55,2.4; stroke-dashoffset: 0; stroke: #808080; stroke-width: 1.5"/>
   </g>
   <g id="line2d_63">
    <path d="M 512.038066 233.576294 
L 549.409648 239.066731 
L 586.781231 245.799689 
L 624.152813 256.679801 
L 661.524396 267.800743 
L 680.210187 274.519078 
L 698.895978 279.500593 
L 736.267561 289.126364 
L 773.639143 295.556301 
L 811.010725 298.984548 
L 848.382308 300.527358 
" clip-path="url(#p33c9a88200)" style="fill: none; stroke: #000000; stroke-width: 2; stroke-linecap: square"/>
    <g clip-path="url(#p33c9a88200)">
     <use xlink:href="#m95155738d2" x="512.038066" y="233.576294" style="fill: #ffffff; stroke: #000000; stroke-width: 2"/>
     <use xlink:href="#m95155738d2" x="549.409648" y="239.066731" style="fill: #ffffff; stroke: #000000; stroke-width: 2"/>
     <use xlink:href="#m95155738d2" x="586.781231" y="245.799689" style="fill: #ffffff; stroke: #000000; stroke-width: 2"/>
     <use xlink:href="#m95155738d2" x="624.152813" y="256.679801" style="fill: #ffffff; stroke: #000000; stroke-width: 2"/>
     <use xlink:href="#m95155738d2" x="661.524396" y="267.800743" style="fill: #ffffff; stroke: #000000; stroke-width: 2"/>
     <use xlink:href="#m95155738d2" x="680.210187" y="274.519078" style="fill: #ffffff; stroke: #000000; stroke-width: 2"/>
     <use xlink:href="#m95155738d2" x="698.895978" y="279.500593" style="fill: #ffffff; stroke: #000000; stroke-width: 2"/>
     <use xlink:href="#m95155738d2" x="736.267561" y="289.126364" style="fill: #ffffff; stroke: #000000; stroke-width: 2"/>
     <use xlink:href="#m95155738d2" x="773.639143" y="295.556301" style="fill: #ffffff; stroke: #000000; stroke-width: 2"/>
     <use xlink:href="#m95155738d2" x="811.010725" y="298.984548" style="fill: #ffffff; stroke: #000000; stroke-width: 2"/>
     <use xlink:href="#m95155738d2" x="848.382308" y="300.527358" style="fill: #ffffff; stroke: #000000; stroke-width: 2"/>
    </g>
   </g>
   <g id="line2d_64">
    <path d="M 680.210187 314.387407 
L 680.210187 10.397247 
" clip-path="url(#p33c9a88200)" style="fill: none; stroke-dasharray: 5.55,2.4; stroke-dashoffset: 0; stroke: #808080; stroke-width: 1.5"/>
   </g>
   <g id="line2d_65">
    <path d="M 512.038066 24.214982 
L 549.409648 183.357489 
L 586.781231 232.53285 
L 624.152813 253.217917 
L 661.524396 267.490721 
L 680.210187 273.538835 
L 698.895978 279.680882 
L 736.267561 289.254 
L 773.639143 295.45767 
L 811.010725 298.843797 
L 848.382308 300.569672 
" clip-path="url(#p33c9a88200)" style="fill: none; stroke: #1f77b4; stroke-width: 2; stroke-linecap: square"/>
    <g clip-path="url(#p33c9a88200)">
     <use xlink:href="#m480871051f" x="512.038066" y="24.214982" style="fill: #ffffff; stroke: #1f77b4; stroke-width: 2"/>
     <use xlink:href="#m480871051f" x="549.409648" y="183.357489" style="fill: #ffffff; stroke: #1f77b4; stroke-width: 2"/>
     <use xlink:href="#m480871051f" x="586.781231" y="232.53285" style="fill: #ffffff; stroke: #1f77b4; stroke-width: 2"/>
     <use xlink:href="#m480871051f" x="624.152813" y="253.217917" style="fill: #ffffff; stroke: #1f77b4; stroke-width: 2"/>
     <use xlink:href="#m480871051f" x="661.524396" y="267.490721" style="fill: #ffffff; stroke: #1f77b4; stroke-width: 2"/>
     <use xlink:href="#m480871051f" x="680.210187" y="273.538835" style="fill: #ffffff; stroke: #1f77b4; stroke-width: 2"/>
     <use xlink:href="#m480871051f" x="698.895978" y="279.680882" style="fill: #ffffff; stroke: #1f77b4; stroke-width: 2"/>
     <use xlink:href="#m480871051f" x="736.267561" y="289.254" style="fill: #ffffff; stroke: #1f77b4; stroke-width: 2"/>
     <use xlink:href="#m480871051f" x="773.639143" y="295.45767" style="fill: #ffffff; stroke: #1f77b4; stroke-width: 2"/>
     <use xlink:href="#m480871051f" x="811.010725" y="298.843797" style="fill: #ffffff; stroke: #1f77b4; stroke-width: 2"/>
     <use xlink:href="#m480871051f" x="848.382308" y="300.569672" style="fill: #ffffff; stroke: #1f77b4; stroke-width: 2"/>
    </g>
   </g>
   <g id="patch_9">
    <path d="M 495.220854 314.387407 
L 495.220854 10.397247 
" style="fill: none; stroke: #000000; stroke-width: 0.8; stroke-linejoin: miter; stroke-linecap: square"/>
   </g>
   <g id="patch_10">
    <path d="M 865.19952 314.387407 
L 865.19952 10.397247 
" style="fill: none; stroke: #000000; stroke-width: 0.8; stroke-linejoin: miter; stroke-linecap: square"/>
   </g>
   <g id="patch_11">
    <path d="M 495.220854 314.387407 
L 865.19952 314.387407 
" style="fill: none; stroke: #000000; stroke-width: 0.8; stroke-linejoin: miter; stroke-linecap: square"/>
   </g>
   <g id="patch_12">
    <path d="M 495.220854 10.397247 
L 865.19952 10.397247 
" style="fill: none; stroke: #000000; stroke-width: 0.8; stroke-linejoin: miter; stroke-linecap: square"/>
   </g>
   <g id="legend_2">
    <g id="patch_13">
     <path d="M 818.572489 44.017872 
L 858.89952 44.017872 
Q 860.69952 44.017872 860.69952 42.217872 
L 860.69952 16.697247 
Q 860.69952 14.897247 858.89952 14.897247 
L 818.572489 14.897247 
Q 816.772489 14.897247 816.772489 16.697247 
L 816.772489 42.217872 
Q 816.772489 44.017872 818.572489 44.017872 
z
" style="fill: #ffffff; opacity: 0.8; stroke: #cccccc; stroke-linejoin: miter"/>
    </g>
    <g id="line2d_66">
     <path d="M 820.372489 22.185841 
L 829.372489 22.185841 
L 838.372489 22.185841 
" style="fill: none; stroke: #000000; stroke-width: 2; stroke-linecap: square"/>
     <g>
      <use xlink:href="#m95155738d2" x="829.372489" y="22.185841" style="fill: #ffffff; stroke: #000000; stroke-width: 2"/>
     </g>
    </g>
    <g id="text_26">
     <!-- riv -->
     <g transform="translate(845.572489 25.335841) scale(0.09 -0.09)">
      <use xlink:href="#DejaVuSans-72"/>
      <use xlink:href="#DejaVuSans-69" transform="translate(41.113281 0)"/>
      <use xlink:href="#DejaVuSans-76" transform="translate(68.896484 0)"/>
     </g>
    </g>
    <g id="line2d_67">
     <path d="M 820.372489 35.396154 
L 829.372489 35.396154 
L 838.372489 35.396154 
" style="fill: none; stroke: #1f77b4; stroke-width: 2; stroke-linecap: square"/>
     <g>
      <use xlink:href="#m480871051f" x="829.372489" y="35.396154" style="fill: #ffffff; stroke: #1f77b4; stroke-width: 2"/>
     </g>
    </g>
    <g id="text_27">
     <!-- rx -->
     <g transform="translate(845.572489 38.546154) scale(0.09 -0.09)">
      <use xlink:href="#DejaVuSans-72"/>
      <use xlink:href="#DejaVuSans-78" transform="translate(38.488281 0)"/>
     </g>
    </g>
   </g>
  </g>
 </g>
 <defs>
  <clipPath id="pb5427bd868">
   <rect x="48.394375" y="10.397247" width="369.978666" height="303.990159"/>
  </clipPath>
  <clipPath id="p33c9a88200">
   <rect x="495.220854" y="10.397247" width="369.978666" height="303.990159"/>
  </clipPath>
 </defs>
</svg>
