<?xml version="1.0" encoding="utf-8" standalone="no"?>
<!DOCTYPE svg PUBLIC "-//W3C//DTD SVG 1.1//EN"
  "http://www.w3.org/Graphics/SVG/1.1/DTD/svg11.dtd">
<svg xmlns:xlink="http://www.w3.org/1999/xlink" width="457.295pt" height="370.537812pt" viewBox="0 0 457.295 370.537812" xmlns="http://www.w3.org/2000/svg" version="1.1">
 <metadata>
  <rdf:RDF xmlns:dc="http://purl.org/dc/elements/1.1/" xmlns:cc="http://creativecommons.org/ns#" xmlns:rdf="http://www.w3.org/1999/02/22-rdf-syntax-ns#">
   <cc:Work>
    <dc:type rdf:resource="http://purl.org/dc/dcmitype/StillImage"/>
    <dc:date>2025-07-19T10:59:07.787840</dc:date>
    <dc:format>image/svg+xml</dc:format>
    <dc:creator>
     <cc:Agent>
      <dc:title>Matplotlib v3.9.1, https://matplotlib.org/</dc:title>
     </cc:Agent>
    </dc:creator>
   </cc:Work>
  </rdf:RDF>
 </metadata>
 <defs>
  <style type="text/css">*{stroke-linejoin: round; stroke-linecap: butt}</style>
 </defs>
 <g id="figure_1">
  <g id="patch_1">
   <path d="M 0 370.537812 
L 457.295 370.537812 
L 457.295 0 
L 0 0 
z
" style="fill: #ffffff"/>
  </g>
  <g id="axes_1">
   <g id="patch_2">
    <path d="M 59.495 320.4 
L 450.095 320.4 
L 450.095 43.2 
L 59.495 43.2 
z
" style="fill: #ffffff"/>
   </g>
   <g id="matplotlib.axis_1">
    <g id="xtick_1">
     <g id="line2d_1">
      <defs>
       <path id="mbc9e85d1c6" d="M 0 0 
L 0 3.5 
" style="stroke: #000000; stroke-width: 0.8"/>
      </defs>
      <g>
       <use xlink:href="#mbc9e85d1c6" x="77.249545" y="320.4" style="stroke: #000000; stroke-width: 0.8"/>
      </g>
     </g>
     <g id="text_1">
      <!-- 0 -->
      <g transform="translate(72.47767 338.797656) scale(0.15 -0.15)">
       <defs>
        <path id="DejaVuSans-30" d="M 2034 4250 
Q 1547 4250 1301 3770 
Q 1056 3291 1056 2328 
Q 1056 1369 1301 889 
Q 1547 409 2034 409 
Q 2525 409 2770 889 
Q 3016 1369 3016 2328 
Q 3016 3291 2770 3770 
Q 2525 4250 2034 4250 
z
M 2034 4750 
Q 2819 4750 3233 4129 
Q 3647 3509 3647 2328 
Q 3647 1150 3233 529 
Q 2819 -91 2034 -91 
Q 1250 -91 836 529 
Q 422 1150 422 2328 
Q 422 3509 836 4129 
Q 1250 4750 2034 4750 
z
" transform="scale(0.015625)"/>
       </defs>
       <use xlink:href="#DejaVuSans-30"/>
      </g>
     </g>
    </g>
    <g id="xtick_2">
     <g id="line2d_2">
      <g>
       <use xlink:href="#mbc9e85d1c6" x="148.267727" y="320.4" style="stroke: #000000; stroke-width: 0.8"/>
      </g>
     </g>
     <g id="text_2">
      <!-- 20 -->
      <g transform="translate(138.723977 338.797656) scale(0.15 -0.15)">
       <defs>
        <path id="DejaVuSans-32" d="M 1228 531 
L 3431 531 
L 3431 0 
L 469 0 
L 469 531 
Q 828 903 1448 1529 
Q 2069 2156 2228 2338 
Q 2531 2678 2651 2914 
Q 2772 3150 2772 3378 
Q 2772 3750 2511 3984 
Q 2250 4219 1831 4219 
Q 1534 4219 1204 4116 
Q 875 4013 500 3803 
L 500 4441 
Q 881 4594 1212 4672 
Q 1544 4750 1819 4750 
Q 2544 4750 2975 4387 
Q 3406 4025 3406 3419 
Q 3406 3131 3298 2873 
Q 3191 2616 2906 2266 
Q 2828 2175 2409 1742 
Q 1991 1309 1228 531 
z
" transform="scale(0.015625)"/>
       </defs>
       <use xlink:href="#DejaVuSans-32"/>
       <use xlink:href="#DejaVuSans-30" x="63.623047"/>
      </g>
     </g>
    </g>
    <g id="xtick_3">
     <g id="line2d_3">
      <g>
       <use xlink:href="#mbc9e85d1c6" x="219.285909" y="320.4" style="stroke: #000000; stroke-width: 0.8"/>
      </g>
     </g>
     <g id="text_3">
      <!-- 40 -->
      <g transform="translate(209.742159 338.797656) scale(0.15 -0.15)">
       <defs>
        <path id="DejaVuSans-34" d="M 2419 4116 
L 825 1625 
L 2419 1625 
L 2419 4116 
z
M 2253 4666 
L 3047 4666 
L 3047 1625 
L 3713 1625 
L 3713 1100 
L 3047 1100 
L 3047 0 
L 2419 0 
L 2419 1100 
L 313 1100 
L 313 1709 
L 2253 4666 
z
" transform="scale(0.015625)"/>
       </defs>
       <use xlink:href="#DejaVuSans-34"/>
       <use xlink:href="#DejaVuSans-30" x="63.623047"/>
      </g>
     </g>
    </g>
    <g id="xtick_4">
     <g id="line2d_4">
      <g>
       <use xlink:href="#mbc9e85d1c6" x="290.304091" y="320.4" style="stroke: #000000; stroke-width: 0.8"/>
      </g>
     </g>
     <g id="text_4">
      <!-- 60 -->
      <g transform="translate(280.760341 338.797656) scale(0.15 -0.15)">
       <defs>
        <path id="DejaVuSans-36" d="M 2113 2584 
Q 1688 2584 1439 2293 
Q 1191 2003 1191 1497 
Q 1191 994 1439 701 
Q 1688 409 2113 409 
Q 2538 409 2786 701 
Q 3034 994 3034 1497 
Q 3034 2003 2786 2293 
Q 2538 2584 2113 2584 
z
M 3366 4563 
L 3366 3988 
Q 3128 4100 2886 4159 
Q 2644 4219 2406 4219 
Q 1781 4219 1451 3797 
Q 1122 3375 1075 2522 
Q 1259 2794 1537 2939 
Q 1816 3084 2150 3084 
Q 2853 3084 3261 2657 
Q 3669 2231 3669 1497 
Q 3669 778 3244 343 
Q 2819 -91 2113 -91 
Q 1303 -91 875 529 
Q 447 1150 447 2328 
Q 447 3434 972 4092 
Q 1497 4750 2381 4750 
Q 2619 4750 2861 4703 
Q 3103 4656 3366 4563 
z
" transform="scale(0.015625)"/>
       </defs>
       <use xlink:href="#DejaVuSans-36"/>
       <use xlink:href="#DejaVuSans-30" x="63.623047"/>
      </g>
     </g>
    </g>
    <g id="xtick_5">
     <g id="line2d_5">
      <g>
       <use xlink:href="#mbc9e85d1c6" x="361.322273" y="320.4" style="stroke: #000000; stroke-width: 0.8"/>
      </g>
     </g>
     <g id="text_5">
      <!-- 80 -->
      <g transform="translate(351.778523 338.797656) scale(0.15 -0.15)">
       <defs>
        <path id="DejaVuSans-38" d="M 2034 2216 
Q 1584 2216 1326 1975 
Q 1069 1734 1069 1313 
Q 1069 891 1326 650 
Q 1584 409 2034 409 
Q 2484 409 2743 651 
Q 3003 894 3003 1313 
Q 3003 1734 2745 1975 
Q 2488 2216 2034 2216 
z
M 1403 2484 
Q 997 2584 770 2862 
Q 544 3141 544 3541 
Q 544 4100 942 4425 
Q 1341 4750 2034 4750 
Q 2731 4750 3128 4425 
Q 3525 4100 3525 3541 
Q 3525 3141 3298 2862 
Q 3072 2584 2669 2484 
Q 3125 2378 3379 2068 
Q 3634 1759 3634 1313 
Q 3634 634 3220 271 
Q 2806 -91 2034 -91 
Q 1263 -91 848 271 
Q 434 634 434 1313 
Q 434 1759 690 2068 
Q 947 2378 1403 2484 
z
M 1172 3481 
Q 1172 3119 1398 2916 
Q 1625 2713 2034 2713 
Q 2441 2713 2670 2916 
Q 2900 3119 2900 3481 
Q 2900 3844 2670 4047 
Q 2441 4250 2034 4250 
Q 1625 4250 1398 4047 
Q 1172 3844 1172 3481 
z
" transform="scale(0.015625)"/>
       </defs>
       <use xlink:href="#DejaVuSans-38"/>
       <use xlink:href="#DejaVuSans-30" x="63.623047"/>
      </g>
     </g>
    </g>
    <g id="xtick_6">
     <g id="line2d_6">
      <g>
       <use xlink:href="#mbc9e85d1c6" x="432.340455" y="320.4" style="stroke: #000000; stroke-width: 0.8"/>
      </g>
     </g>
     <g id="text_6">
      <!-- 100 -->
      <g transform="translate(418.02483 338.797656) scale(0.15 -0.15)">
       <defs>
        <path id="DejaVuSans-31" d="M 794 531 
L 1825 531 
L 1825 4091 
L 703 3866 
L 703 4441 
L 1819 4666 
L 2450 4666 
L 2450 531 
L 3481 531 
L 3481 0 
L 794 0 
L 794 531 
z
" transform="scale(0.015625)"/>
       </defs>
       <use xlink:href="#DejaVuSans-31"/>
       <use xlink:href="#DejaVuSans-30" x="63.623047"/>
       <use xlink:href="#DejaVuSans-30" x="127.246094"/>
      </g>
     </g>
    </g>
    <g id="text_7">
     <!-- time [hr] -->
     <g transform="translate(209.720469 359.594375) scale(0.18 -0.18)">
      <defs>
       <path id="DejaVuSans-Bold-74" d="M 1759 4494 
L 1759 3500 
L 2913 3500 
L 2913 2700 
L 1759 2700 
L 1759 1216 
Q 1759 972 1856 886 
Q 1953 800 2241 800 
L 2816 800 
L 2816 0 
L 1856 0 
Q 1194 0 917 276 
Q 641 553 641 1216 
L 641 2700 
L 84 2700 
L 84 3500 
L 641 3500 
L 641 4494 
L 1759 4494 
z
" transform="scale(0.015625)"/>
       <path id="DejaVuSans-Bold-69" d="M 538 3500 
L 1656 3500 
L 1656 0 
L 538 0 
L 538 3500 
z
M 538 4863 
L 1656 4863 
L 1656 3950 
L 538 3950 
L 538 4863 
z
" transform="scale(0.015625)"/>
       <path id="DejaVuSans-Bold-6d" d="M 3781 2919 
Q 3994 3244 4286 3414 
Q 4578 3584 4928 3584 
Q 5531 3584 5847 3212 
Q 6163 2841 6163 2131 
L 6163 0 
L 5038 0 
L 5038 1825 
Q 5041 1866 5042 1909 
Q 5044 1953 5044 2034 
Q 5044 2406 4934 2573 
Q 4825 2741 4581 2741 
Q 4263 2741 4089 2478 
Q 3916 2216 3909 1719 
L 3909 0 
L 2784 0 
L 2784 1825 
Q 2784 2406 2684 2573 
Q 2584 2741 2328 2741 
Q 2006 2741 1831 2477 
Q 1656 2213 1656 1722 
L 1656 0 
L 531 0 
L 531 3500 
L 1656 3500 
L 1656 2988 
Q 1863 3284 2130 3434 
Q 2397 3584 2719 3584 
Q 3081 3584 3359 3409 
Q 3638 3234 3781 2919 
z
" transform="scale(0.015625)"/>
       <path id="DejaVuSans-Bold-65" d="M 4031 1759 
L 4031 1441 
L 1416 1441 
Q 1456 1047 1700 850 
Q 1944 653 2381 653 
Q 2734 653 3104 758 
Q 3475 863 3866 1075 
L 3866 213 
Q 3469 63 3072 -14 
Q 2675 -91 2278 -91 
Q 1328 -91 801 392 
Q 275 875 275 1747 
Q 275 2603 792 3093 
Q 1309 3584 2216 3584 
Q 3041 3584 3536 3087 
Q 4031 2591 4031 1759 
z
M 2881 2131 
Q 2881 2450 2695 2645 
Q 2509 2841 2209 2841 
Q 1884 2841 1681 2658 
Q 1478 2475 1428 2131 
L 2881 2131 
z
" transform="scale(0.015625)"/>
       <path id="DejaVuSans-Bold-20" transform="scale(0.015625)"/>
       <path id="DejaVuSans-Bold-5b" d="M 550 4863 
L 2491 4863 
L 2491 4159 
L 1613 4159 
L 1613 -141 
L 2491 -141 
L 2491 -844 
L 550 -844 
L 550 4863 
z
" transform="scale(0.015625)"/>
       <path id="DejaVuSans-Bold-68" d="M 4056 2131 
L 4056 0 
L 2931 0 
L 2931 347 
L 2931 1625 
Q 2931 2084 2911 2256 
Q 2891 2428 2841 2509 
Q 2775 2619 2662 2680 
Q 2550 2741 2406 2741 
Q 2056 2741 1856 2470 
Q 1656 2200 1656 1722 
L 1656 0 
L 538 0 
L 538 4863 
L 1656 4863 
L 1656 2988 
Q 1909 3294 2193 3439 
Q 2478 3584 2822 3584 
Q 3428 3584 3742 3212 
Q 4056 2841 4056 2131 
z
" transform="scale(0.015625)"/>
       <path id="DejaVuSans-Bold-72" d="M 3138 2547 
Q 2991 2616 2845 2648 
Q 2700 2681 2553 2681 
Q 2122 2681 1889 2404 
Q 1656 2128 1656 1613 
L 1656 0 
L 538 0 
L 538 3500 
L 1656 3500 
L 1656 2925 
Q 1872 3269 2151 3426 
Q 2431 3584 2822 3584 
Q 2878 3584 2943 3579 
Q 3009 3575 3134 3559 
L 3138 2547 
z
" transform="scale(0.015625)"/>
       <path id="DejaVuSans-Bold-5d" d="M 2375 -844 
L 434 -844 
L 434 -141 
L 1313 -141 
L 1313 4159 
L 434 4159 
L 434 4863 
L 2375 4863 
L 2375 -844 
z
" transform="scale(0.015625)"/>
      </defs>
      <use xlink:href="#DejaVuSans-Bold-74"/>
      <use xlink:href="#DejaVuSans-Bold-69" x="47.802734"/>
      <use xlink:href="#DejaVuSans-Bold-6d" x="82.080078"/>
      <use xlink:href="#DejaVuSans-Bold-65" x="186.279297"/>
      <use xlink:href="#DejaVuSans-Bold-20" x="254.101562"/>
      <use xlink:href="#DejaVuSans-Bold-5b" x="288.916016"/>
      <use xlink:href="#DejaVuSans-Bold-68" x="334.619141"/>
      <use xlink:href="#DejaVuSans-Bold-72" x="405.810547"/>
      <use xlink:href="#DejaVuSans-Bold-5d" x="455.126953"/>
     </g>
    </g>
   </g>
   <g id="matplotlib.axis_2">
    <g id="ytick_1">
     <g id="line2d_7">
      <defs>
       <path id="m511324df3a" d="M 0 0 
L -3.5 0 
" style="stroke: #000000; stroke-width: 0.8"/>
      </defs>
      <g>
       <use xlink:href="#m511324df3a" x="59.495" y="307.8" style="stroke: #000000; stroke-width: 0.8"/>
      </g>
     </g>
     <g id="text_8">
      <!-- 0.0 -->
      <g transform="translate(28.640313 313.498828) scale(0.15 -0.15)">
       <defs>
        <path id="DejaVuSans-2e" d="M 684 794 
L 1344 794 
L 1344 0 
L 684 0 
L 684 794 
z
" transform="scale(0.015625)"/>
       </defs>
       <use xlink:href="#DejaVuSans-30"/>
       <use xlink:href="#DejaVuSans-2e" x="63.623047"/>
       <use xlink:href="#DejaVuSans-30" x="95.410156"/>
      </g>
     </g>
    </g>
    <g id="ytick_2">
     <g id="line2d_8">
      <g>
       <use xlink:href="#m511324df3a" x="59.495" y="276.059057" style="stroke: #000000; stroke-width: 0.8"/>
      </g>
     </g>
     <g id="text_9">
      <!-- 0.1 -->
      <g transform="translate(28.640313 281.757885) scale(0.15 -0.15)">
       <use xlink:href="#DejaVuSans-30"/>
       <use xlink:href="#DejaVuSans-2e" x="63.623047"/>
       <use xlink:href="#DejaVuSans-31" x="95.410156"/>
      </g>
     </g>
    </g>
    <g id="ytick_3">
     <g id="line2d_9">
      <g>
       <use xlink:href="#m511324df3a" x="59.495" y="244.318113" style="stroke: #000000; stroke-width: 0.8"/>
      </g>
     </g>
     <g id="text_10">
      <!-- 0.2 -->
      <g transform="translate(28.640313 250.016942) scale(0.15 -0.15)">
       <use xlink:href="#DejaVuSans-30"/>
       <use xlink:href="#DejaVuSans-2e" x="63.623047"/>
       <use xlink:href="#DejaVuSans-32" x="95.410156"/>
      </g>
     </g>
    </g>
    <g id="ytick_4">
     <g id="line2d_10">
      <g>
       <use xlink:href="#m511324df3a" x="59.495" y="212.57717" style="stroke: #000000; stroke-width: 0.8"/>
      </g>
     </g>
     <g id="text_11">
      <!-- 0.3 -->
      <g transform="translate(28.640313 218.275998) scale(0.15 -0.15)">
       <defs>
        <path id="DejaVuSans-33" d="M 2597 2516 
Q 3050 2419 3304 2112 
Q 3559 1806 3559 1356 
Q 3559 666 3084 287 
Q 2609 -91 1734 -91 
Q 1441 -91 1130 -33 
Q 819 25 488 141 
L 488 750 
Q 750 597 1062 519 
Q 1375 441 1716 441 
Q 2309 441 2620 675 
Q 2931 909 2931 1356 
Q 2931 1769 2642 2001 
Q 2353 2234 1838 2234 
L 1294 2234 
L 1294 2753 
L 1863 2753 
Q 2328 2753 2575 2939 
Q 2822 3125 2822 3475 
Q 2822 3834 2567 4026 
Q 2313 4219 1838 4219 
Q 1578 4219 1281 4162 
Q 984 4106 628 3988 
L 628 4550 
Q 988 4650 1302 4700 
Q 1616 4750 1894 4750 
Q 2613 4750 3031 4423 
Q 3450 4097 3450 3541 
Q 3450 3153 3228 2886 
Q 3006 2619 2597 2516 
z
" transform="scale(0.015625)"/>
       </defs>
       <use xlink:href="#DejaVuSans-30"/>
       <use xlink:href="#DejaVuSans-2e" x="63.623047"/>
       <use xlink:href="#DejaVuSans-33" x="95.410156"/>
      </g>
     </g>
    </g>
    <g id="ytick_5">
     <g id="line2d_11">
      <g>
       <use xlink:href="#m511324df3a" x="59.495" y="180.836227" style="stroke: #000000; stroke-width: 0.8"/>
      </g>
     </g>
     <g id="text_12">
      <!-- 0.4 -->
      <g transform="translate(28.640313 186.535055) scale(0.15 -0.15)">
       <use xlink:href="#DejaVuSans-30"/>
       <use xlink:href="#DejaVuSans-2e" x="63.623047"/>
       <use xlink:href="#DejaVuSans-34" x="95.410156"/>
      </g>
     </g>
    </g>
    <g id="ytick_6">
     <g id="line2d_12">
      <g>
       <use xlink:href="#m511324df3a" x="59.495" y="149.095284" style="stroke: #000000; stroke-width: 0.8"/>
      </g>
     </g>
     <g id="text_13">
      <!-- 0.5 -->
      <g transform="translate(28.640313 154.794112) scale(0.15 -0.15)">
       <defs>
        <path id="DejaVuSans-35" d="M 691 4666 
L 3169 4666 
L 3169 4134 
L 1269 4134 
L 1269 2991 
Q 1406 3038 1543 3061 
Q 1681 3084 1819 3084 
Q 2600 3084 3056 2656 
Q 3513 2228 3513 1497 
Q 3513 744 3044 326 
Q 2575 -91 1722 -91 
Q 1428 -91 1123 -41 
Q 819 9 494 109 
L 494 744 
Q 775 591 1075 516 
Q 1375 441 1709 441 
Q 2250 441 2565 725 
Q 2881 1009 2881 1497 
Q 2881 1984 2565 2268 
Q 2250 2553 1709 2553 
Q 1456 2553 1204 2497 
Q 953 2441 691 2322 
L 691 4666 
z
" transform="scale(0.015625)"/>
       </defs>
       <use xlink:href="#DejaVuSans-30"/>
       <use xlink:href="#DejaVuSans-2e" x="63.623047"/>
       <use xlink:href="#DejaVuSans-35" x="95.410156"/>
      </g>
     </g>
    </g>
    <g id="ytick_7">
     <g id="line2d_13">
      <g>
       <use xlink:href="#m511324df3a" x="59.495" y="117.35434" style="stroke: #000000; stroke-width: 0.8"/>
      </g>
     </g>
     <g id="text_14">
      <!-- 0.6 -->
      <g transform="translate(28.640313 123.053168) scale(0.15 -0.15)">
       <use xlink:href="#DejaVuSans-30"/>
       <use xlink:href="#DejaVuSans-2e" x="63.623047"/>
       <use xlink:href="#DejaVuSans-36" x="95.410156"/>
      </g>
     </g>
    </g>
    <g id="ytick_8">
     <g id="line2d_14">
      <g>
       <use xlink:href="#m511324df3a" x="59.495" y="85.613397" style="stroke: #000000; stroke-width: 0.8"/>
      </g>
     </g>
     <g id="text_15">
      <!-- 0.7 -->
      <g transform="translate(28.640313 91.312225) scale(0.15 -0.15)">
       <defs>
        <path id="DejaVuSans-37" d="M 525 4666 
L 3525 4666 
L 3525 4397 
L 1831 0 
L 1172 0 
L 2766 4134 
L 525 4134 
L 525 4666 
z
" transform="scale(0.015625)"/>
       </defs>
       <use xlink:href="#DejaVuSans-30"/>
       <use xlink:href="#DejaVuSans-2e" x="63.623047"/>
       <use xlink:href="#DejaVuSans-37" x="95.410156"/>
      </g>
     </g>
    </g>
    <g id="ytick_9">
     <g id="line2d_15">
      <g>
       <use xlink:href="#m511324df3a" x="59.495" y="53.872454" style="stroke: #000000; stroke-width: 0.8"/>
      </g>
     </g>
     <g id="text_16">
      <!-- 0.8 -->
      <g transform="translate(28.640313 59.571282) scale(0.15 -0.15)">
       <use xlink:href="#DejaVuSans-30"/>
       <use xlink:href="#DejaVuSans-2e" x="63.623047"/>
       <use xlink:href="#DejaVuSans-38" x="95.410156"/>
      </g>
     </g>
    </g>
    <g id="text_17">
     <!-- rivaroxaban plasma [µM] -->
     <g transform="translate(20.877187 309.166875) rotate(-90) scale(0.18 -0.18)">
      <defs>
       <path id="DejaVuSans-Bold-76" d="M 97 3500 
L 1216 3500 
L 2088 1081 
L 2956 3500 
L 4078 3500 
L 2700 0 
L 1472 0 
L 97 3500 
z
" transform="scale(0.015625)"/>
       <path id="DejaVuSans-Bold-61" d="M 2106 1575 
Q 1756 1575 1579 1456 
Q 1403 1338 1403 1106 
Q 1403 894 1545 773 
Q 1688 653 1941 653 
Q 2256 653 2472 879 
Q 2688 1106 2688 1447 
L 2688 1575 
L 2106 1575 
z
M 3816 1997 
L 3816 0 
L 2688 0 
L 2688 519 
Q 2463 200 2181 54 
Q 1900 -91 1497 -91 
Q 953 -91 614 226 
Q 275 544 275 1050 
Q 275 1666 698 1953 
Q 1122 2241 2028 2241 
L 2688 2241 
L 2688 2328 
Q 2688 2594 2478 2717 
Q 2269 2841 1825 2841 
Q 1466 2841 1156 2769 
Q 847 2697 581 2553 
L 581 3406 
Q 941 3494 1303 3539 
Q 1666 3584 2028 3584 
Q 2975 3584 3395 3211 
Q 3816 2838 3816 1997 
z
" transform="scale(0.015625)"/>
       <path id="DejaVuSans-Bold-6f" d="M 2203 2784 
Q 1831 2784 1636 2517 
Q 1441 2250 1441 1747 
Q 1441 1244 1636 976 
Q 1831 709 2203 709 
Q 2569 709 2762 976 
Q 2956 1244 2956 1747 
Q 2956 2250 2762 2517 
Q 2569 2784 2203 2784 
z
M 2203 3584 
Q 3106 3584 3614 3096 
Q 4122 2609 4122 1747 
Q 4122 884 3614 396 
Q 3106 -91 2203 -91 
Q 1297 -91 786 396 
Q 275 884 275 1747 
Q 275 2609 786 3096 
Q 1297 3584 2203 3584 
z
" transform="scale(0.015625)"/>
       <path id="DejaVuSans-Bold-78" d="M 1422 1791 
L 159 3500 
L 1344 3500 
L 2059 2463 
L 2784 3500 
L 3969 3500 
L 2706 1797 
L 4031 0 
L 2847 0 
L 2059 1106 
L 1281 0 
L 97 0 
L 1422 1791 
z
" transform="scale(0.015625)"/>
       <path id="DejaVuSans-Bold-62" d="M 2400 722 
Q 2759 722 2948 984 
Q 3138 1247 3138 1747 
Q 3138 2247 2948 2509 
Q 2759 2772 2400 2772 
Q 2041 2772 1848 2508 
Q 1656 2244 1656 1747 
Q 1656 1250 1848 986 
Q 2041 722 2400 722 
z
M 1656 2988 
Q 1888 3294 2169 3439 
Q 2450 3584 2816 3584 
Q 3463 3584 3878 3070 
Q 4294 2556 4294 1747 
Q 4294 938 3878 423 
Q 3463 -91 2816 -91 
Q 2450 -91 2169 54 
Q 1888 200 1656 506 
L 1656 0 
L 538 0 
L 538 4863 
L 1656 4863 
L 1656 2988 
z
" transform="scale(0.015625)"/>
       <path id="DejaVuSans-Bold-6e" d="M 4056 2131 
L 4056 0 
L 2931 0 
L 2931 347 
L 2931 1631 
Q 2931 2084 2911 2256 
Q 2891 2428 2841 2509 
Q 2775 2619 2662 2680 
Q 2550 2741 2406 2741 
Q 2056 2741 1856 2470 
Q 1656 2200 1656 1722 
L 1656 0 
L 538 0 
L 538 3500 
L 1656 3500 
L 1656 2988 
Q 1909 3294 2193 3439 
Q 2478 3584 2822 3584 
Q 3428 3584 3742 3212 
Q 4056 2841 4056 2131 
z
" transform="scale(0.015625)"/>
       <path id="DejaVuSans-Bold-70" d="M 1656 506 
L 1656 -1331 
L 538 -1331 
L 538 3500 
L 1656 3500 
L 1656 2988 
Q 1888 3294 2169 3439 
Q 2450 3584 2816 3584 
Q 3463 3584 3878 3070 
Q 4294 2556 4294 1747 
Q 4294 938 3878 423 
Q 3463 -91 2816 -91 
Q 2450 -91 2169 54 
Q 1888 200 1656 506 
z
M 2400 2772 
Q 2041 2772 1848 2508 
Q 1656 2244 1656 1747 
Q 1656 1250 1848 986 
Q 2041 722 2400 722 
Q 2759 722 2948 984 
Q 3138 1247 3138 1747 
Q 3138 2247 2948 2509 
Q 2759 2772 2400 2772 
z
" transform="scale(0.015625)"/>
       <path id="DejaVuSans-Bold-6c" d="M 538 4863 
L 1656 4863 
L 1656 0 
L 538 0 
L 538 4863 
z
" transform="scale(0.015625)"/>
       <path id="DejaVuSans-Bold-73" d="M 3272 3391 
L 3272 2541 
Q 2913 2691 2578 2766 
Q 2244 2841 1947 2841 
Q 1628 2841 1473 2761 
Q 1319 2681 1319 2516 
Q 1319 2381 1436 2309 
Q 1553 2238 1856 2203 
L 2053 2175 
Q 2913 2066 3209 1816 
Q 3506 1566 3506 1031 
Q 3506 472 3093 190 
Q 2681 -91 1863 -91 
Q 1516 -91 1145 -36 
Q 775 19 384 128 
L 384 978 
Q 719 816 1070 734 
Q 1422 653 1784 653 
Q 2113 653 2278 743 
Q 2444 834 2444 1013 
Q 2444 1163 2330 1236 
Q 2216 1309 1875 1350 
L 1678 1375 
Q 931 1469 631 1722 
Q 331 1975 331 2491 
Q 331 3047 712 3315 
Q 1094 3584 1881 3584 
Q 2191 3584 2531 3537 
Q 2872 3491 3272 3391 
z
" transform="scale(0.015625)"/>
       <path id="DejaVuSans-Bold-b5" d="M 544 -1338 
L 544 3500 
L 1672 3500 
L 1672 1466 
Q 1672 1103 1828 926 
Q 1984 750 2303 750 
Q 2625 750 2781 926 
Q 2938 1103 2938 1466 
L 2938 3500 
L 4063 3500 
L 4063 1159 
Q 4063 938 4114 850 
Q 4166 763 4288 763 
Q 4344 763 4395 778 
Q 4447 794 4506 831 
L 4506 50 
Q 4341 -22 4195 -56 
Q 4050 -91 3909 -91 
Q 3631 -91 3454 26 
Q 3278 144 3169 403 
Q 3022 156 2811 32 
Q 2600 -91 2322 -91 
Q 2091 -91 1928 -17 
Q 1766 56 1672 206 
L 1672 -1338 
L 544 -1338 
z
" transform="scale(0.015625)"/>
       <path id="DejaVuSans-Bold-4d" d="M 588 4666 
L 2119 4666 
L 3181 2169 
L 4250 4666 
L 5778 4666 
L 5778 0 
L 4641 0 
L 4641 3413 
L 3566 897 
L 2803 897 
L 1728 3413 
L 1728 0 
L 588 0 
L 588 4666 
z
" transform="scale(0.015625)"/>
      </defs>
      <use xlink:href="#DejaVuSans-Bold-72"/>
      <use xlink:href="#DejaVuSans-Bold-69" x="49.316406"/>
      <use xlink:href="#DejaVuSans-Bold-76" x="83.59375"/>
      <use xlink:href="#DejaVuSans-Bold-61" x="148.779297"/>
      <use xlink:href="#DejaVuSans-Bold-72" x="216.259766"/>
      <use xlink:href="#DejaVuSans-Bold-6f" x="265.576172"/>
      <use xlink:href="#DejaVuSans-Bold-78" x="334.277344"/>
      <use xlink:href="#DejaVuSans-Bold-61" x="398.779297"/>
      <use xlink:href="#DejaVuSans-Bold-62" x="466.259766"/>
      <use xlink:href="#DejaVuSans-Bold-61" x="537.841797"/>
      <use xlink:href="#DejaVuSans-Bold-6e" x="605.322266"/>
      <use xlink:href="#DejaVuSans-Bold-20" x="676.513672"/>
      <use xlink:href="#DejaVuSans-Bold-70" x="711.328125"/>
      <use xlink:href="#DejaVuSans-Bold-6c" x="782.910156"/>
      <use xlink:href="#DejaVuSans-Bold-61" x="817.1875"/>
      <use xlink:href="#DejaVuSans-Bold-73" x="884.667969"/>
      <use xlink:href="#DejaVuSans-Bold-6d" x="944.189453"/>
      <use xlink:href="#DejaVuSans-Bold-61" x="1048.388672"/>
      <use xlink:href="#DejaVuSans-Bold-20" x="1115.869141"/>
      <use xlink:href="#DejaVuSans-Bold-5b" x="1150.683594"/>
      <use xlink:href="#DejaVuSans-Bold-b5" x="1196.386719"/>
      <use xlink:href="#DejaVuSans-Bold-4d" x="1269.970703"/>
      <use xlink:href="#DejaVuSans-Bold-5d" x="1369.482422"/>
     </g>
    </g>
   </g>
   <g id="LineCollection_1">
    <path d="M 83.200286 302.845983 
L 83.200286 258.084867 
" clip-path="url(#p1def65b3ac)" style="fill: none; stroke: #000000"/>
    <path d="M 85.268186 287.999042 
L 85.268186 175.238376 
" clip-path="url(#p1def65b3ac)" style="fill: none; stroke: #000000"/>
    <path d="M 88.111547 241.069788 
L 88.111547 100.033044 
" clip-path="url(#p1def65b3ac)" style="fill: none; stroke: #000000"/>
    <path d="M 91.988859 241.039985 
L 91.988859 120.022935 
" clip-path="url(#p1def65b3ac)" style="fill: none; stroke: #000000"/>
    <path d="M 95.86617 223.93451 
L 95.86617 151.115153 
" clip-path="url(#p1def65b3ac)" style="fill: none; stroke: #000000"/>
    <path d="M 102.069868 261.194598 
L 102.069868 220.731975 
" clip-path="url(#p1def65b3ac)" style="fill: none; stroke: #000000"/>
    <path d="M 109.307515 271.357138 
L 109.307515 239.710922 
" clip-path="url(#p1def65b3ac)" style="fill: none; stroke: #000000"/>
    <path d="M 123.265836 291.349971 
L 123.265836 272.37027 
" clip-path="url(#p1def65b3ac)" style="fill: none; stroke: #000000"/>
    <path d="M 133.605333 297.355402 
L 133.605333 288.850587 
" clip-path="url(#p1def65b3ac)" style="fill: none; stroke: #000000"/>
    <path d="M 163.84836 303.421793 
L 163.84836 298.884984 
" clip-path="url(#p1def65b3ac)" style="fill: none; stroke: #000000"/>
    <path d="M 206.240296 306.836152 
L 206.240296 305.357599 
" clip-path="url(#p1def65b3ac)" style="fill: none; stroke: #000000"/>
    <path d="M 247.85677 307.528433 
L 247.85677 306.668775 
" clip-path="url(#p1def65b3ac)" style="fill: none; stroke: #000000"/>
   </g>
   <g id="LineCollection_2">
    <path d="M 82.683312 277.169873 
L 82.683312 202.495206 
" clip-path="url(#p1def65b3ac)" style="fill: none; stroke: #74a9cf"/>
    <path d="M 85.268186 277.163034 
L 85.268186 119.920153 
" clip-path="url(#p1def65b3ac)" style="fill: none; stroke: #74a9cf"/>
    <path d="M 88.628522 242.322116 
L 88.628522 137.437617 
" clip-path="url(#p1def65b3ac)" style="fill: none; stroke: #74a9cf"/>
    <path d="M 91.988859 239.763135 
L 91.988859 169.248439 
" clip-path="url(#p1def65b3ac)" style="fill: none; stroke: #74a9cf"/>
    <path d="M 95.607682 241.016558 
L 95.607682 159.928052 
" clip-path="url(#p1def65b3ac)" style="fill: none; stroke: #74a9cf"/>
    <path d="M 102.069868 272.740118 
L 102.069868 223.57243 
" clip-path="url(#p1def65b3ac)" style="fill: none; stroke: #74a9cf"/>
    <path d="M 109.307515 279.85898 
L 109.307515 236.994033 
" clip-path="url(#p1def65b3ac)" style="fill: none; stroke: #74a9cf"/>
    <path d="M 123.265836 289.713213 
L 123.265836 266.638454 
" clip-path="url(#p1def65b3ac)" style="fill: none; stroke: #74a9cf"/>
    <path d="M 133.605333 294.433421 
L 133.605333 274.816947 
" clip-path="url(#p1def65b3ac)" style="fill: none; stroke: #74a9cf"/>
    <path d="M 163.84836 300.351812 
L 163.84836 287.906237 
" clip-path="url(#p1def65b3ac)" style="fill: none; stroke: #74a9cf"/>
    <path d="M 205.723322 306.391175 
L 205.723322 302.956733 
" clip-path="url(#p1def65b3ac)" style="fill: none; stroke: #74a9cf"/>
    <path d="M 247.85677 307.337996 
L 247.85677 305.207856 
" clip-path="url(#p1def65b3ac)" style="fill: none; stroke: #74a9cf"/>
   </g>
   <g id="LineCollection_3">
    <path d="M 82.683312 277.169873 
L 82.683312 167.725405 
" clip-path="url(#p1def65b3ac)" style="fill: none; stroke: #2b8cbe"/>
    <path d="M 85.009698 245.973373 
L 85.009698 124.772473 
" clip-path="url(#p1def65b3ac)" style="fill: none; stroke: #2b8cbe"/>
    <path d="M 88.370035 189.879866 
L 88.370035 106.209379 
" clip-path="url(#p1def65b3ac)" style="fill: none; stroke: #2b8cbe"/>
    <path d="M 91.988859 200.513376 
L 91.988859 56.906055 
" clip-path="url(#p1def65b3ac)" style="fill: none; stroke: #2b8cbe"/>
    <path d="M 95.349195 180.47868 
L 95.349195 55.8 
" clip-path="url(#p1def65b3ac)" style="fill: none; stroke: #2b8cbe"/>
    <path d="M 102.069868 228.515084 
L 102.069868 141.738268 
" clip-path="url(#p1def65b3ac)" style="fill: none; stroke: #2b8cbe"/>
    <path d="M 109.307515 229.945936 
L 109.307515 182.554394 
" clip-path="url(#p1def65b3ac)" style="fill: none; stroke: #2b8cbe"/>
    <path d="M 123.265836 257.401884 
L 123.265836 210.872352 
" clip-path="url(#p1def65b3ac)" style="fill: none; stroke: #2b8cbe"/>
    <path d="M 133.605333 278.139907 
L 133.605333 230.629454 
" clip-path="url(#p1def65b3ac)" style="fill: none; stroke: #2b8cbe"/>
    <path d="M 164.106848 288.193856 
L 164.106848 251.221308 
" clip-path="url(#p1def65b3ac)" style="fill: none; stroke: #2b8cbe"/>
    <path d="M 206.240296 300.457013 
L 206.240296 294.081189 
" clip-path="url(#p1def65b3ac)" style="fill: none; stroke: #2b8cbe"/>
    <path d="M 247.85677 305.43724 
L 247.85677 295.684676 
" clip-path="url(#p1def65b3ac)" style="fill: none; stroke: #2b8cbe"/>
   </g>
   <g id="line2d_16">
    <path d="M 77.249545 307.8 
L 77.604636 306.322958 
L 77.959727 302.104539 
L 79.025 282.838738 
L 80.090273 263.903612 
L 80.800455 253.854601 
L 81.510636 246.088495 
L 82.220818 240.393989 
L 82.931 236.451887 
L 83.641182 233.933241 
L 84.351364 232.540769 
L 84.706455 232.186266 
L 85.061545 232.022488 
L 85.416636 232.025118 
L 85.771727 232.172435 
L 86.481909 232.826009 
L 87.192091 233.853588 
L 88.257364 235.881595 
L 89.677727 239.130229 
L 93.938818 249.835768 
L 96.779545 256.560974 
L 99.265182 261.904914 
L 101.750818 266.727694 
L 104.236455 271.058042 
L 106.722091 274.937534 
L 109.207727 278.409666 
L 111.693364 281.515846 
L 114.179 284.294101 
L 117.019727 287.111679 
L 119.860455 289.591589 
L 122.701182 291.774254 
L 125.541909 293.695288 
L 128.737727 295.582613 
L 131.933545 297.2174 
L 135.484455 298.778585 
L 139.390455 300.231233 
L 143.296455 301.449972 
L 147.557545 302.556825 
L 152.528818 303.606762 
L 157.855182 304.499552 
L 163.891727 305.283872 
L 170.993545 305.97149 
L 179.160636 306.533321 
L 189.103182 306.989829 
L 201.886455 307.343928 
L 219.641 307.594674 
L 247.693182 307.741812 
L 311.609545 307.796711 
L 432.340455 307.799986 
L 432.340455 307.799986 
" clip-path="url(#p1def65b3ac)" style="fill: none; stroke: #000000; stroke-width: 2; stroke-linecap: square"/>
   </g>
   <g id="line2d_17">
    <path d="M 83.200286 280.465425 
L 85.268186 231.618709 
L 88.111547 170.551416 
L 91.988859 180.53146 
L 95.86617 187.524832 
L 102.069868 240.963286 
L 109.307515 255.53403 
L 123.265836 281.860121 
L 133.605333 293.102995 
L 163.84836 301.153389 
L 206.240296 306.096875 
L 247.85677 307.098604 
" clip-path="url(#p1def65b3ac)" style="fill: none; stroke-dasharray: 3.7,1.6; stroke-dashoffset: 0; stroke: #000000"/>
    <defs>
     <path id="me7056a4424" d="M -3 3 
L 3 3 
L 3 -3 
L -3 -3 
z
" style="stroke: #000000; stroke-linejoin: miter"/>
    </defs>
    <g clip-path="url(#p1def65b3ac)">
     <use xlink:href="#me7056a4424" x="83.200286" y="280.465425" style="stroke: #000000; stroke-linejoin: miter"/>
     <use xlink:href="#me7056a4424" x="85.268186" y="231.618709" style="stroke: #000000; stroke-linejoin: miter"/>
     <use xlink:href="#me7056a4424" x="88.111547" y="170.551416" style="stroke: #000000; stroke-linejoin: miter"/>
     <use xlink:href="#me7056a4424" x="91.988859" y="180.53146" style="stroke: #000000; stroke-linejoin: miter"/>
     <use xlink:href="#me7056a4424" x="95.86617" y="187.524832" style="stroke: #000000; stroke-linejoin: miter"/>
     <use xlink:href="#me7056a4424" x="102.069868" y="240.963286" style="stroke: #000000; stroke-linejoin: miter"/>
     <use xlink:href="#me7056a4424" x="109.307515" y="255.53403" style="stroke: #000000; stroke-linejoin: miter"/>
     <use xlink:href="#me7056a4424" x="123.265836" y="281.860121" style="stroke: #000000; stroke-linejoin: miter"/>
     <use xlink:href="#me7056a4424" x="133.605333" y="293.102995" style="stroke: #000000; stroke-linejoin: miter"/>
     <use xlink:href="#me7056a4424" x="163.84836" y="301.153389" style="stroke: #000000; stroke-linejoin: miter"/>
     <use xlink:href="#me7056a4424" x="206.240296" y="306.096875" style="stroke: #000000; stroke-linejoin: miter"/>
     <use xlink:href="#me7056a4424" x="247.85677" y="307.098604" style="stroke: #000000; stroke-linejoin: miter"/>
    </g>
   </g>
   <g id="line2d_18">
    <path d="M 77.249545 307.8 
L 77.604636 306.058625 
L 77.959727 301.414834 
L 78.669909 287.699924 
L 80.445364 251.693841 
L 81.510636 235.946694 
L 82.220818 228.234304 
L 82.931 222.473565 
L 83.641182 218.370878 
L 84.351364 215.641779 
L 85.061545 214.031449 
L 85.416636 213.575985 
L 85.771727 213.32093 
L 86.126818 213.244424 
L 86.481909 213.32661 
L 87.192091 213.896826 
L 87.902273 214.907543 
L 88.967545 217.034525 
L 90.387909 220.624334 
L 92.518455 226.820638 
L 97.844818 242.635065 
L 100.330455 249.317031 
L 102.816091 255.401449 
L 105.301727 260.894211 
L 107.787364 265.830734 
L 110.273 270.256971 
L 112.758636 274.220779 
L 115.244273 277.768159 
L 117.729909 280.941769 
L 120.215545 283.780473 
L 122.701182 286.319368 
L 125.541909 288.894169 
L 128.382636 291.160396 
L 131.223364 293.154996 
L 134.419182 295.114608 
L 137.615 296.812015 
L 141.165909 298.433003 
L 144.716818 299.814857 
L 148.622818 301.100642 
L 152.883909 302.268385 
L 157.500091 303.304905 
L 162.826455 304.261964 
L 168.863 305.102744 
L 175.609727 305.808325 
L 183.421727 306.398092 
L 193.009182 306.88891 
L 205.082273 307.270481 
L 221.416455 307.545891 
L 246.272818 307.716863 
L 295.985545 307.791101 
L 432.340455 307.799981 
L 432.340455 307.799981 
" clip-path="url(#p1def65b3ac)" style="fill: none; stroke: #74a9cf; stroke-width: 2; stroke-linecap: square"/>
   </g>
   <g id="line2d_19">
    <path d="M 82.683312 239.832539 
L 85.268186 198.541593 
L 88.628522 189.879866 
L 91.988859 204.505787 
L 95.607682 200.472305 
L 102.069868 248.156274 
L 109.307515 258.426507 
L 123.265836 278.175834 
L 133.605333 284.625184 
L 163.84836 294.129025 
L 205.723322 304.673954 
L 247.85677 306.272926 
" clip-path="url(#p1def65b3ac)" style="fill: none; stroke-dasharray: 3.7,1.6; stroke-dashoffset: 0; stroke: #74a9cf"/>
    <defs>
     <path id="m85c453d777" d="M -3 3 
L 3 3 
L 3 -3 
L -3 -3 
z
" style="stroke: #000000; stroke-linejoin: miter"/>
    </defs>
    <g clip-path="url(#p1def65b3ac)">
     <use xlink:href="#m85c453d777" x="82.683312" y="239.832539" style="fill: #74a9cf; stroke: #000000; stroke-linejoin: miter"/>
     <use xlink:href="#m85c453d777" x="85.268186" y="198.541593" style="fill: #74a9cf; stroke: #000000; stroke-linejoin: miter"/>
     <use xlink:href="#m85c453d777" x="88.628522" y="189.879866" style="fill: #74a9cf; stroke: #000000; stroke-linejoin: miter"/>
     <use xlink:href="#m85c453d777" x="91.988859" y="204.505787" style="fill: #74a9cf; stroke: #000000; stroke-linejoin: miter"/>
     <use xlink:href="#m85c453d777" x="95.607682" y="200.472305" style="fill: #74a9cf; stroke: #000000; stroke-linejoin: miter"/>
     <use xlink:href="#m85c453d777" x="102.069868" y="248.156274" style="fill: #74a9cf; stroke: #000000; stroke-linejoin: miter"/>
     <use xlink:href="#m85c453d777" x="109.307515" y="258.426507" style="fill: #74a9cf; stroke: #000000; stroke-linejoin: miter"/>
     <use xlink:href="#m85c453d777" x="123.265836" y="278.175834" style="fill: #74a9cf; stroke: #000000; stroke-linejoin: miter"/>
     <use xlink:href="#m85c453d777" x="133.605333" y="284.625184" style="fill: #74a9cf; stroke: #000000; stroke-linejoin: miter"/>
     <use xlink:href="#m85c453d777" x="163.84836" y="294.129025" style="fill: #74a9cf; stroke: #000000; stroke-linejoin: miter"/>
     <use xlink:href="#m85c453d777" x="205.723322" y="304.673954" style="fill: #74a9cf; stroke: #000000; stroke-linejoin: miter"/>
     <use xlink:href="#m85c453d777" x="247.85677" y="306.272926" style="fill: #74a9cf; stroke: #000000; stroke-linejoin: miter"/>
    </g>
   </g>
   <g id="line2d_20">
    <path d="M 77.249545 307.8 
L 77.604636 305.53277 
L 77.959727 299.70282 
L 78.669909 282.365271 
L 80.445364 234.684252 
L 81.510636 212.18725 
L 82.575909 195.512356 
L 83.286091 187.296618 
L 83.996273 181.069688 
L 84.706455 176.545645 
L 85.416636 173.460868 
L 86.126818 171.581248 
L 86.481909 171.028624 
L 86.837 170.703302 
L 87.192091 170.584345 
L 87.547182 170.652447 
L 87.902273 170.889825 
L 88.612455 171.808315 
L 89.322636 173.224311 
L 90.387909 176.072735 
L 91.808273 180.828473 
L 93.583727 187.689855 
L 102.461 223.346497 
L 104.946636 231.986012 
L 107.432273 239.841161 
L 109.917909 246.937182 
L 112.403545 253.322447 
L 114.889182 259.054477 
L 117.374818 264.19259 
L 119.860455 268.794191 
L 122.346091 272.913021 
L 124.831727 276.598474 
L 127.317364 279.895452 
L 129.803 282.844522 
L 132.288636 285.482183 
L 135.129364 288.157211 
L 137.970091 290.511703 
L 140.810818 292.584021 
L 144.006636 294.620009 
L 147.202455 296.383584 
L 150.753364 298.067769 
L 154.304273 299.503501 
L 158.210273 300.83942 
L 162.471364 302.052695 
L 167.087545 303.129631 
L 172.058818 304.064865 
L 177.740273 304.90667 
L 184.131909 305.629169 
L 191.588818 306.247403 
L 200.466091 306.758248 
L 211.829 307.174903 
L 226.742818 307.480248 
L 248.403364 307.679226 
L 287.463364 307.779132 
L 429.144636 307.799964 
L 432.340455 307.799969 
L 432.340455 307.799969 
" clip-path="url(#p1def65b3ac)" style="fill: none; stroke: #2b8cbe; stroke-width: 2; stroke-linecap: square"/>
   </g>
   <g id="line2d_21">
    <path d="M 82.683312 222.447639 
L 85.009698 185.372923 
L 88.370035 148.044623 
L 91.988859 128.709716 
L 95.349195 118.13934 
L 102.069868 185.126676 
L 109.307515 206.250165 
L 123.265836 234.137118 
L 133.605333 254.384681 
L 164.106848 269.707582 
L 206.240296 297.269101 
L 247.85677 300.560958 
" clip-path="url(#p1def65b3ac)" style="fill: none; stroke-dasharray: 3.7,1.6; stroke-dashoffset: 0; stroke: #2b8cbe"/>
    <defs>
     <path id="md086c8c580" d="M -3 3 
L 3 3 
L 3 -3 
L -3 -3 
z
" style="stroke: #000000; stroke-linejoin: miter"/>
    </defs>
    <g clip-path="url(#p1def65b3ac)">
     <use xlink:href="#md086c8c580" x="82.683312" y="222.447639" style="fill: #2b8cbe; stroke: #000000; stroke-linejoin: miter"/>
     <use xlink:href="#md086c8c580" x="85.009698" y="185.372923" style="fill: #2b8cbe; stroke: #000000; stroke-linejoin: miter"/>
     <use xlink:href="#md086c8c580" x="88.370035" y="148.044623" style="fill: #2b8cbe; stroke: #000000; stroke-linejoin: miter"/>
     <use xlink:href="#md086c8c580" x="91.988859" y="128.709716" style="fill: #2b8cbe; stroke: #000000; stroke-linejoin: miter"/>
     <use xlink:href="#md086c8c580" x="95.349195" y="118.13934" style="fill: #2b8cbe; stroke: #000000; stroke-linejoin: miter"/>
     <use xlink:href="#md086c8c580" x="102.069868" y="185.126676" style="fill: #2b8cbe; stroke: #000000; stroke-linejoin: miter"/>
     <use xlink:href="#md086c8c580" x="109.307515" y="206.250165" style="fill: #2b8cbe; stroke: #000000; stroke-linejoin: miter"/>
     <use xlink:href="#md086c8c580" x="123.265836" y="234.137118" style="fill: #2b8cbe; stroke: #000000; stroke-linejoin: miter"/>
     <use xlink:href="#md086c8c580" x="133.605333" y="254.384681" style="fill: #2b8cbe; stroke: #000000; stroke-linejoin: miter"/>
     <use xlink:href="#md086c8c580" x="164.106848" y="269.707582" style="fill: #2b8cbe; stroke: #000000; stroke-linejoin: miter"/>
     <use xlink:href="#md086c8c580" x="206.240296" y="297.269101" style="fill: #2b8cbe; stroke: #000000; stroke-linejoin: miter"/>
     <use xlink:href="#md086c8c580" x="247.85677" y="300.560958" style="fill: #2b8cbe; stroke: #000000; stroke-linejoin: miter"/>
    </g>
   </g>
   <g id="patch_3">
    <path d="M 59.495 320.4 
L 59.495 43.2 
" style="fill: none; stroke: #000000; stroke-width: 0.8; stroke-linejoin: miter; stroke-linecap: square"/>
   </g>
   <g id="patch_4">
    <path d="M 450.095 320.4 
L 450.095 43.2 
" style="fill: none; stroke: #000000; stroke-width: 0.8; stroke-linejoin: miter; stroke-linecap: square"/>
   </g>
   <g id="patch_5">
    <path d="M 59.495 320.4 
L 450.095 320.4 
" style="fill: none; stroke: #000000; stroke-width: 0.8; stroke-linejoin: miter; stroke-linecap: square"/>
   </g>
   <g id="patch_6">
    <path d="M 59.495 43.2 
L 450.095 43.2 
" style="fill: none; stroke: #000000; stroke-width: 0.8; stroke-linejoin: miter; stroke-linecap: square"/>
   </g>
   <g id="legend_1">
    <g id="patch_7">
     <path d="M 297.462188 139.26875 
L 443.095 139.26875 
Q 445.095 139.26875 445.095 137.26875 
L 445.095 50.2 
Q 445.095 48.2 443.095 48.2 
L 297.462188 48.2 
Q 295.462188 48.2 295.462188 50.2 
L 295.462188 137.26875 
Q 295.462188 139.26875 297.462188 139.26875 
z
" style="fill: #ffffff; opacity: 0.8; stroke: #cccccc; stroke-linejoin: miter"/>
    </g>
    <g id="line2d_22">
     <path d="M 299.462188 56.298437 
L 319.462188 56.298437 
" style="fill: none; stroke: #000000; stroke-width: 2; stroke-linecap: square"/>
    </g>
    <g id="line2d_23"/>
    <g id="text_18">
     <!-- healthy -->
     <g transform="translate(327.462188 59.798437) scale(0.1 -0.1)">
      <defs>
       <path id="DejaVuSans-68" d="M 3513 2113 
L 3513 0 
L 2938 0 
L 2938 2094 
Q 2938 2591 2744 2837 
Q 2550 3084 2163 3084 
Q 1697 3084 1428 2787 
Q 1159 2491 1159 1978 
L 1159 0 
L 581 0 
L 581 4863 
L 1159 4863 
L 1159 2956 
Q 1366 3272 1645 3428 
Q 1925 3584 2291 3584 
Q 2894 3584 3203 3211 
Q 3513 2838 3513 2113 
z
" transform="scale(0.015625)"/>
       <path id="DejaVuSans-65" d="M 3597 1894 
L 3597 1613 
L 953 1613 
Q 991 1019 1311 708 
Q 1631 397 2203 397 
Q 2534 397 2845 478 
Q 3156 559 3463 722 
L 3463 178 
Q 3153 47 2828 -22 
Q 2503 -91 2169 -91 
Q 1331 -91 842 396 
Q 353 884 353 1716 
Q 353 2575 817 3079 
Q 1281 3584 2069 3584 
Q 2775 3584 3186 3129 
Q 3597 2675 3597 1894 
z
M 3022 2063 
Q 3016 2534 2758 2815 
Q 2500 3097 2075 3097 
Q 1594 3097 1305 2825 
Q 1016 2553 972 2059 
L 3022 2063 
z
" transform="scale(0.015625)"/>
       <path id="DejaVuSans-61" d="M 2194 1759 
Q 1497 1759 1228 1600 
Q 959 1441 959 1056 
Q 959 750 1161 570 
Q 1363 391 1709 391 
Q 2188 391 2477 730 
Q 2766 1069 2766 1631 
L 2766 1759 
L 2194 1759 
z
M 3341 1997 
L 3341 0 
L 2766 0 
L 2766 531 
Q 2569 213 2275 61 
Q 1981 -91 1556 -91 
Q 1019 -91 701 211 
Q 384 513 384 1019 
Q 384 1609 779 1909 
Q 1175 2209 1959 2209 
L 2766 2209 
L 2766 2266 
Q 2766 2663 2505 2880 
Q 2244 3097 1772 3097 
Q 1472 3097 1187 3025 
Q 903 2953 641 2809 
L 641 3341 
Q 956 3463 1253 3523 
Q 1550 3584 1831 3584 
Q 2591 3584 2966 3190 
Q 3341 2797 3341 1997 
z
" transform="scale(0.015625)"/>
       <path id="DejaVuSans-6c" d="M 603 4863 
L 1178 4863 
L 1178 0 
L 603 0 
L 603 4863 
z
" transform="scale(0.015625)"/>
       <path id="DejaVuSans-74" d="M 1172 4494 
L 1172 3500 
L 2356 3500 
L 2356 3053 
L 1172 3053 
L 1172 1153 
Q 1172 725 1289 603 
Q 1406 481 1766 481 
L 2356 481 
L 2356 0 
L 1766 0 
Q 1100 0 847 248 
Q 594 497 594 1153 
L 594 3053 
L 172 3053 
L 172 3500 
L 594 3500 
L 594 4494 
L 1172 4494 
z
" transform="scale(0.015625)"/>
       <path id="DejaVuSans-79" d="M 2059 -325 
Q 1816 -950 1584 -1140 
Q 1353 -1331 966 -1331 
L 506 -1331 
L 506 -850 
L 844 -850 
Q 1081 -850 1212 -737 
Q 1344 -625 1503 -206 
L 1606 56 
L 191 3500 
L 800 3500 
L 1894 763 
L 2988 3500 
L 3597 3500 
L 2059 -325 
z
" transform="scale(0.015625)"/>
      </defs>
      <use xlink:href="#DejaVuSans-68"/>
      <use xlink:href="#DejaVuSans-65" x="63.378906"/>
      <use xlink:href="#DejaVuSans-61" x="124.902344"/>
      <use xlink:href="#DejaVuSans-6c" x="186.181641"/>
      <use xlink:href="#DejaVuSans-74" x="213.964844"/>
      <use xlink:href="#DejaVuSans-68" x="253.173828"/>
      <use xlink:href="#DejaVuSans-79" x="316.552734"/>
     </g>
    </g>
    <g id="LineCollection_4">
     <path d="M 309.462188 75.976562 
L 309.462188 65.976562 
" style="fill: none; stroke: #000000"/>
    </g>
    <g id="line2d_24">
     <path d="M 299.462188 70.976562 
L 319.462188 70.976562 
" style="fill: none; stroke-dasharray: 3.7,1.6; stroke-dashoffset: 0; stroke: #000000"/>
    </g>
    <g id="line2d_25">
     <g>
      <use xlink:href="#me7056a4424" x="309.462188" y="70.976562" style="stroke: #000000; stroke-linejoin: miter"/>
     </g>
    </g>
    <g id="text_19">
     <!-- healthy±SD (n=8) -->
     <g transform="translate(327.462188 74.476562) scale(0.1 -0.1)">
      <defs>
       <path id="DejaVuSans-b1" d="M 2944 4013 
L 2944 2803 
L 4684 2803 
L 4684 2272 
L 2944 2272 
L 2944 1063 
L 2419 1063 
L 2419 2272 
L 678 2272 
L 678 2803 
L 2419 2803 
L 2419 4013 
L 2944 4013 
z
M 678 531 
L 4684 531 
L 4684 0 
L 678 0 
L 678 531 
z
" transform="scale(0.015625)"/>
       <path id="DejaVuSans-53" d="M 3425 4513 
L 3425 3897 
Q 3066 4069 2747 4153 
Q 2428 4238 2131 4238 
Q 1616 4238 1336 4038 
Q 1056 3838 1056 3469 
Q 1056 3159 1242 3001 
Q 1428 2844 1947 2747 
L 2328 2669 
Q 3034 2534 3370 2195 
Q 3706 1856 3706 1288 
Q 3706 609 3251 259 
Q 2797 -91 1919 -91 
Q 1588 -91 1214 -16 
Q 841 59 441 206 
L 441 856 
Q 825 641 1194 531 
Q 1563 422 1919 422 
Q 2459 422 2753 634 
Q 3047 847 3047 1241 
Q 3047 1584 2836 1778 
Q 2625 1972 2144 2069 
L 1759 2144 
Q 1053 2284 737 2584 
Q 422 2884 422 3419 
Q 422 4038 858 4394 
Q 1294 4750 2059 4750 
Q 2388 4750 2728 4690 
Q 3069 4631 3425 4513 
z
" transform="scale(0.015625)"/>
       <path id="DejaVuSans-44" d="M 1259 4147 
L 1259 519 
L 2022 519 
Q 2988 519 3436 956 
Q 3884 1394 3884 2338 
Q 3884 3275 3436 3711 
Q 2988 4147 2022 4147 
L 1259 4147 
z
M 628 4666 
L 1925 4666 
Q 3281 4666 3915 4102 
Q 4550 3538 4550 2338 
Q 4550 1131 3912 565 
Q 3275 0 1925 0 
L 628 0 
L 628 4666 
z
" transform="scale(0.015625)"/>
       <path id="DejaVuSans-20" transform="scale(0.015625)"/>
       <path id="DejaVuSans-28" d="M 1984 4856 
Q 1566 4138 1362 3434 
Q 1159 2731 1159 2009 
Q 1159 1288 1364 580 
Q 1569 -128 1984 -844 
L 1484 -844 
Q 1016 -109 783 600 
Q 550 1309 550 2009 
Q 550 2706 781 3412 
Q 1013 4119 1484 4856 
L 1984 4856 
z
" transform="scale(0.015625)"/>
       <path id="DejaVuSans-6e" d="M 3513 2113 
L 3513 0 
L 2938 0 
L 2938 2094 
Q 2938 2591 2744 2837 
Q 2550 3084 2163 3084 
Q 1697 3084 1428 2787 
Q 1159 2491 1159 1978 
L 1159 0 
L 581 0 
L 581 3500 
L 1159 3500 
L 1159 2956 
Q 1366 3272 1645 3428 
Q 1925 3584 2291 3584 
Q 2894 3584 3203 3211 
Q 3513 2838 3513 2113 
z
" transform="scale(0.015625)"/>
       <path id="DejaVuSans-3d" d="M 678 2906 
L 4684 2906 
L 4684 2381 
L 678 2381 
L 678 2906 
z
M 678 1631 
L 4684 1631 
L 4684 1100 
L 678 1100 
L 678 1631 
z
" transform="scale(0.015625)"/>
       <path id="DejaVuSans-29" d="M 513 4856 
L 1013 4856 
Q 1481 4119 1714 3412 
Q 1947 2706 1947 2009 
Q 1947 1309 1714 600 
Q 1481 -109 1013 -844 
L 513 -844 
Q 928 -128 1133 580 
Q 1338 1288 1338 2009 
Q 1338 2731 1133 3434 
Q 928 4138 513 4856 
z
" transform="scale(0.015625)"/>
      </defs>
      <use xlink:href="#DejaVuSans-68"/>
      <use xlink:href="#DejaVuSans-65" x="63.378906"/>
      <use xlink:href="#DejaVuSans-61" x="124.902344"/>
      <use xlink:href="#DejaVuSans-6c" x="186.181641"/>
      <use xlink:href="#DejaVuSans-74" x="213.964844"/>
      <use xlink:href="#DejaVuSans-68" x="253.173828"/>
      <use xlink:href="#DejaVuSans-79" x="316.552734"/>
      <use xlink:href="#DejaVuSans-b1" x="375.732422"/>
      <use xlink:href="#DejaVuSans-53" x="459.521484"/>
      <use xlink:href="#DejaVuSans-44" x="522.998047"/>
      <use xlink:href="#DejaVuSans-20" x="600"/>
      <use xlink:href="#DejaVuSans-28" x="631.787109"/>
      <use xlink:href="#DejaVuSans-6e" x="670.800781"/>
      <use xlink:href="#DejaVuSans-3d" x="734.179688"/>
      <use xlink:href="#DejaVuSans-38" x="817.96875"/>
      <use xlink:href="#DejaVuSans-29" x="881.591797"/>
     </g>
    </g>
    <g id="line2d_26">
     <path d="M 299.462188 85.654687 
L 319.462188 85.654687 
" style="fill: none; stroke: #74a9cf; stroke-width: 2; stroke-linecap: square"/>
    </g>
    <g id="line2d_27"/>
    <g id="text_20">
     <!-- mildHI -->
     <g transform="translate(327.462188 89.154687) scale(0.1 -0.1)">
      <defs>
       <path id="DejaVuSans-6d" d="M 3328 2828 
Q 3544 3216 3844 3400 
Q 4144 3584 4550 3584 
Q 5097 3584 5394 3201 
Q 5691 2819 5691 2113 
L 5691 0 
L 5113 0 
L 5113 2094 
Q 5113 2597 4934 2840 
Q 4756 3084 4391 3084 
Q 3944 3084 3684 2787 
Q 3425 2491 3425 1978 
L 3425 0 
L 2847 0 
L 2847 2094 
Q 2847 2600 2669 2842 
Q 2491 3084 2119 3084 
Q 1678 3084 1418 2786 
Q 1159 2488 1159 1978 
L 1159 0 
L 581 0 
L 581 3500 
L 1159 3500 
L 1159 2956 
Q 1356 3278 1631 3431 
Q 1906 3584 2284 3584 
Q 2666 3584 2933 3390 
Q 3200 3197 3328 2828 
z
" transform="scale(0.015625)"/>
       <path id="DejaVuSans-69" d="M 603 3500 
L 1178 3500 
L 1178 0 
L 603 0 
L 603 3500 
z
M 603 4863 
L 1178 4863 
L 1178 4134 
L 603 4134 
L 603 4863 
z
" transform="scale(0.015625)"/>
       <path id="DejaVuSans-64" d="M 2906 2969 
L 2906 4863 
L 3481 4863 
L 3481 0 
L 2906 0 
L 2906 525 
Q 2725 213 2448 61 
Q 2172 -91 1784 -91 
Q 1150 -91 751 415 
Q 353 922 353 1747 
Q 353 2572 751 3078 
Q 1150 3584 1784 3584 
Q 2172 3584 2448 3432 
Q 2725 3281 2906 2969 
z
M 947 1747 
Q 947 1113 1208 752 
Q 1469 391 1925 391 
Q 2381 391 2643 752 
Q 2906 1113 2906 1747 
Q 2906 2381 2643 2742 
Q 2381 3103 1925 3103 
Q 1469 3103 1208 2742 
Q 947 2381 947 1747 
z
" transform="scale(0.015625)"/>
       <path id="DejaVuSans-48" d="M 628 4666 
L 1259 4666 
L 1259 2753 
L 3553 2753 
L 3553 4666 
L 4184 4666 
L 4184 0 
L 3553 0 
L 3553 2222 
L 1259 2222 
L 1259 0 
L 628 0 
L 628 4666 
z
" transform="scale(0.015625)"/>
       <path id="DejaVuSans-49" d="M 628 4666 
L 1259 4666 
L 1259 0 
L 628 0 
L 628 4666 
z
" transform="scale(0.015625)"/>
      </defs>
      <use xlink:href="#DejaVuSans-6d"/>
      <use xlink:href="#DejaVuSans-69" x="97.412109"/>
      <use xlink:href="#DejaVuSans-6c" x="125.195312"/>
      <use xlink:href="#DejaVuSans-64" x="152.978516"/>
      <use xlink:href="#DejaVuSans-48" x="216.455078"/>
      <use xlink:href="#DejaVuSans-49" x="291.650391"/>
     </g>
    </g>
    <g id="LineCollection_5">
     <path d="M 309.462188 105.332812 
L 309.462188 95.332812 
" style="fill: none; stroke: #74a9cf"/>
    </g>
    <g id="line2d_28">
     <path d="M 299.462188 100.332812 
L 319.462188 100.332812 
" style="fill: none; stroke-dasharray: 3.7,1.6; stroke-dashoffset: 0; stroke: #74a9cf"/>
    </g>
    <g id="line2d_29">
     <g>
      <use xlink:href="#m85c453d777" x="309.462188" y="100.332812" style="fill: #74a9cf; stroke: #000000; stroke-linejoin: miter"/>
     </g>
    </g>
    <g id="text_21">
     <!-- mildHI±SD (n=8) -->
     <g transform="translate(327.462188 103.832812) scale(0.1 -0.1)">
      <use xlink:href="#DejaVuSans-6d"/>
      <use xlink:href="#DejaVuSans-69" x="97.412109"/>
      <use xlink:href="#DejaVuSans-6c" x="125.195312"/>
      <use xlink:href="#DejaVuSans-64" x="152.978516"/>
      <use xlink:href="#DejaVuSans-48" x="216.455078"/>
      <use xlink:href="#DejaVuSans-49" x="291.650391"/>
      <use xlink:href="#DejaVuSans-b1" x="321.142578"/>
      <use xlink:href="#DejaVuSans-53" x="404.931641"/>
      <use xlink:href="#DejaVuSans-44" x="468.408203"/>
      <use xlink:href="#DejaVuSans-20" x="545.410156"/>
      <use xlink:href="#DejaVuSans-28" x="577.197266"/>
      <use xlink:href="#DejaVuSans-6e" x="616.210938"/>
      <use xlink:href="#DejaVuSans-3d" x="679.589844"/>
      <use xlink:href="#DejaVuSans-38" x="763.378906"/>
      <use xlink:href="#DejaVuSans-29" x="827.001953"/>
     </g>
    </g>
    <g id="line2d_30">
     <path d="M 299.462188 115.010937 
L 319.462188 115.010937 
" style="fill: none; stroke: #2b8cbe; stroke-width: 2; stroke-linecap: square"/>
    </g>
    <g id="line2d_31"/>
    <g id="text_22">
     <!-- moderateHI -->
     <g transform="translate(327.462188 118.510937) scale(0.1 -0.1)">
      <defs>
       <path id="DejaVuSans-6f" d="M 1959 3097 
Q 1497 3097 1228 2736 
Q 959 2375 959 1747 
Q 959 1119 1226 758 
Q 1494 397 1959 397 
Q 2419 397 2687 759 
Q 2956 1122 2956 1747 
Q 2956 2369 2687 2733 
Q 2419 3097 1959 3097 
z
M 1959 3584 
Q 2709 3584 3137 3096 
Q 3566 2609 3566 1747 
Q 3566 888 3137 398 
Q 2709 -91 1959 -91 
Q 1206 -91 779 398 
Q 353 888 353 1747 
Q 353 2609 779 3096 
Q 1206 3584 1959 3584 
z
" transform="scale(0.015625)"/>
       <path id="DejaVuSans-72" d="M 2631 2963 
Q 2534 3019 2420 3045 
Q 2306 3072 2169 3072 
Q 1681 3072 1420 2755 
Q 1159 2438 1159 1844 
L 1159 0 
L 581 0 
L 581 3500 
L 1159 3500 
L 1159 2956 
Q 1341 3275 1631 3429 
Q 1922 3584 2338 3584 
Q 2397 3584 2469 3576 
Q 2541 3569 2628 3553 
L 2631 2963 
z
" transform="scale(0.015625)"/>
      </defs>
      <use xlink:href="#DejaVuSans-6d"/>
      <use xlink:href="#DejaVuSans-6f" x="97.412109"/>
      <use xlink:href="#DejaVuSans-64" x="158.59375"/>
      <use xlink:href="#DejaVuSans-65" x="222.070312"/>
      <use xlink:href="#DejaVuSans-72" x="283.59375"/>
      <use xlink:href="#DejaVuSans-61" x="324.707031"/>
      <use xlink:href="#DejaVuSans-74" x="385.986328"/>
      <use xlink:href="#DejaVuSans-65" x="425.195312"/>
      <use xlink:href="#DejaVuSans-48" x="486.71875"/>
      <use xlink:href="#DejaVuSans-49" x="561.914062"/>
     </g>
    </g>
    <g id="LineCollection_6">
     <path d="M 309.462188 134.689062 
L 309.462188 124.689062 
" style="fill: none; stroke: #2b8cbe"/>
    </g>
    <g id="line2d_32">
     <path d="M 299.462188 129.689062 
L 319.462188 129.689062 
" style="fill: none; stroke-dasharray: 3.7,1.6; stroke-dashoffset: 0; stroke: #2b8cbe"/>
    </g>
    <g id="line2d_33">
     <g>
      <use xlink:href="#md086c8c580" x="309.462188" y="129.689062" style="fill: #2b8cbe; stroke: #000000; stroke-linejoin: miter"/>
     </g>
    </g>
    <g id="text_23">
     <!-- moderateHI±SD (n=8) -->
     <g transform="translate(327.462188 133.189062) scale(0.1 -0.1)">
      <use xlink:href="#DejaVuSans-6d"/>
      <use xlink:href="#DejaVuSans-6f" x="97.412109"/>
      <use xlink:href="#DejaVuSans-64" x="158.59375"/>
      <use xlink:href="#DejaVuSans-65" x="222.070312"/>
      <use xlink:href="#DejaVuSans-72" x="283.59375"/>
      <use xlink:href="#DejaVuSans-61" x="324.707031"/>
      <use xlink:href="#DejaVuSans-74" x="385.986328"/>
      <use xlink:href="#DejaVuSans-65" x="425.195312"/>
      <use xlink:href="#DejaVuSans-48" x="486.71875"/>
      <use xlink:href="#DejaVuSans-49" x="561.914062"/>
      <use xlink:href="#DejaVuSans-b1" x="591.40625"/>
      <use xlink:href="#DejaVuSans-53" x="675.195312"/>
      <use xlink:href="#DejaVuSans-44" x="738.671875"/>
      <use xlink:href="#DejaVuSans-20" x="815.673828"/>
      <use xlink:href="#DejaVuSans-28" x="847.460938"/>
      <use xlink:href="#DejaVuSans-6e" x="886.474609"/>
      <use xlink:href="#DejaVuSans-3d" x="949.853516"/>
      <use xlink:href="#DejaVuSans-38" x="1033.642578"/>
      <use xlink:href="#DejaVuSans-29" x="1097.265625"/>
     </g>
    </g>
   </g>
  </g>
  <g id="text_24">
   <!-- Kubitza2013 -->
   <g transform="translate(160.422734 26.196094) scale(0.25 -0.25)">
    <defs>
     <path id="DejaVuSans-Bold-4b" d="M 588 4666 
L 1791 4666 
L 1791 2963 
L 3525 4666 
L 4922 4666 
L 2675 2456 
L 5153 0 
L 3647 0 
L 1791 1838 
L 1791 0 
L 588 0 
L 588 4666 
z
" transform="scale(0.015625)"/>
     <path id="DejaVuSans-Bold-75" d="M 500 1363 
L 500 3500 
L 1625 3500 
L 1625 3150 
Q 1625 2866 1622 2436 
Q 1619 2006 1619 1863 
Q 1619 1441 1641 1255 
Q 1663 1069 1716 984 
Q 1784 875 1895 815 
Q 2006 756 2150 756 
Q 2500 756 2700 1025 
Q 2900 1294 2900 1772 
L 2900 3500 
L 4019 3500 
L 4019 0 
L 2900 0 
L 2900 506 
Q 2647 200 2364 54 
Q 2081 -91 1741 -91 
Q 1134 -91 817 281 
Q 500 653 500 1363 
z
" transform="scale(0.015625)"/>
     <path id="DejaVuSans-Bold-7a" d="M 366 3500 
L 3419 3500 
L 3419 2719 
L 1575 800 
L 3419 800 
L 3419 0 
L 288 0 
L 288 781 
L 2131 2700 
L 366 2700 
L 366 3500 
z
" transform="scale(0.015625)"/>
     <path id="DejaVuSans-Bold-32" d="M 1844 884 
L 3897 884 
L 3897 0 
L 506 0 
L 506 884 
L 2209 2388 
Q 2438 2594 2547 2791 
Q 2656 2988 2656 3200 
Q 2656 3528 2436 3728 
Q 2216 3928 1850 3928 
Q 1569 3928 1234 3808 
Q 900 3688 519 3450 
L 519 4475 
Q 925 4609 1322 4679 
Q 1719 4750 2100 4750 
Q 2938 4750 3402 4381 
Q 3866 4013 3866 3353 
Q 3866 2972 3669 2642 
Q 3472 2313 2841 1759 
L 1844 884 
z
" transform="scale(0.015625)"/>
     <path id="DejaVuSans-Bold-30" d="M 2944 2338 
Q 2944 3213 2780 3570 
Q 2616 3928 2228 3928 
Q 1841 3928 1675 3570 
Q 1509 3213 1509 2338 
Q 1509 1453 1675 1090 
Q 1841 728 2228 728 
Q 2613 728 2778 1090 
Q 2944 1453 2944 2338 
z
M 4147 2328 
Q 4147 1169 3647 539 
Q 3147 -91 2228 -91 
Q 1306 -91 806 539 
Q 306 1169 306 2328 
Q 306 3491 806 4120 
Q 1306 4750 2228 4750 
Q 3147 4750 3647 4120 
Q 4147 3491 4147 2328 
z
" transform="scale(0.015625)"/>
     <path id="DejaVuSans-Bold-31" d="M 750 831 
L 1813 831 
L 1813 3847 
L 722 3622 
L 722 4441 
L 1806 4666 
L 2950 4666 
L 2950 831 
L 4013 831 
L 4013 0 
L 750 0 
L 750 831 
z
" transform="scale(0.015625)"/>
     <path id="DejaVuSans-Bold-33" d="M 2981 2516 
Q 3453 2394 3698 2092 
Q 3944 1791 3944 1325 
Q 3944 631 3412 270 
Q 2881 -91 1863 -91 
Q 1503 -91 1142 -33 
Q 781 25 428 141 
L 428 1069 
Q 766 900 1098 814 
Q 1431 728 1753 728 
Q 2231 728 2486 893 
Q 2741 1059 2741 1369 
Q 2741 1688 2480 1852 
Q 2219 2016 1709 2016 
L 1228 2016 
L 1228 2791 
L 1734 2791 
Q 2188 2791 2409 2933 
Q 2631 3075 2631 3366 
Q 2631 3634 2415 3781 
Q 2200 3928 1806 3928 
Q 1516 3928 1219 3862 
Q 922 3797 628 3669 
L 628 4550 
Q 984 4650 1334 4700 
Q 1684 4750 2022 4750 
Q 2931 4750 3382 4451 
Q 3834 4153 3834 3553 
Q 3834 3144 3618 2883 
Q 3403 2622 2981 2516 
z
" transform="scale(0.015625)"/>
    </defs>
    <use xlink:href="#DejaVuSans-Bold-4b"/>
    <use xlink:href="#DejaVuSans-Bold-75" x="75.740234"/>
    <use xlink:href="#DejaVuSans-Bold-62" x="146.931641"/>
    <use xlink:href="#DejaVuSans-Bold-69" x="218.513672"/>
    <use xlink:href="#DejaVuSans-Bold-74" x="252.791016"/>
    <use xlink:href="#DejaVuSans-Bold-7a" x="300.59375"/>
    <use xlink:href="#DejaVuSans-Bold-61" x="358.796875"/>
    <use xlink:href="#DejaVuSans-Bold-32" x="426.277344"/>
    <use xlink:href="#DejaVuSans-Bold-30" x="495.857422"/>
    <use xlink:href="#DejaVuSans-Bold-31" x="565.4375"/>
    <use xlink:href="#DejaVuSans-Bold-33" x="635.017578"/>
   </g>
  </g>
 </g>
 <defs>
  <clipPath id="p1def65b3ac">
   <rect x="59.495" y="43.2" width="390.6" height="277.2"/>
  </clipPath>
 </defs>
</svg>
