<?xml version="1.0" encoding="utf-8" standalone="no"?>
<!DOCTYPE svg PUBLIC "-//W3C//DTD SVG 1.1//EN"
  "http://www.w3.org/Graphics/SVG/1.1/DTD/svg11.dtd">
<svg xmlns:xlink="http://www.w3.org/1999/xlink" width="485.92625pt" height="370.537812pt" viewBox="0 0 485.92625 370.537812" xmlns="http://www.w3.org/2000/svg" version="1.1">
 <metadata>
  <rdf:RDF xmlns:dc="http://purl.org/dc/elements/1.1/" xmlns:cc="http://creativecommons.org/ns#" xmlns:rdf="http://www.w3.org/1999/02/22-rdf-syntax-ns#">
   <cc:Work>
    <dc:type rdf:resource="http://purl.org/dc/dcmitype/StillImage"/>
    <dc:date>2026-01-05T10:59:00.990585</dc:date>
    <dc:format>image/svg+xml</dc:format>
    <dc:creator>
     <cc:Agent>
      <dc:title>Matplotlib v3.10.8, https://matplotlib.org/</dc:title>
     </cc:Agent>
    </dc:creator>
   </cc:Work>
  </rdf:RDF>
 </metadata>
 <defs>
  <style type="text/css">*{stroke-linejoin: round; stroke-linecap: butt}</style>
 </defs>
 <g id="figure_1">
  <g id="patch_1">
   <path d="M 0 370.537812 
L 485.92625 370.537812 
L 485.92625 0 
L 0 0 
z
" style="fill: #ffffff"/>
  </g>
  <g id="axes_1">
   <g id="patch_2">
    <path d="M 88.12625 320.4 
L 478.72625 320.4 
L 478.72625 43.2 
L 88.12625 43.2 
z
" style="fill: #ffffff"/>
   </g>
   <g id="matplotlib.axis_1">
    <g id="xtick_1">
     <g id="line2d_1">
      <defs>
       <path id="m2cdd8c17b7" d="M 0 0 
L 0 3.5 
" style="stroke: #000000; stroke-width: 0.8"/>
      </defs>
      <g>
       <use xlink:href="#m2cdd8c17b7" x="105.880795" y="320.4" style="stroke: #000000; stroke-width: 0.8"/>
      </g>
     </g>
     <g id="text_1">
      <!-- 0 -->
      <g transform="translate(101.10892 338.797656) scale(0.15 -0.15)">
       <defs>
        <path id="DejaVuSans-30" d="M 2034 4250 
Q 1547 4250 1301 3770 
Q 1056 3291 1056 2328 
Q 1056 1369 1301 889 
Q 1547 409 2034 409 
Q 2525 409 2770 889 
Q 3016 1369 3016 2328 
Q 3016 3291 2770 3770 
Q 2525 4250 2034 4250 
z
M 2034 4750 
Q 2819 4750 3233 4129 
Q 3647 3509 3647 2328 
Q 3647 1150 3233 529 
Q 2819 -91 2034 -91 
Q 1250 -91 836 529 
Q 422 1150 422 2328 
Q 422 3509 836 4129 
Q 1250 4750 2034 4750 
z
" transform="scale(0.015625)"/>
       </defs>
       <use xlink:href="#DejaVuSans-30"/>
      </g>
     </g>
    </g>
    <g id="xtick_2">
     <g id="line2d_2">
      <g>
       <use xlink:href="#m2cdd8c17b7" x="176.898977" y="320.4" style="stroke: #000000; stroke-width: 0.8"/>
      </g>
     </g>
     <g id="text_2">
      <!-- 10 -->
      <g transform="translate(167.355227 338.797656) scale(0.15 -0.15)">
       <defs>
        <path id="DejaVuSans-31" d="M 794 531 
L 1825 531 
L 1825 4091 
L 703 3866 
L 703 4441 
L 1819 4666 
L 2450 4666 
L 2450 531 
L 3481 531 
L 3481 0 
L 794 0 
L 794 531 
z
" transform="scale(0.015625)"/>
       </defs>
       <use xlink:href="#DejaVuSans-31"/>
       <use xlink:href="#DejaVuSans-30" transform="translate(63.623047 0)"/>
      </g>
     </g>
    </g>
    <g id="xtick_3">
     <g id="line2d_3">
      <g>
       <use xlink:href="#m2cdd8c17b7" x="247.917159" y="320.4" style="stroke: #000000; stroke-width: 0.8"/>
      </g>
     </g>
     <g id="text_3">
      <!-- 20 -->
      <g transform="translate(238.373409 338.797656) scale(0.15 -0.15)">
       <defs>
        <path id="DejaVuSans-32" d="M 1228 531 
L 3431 531 
L 3431 0 
L 469 0 
L 469 531 
Q 828 903 1448 1529 
Q 2069 2156 2228 2338 
Q 2531 2678 2651 2914 
Q 2772 3150 2772 3378 
Q 2772 3750 2511 3984 
Q 2250 4219 1831 4219 
Q 1534 4219 1204 4116 
Q 875 4013 500 3803 
L 500 4441 
Q 881 4594 1212 4672 
Q 1544 4750 1819 4750 
Q 2544 4750 2975 4387 
Q 3406 4025 3406 3419 
Q 3406 3131 3298 2873 
Q 3191 2616 2906 2266 
Q 2828 2175 2409 1742 
Q 1991 1309 1228 531 
z
" transform="scale(0.015625)"/>
       </defs>
       <use xlink:href="#DejaVuSans-32"/>
       <use xlink:href="#DejaVuSans-30" transform="translate(63.623047 0)"/>
      </g>
     </g>
    </g>
    <g id="xtick_4">
     <g id="line2d_4">
      <g>
       <use xlink:href="#m2cdd8c17b7" x="318.935341" y="320.4" style="stroke: #000000; stroke-width: 0.8"/>
      </g>
     </g>
     <g id="text_4">
      <!-- 30 -->
      <g transform="translate(309.391591 338.797656) scale(0.15 -0.15)">
       <defs>
        <path id="DejaVuSans-33" d="M 2597 2516 
Q 3050 2419 3304 2112 
Q 3559 1806 3559 1356 
Q 3559 666 3084 287 
Q 2609 -91 1734 -91 
Q 1441 -91 1130 -33 
Q 819 25 488 141 
L 488 750 
Q 750 597 1062 519 
Q 1375 441 1716 441 
Q 2309 441 2620 675 
Q 2931 909 2931 1356 
Q 2931 1769 2642 2001 
Q 2353 2234 1838 2234 
L 1294 2234 
L 1294 2753 
L 1863 2753 
Q 2328 2753 2575 2939 
Q 2822 3125 2822 3475 
Q 2822 3834 2567 4026 
Q 2313 4219 1838 4219 
Q 1578 4219 1281 4162 
Q 984 4106 628 3988 
L 628 4550 
Q 988 4650 1302 4700 
Q 1616 4750 1894 4750 
Q 2613 4750 3031 4423 
Q 3450 4097 3450 3541 
Q 3450 3153 3228 2886 
Q 3006 2619 2597 2516 
z
" transform="scale(0.015625)"/>
       </defs>
       <use xlink:href="#DejaVuSans-33"/>
       <use xlink:href="#DejaVuSans-30" transform="translate(63.623047 0)"/>
      </g>
     </g>
    </g>
    <g id="xtick_5">
     <g id="line2d_5">
      <g>
       <use xlink:href="#m2cdd8c17b7" x="389.953523" y="320.4" style="stroke: #000000; stroke-width: 0.8"/>
      </g>
     </g>
     <g id="text_5">
      <!-- 40 -->
      <g transform="translate(380.409773 338.797656) scale(0.15 -0.15)">
       <defs>
        <path id="DejaVuSans-34" d="M 2419 4116 
L 825 1625 
L 2419 1625 
L 2419 4116 
z
M 2253 4666 
L 3047 4666 
L 3047 1625 
L 3713 1625 
L 3713 1100 
L 3047 1100 
L 3047 0 
L 2419 0 
L 2419 1100 
L 313 1100 
L 313 1709 
L 2253 4666 
z
" transform="scale(0.015625)"/>
       </defs>
       <use xlink:href="#DejaVuSans-34"/>
       <use xlink:href="#DejaVuSans-30" transform="translate(63.623047 0)"/>
      </g>
     </g>
    </g>
    <g id="xtick_6">
     <g id="line2d_6">
      <g>
       <use xlink:href="#m2cdd8c17b7" x="460.971705" y="320.4" style="stroke: #000000; stroke-width: 0.8"/>
      </g>
     </g>
     <g id="text_6">
      <!-- 50 -->
      <g transform="translate(451.427955 338.797656) scale(0.15 -0.15)">
       <defs>
        <path id="DejaVuSans-35" d="M 691 4666 
L 3169 4666 
L 3169 4134 
L 1269 4134 
L 1269 2991 
Q 1406 3038 1543 3061 
Q 1681 3084 1819 3084 
Q 2600 3084 3056 2656 
Q 3513 2228 3513 1497 
Q 3513 744 3044 326 
Q 2575 -91 1722 -91 
Q 1428 -91 1123 -41 
Q 819 9 494 109 
L 494 744 
Q 775 591 1075 516 
Q 1375 441 1709 441 
Q 2250 441 2565 725 
Q 2881 1009 2881 1497 
Q 2881 1984 2565 2268 
Q 2250 2553 1709 2553 
Q 1456 2553 1204 2497 
Q 953 2441 691 2322 
L 691 4666 
z
" transform="scale(0.015625)"/>
       </defs>
       <use xlink:href="#DejaVuSans-35"/>
       <use xlink:href="#DejaVuSans-30" transform="translate(63.623047 0)"/>
      </g>
     </g>
    </g>
    <g id="text_7">
     <!-- time [hr] -->
     <g transform="translate(238.351719 359.594375) scale(0.18 -0.18)">
      <defs>
       <path id="DejaVuSans-Bold-74" d="M 1759 4494 
L 1759 3500 
L 2913 3500 
L 2913 2700 
L 1759 2700 
L 1759 1216 
Q 1759 972 1856 886 
Q 1953 800 2241 800 
L 2816 800 
L 2816 0 
L 1856 0 
Q 1194 0 917 276 
Q 641 553 641 1216 
L 641 2700 
L 84 2700 
L 84 3500 
L 641 3500 
L 641 4494 
L 1759 4494 
z
" transform="scale(0.015625)"/>
       <path id="DejaVuSans-Bold-69" d="M 538 3500 
L 1656 3500 
L 1656 0 
L 538 0 
L 538 3500 
z
M 538 4863 
L 1656 4863 
L 1656 3950 
L 538 3950 
L 538 4863 
z
" transform="scale(0.015625)"/>
       <path id="DejaVuSans-Bold-6d" d="M 3781 2919 
Q 3994 3244 4286 3414 
Q 4578 3584 4928 3584 
Q 5531 3584 5847 3212 
Q 6163 2841 6163 2131 
L 6163 0 
L 5038 0 
L 5038 1825 
Q 5041 1866 5042 1909 
Q 5044 1953 5044 2034 
Q 5044 2406 4934 2573 
Q 4825 2741 4581 2741 
Q 4263 2741 4089 2478 
Q 3916 2216 3909 1719 
L 3909 0 
L 2784 0 
L 2784 1825 
Q 2784 2406 2684 2573 
Q 2584 2741 2328 2741 
Q 2006 2741 1831 2477 
Q 1656 2213 1656 1722 
L 1656 0 
L 531 0 
L 531 3500 
L 1656 3500 
L 1656 2988 
Q 1863 3284 2130 3434 
Q 2397 3584 2719 3584 
Q 3081 3584 3359 3409 
Q 3638 3234 3781 2919 
z
" transform="scale(0.015625)"/>
       <path id="DejaVuSans-Bold-65" d="M 4031 1759 
L 4031 1441 
L 1416 1441 
Q 1456 1047 1700 850 
Q 1944 653 2381 653 
Q 2734 653 3104 758 
Q 3475 863 3866 1075 
L 3866 213 
Q 3469 63 3072 -14 
Q 2675 -91 2278 -91 
Q 1328 -91 801 392 
Q 275 875 275 1747 
Q 275 2603 792 3093 
Q 1309 3584 2216 3584 
Q 3041 3584 3536 3087 
Q 4031 2591 4031 1759 
z
M 2881 2131 
Q 2881 2450 2695 2645 
Q 2509 2841 2209 2841 
Q 1884 2841 1681 2658 
Q 1478 2475 1428 2131 
L 2881 2131 
z
" transform="scale(0.015625)"/>
       <path id="DejaVuSans-Bold-20" transform="scale(0.015625)"/>
       <path id="DejaVuSans-Bold-5b" d="M 550 4863 
L 2491 4863 
L 2491 4159 
L 1613 4159 
L 1613 -141 
L 2491 -141 
L 2491 -844 
L 550 -844 
L 550 4863 
z
" transform="scale(0.015625)"/>
       <path id="DejaVuSans-Bold-68" d="M 4056 2131 
L 4056 0 
L 2931 0 
L 2931 347 
L 2931 1625 
Q 2931 2084 2911 2256 
Q 2891 2428 2841 2509 
Q 2775 2619 2662 2680 
Q 2550 2741 2406 2741 
Q 2056 2741 1856 2470 
Q 1656 2200 1656 1722 
L 1656 0 
L 538 0 
L 538 4863 
L 1656 4863 
L 1656 2988 
Q 1909 3294 2193 3439 
Q 2478 3584 2822 3584 
Q 3428 3584 3742 3212 
Q 4056 2841 4056 2131 
z
" transform="scale(0.015625)"/>
       <path id="DejaVuSans-Bold-72" d="M 3138 2547 
Q 2991 2616 2845 2648 
Q 2700 2681 2553 2681 
Q 2122 2681 1889 2404 
Q 1656 2128 1656 1613 
L 1656 0 
L 538 0 
L 538 3500 
L 1656 3500 
L 1656 2925 
Q 1872 3269 2151 3426 
Q 2431 3584 2822 3584 
Q 2878 3584 2943 3579 
Q 3009 3575 3134 3559 
L 3138 2547 
z
" transform="scale(0.015625)"/>
       <path id="DejaVuSans-Bold-5d" d="M 2375 -844 
L 434 -844 
L 434 -141 
L 1313 -141 
L 1313 4159 
L 434 4159 
L 434 4863 
L 2375 4863 
L 2375 -844 
z
" transform="scale(0.015625)"/>
      </defs>
      <use xlink:href="#DejaVuSans-Bold-74"/>
      <use xlink:href="#DejaVuSans-Bold-69" transform="translate(47.802734 0)"/>
      <use xlink:href="#DejaVuSans-Bold-6d" transform="translate(82.080078 0)"/>
      <use xlink:href="#DejaVuSans-Bold-65" transform="translate(186.279297 0)"/>
      <use xlink:href="#DejaVuSans-Bold-20" transform="translate(254.101562 0)"/>
      <use xlink:href="#DejaVuSans-Bold-5b" transform="translate(288.916016 0)"/>
      <use xlink:href="#DejaVuSans-Bold-68" transform="translate(334.619141 0)"/>
      <use xlink:href="#DejaVuSans-Bold-72" transform="translate(405.810547 0)"/>
      <use xlink:href="#DejaVuSans-Bold-5d" transform="translate(455.126953 0)"/>
     </g>
    </g>
   </g>
   <g id="matplotlib.axis_2">
    <g id="ytick_1">
     <g id="line2d_7">
      <defs>
       <path id="ma0e2672b8a" d="M 0 0 
L -3.5 0 
" style="stroke: #000000; stroke-width: 0.8"/>
      </defs>
      <g>
       <use xlink:href="#ma0e2672b8a" x="88.12625" y="307.8" style="stroke: #000000; stroke-width: 0.8"/>
      </g>
     </g>
     <g id="text_8">
      <!-- 0.0000 -->
      <g transform="translate(28.640313 313.498828) scale(0.15 -0.15)">
       <defs>
        <path id="DejaVuSans-2e" d="M 684 794 
L 1344 794 
L 1344 0 
L 684 0 
L 684 794 
z
" transform="scale(0.015625)"/>
       </defs>
       <use xlink:href="#DejaVuSans-30"/>
       <use xlink:href="#DejaVuSans-2e" transform="translate(63.623047 0)"/>
       <use xlink:href="#DejaVuSans-30" transform="translate(95.410156 0)"/>
       <use xlink:href="#DejaVuSans-30" transform="translate(159.033203 0)"/>
       <use xlink:href="#DejaVuSans-30" transform="translate(222.65625 0)"/>
       <use xlink:href="#DejaVuSans-30" transform="translate(286.279297 0)"/>
      </g>
     </g>
    </g>
    <g id="ytick_2">
     <g id="line2d_8">
      <g>
       <use xlink:href="#ma0e2672b8a" x="88.12625" y="250.218268" style="stroke: #000000; stroke-width: 0.8"/>
      </g>
     </g>
     <g id="text_9">
      <!-- 0.0005 -->
      <g transform="translate(28.640313 255.917096) scale(0.15 -0.15)">
       <use xlink:href="#DejaVuSans-30"/>
       <use xlink:href="#DejaVuSans-2e" transform="translate(63.623047 0)"/>
       <use xlink:href="#DejaVuSans-30" transform="translate(95.410156 0)"/>
       <use xlink:href="#DejaVuSans-30" transform="translate(159.033203 0)"/>
       <use xlink:href="#DejaVuSans-30" transform="translate(222.65625 0)"/>
       <use xlink:href="#DejaVuSans-35" transform="translate(286.279297 0)"/>
      </g>
     </g>
    </g>
    <g id="ytick_3">
     <g id="line2d_9">
      <g>
       <use xlink:href="#ma0e2672b8a" x="88.12625" y="192.636536" style="stroke: #000000; stroke-width: 0.8"/>
      </g>
     </g>
     <g id="text_10">
      <!-- 0.0010 -->
      <g transform="translate(28.640313 198.335364) scale(0.15 -0.15)">
       <use xlink:href="#DejaVuSans-30"/>
       <use xlink:href="#DejaVuSans-2e" transform="translate(63.623047 0)"/>
       <use xlink:href="#DejaVuSans-30" transform="translate(95.410156 0)"/>
       <use xlink:href="#DejaVuSans-30" transform="translate(159.033203 0)"/>
       <use xlink:href="#DejaVuSans-31" transform="translate(222.65625 0)"/>
       <use xlink:href="#DejaVuSans-30" transform="translate(286.279297 0)"/>
      </g>
     </g>
    </g>
    <g id="ytick_4">
     <g id="line2d_10">
      <g>
       <use xlink:href="#ma0e2672b8a" x="88.12625" y="135.054805" style="stroke: #000000; stroke-width: 0.8"/>
      </g>
     </g>
     <g id="text_11">
      <!-- 0.0015 -->
      <g transform="translate(28.640313 140.753633) scale(0.15 -0.15)">
       <use xlink:href="#DejaVuSans-30"/>
       <use xlink:href="#DejaVuSans-2e" transform="translate(63.623047 0)"/>
       <use xlink:href="#DejaVuSans-30" transform="translate(95.410156 0)"/>
       <use xlink:href="#DejaVuSans-30" transform="translate(159.033203 0)"/>
       <use xlink:href="#DejaVuSans-31" transform="translate(222.65625 0)"/>
       <use xlink:href="#DejaVuSans-35" transform="translate(286.279297 0)"/>
      </g>
     </g>
    </g>
    <g id="ytick_5">
     <g id="line2d_11">
      <g>
       <use xlink:href="#ma0e2672b8a" x="88.12625" y="77.473073" style="stroke: #000000; stroke-width: 0.8"/>
      </g>
     </g>
     <g id="text_12">
      <!-- 0.0020 -->
      <g transform="translate(28.640313 83.171901) scale(0.15 -0.15)">
       <use xlink:href="#DejaVuSans-30"/>
       <use xlink:href="#DejaVuSans-2e" transform="translate(63.623047 0)"/>
       <use xlink:href="#DejaVuSans-30" transform="translate(95.410156 0)"/>
       <use xlink:href="#DejaVuSans-30" transform="translate(159.033203 0)"/>
       <use xlink:href="#DejaVuSans-32" transform="translate(222.65625 0)"/>
       <use xlink:href="#DejaVuSans-30" transform="translate(286.279297 0)"/>
      </g>
     </g>
    </g>
    <g id="text_13">
     <!-- rivaroxaban plasma [µM] -->
     <g transform="translate(20.877187 309.166875) rotate(-90) scale(0.18 -0.18)">
      <defs>
       <path id="DejaVuSans-Bold-76" d="M 97 3500 
L 1216 3500 
L 2088 1081 
L 2956 3500 
L 4078 3500 
L 2700 0 
L 1472 0 
L 97 3500 
z
" transform="scale(0.015625)"/>
       <path id="DejaVuSans-Bold-61" d="M 2106 1575 
Q 1756 1575 1579 1456 
Q 1403 1338 1403 1106 
Q 1403 894 1545 773 
Q 1688 653 1941 653 
Q 2256 653 2472 879 
Q 2688 1106 2688 1447 
L 2688 1575 
L 2106 1575 
z
M 3816 1997 
L 3816 0 
L 2688 0 
L 2688 519 
Q 2463 200 2181 54 
Q 1900 -91 1497 -91 
Q 953 -91 614 226 
Q 275 544 275 1050 
Q 275 1666 698 1953 
Q 1122 2241 2028 2241 
L 2688 2241 
L 2688 2328 
Q 2688 2594 2478 2717 
Q 2269 2841 1825 2841 
Q 1466 2841 1156 2769 
Q 847 2697 581 2553 
L 581 3406 
Q 941 3494 1303 3539 
Q 1666 3584 2028 3584 
Q 2975 3584 3395 3211 
Q 3816 2838 3816 1997 
z
" transform="scale(0.015625)"/>
       <path id="DejaVuSans-Bold-6f" d="M 2203 2784 
Q 1831 2784 1636 2517 
Q 1441 2250 1441 1747 
Q 1441 1244 1636 976 
Q 1831 709 2203 709 
Q 2569 709 2762 976 
Q 2956 1244 2956 1747 
Q 2956 2250 2762 2517 
Q 2569 2784 2203 2784 
z
M 2203 3584 
Q 3106 3584 3614 3096 
Q 4122 2609 4122 1747 
Q 4122 884 3614 396 
Q 3106 -91 2203 -91 
Q 1297 -91 786 396 
Q 275 884 275 1747 
Q 275 2609 786 3096 
Q 1297 3584 2203 3584 
z
" transform="scale(0.015625)"/>
       <path id="DejaVuSans-Bold-78" d="M 1422 1791 
L 159 3500 
L 1344 3500 
L 2059 2463 
L 2784 3500 
L 3969 3500 
L 2706 1797 
L 4031 0 
L 2847 0 
L 2059 1106 
L 1281 0 
L 97 0 
L 1422 1791 
z
" transform="scale(0.015625)"/>
       <path id="DejaVuSans-Bold-62" d="M 2400 722 
Q 2759 722 2948 984 
Q 3138 1247 3138 1747 
Q 3138 2247 2948 2509 
Q 2759 2772 2400 2772 
Q 2041 2772 1848 2508 
Q 1656 2244 1656 1747 
Q 1656 1250 1848 986 
Q 2041 722 2400 722 
z
M 1656 2988 
Q 1888 3294 2169 3439 
Q 2450 3584 2816 3584 
Q 3463 3584 3878 3070 
Q 4294 2556 4294 1747 
Q 4294 938 3878 423 
Q 3463 -91 2816 -91 
Q 2450 -91 2169 54 
Q 1888 200 1656 506 
L 1656 0 
L 538 0 
L 538 4863 
L 1656 4863 
L 1656 2988 
z
" transform="scale(0.015625)"/>
       <path id="DejaVuSans-Bold-6e" d="M 4056 2131 
L 4056 0 
L 2931 0 
L 2931 347 
L 2931 1631 
Q 2931 2084 2911 2256 
Q 2891 2428 2841 2509 
Q 2775 2619 2662 2680 
Q 2550 2741 2406 2741 
Q 2056 2741 1856 2470 
Q 1656 2200 1656 1722 
L 1656 0 
L 538 0 
L 538 3500 
L 1656 3500 
L 1656 2988 
Q 1909 3294 2193 3439 
Q 2478 3584 2822 3584 
Q 3428 3584 3742 3212 
Q 4056 2841 4056 2131 
z
" transform="scale(0.015625)"/>
       <path id="DejaVuSans-Bold-70" d="M 1656 506 
L 1656 -1331 
L 538 -1331 
L 538 3500 
L 1656 3500 
L 1656 2988 
Q 1888 3294 2169 3439 
Q 2450 3584 2816 3584 
Q 3463 3584 3878 3070 
Q 4294 2556 4294 1747 
Q 4294 938 3878 423 
Q 3463 -91 2816 -91 
Q 2450 -91 2169 54 
Q 1888 200 1656 506 
z
M 2400 2772 
Q 2041 2772 1848 2508 
Q 1656 2244 1656 1747 
Q 1656 1250 1848 986 
Q 2041 722 2400 722 
Q 2759 722 2948 984 
Q 3138 1247 3138 1747 
Q 3138 2247 2948 2509 
Q 2759 2772 2400 2772 
z
" transform="scale(0.015625)"/>
       <path id="DejaVuSans-Bold-6c" d="M 538 4863 
L 1656 4863 
L 1656 0 
L 538 0 
L 538 4863 
z
" transform="scale(0.015625)"/>
       <path id="DejaVuSans-Bold-73" d="M 3272 3391 
L 3272 2541 
Q 2913 2691 2578 2766 
Q 2244 2841 1947 2841 
Q 1628 2841 1473 2761 
Q 1319 2681 1319 2516 
Q 1319 2381 1436 2309 
Q 1553 2238 1856 2203 
L 2053 2175 
Q 2913 2066 3209 1816 
Q 3506 1566 3506 1031 
Q 3506 472 3093 190 
Q 2681 -91 1863 -91 
Q 1516 -91 1145 -36 
Q 775 19 384 128 
L 384 978 
Q 719 816 1070 734 
Q 1422 653 1784 653 
Q 2113 653 2278 743 
Q 2444 834 2444 1013 
Q 2444 1163 2330 1236 
Q 2216 1309 1875 1350 
L 1678 1375 
Q 931 1469 631 1722 
Q 331 1975 331 2491 
Q 331 3047 712 3315 
Q 1094 3584 1881 3584 
Q 2191 3584 2531 3537 
Q 2872 3491 3272 3391 
z
" transform="scale(0.015625)"/>
       <path id="DejaVuSans-Bold-b5" d="M 544 -1338 
L 544 3500 
L 1672 3500 
L 1672 1466 
Q 1672 1103 1828 926 
Q 1984 750 2303 750 
Q 2625 750 2781 926 
Q 2938 1103 2938 1466 
L 2938 3500 
L 4063 3500 
L 4063 1159 
Q 4063 938 4114 850 
Q 4166 763 4288 763 
Q 4344 763 4395 778 
Q 4447 794 4506 831 
L 4506 50 
Q 4341 -22 4195 -56 
Q 4050 -91 3909 -91 
Q 3631 -91 3454 26 
Q 3278 144 3169 403 
Q 3022 156 2811 32 
Q 2600 -91 2322 -91 
Q 2091 -91 1928 -17 
Q 1766 56 1672 206 
L 1672 -1338 
L 544 -1338 
z
" transform="scale(0.015625)"/>
       <path id="DejaVuSans-Bold-4d" d="M 588 4666 
L 2119 4666 
L 3181 2169 
L 4250 4666 
L 5778 4666 
L 5778 0 
L 4641 0 
L 4641 3413 
L 3566 897 
L 2803 897 
L 1728 3413 
L 1728 0 
L 588 0 
L 588 4666 
z
" transform="scale(0.015625)"/>
      </defs>
      <use xlink:href="#DejaVuSans-Bold-72"/>
      <use xlink:href="#DejaVuSans-Bold-69" transform="translate(49.316406 0)"/>
      <use xlink:href="#DejaVuSans-Bold-76" transform="translate(83.59375 0)"/>
      <use xlink:href="#DejaVuSans-Bold-61" transform="translate(148.779297 0)"/>
      <use xlink:href="#DejaVuSans-Bold-72" transform="translate(216.259766 0)"/>
      <use xlink:href="#DejaVuSans-Bold-6f" transform="translate(265.576172 0)"/>
      <use xlink:href="#DejaVuSans-Bold-78" transform="translate(334.277344 0)"/>
      <use xlink:href="#DejaVuSans-Bold-61" transform="translate(398.779297 0)"/>
      <use xlink:href="#DejaVuSans-Bold-62" transform="translate(466.259766 0)"/>
      <use xlink:href="#DejaVuSans-Bold-61" transform="translate(537.841797 0)"/>
      <use xlink:href="#DejaVuSans-Bold-6e" transform="translate(605.322266 0)"/>
      <use xlink:href="#DejaVuSans-Bold-20" transform="translate(676.513672 0)"/>
      <use xlink:href="#DejaVuSans-Bold-70" transform="translate(711.328125 0)"/>
      <use xlink:href="#DejaVuSans-Bold-6c" transform="translate(782.910156 0)"/>
      <use xlink:href="#DejaVuSans-Bold-61" transform="translate(817.1875 0)"/>
      <use xlink:href="#DejaVuSans-Bold-73" transform="translate(884.667969 0)"/>
      <use xlink:href="#DejaVuSans-Bold-6d" transform="translate(944.189453 0)"/>
      <use xlink:href="#DejaVuSans-Bold-61" transform="translate(1048.388672 0)"/>
      <use xlink:href="#DejaVuSans-Bold-20" transform="translate(1115.869141 0)"/>
      <use xlink:href="#DejaVuSans-Bold-5b" transform="translate(1150.683594 0)"/>
      <use xlink:href="#DejaVuSans-Bold-b5" transform="translate(1196.386719 0)"/>
      <use xlink:href="#DejaVuSans-Bold-4d" transform="translate(1269.970703 0)"/>
      <use xlink:href="#DejaVuSans-Bold-5d" transform="translate(1369.482422 0)"/>
     </g>
    </g>
   </g>
   <g id="LineCollection_1">
    <path clip-path="url(#p1dec1dfbfc)" style="fill: none; stroke: #000000"/>
    <path d="M 107.65625 253.285736 
L 107.65625 163.919649 
" clip-path="url(#p1dec1dfbfc)" style="fill: none; stroke: #000000"/>
    <path d="M 109.431705 194.982713 
L 109.431705 113.384374 
" clip-path="url(#p1dec1dfbfc)" style="fill: none; stroke: #000000"/>
    <path d="M 111.207159 177.470934 
L 111.207159 99.761753 
" clip-path="url(#p1dec1dfbfc)" style="fill: none; stroke: #000000"/>
    <path d="M 112.982614 179.389092 
L 112.982614 82.255257 
" clip-path="url(#p1dec1dfbfc)" style="fill: none; stroke: #000000"/>
    <path d="M 116.533523 194.884956 
L 116.533523 117.175775 
" clip-path="url(#p1dec1dfbfc)" style="fill: none; stroke: #000000"/>
    <path d="M 120.084432 218.151209 
L 120.084432 105.471311 
" clip-path="url(#p1dec1dfbfc)" style="fill: none; stroke: #000000"/>
    <path d="M 123.635341 206.446746 
L 123.635341 144.278344 
" clip-path="url(#p1dec1dfbfc)" style="fill: none; stroke: #000000"/>
    <path d="M 127.18625 241.364621 
L 127.18625 183.085377 
" clip-path="url(#p1dec1dfbfc)" style="fill: none; stroke: #000000"/>
    <path d="M 130.737159 243.259 
L 130.737159 208.293568 
" clip-path="url(#p1dec1dfbfc)" style="fill: none; stroke: #000000"/>
    <path d="M 134.288068 256.826138 
L 134.288068 214.061252 
" clip-path="url(#p1dec1dfbfc)" style="fill: none; stroke: #000000"/>
    <path d="M 141.389886 270.290234 
L 141.389886 231.462064 
" clip-path="url(#p1dec1dfbfc)" style="fill: none; stroke: #000000"/>
    <path d="M 148.491705 274.092203 
L 148.491705 254.667549 
" clip-path="url(#p1dec1dfbfc)" style="fill: none; stroke: #000000"/>
    <path d="M 162.695341 291.389973 
L 162.695341 256.419256 
" clip-path="url(#p1dec1dfbfc)" style="fill: none; stroke: #000000"/>
    <path d="M 176.898977 291.1971 
L 176.898977 275.656321 
" clip-path="url(#p1dec1dfbfc)" style="fill: none; stroke: #000000"/>
    <path d="M 191.102614 294.866964 
L 191.102614 287.120354 
" clip-path="url(#p1dec1dfbfc)" style="fill: none; stroke: #000000"/>
    <path clip-path="url(#p1dec1dfbfc)" style="fill: none; stroke: #000000"/>
   </g>
   <g id="LineCollection_2">
    <path clip-path="url(#p1dec1dfbfc)" style="fill: none; stroke: #000000"/>
    <path d="M 107.65625 272.250665 
L 107.65625 233.242833 
" clip-path="url(#p1dec1dfbfc)" style="fill: none; stroke: #000000"/>
    <path d="M 109.431705 188.879483 
L 109.431705 132.153789 
" clip-path="url(#p1dec1dfbfc)" style="fill: none; stroke: #000000"/>
    <path d="M 111.207159 160.519278 
L 111.207159 82.482477 
" clip-path="url(#p1dec1dfbfc)" style="fill: none; stroke: #000000"/>
    <path d="M 112.982614 153.3962 
L 112.982614 78.920939 
" clip-path="url(#p1dec1dfbfc)" style="fill: none; stroke: #000000"/>
    <path d="M 116.533523 142.732721 
L 116.533523 57.604548 
" clip-path="url(#p1dec1dfbfc)" style="fill: none; stroke: #000000"/>
    <path d="M 120.084432 151.554663 
L 120.084432 55.8 
" clip-path="url(#p1dec1dfbfc)" style="fill: none; stroke: #000000"/>
    <path d="M 123.635341 147.932356 
L 123.635341 66.365722 
" clip-path="url(#p1dec1dfbfc)" style="fill: none; stroke: #000000"/>
    <path d="M 127.18625 169.174768 
L 127.18625 94.699506 
" clip-path="url(#p1dec1dfbfc)" style="fill: none; stroke: #000000"/>
    <path d="M 130.737159 179.769553 
L 130.737159 112.401516 
" clip-path="url(#p1dec1dfbfc)" style="fill: none; stroke: #000000"/>
    <path d="M 134.288068 200.969691 
L 134.288068 144.243997 
" clip-path="url(#p1dec1dfbfc)" style="fill: none; stroke: #000000"/>
    <path d="M 141.389886 216.877722 
L 141.389886 170.773233 
" clip-path="url(#p1dec1dfbfc)" style="fill: none; stroke: #000000"/>
    <path d="M 148.491705 245.105822 
L 148.491705 213.189362 
" clip-path="url(#p1dec1dfbfc)" style="fill: none; stroke: #000000"/>
    <path d="M 162.695341 264.472349 
L 162.695341 236.096292 
" clip-path="url(#p1dec1dfbfc)" style="fill: none; stroke: #000000"/>
    <path d="M 176.898977 273.193892 
L 176.898977 251.914491 
" clip-path="url(#p1dec1dfbfc)" style="fill: none; stroke: #000000"/>
    <path clip-path="url(#p1dec1dfbfc)" style="fill: none; stroke: #000000"/>
    <path clip-path="url(#p1dec1dfbfc)" style="fill: none; stroke: #000000"/>
   </g>
   <g id="LineCollection_3">
    <path clip-path="url(#p1dec1dfbfc)" style="fill: none; stroke: #000000"/>
    <path d="M 107.65625 261.048199 
L 107.65625 163.190432 
" clip-path="url(#p1dec1dfbfc)" style="fill: none; stroke: #000000"/>
    <path d="M 109.431705 183.848942 
L 109.431705 99.043104 
" clip-path="url(#p1dec1dfbfc)" style="fill: none; stroke: #000000"/>
    <path d="M 111.207159 137.097141 
L 111.207159 82.733476 
" clip-path="url(#p1dec1dfbfc)" style="fill: none; stroke: #000000"/>
    <path d="M 112.982614 128.071758 
L 112.982614 102.628421 
" clip-path="url(#p1dec1dfbfc)" style="fill: none; stroke: #000000"/>
    <path d="M 116.533523 151.99325 
L 116.533523 122.201032 
" clip-path="url(#p1dec1dfbfc)" style="fill: none; stroke: #000000"/>
    <path d="M 120.084432 159.710798 
L 120.084432 129.707212 
" clip-path="url(#p1dec1dfbfc)" style="fill: none; stroke: #000000"/>
    <path d="M 123.635341 216.470839 
L 123.635341 127.310836 
" clip-path="url(#p1dec1dfbfc)" style="fill: none; stroke: #000000"/>
    <path d="M 127.18625 206.681892 
L 127.18625 193.635247 
" clip-path="url(#p1dec1dfbfc)" style="fill: none; stroke: #000000"/>
    <path d="M 130.737159 240.38969 
L 130.737159 212.119316 
" clip-path="url(#p1dec1dfbfc)" style="fill: none; stroke: #000000"/>
    <path d="M 134.288068 250.175995 
L 134.288068 230.603384 
" clip-path="url(#p1dec1dfbfc)" style="fill: none; stroke: #000000"/>
    <path d="M 141.389886 262.134099 
L 141.389886 249.087453 
" clip-path="url(#p1dec1dfbfc)" style="fill: none; stroke: #000000"/>
    <path d="M 148.491705 280.62081 
L 148.491705 258.871116 
" clip-path="url(#p1dec1dfbfc)" style="fill: none; stroke: #000000"/>
    <path d="M 162.695341 287.14149 
L 162.695341 278.443727 
" clip-path="url(#p1dec1dfbfc)" style="fill: none; stroke: #000000"/>
    <path clip-path="url(#p1dec1dfbfc)" style="fill: none; stroke: #000000"/>
    <path clip-path="url(#p1dec1dfbfc)" style="fill: none; stroke: #000000"/>
    <path clip-path="url(#p1dec1dfbfc)" style="fill: none; stroke: #000000"/>
   </g>
   <g id="line2d_12">
    <path d="M 105.880795 307.8 
L 106.590977 306.442375 
L 107.301159 302.565009 
L 108.721523 291.142056 
L 110.852068 272.847189 
L 112.272432 262.567959 
L 113.692795 254.392807 
L 115.113159 248.240102 
L 115.823341 245.843645 
L 116.533523 243.849913 
L 117.243705 242.220255 
L 117.953886 240.917188 
L 118.664068 239.905237 
L 119.37425 239.151395 
L 120.084432 238.625344 
L 120.794614 238.299502 
L 121.504795 238.148965 
L 122.214977 238.151383 
L 122.925159 238.28679 
L 124.345523 238.887524 
L 125.765886 239.832025 
L 127.18625 241.027428 
L 129.316795 243.138449 
L 132.867705 247.10901 
L 142.100068 257.683086 
L 146.361159 262.156317 
L 150.62225 266.277665 
L 154.883341 270.048318 
L 159.144432 273.486267 
L 163.405523 276.615531 
L 167.666614 279.461416 
L 171.927705 282.04849 
L 176.188795 284.399796 
L 181.160068 286.873267 
L 186.131341 289.085386 
L 191.102614 291.063706 
L 196.784068 293.069907 
L 202.465523 294.835629 
L 208.857159 296.570367 
L 215.248795 298.072984 
L 222.350614 299.50795 
L 230.162614 300.843154 
L 238.684795 302.05578 
L 247.917159 303.132138 
L 257.859705 304.066869 
L 269.222614 304.908223 
L 282.005886 305.630334 
L 296.919705 306.248236 
L 314.67425 306.758807 
L 337.400068 307.175238 
L 367.227705 307.48042 
L 410.548795 307.67929 
L 460.971705 307.761133 
L 460.971705 307.761133 
" clip-path="url(#p1dec1dfbfc)" style="fill: none; stroke: #000000; stroke-width: 2; stroke-linecap: square"/>
   </g>
   <g id="line2d_13">
    <path d="M 105.880795 305.786727 
L 107.65625 208.602692 
L 109.431705 154.183544 
L 111.207159 138.616343 
L 112.982614 130.822175 
L 116.533523 156.030365 
L 120.084432 161.81126 
L 123.635341 175.362545 
L 127.18625 212.224999 
L 130.737159 225.776284 
L 134.288068 235.443695 
L 141.389886 250.876149 
L 148.491705 264.379876 
L 162.695341 273.904614 
L 176.898977 283.42671 
L 191.102614 290.993659 
L 276.324432 307.364055 
" clip-path="url(#p1dec1dfbfc)" style="fill: none; stroke-dasharray: 3.7,1.6; stroke-dashoffset: 0; stroke: #000000"/>
    <defs>
     <path id="m5b442e90b8" d="M -3 3 
L 3 3 
L 3 -3 
L -3 -3 
z
" style="stroke: #000000; stroke-linejoin: miter"/>
    </defs>
    <g clip-path="url(#p1dec1dfbfc)">
     <use xlink:href="#m5b442e90b8" x="105.880795" y="305.786727" style="stroke: #000000; stroke-linejoin: miter"/>
     <use xlink:href="#m5b442e90b8" x="107.65625" y="208.602692" style="stroke: #000000; stroke-linejoin: miter"/>
     <use xlink:href="#m5b442e90b8" x="109.431705" y="154.183544" style="stroke: #000000; stroke-linejoin: miter"/>
     <use xlink:href="#m5b442e90b8" x="111.207159" y="138.616343" style="stroke: #000000; stroke-linejoin: miter"/>
     <use xlink:href="#m5b442e90b8" x="112.982614" y="130.822175" style="stroke: #000000; stroke-linejoin: miter"/>
     <use xlink:href="#m5b442e90b8" x="116.533523" y="156.030365" style="stroke: #000000; stroke-linejoin: miter"/>
     <use xlink:href="#m5b442e90b8" x="120.084432" y="161.81126" style="stroke: #000000; stroke-linejoin: miter"/>
     <use xlink:href="#m5b442e90b8" x="123.635341" y="175.362545" style="stroke: #000000; stroke-linejoin: miter"/>
     <use xlink:href="#m5b442e90b8" x="127.18625" y="212.224999" style="stroke: #000000; stroke-linejoin: miter"/>
     <use xlink:href="#m5b442e90b8" x="130.737159" y="225.776284" style="stroke: #000000; stroke-linejoin: miter"/>
     <use xlink:href="#m5b442e90b8" x="134.288068" y="235.443695" style="stroke: #000000; stroke-linejoin: miter"/>
     <use xlink:href="#m5b442e90b8" x="141.389886" y="250.876149" style="stroke: #000000; stroke-linejoin: miter"/>
     <use xlink:href="#m5b442e90b8" x="148.491705" y="264.379876" style="stroke: #000000; stroke-linejoin: miter"/>
     <use xlink:href="#m5b442e90b8" x="162.695341" y="273.904614" style="stroke: #000000; stroke-linejoin: miter"/>
     <use xlink:href="#m5b442e90b8" x="176.898977" y="283.42671" style="stroke: #000000; stroke-linejoin: miter"/>
     <use xlink:href="#m5b442e90b8" x="191.102614" y="290.993659" style="stroke: #000000; stroke-linejoin: miter"/>
     <use xlink:href="#m5b442e90b8" x="276.324432" y="307.364055" style="stroke: #000000; stroke-linejoin: miter"/>
    </g>
   </g>
   <g id="line2d_14">
    <path d="M 105.880795 307.8 
L 106.590977 306.442375 
L 107.301159 302.565009 
L 108.721523 291.142056 
L 110.852068 272.847189 
L 112.272432 262.567959 
L 113.692795 254.392807 
L 115.113159 248.240102 
L 115.823341 245.843645 
L 116.533523 243.849913 
L 117.243705 242.220255 
L 117.953886 240.917188 
L 118.664068 239.905237 
L 119.37425 239.151395 
L 120.084432 238.625344 
L 120.794614 238.299502 
L 121.504795 238.148965 
L 122.214977 238.151383 
L 122.925159 238.28679 
L 124.345523 238.887524 
L 125.765886 239.832025 
L 127.18625 241.027428 
L 129.316795 243.138449 
L 132.867705 247.10901 
L 142.100068 257.683086 
L 146.361159 262.156317 
L 150.62225 266.277665 
L 154.883341 270.048318 
L 159.144432 273.486267 
L 163.405523 276.615531 
L 167.666614 279.461416 
L 171.927705 282.04849 
L 176.188795 284.399796 
L 181.160068 286.873267 
L 186.131341 289.085386 
L 191.102614 291.063706 
L 196.784068 293.069907 
L 202.465523 294.835629 
L 208.857159 296.570367 
L 215.248795 298.072984 
L 222.350614 299.50795 
L 230.162614 300.843154 
L 238.684795 302.05578 
L 247.917159 303.132138 
L 257.859705 304.066869 
L 269.222614 304.908223 
L 282.005886 305.630334 
L 296.919705 306.248236 
L 314.67425 306.758807 
L 337.400068 307.175238 
L 367.227705 307.48042 
L 410.548795 307.67929 
L 460.971705 307.761133 
L 460.971705 307.761133 
" clip-path="url(#p1dec1dfbfc)" style="fill: none; stroke: #000000; stroke-width: 2; stroke-linecap: square"/>
   </g>
   <g id="line2d_15">
    <path d="M 105.880795 305.958463 
L 107.65625 252.746749 
L 109.431705 160.516636 
L 111.207159 121.500878 
L 112.982614 116.158569 
L 116.533523 100.168635 
L 120.084432 103.677331 
L 123.635341 107.149039 
L 127.18625 131.937137 
L 130.737159 146.085535 
L 134.288068 172.606844 
L 141.389886 193.825477 
L 148.491705 229.147592 
L 162.695341 250.28432 
L 176.898977 262.554191 
L 191.102614 291.849696 
L 276.324432 307.8 
" clip-path="url(#p1dec1dfbfc)" style="fill: none; stroke-dasharray: 3.7,1.6; stroke-dashoffset: 0; stroke: #000000"/>
    <g clip-path="url(#p1dec1dfbfc)">
     <use xlink:href="#m5b442e90b8" x="105.880795" y="305.958463" style="stroke: #000000; stroke-linejoin: miter"/>
     <use xlink:href="#m5b442e90b8" x="107.65625" y="252.746749" style="stroke: #000000; stroke-linejoin: miter"/>
     <use xlink:href="#m5b442e90b8" x="109.431705" y="160.516636" style="stroke: #000000; stroke-linejoin: miter"/>
     <use xlink:href="#m5b442e90b8" x="111.207159" y="121.500878" style="stroke: #000000; stroke-linejoin: miter"/>
     <use xlink:href="#m5b442e90b8" x="112.982614" y="116.158569" style="stroke: #000000; stroke-linejoin: miter"/>
     <use xlink:href="#m5b442e90b8" x="116.533523" y="100.168635" style="stroke: #000000; stroke-linejoin: miter"/>
     <use xlink:href="#m5b442e90b8" x="120.084432" y="103.677331" style="stroke: #000000; stroke-linejoin: miter"/>
     <use xlink:href="#m5b442e90b8" x="123.635341" y="107.149039" style="stroke: #000000; stroke-linejoin: miter"/>
     <use xlink:href="#m5b442e90b8" x="127.18625" y="131.937137" style="stroke: #000000; stroke-linejoin: miter"/>
     <use xlink:href="#m5b442e90b8" x="130.737159" y="146.085535" style="stroke: #000000; stroke-linejoin: miter"/>
     <use xlink:href="#m5b442e90b8" x="134.288068" y="172.606844" style="stroke: #000000; stroke-linejoin: miter"/>
     <use xlink:href="#m5b442e90b8" x="141.389886" y="193.825477" style="stroke: #000000; stroke-linejoin: miter"/>
     <use xlink:href="#m5b442e90b8" x="148.491705" y="229.147592" style="stroke: #000000; stroke-linejoin: miter"/>
     <use xlink:href="#m5b442e90b8" x="162.695341" y="250.28432" style="stroke: #000000; stroke-linejoin: miter"/>
     <use xlink:href="#m5b442e90b8" x="176.898977" y="262.554191" style="stroke: #000000; stroke-linejoin: miter"/>
     <use xlink:href="#m5b442e90b8" x="191.102614" y="291.849696" style="stroke: #000000; stroke-linejoin: miter"/>
     <use xlink:href="#m5b442e90b8" x="276.324432" y="307.8" style="stroke: #000000; stroke-linejoin: miter"/>
    </g>
   </g>
   <g id="line2d_16">
    <path d="M 105.880795 307.8 
L 106.590977 306.442375 
L 107.301159 302.565009 
L 108.721523 291.142056 
L 110.852068 272.847189 
L 112.272432 262.567959 
L 113.692795 254.392807 
L 115.113159 248.240102 
L 115.823341 245.843645 
L 116.533523 243.849913 
L 117.243705 242.220255 
L 117.953886 240.917188 
L 118.664068 239.905237 
L 119.37425 239.151395 
L 120.084432 238.625344 
L 120.794614 238.299502 
L 121.504795 238.148965 
L 122.214977 238.151383 
L 122.925159 238.28679 
L 124.345523 238.887524 
L 125.765886 239.832025 
L 127.18625 241.027428 
L 129.316795 243.138449 
L 132.867705 247.10901 
L 142.100068 257.683086 
L 146.361159 262.156317 
L 150.62225 266.277665 
L 154.883341 270.048318 
L 159.144432 273.486267 
L 163.405523 276.615531 
L 167.666614 279.461416 
L 171.927705 282.04849 
L 176.188795 284.399796 
L 181.160068 286.873267 
L 186.131341 289.085386 
L 191.102614 291.063706 
L 196.784068 293.069907 
L 202.465523 294.835629 
L 208.857159 296.570367 
L 215.248795 298.072984 
L 222.350614 299.50795 
L 230.162614 300.843154 
L 238.684795 302.05578 
L 247.917159 303.132138 
L 257.859705 304.066869 
L 269.222614 304.908223 
L 282.005886 305.630334 
L 296.919705 306.248236 
L 314.67425 306.758807 
L 337.400068 307.175238 
L 367.227705 307.48042 
L 410.548795 307.67929 
L 460.971705 307.761133 
L 460.971705 307.761133 
" clip-path="url(#p1dec1dfbfc)" style="fill: none; stroke: #000000; stroke-width: 2; stroke-linecap: square"/>
   </g>
   <g id="line2d_17">
    <path d="M 105.880795 303.451118 
L 107.65625 212.119316 
L 109.431705 141.446023 
L 111.207159 109.915308 
L 112.982614 115.35009 
L 116.533523 137.097141 
L 120.084432 144.709005 
L 123.635341 171.890838 
L 127.18625 200.158569 
L 130.737159 226.254503 
L 134.288068 240.38969 
L 141.389886 255.610776 
L 148.491705 269.745963 
L 162.695341 282.792608 
L 176.898977 290.404473 
L 191.102614 296.927795 
L 276.324432 304.537018 
" clip-path="url(#p1dec1dfbfc)" style="fill: none; stroke-dasharray: 3.7,1.6; stroke-dashoffset: 0; stroke: #000000"/>
    <g clip-path="url(#p1dec1dfbfc)">
     <use xlink:href="#m5b442e90b8" x="105.880795" y="303.451118" style="stroke: #000000; stroke-linejoin: miter"/>
     <use xlink:href="#m5b442e90b8" x="107.65625" y="212.119316" style="stroke: #000000; stroke-linejoin: miter"/>
     <use xlink:href="#m5b442e90b8" x="109.431705" y="141.446023" style="stroke: #000000; stroke-linejoin: miter"/>
     <use xlink:href="#m5b442e90b8" x="111.207159" y="109.915308" style="stroke: #000000; stroke-linejoin: miter"/>
     <use xlink:href="#m5b442e90b8" x="112.982614" y="115.35009" style="stroke: #000000; stroke-linejoin: miter"/>
     <use xlink:href="#m5b442e90b8" x="116.533523" y="137.097141" style="stroke: #000000; stroke-linejoin: miter"/>
     <use xlink:href="#m5b442e90b8" x="120.084432" y="144.709005" style="stroke: #000000; stroke-linejoin: miter"/>
     <use xlink:href="#m5b442e90b8" x="123.635341" y="171.890838" style="stroke: #000000; stroke-linejoin: miter"/>
     <use xlink:href="#m5b442e90b8" x="127.18625" y="200.158569" style="stroke: #000000; stroke-linejoin: miter"/>
     <use xlink:href="#m5b442e90b8" x="130.737159" y="226.254503" style="stroke: #000000; stroke-linejoin: miter"/>
     <use xlink:href="#m5b442e90b8" x="134.288068" y="240.38969" style="stroke: #000000; stroke-linejoin: miter"/>
     <use xlink:href="#m5b442e90b8" x="141.389886" y="255.610776" style="stroke: #000000; stroke-linejoin: miter"/>
     <use xlink:href="#m5b442e90b8" x="148.491705" y="269.745963" style="stroke: #000000; stroke-linejoin: miter"/>
     <use xlink:href="#m5b442e90b8" x="162.695341" y="282.792608" style="stroke: #000000; stroke-linejoin: miter"/>
     <use xlink:href="#m5b442e90b8" x="176.898977" y="290.404473" style="stroke: #000000; stroke-linejoin: miter"/>
     <use xlink:href="#m5b442e90b8" x="191.102614" y="296.927795" style="stroke: #000000; stroke-linejoin: miter"/>
     <use xlink:href="#m5b442e90b8" x="276.324432" y="304.537018" style="stroke: #000000; stroke-linejoin: miter"/>
    </g>
   </g>
   <g id="patch_3">
    <path d="M 88.12625 320.4 
L 88.12625 43.2 
" style="fill: none; stroke: #000000; stroke-width: 0.8; stroke-linejoin: miter; stroke-linecap: square"/>
   </g>
   <g id="patch_4">
    <path d="M 478.72625 320.4 
L 478.72625 43.2 
" style="fill: none; stroke: #000000; stroke-width: 0.8; stroke-linejoin: miter; stroke-linecap: square"/>
   </g>
   <g id="patch_5">
    <path d="M 88.12625 320.4 
L 478.72625 320.4 
" style="fill: none; stroke: #000000; stroke-width: 0.8; stroke-linejoin: miter; stroke-linecap: square"/>
   </g>
   <g id="patch_6">
    <path d="M 88.12625 43.2 
L 478.72625 43.2 
" style="fill: none; stroke: #000000; stroke-width: 0.8; stroke-linejoin: miter; stroke-linecap: square"/>
   </g>
   <g id="legend_1">
    <g id="patch_7">
     <path d="M 332.066875 139.26875 
L 471.72625 139.26875 
Q 473.72625 139.26875 473.72625 137.26875 
L 473.72625 50.2 
Q 473.72625 48.2 471.72625 48.2 
L 332.066875 48.2 
Q 330.066875 48.2 330.066875 50.2 
L 330.066875 137.26875 
Q 330.066875 139.26875 332.066875 139.26875 
z
" style="fill: #ffffff; opacity: 0.8; stroke: #cccccc; stroke-linejoin: miter"/>
    </g>
    <g id="line2d_18">
     <path d="M 334.066875 56.298437 
L 354.066875 56.298437 
" style="fill: none; stroke: #000000; stroke-width: 2; stroke-linecap: square"/>
    </g>
    <g id="line2d_19"/>
    <g id="text_14">
     <!-- RIV25 (1) -->
     <g transform="translate(362.066875 59.798437) scale(0.1 -0.1)">
      <defs>
       <path id="DejaVuSans-52" d="M 2841 2188 
Q 3044 2119 3236 1894 
Q 3428 1669 3622 1275 
L 4263 0 
L 3584 0 
L 2988 1197 
Q 2756 1666 2539 1819 
Q 2322 1972 1947 1972 
L 1259 1972 
L 1259 0 
L 628 0 
L 628 4666 
L 2053 4666 
Q 2853 4666 3247 4331 
Q 3641 3997 3641 3322 
Q 3641 2881 3436 2590 
Q 3231 2300 2841 2188 
z
M 1259 4147 
L 1259 2491 
L 2053 2491 
Q 2509 2491 2742 2702 
Q 2975 2913 2975 3322 
Q 2975 3731 2742 3939 
Q 2509 4147 2053 4147 
L 1259 4147 
z
" transform="scale(0.015625)"/>
       <path id="DejaVuSans-49" d="M 628 4666 
L 1259 4666 
L 1259 0 
L 628 0 
L 628 4666 
z
" transform="scale(0.015625)"/>
       <path id="DejaVuSans-56" d="M 1831 0 
L 50 4666 
L 709 4666 
L 2188 738 
L 3669 4666 
L 4325 4666 
L 2547 0 
L 1831 0 
z
" transform="scale(0.015625)"/>
       <path id="DejaVuSans-20" transform="scale(0.015625)"/>
       <path id="DejaVuSans-28" d="M 1984 4856 
Q 1566 4138 1362 3434 
Q 1159 2731 1159 2009 
Q 1159 1288 1364 580 
Q 1569 -128 1984 -844 
L 1484 -844 
Q 1016 -109 783 600 
Q 550 1309 550 2009 
Q 550 2706 781 3412 
Q 1013 4119 1484 4856 
L 1984 4856 
z
" transform="scale(0.015625)"/>
       <path id="DejaVuSans-29" d="M 513 4856 
L 1013 4856 
Q 1481 4119 1714 3412 
Q 1947 2706 1947 2009 
Q 1947 1309 1714 600 
Q 1481 -109 1013 -844 
L 513 -844 
Q 928 -128 1133 580 
Q 1338 1288 1338 2009 
Q 1338 2731 1133 3434 
Q 928 4138 513 4856 
z
" transform="scale(0.015625)"/>
      </defs>
      <use xlink:href="#DejaVuSans-52"/>
      <use xlink:href="#DejaVuSans-49" transform="translate(69.482422 0)"/>
      <use xlink:href="#DejaVuSans-56" transform="translate(98.974609 0)"/>
      <use xlink:href="#DejaVuSans-32" transform="translate(167.382812 0)"/>
      <use xlink:href="#DejaVuSans-35" transform="translate(231.005859 0)"/>
      <use xlink:href="#DejaVuSans-20" transform="translate(294.628906 0)"/>
      <use xlink:href="#DejaVuSans-28" transform="translate(326.416016 0)"/>
      <use xlink:href="#DejaVuSans-31" transform="translate(365.429688 0)"/>
      <use xlink:href="#DejaVuSans-29" transform="translate(429.052734 0)"/>
     </g>
    </g>
    <g id="LineCollection_4">
     <path d="M 344.066875 75.976562 
L 344.066875 65.976562 
" style="fill: none; stroke: #000000"/>
    </g>
    <g id="line2d_20">
     <path d="M 334.066875 70.976562 
L 354.066875 70.976562 
" style="fill: none; stroke-dasharray: 3.7,1.6; stroke-dashoffset: 0; stroke: #000000"/>
    </g>
    <g id="line2d_21">
     <g>
      <use xlink:href="#m5b442e90b8" x="344.066875" y="70.976562" style="stroke: #000000; stroke-linejoin: miter"/>
     </g>
    </g>
    <g id="text_15">
     <!-- RIV25 (1)±SD (n=12) -->
     <g transform="translate(362.066875 74.476562) scale(0.1 -0.1)">
      <defs>
       <path id="DejaVuSans-b1" d="M 2944 4013 
L 2944 2803 
L 4684 2803 
L 4684 2272 
L 2944 2272 
L 2944 1063 
L 2419 1063 
L 2419 2272 
L 678 2272 
L 678 2803 
L 2419 2803 
L 2419 4013 
L 2944 4013 
z
M 678 531 
L 4684 531 
L 4684 0 
L 678 0 
L 678 531 
z
" transform="scale(0.015625)"/>
       <path id="DejaVuSans-53" d="M 3425 4513 
L 3425 3897 
Q 3066 4069 2747 4153 
Q 2428 4238 2131 4238 
Q 1616 4238 1336 4038 
Q 1056 3838 1056 3469 
Q 1056 3159 1242 3001 
Q 1428 2844 1947 2747 
L 2328 2669 
Q 3034 2534 3370 2195 
Q 3706 1856 3706 1288 
Q 3706 609 3251 259 
Q 2797 -91 1919 -91 
Q 1588 -91 1214 -16 
Q 841 59 441 206 
L 441 856 
Q 825 641 1194 531 
Q 1563 422 1919 422 
Q 2459 422 2753 634 
Q 3047 847 3047 1241 
Q 3047 1584 2836 1778 
Q 2625 1972 2144 2069 
L 1759 2144 
Q 1053 2284 737 2584 
Q 422 2884 422 3419 
Q 422 4038 858 4394 
Q 1294 4750 2059 4750 
Q 2388 4750 2728 4690 
Q 3069 4631 3425 4513 
z
" transform="scale(0.015625)"/>
       <path id="DejaVuSans-44" d="M 1259 4147 
L 1259 519 
L 2022 519 
Q 2988 519 3436 956 
Q 3884 1394 3884 2338 
Q 3884 3275 3436 3711 
Q 2988 4147 2022 4147 
L 1259 4147 
z
M 628 4666 
L 1925 4666 
Q 3281 4666 3915 4102 
Q 4550 3538 4550 2338 
Q 4550 1131 3912 565 
Q 3275 0 1925 0 
L 628 0 
L 628 4666 
z
" transform="scale(0.015625)"/>
       <path id="DejaVuSans-6e" d="M 3513 2113 
L 3513 0 
L 2938 0 
L 2938 2094 
Q 2938 2591 2744 2837 
Q 2550 3084 2163 3084 
Q 1697 3084 1428 2787 
Q 1159 2491 1159 1978 
L 1159 0 
L 581 0 
L 581 3500 
L 1159 3500 
L 1159 2956 
Q 1366 3272 1645 3428 
Q 1925 3584 2291 3584 
Q 2894 3584 3203 3211 
Q 3513 2838 3513 2113 
z
" transform="scale(0.015625)"/>
       <path id="DejaVuSans-3d" d="M 678 2906 
L 4684 2906 
L 4684 2381 
L 678 2381 
L 678 2906 
z
M 678 1631 
L 4684 1631 
L 4684 1100 
L 678 1100 
L 678 1631 
z
" transform="scale(0.015625)"/>
      </defs>
      <use xlink:href="#DejaVuSans-52"/>
      <use xlink:href="#DejaVuSans-49" transform="translate(69.482422 0)"/>
      <use xlink:href="#DejaVuSans-56" transform="translate(98.974609 0)"/>
      <use xlink:href="#DejaVuSans-32" transform="translate(167.382812 0)"/>
      <use xlink:href="#DejaVuSans-35" transform="translate(231.005859 0)"/>
      <use xlink:href="#DejaVuSans-20" transform="translate(294.628906 0)"/>
      <use xlink:href="#DejaVuSans-28" transform="translate(326.416016 0)"/>
      <use xlink:href="#DejaVuSans-31" transform="translate(365.429688 0)"/>
      <use xlink:href="#DejaVuSans-29" transform="translate(429.052734 0)"/>
      <use xlink:href="#DejaVuSans-b1" transform="translate(468.066406 0)"/>
      <use xlink:href="#DejaVuSans-53" transform="translate(551.855469 0)"/>
      <use xlink:href="#DejaVuSans-44" transform="translate(615.332031 0)"/>
      <use xlink:href="#DejaVuSans-20" transform="translate(692.333984 0)"/>
      <use xlink:href="#DejaVuSans-28" transform="translate(724.121094 0)"/>
      <use xlink:href="#DejaVuSans-6e" transform="translate(763.134766 0)"/>
      <use xlink:href="#DejaVuSans-3d" transform="translate(826.513672 0)"/>
      <use xlink:href="#DejaVuSans-31" transform="translate(910.302734 0)"/>
      <use xlink:href="#DejaVuSans-32" transform="translate(973.925781 0)"/>
      <use xlink:href="#DejaVuSans-29" transform="translate(1037.548828 0)"/>
     </g>
    </g>
    <g id="line2d_22">
     <path d="M 334.066875 85.654687 
L 354.066875 85.654687 
" style="fill: none; stroke: #000000; stroke-width: 2; stroke-linecap: square"/>
    </g>
    <g id="line2d_23"/>
    <g id="text_16">
     <!-- RIV25 (2) -->
     <g transform="translate(362.066875 89.154687) scale(0.1 -0.1)">
      <use xlink:href="#DejaVuSans-52"/>
      <use xlink:href="#DejaVuSans-49" transform="translate(69.482422 0)"/>
      <use xlink:href="#DejaVuSans-56" transform="translate(98.974609 0)"/>
      <use xlink:href="#DejaVuSans-32" transform="translate(167.382812 0)"/>
      <use xlink:href="#DejaVuSans-35" transform="translate(231.005859 0)"/>
      <use xlink:href="#DejaVuSans-20" transform="translate(294.628906 0)"/>
      <use xlink:href="#DejaVuSans-28" transform="translate(326.416016 0)"/>
      <use xlink:href="#DejaVuSans-32" transform="translate(365.429688 0)"/>
      <use xlink:href="#DejaVuSans-29" transform="translate(429.052734 0)"/>
     </g>
    </g>
    <g id="LineCollection_5">
     <path d="M 344.066875 105.332812 
L 344.066875 95.332812 
" style="fill: none; stroke: #000000"/>
    </g>
    <g id="line2d_24">
     <path d="M 334.066875 100.332812 
L 354.066875 100.332812 
" style="fill: none; stroke-dasharray: 3.7,1.6; stroke-dashoffset: 0; stroke: #000000"/>
    </g>
    <g id="line2d_25">
     <g>
      <use xlink:href="#m5b442e90b8" x="344.066875" y="100.332812" style="stroke: #000000; stroke-linejoin: miter"/>
     </g>
    </g>
    <g id="text_17">
     <!-- RIV25 (2)±SD (n=11) -->
     <g transform="translate(362.066875 103.832812) scale(0.1 -0.1)">
      <use xlink:href="#DejaVuSans-52"/>
      <use xlink:href="#DejaVuSans-49" transform="translate(69.482422 0)"/>
      <use xlink:href="#DejaVuSans-56" transform="translate(98.974609 0)"/>
      <use xlink:href="#DejaVuSans-32" transform="translate(167.382812 0)"/>
      <use xlink:href="#DejaVuSans-35" transform="translate(231.005859 0)"/>
      <use xlink:href="#DejaVuSans-20" transform="translate(294.628906 0)"/>
      <use xlink:href="#DejaVuSans-28" transform="translate(326.416016 0)"/>
      <use xlink:href="#DejaVuSans-32" transform="translate(365.429688 0)"/>
      <use xlink:href="#DejaVuSans-29" transform="translate(429.052734 0)"/>
      <use xlink:href="#DejaVuSans-b1" transform="translate(468.066406 0)"/>
      <use xlink:href="#DejaVuSans-53" transform="translate(551.855469 0)"/>
      <use xlink:href="#DejaVuSans-44" transform="translate(615.332031 0)"/>
      <use xlink:href="#DejaVuSans-20" transform="translate(692.333984 0)"/>
      <use xlink:href="#DejaVuSans-28" transform="translate(724.121094 0)"/>
      <use xlink:href="#DejaVuSans-6e" transform="translate(763.134766 0)"/>
      <use xlink:href="#DejaVuSans-3d" transform="translate(826.513672 0)"/>
      <use xlink:href="#DejaVuSans-31" transform="translate(910.302734 0)"/>
      <use xlink:href="#DejaVuSans-31" transform="translate(973.925781 0)"/>
      <use xlink:href="#DejaVuSans-29" transform="translate(1037.548828 0)"/>
     </g>
    </g>
    <g id="line2d_26">
     <path d="M 334.066875 115.010937 
L 354.066875 115.010937 
" style="fill: none; stroke: #000000; stroke-width: 2; stroke-linecap: square"/>
    </g>
    <g id="line2d_27"/>
    <g id="text_18">
     <!-- RIV25 (3) -->
     <g transform="translate(362.066875 118.510937) scale(0.1 -0.1)">
      <use xlink:href="#DejaVuSans-52"/>
      <use xlink:href="#DejaVuSans-49" transform="translate(69.482422 0)"/>
      <use xlink:href="#DejaVuSans-56" transform="translate(98.974609 0)"/>
      <use xlink:href="#DejaVuSans-32" transform="translate(167.382812 0)"/>
      <use xlink:href="#DejaVuSans-35" transform="translate(231.005859 0)"/>
      <use xlink:href="#DejaVuSans-20" transform="translate(294.628906 0)"/>
      <use xlink:href="#DejaVuSans-28" transform="translate(326.416016 0)"/>
      <use xlink:href="#DejaVuSans-33" transform="translate(365.429688 0)"/>
      <use xlink:href="#DejaVuSans-29" transform="translate(429.052734 0)"/>
     </g>
    </g>
    <g id="LineCollection_6">
     <path d="M 344.066875 134.689062 
L 344.066875 124.689062 
" style="fill: none; stroke: #000000"/>
    </g>
    <g id="line2d_28">
     <path d="M 334.066875 129.689062 
L 354.066875 129.689062 
" style="fill: none; stroke-dasharray: 3.7,1.6; stroke-dashoffset: 0; stroke: #000000"/>
    </g>
    <g id="line2d_29">
     <g>
      <use xlink:href="#m5b442e90b8" x="344.066875" y="129.689062" style="stroke: #000000; stroke-linejoin: miter"/>
     </g>
    </g>
    <g id="text_19">
     <!-- RIV25 (3)±SD (n=12) -->
     <g transform="translate(362.066875 133.189062) scale(0.1 -0.1)">
      <use xlink:href="#DejaVuSans-52"/>
      <use xlink:href="#DejaVuSans-49" transform="translate(69.482422 0)"/>
      <use xlink:href="#DejaVuSans-56" transform="translate(98.974609 0)"/>
      <use xlink:href="#DejaVuSans-32" transform="translate(167.382812 0)"/>
      <use xlink:href="#DejaVuSans-35" transform="translate(231.005859 0)"/>
      <use xlink:href="#DejaVuSans-20" transform="translate(294.628906 0)"/>
      <use xlink:href="#DejaVuSans-28" transform="translate(326.416016 0)"/>
      <use xlink:href="#DejaVuSans-33" transform="translate(365.429688 0)"/>
      <use xlink:href="#DejaVuSans-29" transform="translate(429.052734 0)"/>
      <use xlink:href="#DejaVuSans-b1" transform="translate(468.066406 0)"/>
      <use xlink:href="#DejaVuSans-53" transform="translate(551.855469 0)"/>
      <use xlink:href="#DejaVuSans-44" transform="translate(615.332031 0)"/>
      <use xlink:href="#DejaVuSans-20" transform="translate(692.333984 0)"/>
      <use xlink:href="#DejaVuSans-28" transform="translate(724.121094 0)"/>
      <use xlink:href="#DejaVuSans-6e" transform="translate(763.134766 0)"/>
      <use xlink:href="#DejaVuSans-3d" transform="translate(826.513672 0)"/>
      <use xlink:href="#DejaVuSans-31" transform="translate(910.302734 0)"/>
      <use xlink:href="#DejaVuSans-32" transform="translate(973.925781 0)"/>
      <use xlink:href="#DejaVuSans-29" transform="translate(1037.548828 0)"/>
     </g>
    </g>
   </g>
  </g>
  <g id="text_20">
   <!-- Lenard2025 (healthy) -->
   <g transform="translate(124.552031 26.196094) scale(0.25 -0.25)">
    <defs>
     <path id="DejaVuSans-Bold-4c" d="M 588 4666 
L 1791 4666 
L 1791 909 
L 3903 909 
L 3903 0 
L 588 0 
L 588 4666 
z
" transform="scale(0.015625)"/>
     <path id="DejaVuSans-Bold-64" d="M 2919 2988 
L 2919 4863 
L 4044 4863 
L 4044 0 
L 2919 0 
L 2919 506 
Q 2688 197 2409 53 
Q 2131 -91 1766 -91 
Q 1119 -91 703 423 
Q 288 938 288 1747 
Q 288 2556 703 3070 
Q 1119 3584 1766 3584 
Q 2128 3584 2408 3439 
Q 2688 3294 2919 2988 
z
M 2181 722 
Q 2541 722 2730 984 
Q 2919 1247 2919 1747 
Q 2919 2247 2730 2509 
Q 2541 2772 2181 2772 
Q 1825 2772 1636 2509 
Q 1447 2247 1447 1747 
Q 1447 1247 1636 984 
Q 1825 722 2181 722 
z
" transform="scale(0.015625)"/>
     <path id="DejaVuSans-Bold-32" d="M 1844 884 
L 3897 884 
L 3897 0 
L 506 0 
L 506 884 
L 2209 2388 
Q 2438 2594 2547 2791 
Q 2656 2988 2656 3200 
Q 2656 3528 2436 3728 
Q 2216 3928 1850 3928 
Q 1569 3928 1234 3808 
Q 900 3688 519 3450 
L 519 4475 
Q 925 4609 1322 4679 
Q 1719 4750 2100 4750 
Q 2938 4750 3402 4381 
Q 3866 4013 3866 3353 
Q 3866 2972 3669 2642 
Q 3472 2313 2841 1759 
L 1844 884 
z
" transform="scale(0.015625)"/>
     <path id="DejaVuSans-Bold-30" d="M 2944 2338 
Q 2944 3213 2780 3570 
Q 2616 3928 2228 3928 
Q 1841 3928 1675 3570 
Q 1509 3213 1509 2338 
Q 1509 1453 1675 1090 
Q 1841 728 2228 728 
Q 2613 728 2778 1090 
Q 2944 1453 2944 2338 
z
M 4147 2328 
Q 4147 1169 3647 539 
Q 3147 -91 2228 -91 
Q 1306 -91 806 539 
Q 306 1169 306 2328 
Q 306 3491 806 4120 
Q 1306 4750 2228 4750 
Q 3147 4750 3647 4120 
Q 4147 3491 4147 2328 
z
" transform="scale(0.015625)"/>
     <path id="DejaVuSans-Bold-35" d="M 678 4666 
L 3669 4666 
L 3669 3781 
L 1638 3781 
L 1638 3059 
Q 1775 3097 1914 3117 
Q 2053 3138 2203 3138 
Q 3056 3138 3531 2711 
Q 4006 2284 4006 1522 
Q 4006 766 3489 337 
Q 2972 -91 2053 -91 
Q 1656 -91 1267 -14 
Q 878 63 494 219 
L 494 1166 
Q 875 947 1217 837 
Q 1559 728 1863 728 
Q 2300 728 2551 942 
Q 2803 1156 2803 1522 
Q 2803 1891 2551 2103 
Q 2300 2316 1863 2316 
Q 1603 2316 1309 2248 
Q 1016 2181 678 2041 
L 678 4666 
z
" transform="scale(0.015625)"/>
     <path id="DejaVuSans-Bold-28" d="M 2413 -844 
L 1484 -844 
Q 1006 -72 778 623 
Q 550 1319 550 2003 
Q 550 2688 779 3389 
Q 1009 4091 1484 4856 
L 2413 4856 
Q 2013 4116 1813 3408 
Q 1613 2700 1613 2009 
Q 1613 1319 1811 609 
Q 2009 -100 2413 -844 
z
" transform="scale(0.015625)"/>
     <path id="DejaVuSans-Bold-79" d="M 78 3500 
L 1197 3500 
L 2138 1125 
L 2938 3500 
L 4056 3500 
L 2584 -331 
Q 2363 -916 2067 -1148 
Q 1772 -1381 1288 -1381 
L 641 -1381 
L 641 -647 
L 991 -647 
Q 1275 -647 1404 -556 
Q 1534 -466 1606 -231 
L 1638 -134 
L 78 3500 
z
" transform="scale(0.015625)"/>
     <path id="DejaVuSans-Bold-29" d="M 513 -844 
Q 913 -100 1113 609 
Q 1313 1319 1313 2009 
Q 1313 2700 1113 3408 
Q 913 4116 513 4856 
L 1441 4856 
Q 1916 4091 2145 3389 
Q 2375 2688 2375 2003 
Q 2375 1319 2147 623 
Q 1919 -72 1441 -844 
L 513 -844 
z
" transform="scale(0.015625)"/>
    </defs>
    <use xlink:href="#DejaVuSans-Bold-4c"/>
    <use xlink:href="#DejaVuSans-Bold-65" transform="translate(63.720703 0)"/>
    <use xlink:href="#DejaVuSans-Bold-6e" transform="translate(131.542969 0)"/>
    <use xlink:href="#DejaVuSans-Bold-61" transform="translate(202.734375 0)"/>
    <use xlink:href="#DejaVuSans-Bold-72" transform="translate(270.214844 0)"/>
    <use xlink:href="#DejaVuSans-Bold-64" transform="translate(319.53125 0)"/>
    <use xlink:href="#DejaVuSans-Bold-32" transform="translate(391.113281 0)"/>
    <use xlink:href="#DejaVuSans-Bold-30" transform="translate(460.693359 0)"/>
    <use xlink:href="#DejaVuSans-Bold-32" transform="translate(530.273438 0)"/>
    <use xlink:href="#DejaVuSans-Bold-35" transform="translate(599.853516 0)"/>
    <use xlink:href="#DejaVuSans-Bold-20" transform="translate(669.433594 0)"/>
    <use xlink:href="#DejaVuSans-Bold-28" transform="translate(704.248047 0)"/>
    <use xlink:href="#DejaVuSans-Bold-68" transform="translate(749.951172 0)"/>
    <use xlink:href="#DejaVuSans-Bold-65" transform="translate(821.142578 0)"/>
    <use xlink:href="#DejaVuSans-Bold-61" transform="translate(888.964844 0)"/>
    <use xlink:href="#DejaVuSans-Bold-6c" transform="translate(956.445312 0)"/>
    <use xlink:href="#DejaVuSans-Bold-74" transform="translate(990.722656 0)"/>
    <use xlink:href="#DejaVuSans-Bold-68" transform="translate(1038.525391 0)"/>
    <use xlink:href="#DejaVuSans-Bold-79" transform="translate(1109.716797 0)"/>
    <use xlink:href="#DejaVuSans-Bold-29" transform="translate(1174.902344 0)"/>
   </g>
  </g>
 </g>
 <defs>
  <clipPath id="p1dec1dfbfc">
   <rect x="88.12625" y="43.2" width="390.6" height="277.2"/>
  </clipPath>
 </defs>
</svg>
