<?xml version="1.0" encoding="utf-8" standalone="no"?>
<!DOCTYPE svg PUBLIC "-//W3C//DTD SVG 1.1//EN"
  "http://www.w3.org/Graphics/SVG/1.1/DTD/svg11.dtd">
<svg xmlns:xlink="http://www.w3.org/1999/xlink" width="457.295pt" height="683.737812pt" viewBox="0 0 457.295 683.737812" xmlns="http://www.w3.org/2000/svg" version="1.1">
 <metadata>
  <rdf:RDF xmlns:dc="http://purl.org/dc/elements/1.1/" xmlns:cc="http://creativecommons.org/ns#" xmlns:rdf="http://www.w3.org/1999/02/22-rdf-syntax-ns#">
   <cc:Work>
    <dc:type rdf:resource="http://purl.org/dc/dcmitype/StillImage"/>
    <dc:date>2025-07-19T10:59:17.142542</dc:date>
    <dc:format>image/svg+xml</dc:format>
    <dc:creator>
     <cc:Agent>
      <dc:title>Matplotlib v3.9.1, https://matplotlib.org/</dc:title>
     </cc:Agent>
    </dc:creator>
   </cc:Work>
  </rdf:RDF>
 </metadata>
 <defs>
  <style type="text/css">*{stroke-linejoin: round; stroke-linecap: butt}</style>
 </defs>
 <g id="figure_1">
  <g id="patch_1">
   <path d="M 0 683.737812 
L 457.295 683.737812 
L 457.295 0 
L 0 0 
z
" style="fill: #ffffff"/>
  </g>
  <g id="axes_1">
   <g id="patch_2">
    <path d="M 59.495 320.243478 
L 450.095 320.243478 
L 450.095 79.2 
L 59.495 79.2 
z
" style="fill: #ffffff"/>
   </g>
   <g id="matplotlib.axis_1">
    <g id="xtick_1">
     <g id="line2d_1">
      <defs>
       <path id="mdbfbc4c9ae" d="M 0 0 
L 0 3.5 
" style="stroke: #000000; stroke-width: 0.8"/>
      </defs>
      <g>
       <use xlink:href="#mdbfbc4c9ae" x="77.249545" y="320.243478" style="stroke: #000000; stroke-width: 0.8"/>
      </g>
     </g>
     <g id="text_1">
      <!-- 0 -->
      <g transform="translate(72.47767 338.641135) scale(0.15 -0.15)">
       <defs>
        <path id="DejaVuSans-30" d="M 2034 4250 
Q 1547 4250 1301 3770 
Q 1056 3291 1056 2328 
Q 1056 1369 1301 889 
Q 1547 409 2034 409 
Q 2525 409 2770 889 
Q 3016 1369 3016 2328 
Q 3016 3291 2770 3770 
Q 2525 4250 2034 4250 
z
M 2034 4750 
Q 2819 4750 3233 4129 
Q 3647 3509 3647 2328 
Q 3647 1150 3233 529 
Q 2819 -91 2034 -91 
Q 1250 -91 836 529 
Q 422 1150 422 2328 
Q 422 3509 836 4129 
Q 1250 4750 2034 4750 
z
" transform="scale(0.015625)"/>
       </defs>
       <use xlink:href="#DejaVuSans-30"/>
      </g>
     </g>
    </g>
    <g id="xtick_2">
     <g id="line2d_2">
      <g>
       <use xlink:href="#mdbfbc4c9ae" x="148.267727" y="320.243478" style="stroke: #000000; stroke-width: 0.8"/>
      </g>
     </g>
     <g id="text_2">
      <!-- 10 -->
      <g transform="translate(138.723977 338.641135) scale(0.15 -0.15)">
       <defs>
        <path id="DejaVuSans-31" d="M 794 531 
L 1825 531 
L 1825 4091 
L 703 3866 
L 703 4441 
L 1819 4666 
L 2450 4666 
L 2450 531 
L 3481 531 
L 3481 0 
L 794 0 
L 794 531 
z
" transform="scale(0.015625)"/>
       </defs>
       <use xlink:href="#DejaVuSans-31"/>
       <use xlink:href="#DejaVuSans-30" x="63.623047"/>
      </g>
     </g>
    </g>
    <g id="xtick_3">
     <g id="line2d_3">
      <g>
       <use xlink:href="#mdbfbc4c9ae" x="219.285909" y="320.243478" style="stroke: #000000; stroke-width: 0.8"/>
      </g>
     </g>
     <g id="text_3">
      <!-- 20 -->
      <g transform="translate(209.742159 338.641135) scale(0.15 -0.15)">
       <defs>
        <path id="DejaVuSans-32" d="M 1228 531 
L 3431 531 
L 3431 0 
L 469 0 
L 469 531 
Q 828 903 1448 1529 
Q 2069 2156 2228 2338 
Q 2531 2678 2651 2914 
Q 2772 3150 2772 3378 
Q 2772 3750 2511 3984 
Q 2250 4219 1831 4219 
Q 1534 4219 1204 4116 
Q 875 4013 500 3803 
L 500 4441 
Q 881 4594 1212 4672 
Q 1544 4750 1819 4750 
Q 2544 4750 2975 4387 
Q 3406 4025 3406 3419 
Q 3406 3131 3298 2873 
Q 3191 2616 2906 2266 
Q 2828 2175 2409 1742 
Q 1991 1309 1228 531 
z
" transform="scale(0.015625)"/>
       </defs>
       <use xlink:href="#DejaVuSans-32"/>
       <use xlink:href="#DejaVuSans-30" x="63.623047"/>
      </g>
     </g>
    </g>
    <g id="xtick_4">
     <g id="line2d_4">
      <g>
       <use xlink:href="#mdbfbc4c9ae" x="290.304091" y="320.243478" style="stroke: #000000; stroke-width: 0.8"/>
      </g>
     </g>
     <g id="text_4">
      <!-- 30 -->
      <g transform="translate(280.760341 338.641135) scale(0.15 -0.15)">
       <defs>
        <path id="DejaVuSans-33" d="M 2597 2516 
Q 3050 2419 3304 2112 
Q 3559 1806 3559 1356 
Q 3559 666 3084 287 
Q 2609 -91 1734 -91 
Q 1441 -91 1130 -33 
Q 819 25 488 141 
L 488 750 
Q 750 597 1062 519 
Q 1375 441 1716 441 
Q 2309 441 2620 675 
Q 2931 909 2931 1356 
Q 2931 1769 2642 2001 
Q 2353 2234 1838 2234 
L 1294 2234 
L 1294 2753 
L 1863 2753 
Q 2328 2753 2575 2939 
Q 2822 3125 2822 3475 
Q 2822 3834 2567 4026 
Q 2313 4219 1838 4219 
Q 1578 4219 1281 4162 
Q 984 4106 628 3988 
L 628 4550 
Q 988 4650 1302 4700 
Q 1616 4750 1894 4750 
Q 2613 4750 3031 4423 
Q 3450 4097 3450 3541 
Q 3450 3153 3228 2886 
Q 3006 2619 2597 2516 
z
" transform="scale(0.015625)"/>
       </defs>
       <use xlink:href="#DejaVuSans-33"/>
       <use xlink:href="#DejaVuSans-30" x="63.623047"/>
      </g>
     </g>
    </g>
    <g id="xtick_5">
     <g id="line2d_5">
      <g>
       <use xlink:href="#mdbfbc4c9ae" x="361.322273" y="320.243478" style="stroke: #000000; stroke-width: 0.8"/>
      </g>
     </g>
     <g id="text_5">
      <!-- 40 -->
      <g transform="translate(351.778523 338.641135) scale(0.15 -0.15)">
       <defs>
        <path id="DejaVuSans-34" d="M 2419 4116 
L 825 1625 
L 2419 1625 
L 2419 4116 
z
M 2253 4666 
L 3047 4666 
L 3047 1625 
L 3713 1625 
L 3713 1100 
L 3047 1100 
L 3047 0 
L 2419 0 
L 2419 1100 
L 313 1100 
L 313 1709 
L 2253 4666 
z
" transform="scale(0.015625)"/>
       </defs>
       <use xlink:href="#DejaVuSans-34"/>
       <use xlink:href="#DejaVuSans-30" x="63.623047"/>
      </g>
     </g>
    </g>
    <g id="xtick_6">
     <g id="line2d_6">
      <g>
       <use xlink:href="#mdbfbc4c9ae" x="432.340455" y="320.243478" style="stroke: #000000; stroke-width: 0.8"/>
      </g>
     </g>
     <g id="text_6">
      <!-- 50 -->
      <g transform="translate(422.796705 338.641135) scale(0.15 -0.15)">
       <defs>
        <path id="DejaVuSans-35" d="M 691 4666 
L 3169 4666 
L 3169 4134 
L 1269 4134 
L 1269 2991 
Q 1406 3038 1543 3061 
Q 1681 3084 1819 3084 
Q 2600 3084 3056 2656 
Q 3513 2228 3513 1497 
Q 3513 744 3044 326 
Q 2575 -91 1722 -91 
Q 1428 -91 1123 -41 
Q 819 9 494 109 
L 494 744 
Q 775 591 1075 516 
Q 1375 441 1709 441 
Q 2250 441 2565 725 
Q 2881 1009 2881 1497 
Q 2881 1984 2565 2268 
Q 2250 2553 1709 2553 
Q 1456 2553 1204 2497 
Q 953 2441 691 2322 
L 691 4666 
z
" transform="scale(0.015625)"/>
       </defs>
       <use xlink:href="#DejaVuSans-35"/>
       <use xlink:href="#DejaVuSans-30" x="63.623047"/>
      </g>
     </g>
    </g>
    <g id="text_7">
     <!-- time [hr] -->
     <g transform="translate(209.720469 359.437853) scale(0.18 -0.18)">
      <defs>
       <path id="DejaVuSans-Bold-74" d="M 1759 4494 
L 1759 3500 
L 2913 3500 
L 2913 2700 
L 1759 2700 
L 1759 1216 
Q 1759 972 1856 886 
Q 1953 800 2241 800 
L 2816 800 
L 2816 0 
L 1856 0 
Q 1194 0 917 276 
Q 641 553 641 1216 
L 641 2700 
L 84 2700 
L 84 3500 
L 641 3500 
L 641 4494 
L 1759 4494 
z
" transform="scale(0.015625)"/>
       <path id="DejaVuSans-Bold-69" d="M 538 3500 
L 1656 3500 
L 1656 0 
L 538 0 
L 538 3500 
z
M 538 4863 
L 1656 4863 
L 1656 3950 
L 538 3950 
L 538 4863 
z
" transform="scale(0.015625)"/>
       <path id="DejaVuSans-Bold-6d" d="M 3781 2919 
Q 3994 3244 4286 3414 
Q 4578 3584 4928 3584 
Q 5531 3584 5847 3212 
Q 6163 2841 6163 2131 
L 6163 0 
L 5038 0 
L 5038 1825 
Q 5041 1866 5042 1909 
Q 5044 1953 5044 2034 
Q 5044 2406 4934 2573 
Q 4825 2741 4581 2741 
Q 4263 2741 4089 2478 
Q 3916 2216 3909 1719 
L 3909 0 
L 2784 0 
L 2784 1825 
Q 2784 2406 2684 2573 
Q 2584 2741 2328 2741 
Q 2006 2741 1831 2477 
Q 1656 2213 1656 1722 
L 1656 0 
L 531 0 
L 531 3500 
L 1656 3500 
L 1656 2988 
Q 1863 3284 2130 3434 
Q 2397 3584 2719 3584 
Q 3081 3584 3359 3409 
Q 3638 3234 3781 2919 
z
" transform="scale(0.015625)"/>
       <path id="DejaVuSans-Bold-65" d="M 4031 1759 
L 4031 1441 
L 1416 1441 
Q 1456 1047 1700 850 
Q 1944 653 2381 653 
Q 2734 653 3104 758 
Q 3475 863 3866 1075 
L 3866 213 
Q 3469 63 3072 -14 
Q 2675 -91 2278 -91 
Q 1328 -91 801 392 
Q 275 875 275 1747 
Q 275 2603 792 3093 
Q 1309 3584 2216 3584 
Q 3041 3584 3536 3087 
Q 4031 2591 4031 1759 
z
M 2881 2131 
Q 2881 2450 2695 2645 
Q 2509 2841 2209 2841 
Q 1884 2841 1681 2658 
Q 1478 2475 1428 2131 
L 2881 2131 
z
" transform="scale(0.015625)"/>
       <path id="DejaVuSans-Bold-20" transform="scale(0.015625)"/>
       <path id="DejaVuSans-Bold-5b" d="M 550 4863 
L 2491 4863 
L 2491 4159 
L 1613 4159 
L 1613 -141 
L 2491 -141 
L 2491 -844 
L 550 -844 
L 550 4863 
z
" transform="scale(0.015625)"/>
       <path id="DejaVuSans-Bold-68" d="M 4056 2131 
L 4056 0 
L 2931 0 
L 2931 347 
L 2931 1625 
Q 2931 2084 2911 2256 
Q 2891 2428 2841 2509 
Q 2775 2619 2662 2680 
Q 2550 2741 2406 2741 
Q 2056 2741 1856 2470 
Q 1656 2200 1656 1722 
L 1656 0 
L 538 0 
L 538 4863 
L 1656 4863 
L 1656 2988 
Q 1909 3294 2193 3439 
Q 2478 3584 2822 3584 
Q 3428 3584 3742 3212 
Q 4056 2841 4056 2131 
z
" transform="scale(0.015625)"/>
       <path id="DejaVuSans-Bold-72" d="M 3138 2547 
Q 2991 2616 2845 2648 
Q 2700 2681 2553 2681 
Q 2122 2681 1889 2404 
Q 1656 2128 1656 1613 
L 1656 0 
L 538 0 
L 538 3500 
L 1656 3500 
L 1656 2925 
Q 1872 3269 2151 3426 
Q 2431 3584 2822 3584 
Q 2878 3584 2943 3579 
Q 3009 3575 3134 3559 
L 3138 2547 
z
" transform="scale(0.015625)"/>
       <path id="DejaVuSans-Bold-5d" d="M 2375 -844 
L 434 -844 
L 434 -141 
L 1313 -141 
L 1313 4159 
L 434 4159 
L 434 4863 
L 2375 4863 
L 2375 -844 
z
" transform="scale(0.015625)"/>
      </defs>
      <use xlink:href="#DejaVuSans-Bold-74"/>
      <use xlink:href="#DejaVuSans-Bold-69" x="47.802734"/>
      <use xlink:href="#DejaVuSans-Bold-6d" x="82.080078"/>
      <use xlink:href="#DejaVuSans-Bold-65" x="186.279297"/>
      <use xlink:href="#DejaVuSans-Bold-20" x="254.101562"/>
      <use xlink:href="#DejaVuSans-Bold-5b" x="288.916016"/>
      <use xlink:href="#DejaVuSans-Bold-68" x="334.619141"/>
      <use xlink:href="#DejaVuSans-Bold-72" x="405.810547"/>
      <use xlink:href="#DejaVuSans-Bold-5d" x="455.126953"/>
     </g>
    </g>
   </g>
   <g id="matplotlib.axis_2">
    <g id="ytick_1">
     <g id="line2d_7">
      <defs>
       <path id="m8520fa560e" d="M 0 0 
L -3.5 0 
" style="stroke: #000000; stroke-width: 0.8"/>
      </defs>
      <g>
       <use xlink:href="#m8520fa560e" x="59.495" y="291.692542" style="stroke: #000000; stroke-width: 0.8"/>
      </g>
     </g>
     <g id="text_8">
      <!-- 0.0 -->
      <g transform="translate(28.640313 297.39137) scale(0.15 -0.15)">
       <defs>
        <path id="DejaVuSans-2e" d="M 684 794 
L 1344 794 
L 1344 0 
L 684 0 
L 684 794 
z
" transform="scale(0.015625)"/>
       </defs>
       <use xlink:href="#DejaVuSans-30"/>
       <use xlink:href="#DejaVuSans-2e" x="63.623047"/>
       <use xlink:href="#DejaVuSans-30" x="95.410156"/>
      </g>
     </g>
    </g>
    <g id="ytick_2">
     <g id="line2d_8">
      <g>
       <use xlink:href="#m8520fa560e" x="59.495" y="235.519216" style="stroke: #000000; stroke-width: 0.8"/>
      </g>
     </g>
     <g id="text_9">
      <!-- 0.2 -->
      <g transform="translate(28.640313 241.218044) scale(0.15 -0.15)">
       <use xlink:href="#DejaVuSans-30"/>
       <use xlink:href="#DejaVuSans-2e" x="63.623047"/>
       <use xlink:href="#DejaVuSans-32" x="95.410156"/>
      </g>
     </g>
    </g>
    <g id="ytick_3">
     <g id="line2d_9">
      <g>
       <use xlink:href="#m8520fa560e" x="59.495" y="179.34589" style="stroke: #000000; stroke-width: 0.8"/>
      </g>
     </g>
     <g id="text_10">
      <!-- 0.4 -->
      <g transform="translate(28.640313 185.044718) scale(0.15 -0.15)">
       <use xlink:href="#DejaVuSans-30"/>
       <use xlink:href="#DejaVuSans-2e" x="63.623047"/>
       <use xlink:href="#DejaVuSans-34" x="95.410156"/>
      </g>
     </g>
    </g>
    <g id="ytick_4">
     <g id="line2d_10">
      <g>
       <use xlink:href="#m8520fa560e" x="59.495" y="123.172564" style="stroke: #000000; stroke-width: 0.8"/>
      </g>
     </g>
     <g id="text_11">
      <!-- 0.6 -->
      <g transform="translate(28.640313 128.871392) scale(0.15 -0.15)">
       <defs>
        <path id="DejaVuSans-36" d="M 2113 2584 
Q 1688 2584 1439 2293 
Q 1191 2003 1191 1497 
Q 1191 994 1439 701 
Q 1688 409 2113 409 
Q 2538 409 2786 701 
Q 3034 994 3034 1497 
Q 3034 2003 2786 2293 
Q 2538 2584 2113 2584 
z
M 3366 4563 
L 3366 3988 
Q 3128 4100 2886 4159 
Q 2644 4219 2406 4219 
Q 1781 4219 1451 3797 
Q 1122 3375 1075 2522 
Q 1259 2794 1537 2939 
Q 1816 3084 2150 3084 
Q 2853 3084 3261 2657 
Q 3669 2231 3669 1497 
Q 3669 778 3244 343 
Q 2819 -91 2113 -91 
Q 1303 -91 875 529 
Q 447 1150 447 2328 
Q 447 3434 972 4092 
Q 1497 4750 2381 4750 
Q 2619 4750 2861 4703 
Q 3103 4656 3366 4563 
z
" transform="scale(0.015625)"/>
       </defs>
       <use xlink:href="#DejaVuSans-30"/>
       <use xlink:href="#DejaVuSans-2e" x="63.623047"/>
       <use xlink:href="#DejaVuSans-36" x="95.410156"/>
      </g>
     </g>
    </g>
    <g id="text_12">
     <!-- rivaroxaban plasma [µM] -->
     <g transform="translate(20.877187 327.088614) rotate(-90) scale(0.18 -0.18)">
      <defs>
       <path id="DejaVuSans-Bold-76" d="M 97 3500 
L 1216 3500 
L 2088 1081 
L 2956 3500 
L 4078 3500 
L 2700 0 
L 1472 0 
L 97 3500 
z
" transform="scale(0.015625)"/>
       <path id="DejaVuSans-Bold-61" d="M 2106 1575 
Q 1756 1575 1579 1456 
Q 1403 1338 1403 1106 
Q 1403 894 1545 773 
Q 1688 653 1941 653 
Q 2256 653 2472 879 
Q 2688 1106 2688 1447 
L 2688 1575 
L 2106 1575 
z
M 3816 1997 
L 3816 0 
L 2688 0 
L 2688 519 
Q 2463 200 2181 54 
Q 1900 -91 1497 -91 
Q 953 -91 614 226 
Q 275 544 275 1050 
Q 275 1666 698 1953 
Q 1122 2241 2028 2241 
L 2688 2241 
L 2688 2328 
Q 2688 2594 2478 2717 
Q 2269 2841 1825 2841 
Q 1466 2841 1156 2769 
Q 847 2697 581 2553 
L 581 3406 
Q 941 3494 1303 3539 
Q 1666 3584 2028 3584 
Q 2975 3584 3395 3211 
Q 3816 2838 3816 1997 
z
" transform="scale(0.015625)"/>
       <path id="DejaVuSans-Bold-6f" d="M 2203 2784 
Q 1831 2784 1636 2517 
Q 1441 2250 1441 1747 
Q 1441 1244 1636 976 
Q 1831 709 2203 709 
Q 2569 709 2762 976 
Q 2956 1244 2956 1747 
Q 2956 2250 2762 2517 
Q 2569 2784 2203 2784 
z
M 2203 3584 
Q 3106 3584 3614 3096 
Q 4122 2609 4122 1747 
Q 4122 884 3614 396 
Q 3106 -91 2203 -91 
Q 1297 -91 786 396 
Q 275 884 275 1747 
Q 275 2609 786 3096 
Q 1297 3584 2203 3584 
z
" transform="scale(0.015625)"/>
       <path id="DejaVuSans-Bold-78" d="M 1422 1791 
L 159 3500 
L 1344 3500 
L 2059 2463 
L 2784 3500 
L 3969 3500 
L 2706 1797 
L 4031 0 
L 2847 0 
L 2059 1106 
L 1281 0 
L 97 0 
L 1422 1791 
z
" transform="scale(0.015625)"/>
       <path id="DejaVuSans-Bold-62" d="M 2400 722 
Q 2759 722 2948 984 
Q 3138 1247 3138 1747 
Q 3138 2247 2948 2509 
Q 2759 2772 2400 2772 
Q 2041 2772 1848 2508 
Q 1656 2244 1656 1747 
Q 1656 1250 1848 986 
Q 2041 722 2400 722 
z
M 1656 2988 
Q 1888 3294 2169 3439 
Q 2450 3584 2816 3584 
Q 3463 3584 3878 3070 
Q 4294 2556 4294 1747 
Q 4294 938 3878 423 
Q 3463 -91 2816 -91 
Q 2450 -91 2169 54 
Q 1888 200 1656 506 
L 1656 0 
L 538 0 
L 538 4863 
L 1656 4863 
L 1656 2988 
z
" transform="scale(0.015625)"/>
       <path id="DejaVuSans-Bold-6e" d="M 4056 2131 
L 4056 0 
L 2931 0 
L 2931 347 
L 2931 1631 
Q 2931 2084 2911 2256 
Q 2891 2428 2841 2509 
Q 2775 2619 2662 2680 
Q 2550 2741 2406 2741 
Q 2056 2741 1856 2470 
Q 1656 2200 1656 1722 
L 1656 0 
L 538 0 
L 538 3500 
L 1656 3500 
L 1656 2988 
Q 1909 3294 2193 3439 
Q 2478 3584 2822 3584 
Q 3428 3584 3742 3212 
Q 4056 2841 4056 2131 
z
" transform="scale(0.015625)"/>
       <path id="DejaVuSans-Bold-70" d="M 1656 506 
L 1656 -1331 
L 538 -1331 
L 538 3500 
L 1656 3500 
L 1656 2988 
Q 1888 3294 2169 3439 
Q 2450 3584 2816 3584 
Q 3463 3584 3878 3070 
Q 4294 2556 4294 1747 
Q 4294 938 3878 423 
Q 3463 -91 2816 -91 
Q 2450 -91 2169 54 
Q 1888 200 1656 506 
z
M 2400 2772 
Q 2041 2772 1848 2508 
Q 1656 2244 1656 1747 
Q 1656 1250 1848 986 
Q 2041 722 2400 722 
Q 2759 722 2948 984 
Q 3138 1247 3138 1747 
Q 3138 2247 2948 2509 
Q 2759 2772 2400 2772 
z
" transform="scale(0.015625)"/>
       <path id="DejaVuSans-Bold-6c" d="M 538 4863 
L 1656 4863 
L 1656 0 
L 538 0 
L 538 4863 
z
" transform="scale(0.015625)"/>
       <path id="DejaVuSans-Bold-73" d="M 3272 3391 
L 3272 2541 
Q 2913 2691 2578 2766 
Q 2244 2841 1947 2841 
Q 1628 2841 1473 2761 
Q 1319 2681 1319 2516 
Q 1319 2381 1436 2309 
Q 1553 2238 1856 2203 
L 2053 2175 
Q 2913 2066 3209 1816 
Q 3506 1566 3506 1031 
Q 3506 472 3093 190 
Q 2681 -91 1863 -91 
Q 1516 -91 1145 -36 
Q 775 19 384 128 
L 384 978 
Q 719 816 1070 734 
Q 1422 653 1784 653 
Q 2113 653 2278 743 
Q 2444 834 2444 1013 
Q 2444 1163 2330 1236 
Q 2216 1309 1875 1350 
L 1678 1375 
Q 931 1469 631 1722 
Q 331 1975 331 2491 
Q 331 3047 712 3315 
Q 1094 3584 1881 3584 
Q 2191 3584 2531 3537 
Q 2872 3491 3272 3391 
z
" transform="scale(0.015625)"/>
       <path id="DejaVuSans-Bold-b5" d="M 544 -1338 
L 544 3500 
L 1672 3500 
L 1672 1466 
Q 1672 1103 1828 926 
Q 1984 750 2303 750 
Q 2625 750 2781 926 
Q 2938 1103 2938 1466 
L 2938 3500 
L 4063 3500 
L 4063 1159 
Q 4063 938 4114 850 
Q 4166 763 4288 763 
Q 4344 763 4395 778 
Q 4447 794 4506 831 
L 4506 50 
Q 4341 -22 4195 -56 
Q 4050 -91 3909 -91 
Q 3631 -91 3454 26 
Q 3278 144 3169 403 
Q 3022 156 2811 32 
Q 2600 -91 2322 -91 
Q 2091 -91 1928 -17 
Q 1766 56 1672 206 
L 1672 -1338 
L 544 -1338 
z
" transform="scale(0.015625)"/>
       <path id="DejaVuSans-Bold-4d" d="M 588 4666 
L 2119 4666 
L 3181 2169 
L 4250 4666 
L 5778 4666 
L 5778 0 
L 4641 0 
L 4641 3413 
L 3566 897 
L 2803 897 
L 1728 3413 
L 1728 0 
L 588 0 
L 588 4666 
z
" transform="scale(0.015625)"/>
      </defs>
      <use xlink:href="#DejaVuSans-Bold-72"/>
      <use xlink:href="#DejaVuSans-Bold-69" x="49.316406"/>
      <use xlink:href="#DejaVuSans-Bold-76" x="83.59375"/>
      <use xlink:href="#DejaVuSans-Bold-61" x="148.779297"/>
      <use xlink:href="#DejaVuSans-Bold-72" x="216.259766"/>
      <use xlink:href="#DejaVuSans-Bold-6f" x="265.576172"/>
      <use xlink:href="#DejaVuSans-Bold-78" x="334.277344"/>
      <use xlink:href="#DejaVuSans-Bold-61" x="398.779297"/>
      <use xlink:href="#DejaVuSans-Bold-62" x="466.259766"/>
      <use xlink:href="#DejaVuSans-Bold-61" x="537.841797"/>
      <use xlink:href="#DejaVuSans-Bold-6e" x="605.322266"/>
      <use xlink:href="#DejaVuSans-Bold-20" x="676.513672"/>
      <use xlink:href="#DejaVuSans-Bold-70" x="711.328125"/>
      <use xlink:href="#DejaVuSans-Bold-6c" x="782.910156"/>
      <use xlink:href="#DejaVuSans-Bold-61" x="817.1875"/>
      <use xlink:href="#DejaVuSans-Bold-73" x="884.667969"/>
      <use xlink:href="#DejaVuSans-Bold-6d" x="944.189453"/>
      <use xlink:href="#DejaVuSans-Bold-61" x="1048.388672"/>
      <use xlink:href="#DejaVuSans-Bold-20" x="1115.869141"/>
      <use xlink:href="#DejaVuSans-Bold-5b" x="1150.683594"/>
      <use xlink:href="#DejaVuSans-Bold-b5" x="1196.386719"/>
      <use xlink:href="#DejaVuSans-Bold-4d" x="1269.970703"/>
      <use xlink:href="#DejaVuSans-Bold-5d" x="1369.482422"/>
     </g>
    </g>
   </g>
   <g id="LineCollection_1">
    <path d="M 81.45803 296.491019 
L 81.45803 264.501174 
" clip-path="url(#pa41803a10a)" style="fill: none; stroke: #000000"/>
    <path d="M 84.824818 273.298381 
L 84.824818 209.318692 
" clip-path="url(#pa41803a10a)" style="fill: none; stroke: #000000"/>
    <path d="M 91.558394 246.107014 
L 91.558394 169.331387 
" clip-path="url(#pa41803a10a)" style="fill: none; stroke: #000000"/>
    <path d="M 98.29197 234.910568 
L 98.29197 156.535449 
" clip-path="url(#pa41803a10a)" style="fill: none; stroke: #000000"/>
    <path d="M 105.867242 230.112091 
L 105.867242 153.336465 
" clip-path="url(#pa41803a10a)" style="fill: none; stroke: #000000"/>
    <path d="M 119.860455 244.507521 
L 119.860455 201.321231 
" clip-path="url(#pa41803a10a)" style="fill: none; stroke: #000000"/>
    <path d="M 134.484939 254.904221 
L 134.484939 202.120977 
" clip-path="url(#pa41803a10a)" style="fill: none; stroke: #000000"/>
    <path d="M 162.471364 271.698889 
L 162.471364 242.908029 
" clip-path="url(#pa41803a10a)" style="fill: none; stroke: #000000"/>
    <path d="M 247.693182 292.492288 
L 247.693182 268.499905 
" clip-path="url(#pa41803a10a)" style="fill: none; stroke: #000000"/>
    <path d="M 332.915 290.09305 
L 332.915 288.493558 
" clip-path="url(#pa41803a10a)" style="fill: none; stroke: #000000"/>
    <path d="M 418.136818 293.292034 
L 418.136818 286.894065 
" clip-path="url(#pa41803a10a)" style="fill: none; stroke: #000000"/>
   </g>
   <g id="LineCollection_2">
    <path clip-path="url(#pa41803a10a)" style="fill: none; stroke: #66c2a4"/>
    <path d="M 80.616333 294.09178 
L 80.616333 215.716661 
" clip-path="url(#pa41803a10a)" style="fill: none; stroke: #66c2a4"/>
    <path d="M 83.983121 277.297112 
L 83.983121 178.128594 
" clip-path="url(#pa41803a10a)" style="fill: none; stroke: #66c2a4"/>
    <path d="M 91.558394 234.110822 
L 91.558394 155.735703 
" clip-path="url(#pa41803a10a)" style="fill: none; stroke: #66c2a4"/>
    <path d="M 98.29197 231.711584 
L 98.29197 129.344081 
" clip-path="url(#pa41803a10a)" style="fill: none; stroke: #66c2a4"/>
    <path d="M 105.025545 230.112091 
L 105.025545 134.142558 
" clip-path="url(#pa41803a10a)" style="fill: none; stroke: #66c2a4"/>
    <path d="M 119.860455 250.105744 
L 119.860455 202.120977 
" clip-path="url(#pa41803a10a)" style="fill: none; stroke: #66c2a4"/>
    <path d="M 133.643242 258.103205 
L 133.643242 211.717931 
" clip-path="url(#pa41803a10a)" style="fill: none; stroke: #66c2a4"/>
    <path d="M 162.471364 274.897874 
L 162.471364 242.908029 
" clip-path="url(#pa41803a10a)" style="fill: none; stroke: #66c2a4"/>
    <path d="M 247.693182 289.293304 
L 247.693182 268.499905 
" clip-path="url(#pa41803a10a)" style="fill: none; stroke: #66c2a4"/>
    <path d="M 332.915 288.493558 
L 332.915 282.095589 
" clip-path="url(#pa41803a10a)" style="fill: none; stroke: #66c2a4"/>
    <path d="M 418.136818 290.892796 
L 418.136818 284.494827 
" clip-path="url(#pa41803a10a)" style="fill: none; stroke: #66c2a4"/>
   </g>
   <g id="LineCollection_3">
    <path d="M 77.249545 292.492288 
L 77.249545 290.892796 
" clip-path="url(#pa41803a10a)" style="fill: none; stroke: #2ca25f"/>
    <path d="M 81.45803 309.286957 
L 81.45803 232.51133 
" clip-path="url(#pa41803a10a)" style="fill: none; stroke: #2ca25f"/>
    <path d="M 84.824818 282.895335 
L 84.824818 209.318692 
" clip-path="url(#pa41803a10a)" style="fill: none; stroke: #2ca25f"/>
    <path d="M 90.716697 235.710314 
L 90.716697 134.942304 
" clip-path="url(#pa41803a10a)" style="fill: none; stroke: #2ca25f"/>
    <path d="M 97.450273 222.914376 
L 97.450273 115.748397 
" clip-path="url(#pa41803a10a)" style="fill: none; stroke: #2ca25f"/>
    <path d="M 105.867242 230.911838 
L 105.867242 90.156522 
" clip-path="url(#pa41803a10a)" style="fill: none; stroke: #2ca25f"/>
    <path d="M 119.860455 232.51133 
L 119.860455 181.327579 
" clip-path="url(#pa41803a10a)" style="fill: none; stroke: #2ca25f"/>
    <path d="M 133.643242 247.706506 
L 133.643242 201.321231 
" clip-path="url(#pa41803a10a)" style="fill: none; stroke: #2ca25f"/>
    <path d="M 162.471364 266.100666 
L 162.471364 229.312345 
" clip-path="url(#pa41803a10a)" style="fill: none; stroke: #2ca25f"/>
    <path d="M 247.693182 285.294573 
L 247.693182 267.700159 
" clip-path="url(#pa41803a10a)" style="fill: none; stroke: #2ca25f"/>
    <path d="M 332.915 290.09305 
L 332.915 282.095589 
" clip-path="url(#pa41803a10a)" style="fill: none; stroke: #2ca25f"/>
    <path d="M 418.136818 292.492288 
L 418.136818 284.494827 
" clip-path="url(#pa41803a10a)" style="fill: none; stroke: #2ca25f"/>
   </g>
   <g id="line2d_11">
    <path d="M 77.249545 291.692542 
L 77.959727 290.376894 
L 78.669909 286.619414 
L 80.090273 275.549658 
L 82.220818 257.820467 
L 83.641182 247.859067 
L 85.061545 239.936689 
L 86.481909 233.974224 
L 87.192091 231.651865 
L 87.902273 229.719779 
L 88.612455 228.140509 
L 89.322636 226.877733 
L 90.032818 225.897071 
L 90.743 225.166538 
L 91.453182 224.656752 
L 92.163364 224.340985 
L 92.873545 224.195102 
L 93.583727 224.197445 
L 95.004091 224.571548 
L 96.424455 225.332989 
L 97.844818 226.379724 
L 99.975364 228.316523 
L 102.816091 231.299381 
L 116.309545 246.052313 
L 120.570636 250.161064 
L 124.831727 253.926983 
L 129.092818 257.363674 
L 133.353909 260.493175 
L 137.615 263.3399 
L 141.876091 265.928023 
L 146.137182 268.280411 
L 151.108455 270.75509 
L 156.079727 272.968321 
L 161.051 274.947649 
L 166.732455 276.954876 
L 172.413909 278.721505 
L 178.805545 280.457134 
L 185.197182 281.960524 
L 192.299 283.396228 
L 200.111 284.732119 
L 208.633182 285.945368 
L 217.865545 287.022279 
L 227.808091 287.957492 
L 239.171 288.799278 
L 251.954273 289.52176 
L 266.868091 290.13998 
L 284.622636 290.650814 
L 306.638273 291.057402 
L 335.755727 291.362426 
L 378.366636 291.565847 
L 432.340455 291.654876 
L 432.340455 291.654876 
" clip-path="url(#pa41803a10a)" style="fill: none; stroke: #000000; stroke-width: 2; stroke-linecap: square"/>
   </g>
   <g id="line2d_12">
    <path d="M 81.45803 280.496096 
L 84.824818 241.308537 
L 91.558394 207.7192 
L 98.29197 195.723009 
L 105.867242 191.724278 
L 119.860455 222.914376 
L 134.484939 228.512599 
L 162.471364 257.303459 
L 247.693182 280.496096 
L 332.915 289.293304 
L 418.136818 290.09305 
" clip-path="url(#pa41803a10a)" style="fill: none; stroke-dasharray: 3.7,1.6; stroke-dashoffset: 0; stroke: #000000"/>
    <defs>
     <path id="m589318747d" d="M -3 3 
L 3 3 
L 3 -3 
L -3 -3 
z
" style="stroke: #000000; stroke-linejoin: miter"/>
    </defs>
    <g clip-path="url(#pa41803a10a)">
     <use xlink:href="#m589318747d" x="81.45803" y="280.496096" style="stroke: #000000; stroke-linejoin: miter"/>
     <use xlink:href="#m589318747d" x="84.824818" y="241.308537" style="stroke: #000000; stroke-linejoin: miter"/>
     <use xlink:href="#m589318747d" x="91.558394" y="207.7192" style="stroke: #000000; stroke-linejoin: miter"/>
     <use xlink:href="#m589318747d" x="98.29197" y="195.723009" style="stroke: #000000; stroke-linejoin: miter"/>
     <use xlink:href="#m589318747d" x="105.867242" y="191.724278" style="stroke: #000000; stroke-linejoin: miter"/>
     <use xlink:href="#m589318747d" x="119.860455" y="222.914376" style="stroke: #000000; stroke-linejoin: miter"/>
     <use xlink:href="#m589318747d" x="134.484939" y="228.512599" style="stroke: #000000; stroke-linejoin: miter"/>
     <use xlink:href="#m589318747d" x="162.471364" y="257.303459" style="stroke: #000000; stroke-linejoin: miter"/>
     <use xlink:href="#m589318747d" x="247.693182" y="280.496096" style="stroke: #000000; stroke-linejoin: miter"/>
     <use xlink:href="#m589318747d" x="332.915" y="289.293304" style="stroke: #000000; stroke-linejoin: miter"/>
     <use xlink:href="#m589318747d" x="418.136818" y="290.09305" style="stroke: #000000; stroke-linejoin: miter"/>
    </g>
   </g>
   <g id="line2d_13">
    <path d="M 77.249545 291.692542 
L 77.959727 290.387987 
L 78.669909 286.622946 
L 80.090273 275.306862 
L 82.931 250.761436 
L 84.351364 240.641614 
L 85.771727 232.460245 
L 87.192091 226.123511 
L 88.612455 221.41496 
L 89.322636 219.593273 
L 90.032818 218.085248 
L 90.743 216.86136 
L 91.453182 215.893788 
L 92.163364 215.156609 
L 92.873545 214.625876 
L 93.583727 214.279605 
L 94.293909 214.097721 
L 95.004091 214.061964 
L 95.714273 214.15578 
L 97.134636 214.673725 
L 98.555 215.548653 
L 99.975364 216.697311 
L 102.105909 218.790659 
L 104.946636 222.018984 
L 109.917909 228.167664 
L 116.309545 236.016257 
L 120.570636 240.907382 
L 124.831727 245.444637 
L 129.092818 249.615811 
L 133.353909 253.431172 
L 137.615 256.911166 
L 141.876091 260.080151 
L 146.137182 262.963269 
L 150.398273 265.584929 
L 154.659364 267.968127 
L 159.630636 270.47548 
L 164.601909 272.718093 
L 169.573182 274.723783 
L 175.254636 276.757798 
L 180.936091 278.54803 
L 187.327727 280.306862 
L 193.719364 281.830356 
L 200.821182 283.285261 
L 208.633182 284.639019 
L 217.155364 285.868496 
L 226.387727 286.959812 
L 236.330273 287.907533 
L 247.693182 288.760579 
L 260.476455 289.492725 
L 275.390273 290.119214 
L 293.144818 290.63688 
L 315.160455 291.048906 
L 344.277909 291.35801 
L 386.178636 291.562086 
L 432.340455 291.646315 
L 432.340455 291.646315 
" clip-path="url(#pa41803a10a)" style="fill: none; stroke: #66c2a4; stroke-width: 2; stroke-linecap: square"/>
   </g>
   <g id="line2d_14">
    <path d="M 77.249545 290.892796 
L 80.616333 254.904221 
L 83.983121 227.712853 
L 91.558394 194.923262 
L 98.29197 180.527832 
L 105.025545 182.127325 
L 119.860455 226.113361 
L 133.643242 234.910568 
L 162.471364 258.902951 
L 247.693182 278.896604 
L 332.915 285.294573 
L 418.136818 287.693811 
" clip-path="url(#pa41803a10a)" style="fill: none; stroke-dasharray: 3.7,1.6; stroke-dashoffset: 0; stroke: #66c2a4"/>
    <defs>
     <path id="mf2b8f8ae7d" d="M -3 3 
L 3 3 
L 3 -3 
L -3 -3 
z
" style="stroke: #000000; stroke-linejoin: miter"/>
    </defs>
    <g clip-path="url(#pa41803a10a)">
     <use xlink:href="#mf2b8f8ae7d" x="77.249545" y="290.892796" style="fill: #66c2a4; stroke: #000000; stroke-linejoin: miter"/>
     <use xlink:href="#mf2b8f8ae7d" x="80.616333" y="254.904221" style="fill: #66c2a4; stroke: #000000; stroke-linejoin: miter"/>
     <use xlink:href="#mf2b8f8ae7d" x="83.983121" y="227.712853" style="fill: #66c2a4; stroke: #000000; stroke-linejoin: miter"/>
     <use xlink:href="#mf2b8f8ae7d" x="91.558394" y="194.923262" style="fill: #66c2a4; stroke: #000000; stroke-linejoin: miter"/>
     <use xlink:href="#mf2b8f8ae7d" x="98.29197" y="180.527832" style="fill: #66c2a4; stroke: #000000; stroke-linejoin: miter"/>
     <use xlink:href="#mf2b8f8ae7d" x="105.025545" y="182.127325" style="fill: #66c2a4; stroke: #000000; stroke-linejoin: miter"/>
     <use xlink:href="#mf2b8f8ae7d" x="119.860455" y="226.113361" style="fill: #66c2a4; stroke: #000000; stroke-linejoin: miter"/>
     <use xlink:href="#mf2b8f8ae7d" x="133.643242" y="234.910568" style="fill: #66c2a4; stroke: #000000; stroke-linejoin: miter"/>
     <use xlink:href="#mf2b8f8ae7d" x="162.471364" y="258.902951" style="fill: #66c2a4; stroke: #000000; stroke-linejoin: miter"/>
     <use xlink:href="#mf2b8f8ae7d" x="247.693182" y="278.896604" style="fill: #66c2a4; stroke: #000000; stroke-linejoin: miter"/>
     <use xlink:href="#mf2b8f8ae7d" x="332.915" y="285.294573" style="fill: #66c2a4; stroke: #000000; stroke-linejoin: miter"/>
     <use xlink:href="#mf2b8f8ae7d" x="418.136818" y="287.693811" style="fill: #66c2a4; stroke: #000000; stroke-linejoin: miter"/>
    </g>
   </g>
   <g id="line2d_15">
    <path d="M 77.249545 291.692542 
L 77.959727 290.509989 
L 78.669909 287.086191 
L 80.090273 276.732755 
L 82.931 253.963331 
L 84.351364 244.414663 
L 85.771727 236.58922 
L 87.192091 230.429278 
L 88.612455 225.759268 
L 90.032818 222.367436 
L 90.743 221.084818 
L 91.453182 220.044606 
L 92.163364 219.223771 
L 92.873545 218.600881 
L 93.583727 218.156123 
L 94.293909 217.871278 
L 95.004091 217.729661 
L 95.714273 217.716044 
L 97.134636 218.018632 
L 98.555 218.682813 
L 99.975364 219.629673 
L 102.105909 221.442457 
L 104.236455 223.580367 
L 107.787364 227.547735 
L 119.860455 241.421277 
L 124.121545 245.860949 
L 128.382636 249.964427 
L 132.643727 253.730708 
L 136.904818 257.173399 
L 141.165909 260.31273 
L 145.427 263.171352 
L 149.688091 265.77216 
L 153.949182 268.137213 
L 158.920455 270.626037 
L 163.891727 272.852401 
L 168.863 274.843724 
L 174.544455 276.863268 
L 180.225909 278.640813 
L 186.617545 280.38721 
L 193.009182 281.899943 
L 200.111 283.344579 
L 207.923 284.688784 
L 216.445182 285.909586 
L 225.677545 286.993202 
L 235.620091 287.934237 
L 246.983 288.781264 
L 259.766273 289.508245 
L 274.680091 290.130314 
L 292.434636 290.644328 
L 314.450273 291.053447 
L 343.567727 291.360371 
L 386.178636 291.565058 
L 432.340455 291.647368 
L 432.340455 291.647368 
" clip-path="url(#pa41803a10a)" style="fill: none; stroke: #2ca25f; stroke-width: 2; stroke-linecap: square"/>
   </g>
   <g id="line2d_16">
    <path d="M 77.249545 291.692542 
L 81.45803 270.899143 
L 84.824818 246.107014 
L 90.716697 185.326309 
L 97.450273 169.331387 
L 105.867242 160.53418 
L 119.860455 206.919454 
L 133.643242 224.513869 
L 162.471364 247.706506 
L 247.693182 276.497366 
L 332.915 286.094319 
L 418.136818 288.493558 
" clip-path="url(#pa41803a10a)" style="fill: none; stroke-dasharray: 3.7,1.6; stroke-dashoffset: 0; stroke: #2ca25f"/>
    <defs>
     <path id="m08b6cbffea" d="M -3 3 
L 3 3 
L 3 -3 
L -3 -3 
z
" style="stroke: #000000; stroke-linejoin: miter"/>
    </defs>
    <g clip-path="url(#pa41803a10a)">
     <use xlink:href="#m08b6cbffea" x="77.249545" y="291.692542" style="fill: #2ca25f; stroke: #000000; stroke-linejoin: miter"/>
     <use xlink:href="#m08b6cbffea" x="81.45803" y="270.899143" style="fill: #2ca25f; stroke: #000000; stroke-linejoin: miter"/>
     <use xlink:href="#m08b6cbffea" x="84.824818" y="246.107014" style="fill: #2ca25f; stroke: #000000; stroke-linejoin: miter"/>
     <use xlink:href="#m08b6cbffea" x="90.716697" y="185.326309" style="fill: #2ca25f; stroke: #000000; stroke-linejoin: miter"/>
     <use xlink:href="#m08b6cbffea" x="97.450273" y="169.331387" style="fill: #2ca25f; stroke: #000000; stroke-linejoin: miter"/>
     <use xlink:href="#m08b6cbffea" x="105.867242" y="160.53418" style="fill: #2ca25f; stroke: #000000; stroke-linejoin: miter"/>
     <use xlink:href="#m08b6cbffea" x="119.860455" y="206.919454" style="fill: #2ca25f; stroke: #000000; stroke-linejoin: miter"/>
     <use xlink:href="#m08b6cbffea" x="133.643242" y="224.513869" style="fill: #2ca25f; stroke: #000000; stroke-linejoin: miter"/>
     <use xlink:href="#m08b6cbffea" x="162.471364" y="247.706506" style="fill: #2ca25f; stroke: #000000; stroke-linejoin: miter"/>
     <use xlink:href="#m08b6cbffea" x="247.693182" y="276.497366" style="fill: #2ca25f; stroke: #000000; stroke-linejoin: miter"/>
     <use xlink:href="#m08b6cbffea" x="332.915" y="286.094319" style="fill: #2ca25f; stroke: #000000; stroke-linejoin: miter"/>
     <use xlink:href="#m08b6cbffea" x="418.136818" y="288.493558" style="fill: #2ca25f; stroke: #000000; stroke-linejoin: miter"/>
    </g>
   </g>
   <g id="patch_3">
    <path d="M 59.495 320.243478 
L 59.495 79.2 
" style="fill: none; stroke: #000000; stroke-width: 0.8; stroke-linejoin: miter; stroke-linecap: square"/>
   </g>
   <g id="patch_4">
    <path d="M 450.095 320.243478 
L 450.095 79.2 
" style="fill: none; stroke: #000000; stroke-width: 0.8; stroke-linejoin: miter; stroke-linecap: square"/>
   </g>
   <g id="patch_5">
    <path d="M 59.495 320.243478 
L 450.095 320.243478 
" style="fill: none; stroke: #000000; stroke-width: 0.8; stroke-linejoin: miter; stroke-linecap: square"/>
   </g>
   <g id="patch_6">
    <path d="M 59.495 79.2 
L 450.095 79.2 
" style="fill: none; stroke: #000000; stroke-width: 0.8; stroke-linejoin: miter; stroke-linecap: square"/>
   </g>
   <g id="legend_1">
    <g id="patch_7">
     <path d="M 298.034063 175.26875 
L 443.095 175.26875 
Q 445.095 175.26875 445.095 173.26875 
L 445.095 86.2 
Q 445.095 84.2 443.095 84.2 
L 298.034063 84.2 
Q 296.034063 84.2 296.034063 86.2 
L 296.034063 173.26875 
Q 296.034063 175.26875 298.034063 175.26875 
z
" style="fill: #ffffff; opacity: 0.8; stroke: #cccccc; stroke-linejoin: miter"/>
    </g>
    <g id="line2d_17">
     <path d="M 300.034063 92.298437 
L 320.034063 92.298437 
" style="fill: none; stroke: #000000; stroke-width: 2; stroke-linecap: square"/>
    </g>
    <g id="line2d_18"/>
    <g id="text_13">
     <!-- NRF -->
     <g transform="translate(328.034063 95.798437) scale(0.1 -0.1)">
      <defs>
       <path id="DejaVuSans-4e" d="M 628 4666 
L 1478 4666 
L 3547 763 
L 3547 4666 
L 4159 4666 
L 4159 0 
L 3309 0 
L 1241 3903 
L 1241 0 
L 628 0 
L 628 4666 
z
" transform="scale(0.015625)"/>
       <path id="DejaVuSans-52" d="M 2841 2188 
Q 3044 2119 3236 1894 
Q 3428 1669 3622 1275 
L 4263 0 
L 3584 0 
L 2988 1197 
Q 2756 1666 2539 1819 
Q 2322 1972 1947 1972 
L 1259 1972 
L 1259 0 
L 628 0 
L 628 4666 
L 2053 4666 
Q 2853 4666 3247 4331 
Q 3641 3997 3641 3322 
Q 3641 2881 3436 2590 
Q 3231 2300 2841 2188 
z
M 1259 4147 
L 1259 2491 
L 2053 2491 
Q 2509 2491 2742 2702 
Q 2975 2913 2975 3322 
Q 2975 3731 2742 3939 
Q 2509 4147 2053 4147 
L 1259 4147 
z
" transform="scale(0.015625)"/>
       <path id="DejaVuSans-46" d="M 628 4666 
L 3309 4666 
L 3309 4134 
L 1259 4134 
L 1259 2759 
L 3109 2759 
L 3109 2228 
L 1259 2228 
L 1259 0 
L 628 0 
L 628 4666 
z
" transform="scale(0.015625)"/>
      </defs>
      <use xlink:href="#DejaVuSans-4e"/>
      <use xlink:href="#DejaVuSans-52" x="74.804688"/>
      <use xlink:href="#DejaVuSans-46" x="144.287109"/>
     </g>
    </g>
    <g id="LineCollection_4">
     <path d="M 310.034063 111.976562 
L 310.034063 101.976562 
" style="fill: none; stroke: #000000"/>
    </g>
    <g id="line2d_19">
     <path d="M 300.034063 106.976562 
L 320.034063 106.976562 
" style="fill: none; stroke-dasharray: 3.7,1.6; stroke-dashoffset: 0; stroke: #000000"/>
    </g>
    <g id="line2d_20">
     <g>
      <use xlink:href="#m589318747d" x="310.034063" y="106.976562" style="stroke: #000000; stroke-linejoin: miter"/>
     </g>
    </g>
    <g id="text_14">
     <!-- NRF±SD (n=8) -->
     <g transform="translate(328.034063 110.476562) scale(0.1 -0.1)">
      <defs>
       <path id="DejaVuSans-b1" d="M 2944 4013 
L 2944 2803 
L 4684 2803 
L 4684 2272 
L 2944 2272 
L 2944 1063 
L 2419 1063 
L 2419 2272 
L 678 2272 
L 678 2803 
L 2419 2803 
L 2419 4013 
L 2944 4013 
z
M 678 531 
L 4684 531 
L 4684 0 
L 678 0 
L 678 531 
z
" transform="scale(0.015625)"/>
       <path id="DejaVuSans-53" d="M 3425 4513 
L 3425 3897 
Q 3066 4069 2747 4153 
Q 2428 4238 2131 4238 
Q 1616 4238 1336 4038 
Q 1056 3838 1056 3469 
Q 1056 3159 1242 3001 
Q 1428 2844 1947 2747 
L 2328 2669 
Q 3034 2534 3370 2195 
Q 3706 1856 3706 1288 
Q 3706 609 3251 259 
Q 2797 -91 1919 -91 
Q 1588 -91 1214 -16 
Q 841 59 441 206 
L 441 856 
Q 825 641 1194 531 
Q 1563 422 1919 422 
Q 2459 422 2753 634 
Q 3047 847 3047 1241 
Q 3047 1584 2836 1778 
Q 2625 1972 2144 2069 
L 1759 2144 
Q 1053 2284 737 2584 
Q 422 2884 422 3419 
Q 422 4038 858 4394 
Q 1294 4750 2059 4750 
Q 2388 4750 2728 4690 
Q 3069 4631 3425 4513 
z
" transform="scale(0.015625)"/>
       <path id="DejaVuSans-44" d="M 1259 4147 
L 1259 519 
L 2022 519 
Q 2988 519 3436 956 
Q 3884 1394 3884 2338 
Q 3884 3275 3436 3711 
Q 2988 4147 2022 4147 
L 1259 4147 
z
M 628 4666 
L 1925 4666 
Q 3281 4666 3915 4102 
Q 4550 3538 4550 2338 
Q 4550 1131 3912 565 
Q 3275 0 1925 0 
L 628 0 
L 628 4666 
z
" transform="scale(0.015625)"/>
       <path id="DejaVuSans-20" transform="scale(0.015625)"/>
       <path id="DejaVuSans-28" d="M 1984 4856 
Q 1566 4138 1362 3434 
Q 1159 2731 1159 2009 
Q 1159 1288 1364 580 
Q 1569 -128 1984 -844 
L 1484 -844 
Q 1016 -109 783 600 
Q 550 1309 550 2009 
Q 550 2706 781 3412 
Q 1013 4119 1484 4856 
L 1984 4856 
z
" transform="scale(0.015625)"/>
       <path id="DejaVuSans-6e" d="M 3513 2113 
L 3513 0 
L 2938 0 
L 2938 2094 
Q 2938 2591 2744 2837 
Q 2550 3084 2163 3084 
Q 1697 3084 1428 2787 
Q 1159 2491 1159 1978 
L 1159 0 
L 581 0 
L 581 3500 
L 1159 3500 
L 1159 2956 
Q 1366 3272 1645 3428 
Q 1925 3584 2291 3584 
Q 2894 3584 3203 3211 
Q 3513 2838 3513 2113 
z
" transform="scale(0.015625)"/>
       <path id="DejaVuSans-3d" d="M 678 2906 
L 4684 2906 
L 4684 2381 
L 678 2381 
L 678 2906 
z
M 678 1631 
L 4684 1631 
L 4684 1100 
L 678 1100 
L 678 1631 
z
" transform="scale(0.015625)"/>
       <path id="DejaVuSans-38" d="M 2034 2216 
Q 1584 2216 1326 1975 
Q 1069 1734 1069 1313 
Q 1069 891 1326 650 
Q 1584 409 2034 409 
Q 2484 409 2743 651 
Q 3003 894 3003 1313 
Q 3003 1734 2745 1975 
Q 2488 2216 2034 2216 
z
M 1403 2484 
Q 997 2584 770 2862 
Q 544 3141 544 3541 
Q 544 4100 942 4425 
Q 1341 4750 2034 4750 
Q 2731 4750 3128 4425 
Q 3525 4100 3525 3541 
Q 3525 3141 3298 2862 
Q 3072 2584 2669 2484 
Q 3125 2378 3379 2068 
Q 3634 1759 3634 1313 
Q 3634 634 3220 271 
Q 2806 -91 2034 -91 
Q 1263 -91 848 271 
Q 434 634 434 1313 
Q 434 1759 690 2068 
Q 947 2378 1403 2484 
z
M 1172 3481 
Q 1172 3119 1398 2916 
Q 1625 2713 2034 2713 
Q 2441 2713 2670 2916 
Q 2900 3119 2900 3481 
Q 2900 3844 2670 4047 
Q 2441 4250 2034 4250 
Q 1625 4250 1398 4047 
Q 1172 3844 1172 3481 
z
" transform="scale(0.015625)"/>
       <path id="DejaVuSans-29" d="M 513 4856 
L 1013 4856 
Q 1481 4119 1714 3412 
Q 1947 2706 1947 2009 
Q 1947 1309 1714 600 
Q 1481 -109 1013 -844 
L 513 -844 
Q 928 -128 1133 580 
Q 1338 1288 1338 2009 
Q 1338 2731 1133 3434 
Q 928 4138 513 4856 
z
" transform="scale(0.015625)"/>
      </defs>
      <use xlink:href="#DejaVuSans-4e"/>
      <use xlink:href="#DejaVuSans-52" x="74.804688"/>
      <use xlink:href="#DejaVuSans-46" x="144.287109"/>
      <use xlink:href="#DejaVuSans-b1" x="201.806641"/>
      <use xlink:href="#DejaVuSans-53" x="285.595703"/>
      <use xlink:href="#DejaVuSans-44" x="349.072266"/>
      <use xlink:href="#DejaVuSans-20" x="426.074219"/>
      <use xlink:href="#DejaVuSans-28" x="457.861328"/>
      <use xlink:href="#DejaVuSans-6e" x="496.875"/>
      <use xlink:href="#DejaVuSans-3d" x="560.253906"/>
      <use xlink:href="#DejaVuSans-38" x="644.042969"/>
      <use xlink:href="#DejaVuSans-29" x="707.666016"/>
     </g>
    </g>
    <g id="line2d_21">
     <path d="M 300.034063 121.654688 
L 320.034063 121.654688 
" style="fill: none; stroke: #66c2a4; stroke-width: 2; stroke-linecap: square"/>
    </g>
    <g id="line2d_22"/>
    <g id="text_15">
     <!-- mildRI -->
     <g transform="translate(328.034063 125.154688) scale(0.1 -0.1)">
      <defs>
       <path id="DejaVuSans-6d" d="M 3328 2828 
Q 3544 3216 3844 3400 
Q 4144 3584 4550 3584 
Q 5097 3584 5394 3201 
Q 5691 2819 5691 2113 
L 5691 0 
L 5113 0 
L 5113 2094 
Q 5113 2597 4934 2840 
Q 4756 3084 4391 3084 
Q 3944 3084 3684 2787 
Q 3425 2491 3425 1978 
L 3425 0 
L 2847 0 
L 2847 2094 
Q 2847 2600 2669 2842 
Q 2491 3084 2119 3084 
Q 1678 3084 1418 2786 
Q 1159 2488 1159 1978 
L 1159 0 
L 581 0 
L 581 3500 
L 1159 3500 
L 1159 2956 
Q 1356 3278 1631 3431 
Q 1906 3584 2284 3584 
Q 2666 3584 2933 3390 
Q 3200 3197 3328 2828 
z
" transform="scale(0.015625)"/>
       <path id="DejaVuSans-69" d="M 603 3500 
L 1178 3500 
L 1178 0 
L 603 0 
L 603 3500 
z
M 603 4863 
L 1178 4863 
L 1178 4134 
L 603 4134 
L 603 4863 
z
" transform="scale(0.015625)"/>
       <path id="DejaVuSans-6c" d="M 603 4863 
L 1178 4863 
L 1178 0 
L 603 0 
L 603 4863 
z
" transform="scale(0.015625)"/>
       <path id="DejaVuSans-64" d="M 2906 2969 
L 2906 4863 
L 3481 4863 
L 3481 0 
L 2906 0 
L 2906 525 
Q 2725 213 2448 61 
Q 2172 -91 1784 -91 
Q 1150 -91 751 415 
Q 353 922 353 1747 
Q 353 2572 751 3078 
Q 1150 3584 1784 3584 
Q 2172 3584 2448 3432 
Q 2725 3281 2906 2969 
z
M 947 1747 
Q 947 1113 1208 752 
Q 1469 391 1925 391 
Q 2381 391 2643 752 
Q 2906 1113 2906 1747 
Q 2906 2381 2643 2742 
Q 2381 3103 1925 3103 
Q 1469 3103 1208 2742 
Q 947 2381 947 1747 
z
" transform="scale(0.015625)"/>
       <path id="DejaVuSans-49" d="M 628 4666 
L 1259 4666 
L 1259 0 
L 628 0 
L 628 4666 
z
" transform="scale(0.015625)"/>
      </defs>
      <use xlink:href="#DejaVuSans-6d"/>
      <use xlink:href="#DejaVuSans-69" x="97.412109"/>
      <use xlink:href="#DejaVuSans-6c" x="125.195312"/>
      <use xlink:href="#DejaVuSans-64" x="152.978516"/>
      <use xlink:href="#DejaVuSans-52" x="216.455078"/>
      <use xlink:href="#DejaVuSans-49" x="285.9375"/>
     </g>
    </g>
    <g id="LineCollection_5">
     <path d="M 310.034063 141.332812 
L 310.034063 131.332812 
" style="fill: none; stroke: #66c2a4"/>
    </g>
    <g id="line2d_23">
     <path d="M 300.034063 136.332812 
L 320.034063 136.332812 
" style="fill: none; stroke-dasharray: 3.7,1.6; stroke-dashoffset: 0; stroke: #66c2a4"/>
    </g>
    <g id="line2d_24">
     <g>
      <use xlink:href="#mf2b8f8ae7d" x="310.034063" y="136.332812" style="fill: #66c2a4; stroke: #000000; stroke-linejoin: miter"/>
     </g>
    </g>
    <g id="text_16">
     <!-- mildRI±SD (n=8) -->
     <g transform="translate(328.034063 139.832812) scale(0.1 -0.1)">
      <use xlink:href="#DejaVuSans-6d"/>
      <use xlink:href="#DejaVuSans-69" x="97.412109"/>
      <use xlink:href="#DejaVuSans-6c" x="125.195312"/>
      <use xlink:href="#DejaVuSans-64" x="152.978516"/>
      <use xlink:href="#DejaVuSans-52" x="216.455078"/>
      <use xlink:href="#DejaVuSans-49" x="285.9375"/>
      <use xlink:href="#DejaVuSans-b1" x="315.429688"/>
      <use xlink:href="#DejaVuSans-53" x="399.21875"/>
      <use xlink:href="#DejaVuSans-44" x="462.695312"/>
      <use xlink:href="#DejaVuSans-20" x="539.697266"/>
      <use xlink:href="#DejaVuSans-28" x="571.484375"/>
      <use xlink:href="#DejaVuSans-6e" x="610.498047"/>
      <use xlink:href="#DejaVuSans-3d" x="673.876953"/>
      <use xlink:href="#DejaVuSans-38" x="757.666016"/>
      <use xlink:href="#DejaVuSans-29" x="821.289062"/>
     </g>
    </g>
    <g id="line2d_25">
     <path d="M 300.034063 151.010937 
L 320.034063 151.010937 
" style="fill: none; stroke: #2ca25f; stroke-width: 2; stroke-linecap: square"/>
    </g>
    <g id="line2d_26"/>
    <g id="text_17">
     <!-- moderateRI -->
     <g transform="translate(328.034063 154.510937) scale(0.1 -0.1)">
      <defs>
       <path id="DejaVuSans-6f" d="M 1959 3097 
Q 1497 3097 1228 2736 
Q 959 2375 959 1747 
Q 959 1119 1226 758 
Q 1494 397 1959 397 
Q 2419 397 2687 759 
Q 2956 1122 2956 1747 
Q 2956 2369 2687 2733 
Q 2419 3097 1959 3097 
z
M 1959 3584 
Q 2709 3584 3137 3096 
Q 3566 2609 3566 1747 
Q 3566 888 3137 398 
Q 2709 -91 1959 -91 
Q 1206 -91 779 398 
Q 353 888 353 1747 
Q 353 2609 779 3096 
Q 1206 3584 1959 3584 
z
" transform="scale(0.015625)"/>
       <path id="DejaVuSans-65" d="M 3597 1894 
L 3597 1613 
L 953 1613 
Q 991 1019 1311 708 
Q 1631 397 2203 397 
Q 2534 397 2845 478 
Q 3156 559 3463 722 
L 3463 178 
Q 3153 47 2828 -22 
Q 2503 -91 2169 -91 
Q 1331 -91 842 396 
Q 353 884 353 1716 
Q 353 2575 817 3079 
Q 1281 3584 2069 3584 
Q 2775 3584 3186 3129 
Q 3597 2675 3597 1894 
z
M 3022 2063 
Q 3016 2534 2758 2815 
Q 2500 3097 2075 3097 
Q 1594 3097 1305 2825 
Q 1016 2553 972 2059 
L 3022 2063 
z
" transform="scale(0.015625)"/>
       <path id="DejaVuSans-72" d="M 2631 2963 
Q 2534 3019 2420 3045 
Q 2306 3072 2169 3072 
Q 1681 3072 1420 2755 
Q 1159 2438 1159 1844 
L 1159 0 
L 581 0 
L 581 3500 
L 1159 3500 
L 1159 2956 
Q 1341 3275 1631 3429 
Q 1922 3584 2338 3584 
Q 2397 3584 2469 3576 
Q 2541 3569 2628 3553 
L 2631 2963 
z
" transform="scale(0.015625)"/>
       <path id="DejaVuSans-61" d="M 2194 1759 
Q 1497 1759 1228 1600 
Q 959 1441 959 1056 
Q 959 750 1161 570 
Q 1363 391 1709 391 
Q 2188 391 2477 730 
Q 2766 1069 2766 1631 
L 2766 1759 
L 2194 1759 
z
M 3341 1997 
L 3341 0 
L 2766 0 
L 2766 531 
Q 2569 213 2275 61 
Q 1981 -91 1556 -91 
Q 1019 -91 701 211 
Q 384 513 384 1019 
Q 384 1609 779 1909 
Q 1175 2209 1959 2209 
L 2766 2209 
L 2766 2266 
Q 2766 2663 2505 2880 
Q 2244 3097 1772 3097 
Q 1472 3097 1187 3025 
Q 903 2953 641 2809 
L 641 3341 
Q 956 3463 1253 3523 
Q 1550 3584 1831 3584 
Q 2591 3584 2966 3190 
Q 3341 2797 3341 1997 
z
" transform="scale(0.015625)"/>
       <path id="DejaVuSans-74" d="M 1172 4494 
L 1172 3500 
L 2356 3500 
L 2356 3053 
L 1172 3053 
L 1172 1153 
Q 1172 725 1289 603 
Q 1406 481 1766 481 
L 2356 481 
L 2356 0 
L 1766 0 
Q 1100 0 847 248 
Q 594 497 594 1153 
L 594 3053 
L 172 3053 
L 172 3500 
L 594 3500 
L 594 4494 
L 1172 4494 
z
" transform="scale(0.015625)"/>
      </defs>
      <use xlink:href="#DejaVuSans-6d"/>
      <use xlink:href="#DejaVuSans-6f" x="97.412109"/>
      <use xlink:href="#DejaVuSans-64" x="158.59375"/>
      <use xlink:href="#DejaVuSans-65" x="222.070312"/>
      <use xlink:href="#DejaVuSans-72" x="283.59375"/>
      <use xlink:href="#DejaVuSans-61" x="324.707031"/>
      <use xlink:href="#DejaVuSans-74" x="385.986328"/>
      <use xlink:href="#DejaVuSans-65" x="425.195312"/>
      <use xlink:href="#DejaVuSans-52" x="486.71875"/>
      <use xlink:href="#DejaVuSans-49" x="556.201172"/>
     </g>
    </g>
    <g id="LineCollection_6">
     <path d="M 310.034063 170.689062 
L 310.034063 160.689062 
" style="fill: none; stroke: #2ca25f"/>
    </g>
    <g id="line2d_27">
     <path d="M 300.034063 165.689062 
L 320.034063 165.689062 
" style="fill: none; stroke-dasharray: 3.7,1.6; stroke-dashoffset: 0; stroke: #2ca25f"/>
    </g>
    <g id="line2d_28">
     <g>
      <use xlink:href="#m08b6cbffea" x="310.034063" y="165.689062" style="fill: #2ca25f; stroke: #000000; stroke-linejoin: miter"/>
     </g>
    </g>
    <g id="text_18">
     <!-- moderateRI±SD (n=8) -->
     <g transform="translate(328.034063 169.189062) scale(0.1 -0.1)">
      <use xlink:href="#DejaVuSans-6d"/>
      <use xlink:href="#DejaVuSans-6f" x="97.412109"/>
      <use xlink:href="#DejaVuSans-64" x="158.59375"/>
      <use xlink:href="#DejaVuSans-65" x="222.070312"/>
      <use xlink:href="#DejaVuSans-72" x="283.59375"/>
      <use xlink:href="#DejaVuSans-61" x="324.707031"/>
      <use xlink:href="#DejaVuSans-74" x="385.986328"/>
      <use xlink:href="#DejaVuSans-65" x="425.195312"/>
      <use xlink:href="#DejaVuSans-52" x="486.71875"/>
      <use xlink:href="#DejaVuSans-49" x="556.201172"/>
      <use xlink:href="#DejaVuSans-b1" x="585.693359"/>
      <use xlink:href="#DejaVuSans-53" x="669.482422"/>
      <use xlink:href="#DejaVuSans-44" x="732.958984"/>
      <use xlink:href="#DejaVuSans-20" x="809.960938"/>
      <use xlink:href="#DejaVuSans-28" x="841.748047"/>
      <use xlink:href="#DejaVuSans-6e" x="880.761719"/>
      <use xlink:href="#DejaVuSans-3d" x="944.140625"/>
      <use xlink:href="#DejaVuSans-38" x="1027.929688"/>
      <use xlink:href="#DejaVuSans-29" x="1091.552734"/>
     </g>
    </g>
   </g>
  </g>
  <g id="axes_2">
   <g id="patch_8">
    <path d="M 59.495 633.6 
L 450.095 633.6 
L 450.095 392.556522 
L 59.495 392.556522 
z
" style="fill: #ffffff"/>
   </g>
   <g id="matplotlib.axis_3">
    <g id="xtick_7">
     <g id="line2d_29">
      <g>
       <use xlink:href="#mdbfbc4c9ae" x="77.249545" y="633.6" style="stroke: #000000; stroke-width: 0.8"/>
      </g>
     </g>
     <g id="text_19">
      <!-- 0 -->
      <g transform="translate(72.47767 651.997656) scale(0.15 -0.15)">
       <use xlink:href="#DejaVuSans-30"/>
      </g>
     </g>
    </g>
    <g id="xtick_8">
     <g id="line2d_30">
      <g>
       <use xlink:href="#mdbfbc4c9ae" x="148.267727" y="633.6" style="stroke: #000000; stroke-width: 0.8"/>
      </g>
     </g>
     <g id="text_20">
      <!-- 10 -->
      <g transform="translate(138.723977 651.997656) scale(0.15 -0.15)">
       <use xlink:href="#DejaVuSans-31"/>
       <use xlink:href="#DejaVuSans-30" x="63.623047"/>
      </g>
     </g>
    </g>
    <g id="xtick_9">
     <g id="line2d_31">
      <g>
       <use xlink:href="#mdbfbc4c9ae" x="219.285909" y="633.6" style="stroke: #000000; stroke-width: 0.8"/>
      </g>
     </g>
     <g id="text_21">
      <!-- 20 -->
      <g transform="translate(209.742159 651.997656) scale(0.15 -0.15)">
       <use xlink:href="#DejaVuSans-32"/>
       <use xlink:href="#DejaVuSans-30" x="63.623047"/>
      </g>
     </g>
    </g>
    <g id="xtick_10">
     <g id="line2d_32">
      <g>
       <use xlink:href="#mdbfbc4c9ae" x="290.304091" y="633.6" style="stroke: #000000; stroke-width: 0.8"/>
      </g>
     </g>
     <g id="text_22">
      <!-- 30 -->
      <g transform="translate(280.760341 651.997656) scale(0.15 -0.15)">
       <use xlink:href="#DejaVuSans-33"/>
       <use xlink:href="#DejaVuSans-30" x="63.623047"/>
      </g>
     </g>
    </g>
    <g id="xtick_11">
     <g id="line2d_33">
      <g>
       <use xlink:href="#mdbfbc4c9ae" x="361.322273" y="633.6" style="stroke: #000000; stroke-width: 0.8"/>
      </g>
     </g>
     <g id="text_23">
      <!-- 40 -->
      <g transform="translate(351.778523 651.997656) scale(0.15 -0.15)">
       <use xlink:href="#DejaVuSans-34"/>
       <use xlink:href="#DejaVuSans-30" x="63.623047"/>
      </g>
     </g>
    </g>
    <g id="xtick_12">
     <g id="line2d_34">
      <g>
       <use xlink:href="#mdbfbc4c9ae" x="432.340455" y="633.6" style="stroke: #000000; stroke-width: 0.8"/>
      </g>
     </g>
     <g id="text_24">
      <!-- 50 -->
      <g transform="translate(422.796705 651.997656) scale(0.15 -0.15)">
       <use xlink:href="#DejaVuSans-35"/>
       <use xlink:href="#DejaVuSans-30" x="63.623047"/>
      </g>
     </g>
    </g>
    <g id="text_25">
     <!-- time [hr] -->
     <g transform="translate(209.720469 672.794375) scale(0.18 -0.18)">
      <use xlink:href="#DejaVuSans-Bold-74"/>
      <use xlink:href="#DejaVuSans-Bold-69" x="47.802734"/>
      <use xlink:href="#DejaVuSans-Bold-6d" x="82.080078"/>
      <use xlink:href="#DejaVuSans-Bold-65" x="186.279297"/>
      <use xlink:href="#DejaVuSans-Bold-20" x="254.101562"/>
      <use xlink:href="#DejaVuSans-Bold-5b" x="288.916016"/>
      <use xlink:href="#DejaVuSans-Bold-68" x="334.619141"/>
      <use xlink:href="#DejaVuSans-Bold-72" x="405.810547"/>
      <use xlink:href="#DejaVuSans-Bold-5d" x="455.126953"/>
     </g>
    </g>
   </g>
   <g id="matplotlib.axis_4">
    <g id="ytick_5">
     <g id="line2d_35">
      <g>
       <use xlink:href="#m8520fa560e" x="59.495" y="622.643478" style="stroke: #000000; stroke-width: 0.8"/>
      </g>
     </g>
     <g id="text_26">
      <!-- 0 -->
      <g transform="translate(42.95125 628.342306) scale(0.15 -0.15)">
       <use xlink:href="#DejaVuSans-30"/>
      </g>
     </g>
    </g>
    <g id="ytick_6">
     <g id="line2d_36">
      <g>
       <use xlink:href="#m8520fa560e" x="59.495" y="578.041763" style="stroke: #000000; stroke-width: 0.8"/>
      </g>
     </g>
     <g id="text_27">
      <!-- 2 -->
      <g transform="translate(42.95125 583.740591) scale(0.15 -0.15)">
       <use xlink:href="#DejaVuSans-32"/>
      </g>
     </g>
    </g>
    <g id="ytick_7">
     <g id="line2d_37">
      <g>
       <use xlink:href="#m8520fa560e" x="59.495" y="533.440047" style="stroke: #000000; stroke-width: 0.8"/>
      </g>
     </g>
     <g id="text_28">
      <!-- 4 -->
      <g transform="translate(42.95125 539.138875) scale(0.15 -0.15)">
       <use xlink:href="#DejaVuSans-34"/>
      </g>
     </g>
    </g>
    <g id="ytick_8">
     <g id="line2d_38">
      <g>
       <use xlink:href="#m8520fa560e" x="59.495" y="488.838332" style="stroke: #000000; stroke-width: 0.8"/>
      </g>
     </g>
     <g id="text_29">
      <!-- 6 -->
      <g transform="translate(42.95125 494.53716) scale(0.15 -0.15)">
       <use xlink:href="#DejaVuSans-36"/>
      </g>
     </g>
    </g>
    <g id="ytick_9">
     <g id="line2d_39">
      <g>
       <use xlink:href="#m8520fa560e" x="59.495" y="444.236616" style="stroke: #000000; stroke-width: 0.8"/>
      </g>
     </g>
     <g id="text_30">
      <!-- 8 -->
      <g transform="translate(42.95125 449.935444) scale(0.15 -0.15)">
       <use xlink:href="#DejaVuSans-38"/>
      </g>
     </g>
    </g>
    <g id="ytick_10">
     <g id="line2d_40">
      <g>
       <use xlink:href="#m8520fa560e" x="59.495" y="399.6349" style="stroke: #000000; stroke-width: 0.8"/>
      </g>
     </g>
     <g id="text_31">
      <!-- 10 -->
      <g transform="translate(33.4075 405.333728) scale(0.15 -0.15)">
       <use xlink:href="#DejaVuSans-31"/>
       <use xlink:href="#DejaVuSans-30" x="63.623047"/>
      </g>
     </g>
    </g>
    <g id="text_32">
     <!-- rivaroxaban urine [µmole] -->
     <g transform="translate(25.644375 646.272636) rotate(-90) scale(0.18 -0.18)">
      <defs>
       <path id="DejaVuSans-Bold-75" d="M 500 1363 
L 500 3500 
L 1625 3500 
L 1625 3150 
Q 1625 2866 1622 2436 
Q 1619 2006 1619 1863 
Q 1619 1441 1641 1255 
Q 1663 1069 1716 984 
Q 1784 875 1895 815 
Q 2006 756 2150 756 
Q 2500 756 2700 1025 
Q 2900 1294 2900 1772 
L 2900 3500 
L 4019 3500 
L 4019 0 
L 2900 0 
L 2900 506 
Q 2647 200 2364 54 
Q 2081 -91 1741 -91 
Q 1134 -91 817 281 
Q 500 653 500 1363 
z
" transform="scale(0.015625)"/>
      </defs>
      <use xlink:href="#DejaVuSans-Bold-72"/>
      <use xlink:href="#DejaVuSans-Bold-69" x="49.316406"/>
      <use xlink:href="#DejaVuSans-Bold-76" x="83.59375"/>
      <use xlink:href="#DejaVuSans-Bold-61" x="148.779297"/>
      <use xlink:href="#DejaVuSans-Bold-72" x="216.259766"/>
      <use xlink:href="#DejaVuSans-Bold-6f" x="265.576172"/>
      <use xlink:href="#DejaVuSans-Bold-78" x="334.277344"/>
      <use xlink:href="#DejaVuSans-Bold-61" x="398.779297"/>
      <use xlink:href="#DejaVuSans-Bold-62" x="466.259766"/>
      <use xlink:href="#DejaVuSans-Bold-61" x="537.841797"/>
      <use xlink:href="#DejaVuSans-Bold-6e" x="605.322266"/>
      <use xlink:href="#DejaVuSans-Bold-20" x="676.513672"/>
      <use xlink:href="#DejaVuSans-Bold-75" x="711.328125"/>
      <use xlink:href="#DejaVuSans-Bold-72" x="782.519531"/>
      <use xlink:href="#DejaVuSans-Bold-69" x="831.835938"/>
      <use xlink:href="#DejaVuSans-Bold-6e" x="866.113281"/>
      <use xlink:href="#DejaVuSans-Bold-65" x="937.304688"/>
      <use xlink:href="#DejaVuSans-Bold-20" x="1005.126953"/>
      <use xlink:href="#DejaVuSans-Bold-5b" x="1039.941406"/>
      <use xlink:href="#DejaVuSans-Bold-b5" x="1085.644531"/>
      <use xlink:href="#DejaVuSans-Bold-6d" x="1159.228516"/>
      <use xlink:href="#DejaVuSans-Bold-6f" x="1263.427734"/>
      <use xlink:href="#DejaVuSans-Bold-6c" x="1332.128906"/>
      <use xlink:href="#DejaVuSans-Bold-65" x="1366.40625"/>
      <use xlink:href="#DejaVuSans-Bold-5d" x="1434.228516"/>
     </g>
    </g>
   </g>
   <g id="LineCollection_7">
    <path clip-path="url(#p6b5e253cc7)" style="fill: none; stroke: #000000"/>
    <path d="M 418.136818 482.610791 
L 418.136818 403.513043 
" clip-path="url(#p6b5e253cc7)" style="fill: none; stroke: #000000"/>
   </g>
   <g id="LineCollection_8">
    <path clip-path="url(#p6b5e253cc7)" style="fill: none; stroke: #66c2a4"/>
    <path d="M 418.136818 530.90851 
L 418.136818 459.587514 
" clip-path="url(#p6b5e253cc7)" style="fill: none; stroke: #66c2a4"/>
   </g>
   <g id="LineCollection_9">
    <path clip-path="url(#p6b5e253cc7)" style="fill: none; stroke: #2ca25f"/>
    <path d="M 418.136818 589.592285 
L 418.136818 522.671293 
" clip-path="url(#p6b5e253cc7)" style="fill: none; stroke: #2ca25f"/>
   </g>
   <g id="line2d_41">
    <path d="M 77.249545 622.643478 
L 78.669909 622.564575 
L 79.380091 622.386405 
L 80.090273 622.074364 
L 80.800455 621.61753 
L 82.220818 620.271334 
L 83.641182 618.400662 
L 85.061545 616.097266 
L 87.192091 612.041845 
L 90.032818 605.94528 
L 102.105909 579.088391 
L 105.656818 571.95614 
L 109.207727 565.305646 
L 112.758636 559.131461 
L 116.309545 553.413364 
L 119.860455 548.124815 
L 123.411364 543.237234 
L 126.962273 538.722125 
L 130.513182 534.552089 
L 134.064091 530.70126 
L 137.615 527.145469 
L 141.165909 523.862246 
L 145.427 520.252961 
L 149.688091 516.973229 
L 153.949182 513.992986 
L 158.210273 511.284897 
L 162.471364 508.824115 
L 167.442636 506.235759 
L 172.413909 503.921022 
L 177.385182 501.850978 
L 183.066636 499.751785 
L 188.748091 497.904227 
L 194.429545 496.27814 
L 200.821182 494.680589 
L 207.923 493.154963 
L 215.024818 491.854404 
L 222.836818 490.644263 
L 231.359 489.545218 
L 241.301545 488.502689 
L 251.954273 487.616197 
L 264.027364 486.837411 
L 278.231 486.154644 
L 294.565182 485.596776 
L 314.450273 485.143489 
L 340.016818 484.791888 
L 375.525909 484.542912 
L 431.630273 484.396812 
L 432.340455 484.395897 
L 432.340455 484.395897 
" clip-path="url(#p6b5e253cc7)" style="fill: none; stroke: #000000; stroke-width: 2; stroke-linecap: square"/>
   </g>
   <g id="line2d_42">
    <g clip-path="url(#p6b5e253cc7)">
     <use xlink:href="#m589318747d" x="77.249545" y="622.643478" style="stroke: #000000; stroke-linejoin: miter"/>
     <use xlink:href="#m589318747d" x="418.136818" y="443.061917" style="stroke: #000000; stroke-linejoin: miter"/>
    </g>
   </g>
   <g id="line2d_43">
    <path d="M 77.249545 622.643478 
L 78.669909 622.603214 
L 80.090273 622.349776 
L 81.510636 621.793752 
L 82.931 620.931431 
L 84.351364 619.796174 
L 86.481909 617.682783 
L 88.612455 615.213789 
L 92.163364 610.64961 
L 102.816091 596.567623 
L 107.077182 591.405182 
L 111.338273 586.630551 
L 115.599364 582.248437 
L 119.860455 578.243875 
L 124.121545 574.593245 
L 128.382636 571.269877 
L 132.643727 568.246823 
L 136.904818 565.498187 
L 141.165909 562.999704 
L 145.427 560.728941 
L 150.398273 558.340176 
L 155.369545 556.203782 
L 160.340818 554.29316 
L 166.022273 552.355596 
L 171.703727 550.650274 
L 178.095364 548.974871 
L 184.487 547.523647 
L 191.588818 546.137759 
L 199.400818 544.848221 
L 207.923 543.677068 
L 217.155364 542.637523 
L 227.808091 541.67767 
L 239.171 540.877958 
L 252.664455 540.158932 
L 268.288455 539.557927 
L 287.463364 539.057757 
L 311.609545 538.668915 
L 343.567727 538.392423 
L 391.860091 538.218183 
L 432.340455 538.165089 
L 432.340455 538.165089 
" clip-path="url(#p6b5e253cc7)" style="fill: none; stroke: #66c2a4; stroke-width: 2; stroke-linecap: square"/>
   </g>
   <g id="line2d_44">
    <g clip-path="url(#p6b5e253cc7)">
     <use xlink:href="#mf2b8f8ae7d" x="77.249545" y="622.643478" style="fill: #66c2a4; stroke: #000000; stroke-linejoin: miter"/>
     <use xlink:href="#mf2b8f8ae7d" x="418.136818" y="495.248012" style="fill: #66c2a4; stroke: #000000; stroke-linejoin: miter"/>
    </g>
   </g>
   <g id="line2d_45">
    <path d="M 77.249545 622.643478 
L 79.380091 622.550123 
L 80.800455 622.265477 
L 82.220818 621.75714 
L 83.641182 621.036653 
L 85.771727 619.621272 
L 87.902273 617.902064 
L 90.743 615.30621 
L 96.424455 609.685962 
L 102.816091 603.445495 
L 107.077182 599.561529 
L 111.338273 595.95651 
L 115.599364 592.639635 
L 119.860455 589.603395 
L 124.121545 586.832357 
L 128.382636 584.307833 
L 132.643727 582.010305 
L 137.615 579.591322 
L 142.586273 577.426768 
L 147.557545 575.490404 
L 153.239 573.526408 
L 158.920455 571.797662 
L 165.312091 570.099164 
L 171.703727 568.627898 
L 178.805545 567.222854 
L 186.617545 565.915484 
L 195.139727 564.728135 
L 204.372091 563.674211 
L 214.314636 562.758962 
L 225.677545 561.935144 
L 239.171 561.194444 
L 254.795 560.575322 
L 273.259727 560.075464 
L 296.695727 559.677543 
L 327.943727 559.387981 
L 374.105545 559.204395 
L 432.340455 559.130857 
L 432.340455 559.130857 
" clip-path="url(#p6b5e253cc7)" style="fill: none; stroke: #2ca25f; stroke-width: 2; stroke-linecap: square"/>
   </g>
   <g id="line2d_46">
    <g clip-path="url(#p6b5e253cc7)">
     <use xlink:href="#m08b6cbffea" x="77.249545" y="622.643478" style="fill: #2ca25f; stroke: #000000; stroke-linejoin: miter"/>
     <use xlink:href="#m08b6cbffea" x="418.136818" y="556.131789" style="fill: #2ca25f; stroke: #000000; stroke-linejoin: miter"/>
    </g>
   </g>
   <g id="patch_9">
    <path d="M 59.495 633.6 
L 59.495 392.556522 
" style="fill: none; stroke: #000000; stroke-width: 0.8; stroke-linejoin: miter; stroke-linecap: square"/>
   </g>
   <g id="patch_10">
    <path d="M 450.095 633.6 
L 450.095 392.556522 
" style="fill: none; stroke: #000000; stroke-width: 0.8; stroke-linejoin: miter; stroke-linecap: square"/>
   </g>
   <g id="patch_11">
    <path d="M 59.495 633.6 
L 450.095 633.6 
" style="fill: none; stroke: #000000; stroke-width: 0.8; stroke-linejoin: miter; stroke-linecap: square"/>
   </g>
   <g id="patch_12">
    <path d="M 59.495 392.556522 
L 450.095 392.556522 
" style="fill: none; stroke: #000000; stroke-width: 0.8; stroke-linejoin: miter; stroke-linecap: square"/>
   </g>
   <g id="legend_2">
    <g id="patch_13">
     <path d="M 66.495 488.625272 
L 211.555938 488.625272 
Q 213.555938 488.625272 213.555938 486.625272 
L 213.555938 399.556522 
Q 213.555938 397.556522 211.555938 397.556522 
L 66.495 397.556522 
Q 64.495 397.556522 64.495 399.556522 
L 64.495 486.625272 
Q 64.495 488.625272 66.495 488.625272 
z
" style="fill: #ffffff; opacity: 0.8; stroke: #cccccc; stroke-linejoin: miter"/>
    </g>
    <g id="line2d_47">
     <path d="M 68.495 405.654959 
L 88.495 405.654959 
" style="fill: none; stroke: #000000; stroke-width: 2; stroke-linecap: square"/>
    </g>
    <g id="line2d_48"/>
    <g id="text_33">
     <!-- NRF -->
     <g transform="translate(96.495 409.154959) scale(0.1 -0.1)">
      <use xlink:href="#DejaVuSans-4e"/>
      <use xlink:href="#DejaVuSans-52" x="74.804688"/>
      <use xlink:href="#DejaVuSans-46" x="144.287109"/>
     </g>
    </g>
    <g id="LineCollection_10">
     <path d="M 78.495 425.333084 
L 78.495 415.333084 
" style="fill: none; stroke: #000000"/>
    </g>
    <g id="line2d_49"/>
    <g id="line2d_50">
     <g>
      <use xlink:href="#m589318747d" x="78.495" y="420.333084" style="stroke: #000000; stroke-linejoin: miter"/>
     </g>
    </g>
    <g id="text_34">
     <!-- NRF±SD (n=8) -->
     <g transform="translate(96.495 423.833084) scale(0.1 -0.1)">
      <use xlink:href="#DejaVuSans-4e"/>
      <use xlink:href="#DejaVuSans-52" x="74.804688"/>
      <use xlink:href="#DejaVuSans-46" x="144.287109"/>
      <use xlink:href="#DejaVuSans-b1" x="201.806641"/>
      <use xlink:href="#DejaVuSans-53" x="285.595703"/>
      <use xlink:href="#DejaVuSans-44" x="349.072266"/>
      <use xlink:href="#DejaVuSans-20" x="426.074219"/>
      <use xlink:href="#DejaVuSans-28" x="457.861328"/>
      <use xlink:href="#DejaVuSans-6e" x="496.875"/>
      <use xlink:href="#DejaVuSans-3d" x="560.253906"/>
      <use xlink:href="#DejaVuSans-38" x="644.042969"/>
      <use xlink:href="#DejaVuSans-29" x="707.666016"/>
     </g>
    </g>
    <g id="line2d_51">
     <path d="M 68.495 435.011209 
L 88.495 435.011209 
" style="fill: none; stroke: #66c2a4; stroke-width: 2; stroke-linecap: square"/>
    </g>
    <g id="line2d_52"/>
    <g id="text_35">
     <!-- mildRI -->
     <g transform="translate(96.495 438.511209) scale(0.1 -0.1)">
      <use xlink:href="#DejaVuSans-6d"/>
      <use xlink:href="#DejaVuSans-69" x="97.412109"/>
      <use xlink:href="#DejaVuSans-6c" x="125.195312"/>
      <use xlink:href="#DejaVuSans-64" x="152.978516"/>
      <use xlink:href="#DejaVuSans-52" x="216.455078"/>
      <use xlink:href="#DejaVuSans-49" x="285.9375"/>
     </g>
    </g>
    <g id="LineCollection_11">
     <path d="M 78.495 454.689334 
L 78.495 444.689334 
" style="fill: none; stroke: #66c2a4"/>
    </g>
    <g id="line2d_53"/>
    <g id="line2d_54">
     <g>
      <use xlink:href="#mf2b8f8ae7d" x="78.495" y="449.689334" style="fill: #66c2a4; stroke: #000000; stroke-linejoin: miter"/>
     </g>
    </g>
    <g id="text_36">
     <!-- mildRI±SD (n=12) -->
     <g transform="translate(96.495 453.189334) scale(0.1 -0.1)">
      <use xlink:href="#DejaVuSans-6d"/>
      <use xlink:href="#DejaVuSans-69" x="97.412109"/>
      <use xlink:href="#DejaVuSans-6c" x="125.195312"/>
      <use xlink:href="#DejaVuSans-64" x="152.978516"/>
      <use xlink:href="#DejaVuSans-52" x="216.455078"/>
      <use xlink:href="#DejaVuSans-49" x="285.9375"/>
      <use xlink:href="#DejaVuSans-b1" x="315.429688"/>
      <use xlink:href="#DejaVuSans-53" x="399.21875"/>
      <use xlink:href="#DejaVuSans-44" x="462.695312"/>
      <use xlink:href="#DejaVuSans-20" x="539.697266"/>
      <use xlink:href="#DejaVuSans-28" x="571.484375"/>
      <use xlink:href="#DejaVuSans-6e" x="610.498047"/>
      <use xlink:href="#DejaVuSans-3d" x="673.876953"/>
      <use xlink:href="#DejaVuSans-31" x="757.666016"/>
      <use xlink:href="#DejaVuSans-32" x="821.289062"/>
      <use xlink:href="#DejaVuSans-29" x="884.912109"/>
     </g>
    </g>
    <g id="line2d_55">
     <path d="M 68.495 464.367459 
L 88.495 464.367459 
" style="fill: none; stroke: #2ca25f; stroke-width: 2; stroke-linecap: square"/>
    </g>
    <g id="line2d_56"/>
    <g id="text_37">
     <!-- moderateRI -->
     <g transform="translate(96.495 467.867459) scale(0.1 -0.1)">
      <use xlink:href="#DejaVuSans-6d"/>
      <use xlink:href="#DejaVuSans-6f" x="97.412109"/>
      <use xlink:href="#DejaVuSans-64" x="158.59375"/>
      <use xlink:href="#DejaVuSans-65" x="222.070312"/>
      <use xlink:href="#DejaVuSans-72" x="283.59375"/>
      <use xlink:href="#DejaVuSans-61" x="324.707031"/>
      <use xlink:href="#DejaVuSans-74" x="385.986328"/>
      <use xlink:href="#DejaVuSans-65" x="425.195312"/>
      <use xlink:href="#DejaVuSans-52" x="486.71875"/>
      <use xlink:href="#DejaVuSans-49" x="556.201172"/>
     </g>
    </g>
    <g id="LineCollection_12">
     <path d="M 78.495 484.045584 
L 78.495 474.045584 
" style="fill: none; stroke: #2ca25f"/>
    </g>
    <g id="line2d_57"/>
    <g id="line2d_58">
     <g>
      <use xlink:href="#m08b6cbffea" x="78.495" y="479.045584" style="fill: #2ca25f; stroke: #000000; stroke-linejoin: miter"/>
     </g>
    </g>
    <g id="text_38">
     <!-- moderateRI±SD (n=9) -->
     <g transform="translate(96.495 482.545584) scale(0.1 -0.1)">
      <defs>
       <path id="DejaVuSans-39" d="M 703 97 
L 703 672 
Q 941 559 1184 500 
Q 1428 441 1663 441 
Q 2288 441 2617 861 
Q 2947 1281 2994 2138 
Q 2813 1869 2534 1725 
Q 2256 1581 1919 1581 
Q 1219 1581 811 2004 
Q 403 2428 403 3163 
Q 403 3881 828 4315 
Q 1253 4750 1959 4750 
Q 2769 4750 3195 4129 
Q 3622 3509 3622 2328 
Q 3622 1225 3098 567 
Q 2575 -91 1691 -91 
Q 1453 -91 1209 -44 
Q 966 3 703 97 
z
M 1959 2075 
Q 2384 2075 2632 2365 
Q 2881 2656 2881 3163 
Q 2881 3666 2632 3958 
Q 2384 4250 1959 4250 
Q 1534 4250 1286 3958 
Q 1038 3666 1038 3163 
Q 1038 2656 1286 2365 
Q 1534 2075 1959 2075 
z
" transform="scale(0.015625)"/>
      </defs>
      <use xlink:href="#DejaVuSans-6d"/>
      <use xlink:href="#DejaVuSans-6f" x="97.412109"/>
      <use xlink:href="#DejaVuSans-64" x="158.59375"/>
      <use xlink:href="#DejaVuSans-65" x="222.070312"/>
      <use xlink:href="#DejaVuSans-72" x="283.59375"/>
      <use xlink:href="#DejaVuSans-61" x="324.707031"/>
      <use xlink:href="#DejaVuSans-74" x="385.986328"/>
      <use xlink:href="#DejaVuSans-65" x="425.195312"/>
      <use xlink:href="#DejaVuSans-52" x="486.71875"/>
      <use xlink:href="#DejaVuSans-49" x="556.201172"/>
      <use xlink:href="#DejaVuSans-b1" x="585.693359"/>
      <use xlink:href="#DejaVuSans-53" x="669.482422"/>
      <use xlink:href="#DejaVuSans-44" x="732.958984"/>
      <use xlink:href="#DejaVuSans-20" x="809.960938"/>
      <use xlink:href="#DejaVuSans-28" x="841.748047"/>
      <use xlink:href="#DejaVuSans-6e" x="880.761719"/>
      <use xlink:href="#DejaVuSans-3d" x="944.140625"/>
      <use xlink:href="#DejaVuSans-39" x="1027.929688"/>
      <use xlink:href="#DejaVuSans-29" x="1091.552734"/>
     </g>
    </g>
   </g>
  </g>
  <g id="text_39">
   <!-- Moore2014 -->
   <g transform="translate(169.448125 26.196094) scale(0.25 -0.25)">
    <defs>
     <path id="DejaVuSans-Bold-32" d="M 1844 884 
L 3897 884 
L 3897 0 
L 506 0 
L 506 884 
L 2209 2388 
Q 2438 2594 2547 2791 
Q 2656 2988 2656 3200 
Q 2656 3528 2436 3728 
Q 2216 3928 1850 3928 
Q 1569 3928 1234 3808 
Q 900 3688 519 3450 
L 519 4475 
Q 925 4609 1322 4679 
Q 1719 4750 2100 4750 
Q 2938 4750 3402 4381 
Q 3866 4013 3866 3353 
Q 3866 2972 3669 2642 
Q 3472 2313 2841 1759 
L 1844 884 
z
" transform="scale(0.015625)"/>
     <path id="DejaVuSans-Bold-30" d="M 2944 2338 
Q 2944 3213 2780 3570 
Q 2616 3928 2228 3928 
Q 1841 3928 1675 3570 
Q 1509 3213 1509 2338 
Q 1509 1453 1675 1090 
Q 1841 728 2228 728 
Q 2613 728 2778 1090 
Q 2944 1453 2944 2338 
z
M 4147 2328 
Q 4147 1169 3647 539 
Q 3147 -91 2228 -91 
Q 1306 -91 806 539 
Q 306 1169 306 2328 
Q 306 3491 806 4120 
Q 1306 4750 2228 4750 
Q 3147 4750 3647 4120 
Q 4147 3491 4147 2328 
z
" transform="scale(0.015625)"/>
     <path id="DejaVuSans-Bold-31" d="M 750 831 
L 1813 831 
L 1813 3847 
L 722 3622 
L 722 4441 
L 1806 4666 
L 2950 4666 
L 2950 831 
L 4013 831 
L 4013 0 
L 750 0 
L 750 831 
z
" transform="scale(0.015625)"/>
     <path id="DejaVuSans-Bold-34" d="M 2356 3675 
L 1038 1722 
L 2356 1722 
L 2356 3675 
z
M 2156 4666 
L 3494 4666 
L 3494 1722 
L 4159 1722 
L 4159 850 
L 3494 850 
L 3494 0 
L 2356 0 
L 2356 850 
L 288 850 
L 288 1881 
L 2156 4666 
z
" transform="scale(0.015625)"/>
    </defs>
    <use xlink:href="#DejaVuSans-Bold-4d"/>
    <use xlink:href="#DejaVuSans-Bold-6f" x="99.511719"/>
    <use xlink:href="#DejaVuSans-Bold-6f" x="168.212891"/>
    <use xlink:href="#DejaVuSans-Bold-72" x="236.914062"/>
    <use xlink:href="#DejaVuSans-Bold-65" x="286.230469"/>
    <use xlink:href="#DejaVuSans-Bold-32" x="354.052734"/>
    <use xlink:href="#DejaVuSans-Bold-30" x="423.632812"/>
    <use xlink:href="#DejaVuSans-Bold-31" x="493.212891"/>
    <use xlink:href="#DejaVuSans-Bold-34" x="562.792969"/>
   </g>
  </g>
 </g>
 <defs>
  <clipPath id="pa41803a10a">
   <rect x="59.495" y="79.2" width="390.6" height="241.043478"/>
  </clipPath>
  <clipPath id="p6b5e253cc7">
   <rect x="59.495" y="392.556522" width="390.6" height="241.043478"/>
  </clipPath>
 </defs>
</svg>
