<?xml version="1.0" encoding="utf-8" standalone="no"?>
<!DOCTYPE svg PUBLIC "-//W3C//DTD SVG 1.1//EN"
  "http://www.w3.org/Graphics/SVG/1.1/DTD/svg11.dtd">
<svg xmlns:xlink="http://www.w3.org/1999/xlink" width="466.83875pt" height="370.537812pt" viewBox="0 0 466.83875 370.537812" xmlns="http://www.w3.org/2000/svg" version="1.1">
 <metadata>
  <rdf:RDF xmlns:dc="http://purl.org/dc/elements/1.1/" xmlns:cc="http://creativecommons.org/ns#" xmlns:rdf="http://www.w3.org/1999/02/22-rdf-syntax-ns#">
   <cc:Work>
    <dc:type rdf:resource="http://purl.org/dc/dcmitype/StillImage"/>
    <dc:date>2025-07-19T10:59:00.649733</dc:date>
    <dc:format>image/svg+xml</dc:format>
    <dc:creator>
     <cc:Agent>
      <dc:title>Matplotlib v3.9.1, https://matplotlib.org/</dc:title>
     </cc:Agent>
    </dc:creator>
   </cc:Work>
  </rdf:RDF>
 </metadata>
 <defs>
  <style type="text/css">*{stroke-linejoin: round; stroke-linecap: butt}</style>
 </defs>
 <g id="figure_1">
  <g id="patch_1">
   <path d="M 0 370.537812 
L 466.83875 370.537812 
L 466.83875 0 
L 0 0 
z
" style="fill: #ffffff"/>
  </g>
  <g id="axes_1">
   <g id="patch_2">
    <path d="M 69.03875 320.4 
L 459.63875 320.4 
L 459.63875 43.2 
L 69.03875 43.2 
z
" style="fill: #ffffff"/>
   </g>
   <g id="matplotlib.axis_1">
    <g id="xtick_1">
     <g id="line2d_1">
      <defs>
       <path id="m679942c5f8" d="M 0 0 
L 0 3.5 
" style="stroke: #000000; stroke-width: 0.8"/>
      </defs>
      <g>
       <use xlink:href="#m679942c5f8" x="86.793295" y="320.4" style="stroke: #000000; stroke-width: 0.8"/>
      </g>
     </g>
     <g id="text_1">
      <!-- 0 -->
      <g transform="translate(82.02142 338.797656) scale(0.15 -0.15)">
       <defs>
        <path id="DejaVuSans-30" d="M 2034 4250 
Q 1547 4250 1301 3770 
Q 1056 3291 1056 2328 
Q 1056 1369 1301 889 
Q 1547 409 2034 409 
Q 2525 409 2770 889 
Q 3016 1369 3016 2328 
Q 3016 3291 2770 3770 
Q 2525 4250 2034 4250 
z
M 2034 4750 
Q 2819 4750 3233 4129 
Q 3647 3509 3647 2328 
Q 3647 1150 3233 529 
Q 2819 -91 2034 -91 
Q 1250 -91 836 529 
Q 422 1150 422 2328 
Q 422 3509 836 4129 
Q 1250 4750 2034 4750 
z
" transform="scale(0.015625)"/>
       </defs>
       <use xlink:href="#DejaVuSans-30"/>
      </g>
     </g>
    </g>
    <g id="xtick_2">
     <g id="line2d_2">
      <g>
       <use xlink:href="#m679942c5f8" x="157.811477" y="320.4" style="stroke: #000000; stroke-width: 0.8"/>
      </g>
     </g>
     <g id="text_2">
      <!-- 10 -->
      <g transform="translate(148.267727 338.797656) scale(0.15 -0.15)">
       <defs>
        <path id="DejaVuSans-31" d="M 794 531 
L 1825 531 
L 1825 4091 
L 703 3866 
L 703 4441 
L 1819 4666 
L 2450 4666 
L 2450 531 
L 3481 531 
L 3481 0 
L 794 0 
L 794 531 
z
" transform="scale(0.015625)"/>
       </defs>
       <use xlink:href="#DejaVuSans-31"/>
       <use xlink:href="#DejaVuSans-30" x="63.623047"/>
      </g>
     </g>
    </g>
    <g id="xtick_3">
     <g id="line2d_3">
      <g>
       <use xlink:href="#m679942c5f8" x="228.829659" y="320.4" style="stroke: #000000; stroke-width: 0.8"/>
      </g>
     </g>
     <g id="text_3">
      <!-- 20 -->
      <g transform="translate(219.285909 338.797656) scale(0.15 -0.15)">
       <defs>
        <path id="DejaVuSans-32" d="M 1228 531 
L 3431 531 
L 3431 0 
L 469 0 
L 469 531 
Q 828 903 1448 1529 
Q 2069 2156 2228 2338 
Q 2531 2678 2651 2914 
Q 2772 3150 2772 3378 
Q 2772 3750 2511 3984 
Q 2250 4219 1831 4219 
Q 1534 4219 1204 4116 
Q 875 4013 500 3803 
L 500 4441 
Q 881 4594 1212 4672 
Q 1544 4750 1819 4750 
Q 2544 4750 2975 4387 
Q 3406 4025 3406 3419 
Q 3406 3131 3298 2873 
Q 3191 2616 2906 2266 
Q 2828 2175 2409 1742 
Q 1991 1309 1228 531 
z
" transform="scale(0.015625)"/>
       </defs>
       <use xlink:href="#DejaVuSans-32"/>
       <use xlink:href="#DejaVuSans-30" x="63.623047"/>
      </g>
     </g>
    </g>
    <g id="xtick_4">
     <g id="line2d_4">
      <g>
       <use xlink:href="#m679942c5f8" x="299.847841" y="320.4" style="stroke: #000000; stroke-width: 0.8"/>
      </g>
     </g>
     <g id="text_4">
      <!-- 30 -->
      <g transform="translate(290.304091 338.797656) scale(0.15 -0.15)">
       <defs>
        <path id="DejaVuSans-33" d="M 2597 2516 
Q 3050 2419 3304 2112 
Q 3559 1806 3559 1356 
Q 3559 666 3084 287 
Q 2609 -91 1734 -91 
Q 1441 -91 1130 -33 
Q 819 25 488 141 
L 488 750 
Q 750 597 1062 519 
Q 1375 441 1716 441 
Q 2309 441 2620 675 
Q 2931 909 2931 1356 
Q 2931 1769 2642 2001 
Q 2353 2234 1838 2234 
L 1294 2234 
L 1294 2753 
L 1863 2753 
Q 2328 2753 2575 2939 
Q 2822 3125 2822 3475 
Q 2822 3834 2567 4026 
Q 2313 4219 1838 4219 
Q 1578 4219 1281 4162 
Q 984 4106 628 3988 
L 628 4550 
Q 988 4650 1302 4700 
Q 1616 4750 1894 4750 
Q 2613 4750 3031 4423 
Q 3450 4097 3450 3541 
Q 3450 3153 3228 2886 
Q 3006 2619 2597 2516 
z
" transform="scale(0.015625)"/>
       </defs>
       <use xlink:href="#DejaVuSans-33"/>
       <use xlink:href="#DejaVuSans-30" x="63.623047"/>
      </g>
     </g>
    </g>
    <g id="xtick_5">
     <g id="line2d_5">
      <g>
       <use xlink:href="#m679942c5f8" x="370.866023" y="320.4" style="stroke: #000000; stroke-width: 0.8"/>
      </g>
     </g>
     <g id="text_5">
      <!-- 40 -->
      <g transform="translate(361.322273 338.797656) scale(0.15 -0.15)">
       <defs>
        <path id="DejaVuSans-34" d="M 2419 4116 
L 825 1625 
L 2419 1625 
L 2419 4116 
z
M 2253 4666 
L 3047 4666 
L 3047 1625 
L 3713 1625 
L 3713 1100 
L 3047 1100 
L 3047 0 
L 2419 0 
L 2419 1100 
L 313 1100 
L 313 1709 
L 2253 4666 
z
" transform="scale(0.015625)"/>
       </defs>
       <use xlink:href="#DejaVuSans-34"/>
       <use xlink:href="#DejaVuSans-30" x="63.623047"/>
      </g>
     </g>
    </g>
    <g id="xtick_6">
     <g id="line2d_6">
      <g>
       <use xlink:href="#m679942c5f8" x="441.884205" y="320.4" style="stroke: #000000; stroke-width: 0.8"/>
      </g>
     </g>
     <g id="text_6">
      <!-- 50 -->
      <g transform="translate(432.340455 338.797656) scale(0.15 -0.15)">
       <defs>
        <path id="DejaVuSans-35" d="M 691 4666 
L 3169 4666 
L 3169 4134 
L 1269 4134 
L 1269 2991 
Q 1406 3038 1543 3061 
Q 1681 3084 1819 3084 
Q 2600 3084 3056 2656 
Q 3513 2228 3513 1497 
Q 3513 744 3044 326 
Q 2575 -91 1722 -91 
Q 1428 -91 1123 -41 
Q 819 9 494 109 
L 494 744 
Q 775 591 1075 516 
Q 1375 441 1709 441 
Q 2250 441 2565 725 
Q 2881 1009 2881 1497 
Q 2881 1984 2565 2268 
Q 2250 2553 1709 2553 
Q 1456 2553 1204 2497 
Q 953 2441 691 2322 
L 691 4666 
z
" transform="scale(0.015625)"/>
       </defs>
       <use xlink:href="#DejaVuSans-35"/>
       <use xlink:href="#DejaVuSans-30" x="63.623047"/>
      </g>
     </g>
    </g>
    <g id="text_7">
     <!-- time [hr] -->
     <g transform="translate(219.264219 359.594375) scale(0.18 -0.18)">
      <defs>
       <path id="DejaVuSans-Bold-74" d="M 1759 4494 
L 1759 3500 
L 2913 3500 
L 2913 2700 
L 1759 2700 
L 1759 1216 
Q 1759 972 1856 886 
Q 1953 800 2241 800 
L 2816 800 
L 2816 0 
L 1856 0 
Q 1194 0 917 276 
Q 641 553 641 1216 
L 641 2700 
L 84 2700 
L 84 3500 
L 641 3500 
L 641 4494 
L 1759 4494 
z
" transform="scale(0.015625)"/>
       <path id="DejaVuSans-Bold-69" d="M 538 3500 
L 1656 3500 
L 1656 0 
L 538 0 
L 538 3500 
z
M 538 4863 
L 1656 4863 
L 1656 3950 
L 538 3950 
L 538 4863 
z
" transform="scale(0.015625)"/>
       <path id="DejaVuSans-Bold-6d" d="M 3781 2919 
Q 3994 3244 4286 3414 
Q 4578 3584 4928 3584 
Q 5531 3584 5847 3212 
Q 6163 2841 6163 2131 
L 6163 0 
L 5038 0 
L 5038 1825 
Q 5041 1866 5042 1909 
Q 5044 1953 5044 2034 
Q 5044 2406 4934 2573 
Q 4825 2741 4581 2741 
Q 4263 2741 4089 2478 
Q 3916 2216 3909 1719 
L 3909 0 
L 2784 0 
L 2784 1825 
Q 2784 2406 2684 2573 
Q 2584 2741 2328 2741 
Q 2006 2741 1831 2477 
Q 1656 2213 1656 1722 
L 1656 0 
L 531 0 
L 531 3500 
L 1656 3500 
L 1656 2988 
Q 1863 3284 2130 3434 
Q 2397 3584 2719 3584 
Q 3081 3584 3359 3409 
Q 3638 3234 3781 2919 
z
" transform="scale(0.015625)"/>
       <path id="DejaVuSans-Bold-65" d="M 4031 1759 
L 4031 1441 
L 1416 1441 
Q 1456 1047 1700 850 
Q 1944 653 2381 653 
Q 2734 653 3104 758 
Q 3475 863 3866 1075 
L 3866 213 
Q 3469 63 3072 -14 
Q 2675 -91 2278 -91 
Q 1328 -91 801 392 
Q 275 875 275 1747 
Q 275 2603 792 3093 
Q 1309 3584 2216 3584 
Q 3041 3584 3536 3087 
Q 4031 2591 4031 1759 
z
M 2881 2131 
Q 2881 2450 2695 2645 
Q 2509 2841 2209 2841 
Q 1884 2841 1681 2658 
Q 1478 2475 1428 2131 
L 2881 2131 
z
" transform="scale(0.015625)"/>
       <path id="DejaVuSans-Bold-20" transform="scale(0.015625)"/>
       <path id="DejaVuSans-Bold-5b" d="M 550 4863 
L 2491 4863 
L 2491 4159 
L 1613 4159 
L 1613 -141 
L 2491 -141 
L 2491 -844 
L 550 -844 
L 550 4863 
z
" transform="scale(0.015625)"/>
       <path id="DejaVuSans-Bold-68" d="M 4056 2131 
L 4056 0 
L 2931 0 
L 2931 347 
L 2931 1625 
Q 2931 2084 2911 2256 
Q 2891 2428 2841 2509 
Q 2775 2619 2662 2680 
Q 2550 2741 2406 2741 
Q 2056 2741 1856 2470 
Q 1656 2200 1656 1722 
L 1656 0 
L 538 0 
L 538 4863 
L 1656 4863 
L 1656 2988 
Q 1909 3294 2193 3439 
Q 2478 3584 2822 3584 
Q 3428 3584 3742 3212 
Q 4056 2841 4056 2131 
z
" transform="scale(0.015625)"/>
       <path id="DejaVuSans-Bold-72" d="M 3138 2547 
Q 2991 2616 2845 2648 
Q 2700 2681 2553 2681 
Q 2122 2681 1889 2404 
Q 1656 2128 1656 1613 
L 1656 0 
L 538 0 
L 538 3500 
L 1656 3500 
L 1656 2925 
Q 1872 3269 2151 3426 
Q 2431 3584 2822 3584 
Q 2878 3584 2943 3579 
Q 3009 3575 3134 3559 
L 3138 2547 
z
" transform="scale(0.015625)"/>
       <path id="DejaVuSans-Bold-5d" d="M 2375 -844 
L 434 -844 
L 434 -141 
L 1313 -141 
L 1313 4159 
L 434 4159 
L 434 4863 
L 2375 4863 
L 2375 -844 
z
" transform="scale(0.015625)"/>
      </defs>
      <use xlink:href="#DejaVuSans-Bold-74"/>
      <use xlink:href="#DejaVuSans-Bold-69" x="47.802734"/>
      <use xlink:href="#DejaVuSans-Bold-6d" x="82.080078"/>
      <use xlink:href="#DejaVuSans-Bold-65" x="186.279297"/>
      <use xlink:href="#DejaVuSans-Bold-20" x="254.101562"/>
      <use xlink:href="#DejaVuSans-Bold-5b" x="288.916016"/>
      <use xlink:href="#DejaVuSans-Bold-68" x="334.619141"/>
      <use xlink:href="#DejaVuSans-Bold-72" x="405.810547"/>
      <use xlink:href="#DejaVuSans-Bold-5d" x="455.126953"/>
     </g>
    </g>
   </g>
   <g id="matplotlib.axis_2">
    <g id="ytick_1">
     <g id="line2d_7">
      <defs>
       <path id="me2431a6fd8" d="M 0 0 
L -3.5 0 
" style="stroke: #000000; stroke-width: 0.8"/>
      </defs>
      <g>
       <use xlink:href="#me2431a6fd8" x="69.03875" y="294.207309" style="stroke: #000000; stroke-width: 0.8"/>
      </g>
     </g>
     <g id="text_8">
      <!-- 0.00 -->
      <g transform="translate(28.640313 299.906137) scale(0.15 -0.15)">
       <defs>
        <path id="DejaVuSans-2e" d="M 684 794 
L 1344 794 
L 1344 0 
L 684 0 
L 684 794 
z
" transform="scale(0.015625)"/>
       </defs>
       <use xlink:href="#DejaVuSans-30"/>
       <use xlink:href="#DejaVuSans-2e" x="63.623047"/>
       <use xlink:href="#DejaVuSans-30" x="95.410156"/>
       <use xlink:href="#DejaVuSans-30" x="159.033203"/>
      </g>
     </g>
    </g>
    <g id="ytick_2">
     <g id="line2d_8">
      <g>
       <use xlink:href="#me2431a6fd8" x="69.03875" y="260.86532" style="stroke: #000000; stroke-width: 0.8"/>
      </g>
     </g>
     <g id="text_9">
      <!-- 0.25 -->
      <g transform="translate(28.640313 266.564148) scale(0.15 -0.15)">
       <use xlink:href="#DejaVuSans-30"/>
       <use xlink:href="#DejaVuSans-2e" x="63.623047"/>
       <use xlink:href="#DejaVuSans-32" x="95.410156"/>
       <use xlink:href="#DejaVuSans-35" x="159.033203"/>
      </g>
     </g>
    </g>
    <g id="ytick_3">
     <g id="line2d_9">
      <g>
       <use xlink:href="#me2431a6fd8" x="69.03875" y="227.52333" style="stroke: #000000; stroke-width: 0.8"/>
      </g>
     </g>
     <g id="text_10">
      <!-- 0.50 -->
      <g transform="translate(28.640313 233.222158) scale(0.15 -0.15)">
       <use xlink:href="#DejaVuSans-30"/>
       <use xlink:href="#DejaVuSans-2e" x="63.623047"/>
       <use xlink:href="#DejaVuSans-35" x="95.410156"/>
       <use xlink:href="#DejaVuSans-30" x="159.033203"/>
      </g>
     </g>
    </g>
    <g id="ytick_4">
     <g id="line2d_10">
      <g>
       <use xlink:href="#me2431a6fd8" x="69.03875" y="194.181341" style="stroke: #000000; stroke-width: 0.8"/>
      </g>
     </g>
     <g id="text_11">
      <!-- 0.75 -->
      <g transform="translate(28.640313 199.880169) scale(0.15 -0.15)">
       <defs>
        <path id="DejaVuSans-37" d="M 525 4666 
L 3525 4666 
L 3525 4397 
L 1831 0 
L 1172 0 
L 2766 4134 
L 525 4134 
L 525 4666 
z
" transform="scale(0.015625)"/>
       </defs>
       <use xlink:href="#DejaVuSans-30"/>
       <use xlink:href="#DejaVuSans-2e" x="63.623047"/>
       <use xlink:href="#DejaVuSans-37" x="95.410156"/>
       <use xlink:href="#DejaVuSans-35" x="159.033203"/>
      </g>
     </g>
    </g>
    <g id="ytick_5">
     <g id="line2d_11">
      <g>
       <use xlink:href="#me2431a6fd8" x="69.03875" y="160.839351" style="stroke: #000000; stroke-width: 0.8"/>
      </g>
     </g>
     <g id="text_12">
      <!-- 1.00 -->
      <g transform="translate(28.640313 166.538179) scale(0.15 -0.15)">
       <use xlink:href="#DejaVuSans-31"/>
       <use xlink:href="#DejaVuSans-2e" x="63.623047"/>
       <use xlink:href="#DejaVuSans-30" x="95.410156"/>
       <use xlink:href="#DejaVuSans-30" x="159.033203"/>
      </g>
     </g>
    </g>
    <g id="ytick_6">
     <g id="line2d_12">
      <g>
       <use xlink:href="#me2431a6fd8" x="69.03875" y="127.497362" style="stroke: #000000; stroke-width: 0.8"/>
      </g>
     </g>
     <g id="text_13">
      <!-- 1.25 -->
      <g transform="translate(28.640313 133.19619) scale(0.15 -0.15)">
       <use xlink:href="#DejaVuSans-31"/>
       <use xlink:href="#DejaVuSans-2e" x="63.623047"/>
       <use xlink:href="#DejaVuSans-32" x="95.410156"/>
       <use xlink:href="#DejaVuSans-35" x="159.033203"/>
      </g>
     </g>
    </g>
    <g id="ytick_7">
     <g id="line2d_13">
      <g>
       <use xlink:href="#me2431a6fd8" x="69.03875" y="94.155372" style="stroke: #000000; stroke-width: 0.8"/>
      </g>
     </g>
     <g id="text_14">
      <!-- 1.50 -->
      <g transform="translate(28.640313 99.8542) scale(0.15 -0.15)">
       <use xlink:href="#DejaVuSans-31"/>
       <use xlink:href="#DejaVuSans-2e" x="63.623047"/>
       <use xlink:href="#DejaVuSans-35" x="95.410156"/>
       <use xlink:href="#DejaVuSans-30" x="159.033203"/>
      </g>
     </g>
    </g>
    <g id="ytick_8">
     <g id="line2d_14">
      <g>
       <use xlink:href="#me2431a6fd8" x="69.03875" y="60.813383" style="stroke: #000000; stroke-width: 0.8"/>
      </g>
     </g>
     <g id="text_15">
      <!-- 1.75 -->
      <g transform="translate(28.640313 66.512211) scale(0.15 -0.15)">
       <use xlink:href="#DejaVuSans-31"/>
       <use xlink:href="#DejaVuSans-2e" x="63.623047"/>
       <use xlink:href="#DejaVuSans-37" x="95.410156"/>
       <use xlink:href="#DejaVuSans-35" x="159.033203"/>
      </g>
     </g>
    </g>
    <g id="text_16">
     <!-- rivaroxaban plasma [µM] -->
     <g transform="translate(20.877187 309.166875) rotate(-90) scale(0.18 -0.18)">
      <defs>
       <path id="DejaVuSans-Bold-76" d="M 97 3500 
L 1216 3500 
L 2088 1081 
L 2956 3500 
L 4078 3500 
L 2700 0 
L 1472 0 
L 97 3500 
z
" transform="scale(0.015625)"/>
       <path id="DejaVuSans-Bold-61" d="M 2106 1575 
Q 1756 1575 1579 1456 
Q 1403 1338 1403 1106 
Q 1403 894 1545 773 
Q 1688 653 1941 653 
Q 2256 653 2472 879 
Q 2688 1106 2688 1447 
L 2688 1575 
L 2106 1575 
z
M 3816 1997 
L 3816 0 
L 2688 0 
L 2688 519 
Q 2463 200 2181 54 
Q 1900 -91 1497 -91 
Q 953 -91 614 226 
Q 275 544 275 1050 
Q 275 1666 698 1953 
Q 1122 2241 2028 2241 
L 2688 2241 
L 2688 2328 
Q 2688 2594 2478 2717 
Q 2269 2841 1825 2841 
Q 1466 2841 1156 2769 
Q 847 2697 581 2553 
L 581 3406 
Q 941 3494 1303 3539 
Q 1666 3584 2028 3584 
Q 2975 3584 3395 3211 
Q 3816 2838 3816 1997 
z
" transform="scale(0.015625)"/>
       <path id="DejaVuSans-Bold-6f" d="M 2203 2784 
Q 1831 2784 1636 2517 
Q 1441 2250 1441 1747 
Q 1441 1244 1636 976 
Q 1831 709 2203 709 
Q 2569 709 2762 976 
Q 2956 1244 2956 1747 
Q 2956 2250 2762 2517 
Q 2569 2784 2203 2784 
z
M 2203 3584 
Q 3106 3584 3614 3096 
Q 4122 2609 4122 1747 
Q 4122 884 3614 396 
Q 3106 -91 2203 -91 
Q 1297 -91 786 396 
Q 275 884 275 1747 
Q 275 2609 786 3096 
Q 1297 3584 2203 3584 
z
" transform="scale(0.015625)"/>
       <path id="DejaVuSans-Bold-78" d="M 1422 1791 
L 159 3500 
L 1344 3500 
L 2059 2463 
L 2784 3500 
L 3969 3500 
L 2706 1797 
L 4031 0 
L 2847 0 
L 2059 1106 
L 1281 0 
L 97 0 
L 1422 1791 
z
" transform="scale(0.015625)"/>
       <path id="DejaVuSans-Bold-62" d="M 2400 722 
Q 2759 722 2948 984 
Q 3138 1247 3138 1747 
Q 3138 2247 2948 2509 
Q 2759 2772 2400 2772 
Q 2041 2772 1848 2508 
Q 1656 2244 1656 1747 
Q 1656 1250 1848 986 
Q 2041 722 2400 722 
z
M 1656 2988 
Q 1888 3294 2169 3439 
Q 2450 3584 2816 3584 
Q 3463 3584 3878 3070 
Q 4294 2556 4294 1747 
Q 4294 938 3878 423 
Q 3463 -91 2816 -91 
Q 2450 -91 2169 54 
Q 1888 200 1656 506 
L 1656 0 
L 538 0 
L 538 4863 
L 1656 4863 
L 1656 2988 
z
" transform="scale(0.015625)"/>
       <path id="DejaVuSans-Bold-6e" d="M 4056 2131 
L 4056 0 
L 2931 0 
L 2931 347 
L 2931 1631 
Q 2931 2084 2911 2256 
Q 2891 2428 2841 2509 
Q 2775 2619 2662 2680 
Q 2550 2741 2406 2741 
Q 2056 2741 1856 2470 
Q 1656 2200 1656 1722 
L 1656 0 
L 538 0 
L 538 3500 
L 1656 3500 
L 1656 2988 
Q 1909 3294 2193 3439 
Q 2478 3584 2822 3584 
Q 3428 3584 3742 3212 
Q 4056 2841 4056 2131 
z
" transform="scale(0.015625)"/>
       <path id="DejaVuSans-Bold-70" d="M 1656 506 
L 1656 -1331 
L 538 -1331 
L 538 3500 
L 1656 3500 
L 1656 2988 
Q 1888 3294 2169 3439 
Q 2450 3584 2816 3584 
Q 3463 3584 3878 3070 
Q 4294 2556 4294 1747 
Q 4294 938 3878 423 
Q 3463 -91 2816 -91 
Q 2450 -91 2169 54 
Q 1888 200 1656 506 
z
M 2400 2772 
Q 2041 2772 1848 2508 
Q 1656 2244 1656 1747 
Q 1656 1250 1848 986 
Q 2041 722 2400 722 
Q 2759 722 2948 984 
Q 3138 1247 3138 1747 
Q 3138 2247 2948 2509 
Q 2759 2772 2400 2772 
z
" transform="scale(0.015625)"/>
       <path id="DejaVuSans-Bold-6c" d="M 538 4863 
L 1656 4863 
L 1656 0 
L 538 0 
L 538 4863 
z
" transform="scale(0.015625)"/>
       <path id="DejaVuSans-Bold-73" d="M 3272 3391 
L 3272 2541 
Q 2913 2691 2578 2766 
Q 2244 2841 1947 2841 
Q 1628 2841 1473 2761 
Q 1319 2681 1319 2516 
Q 1319 2381 1436 2309 
Q 1553 2238 1856 2203 
L 2053 2175 
Q 2913 2066 3209 1816 
Q 3506 1566 3506 1031 
Q 3506 472 3093 190 
Q 2681 -91 1863 -91 
Q 1516 -91 1145 -36 
Q 775 19 384 128 
L 384 978 
Q 719 816 1070 734 
Q 1422 653 1784 653 
Q 2113 653 2278 743 
Q 2444 834 2444 1013 
Q 2444 1163 2330 1236 
Q 2216 1309 1875 1350 
L 1678 1375 
Q 931 1469 631 1722 
Q 331 1975 331 2491 
Q 331 3047 712 3315 
Q 1094 3584 1881 3584 
Q 2191 3584 2531 3537 
Q 2872 3491 3272 3391 
z
" transform="scale(0.015625)"/>
       <path id="DejaVuSans-Bold-b5" d="M 544 -1338 
L 544 3500 
L 1672 3500 
L 1672 1466 
Q 1672 1103 1828 926 
Q 1984 750 2303 750 
Q 2625 750 2781 926 
Q 2938 1103 2938 1466 
L 2938 3500 
L 4063 3500 
L 4063 1159 
Q 4063 938 4114 850 
Q 4166 763 4288 763 
Q 4344 763 4395 778 
Q 4447 794 4506 831 
L 4506 50 
Q 4341 -22 4195 -56 
Q 4050 -91 3909 -91 
Q 3631 -91 3454 26 
Q 3278 144 3169 403 
Q 3022 156 2811 32 
Q 2600 -91 2322 -91 
Q 2091 -91 1928 -17 
Q 1766 56 1672 206 
L 1672 -1338 
L 544 -1338 
z
" transform="scale(0.015625)"/>
       <path id="DejaVuSans-Bold-4d" d="M 588 4666 
L 2119 4666 
L 3181 2169 
L 4250 4666 
L 5778 4666 
L 5778 0 
L 4641 0 
L 4641 3413 
L 3566 897 
L 2803 897 
L 1728 3413 
L 1728 0 
L 588 0 
L 588 4666 
z
" transform="scale(0.015625)"/>
      </defs>
      <use xlink:href="#DejaVuSans-Bold-72"/>
      <use xlink:href="#DejaVuSans-Bold-69" x="49.316406"/>
      <use xlink:href="#DejaVuSans-Bold-76" x="83.59375"/>
      <use xlink:href="#DejaVuSans-Bold-61" x="148.779297"/>
      <use xlink:href="#DejaVuSans-Bold-72" x="216.259766"/>
      <use xlink:href="#DejaVuSans-Bold-6f" x="265.576172"/>
      <use xlink:href="#DejaVuSans-Bold-78" x="334.277344"/>
      <use xlink:href="#DejaVuSans-Bold-61" x="398.779297"/>
      <use xlink:href="#DejaVuSans-Bold-62" x="466.259766"/>
      <use xlink:href="#DejaVuSans-Bold-61" x="537.841797"/>
      <use xlink:href="#DejaVuSans-Bold-6e" x="605.322266"/>
      <use xlink:href="#DejaVuSans-Bold-20" x="676.513672"/>
      <use xlink:href="#DejaVuSans-Bold-70" x="711.328125"/>
      <use xlink:href="#DejaVuSans-Bold-6c" x="782.910156"/>
      <use xlink:href="#DejaVuSans-Bold-61" x="817.1875"/>
      <use xlink:href="#DejaVuSans-Bold-73" x="884.667969"/>
      <use xlink:href="#DejaVuSans-Bold-6d" x="944.189453"/>
      <use xlink:href="#DejaVuSans-Bold-61" x="1048.388672"/>
      <use xlink:href="#DejaVuSans-Bold-20" x="1115.869141"/>
      <use xlink:href="#DejaVuSans-Bold-5b" x="1150.683594"/>
      <use xlink:href="#DejaVuSans-Bold-b5" x="1196.386719"/>
      <use xlink:href="#DejaVuSans-Bold-4d" x="1269.970703"/>
      <use xlink:href="#DejaVuSans-Bold-5d" x="1369.482422"/>
     </g>
    </g>
   </g>
   <g id="LineCollection_1">
    <path clip-path="url(#pf006dfff6e)" style="fill: none; stroke: #fffacd"/>
    <path clip-path="url(#pf006dfff6e)" style="fill: none; stroke: #fffacd"/>
    <path clip-path="url(#pf006dfff6e)" style="fill: none; stroke: #fffacd"/>
    <path clip-path="url(#pf006dfff6e)" style="fill: none; stroke: #fffacd"/>
    <path clip-path="url(#pf006dfff6e)" style="fill: none; stroke: #fffacd"/>
    <path clip-path="url(#pf006dfff6e)" style="fill: none; stroke: #fffacd"/>
    <path clip-path="url(#pf006dfff6e)" style="fill: none; stroke: #fffacd"/>
    <path clip-path="url(#pf006dfff6e)" style="fill: none; stroke: #fffacd"/>
    <path clip-path="url(#pf006dfff6e)" style="fill: none; stroke: #fffacd"/>
    <path clip-path="url(#pf006dfff6e)" style="fill: none; stroke: #fffacd"/>
    <path clip-path="url(#pf006dfff6e)" style="fill: none; stroke: #fffacd"/>
   </g>
   <g id="LineCollection_2">
    <path d="M 92.271841 295.330913 
L 92.271841 287.625436 
" clip-path="url(#pf006dfff6e)" style="fill: none; stroke: #ffd580"/>
    <path d="M 95.924205 300.99362 
L 95.924205 279.689832 
" clip-path="url(#pf006dfff6e)" style="fill: none; stroke: #ffd580"/>
    <path d="M 97.750386 299.858242 
L 97.750386 275.834685 
" clip-path="url(#pf006dfff6e)" style="fill: none; stroke: #ffd580"/>
    <path d="M 101.859295 285.122413 
L 101.859295 276.509811 
" clip-path="url(#pf006dfff6e)" style="fill: none; stroke: #ffd580"/>
    <path d="M 105.055114 279.677256 
L 105.055114 272.878368 
" clip-path="url(#pf006dfff6e)" style="fill: none; stroke: #ffd580"/>
    <path d="M 108.707477 281.033662 
L 108.707477 273.327649 
" clip-path="url(#pf006dfff6e)" style="fill: none; stroke: #ffd580"/>
    <path d="M 115.200568 285.10395 
L 115.200568 273.317748 
" clip-path="url(#pf006dfff6e)" style="fill: none; stroke: #ffd580"/>
    <path d="M 130.165114 286.218188 
L 130.165114 280.778115 
" clip-path="url(#pf006dfff6e)" style="fill: none; stroke: #ffd580"/>
    <path d="M 143.607841 291.412348 
L 143.607841 283.7058 
" clip-path="url(#pf006dfff6e)" style="fill: none; stroke: #ffd580"/>
    <path d="M 172.015114 295.680651 
L 172.015114 286.614219 
" clip-path="url(#pf006dfff6e)" style="fill: none; stroke: #ffd580"/>
    <path d="M 194.081477 297.236678 
L 194.081477 287.720162 
" clip-path="url(#pf006dfff6e)" style="fill: none; stroke: #ffd580"/>
   </g>
   <g id="LineCollection_3">
    <path d="M 90.817939 307.8 
L 90.817939 273.351732 
" clip-path="url(#pf006dfff6e)" style="fill: none; stroke: #ffb347"/>
    <path d="M 92.427796 301.679449 
L 92.427796 268.13563 
" clip-path="url(#pf006dfff6e)" style="fill: none; stroke: #ffb347"/>
    <path d="M 94.037653 294.424323 
L 94.037653 261.334334 
" clip-path="url(#pf006dfff6e)" style="fill: none; stroke: #ffb347"/>
    <path d="M 97.861064 279.233862 
L 97.861064 251.130116 
" clip-path="url(#pf006dfff6e)" style="fill: none; stroke: #ffb347"/>
    <path d="M 101.483243 271.296653 
L 101.483243 246.818731 
" clip-path="url(#pf006dfff6e)" style="fill: none; stroke: #ffb347"/>
    <path d="M 104.300493 267.21352 
L 104.300493 244.094948 
" clip-path="url(#pf006dfff6e)" style="fill: none; stroke: #ffb347"/>
    <path d="M 108.526368 270.833992 
L 108.526368 250.435724 
" clip-path="url(#pf006dfff6e)" style="fill: none; stroke: #ffb347"/>
    <path d="M 115.200568 270.59905 
L 115.200568 255.639249 
" clip-path="url(#pf006dfff6e)" style="fill: none; stroke: #ffb347"/>
    <path d="M 129.655745 283.498954 
L 129.655745 273.071567 
" clip-path="url(#pf006dfff6e)" style="fill: none; stroke: #ffb347"/>
    <path d="M 143.607841 286.652752 
L 143.607841 279.400034 
" clip-path="url(#pf006dfff6e)" style="fill: none; stroke: #ffb347"/>
    <path d="M 172.015114 290.919717 
L 172.015114 284.1219 
" clip-path="url(#pf006dfff6e)" style="fill: none; stroke: #ffb347"/>
    <path d="M 193.245106 291.799548 
L 193.245106 286.813305 
" clip-path="url(#pf006dfff6e)" style="fill: none; stroke: #ffb347"/>
    <path d="M 257.236932 291.714187 
L 257.236932 289.900473 
" clip-path="url(#pf006dfff6e)" style="fill: none; stroke: #ffb347"/>
   </g>
   <g id="LineCollection_4">
    <path clip-path="url(#pf006dfff6e)" style="fill: none; stroke: #ff944d"/>
    <path clip-path="url(#pf006dfff6e)" style="fill: none; stroke: #ff944d"/>
    <path clip-path="url(#pf006dfff6e)" style="fill: none; stroke: #ff944d"/>
    <path clip-path="url(#pf006dfff6e)" style="fill: none; stroke: #ff944d"/>
    <path clip-path="url(#pf006dfff6e)" style="fill: none; stroke: #ff944d"/>
    <path clip-path="url(#pf006dfff6e)" style="fill: none; stroke: #ff944d"/>
    <path clip-path="url(#pf006dfff6e)" style="fill: none; stroke: #ff944d"/>
    <path clip-path="url(#pf006dfff6e)" style="fill: none; stroke: #ff944d"/>
    <path clip-path="url(#pf006dfff6e)" style="fill: none; stroke: #ff944d"/>
    <path clip-path="url(#pf006dfff6e)" style="fill: none; stroke: #ff944d"/>
    <path clip-path="url(#pf006dfff6e)" style="fill: none; stroke: #ff944d"/>
    <path clip-path="url(#pf006dfff6e)" style="fill: none; stroke: #ff944d"/>
    <path clip-path="url(#pf006dfff6e)" style="fill: none; stroke: #ff944d"/>
    <path clip-path="url(#pf006dfff6e)" style="fill: none; stroke: #ff944d"/>
   </g>
   <g id="LineCollection_5">
    <path clip-path="url(#pf006dfff6e)" style="fill: none; stroke: #ff7043"/>
    <path clip-path="url(#pf006dfff6e)" style="fill: none; stroke: #ff7043"/>
    <path clip-path="url(#pf006dfff6e)" style="fill: none; stroke: #ff7043"/>
    <path clip-path="url(#pf006dfff6e)" style="fill: none; stroke: #ff7043"/>
    <path clip-path="url(#pf006dfff6e)" style="fill: none; stroke: #ff7043"/>
    <path clip-path="url(#pf006dfff6e)" style="fill: none; stroke: #ff7043"/>
    <path clip-path="url(#pf006dfff6e)" style="fill: none; stroke: #ff7043"/>
    <path clip-path="url(#pf006dfff6e)" style="fill: none; stroke: #ff7043"/>
    <path clip-path="url(#pf006dfff6e)" style="fill: none; stroke: #ff7043"/>
    <path clip-path="url(#pf006dfff6e)" style="fill: none; stroke: #ff7043"/>
    <path clip-path="url(#pf006dfff6e)" style="fill: none; stroke: #ff7043"/>
    <path clip-path="url(#pf006dfff6e)" style="fill: none; stroke: #ff7043"/>
    <path clip-path="url(#pf006dfff6e)" style="fill: none; stroke: #ff7043"/>
    <path clip-path="url(#pf006dfff6e)" style="fill: none; stroke: #ff7043"/>
   </g>
   <g id="LineCollection_6">
    <path clip-path="url(#pf006dfff6e)" style="fill: none; stroke: #d25100"/>
    <path clip-path="url(#pf006dfff6e)" style="fill: none; stroke: #d25100"/>
    <path clip-path="url(#pf006dfff6e)" style="fill: none; stroke: #d25100"/>
    <path clip-path="url(#pf006dfff6e)" style="fill: none; stroke: #d25100"/>
    <path clip-path="url(#pf006dfff6e)" style="fill: none; stroke: #d25100"/>
    <path clip-path="url(#pf006dfff6e)" style="fill: none; stroke: #d25100"/>
    <path clip-path="url(#pf006dfff6e)" style="fill: none; stroke: #d25100"/>
    <path clip-path="url(#pf006dfff6e)" style="fill: none; stroke: #d25100"/>
    <path clip-path="url(#pf006dfff6e)" style="fill: none; stroke: #d25100"/>
    <path clip-path="url(#pf006dfff6e)" style="fill: none; stroke: #d25100"/>
    <path clip-path="url(#pf006dfff6e)" style="fill: none; stroke: #d25100"/>
    <path clip-path="url(#pf006dfff6e)" style="fill: none; stroke: #d25100"/>
    <path clip-path="url(#pf006dfff6e)" style="fill: none; stroke: #d25100"/>
    <path clip-path="url(#pf006dfff6e)" style="fill: none; stroke: #d25100"/>
   </g>
   <g id="LineCollection_7">
    <path clip-path="url(#pf006dfff6e)" style="fill: none; stroke: #a63c00"/>
    <path clip-path="url(#pf006dfff6e)" style="fill: none; stroke: #a63c00"/>
    <path clip-path="url(#pf006dfff6e)" style="fill: none; stroke: #a63c00"/>
    <path clip-path="url(#pf006dfff6e)" style="fill: none; stroke: #a63c00"/>
    <path clip-path="url(#pf006dfff6e)" style="fill: none; stroke: #a63c00"/>
    <path clip-path="url(#pf006dfff6e)" style="fill: none; stroke: #a63c00"/>
    <path clip-path="url(#pf006dfff6e)" style="fill: none; stroke: #a63c00"/>
    <path clip-path="url(#pf006dfff6e)" style="fill: none; stroke: #a63c00"/>
    <path clip-path="url(#pf006dfff6e)" style="fill: none; stroke: #a63c00"/>
    <path clip-path="url(#pf006dfff6e)" style="fill: none; stroke: #a63c00"/>
    <path clip-path="url(#pf006dfff6e)" style="fill: none; stroke: #a63c00"/>
    <path clip-path="url(#pf006dfff6e)" style="fill: none; stroke: #a63c00"/>
   </g>
   <g id="LineCollection_8">
    <path clip-path="url(#pf006dfff6e)" style="fill: none; stroke: #7b2e00"/>
    <path clip-path="url(#pf006dfff6e)" style="fill: none; stroke: #7b2e00"/>
    <path clip-path="url(#pf006dfff6e)" style="fill: none; stroke: #7b2e00"/>
    <path clip-path="url(#pf006dfff6e)" style="fill: none; stroke: #7b2e00"/>
    <path clip-path="url(#pf006dfff6e)" style="fill: none; stroke: #7b2e00"/>
    <path clip-path="url(#pf006dfff6e)" style="fill: none; stroke: #7b2e00"/>
    <path clip-path="url(#pf006dfff6e)" style="fill: none; stroke: #7b2e00"/>
    <path clip-path="url(#pf006dfff6e)" style="fill: none; stroke: #7b2e00"/>
    <path clip-path="url(#pf006dfff6e)" style="fill: none; stroke: #7b2e00"/>
    <path clip-path="url(#pf006dfff6e)" style="fill: none; stroke: #7b2e00"/>
    <path clip-path="url(#pf006dfff6e)" style="fill: none; stroke: #7b2e00"/>
    <path clip-path="url(#pf006dfff6e)" style="fill: none; stroke: #7b2e00"/>
    <path clip-path="url(#pf006dfff6e)" style="fill: none; stroke: #7b2e00"/>
    <path clip-path="url(#pf006dfff6e)" style="fill: none; stroke: #7b2e00"/>
    <path clip-path="url(#pf006dfff6e)" style="fill: none; stroke: #7b2e00"/>
   </g>
   <g id="LineCollection_9">
    <path clip-path="url(#pf006dfff6e)" style="fill: none; stroke: #4c1f00"/>
    <path clip-path="url(#pf006dfff6e)" style="fill: none; stroke: #4c1f00"/>
    <path clip-path="url(#pf006dfff6e)" style="fill: none; stroke: #4c1f00"/>
    <path clip-path="url(#pf006dfff6e)" style="fill: none; stroke: #4c1f00"/>
    <path clip-path="url(#pf006dfff6e)" style="fill: none; stroke: #4c1f00"/>
    <path clip-path="url(#pf006dfff6e)" style="fill: none; stroke: #4c1f00"/>
    <path clip-path="url(#pf006dfff6e)" style="fill: none; stroke: #4c1f00"/>
    <path clip-path="url(#pf006dfff6e)" style="fill: none; stroke: #4c1f00"/>
    <path clip-path="url(#pf006dfff6e)" style="fill: none; stroke: #4c1f00"/>
    <path clip-path="url(#pf006dfff6e)" style="fill: none; stroke: #4c1f00"/>
    <path clip-path="url(#pf006dfff6e)" style="fill: none; stroke: #4c1f00"/>
    <path clip-path="url(#pf006dfff6e)" style="fill: none; stroke: #4c1f00"/>
    <path clip-path="url(#pf006dfff6e)" style="fill: none; stroke: #4c1f00"/>
    <path clip-path="url(#pf006dfff6e)" style="fill: none; stroke: #4c1f00"/>
    <path clip-path="url(#pf006dfff6e)" style="fill: none; stroke: #4c1f00"/>
    <path clip-path="url(#pf006dfff6e)" style="fill: none; stroke: #4c1f00"/>
   </g>
   <g id="line2d_15">
    <path d="M 86.793295 294.207309 
L 87.503477 294.1347 
L 88.923841 293.641124 
L 93.184932 291.788185 
L 95.315477 291.17366 
L 97.446023 290.787096 
L 100.28675 290.535807 
L 103.837659 290.489566 
L 108.808932 290.671903 
L 125.853295 291.688472 
L 140.767114 292.401127 
L 157.811477 292.975621 
L 178.40675 293.43198 
L 204.683477 293.777762 
L 240.90275 294.016987 
L 299.847841 294.156709 
L 441.174023 294.205197 
L 441.884205 294.20523 
L 441.884205 294.20523 
" clip-path="url(#pf006dfff6e)" style="fill: none; stroke: #fffacd; stroke-width: 2; stroke-linecap: square"/>
   </g>
   <g id="line2d_16">
    <path d="M 90.902205 293.691622 
L 93.641477 292.918093 
L 96.38075 291.886719 
L 101.40275 290.855346 
L 104.598568 289.050443 
L 108.707477 287.761227 
L 115.200568 288.7926 
L 130.165114 291.886719 
L 143.607841 292.144563 
L 172.015114 293.175936 
L 193.624932 293.691622 
" clip-path="url(#pf006dfff6e)" style="fill: none; stroke-dasharray: 3.7,1.6; stroke-dashoffset: 0; stroke: #fffacd"/>
    <defs>
     <path id="mf10a076923" d="M -3 3 
L 3 3 
L 3 -3 
L -3 -3 
z
" style="stroke: #000000; stroke-linejoin: miter"/>
    </defs>
    <g clip-path="url(#pf006dfff6e)">
     <use xlink:href="#mf10a076923" x="90.902205" y="293.691622" style="fill: #fffacd; stroke: #000000; stroke-linejoin: miter"/>
     <use xlink:href="#mf10a076923" x="93.641477" y="292.918093" style="fill: #fffacd; stroke: #000000; stroke-linejoin: miter"/>
     <use xlink:href="#mf10a076923" x="96.38075" y="291.886719" style="fill: #fffacd; stroke: #000000; stroke-linejoin: miter"/>
     <use xlink:href="#mf10a076923" x="101.40275" y="290.855346" style="fill: #fffacd; stroke: #000000; stroke-linejoin: miter"/>
     <use xlink:href="#mf10a076923" x="104.598568" y="289.050443" style="fill: #fffacd; stroke: #000000; stroke-linejoin: miter"/>
     <use xlink:href="#mf10a076923" x="108.707477" y="287.761227" style="fill: #fffacd; stroke: #000000; stroke-linejoin: miter"/>
     <use xlink:href="#mf10a076923" x="115.200568" y="288.7926" style="fill: #fffacd; stroke: #000000; stroke-linejoin: miter"/>
     <use xlink:href="#mf10a076923" x="130.165114" y="291.886719" style="fill: #fffacd; stroke: #000000; stroke-linejoin: miter"/>
     <use xlink:href="#mf10a076923" x="143.607841" y="292.144563" style="fill: #fffacd; stroke: #000000; stroke-linejoin: miter"/>
     <use xlink:href="#mf10a076923" x="172.015114" y="293.175936" style="fill: #fffacd; stroke: #000000; stroke-linejoin: miter"/>
     <use xlink:href="#mf10a076923" x="193.624932" y="293.691622" style="fill: #fffacd; stroke: #000000; stroke-linejoin: miter"/>
    </g>
   </g>
   <g id="line2d_17">
    <path d="M 86.793295 294.207309 
L 87.503477 293.916872 
L 88.213659 293.087386 
L 89.634023 290.643672 
L 91.764568 286.729849 
L 93.184932 284.530812 
L 94.605295 282.7819 
L 96.025659 281.465651 
L 97.446023 280.526457 
L 98.866386 279.899059 
L 100.28675 279.521302 
L 101.707114 279.339057 
L 103.837659 279.336337 
L 105.968205 279.558047 
L 108.808932 280.065685 
L 113.780205 281.223676 
L 126.563477 284.288402 
L 133.665295 285.736943 
L 141.477295 287.096785 
L 149.999477 288.335216 
L 159.231841 289.43533 
L 169.174386 290.390873 
L 180.537295 291.250995 
L 193.320568 291.989221 
L 208.234386 292.620913 
L 225.988932 293.142879 
L 248.004568 293.558328 
L 277.122023 293.869999 
L 319.02275 294.07577 
L 392.881659 294.182297 
L 441.884205 294.198994 
L 441.884205 294.198994 
" clip-path="url(#pf006dfff6e)" style="fill: none; stroke: #ffd580; stroke-width: 2; stroke-linecap: square"/>
   </g>
   <g id="line2d_18">
    <path d="M 92.271841 291.478174 
L 95.924205 290.341726 
L 97.750386 287.846464 
L 101.859295 280.816112 
L 105.055114 276.277812 
L 108.707477 277.180655 
L 115.200568 279.210849 
L 130.165114 283.498151 
L 143.607841 287.559074 
L 172.015114 291.147435 
L 194.081477 292.47842 
" clip-path="url(#pf006dfff6e)" style="fill: none; stroke-dasharray: 3.7,1.6; stroke-dashoffset: 0; stroke: #ffd580"/>
    <defs>
     <path id="mce7c43d698" d="M -3 3 
L 3 3 
L 3 -3 
L -3 -3 
z
" style="stroke: #000000; stroke-linejoin: miter"/>
    </defs>
    <g clip-path="url(#pf006dfff6e)">
     <use xlink:href="#mce7c43d698" x="92.271841" y="291.478174" style="fill: #ffd580; stroke: #000000; stroke-linejoin: miter"/>
     <use xlink:href="#mce7c43d698" x="95.924205" y="290.341726" style="fill: #ffd580; stroke: #000000; stroke-linejoin: miter"/>
     <use xlink:href="#mce7c43d698" x="97.750386" y="287.846464" style="fill: #ffd580; stroke: #000000; stroke-linejoin: miter"/>
     <use xlink:href="#mce7c43d698" x="101.859295" y="280.816112" style="fill: #ffd580; stroke: #000000; stroke-linejoin: miter"/>
     <use xlink:href="#mce7c43d698" x="105.055114" y="276.277812" style="fill: #ffd580; stroke: #000000; stroke-linejoin: miter"/>
     <use xlink:href="#mce7c43d698" x="108.707477" y="277.180655" style="fill: #ffd580; stroke: #000000; stroke-linejoin: miter"/>
     <use xlink:href="#mce7c43d698" x="115.200568" y="279.210849" style="fill: #ffd580; stroke: #000000; stroke-linejoin: miter"/>
     <use xlink:href="#mce7c43d698" x="130.165114" y="283.498151" style="fill: #ffd580; stroke: #000000; stroke-linejoin: miter"/>
     <use xlink:href="#mce7c43d698" x="143.607841" y="287.559074" style="fill: #ffd580; stroke: #000000; stroke-linejoin: miter"/>
     <use xlink:href="#mce7c43d698" x="172.015114" y="291.147435" style="fill: #ffd580; stroke: #000000; stroke-linejoin: miter"/>
     <use xlink:href="#mce7c43d698" x="194.081477" y="292.47842" style="fill: #ffd580; stroke: #000000; stroke-linejoin: miter"/>
    </g>
   </g>
   <g id="line2d_19">
    <path d="M 86.793295 294.207309 
L 87.503477 293.626435 
L 88.213659 291.967463 
L 89.634023 287.080036 
L 91.764568 279.252389 
L 93.184932 274.854314 
L 94.605295 271.356491 
L 96.025659 268.723993 
L 97.446023 266.845605 
L 98.866386 265.590808 
L 100.28675 264.835295 
L 101.707114 264.470804 
L 103.127477 264.40743 
L 104.547841 264.5726 
L 106.678386 265.12651 
L 108.808932 265.924061 
L 112.359841 267.543018 
L 126.563477 274.369495 
L 132.244932 276.720702 
L 137.926386 278.807523 
L 143.607841 280.650275 
L 149.289295 282.274252 
L 155.680932 283.870577 
L 162.78275 285.395359 
L 169.884568 286.695296 
L 177.696568 287.904887 
L 186.21875 289.003439 
L 196.161295 290.045505 
L 206.814023 290.931602 
L 218.887114 291.710043 
L 233.09075 292.392506 
L 249.424932 292.950126 
L 269.310023 293.403211 
L 294.876568 293.754656 
L 330.385659 294.003522 
L 386.490023 294.149557 
L 441.884205 294.190679 
L 441.884205 294.190679 
" clip-path="url(#pf006dfff6e)" style="fill: none; stroke: #ffb347; stroke-width: 2; stroke-linecap: square"/>
   </g>
   <g id="line2d_20">
    <path d="M 90.817939 290.575866 
L 92.427796 284.90754 
L 94.037653 277.879329 
L 97.861064 265.181989 
L 101.483243 259.057692 
L 104.300493 255.654234 
L 108.526368 260.634858 
L 115.200568 263.119149 
L 129.655745 278.28526 
L 143.607841 283.026393 
L 172.015114 287.520809 
L 193.245106 289.306426 
L 257.236932 290.80733 
" clip-path="url(#pf006dfff6e)" style="fill: none; stroke-dasharray: 3.7,1.6; stroke-dashoffset: 0; stroke: #ffb347"/>
    <defs>
     <path id="ma45bf31783" d="M -3 3 
L 3 3 
L 3 -3 
L -3 -3 
z
" style="stroke: #000000; stroke-linejoin: miter"/>
    </defs>
    <g clip-path="url(#pf006dfff6e)">
     <use xlink:href="#ma45bf31783" x="90.817939" y="290.575866" style="fill: #ffb347; stroke: #000000; stroke-linejoin: miter"/>
     <use xlink:href="#ma45bf31783" x="92.427796" y="284.90754" style="fill: #ffb347; stroke: #000000; stroke-linejoin: miter"/>
     <use xlink:href="#ma45bf31783" x="94.037653" y="277.879329" style="fill: #ffb347; stroke: #000000; stroke-linejoin: miter"/>
     <use xlink:href="#ma45bf31783" x="97.861064" y="265.181989" style="fill: #ffb347; stroke: #000000; stroke-linejoin: miter"/>
     <use xlink:href="#ma45bf31783" x="101.483243" y="259.057692" style="fill: #ffb347; stroke: #000000; stroke-linejoin: miter"/>
     <use xlink:href="#ma45bf31783" x="104.300493" y="255.654234" style="fill: #ffb347; stroke: #000000; stroke-linejoin: miter"/>
     <use xlink:href="#ma45bf31783" x="108.526368" y="260.634858" style="fill: #ffb347; stroke: #000000; stroke-linejoin: miter"/>
     <use xlink:href="#ma45bf31783" x="115.200568" y="263.119149" style="fill: #ffb347; stroke: #000000; stroke-linejoin: miter"/>
     <use xlink:href="#ma45bf31783" x="129.655745" y="278.28526" style="fill: #ffb347; stroke: #000000; stroke-linejoin: miter"/>
     <use xlink:href="#ma45bf31783" x="143.607841" y="283.026393" style="fill: #ffb347; stroke: #000000; stroke-linejoin: miter"/>
     <use xlink:href="#ma45bf31783" x="172.015114" y="287.520809" style="fill: #ffb347; stroke: #000000; stroke-linejoin: miter"/>
     <use xlink:href="#ma45bf31783" x="193.245106" y="289.306426" style="fill: #ffb347; stroke: #000000; stroke-linejoin: miter"/>
     <use xlink:href="#ma45bf31783" x="257.236932" y="290.80733" style="fill: #ffb347; stroke: #000000; stroke-linejoin: miter"/>
    </g>
   </g>
   <g id="line2d_21">
    <path d="M 86.793295 294.207309 
L 87.503477 293.335998 
L 88.213659 290.84754 
L 89.634023 283.516399 
L 91.764568 271.774929 
L 93.184932 265.177817 
L 94.605295 259.931082 
L 96.025659 255.982335 
L 97.446023 253.164753 
L 98.156205 252.118854 
L 98.866386 251.282558 
L 99.576568 250.633097 
L 100.28675 250.149289 
L 100.996932 249.811674 
L 102.417295 249.505939 
L 103.837659 249.594393 
L 105.258023 249.979938 
L 106.678386 250.58611 
L 108.808932 251.782437 
L 111.649659 253.698815 
L 117.331114 257.91528 
L 123.012568 262.042751 
L 127.983841 265.370341 
L 132.244932 267.977398 
L 137.216205 270.737123 
L 142.187477 273.212995 
L 147.15875 275.430272 
L 152.130023 277.414402 
L 157.811477 279.427053 
L 163.492932 281.198671 
L 169.884568 282.939289 
L 176.276205 284.44703 
L 183.378023 285.886899 
L 191.190023 287.226668 
L 199.712205 288.443441 
L 208.944568 289.523481 
L 218.887114 290.461409 
L 230.250023 291.305641 
L 243.033295 292.030222 
L 257.947114 292.650237 
L 275.701659 293.162555 
L 297.717295 293.570324 
L 326.83475 293.876234 
L 369.445659 294.080246 
L 441.884205 294.182364 
L 441.884205 294.182364 
" clip-path="url(#pf006dfff6e)" style="fill: none; stroke: #ff944d; stroke-width: 2; stroke-linecap: square"/>
   </g>
   <g id="line2d_22">
    <path d="M 91.35875 290.081817 
L 93.184932 284.409264 
L 94.554568 278.994556 
L 96.38075 269.970041 
L 97.750386 265.328862 
L 100.489659 259.65631 
L 103.228932 256.56219 
L 107.337841 260.687683 
L 115.200568 264.555332 
L 128.795477 278.736712 
L 143.607841 283.377891 
L 172.015114 287.503384 
L 193.168386 289.823973 
L 257.541295 292.660249 
" clip-path="url(#pf006dfff6e)" style="fill: none; stroke-dasharray: 3.7,1.6; stroke-dashoffset: 0; stroke: #ff944d"/>
    <defs>
     <path id="madd4296d3a" d="M -3 3 
L 3 3 
L 3 -3 
L -3 -3 
z
" style="stroke: #000000; stroke-linejoin: miter"/>
    </defs>
    <g clip-path="url(#pf006dfff6e)">
     <use xlink:href="#madd4296d3a" x="91.35875" y="290.081817" style="fill: #ff944d; stroke: #000000; stroke-linejoin: miter"/>
     <use xlink:href="#madd4296d3a" x="93.184932" y="284.409264" style="fill: #ff944d; stroke: #000000; stroke-linejoin: miter"/>
     <use xlink:href="#madd4296d3a" x="94.554568" y="278.994556" style="fill: #ff944d; stroke: #000000; stroke-linejoin: miter"/>
     <use xlink:href="#madd4296d3a" x="96.38075" y="269.970041" style="fill: #ff944d; stroke: #000000; stroke-linejoin: miter"/>
     <use xlink:href="#madd4296d3a" x="97.750386" y="265.328862" style="fill: #ff944d; stroke: #000000; stroke-linejoin: miter"/>
     <use xlink:href="#madd4296d3a" x="100.489659" y="259.65631" style="fill: #ff944d; stroke: #000000; stroke-linejoin: miter"/>
     <use xlink:href="#madd4296d3a" x="103.228932" y="256.56219" style="fill: #ff944d; stroke: #000000; stroke-linejoin: miter"/>
     <use xlink:href="#madd4296d3a" x="107.337841" y="260.687683" style="fill: #ff944d; stroke: #000000; stroke-linejoin: miter"/>
     <use xlink:href="#madd4296d3a" x="115.200568" y="264.555332" style="fill: #ff944d; stroke: #000000; stroke-linejoin: miter"/>
     <use xlink:href="#madd4296d3a" x="128.795477" y="278.736712" style="fill: #ff944d; stroke: #000000; stroke-linejoin: miter"/>
     <use xlink:href="#madd4296d3a" x="143.607841" y="283.377891" style="fill: #ff944d; stroke: #000000; stroke-linejoin: miter"/>
     <use xlink:href="#madd4296d3a" x="172.015114" y="287.503384" style="fill: #ff944d; stroke: #000000; stroke-linejoin: miter"/>
     <use xlink:href="#madd4296d3a" x="193.168386" y="289.823973" style="fill: #ff944d; stroke: #000000; stroke-linejoin: miter"/>
     <use xlink:href="#madd4296d3a" x="257.541295" y="292.660249" style="fill: #ff944d; stroke: #000000; stroke-linejoin: miter"/>
    </g>
   </g>
   <g id="line2d_23">
    <path d="M 86.793295 294.207309 
L 87.503477 293.045561 
L 88.213659 289.727617 
L 89.634023 279.952762 
L 91.764568 264.29747 
L 93.184932 255.50132 
L 94.605295 248.505673 
L 96.025659 243.240676 
L 96.735841 241.189978 
L 97.446023 239.483901 
L 98.156205 238.089369 
L 98.866386 236.974308 
L 99.576568 236.10836 
L 100.28675 235.463282 
L 100.996932 235.013129 
L 101.707114 234.734299 
L 102.417295 234.605482 
L 103.127477 234.607551 
L 104.547841 234.937892 
L 105.968205 235.610262 
L 107.388568 236.534554 
L 109.519114 238.244793 
L 112.359841 240.878727 
L 125.853295 253.905913 
L 130.114386 257.534037 
L 134.375477 260.859431 
L 138.636568 263.89411 
L 142.897659 266.657534 
L 147.15875 269.171259 
L 151.419841 271.456632 
L 156.391114 273.861147 
L 161.362386 276.011776 
L 166.333659 277.935177 
L 172.015114 279.885717 
L 177.696568 281.602464 
L 184.088205 283.289092 
L 190.479841 284.750039 
L 197.581659 286.145211 
L 205.393659 287.443387 
L 213.915841 288.622385 
L 223.148205 289.668894 
L 233.800932 290.635176 
L 245.163841 291.440245 
L 258.657295 292.164087 
L 274.281295 292.769118 
L 292.746023 293.2576 
L 316.182023 293.646465 
L 347.430023 293.929438 
L 394.302023 294.110404 
L 441.884205 294.174049 
L 441.884205 294.174049 
" clip-path="url(#pf006dfff6e)" style="fill: none; stroke: #ff7043; stroke-width: 2; stroke-linecap: square"/>
   </g>
   <g id="line2d_24">
    <path d="M 90.902205 288.534757 
L 93.641477 274.869063 
L 94.554568 266.618078 
L 97.293841 259.914153 
L 98.206932 256.56219 
L 100.033114 252.436698 
L 101.40275 249.600422 
L 105.055114 252.952384 
L 108.707477 255.272974 
L 130.165114 271.774944 
L 143.607841 279.510242 
L 172.015114 284.924951 
L 194.081477 289.050443 
L 257.236932 293.175936 
" clip-path="url(#pf006dfff6e)" style="fill: none; stroke-dasharray: 3.7,1.6; stroke-dashoffset: 0; stroke: #ff7043"/>
    <defs>
     <path id="m42ccc60d6d" d="M -3 3 
L 3 3 
L 3 -3 
L -3 -3 
z
" style="stroke: #000000; stroke-linejoin: miter"/>
    </defs>
    <g clip-path="url(#pf006dfff6e)">
     <use xlink:href="#m42ccc60d6d" x="90.902205" y="288.534757" style="fill: #ff7043; stroke: #000000; stroke-linejoin: miter"/>
     <use xlink:href="#m42ccc60d6d" x="93.641477" y="274.869063" style="fill: #ff7043; stroke: #000000; stroke-linejoin: miter"/>
     <use xlink:href="#m42ccc60d6d" x="94.554568" y="266.618078" style="fill: #ff7043; stroke: #000000; stroke-linejoin: miter"/>
     <use xlink:href="#m42ccc60d6d" x="97.293841" y="259.914153" style="fill: #ff7043; stroke: #000000; stroke-linejoin: miter"/>
     <use xlink:href="#m42ccc60d6d" x="98.206932" y="256.56219" style="fill: #ff7043; stroke: #000000; stroke-linejoin: miter"/>
     <use xlink:href="#m42ccc60d6d" x="100.033114" y="252.436698" style="fill: #ff7043; stroke: #000000; stroke-linejoin: miter"/>
     <use xlink:href="#m42ccc60d6d" x="101.40275" y="249.600422" style="fill: #ff7043; stroke: #000000; stroke-linejoin: miter"/>
     <use xlink:href="#m42ccc60d6d" x="105.055114" y="252.952384" style="fill: #ff7043; stroke: #000000; stroke-linejoin: miter"/>
     <use xlink:href="#m42ccc60d6d" x="108.707477" y="255.272974" style="fill: #ff7043; stroke: #000000; stroke-linejoin: miter"/>
     <use xlink:href="#m42ccc60d6d" x="130.165114" y="271.774944" style="fill: #ff7043; stroke: #000000; stroke-linejoin: miter"/>
     <use xlink:href="#m42ccc60d6d" x="143.607841" y="279.510242" style="fill: #ff7043; stroke: #000000; stroke-linejoin: miter"/>
     <use xlink:href="#m42ccc60d6d" x="172.015114" y="284.924951" style="fill: #ff7043; stroke: #000000; stroke-linejoin: miter"/>
     <use xlink:href="#m42ccc60d6d" x="194.081477" y="289.050443" style="fill: #ff7043; stroke: #000000; stroke-linejoin: miter"/>
     <use xlink:href="#m42ccc60d6d" x="257.236932" y="293.175936" style="fill: #ff7043; stroke: #000000; stroke-linejoin: miter"/>
    </g>
   </g>
   <g id="line2d_25">
    <path d="M 86.793295 294.207309 
L 87.503477 292.464686 
L 88.213659 287.487771 
L 89.634023 272.825489 
L 91.764568 249.34255 
L 93.184932 236.148325 
L 94.605295 225.654856 
L 96.025659 217.75736 
L 96.735841 214.681313 
L 97.446023 212.122198 
L 98.156205 210.030399 
L 98.866386 208.357807 
L 99.576568 207.058885 
L 100.28675 206.091268 
L 100.996932 205.416039 
L 101.707114 204.997794 
L 102.417295 204.804568 
L 103.127477 204.807671 
L 103.837659 204.981477 
L 104.547841 205.303183 
L 105.968205 206.311739 
L 107.388568 207.698176 
L 109.519114 210.263535 
L 112.359841 214.214436 
L 125.143114 232.804119 
L 128.694023 237.434097 
L 132.244932 241.747487 
L 135.795841 245.749968 
L 139.34675 249.455762 
L 142.897659 252.882646 
L 147.15875 256.653235 
L 151.419841 260.081294 
L 155.680932 263.197114 
L 159.942023 266.028761 
L 164.203114 268.60198 
L 168.464205 270.940282 
L 173.435477 273.399846 
L 178.40675 275.599424 
L 183.378023 277.566489 
L 189.059477 279.561256 
L 194.740932 281.316908 
L 201.132568 283.04175 
L 207.524205 284.535794 
L 214.626023 285.962573 
L 222.438023 287.290158 
L 230.960205 288.495864 
L 240.192568 289.566081 
L 250.135114 290.495479 
L 261.498023 291.332032 
L 274.281295 292.050023 
L 289.195114 292.664399 
L 307.659841 293.188449 
L 330.385659 293.595948 
L 360.213295 293.894584 
L 404.244568 294.091059 
L 441.884205 294.157419 
L 441.884205 294.157419 
" clip-path="url(#pf006dfff6e)" style="fill: none; stroke: #d25100; stroke-width: 2; stroke-linecap: square"/>
   </g>
   <g id="line2d_26">
    <path d="M 91.35875 287.761227 
L 92.271841 269.196511 
L 93.641477 259.398466 
L 95.011114 253.983757 
L 96.38075 246.764146 
L 97.750386 244.443556 
L 100.946205 239.286691 
L 105.511659 244.443556 
L 108.250932 247.021989 
L 115.200568 267.133765 
L 128.795477 273.83769 
L 144.774568 280.541615 
L 172.015114 283.893578 
L 257.236932 292.144563 
" clip-path="url(#pf006dfff6e)" style="fill: none; stroke-dasharray: 3.7,1.6; stroke-dashoffset: 0; stroke: #d25100"/>
    <defs>
     <path id="mcc5cad3bd4" d="M -3 3 
L 3 3 
L 3 -3 
L -3 -3 
z
" style="stroke: #000000; stroke-linejoin: miter"/>
    </defs>
    <g clip-path="url(#pf006dfff6e)">
     <use xlink:href="#mcc5cad3bd4" x="91.35875" y="287.761227" style="fill: #d25100; stroke: #000000; stroke-linejoin: miter"/>
     <use xlink:href="#mcc5cad3bd4" x="92.271841" y="269.196511" style="fill: #d25100; stroke: #000000; stroke-linejoin: miter"/>
     <use xlink:href="#mcc5cad3bd4" x="93.641477" y="259.398466" style="fill: #d25100; stroke: #000000; stroke-linejoin: miter"/>
     <use xlink:href="#mcc5cad3bd4" x="95.011114" y="253.983757" style="fill: #d25100; stroke: #000000; stroke-linejoin: miter"/>
     <use xlink:href="#mcc5cad3bd4" x="96.38075" y="246.764146" style="fill: #d25100; stroke: #000000; stroke-linejoin: miter"/>
     <use xlink:href="#mcc5cad3bd4" x="97.750386" y="244.443556" style="fill: #d25100; stroke: #000000; stroke-linejoin: miter"/>
     <use xlink:href="#mcc5cad3bd4" x="100.946205" y="239.286691" style="fill: #d25100; stroke: #000000; stroke-linejoin: miter"/>
     <use xlink:href="#mcc5cad3bd4" x="105.511659" y="244.443556" style="fill: #d25100; stroke: #000000; stroke-linejoin: miter"/>
     <use xlink:href="#mcc5cad3bd4" x="108.250932" y="247.021989" style="fill: #d25100; stroke: #000000; stroke-linejoin: miter"/>
     <use xlink:href="#mcc5cad3bd4" x="115.200568" y="267.133765" style="fill: #d25100; stroke: #000000; stroke-linejoin: miter"/>
     <use xlink:href="#mcc5cad3bd4" x="128.795477" y="273.83769" style="fill: #d25100; stroke: #000000; stroke-linejoin: miter"/>
     <use xlink:href="#mcc5cad3bd4" x="144.774568" y="280.541615" style="fill: #d25100; stroke: #000000; stroke-linejoin: miter"/>
     <use xlink:href="#mcc5cad3bd4" x="172.015114" y="283.893578" style="fill: #d25100; stroke: #000000; stroke-linejoin: miter"/>
     <use xlink:href="#mcc5cad3bd4" x="257.236932" y="292.144563" style="fill: #d25100; stroke: #000000; stroke-linejoin: miter"/>
    </g>
   </g>
   <g id="line2d_27">
    <path d="M 86.793295 294.207309 
L 87.503477 291.883812 
L 88.213659 285.247925 
L 89.634023 265.698216 
L 91.764568 234.38763 
L 93.184932 216.79533 
L 94.605295 202.804038 
L 96.025659 192.274044 
L 96.735841 188.172647 
L 97.446023 184.760494 
L 98.156205 181.971429 
L 98.866386 179.741306 
L 99.576568 178.009411 
L 100.28675 176.719255 
L 100.996932 175.818949 
L 101.707114 175.261289 
L 102.417295 175.003654 
L 103.127477 175.007792 
L 103.837659 175.239533 
L 104.547841 175.668475 
L 105.258023 176.267653 
L 106.678386 177.884111 
L 108.09875 179.929973 
L 110.229295 183.542861 
L 113.070023 188.936526 
L 123.72275 209.751358 
L 127.273659 216.090826 
L 130.824568 222.010931 
L 134.375477 227.511554 
L 137.926386 232.608166 
L 141.477295 237.323113 
L 145.028205 241.6812 
L 148.579114 245.707485 
L 152.130023 249.426223 
L 155.680932 252.860383 
L 159.231841 256.031474 
L 163.492932 259.517607 
L 167.754023 262.685491 
L 172.015114 265.564125 
L 176.276205 268.179898 
L 180.537295 270.5568 
L 185.508568 273.056929 
L 190.479841 275.292769 
L 195.451114 277.292255 
L 201.132568 279.319897 
L 206.814023 281.104481 
L 213.205659 282.857748 
L 219.597295 284.376413 
L 226.699114 285.826704 
L 234.511114 287.176167 
L 243.033295 288.401743 
L 252.265659 289.489596 
L 262.208205 290.43431 
L 273.571114 291.284649 
L 286.354386 292.014472 
L 301.268205 292.638973 
L 319.02275 293.154996 
L 341.038386 293.565716 
L 370.155841 293.873839 
L 412.056568 294.077267 
L 441.884205 294.14079 
L 441.884205 294.14079 
" clip-path="url(#pf006dfff6e)" style="fill: none; stroke: #a63c00; stroke-width: 2; stroke-linecap: square"/>
   </g>
   <g id="line2d_28">
    <path d="M 89.076023 292.402406 
L 91.35875 269.196511 
L 94.554568 259.398466 
L 105.055114 235.676885 
L 108.707477 237.481788 
L 115.200568 236.708258 
L 129.708568 253.983757 
L 143.607841 263.781802 
L 172.015114 273.06416 
L 193.624932 280.025929 
L 257.236932 285.956324 
L 342.45875 291.886719 
" clip-path="url(#pf006dfff6e)" style="fill: none; stroke-dasharray: 3.7,1.6; stroke-dashoffset: 0; stroke: #a63c00"/>
    <defs>
     <path id="m83b81c11f7" d="M -3 3 
L 3 3 
L 3 -3 
L -3 -3 
z
" style="stroke: #000000; stroke-linejoin: miter"/>
    </defs>
    <g clip-path="url(#pf006dfff6e)">
     <use xlink:href="#m83b81c11f7" x="89.076023" y="292.402406" style="fill: #a63c00; stroke: #000000; stroke-linejoin: miter"/>
     <use xlink:href="#m83b81c11f7" x="91.35875" y="269.196511" style="fill: #a63c00; stroke: #000000; stroke-linejoin: miter"/>
     <use xlink:href="#m83b81c11f7" x="94.554568" y="259.398466" style="fill: #a63c00; stroke: #000000; stroke-linejoin: miter"/>
     <use xlink:href="#m83b81c11f7" x="105.055114" y="235.676885" style="fill: #a63c00; stroke: #000000; stroke-linejoin: miter"/>
     <use xlink:href="#m83b81c11f7" x="108.707477" y="237.481788" style="fill: #a63c00; stroke: #000000; stroke-linejoin: miter"/>
     <use xlink:href="#m83b81c11f7" x="115.200568" y="236.708258" style="fill: #a63c00; stroke: #000000; stroke-linejoin: miter"/>
     <use xlink:href="#m83b81c11f7" x="129.708568" y="253.983757" style="fill: #a63c00; stroke: #000000; stroke-linejoin: miter"/>
     <use xlink:href="#m83b81c11f7" x="143.607841" y="263.781802" style="fill: #a63c00; stroke: #000000; stroke-linejoin: miter"/>
     <use xlink:href="#m83b81c11f7" x="172.015114" y="273.06416" style="fill: #a63c00; stroke: #000000; stroke-linejoin: miter"/>
     <use xlink:href="#m83b81c11f7" x="193.624932" y="280.025929" style="fill: #a63c00; stroke: #000000; stroke-linejoin: miter"/>
     <use xlink:href="#m83b81c11f7" x="257.236932" y="285.956324" style="fill: #a63c00; stroke: #000000; stroke-linejoin: miter"/>
     <use xlink:href="#m83b81c11f7" x="342.45875" y="291.886719" style="fill: #a63c00; stroke: #000000; stroke-linejoin: miter"/>
    </g>
   </g>
   <g id="line2d_29">
    <path d="M 86.793295 294.207309 
L 87.503477 290.722064 
L 88.213659 280.768234 
L 89.634023 251.443669 
L 91.764568 204.477791 
L 93.184932 178.089341 
L 94.605295 157.102402 
L 96.025659 141.307411 
L 96.735841 135.155316 
L 97.446023 130.037086 
L 98.156205 125.853488 
L 98.866386 122.508305 
L 99.576568 119.910462 
L 100.28675 117.975228 
L 100.996932 116.62477 
L 101.707114 115.788279 
L 102.417295 115.401827 
L 103.127477 115.408034 
L 103.837659 115.755645 
L 104.547841 116.399058 
L 105.258023 117.297825 
L 106.678386 119.722512 
L 108.09875 122.791304 
L 110.229295 128.210637 
L 113.070023 136.301134 
L 123.72275 167.523383 
L 127.273659 177.032584 
L 130.824568 185.912742 
L 134.375477 194.163676 
L 137.926386 201.808595 
L 141.477295 208.881016 
L 145.028205 215.418146 
L 148.579114 221.457574 
L 152.130023 227.03568 
L 155.680932 232.18692 
L 159.231841 236.943557 
L 162.78275 241.335608 
L 166.333659 245.390912 
L 169.884568 249.13523 
L 173.435477 252.592382 
L 176.986386 255.784378 
L 181.247477 259.293277 
L 185.508568 262.481739 
L 189.769659 265.379023 
L 194.03075 268.011718 
L 198.291841 270.403987 
L 203.263114 272.920275 
L 208.234386 275.170562 
L 213.205659 277.182968 
L 218.887114 279.22371 
L 224.568568 281.019825 
L 230.960205 282.78442 
L 237.351841 284.312897 
L 244.453659 285.772558 
L 252.265659 287.13074 
L 260.787841 288.364234 
L 270.020205 289.459116 
L 279.96275 290.409933 
L 291.325659 291.265766 
L 304.108932 292.000304 
L 319.02275 292.62884 
L 336.777295 293.148198 
L 358.792932 293.561571 
L 387.910386 293.871684 
L 429.811114 294.076427 
L 441.884205 294.10753 
L 441.884205 294.10753 
" clip-path="url(#pf006dfff6e)" style="fill: none; stroke: #7b2e00; stroke-width: 2; stroke-linecap: square"/>
   </g>
   <g id="line2d_30">
    <path d="M 88.619477 292.402406 
L 89.989114 269.454354 
L 92.728386 242.896496 
L 94.554568 232.582765 
L 95.924205 220.464131 
L 98.663477 218.917071 
L 105.055114 206.024908 
L 109.164023 209.634713 
L 115.200568 215.565109 
L 130.165114 249.342578 
L 143.607841 263.523959 
L 172.167295 274.869063 
L 194.081477 277.447496 
L 257.236932 282.088675 
L 342.45875 290.33966 
" clip-path="url(#pf006dfff6e)" style="fill: none; stroke-dasharray: 3.7,1.6; stroke-dashoffset: 0; stroke: #7b2e00"/>
    <defs>
     <path id="m292e78e593" d="M -3 3 
L 3 3 
L 3 -3 
L -3 -3 
z
" style="stroke: #000000; stroke-linejoin: miter"/>
    </defs>
    <g clip-path="url(#pf006dfff6e)">
     <use xlink:href="#m292e78e593" x="88.619477" y="292.402406" style="fill: #7b2e00; stroke: #000000; stroke-linejoin: miter"/>
     <use xlink:href="#m292e78e593" x="89.989114" y="269.454354" style="fill: #7b2e00; stroke: #000000; stroke-linejoin: miter"/>
     <use xlink:href="#m292e78e593" x="92.728386" y="242.896496" style="fill: #7b2e00; stroke: #000000; stroke-linejoin: miter"/>
     <use xlink:href="#m292e78e593" x="94.554568" y="232.582765" style="fill: #7b2e00; stroke: #000000; stroke-linejoin: miter"/>
     <use xlink:href="#m292e78e593" x="95.924205" y="220.464131" style="fill: #7b2e00; stroke: #000000; stroke-linejoin: miter"/>
     <use xlink:href="#m292e78e593" x="98.663477" y="218.917071" style="fill: #7b2e00; stroke: #000000; stroke-linejoin: miter"/>
     <use xlink:href="#m292e78e593" x="105.055114" y="206.024908" style="fill: #7b2e00; stroke: #000000; stroke-linejoin: miter"/>
     <use xlink:href="#m292e78e593" x="109.164023" y="209.634713" style="fill: #7b2e00; stroke: #000000; stroke-linejoin: miter"/>
     <use xlink:href="#m292e78e593" x="115.200568" y="215.565109" style="fill: #7b2e00; stroke: #000000; stroke-linejoin: miter"/>
     <use xlink:href="#m292e78e593" x="130.165114" y="249.342578" style="fill: #7b2e00; stroke: #000000; stroke-linejoin: miter"/>
     <use xlink:href="#m292e78e593" x="143.607841" y="263.523959" style="fill: #7b2e00; stroke: #000000; stroke-linejoin: miter"/>
     <use xlink:href="#m292e78e593" x="172.167295" y="274.869063" style="fill: #7b2e00; stroke: #000000; stroke-linejoin: miter"/>
     <use xlink:href="#m292e78e593" x="194.081477" y="277.447496" style="fill: #7b2e00; stroke: #000000; stroke-linejoin: miter"/>
     <use xlink:href="#m292e78e593" x="257.236932" y="282.088675" style="fill: #7b2e00; stroke: #000000; stroke-linejoin: miter"/>
     <use xlink:href="#m292e78e593" x="342.45875" y="290.33966" style="fill: #7b2e00; stroke: #000000; stroke-linejoin: miter"/>
    </g>
   </g>
   <g id="line2d_31">
    <path d="M 86.793295 294.207309 
L 87.503477 289.560315 
L 88.213659 276.288542 
L 89.634023 237.189123 
L 91.764568 174.567951 
L 93.184932 139.383351 
L 94.605295 111.400767 
L 96.025659 90.340779 
L 96.735841 82.137986 
L 97.446023 75.313679 
L 98.156205 69.735548 
L 98.866386 65.275303 
L 99.576568 61.811513 
L 100.28675 59.231201 
L 100.996932 57.43059 
L 101.707114 56.31527 
L 102.417295 55.8 
L 103.127477 55.808275 
L 103.837659 56.271757 
L 104.547841 57.12964 
L 105.258023 58.327996 
L 106.678386 61.560913 
L 108.09875 65.652636 
L 110.229295 72.878413 
L 113.070023 83.665742 
L 123.72275 125.295408 
L 127.273659 137.974342 
L 130.824568 149.814553 
L 134.375477 160.815799 
L 137.926386 171.009023 
L 141.477295 180.438918 
L 145.028205 189.155091 
L 148.579114 197.207662 
L 152.130023 204.645136 
L 155.680932 211.513457 
L 159.231841 217.855639 
L 162.78275 223.711708 
L 166.333659 229.118779 
L 169.884568 234.111204 
L 173.435477 238.72074 
L 176.986386 242.976734 
L 180.537295 246.906291 
L 184.088205 250.534443 
L 187.639114 253.884306 
L 191.900205 257.566737 
L 196.161295 260.912876 
L 200.422386 263.953436 
L 204.683477 266.716321 
L 208.944568 269.226891 
L 213.205659 271.508187 
L 218.176932 273.907748 
L 223.148205 276.053648 
L 228.119477 277.972701 
L 233.800932 279.918777 
L 239.482386 281.631573 
L 245.874023 283.31431 
L 252.265659 284.771883 
L 259.367477 286.163833 
L 267.179477 287.459011 
L 275.701659 288.635285 
L 284.934023 289.679377 
L 295.58675 290.643427 
L 306.949659 291.446636 
L 320.443114 292.168807 
L 336.067114 292.77244 
L 355.242023 293.274797 
L 378.678023 293.656621 
L 410.636205 293.938789 
L 441.884205 294.07427 
L 441.884205 294.07427 
" clip-path="url(#pf006dfff6e)" style="fill: none; stroke: #4c1f00; stroke-width: 2; stroke-linecap: square"/>
   </g>
   <g id="line2d_32">
    <path d="M 88.162932 288.534757 
L 90.902205 263.008272 
L 93.184932 245.732773 
L 94.098023 229.488646 
L 96.38075 223.042564 
L 98.206932 212.213146 
L 101.859295 206.540594 
L 105.055114 210.92393 
L 108.707477 217.370012 
L 115.200568 227.683743 
L 130.165114 256.56219 
L 143.607841 265.844548 
L 172.167295 276.416123 
L 193.624932 278.994556 
L 257.236932 283.635735 
L 342.45875 290.855346 
" clip-path="url(#pf006dfff6e)" style="fill: none; stroke-dasharray: 3.7,1.6; stroke-dashoffset: 0; stroke: #4c1f00"/>
    <defs>
     <path id="m45d6ba4d52" d="M -3 3 
L 3 3 
L 3 -3 
L -3 -3 
z
" style="stroke: #000000; stroke-linejoin: miter"/>
    </defs>
    <g clip-path="url(#pf006dfff6e)">
     <use xlink:href="#m45d6ba4d52" x="88.162932" y="288.534757" style="fill: #4c1f00; stroke: #000000; stroke-linejoin: miter"/>
     <use xlink:href="#m45d6ba4d52" x="90.902205" y="263.008272" style="fill: #4c1f00; stroke: #000000; stroke-linejoin: miter"/>
     <use xlink:href="#m45d6ba4d52" x="93.184932" y="245.732773" style="fill: #4c1f00; stroke: #000000; stroke-linejoin: miter"/>
     <use xlink:href="#m45d6ba4d52" x="94.098023" y="229.488646" style="fill: #4c1f00; stroke: #000000; stroke-linejoin: miter"/>
     <use xlink:href="#m45d6ba4d52" x="96.38075" y="223.042564" style="fill: #4c1f00; stroke: #000000; stroke-linejoin: miter"/>
     <use xlink:href="#m45d6ba4d52" x="98.206932" y="212.213146" style="fill: #4c1f00; stroke: #000000; stroke-linejoin: miter"/>
     <use xlink:href="#m45d6ba4d52" x="101.859295" y="206.540594" style="fill: #4c1f00; stroke: #000000; stroke-linejoin: miter"/>
     <use xlink:href="#m45d6ba4d52" x="105.055114" y="210.92393" style="fill: #4c1f00; stroke: #000000; stroke-linejoin: miter"/>
     <use xlink:href="#m45d6ba4d52" x="108.707477" y="217.370012" style="fill: #4c1f00; stroke: #000000; stroke-linejoin: miter"/>
     <use xlink:href="#m45d6ba4d52" x="115.200568" y="227.683743" style="fill: #4c1f00; stroke: #000000; stroke-linejoin: miter"/>
     <use xlink:href="#m45d6ba4d52" x="130.165114" y="256.56219" style="fill: #4c1f00; stroke: #000000; stroke-linejoin: miter"/>
     <use xlink:href="#m45d6ba4d52" x="143.607841" y="265.844548" style="fill: #4c1f00; stroke: #000000; stroke-linejoin: miter"/>
     <use xlink:href="#m45d6ba4d52" x="172.167295" y="276.416123" style="fill: #4c1f00; stroke: #000000; stroke-linejoin: miter"/>
     <use xlink:href="#m45d6ba4d52" x="193.624932" y="278.994556" style="fill: #4c1f00; stroke: #000000; stroke-linejoin: miter"/>
     <use xlink:href="#m45d6ba4d52" x="257.236932" y="283.635735" style="fill: #4c1f00; stroke: #000000; stroke-linejoin: miter"/>
     <use xlink:href="#m45d6ba4d52" x="342.45875" y="290.855346" style="fill: #4c1f00; stroke: #000000; stroke-linejoin: miter"/>
    </g>
   </g>
   <g id="patch_3">
    <path d="M 69.03875 320.4 
L 69.03875 43.2 
" style="fill: none; stroke: #000000; stroke-width: 0.8; stroke-linejoin: miter; stroke-linecap: square"/>
   </g>
   <g id="patch_4">
    <path d="M 459.63875 320.4 
L 459.63875 43.2 
" style="fill: none; stroke: #000000; stroke-width: 0.8; stroke-linejoin: miter; stroke-linecap: square"/>
   </g>
   <g id="patch_5">
    <path d="M 69.03875 320.4 
L 459.63875 320.4 
" style="fill: none; stroke: #000000; stroke-width: 0.8; stroke-linejoin: miter; stroke-linecap: square"/>
   </g>
   <g id="patch_6">
    <path d="M 69.03875 43.2 
L 459.63875 43.2 
" style="fill: none; stroke: #000000; stroke-width: 0.8; stroke-linejoin: miter; stroke-linecap: square"/>
   </g>
   <g id="legend_1">
    <g id="patch_7">
     <path d="M 337.77625 315.40625 
L 452.63875 315.40625 
Q 454.63875 315.40625 454.63875 313.40625 
L 454.63875 50.2 
Q 454.63875 48.2 452.63875 48.2 
L 337.77625 48.2 
Q 335.77625 48.2 335.77625 50.2 
L 335.77625 313.40625 
Q 335.77625 315.40625 337.77625 315.40625 
z
" style="fill: #ffffff; opacity: 0.8; stroke: #cccccc; stroke-linejoin: miter"/>
    </g>
    <g id="line2d_33">
     <path d="M 339.77625 56.298437 
L 359.77625 56.298437 
" style="fill: none; stroke: #fffacd; stroke-width: 2; stroke-linecap: square"/>
    </g>
    <g id="line2d_34"/>
    <g id="text_17">
     <!-- T1.25 -->
     <g transform="translate(367.77625 59.798437) scale(0.1 -0.1)">
      <defs>
       <path id="DejaVuSans-54" d="M -19 4666 
L 3928 4666 
L 3928 4134 
L 2272 4134 
L 2272 0 
L 1638 0 
L 1638 4134 
L -19 4134 
L -19 4666 
z
" transform="scale(0.015625)"/>
      </defs>
      <use xlink:href="#DejaVuSans-54"/>
      <use xlink:href="#DejaVuSans-31" x="61.083984"/>
      <use xlink:href="#DejaVuSans-2e" x="124.707031"/>
      <use xlink:href="#DejaVuSans-32" x="156.494141"/>
      <use xlink:href="#DejaVuSans-35" x="220.117188"/>
     </g>
    </g>
    <g id="LineCollection_10">
     <path d="M 349.77625 75.976562 
L 349.77625 65.976562 
" style="fill: none; stroke: #fffacd"/>
    </g>
    <g id="line2d_35">
     <path d="M 339.77625 70.976562 
L 359.77625 70.976562 
" style="fill: none; stroke-dasharray: 3.7,1.6; stroke-dashoffset: 0; stroke: #fffacd"/>
    </g>
    <g id="line2d_36">
     <g>
      <use xlink:href="#mf10a076923" x="349.77625" y="70.976562" style="fill: #fffacd; stroke: #000000; stroke-linejoin: miter"/>
     </g>
    </g>
    <g id="text_18">
     <!-- T1.25±SD (n=8) -->
     <g transform="translate(367.77625 74.476562) scale(0.1 -0.1)">
      <defs>
       <path id="DejaVuSans-b1" d="M 2944 4013 
L 2944 2803 
L 4684 2803 
L 4684 2272 
L 2944 2272 
L 2944 1063 
L 2419 1063 
L 2419 2272 
L 678 2272 
L 678 2803 
L 2419 2803 
L 2419 4013 
L 2944 4013 
z
M 678 531 
L 4684 531 
L 4684 0 
L 678 0 
L 678 531 
z
" transform="scale(0.015625)"/>
       <path id="DejaVuSans-53" d="M 3425 4513 
L 3425 3897 
Q 3066 4069 2747 4153 
Q 2428 4238 2131 4238 
Q 1616 4238 1336 4038 
Q 1056 3838 1056 3469 
Q 1056 3159 1242 3001 
Q 1428 2844 1947 2747 
L 2328 2669 
Q 3034 2534 3370 2195 
Q 3706 1856 3706 1288 
Q 3706 609 3251 259 
Q 2797 -91 1919 -91 
Q 1588 -91 1214 -16 
Q 841 59 441 206 
L 441 856 
Q 825 641 1194 531 
Q 1563 422 1919 422 
Q 2459 422 2753 634 
Q 3047 847 3047 1241 
Q 3047 1584 2836 1778 
Q 2625 1972 2144 2069 
L 1759 2144 
Q 1053 2284 737 2584 
Q 422 2884 422 3419 
Q 422 4038 858 4394 
Q 1294 4750 2059 4750 
Q 2388 4750 2728 4690 
Q 3069 4631 3425 4513 
z
" transform="scale(0.015625)"/>
       <path id="DejaVuSans-44" d="M 1259 4147 
L 1259 519 
L 2022 519 
Q 2988 519 3436 956 
Q 3884 1394 3884 2338 
Q 3884 3275 3436 3711 
Q 2988 4147 2022 4147 
L 1259 4147 
z
M 628 4666 
L 1925 4666 
Q 3281 4666 3915 4102 
Q 4550 3538 4550 2338 
Q 4550 1131 3912 565 
Q 3275 0 1925 0 
L 628 0 
L 628 4666 
z
" transform="scale(0.015625)"/>
       <path id="DejaVuSans-20" transform="scale(0.015625)"/>
       <path id="DejaVuSans-28" d="M 1984 4856 
Q 1566 4138 1362 3434 
Q 1159 2731 1159 2009 
Q 1159 1288 1364 580 
Q 1569 -128 1984 -844 
L 1484 -844 
Q 1016 -109 783 600 
Q 550 1309 550 2009 
Q 550 2706 781 3412 
Q 1013 4119 1484 4856 
L 1984 4856 
z
" transform="scale(0.015625)"/>
       <path id="DejaVuSans-6e" d="M 3513 2113 
L 3513 0 
L 2938 0 
L 2938 2094 
Q 2938 2591 2744 2837 
Q 2550 3084 2163 3084 
Q 1697 3084 1428 2787 
Q 1159 2491 1159 1978 
L 1159 0 
L 581 0 
L 581 3500 
L 1159 3500 
L 1159 2956 
Q 1366 3272 1645 3428 
Q 1925 3584 2291 3584 
Q 2894 3584 3203 3211 
Q 3513 2838 3513 2113 
z
" transform="scale(0.015625)"/>
       <path id="DejaVuSans-3d" d="M 678 2906 
L 4684 2906 
L 4684 2381 
L 678 2381 
L 678 2906 
z
M 678 1631 
L 4684 1631 
L 4684 1100 
L 678 1100 
L 678 1631 
z
" transform="scale(0.015625)"/>
       <path id="DejaVuSans-38" d="M 2034 2216 
Q 1584 2216 1326 1975 
Q 1069 1734 1069 1313 
Q 1069 891 1326 650 
Q 1584 409 2034 409 
Q 2484 409 2743 651 
Q 3003 894 3003 1313 
Q 3003 1734 2745 1975 
Q 2488 2216 2034 2216 
z
M 1403 2484 
Q 997 2584 770 2862 
Q 544 3141 544 3541 
Q 544 4100 942 4425 
Q 1341 4750 2034 4750 
Q 2731 4750 3128 4425 
Q 3525 4100 3525 3541 
Q 3525 3141 3298 2862 
Q 3072 2584 2669 2484 
Q 3125 2378 3379 2068 
Q 3634 1759 3634 1313 
Q 3634 634 3220 271 
Q 2806 -91 2034 -91 
Q 1263 -91 848 271 
Q 434 634 434 1313 
Q 434 1759 690 2068 
Q 947 2378 1403 2484 
z
M 1172 3481 
Q 1172 3119 1398 2916 
Q 1625 2713 2034 2713 
Q 2441 2713 2670 2916 
Q 2900 3119 2900 3481 
Q 2900 3844 2670 4047 
Q 2441 4250 2034 4250 
Q 1625 4250 1398 4047 
Q 1172 3844 1172 3481 
z
" transform="scale(0.015625)"/>
       <path id="DejaVuSans-29" d="M 513 4856 
L 1013 4856 
Q 1481 4119 1714 3412 
Q 1947 2706 1947 2009 
Q 1947 1309 1714 600 
Q 1481 -109 1013 -844 
L 513 -844 
Q 928 -128 1133 580 
Q 1338 1288 1338 2009 
Q 1338 2731 1133 3434 
Q 928 4138 513 4856 
z
" transform="scale(0.015625)"/>
      </defs>
      <use xlink:href="#DejaVuSans-54"/>
      <use xlink:href="#DejaVuSans-31" x="61.083984"/>
      <use xlink:href="#DejaVuSans-2e" x="124.707031"/>
      <use xlink:href="#DejaVuSans-32" x="156.494141"/>
      <use xlink:href="#DejaVuSans-35" x="220.117188"/>
      <use xlink:href="#DejaVuSans-b1" x="283.740234"/>
      <use xlink:href="#DejaVuSans-53" x="367.529297"/>
      <use xlink:href="#DejaVuSans-44" x="431.005859"/>
      <use xlink:href="#DejaVuSans-20" x="508.007812"/>
      <use xlink:href="#DejaVuSans-28" x="539.794922"/>
      <use xlink:href="#DejaVuSans-6e" x="578.808594"/>
      <use xlink:href="#DejaVuSans-3d" x="642.1875"/>
      <use xlink:href="#DejaVuSans-38" x="725.976562"/>
      <use xlink:href="#DejaVuSans-29" x="789.599609"/>
     </g>
    </g>
    <g id="line2d_37">
     <path d="M 339.77625 85.654687 
L 359.77625 85.654687 
" style="fill: none; stroke: #ffd580; stroke-width: 2; stroke-linecap: square"/>
    </g>
    <g id="line2d_38"/>
    <g id="text_19">
     <!-- T5 -->
     <g transform="translate(367.77625 89.154687) scale(0.1 -0.1)">
      <use xlink:href="#DejaVuSans-54"/>
      <use xlink:href="#DejaVuSans-35" x="61.083984"/>
     </g>
    </g>
    <g id="LineCollection_11">
     <path d="M 349.77625 105.332812 
L 349.77625 95.332812 
" style="fill: none; stroke: #ffd580"/>
    </g>
    <g id="line2d_39">
     <path d="M 339.77625 100.332812 
L 359.77625 100.332812 
" style="fill: none; stroke-dasharray: 3.7,1.6; stroke-dashoffset: 0; stroke: #ffd580"/>
    </g>
    <g id="line2d_40">
     <g>
      <use xlink:href="#mce7c43d698" x="349.77625" y="100.332812" style="fill: #ffd580; stroke: #000000; stroke-linejoin: miter"/>
     </g>
    </g>
    <g id="text_20">
     <!-- T5±SD (n=6) -->
     <g transform="translate(367.77625 103.832812) scale(0.1 -0.1)">
      <defs>
       <path id="DejaVuSans-36" d="M 2113 2584 
Q 1688 2584 1439 2293 
Q 1191 2003 1191 1497 
Q 1191 994 1439 701 
Q 1688 409 2113 409 
Q 2538 409 2786 701 
Q 3034 994 3034 1497 
Q 3034 2003 2786 2293 
Q 2538 2584 2113 2584 
z
M 3366 4563 
L 3366 3988 
Q 3128 4100 2886 4159 
Q 2644 4219 2406 4219 
Q 1781 4219 1451 3797 
Q 1122 3375 1075 2522 
Q 1259 2794 1537 2939 
Q 1816 3084 2150 3084 
Q 2853 3084 3261 2657 
Q 3669 2231 3669 1497 
Q 3669 778 3244 343 
Q 2819 -91 2113 -91 
Q 1303 -91 875 529 
Q 447 1150 447 2328 
Q 447 3434 972 4092 
Q 1497 4750 2381 4750 
Q 2619 4750 2861 4703 
Q 3103 4656 3366 4563 
z
" transform="scale(0.015625)"/>
      </defs>
      <use xlink:href="#DejaVuSans-54"/>
      <use xlink:href="#DejaVuSans-35" x="61.083984"/>
      <use xlink:href="#DejaVuSans-b1" x="124.707031"/>
      <use xlink:href="#DejaVuSans-53" x="208.496094"/>
      <use xlink:href="#DejaVuSans-44" x="271.972656"/>
      <use xlink:href="#DejaVuSans-20" x="348.974609"/>
      <use xlink:href="#DejaVuSans-28" x="380.761719"/>
      <use xlink:href="#DejaVuSans-6e" x="419.775391"/>
      <use xlink:href="#DejaVuSans-3d" x="483.154297"/>
      <use xlink:href="#DejaVuSans-36" x="566.943359"/>
      <use xlink:href="#DejaVuSans-29" x="630.566406"/>
     </g>
    </g>
    <g id="line2d_41">
     <path d="M 339.77625 115.010937 
L 359.77625 115.010937 
" style="fill: none; stroke: #ffb347; stroke-width: 2; stroke-linecap: square"/>
    </g>
    <g id="line2d_42"/>
    <g id="text_21">
     <!-- T10 -->
     <g transform="translate(367.77625 118.510937) scale(0.1 -0.1)">
      <use xlink:href="#DejaVuSans-54"/>
      <use xlink:href="#DejaVuSans-31" x="61.083984"/>
      <use xlink:href="#DejaVuSans-30" x="124.707031"/>
     </g>
    </g>
    <g id="LineCollection_12">
     <path d="M 349.77625 134.689062 
L 349.77625 124.689062 
" style="fill: none; stroke: #ffb347"/>
    </g>
    <g id="line2d_43">
     <path d="M 339.77625 129.689062 
L 359.77625 129.689062 
" style="fill: none; stroke-dasharray: 3.7,1.6; stroke-dashoffset: 0; stroke: #ffb347"/>
    </g>
    <g id="line2d_44">
     <g>
      <use xlink:href="#ma45bf31783" x="349.77625" y="129.689062" style="fill: #ffb347; stroke: #000000; stroke-linejoin: miter"/>
     </g>
    </g>
    <g id="text_22">
     <!-- T10±SD (n=8) -->
     <g transform="translate(367.77625 133.189062) scale(0.1 -0.1)">
      <use xlink:href="#DejaVuSans-54"/>
      <use xlink:href="#DejaVuSans-31" x="61.083984"/>
      <use xlink:href="#DejaVuSans-30" x="124.707031"/>
      <use xlink:href="#DejaVuSans-b1" x="188.330078"/>
      <use xlink:href="#DejaVuSans-53" x="272.119141"/>
      <use xlink:href="#DejaVuSans-44" x="335.595703"/>
      <use xlink:href="#DejaVuSans-20" x="412.597656"/>
      <use xlink:href="#DejaVuSans-28" x="444.384766"/>
      <use xlink:href="#DejaVuSans-6e" x="483.398438"/>
      <use xlink:href="#DejaVuSans-3d" x="546.777344"/>
      <use xlink:href="#DejaVuSans-38" x="630.566406"/>
      <use xlink:href="#DejaVuSans-29" x="694.189453"/>
     </g>
    </g>
    <g id="line2d_45">
     <path d="M 339.77625 144.367187 
L 359.77625 144.367187 
" style="fill: none; stroke: #ff944d; stroke-width: 2; stroke-linecap: square"/>
    </g>
    <g id="line2d_46"/>
    <g id="text_23">
     <!-- T15 -->
     <g transform="translate(367.77625 147.867187) scale(0.1 -0.1)">
      <use xlink:href="#DejaVuSans-54"/>
      <use xlink:href="#DejaVuSans-31" x="61.083984"/>
      <use xlink:href="#DejaVuSans-35" x="124.707031"/>
     </g>
    </g>
    <g id="LineCollection_13">
     <path d="M 349.77625 164.045312 
L 349.77625 154.045312 
" style="fill: none; stroke: #ff944d"/>
    </g>
    <g id="line2d_47">
     <path d="M 339.77625 159.045312 
L 359.77625 159.045312 
" style="fill: none; stroke-dasharray: 3.7,1.6; stroke-dashoffset: 0; stroke: #ff944d"/>
    </g>
    <g id="line2d_48">
     <g>
      <use xlink:href="#madd4296d3a" x="349.77625" y="159.045312" style="fill: #ff944d; stroke: #000000; stroke-linejoin: miter"/>
     </g>
    </g>
    <g id="text_24">
     <!-- T15±SD (n=7) -->
     <g transform="translate(367.77625 162.545312) scale(0.1 -0.1)">
      <use xlink:href="#DejaVuSans-54"/>
      <use xlink:href="#DejaVuSans-31" x="61.083984"/>
      <use xlink:href="#DejaVuSans-35" x="124.707031"/>
      <use xlink:href="#DejaVuSans-b1" x="188.330078"/>
      <use xlink:href="#DejaVuSans-53" x="272.119141"/>
      <use xlink:href="#DejaVuSans-44" x="335.595703"/>
      <use xlink:href="#DejaVuSans-20" x="412.597656"/>
      <use xlink:href="#DejaVuSans-28" x="444.384766"/>
      <use xlink:href="#DejaVuSans-6e" x="483.398438"/>
      <use xlink:href="#DejaVuSans-3d" x="546.777344"/>
      <use xlink:href="#DejaVuSans-37" x="630.566406"/>
      <use xlink:href="#DejaVuSans-29" x="694.189453"/>
     </g>
    </g>
    <g id="line2d_49">
     <path d="M 339.77625 173.723437 
L 359.77625 173.723437 
" style="fill: none; stroke: #ff7043; stroke-width: 2; stroke-linecap: square"/>
    </g>
    <g id="line2d_50"/>
    <g id="text_25">
     <!-- T20 -->
     <g transform="translate(367.77625 177.223437) scale(0.1 -0.1)">
      <use xlink:href="#DejaVuSans-54"/>
      <use xlink:href="#DejaVuSans-32" x="61.083984"/>
      <use xlink:href="#DejaVuSans-30" x="124.707031"/>
     </g>
    </g>
    <g id="LineCollection_14">
     <path d="M 349.77625 193.401562 
L 349.77625 183.401562 
" style="fill: none; stroke: #ff7043"/>
    </g>
    <g id="line2d_51">
     <path d="M 339.77625 188.401562 
L 359.77625 188.401562 
" style="fill: none; stroke-dasharray: 3.7,1.6; stroke-dashoffset: 0; stroke: #ff7043"/>
    </g>
    <g id="line2d_52">
     <g>
      <use xlink:href="#m42ccc60d6d" x="349.77625" y="188.401562" style="fill: #ff7043; stroke: #000000; stroke-linejoin: miter"/>
     </g>
    </g>
    <g id="text_26">
     <!-- T20±SD (n=7) -->
     <g transform="translate(367.77625 191.901562) scale(0.1 -0.1)">
      <use xlink:href="#DejaVuSans-54"/>
      <use xlink:href="#DejaVuSans-32" x="61.083984"/>
      <use xlink:href="#DejaVuSans-30" x="124.707031"/>
      <use xlink:href="#DejaVuSans-b1" x="188.330078"/>
      <use xlink:href="#DejaVuSans-53" x="272.119141"/>
      <use xlink:href="#DejaVuSans-44" x="335.595703"/>
      <use xlink:href="#DejaVuSans-20" x="412.597656"/>
      <use xlink:href="#DejaVuSans-28" x="444.384766"/>
      <use xlink:href="#DejaVuSans-6e" x="483.398438"/>
      <use xlink:href="#DejaVuSans-3d" x="546.777344"/>
      <use xlink:href="#DejaVuSans-37" x="630.566406"/>
      <use xlink:href="#DejaVuSans-29" x="694.189453"/>
     </g>
    </g>
    <g id="line2d_53">
     <path d="M 339.77625 203.079687 
L 359.77625 203.079687 
" style="fill: none; stroke: #d25100; stroke-width: 2; stroke-linecap: square"/>
    </g>
    <g id="line2d_54"/>
    <g id="text_27">
     <!-- T30 -->
     <g transform="translate(367.77625 206.579687) scale(0.1 -0.1)">
      <use xlink:href="#DejaVuSans-54"/>
      <use xlink:href="#DejaVuSans-33" x="61.083984"/>
      <use xlink:href="#DejaVuSans-30" x="124.707031"/>
     </g>
    </g>
    <g id="LineCollection_15">
     <path d="M 349.77625 222.757812 
L 349.77625 212.757812 
" style="fill: none; stroke: #d25100"/>
    </g>
    <g id="line2d_55">
     <path d="M 339.77625 217.757812 
L 359.77625 217.757812 
" style="fill: none; stroke-dasharray: 3.7,1.6; stroke-dashoffset: 0; stroke: #d25100"/>
    </g>
    <g id="line2d_56">
     <g>
      <use xlink:href="#mcc5cad3bd4" x="349.77625" y="217.757812" style="fill: #d25100; stroke: #000000; stroke-linejoin: miter"/>
     </g>
    </g>
    <g id="text_28">
     <!-- T30±SD (n=7) -->
     <g transform="translate(367.77625 221.257812) scale(0.1 -0.1)">
      <use xlink:href="#DejaVuSans-54"/>
      <use xlink:href="#DejaVuSans-33" x="61.083984"/>
      <use xlink:href="#DejaVuSans-30" x="124.707031"/>
      <use xlink:href="#DejaVuSans-b1" x="188.330078"/>
      <use xlink:href="#DejaVuSans-53" x="272.119141"/>
      <use xlink:href="#DejaVuSans-44" x="335.595703"/>
      <use xlink:href="#DejaVuSans-20" x="412.597656"/>
      <use xlink:href="#DejaVuSans-28" x="444.384766"/>
      <use xlink:href="#DejaVuSans-6e" x="483.398438"/>
      <use xlink:href="#DejaVuSans-3d" x="546.777344"/>
      <use xlink:href="#DejaVuSans-37" x="630.566406"/>
      <use xlink:href="#DejaVuSans-29" x="694.189453"/>
     </g>
    </g>
    <g id="line2d_57">
     <path d="M 339.77625 232.435937 
L 359.77625 232.435937 
" style="fill: none; stroke: #a63c00; stroke-width: 2; stroke-linecap: square"/>
    </g>
    <g id="line2d_58"/>
    <g id="text_29">
     <!-- T40 -->
     <g transform="translate(367.77625 235.935937) scale(0.1 -0.1)">
      <use xlink:href="#DejaVuSans-54"/>
      <use xlink:href="#DejaVuSans-34" x="61.083984"/>
      <use xlink:href="#DejaVuSans-30" x="124.707031"/>
     </g>
    </g>
    <g id="LineCollection_16">
     <path d="M 349.77625 252.114062 
L 349.77625 242.114062 
" style="fill: none; stroke: #a63c00"/>
    </g>
    <g id="line2d_59">
     <path d="M 339.77625 247.114062 
L 359.77625 247.114062 
" style="fill: none; stroke-dasharray: 3.7,1.6; stroke-dashoffset: 0; stroke: #a63c00"/>
    </g>
    <g id="line2d_60">
     <g>
      <use xlink:href="#m83b81c11f7" x="349.77625" y="247.114062" style="fill: #a63c00; stroke: #000000; stroke-linejoin: miter"/>
     </g>
    </g>
    <g id="text_30">
     <!-- T40±SD (n=8) -->
     <g transform="translate(367.77625 250.614062) scale(0.1 -0.1)">
      <use xlink:href="#DejaVuSans-54"/>
      <use xlink:href="#DejaVuSans-34" x="61.083984"/>
      <use xlink:href="#DejaVuSans-30" x="124.707031"/>
      <use xlink:href="#DejaVuSans-b1" x="188.330078"/>
      <use xlink:href="#DejaVuSans-53" x="272.119141"/>
      <use xlink:href="#DejaVuSans-44" x="335.595703"/>
      <use xlink:href="#DejaVuSans-20" x="412.597656"/>
      <use xlink:href="#DejaVuSans-28" x="444.384766"/>
      <use xlink:href="#DejaVuSans-6e" x="483.398438"/>
      <use xlink:href="#DejaVuSans-3d" x="546.777344"/>
      <use xlink:href="#DejaVuSans-38" x="630.566406"/>
      <use xlink:href="#DejaVuSans-29" x="694.189453"/>
     </g>
    </g>
    <g id="line2d_61">
     <path d="M 339.77625 261.792187 
L 359.77625 261.792187 
" style="fill: none; stroke: #7b2e00; stroke-width: 2; stroke-linecap: square"/>
    </g>
    <g id="line2d_62"/>
    <g id="text_31">
     <!-- T60 -->
     <g transform="translate(367.77625 265.292187) scale(0.1 -0.1)">
      <use xlink:href="#DejaVuSans-54"/>
      <use xlink:href="#DejaVuSans-36" x="61.083984"/>
      <use xlink:href="#DejaVuSans-30" x="124.707031"/>
     </g>
    </g>
    <g id="LineCollection_17">
     <path d="M 349.77625 281.470312 
L 349.77625 271.470312 
" style="fill: none; stroke: #7b2e00"/>
    </g>
    <g id="line2d_63">
     <path d="M 339.77625 276.470312 
L 359.77625 276.470312 
" style="fill: none; stroke-dasharray: 3.7,1.6; stroke-dashoffset: 0; stroke: #7b2e00"/>
    </g>
    <g id="line2d_64">
     <g>
      <use xlink:href="#m292e78e593" x="349.77625" y="276.470312" style="fill: #7b2e00; stroke: #000000; stroke-linejoin: miter"/>
     </g>
    </g>
    <g id="text_32">
     <!-- T60±SD (n=7) -->
     <g transform="translate(367.77625 279.970312) scale(0.1 -0.1)">
      <use xlink:href="#DejaVuSans-54"/>
      <use xlink:href="#DejaVuSans-36" x="61.083984"/>
      <use xlink:href="#DejaVuSans-30" x="124.707031"/>
      <use xlink:href="#DejaVuSans-b1" x="188.330078"/>
      <use xlink:href="#DejaVuSans-53" x="272.119141"/>
      <use xlink:href="#DejaVuSans-44" x="335.595703"/>
      <use xlink:href="#DejaVuSans-20" x="412.597656"/>
      <use xlink:href="#DejaVuSans-28" x="444.384766"/>
      <use xlink:href="#DejaVuSans-6e" x="483.398438"/>
      <use xlink:href="#DejaVuSans-3d" x="546.777344"/>
      <use xlink:href="#DejaVuSans-37" x="630.566406"/>
      <use xlink:href="#DejaVuSans-29" x="694.189453"/>
     </g>
    </g>
    <g id="line2d_65">
     <path d="M 339.77625 291.148437 
L 359.77625 291.148437 
" style="fill: none; stroke: #4c1f00; stroke-width: 2; stroke-linecap: square"/>
    </g>
    <g id="line2d_66"/>
    <g id="text_33">
     <!-- T80 -->
     <g transform="translate(367.77625 294.648437) scale(0.1 -0.1)">
      <use xlink:href="#DejaVuSans-54"/>
      <use xlink:href="#DejaVuSans-38" x="61.083984"/>
      <use xlink:href="#DejaVuSans-30" x="124.707031"/>
     </g>
    </g>
    <g id="LineCollection_18">
     <path d="M 349.77625 310.826562 
L 349.77625 300.826562 
" style="fill: none; stroke: #4c1f00"/>
    </g>
    <g id="line2d_67">
     <path d="M 339.77625 305.826562 
L 359.77625 305.826562 
" style="fill: none; stroke-dasharray: 3.7,1.6; stroke-dashoffset: 0; stroke: #4c1f00"/>
    </g>
    <g id="line2d_68">
     <g>
      <use xlink:href="#m45d6ba4d52" x="349.77625" y="305.826562" style="fill: #4c1f00; stroke: #000000; stroke-linejoin: miter"/>
     </g>
    </g>
    <g id="text_34">
     <!-- T80±SD (n=6) -->
     <g transform="translate(367.77625 309.326562) scale(0.1 -0.1)">
      <use xlink:href="#DejaVuSans-54"/>
      <use xlink:href="#DejaVuSans-38" x="61.083984"/>
      <use xlink:href="#DejaVuSans-30" x="124.707031"/>
      <use xlink:href="#DejaVuSans-b1" x="188.330078"/>
      <use xlink:href="#DejaVuSans-53" x="272.119141"/>
      <use xlink:href="#DejaVuSans-44" x="335.595703"/>
      <use xlink:href="#DejaVuSans-20" x="412.597656"/>
      <use xlink:href="#DejaVuSans-28" x="444.384766"/>
      <use xlink:href="#DejaVuSans-6e" x="483.398438"/>
      <use xlink:href="#DejaVuSans-3d" x="546.777344"/>
      <use xlink:href="#DejaVuSans-36" x="630.566406"/>
      <use xlink:href="#DejaVuSans-29" x="694.189453"/>
     </g>
    </g>
   </g>
  </g>
  <g id="text_35">
   <!-- Kubitza2005a -->
   <g transform="translate(161.530937 26.196094) scale(0.25 -0.25)">
    <defs>
     <path id="DejaVuSans-Bold-4b" d="M 588 4666 
L 1791 4666 
L 1791 2963 
L 3525 4666 
L 4922 4666 
L 2675 2456 
L 5153 0 
L 3647 0 
L 1791 1838 
L 1791 0 
L 588 0 
L 588 4666 
z
" transform="scale(0.015625)"/>
     <path id="DejaVuSans-Bold-75" d="M 500 1363 
L 500 3500 
L 1625 3500 
L 1625 3150 
Q 1625 2866 1622 2436 
Q 1619 2006 1619 1863 
Q 1619 1441 1641 1255 
Q 1663 1069 1716 984 
Q 1784 875 1895 815 
Q 2006 756 2150 756 
Q 2500 756 2700 1025 
Q 2900 1294 2900 1772 
L 2900 3500 
L 4019 3500 
L 4019 0 
L 2900 0 
L 2900 506 
Q 2647 200 2364 54 
Q 2081 -91 1741 -91 
Q 1134 -91 817 281 
Q 500 653 500 1363 
z
" transform="scale(0.015625)"/>
     <path id="DejaVuSans-Bold-7a" d="M 366 3500 
L 3419 3500 
L 3419 2719 
L 1575 800 
L 3419 800 
L 3419 0 
L 288 0 
L 288 781 
L 2131 2700 
L 366 2700 
L 366 3500 
z
" transform="scale(0.015625)"/>
     <path id="DejaVuSans-Bold-32" d="M 1844 884 
L 3897 884 
L 3897 0 
L 506 0 
L 506 884 
L 2209 2388 
Q 2438 2594 2547 2791 
Q 2656 2988 2656 3200 
Q 2656 3528 2436 3728 
Q 2216 3928 1850 3928 
Q 1569 3928 1234 3808 
Q 900 3688 519 3450 
L 519 4475 
Q 925 4609 1322 4679 
Q 1719 4750 2100 4750 
Q 2938 4750 3402 4381 
Q 3866 4013 3866 3353 
Q 3866 2972 3669 2642 
Q 3472 2313 2841 1759 
L 1844 884 
z
" transform="scale(0.015625)"/>
     <path id="DejaVuSans-Bold-30" d="M 2944 2338 
Q 2944 3213 2780 3570 
Q 2616 3928 2228 3928 
Q 1841 3928 1675 3570 
Q 1509 3213 1509 2338 
Q 1509 1453 1675 1090 
Q 1841 728 2228 728 
Q 2613 728 2778 1090 
Q 2944 1453 2944 2338 
z
M 4147 2328 
Q 4147 1169 3647 539 
Q 3147 -91 2228 -91 
Q 1306 -91 806 539 
Q 306 1169 306 2328 
Q 306 3491 806 4120 
Q 1306 4750 2228 4750 
Q 3147 4750 3647 4120 
Q 4147 3491 4147 2328 
z
" transform="scale(0.015625)"/>
     <path id="DejaVuSans-Bold-35" d="M 678 4666 
L 3669 4666 
L 3669 3781 
L 1638 3781 
L 1638 3059 
Q 1775 3097 1914 3117 
Q 2053 3138 2203 3138 
Q 3056 3138 3531 2711 
Q 4006 2284 4006 1522 
Q 4006 766 3489 337 
Q 2972 -91 2053 -91 
Q 1656 -91 1267 -14 
Q 878 63 494 219 
L 494 1166 
Q 875 947 1217 837 
Q 1559 728 1863 728 
Q 2300 728 2551 942 
Q 2803 1156 2803 1522 
Q 2803 1891 2551 2103 
Q 2300 2316 1863 2316 
Q 1603 2316 1309 2248 
Q 1016 2181 678 2041 
L 678 4666 
z
" transform="scale(0.015625)"/>
    </defs>
    <use xlink:href="#DejaVuSans-Bold-4b"/>
    <use xlink:href="#DejaVuSans-Bold-75" x="75.740234"/>
    <use xlink:href="#DejaVuSans-Bold-62" x="146.931641"/>
    <use xlink:href="#DejaVuSans-Bold-69" x="218.513672"/>
    <use xlink:href="#DejaVuSans-Bold-74" x="252.791016"/>
    <use xlink:href="#DejaVuSans-Bold-7a" x="300.59375"/>
    <use xlink:href="#DejaVuSans-Bold-61" x="358.796875"/>
    <use xlink:href="#DejaVuSans-Bold-32" x="426.277344"/>
    <use xlink:href="#DejaVuSans-Bold-30" x="495.857422"/>
    <use xlink:href="#DejaVuSans-Bold-30" x="565.4375"/>
    <use xlink:href="#DejaVuSans-Bold-35" x="635.017578"/>
    <use xlink:href="#DejaVuSans-Bold-61" x="704.597656"/>
   </g>
  </g>
 </g>
 <defs>
  <clipPath id="pf006dfff6e">
   <rect x="69.03875" y="43.2" width="390.6" height="277.2"/>
  </clipPath>
 </defs>
</svg>
