<?xml version="1.0" encoding="utf-8" standalone="no"?>
<!DOCTYPE svg PUBLIC "-//W3C//DTD SVG 1.1//EN"
  "http://www.w3.org/Graphics/SVG/1.1/DTD/svg11.dtd">
<svg xmlns:xlink="http://www.w3.org/1999/xlink" width="469.864531pt" height="683.737812pt" viewBox="0 0 469.864531 683.737812" xmlns="http://www.w3.org/2000/svg" version="1.1">
 <metadata>
  <rdf:RDF xmlns:dc="http://purl.org/dc/elements/1.1/" xmlns:cc="http://creativecommons.org/ns#" xmlns:rdf="http://www.w3.org/1999/02/22-rdf-syntax-ns#">
   <cc:Work>
    <dc:type rdf:resource="http://purl.org/dc/dcmitype/StillImage"/>
    <dc:date>2025-07-19T10:59:02.187382</dc:date>
    <dc:format>image/svg+xml</dc:format>
    <dc:creator>
     <cc:Agent>
      <dc:title>Matplotlib v3.9.1, https://matplotlib.org/</dc:title>
     </cc:Agent>
    </dc:creator>
   </cc:Work>
  </rdf:RDF>
 </metadata>
 <defs>
  <style type="text/css">*{stroke-linejoin: round; stroke-linecap: butt}</style>
 </defs>
 <g id="figure_1">
  <g id="patch_1">
   <path d="M 0 683.737812 
L 469.864531 683.737812 
L 469.864531 0 
L 0 0 
z
" style="fill: #ffffff"/>
  </g>
  <g id="axes_1">
   <g id="patch_2">
    <path d="M 72.064531 320.243478 
L 462.664531 320.243478 
L 462.664531 79.2 
L 72.064531 79.2 
z
" style="fill: #ffffff"/>
   </g>
   <g id="matplotlib.axis_1">
    <g id="xtick_1">
     <g id="line2d_1">
      <defs>
       <path id="m98a57165bd" d="M 0 0 
L 0 3.5 
" style="stroke: #000000; stroke-width: 0.8"/>
      </defs>
      <g>
       <use xlink:href="#m98a57165bd" x="89.819077" y="320.243478" style="stroke: #000000; stroke-width: 0.8"/>
      </g>
     </g>
     <g id="text_1">
      <!-- 0 -->
      <g transform="translate(85.047202 338.641135) scale(0.15 -0.15)">
       <defs>
        <path id="DejaVuSans-30" d="M 2034 4250 
Q 1547 4250 1301 3770 
Q 1056 3291 1056 2328 
Q 1056 1369 1301 889 
Q 1547 409 2034 409 
Q 2525 409 2770 889 
Q 3016 1369 3016 2328 
Q 3016 3291 2770 3770 
Q 2525 4250 2034 4250 
z
M 2034 4750 
Q 2819 4750 3233 4129 
Q 3647 3509 3647 2328 
Q 3647 1150 3233 529 
Q 2819 -91 2034 -91 
Q 1250 -91 836 529 
Q 422 1150 422 2328 
Q 422 3509 836 4129 
Q 1250 4750 2034 4750 
z
" transform="scale(0.015625)"/>
       </defs>
       <use xlink:href="#DejaVuSans-30"/>
      </g>
     </g>
    </g>
    <g id="xtick_2">
     <g id="line2d_2">
      <g>
       <use xlink:href="#m98a57165bd" x="160.837259" y="320.243478" style="stroke: #000000; stroke-width: 0.8"/>
      </g>
     </g>
     <g id="text_2">
      <!-- 10 -->
      <g transform="translate(151.293509 338.641135) scale(0.15 -0.15)">
       <defs>
        <path id="DejaVuSans-31" d="M 794 531 
L 1825 531 
L 1825 4091 
L 703 3866 
L 703 4441 
L 1819 4666 
L 2450 4666 
L 2450 531 
L 3481 531 
L 3481 0 
L 794 0 
L 794 531 
z
" transform="scale(0.015625)"/>
       </defs>
       <use xlink:href="#DejaVuSans-31"/>
       <use xlink:href="#DejaVuSans-30" x="63.623047"/>
      </g>
     </g>
    </g>
    <g id="xtick_3">
     <g id="line2d_3">
      <g>
       <use xlink:href="#m98a57165bd" x="231.85544" y="320.243478" style="stroke: #000000; stroke-width: 0.8"/>
      </g>
     </g>
     <g id="text_3">
      <!-- 20 -->
      <g transform="translate(222.31169 338.641135) scale(0.15 -0.15)">
       <defs>
        <path id="DejaVuSans-32" d="M 1228 531 
L 3431 531 
L 3431 0 
L 469 0 
L 469 531 
Q 828 903 1448 1529 
Q 2069 2156 2228 2338 
Q 2531 2678 2651 2914 
Q 2772 3150 2772 3378 
Q 2772 3750 2511 3984 
Q 2250 4219 1831 4219 
Q 1534 4219 1204 4116 
Q 875 4013 500 3803 
L 500 4441 
Q 881 4594 1212 4672 
Q 1544 4750 1819 4750 
Q 2544 4750 2975 4387 
Q 3406 4025 3406 3419 
Q 3406 3131 3298 2873 
Q 3191 2616 2906 2266 
Q 2828 2175 2409 1742 
Q 1991 1309 1228 531 
z
" transform="scale(0.015625)"/>
       </defs>
       <use xlink:href="#DejaVuSans-32"/>
       <use xlink:href="#DejaVuSans-30" x="63.623047"/>
      </g>
     </g>
    </g>
    <g id="xtick_4">
     <g id="line2d_4">
      <g>
       <use xlink:href="#m98a57165bd" x="302.873622" y="320.243478" style="stroke: #000000; stroke-width: 0.8"/>
      </g>
     </g>
     <g id="text_4">
      <!-- 30 -->
      <g transform="translate(293.329872 338.641135) scale(0.15 -0.15)">
       <defs>
        <path id="DejaVuSans-33" d="M 2597 2516 
Q 3050 2419 3304 2112 
Q 3559 1806 3559 1356 
Q 3559 666 3084 287 
Q 2609 -91 1734 -91 
Q 1441 -91 1130 -33 
Q 819 25 488 141 
L 488 750 
Q 750 597 1062 519 
Q 1375 441 1716 441 
Q 2309 441 2620 675 
Q 2931 909 2931 1356 
Q 2931 1769 2642 2001 
Q 2353 2234 1838 2234 
L 1294 2234 
L 1294 2753 
L 1863 2753 
Q 2328 2753 2575 2939 
Q 2822 3125 2822 3475 
Q 2822 3834 2567 4026 
Q 2313 4219 1838 4219 
Q 1578 4219 1281 4162 
Q 984 4106 628 3988 
L 628 4550 
Q 988 4650 1302 4700 
Q 1616 4750 1894 4750 
Q 2613 4750 3031 4423 
Q 3450 4097 3450 3541 
Q 3450 3153 3228 2886 
Q 3006 2619 2597 2516 
z
" transform="scale(0.015625)"/>
       </defs>
       <use xlink:href="#DejaVuSans-33"/>
       <use xlink:href="#DejaVuSans-30" x="63.623047"/>
      </g>
     </g>
    </g>
    <g id="xtick_5">
     <g id="line2d_5">
      <g>
       <use xlink:href="#m98a57165bd" x="373.891804" y="320.243478" style="stroke: #000000; stroke-width: 0.8"/>
      </g>
     </g>
     <g id="text_5">
      <!-- 40 -->
      <g transform="translate(364.348054 338.641135) scale(0.15 -0.15)">
       <defs>
        <path id="DejaVuSans-34" d="M 2419 4116 
L 825 1625 
L 2419 1625 
L 2419 4116 
z
M 2253 4666 
L 3047 4666 
L 3047 1625 
L 3713 1625 
L 3713 1100 
L 3047 1100 
L 3047 0 
L 2419 0 
L 2419 1100 
L 313 1100 
L 313 1709 
L 2253 4666 
z
" transform="scale(0.015625)"/>
       </defs>
       <use xlink:href="#DejaVuSans-34"/>
       <use xlink:href="#DejaVuSans-30" x="63.623047"/>
      </g>
     </g>
    </g>
    <g id="xtick_6">
     <g id="line2d_6">
      <g>
       <use xlink:href="#m98a57165bd" x="444.909986" y="320.243478" style="stroke: #000000; stroke-width: 0.8"/>
      </g>
     </g>
     <g id="text_6">
      <!-- 50 -->
      <g transform="translate(435.366236 338.641135) scale(0.15 -0.15)">
       <defs>
        <path id="DejaVuSans-35" d="M 691 4666 
L 3169 4666 
L 3169 4134 
L 1269 4134 
L 1269 2991 
Q 1406 3038 1543 3061 
Q 1681 3084 1819 3084 
Q 2600 3084 3056 2656 
Q 3513 2228 3513 1497 
Q 3513 744 3044 326 
Q 2575 -91 1722 -91 
Q 1428 -91 1123 -41 
Q 819 9 494 109 
L 494 744 
Q 775 591 1075 516 
Q 1375 441 1709 441 
Q 2250 441 2565 725 
Q 2881 1009 2881 1497 
Q 2881 1984 2565 2268 
Q 2250 2553 1709 2553 
Q 1456 2553 1204 2497 
Q 953 2441 691 2322 
L 691 4666 
z
" transform="scale(0.015625)"/>
       </defs>
       <use xlink:href="#DejaVuSans-35"/>
       <use xlink:href="#DejaVuSans-30" x="63.623047"/>
      </g>
     </g>
    </g>
    <g id="text_7">
     <!-- time [hr] -->
     <g transform="translate(222.29 359.437853) scale(0.18 -0.18)">
      <defs>
       <path id="DejaVuSans-Bold-74" d="M 1759 4494 
L 1759 3500 
L 2913 3500 
L 2913 2700 
L 1759 2700 
L 1759 1216 
Q 1759 972 1856 886 
Q 1953 800 2241 800 
L 2816 800 
L 2816 0 
L 1856 0 
Q 1194 0 917 276 
Q 641 553 641 1216 
L 641 2700 
L 84 2700 
L 84 3500 
L 641 3500 
L 641 4494 
L 1759 4494 
z
" transform="scale(0.015625)"/>
       <path id="DejaVuSans-Bold-69" d="M 538 3500 
L 1656 3500 
L 1656 0 
L 538 0 
L 538 3500 
z
M 538 4863 
L 1656 4863 
L 1656 3950 
L 538 3950 
L 538 4863 
z
" transform="scale(0.015625)"/>
       <path id="DejaVuSans-Bold-6d" d="M 3781 2919 
Q 3994 3244 4286 3414 
Q 4578 3584 4928 3584 
Q 5531 3584 5847 3212 
Q 6163 2841 6163 2131 
L 6163 0 
L 5038 0 
L 5038 1825 
Q 5041 1866 5042 1909 
Q 5044 1953 5044 2034 
Q 5044 2406 4934 2573 
Q 4825 2741 4581 2741 
Q 4263 2741 4089 2478 
Q 3916 2216 3909 1719 
L 3909 0 
L 2784 0 
L 2784 1825 
Q 2784 2406 2684 2573 
Q 2584 2741 2328 2741 
Q 2006 2741 1831 2477 
Q 1656 2213 1656 1722 
L 1656 0 
L 531 0 
L 531 3500 
L 1656 3500 
L 1656 2988 
Q 1863 3284 2130 3434 
Q 2397 3584 2719 3584 
Q 3081 3584 3359 3409 
Q 3638 3234 3781 2919 
z
" transform="scale(0.015625)"/>
       <path id="DejaVuSans-Bold-65" d="M 4031 1759 
L 4031 1441 
L 1416 1441 
Q 1456 1047 1700 850 
Q 1944 653 2381 653 
Q 2734 653 3104 758 
Q 3475 863 3866 1075 
L 3866 213 
Q 3469 63 3072 -14 
Q 2675 -91 2278 -91 
Q 1328 -91 801 392 
Q 275 875 275 1747 
Q 275 2603 792 3093 
Q 1309 3584 2216 3584 
Q 3041 3584 3536 3087 
Q 4031 2591 4031 1759 
z
M 2881 2131 
Q 2881 2450 2695 2645 
Q 2509 2841 2209 2841 
Q 1884 2841 1681 2658 
Q 1478 2475 1428 2131 
L 2881 2131 
z
" transform="scale(0.015625)"/>
       <path id="DejaVuSans-Bold-20" transform="scale(0.015625)"/>
       <path id="DejaVuSans-Bold-5b" d="M 550 4863 
L 2491 4863 
L 2491 4159 
L 1613 4159 
L 1613 -141 
L 2491 -141 
L 2491 -844 
L 550 -844 
L 550 4863 
z
" transform="scale(0.015625)"/>
       <path id="DejaVuSans-Bold-68" d="M 4056 2131 
L 4056 0 
L 2931 0 
L 2931 347 
L 2931 1625 
Q 2931 2084 2911 2256 
Q 2891 2428 2841 2509 
Q 2775 2619 2662 2680 
Q 2550 2741 2406 2741 
Q 2056 2741 1856 2470 
Q 1656 2200 1656 1722 
L 1656 0 
L 538 0 
L 538 4863 
L 1656 4863 
L 1656 2988 
Q 1909 3294 2193 3439 
Q 2478 3584 2822 3584 
Q 3428 3584 3742 3212 
Q 4056 2841 4056 2131 
z
" transform="scale(0.015625)"/>
       <path id="DejaVuSans-Bold-72" d="M 3138 2547 
Q 2991 2616 2845 2648 
Q 2700 2681 2553 2681 
Q 2122 2681 1889 2404 
Q 1656 2128 1656 1613 
L 1656 0 
L 538 0 
L 538 3500 
L 1656 3500 
L 1656 2925 
Q 1872 3269 2151 3426 
Q 2431 3584 2822 3584 
Q 2878 3584 2943 3579 
Q 3009 3575 3134 3559 
L 3138 2547 
z
" transform="scale(0.015625)"/>
       <path id="DejaVuSans-Bold-5d" d="M 2375 -844 
L 434 -844 
L 434 -141 
L 1313 -141 
L 1313 4159 
L 434 4159 
L 434 4863 
L 2375 4863 
L 2375 -844 
z
" transform="scale(0.015625)"/>
      </defs>
      <use xlink:href="#DejaVuSans-Bold-74"/>
      <use xlink:href="#DejaVuSans-Bold-69" x="47.802734"/>
      <use xlink:href="#DejaVuSans-Bold-6d" x="82.080078"/>
      <use xlink:href="#DejaVuSans-Bold-65" x="186.279297"/>
      <use xlink:href="#DejaVuSans-Bold-20" x="254.101562"/>
      <use xlink:href="#DejaVuSans-Bold-5b" x="288.916016"/>
      <use xlink:href="#DejaVuSans-Bold-68" x="334.619141"/>
      <use xlink:href="#DejaVuSans-Bold-72" x="405.810547"/>
      <use xlink:href="#DejaVuSans-Bold-5d" x="455.126953"/>
     </g>
    </g>
   </g>
   <g id="matplotlib.axis_2">
    <g id="ytick_1">
     <g id="line2d_7">
      <defs>
       <path id="me8e612f049" d="M 0 0 
L -3.5 0 
" style="stroke: #000000; stroke-width: 0.8"/>
      </defs>
      <g>
       <use xlink:href="#me8e612f049" x="72.064531" y="282.776035" style="stroke: #000000; stroke-width: 0.8"/>
      </g>
     </g>
     <g id="text_8">
      <!-- 0.0 -->
      <g transform="translate(41.209844 288.474863) scale(0.15 -0.15)">
       <defs>
        <path id="DejaVuSans-2e" d="M 684 794 
L 1344 794 
L 1344 0 
L 684 0 
L 684 794 
z
" transform="scale(0.015625)"/>
       </defs>
       <use xlink:href="#DejaVuSans-30"/>
       <use xlink:href="#DejaVuSans-2e" x="63.623047"/>
       <use xlink:href="#DejaVuSans-30" x="95.410156"/>
      </g>
     </g>
    </g>
    <g id="ytick_2">
     <g id="line2d_8">
      <g>
       <use xlink:href="#me8e612f049" x="72.064531" y="236.8896" style="stroke: #000000; stroke-width: 0.8"/>
      </g>
     </g>
     <g id="text_9">
      <!-- 0.2 -->
      <g transform="translate(41.209844 242.588428) scale(0.15 -0.15)">
       <use xlink:href="#DejaVuSans-30"/>
       <use xlink:href="#DejaVuSans-2e" x="63.623047"/>
       <use xlink:href="#DejaVuSans-32" x="95.410156"/>
      </g>
     </g>
    </g>
    <g id="ytick_3">
     <g id="line2d_9">
      <g>
       <use xlink:href="#me8e612f049" x="72.064531" y="191.003165" style="stroke: #000000; stroke-width: 0.8"/>
      </g>
     </g>
     <g id="text_10">
      <!-- 0.4 -->
      <g transform="translate(41.209844 196.701993) scale(0.15 -0.15)">
       <use xlink:href="#DejaVuSans-30"/>
       <use xlink:href="#DejaVuSans-2e" x="63.623047"/>
       <use xlink:href="#DejaVuSans-34" x="95.410156"/>
      </g>
     </g>
    </g>
    <g id="ytick_4">
     <g id="line2d_10">
      <g>
       <use xlink:href="#me8e612f049" x="72.064531" y="145.11673" style="stroke: #000000; stroke-width: 0.8"/>
      </g>
     </g>
     <g id="text_11">
      <!-- 0.6 -->
      <g transform="translate(41.209844 150.815558) scale(0.15 -0.15)">
       <defs>
        <path id="DejaVuSans-36" d="M 2113 2584 
Q 1688 2584 1439 2293 
Q 1191 2003 1191 1497 
Q 1191 994 1439 701 
Q 1688 409 2113 409 
Q 2538 409 2786 701 
Q 3034 994 3034 1497 
Q 3034 2003 2786 2293 
Q 2538 2584 2113 2584 
z
M 3366 4563 
L 3366 3988 
Q 3128 4100 2886 4159 
Q 2644 4219 2406 4219 
Q 1781 4219 1451 3797 
Q 1122 3375 1075 2522 
Q 1259 2794 1537 2939 
Q 1816 3084 2150 3084 
Q 2853 3084 3261 2657 
Q 3669 2231 3669 1497 
Q 3669 778 3244 343 
Q 2819 -91 2113 -91 
Q 1303 -91 875 529 
Q 447 1150 447 2328 
Q 447 3434 972 4092 
Q 1497 4750 2381 4750 
Q 2619 4750 2861 4703 
Q 3103 4656 3366 4563 
z
" transform="scale(0.015625)"/>
       </defs>
       <use xlink:href="#DejaVuSans-30"/>
       <use xlink:href="#DejaVuSans-2e" x="63.623047"/>
       <use xlink:href="#DejaVuSans-36" x="95.410156"/>
      </g>
     </g>
    </g>
    <g id="ytick_5">
     <g id="line2d_11">
      <g>
       <use xlink:href="#me8e612f049" x="72.064531" y="99.230295" style="stroke: #000000; stroke-width: 0.8"/>
      </g>
     </g>
     <g id="text_12">
      <!-- 0.8 -->
      <g transform="translate(41.209844 104.929123) scale(0.15 -0.15)">
       <defs>
        <path id="DejaVuSans-38" d="M 2034 2216 
Q 1584 2216 1326 1975 
Q 1069 1734 1069 1313 
Q 1069 891 1326 650 
Q 1584 409 2034 409 
Q 2484 409 2743 651 
Q 3003 894 3003 1313 
Q 3003 1734 2745 1975 
Q 2488 2216 2034 2216 
z
M 1403 2484 
Q 997 2584 770 2862 
Q 544 3141 544 3541 
Q 544 4100 942 4425 
Q 1341 4750 2034 4750 
Q 2731 4750 3128 4425 
Q 3525 4100 3525 3541 
Q 3525 3141 3298 2862 
Q 3072 2584 2669 2484 
Q 3125 2378 3379 2068 
Q 3634 1759 3634 1313 
Q 3634 634 3220 271 
Q 2806 -91 2034 -91 
Q 1263 -91 848 271 
Q 434 634 434 1313 
Q 434 1759 690 2068 
Q 947 2378 1403 2484 
z
M 1172 3481 
Q 1172 3119 1398 2916 
Q 1625 2713 2034 2713 
Q 2441 2713 2670 2916 
Q 2900 3119 2900 3481 
Q 2900 3844 2670 4047 
Q 2441 4250 2034 4250 
Q 1625 4250 1398 4047 
Q 1172 3844 1172 3481 
z
" transform="scale(0.015625)"/>
       </defs>
       <use xlink:href="#DejaVuSans-30"/>
       <use xlink:href="#DejaVuSans-2e" x="63.623047"/>
       <use xlink:href="#DejaVuSans-38" x="95.410156"/>
      </g>
     </g>
    </g>
    <g id="text_13">
     <!-- rivaroxaban plasma [µM] -->
     <g transform="translate(33.446719 327.088614) rotate(-90) scale(0.18 -0.18)">
      <defs>
       <path id="DejaVuSans-Bold-76" d="M 97 3500 
L 1216 3500 
L 2088 1081 
L 2956 3500 
L 4078 3500 
L 2700 0 
L 1472 0 
L 97 3500 
z
" transform="scale(0.015625)"/>
       <path id="DejaVuSans-Bold-61" d="M 2106 1575 
Q 1756 1575 1579 1456 
Q 1403 1338 1403 1106 
Q 1403 894 1545 773 
Q 1688 653 1941 653 
Q 2256 653 2472 879 
Q 2688 1106 2688 1447 
L 2688 1575 
L 2106 1575 
z
M 3816 1997 
L 3816 0 
L 2688 0 
L 2688 519 
Q 2463 200 2181 54 
Q 1900 -91 1497 -91 
Q 953 -91 614 226 
Q 275 544 275 1050 
Q 275 1666 698 1953 
Q 1122 2241 2028 2241 
L 2688 2241 
L 2688 2328 
Q 2688 2594 2478 2717 
Q 2269 2841 1825 2841 
Q 1466 2841 1156 2769 
Q 847 2697 581 2553 
L 581 3406 
Q 941 3494 1303 3539 
Q 1666 3584 2028 3584 
Q 2975 3584 3395 3211 
Q 3816 2838 3816 1997 
z
" transform="scale(0.015625)"/>
       <path id="DejaVuSans-Bold-6f" d="M 2203 2784 
Q 1831 2784 1636 2517 
Q 1441 2250 1441 1747 
Q 1441 1244 1636 976 
Q 1831 709 2203 709 
Q 2569 709 2762 976 
Q 2956 1244 2956 1747 
Q 2956 2250 2762 2517 
Q 2569 2784 2203 2784 
z
M 2203 3584 
Q 3106 3584 3614 3096 
Q 4122 2609 4122 1747 
Q 4122 884 3614 396 
Q 3106 -91 2203 -91 
Q 1297 -91 786 396 
Q 275 884 275 1747 
Q 275 2609 786 3096 
Q 1297 3584 2203 3584 
z
" transform="scale(0.015625)"/>
       <path id="DejaVuSans-Bold-78" d="M 1422 1791 
L 159 3500 
L 1344 3500 
L 2059 2463 
L 2784 3500 
L 3969 3500 
L 2706 1797 
L 4031 0 
L 2847 0 
L 2059 1106 
L 1281 0 
L 97 0 
L 1422 1791 
z
" transform="scale(0.015625)"/>
       <path id="DejaVuSans-Bold-62" d="M 2400 722 
Q 2759 722 2948 984 
Q 3138 1247 3138 1747 
Q 3138 2247 2948 2509 
Q 2759 2772 2400 2772 
Q 2041 2772 1848 2508 
Q 1656 2244 1656 1747 
Q 1656 1250 1848 986 
Q 2041 722 2400 722 
z
M 1656 2988 
Q 1888 3294 2169 3439 
Q 2450 3584 2816 3584 
Q 3463 3584 3878 3070 
Q 4294 2556 4294 1747 
Q 4294 938 3878 423 
Q 3463 -91 2816 -91 
Q 2450 -91 2169 54 
Q 1888 200 1656 506 
L 1656 0 
L 538 0 
L 538 4863 
L 1656 4863 
L 1656 2988 
z
" transform="scale(0.015625)"/>
       <path id="DejaVuSans-Bold-6e" d="M 4056 2131 
L 4056 0 
L 2931 0 
L 2931 347 
L 2931 1631 
Q 2931 2084 2911 2256 
Q 2891 2428 2841 2509 
Q 2775 2619 2662 2680 
Q 2550 2741 2406 2741 
Q 2056 2741 1856 2470 
Q 1656 2200 1656 1722 
L 1656 0 
L 538 0 
L 538 3500 
L 1656 3500 
L 1656 2988 
Q 1909 3294 2193 3439 
Q 2478 3584 2822 3584 
Q 3428 3584 3742 3212 
Q 4056 2841 4056 2131 
z
" transform="scale(0.015625)"/>
       <path id="DejaVuSans-Bold-70" d="M 1656 506 
L 1656 -1331 
L 538 -1331 
L 538 3500 
L 1656 3500 
L 1656 2988 
Q 1888 3294 2169 3439 
Q 2450 3584 2816 3584 
Q 3463 3584 3878 3070 
Q 4294 2556 4294 1747 
Q 4294 938 3878 423 
Q 3463 -91 2816 -91 
Q 2450 -91 2169 54 
Q 1888 200 1656 506 
z
M 2400 2772 
Q 2041 2772 1848 2508 
Q 1656 2244 1656 1747 
Q 1656 1250 1848 986 
Q 2041 722 2400 722 
Q 2759 722 2948 984 
Q 3138 1247 3138 1747 
Q 3138 2247 2948 2509 
Q 2759 2772 2400 2772 
z
" transform="scale(0.015625)"/>
       <path id="DejaVuSans-Bold-6c" d="M 538 4863 
L 1656 4863 
L 1656 0 
L 538 0 
L 538 4863 
z
" transform="scale(0.015625)"/>
       <path id="DejaVuSans-Bold-73" d="M 3272 3391 
L 3272 2541 
Q 2913 2691 2578 2766 
Q 2244 2841 1947 2841 
Q 1628 2841 1473 2761 
Q 1319 2681 1319 2516 
Q 1319 2381 1436 2309 
Q 1553 2238 1856 2203 
L 2053 2175 
Q 2913 2066 3209 1816 
Q 3506 1566 3506 1031 
Q 3506 472 3093 190 
Q 2681 -91 1863 -91 
Q 1516 -91 1145 -36 
Q 775 19 384 128 
L 384 978 
Q 719 816 1070 734 
Q 1422 653 1784 653 
Q 2113 653 2278 743 
Q 2444 834 2444 1013 
Q 2444 1163 2330 1236 
Q 2216 1309 1875 1350 
L 1678 1375 
Q 931 1469 631 1722 
Q 331 1975 331 2491 
Q 331 3047 712 3315 
Q 1094 3584 1881 3584 
Q 2191 3584 2531 3537 
Q 2872 3491 3272 3391 
z
" transform="scale(0.015625)"/>
       <path id="DejaVuSans-Bold-b5" d="M 544 -1338 
L 544 3500 
L 1672 3500 
L 1672 1466 
Q 1672 1103 1828 926 
Q 1984 750 2303 750 
Q 2625 750 2781 926 
Q 2938 1103 2938 1466 
L 2938 3500 
L 4063 3500 
L 4063 1159 
Q 4063 938 4114 850 
Q 4166 763 4288 763 
Q 4344 763 4395 778 
Q 4447 794 4506 831 
L 4506 50 
Q 4341 -22 4195 -56 
Q 4050 -91 3909 -91 
Q 3631 -91 3454 26 
Q 3278 144 3169 403 
Q 3022 156 2811 32 
Q 2600 -91 2322 -91 
Q 2091 -91 1928 -17 
Q 1766 56 1672 206 
L 1672 -1338 
L 544 -1338 
z
" transform="scale(0.015625)"/>
       <path id="DejaVuSans-Bold-4d" d="M 588 4666 
L 2119 4666 
L 3181 2169 
L 4250 4666 
L 5778 4666 
L 5778 0 
L 4641 0 
L 4641 3413 
L 3566 897 
L 2803 897 
L 1728 3413 
L 1728 0 
L 588 0 
L 588 4666 
z
" transform="scale(0.015625)"/>
      </defs>
      <use xlink:href="#DejaVuSans-Bold-72"/>
      <use xlink:href="#DejaVuSans-Bold-69" x="49.316406"/>
      <use xlink:href="#DejaVuSans-Bold-76" x="83.59375"/>
      <use xlink:href="#DejaVuSans-Bold-61" x="148.779297"/>
      <use xlink:href="#DejaVuSans-Bold-72" x="216.259766"/>
      <use xlink:href="#DejaVuSans-Bold-6f" x="265.576172"/>
      <use xlink:href="#DejaVuSans-Bold-78" x="334.277344"/>
      <use xlink:href="#DejaVuSans-Bold-61" x="398.779297"/>
      <use xlink:href="#DejaVuSans-Bold-62" x="466.259766"/>
      <use xlink:href="#DejaVuSans-Bold-61" x="537.841797"/>
      <use xlink:href="#DejaVuSans-Bold-6e" x="605.322266"/>
      <use xlink:href="#DejaVuSans-Bold-20" x="676.513672"/>
      <use xlink:href="#DejaVuSans-Bold-70" x="711.328125"/>
      <use xlink:href="#DejaVuSans-Bold-6c" x="782.910156"/>
      <use xlink:href="#DejaVuSans-Bold-61" x="817.1875"/>
      <use xlink:href="#DejaVuSans-Bold-73" x="884.667969"/>
      <use xlink:href="#DejaVuSans-Bold-6d" x="944.189453"/>
      <use xlink:href="#DejaVuSans-Bold-61" x="1048.388672"/>
      <use xlink:href="#DejaVuSans-Bold-20" x="1115.869141"/>
      <use xlink:href="#DejaVuSans-Bold-5b" x="1150.683594"/>
      <use xlink:href="#DejaVuSans-Bold-b5" x="1196.386719"/>
      <use xlink:href="#DejaVuSans-Bold-4d" x="1269.970703"/>
      <use xlink:href="#DejaVuSans-Bold-5d" x="1369.482422"/>
     </g>
    </g>
   </g>
   <g id="LineCollection_1">
    <path d="M 91.831398 295.247782 
L 91.831398 230.526168 
" clip-path="url(#pfc3930f0c5)" style="fill: none; stroke: #ffd580"/>
    <path d="M 93.642488 242.608935 
L 93.642488 209.855465 
" clip-path="url(#pfc3930f0c5)" style="fill: none; stroke: #ffd580"/>
    <path d="M 95.453577 253.520621 
L 95.453577 204.394099 
" clip-path="url(#pfc3930f0c5)" style="fill: none; stroke: #ffd580"/>
    <path d="M 97.667131 261.311722 
L 97.667131 210.629282 
" clip-path="url(#pfc3930f0c5)" style="fill: none; stroke: #ffd580"/>
    <path d="M 100.886845 253.50635 
L 100.886845 231.676535 
" clip-path="url(#pfc3930f0c5)" style="fill: none; stroke: #ffd580"/>
    <path d="M 104.509024 262.466693 
L 104.509024 229.717826 
" clip-path="url(#pfc3930f0c5)" style="fill: none; stroke: #ffd580"/>
    <path d="M 107.527506 258.172265 
L 107.527506 242.576252 
" clip-path="url(#pfc3930f0c5)" style="fill: none; stroke: #ffd580"/>
    <path d="M 111.350917 262.452422 
L 111.350917 244.517007 
" clip-path="url(#pfc3930f0c5)" style="fill: none; stroke: #ffd580"/>
    <path d="M 118.394043 268.675177 
L 118.394043 245.280236 
" clip-path="url(#pfc3930f0c5)" style="fill: none; stroke: #ffd580"/>
    <path d="M 132.681526 279.558782 
L 132.681526 259.284885 
" clip-path="url(#pfc3930f0c5)" style="fill: none; stroke: #ffd580"/>
    <path d="M 146.969009 283.425102 
L 146.969009 263.151205 
" clip-path="url(#pfc3930f0c5)" style="fill: none; stroke: #ffd580"/>
    <path d="M 175.141511 287.259199 
L 175.141511 267.766023 
" clip-path="url(#pfc3930f0c5)" style="fill: none; stroke: #ffd580"/>
    <path d="M 196.673352 289.160826 
L 196.673352 271.22449 
" clip-path="url(#pfc3930f0c5)" style="fill: none; stroke: #ffd580"/>
   </g>
   <g id="LineCollection_2">
    <path d="M 91.227702 309.286957 
L 91.227702 160.344107 
" clip-path="url(#pfc3930f0c5)" style="fill: none; stroke: #ffb347"/>
    <path d="M 93.84372 257.813667 
L 93.84372 90.156522 
" clip-path="url(#pfc3930f0c5)" style="fill: none; stroke: #ffb347"/>
    <path d="M 95.453577 188.407264 
L 95.453577 147.858549 
" clip-path="url(#pfc3930f0c5)" style="fill: none; stroke: #ffb347"/>
    <path d="M 97.063434 204.389495 
L 97.063434 158.382176 
" clip-path="url(#pfc3930f0c5)" style="fill: none; stroke: #ffb347"/>
    <path d="M 98.673292 212.57418 
L 98.673292 170.464943 
" clip-path="url(#pfc3930f0c5)" style="fill: none; stroke: #ffb347"/>
    <path d="M 100.685613 212.179676 
L 100.685613 180.987649 
" clip-path="url(#pfc3930f0c5)" style="fill: none; stroke: #ffb347"/>
    <path d="M 103.704095 219.192359 
L 103.704095 192.676374 
" clip-path="url(#pfc3930f0c5)" style="fill: none; stroke: #ffb347"/>
    <path d="M 107.527506 226.980698 
L 107.527506 196.567551 
" clip-path="url(#pfc3930f0c5)" style="fill: none; stroke: #ffb347"/>
    <path d="M 110.948453 234.7718 
L 110.948453 205.136612 
" clip-path="url(#pfc3930f0c5)" style="fill: none; stroke: #ffb347"/>
    <path d="M 118.192811 254.639685 
L 118.192811 209.409405 
" clip-path="url(#pfc3930f0c5)" style="fill: none; stroke: #ffb347"/>
    <path d="M 132.480294 262.013727 
L 132.480294 247.198435 
" clip-path="url(#pfc3930f0c5)" style="fill: none; stroke: #ffb347"/>
    <path d="M 146.969009 270.168951 
L 146.969009 257.69214 
" clip-path="url(#pfc3930f0c5)" style="fill: none; stroke: #ffb347"/>
    <path d="M 174.940279 283.751937 
L 174.940279 264.255999 
" clip-path="url(#pfc3930f0c5)" style="fill: none; stroke: #ffb347"/>
    <path d="M 196.47212 285.652183 
L 196.47212 270.83505 
" clip-path="url(#pfc3930f0c5)" style="fill: none; stroke: #ffb347"/>
   </g>
   <g id="line2d_12">
    <path d="M 89.819077 282.776035 
L 90.529259 282.276398 
L 91.23944 280.849438 
L 92.659804 276.64553 
L 94.790349 269.912601 
L 96.210713 266.129609 
L 97.631077 263.120966 
L 99.05144 260.85663 
L 100.471804 259.24094 
L 101.892168 258.16163 
L 103.312531 257.511777 
L 104.732895 257.198261 
L 106.153259 257.14375 
L 107.573622 257.285821 
L 109.704168 257.762264 
L 112.544895 258.708032 
L 116.805986 260.440361 
L 127.458713 264.89456 
L 133.140168 267.003827 
L 138.821622 268.882552 
L 144.503077 270.543839 
L 150.894713 272.179081 
L 157.286349 273.596575 
L 164.388168 274.950616 
L 172.200168 276.210641 
L 180.722349 277.355024 
L 189.954713 278.370816 
L 200.60744 279.308739 
L 212.680531 280.132709 
L 226.173986 280.824182 
L 242.508168 281.423912 
L 261.683077 281.897299 
L 286.53944 282.273408 
L 319.917986 282.53865 
L 371.761259 282.702001 
L 444.909986 282.761731 
L 444.909986 282.761731 
" clip-path="url(#pfc3930f0c5)" style="fill: none; stroke: #ffd580; stroke-width: 2; stroke-linecap: square"/>
   </g>
   <g id="line2d_13">
    <path d="M 91.831398 262.886975 
L 93.642488 226.2322 
L 95.453577 228.95736 
L 97.667131 235.970502 
L 100.886845 242.591442 
L 104.509024 246.09226 
L 107.527506 250.374258 
L 111.350917 253.484715 
L 118.394043 256.977706 
L 132.681526 269.421833 
L 146.969009 273.288153 
L 175.141511 277.512611 
L 196.673352 280.192658 
" clip-path="url(#pfc3930f0c5)" style="fill: none; stroke-dasharray: 3.7,1.6; stroke-dashoffset: 0; stroke: #ffd580"/>
    <defs>
     <path id="m739b5237b6" d="M -3 3 
L 3 3 
L 3 -3 
L -3 -3 
z
" style="stroke: #000000; stroke-linejoin: miter"/>
    </defs>
    <g clip-path="url(#pfc3930f0c5)">
     <use xlink:href="#m739b5237b6" x="91.831398" y="262.886975" style="fill: #ffd580; stroke: #000000; stroke-linejoin: miter"/>
     <use xlink:href="#m739b5237b6" x="93.642488" y="226.2322" style="fill: #ffd580; stroke: #000000; stroke-linejoin: miter"/>
     <use xlink:href="#m739b5237b6" x="95.453577" y="228.95736" style="fill: #ffd580; stroke: #000000; stroke-linejoin: miter"/>
     <use xlink:href="#m739b5237b6" x="97.667131" y="235.970502" style="fill: #ffd580; stroke: #000000; stroke-linejoin: miter"/>
     <use xlink:href="#m739b5237b6" x="100.886845" y="242.591442" style="fill: #ffd580; stroke: #000000; stroke-linejoin: miter"/>
     <use xlink:href="#m739b5237b6" x="104.509024" y="246.09226" style="fill: #ffd580; stroke: #000000; stroke-linejoin: miter"/>
     <use xlink:href="#m739b5237b6" x="107.527506" y="250.374258" style="fill: #ffd580; stroke: #000000; stroke-linejoin: miter"/>
     <use xlink:href="#m739b5237b6" x="111.350917" y="253.484715" style="fill: #ffd580; stroke: #000000; stroke-linejoin: miter"/>
     <use xlink:href="#m739b5237b6" x="118.394043" y="256.977706" style="fill: #ffd580; stroke: #000000; stroke-linejoin: miter"/>
     <use xlink:href="#m739b5237b6" x="132.681526" y="269.421833" style="fill: #ffd580; stroke: #000000; stroke-linejoin: miter"/>
     <use xlink:href="#m739b5237b6" x="146.969009" y="273.288153" style="fill: #ffd580; stroke: #000000; stroke-linejoin: miter"/>
     <use xlink:href="#m739b5237b6" x="175.141511" y="277.512611" style="fill: #ffd580; stroke: #000000; stroke-linejoin: miter"/>
     <use xlink:href="#m739b5237b6" x="196.673352" y="280.192658" style="fill: #ffd580; stroke: #000000; stroke-linejoin: miter"/>
    </g>
   </g>
   <g id="line2d_14">
    <path d="M 89.819077 282.776035 
L 90.529259 281.77676 
L 91.23944 278.92284 
L 92.659804 270.515026 
L 94.790349 257.049168 
L 96.210713 249.483183 
L 97.631077 243.465897 
L 99.05144 238.937224 
L 100.471804 235.705844 
L 101.181986 234.506341 
L 101.892168 233.547224 
L 102.602349 232.802382 
L 103.312531 232.247519 
L 104.022713 231.860322 
L 104.732895 231.620487 
L 105.443077 231.509685 
L 106.86344 231.61113 
L 108.283804 232.053297 
L 109.704168 232.748493 
L 111.834713 234.120517 
L 114.67544 236.31834 
L 120.356895 241.154047 
L 126.038349 245.887691 
L 130.29944 249.180194 
L 134.560531 252.213695 
L 138.821622 254.989068 
L 143.082713 257.519556 
L 147.343804 259.822838 
L 152.315077 262.247662 
L 157.286349 264.417115 
L 162.257622 266.357615 
L 167.939077 268.325617 
L 173.620531 270.057781 
L 180.012168 271.759575 
L 186.403804 273.233664 
L 193.505622 274.64139 
L 201.317622 275.951248 
L 209.839804 277.140854 
L 219.072168 278.196781 
L 229.014713 279.113769 
L 240.377622 279.939151 
L 253.160895 280.647555 
L 268.784895 281.277832 
L 287.249622 281.786698 
L 309.97544 282.182389 
L 340.513259 282.47718 
L 385.254713 282.6667 
L 444.909986 282.747427 
L 444.909986 282.747427 
" clip-path="url(#pfc3930f0c5)" style="fill: none; stroke: #ffb347; stroke-width: 2; stroke-linecap: square"/>
   </g>
   <g id="line2d_15">
    <path d="M 91.227702 234.815532 
L 93.84372 173.985094 
L 95.453577 168.132907 
L 97.063434 181.385836 
L 98.673292 191.519562 
L 100.685613 196.583663 
L 103.704095 205.934366 
L 107.527506 211.774125 
L 110.948453 219.954206 
L 118.192811 232.024545 
L 132.480294 254.606081 
L 146.969009 263.930545 
L 174.940279 274.003968 
L 196.47212 278.243616 
" clip-path="url(#pfc3930f0c5)" style="fill: none; stroke-dasharray: 3.7,1.6; stroke-dashoffset: 0; stroke: #ffb347"/>
    <defs>
     <path id="mf6b14e3e1f" d="M -3 3 
L 3 3 
L 3 -3 
L -3 -3 
z
" style="stroke: #000000; stroke-linejoin: miter"/>
    </defs>
    <g clip-path="url(#pfc3930f0c5)">
     <use xlink:href="#mf6b14e3e1f" x="91.227702" y="234.815532" style="fill: #ffb347; stroke: #000000; stroke-linejoin: miter"/>
     <use xlink:href="#mf6b14e3e1f" x="93.84372" y="173.985094" style="fill: #ffb347; stroke: #000000; stroke-linejoin: miter"/>
     <use xlink:href="#mf6b14e3e1f" x="95.453577" y="168.132907" style="fill: #ffb347; stroke: #000000; stroke-linejoin: miter"/>
     <use xlink:href="#mf6b14e3e1f" x="97.063434" y="181.385836" style="fill: #ffb347; stroke: #000000; stroke-linejoin: miter"/>
     <use xlink:href="#mf6b14e3e1f" x="98.673292" y="191.519562" style="fill: #ffb347; stroke: #000000; stroke-linejoin: miter"/>
     <use xlink:href="#mf6b14e3e1f" x="100.685613" y="196.583663" style="fill: #ffb347; stroke: #000000; stroke-linejoin: miter"/>
     <use xlink:href="#mf6b14e3e1f" x="103.704095" y="205.934366" style="fill: #ffb347; stroke: #000000; stroke-linejoin: miter"/>
     <use xlink:href="#mf6b14e3e1f" x="107.527506" y="211.774125" style="fill: #ffb347; stroke: #000000; stroke-linejoin: miter"/>
     <use xlink:href="#mf6b14e3e1f" x="110.948453" y="219.954206" style="fill: #ffb347; stroke: #000000; stroke-linejoin: miter"/>
     <use xlink:href="#mf6b14e3e1f" x="118.192811" y="232.024545" style="fill: #ffb347; stroke: #000000; stroke-linejoin: miter"/>
     <use xlink:href="#mf6b14e3e1f" x="132.480294" y="254.606081" style="fill: #ffb347; stroke: #000000; stroke-linejoin: miter"/>
     <use xlink:href="#mf6b14e3e1f" x="146.969009" y="263.930545" style="fill: #ffb347; stroke: #000000; stroke-linejoin: miter"/>
     <use xlink:href="#mf6b14e3e1f" x="174.940279" y="274.003968" style="fill: #ffb347; stroke: #000000; stroke-linejoin: miter"/>
     <use xlink:href="#mf6b14e3e1f" x="196.47212" y="278.243616" style="fill: #ffb347; stroke: #000000; stroke-linejoin: miter"/>
    </g>
   </g>
   <g id="patch_3">
    <path d="M 72.064531 320.243478 
L 72.064531 79.2 
" style="fill: none; stroke: #000000; stroke-width: 0.8; stroke-linejoin: miter; stroke-linecap: square"/>
   </g>
   <g id="patch_4">
    <path d="M 462.664531 320.243478 
L 462.664531 79.2 
" style="fill: none; stroke: #000000; stroke-width: 0.8; stroke-linejoin: miter; stroke-linecap: square"/>
   </g>
   <g id="patch_5">
    <path d="M 72.064531 320.243478 
L 462.664531 320.243478 
" style="fill: none; stroke: #000000; stroke-width: 0.8; stroke-linejoin: miter; stroke-linecap: square"/>
   </g>
   <g id="patch_6">
    <path d="M 72.064531 79.2 
L 462.664531 79.2 
" style="fill: none; stroke: #000000; stroke-width: 0.8; stroke-linejoin: miter; stroke-linecap: square"/>
   </g>
   <g id="text_14">
    <!-- Solution (single dose) -->
    <g transform="translate(143.816094 73.2) scale(0.2 -0.2)">
     <defs>
      <path id="DejaVuSans-Bold-53" d="M 3834 4519 
L 3834 3531 
Q 3450 3703 3084 3790 
Q 2719 3878 2394 3878 
Q 1963 3878 1756 3759 
Q 1550 3641 1550 3391 
Q 1550 3203 1689 3098 
Q 1828 2994 2194 2919 
L 2706 2816 
Q 3484 2659 3812 2340 
Q 4141 2022 4141 1434 
Q 4141 663 3683 286 
Q 3225 -91 2284 -91 
Q 1841 -91 1394 -6 
Q 947 78 500 244 
L 500 1259 
Q 947 1022 1364 901 
Q 1781 781 2169 781 
Q 2563 781 2772 912 
Q 2981 1044 2981 1288 
Q 2981 1506 2839 1625 
Q 2697 1744 2272 1838 
L 1806 1941 
Q 1106 2091 782 2419 
Q 459 2747 459 3303 
Q 459 4000 909 4375 
Q 1359 4750 2203 4750 
Q 2588 4750 2994 4692 
Q 3400 4634 3834 4519 
z
" transform="scale(0.015625)"/>
      <path id="DejaVuSans-Bold-75" d="M 500 1363 
L 500 3500 
L 1625 3500 
L 1625 3150 
Q 1625 2866 1622 2436 
Q 1619 2006 1619 1863 
Q 1619 1441 1641 1255 
Q 1663 1069 1716 984 
Q 1784 875 1895 815 
Q 2006 756 2150 756 
Q 2500 756 2700 1025 
Q 2900 1294 2900 1772 
L 2900 3500 
L 4019 3500 
L 4019 0 
L 2900 0 
L 2900 506 
Q 2647 200 2364 54 
Q 2081 -91 1741 -91 
Q 1134 -91 817 281 
Q 500 653 500 1363 
z
" transform="scale(0.015625)"/>
      <path id="DejaVuSans-Bold-28" d="M 2413 -844 
L 1484 -844 
Q 1006 -72 778 623 
Q 550 1319 550 2003 
Q 550 2688 779 3389 
Q 1009 4091 1484 4856 
L 2413 4856 
Q 2013 4116 1813 3408 
Q 1613 2700 1613 2009 
Q 1613 1319 1811 609 
Q 2009 -100 2413 -844 
z
" transform="scale(0.015625)"/>
      <path id="DejaVuSans-Bold-67" d="M 2919 594 
Q 2688 288 2409 144 
Q 2131 0 1766 0 
Q 1125 0 706 504 
Q 288 1009 288 1791 
Q 288 2575 706 3076 
Q 1125 3578 1766 3578 
Q 2131 3578 2409 3434 
Q 2688 3291 2919 2981 
L 2919 3500 
L 4044 3500 
L 4044 353 
Q 4044 -491 3511 -936 
Q 2978 -1381 1966 -1381 
Q 1638 -1381 1331 -1331 
Q 1025 -1281 716 -1178 
L 716 -306 
Q 1009 -475 1290 -558 
Q 1572 -641 1856 -641 
Q 2406 -641 2662 -400 
Q 2919 -159 2919 353 
L 2919 594 
z
M 2181 2772 
Q 1834 2772 1640 2515 
Q 1447 2259 1447 1791 
Q 1447 1309 1634 1061 
Q 1822 813 2181 813 
Q 2531 813 2725 1069 
Q 2919 1325 2919 1791 
Q 2919 2259 2725 2515 
Q 2531 2772 2181 2772 
z
" transform="scale(0.015625)"/>
      <path id="DejaVuSans-Bold-64" d="M 2919 2988 
L 2919 4863 
L 4044 4863 
L 4044 0 
L 2919 0 
L 2919 506 
Q 2688 197 2409 53 
Q 2131 -91 1766 -91 
Q 1119 -91 703 423 
Q 288 938 288 1747 
Q 288 2556 703 3070 
Q 1119 3584 1766 3584 
Q 2128 3584 2408 3439 
Q 2688 3294 2919 2988 
z
M 2181 722 
Q 2541 722 2730 984 
Q 2919 1247 2919 1747 
Q 2919 2247 2730 2509 
Q 2541 2772 2181 2772 
Q 1825 2772 1636 2509 
Q 1447 2247 1447 1747 
Q 1447 1247 1636 984 
Q 1825 722 2181 722 
z
" transform="scale(0.015625)"/>
      <path id="DejaVuSans-Bold-29" d="M 513 -844 
Q 913 -100 1113 609 
Q 1313 1319 1313 2009 
Q 1313 2700 1113 3408 
Q 913 4116 513 4856 
L 1441 4856 
Q 1916 4091 2145 3389 
Q 2375 2688 2375 2003 
Q 2375 1319 2147 623 
Q 1919 -72 1441 -844 
L 513 -844 
z
" transform="scale(0.015625)"/>
     </defs>
     <use xlink:href="#DejaVuSans-Bold-53"/>
     <use xlink:href="#DejaVuSans-Bold-6f" x="72.021484"/>
     <use xlink:href="#DejaVuSans-Bold-6c" x="140.722656"/>
     <use xlink:href="#DejaVuSans-Bold-75" x="175"/>
     <use xlink:href="#DejaVuSans-Bold-74" x="246.191406"/>
     <use xlink:href="#DejaVuSans-Bold-69" x="293.994141"/>
     <use xlink:href="#DejaVuSans-Bold-6f" x="328.271484"/>
     <use xlink:href="#DejaVuSans-Bold-6e" x="396.972656"/>
     <use xlink:href="#DejaVuSans-Bold-20" x="468.164062"/>
     <use xlink:href="#DejaVuSans-Bold-28" x="502.978516"/>
     <use xlink:href="#DejaVuSans-Bold-73" x="548.681641"/>
     <use xlink:href="#DejaVuSans-Bold-69" x="608.203125"/>
     <use xlink:href="#DejaVuSans-Bold-6e" x="642.480469"/>
     <use xlink:href="#DejaVuSans-Bold-67" x="713.671875"/>
     <use xlink:href="#DejaVuSans-Bold-6c" x="785.253906"/>
     <use xlink:href="#DejaVuSans-Bold-65" x="819.53125"/>
     <use xlink:href="#DejaVuSans-Bold-20" x="887.353516"/>
     <use xlink:href="#DejaVuSans-Bold-64" x="922.167969"/>
     <use xlink:href="#DejaVuSans-Bold-6f" x="993.75"/>
     <use xlink:href="#DejaVuSans-Bold-73" x="1062.451172"/>
     <use xlink:href="#DejaVuSans-Bold-65" x="1121.972656"/>
     <use xlink:href="#DejaVuSans-Bold-29" x="1189.794922"/>
    </g>
   </g>
   <g id="legend_1">
    <g id="patch_7">
     <path d="M 350.102031 145.9125 
L 455.664531 145.9125 
Q 457.664531 145.9125 457.664531 143.9125 
L 457.664531 86.2 
Q 457.664531 84.2 455.664531 84.2 
L 350.102031 84.2 
Q 348.102031 84.2 348.102031 86.2 
L 348.102031 143.9125 
Q 348.102031 145.9125 350.102031 145.9125 
z
" style="fill: #ffffff; opacity: 0.8; stroke: #cccccc; stroke-linejoin: miter"/>
    </g>
    <g id="line2d_16">
     <path d="M 352.102031 92.298437 
L 372.102031 92.298437 
" style="fill: none; stroke: #ffd580; stroke-width: 2; stroke-linecap: square"/>
    </g>
    <g id="line2d_17"/>
    <g id="text_15">
     <!-- S5 -->
     <g transform="translate(380.102031 95.798437) scale(0.1 -0.1)">
      <defs>
       <path id="DejaVuSans-53" d="M 3425 4513 
L 3425 3897 
Q 3066 4069 2747 4153 
Q 2428 4238 2131 4238 
Q 1616 4238 1336 4038 
Q 1056 3838 1056 3469 
Q 1056 3159 1242 3001 
Q 1428 2844 1947 2747 
L 2328 2669 
Q 3034 2534 3370 2195 
Q 3706 1856 3706 1288 
Q 3706 609 3251 259 
Q 2797 -91 1919 -91 
Q 1588 -91 1214 -16 
Q 841 59 441 206 
L 441 856 
Q 825 641 1194 531 
Q 1563 422 1919 422 
Q 2459 422 2753 634 
Q 3047 847 3047 1241 
Q 3047 1584 2836 1778 
Q 2625 1972 2144 2069 
L 1759 2144 
Q 1053 2284 737 2584 
Q 422 2884 422 3419 
Q 422 4038 858 4394 
Q 1294 4750 2059 4750 
Q 2388 4750 2728 4690 
Q 3069 4631 3425 4513 
z
" transform="scale(0.015625)"/>
      </defs>
      <use xlink:href="#DejaVuSans-53"/>
      <use xlink:href="#DejaVuSans-35" x="63.476562"/>
     </g>
    </g>
    <g id="LineCollection_3">
     <path d="M 362.102031 111.976562 
L 362.102031 101.976562 
" style="fill: none; stroke: #ffd580"/>
    </g>
    <g id="line2d_18">
     <path d="M 352.102031 106.976562 
L 372.102031 106.976562 
" style="fill: none; stroke-dasharray: 3.7,1.6; stroke-dashoffset: 0; stroke: #ffd580"/>
    </g>
    <g id="line2d_19">
     <g>
      <use xlink:href="#m739b5237b6" x="362.102031" y="106.976562" style="fill: #ffd580; stroke: #000000; stroke-linejoin: miter"/>
     </g>
    </g>
    <g id="text_16">
     <!-- S5±SD (n=6) -->
     <g transform="translate(380.102031 110.476562) scale(0.1 -0.1)">
      <defs>
       <path id="DejaVuSans-b1" d="M 2944 4013 
L 2944 2803 
L 4684 2803 
L 4684 2272 
L 2944 2272 
L 2944 1063 
L 2419 1063 
L 2419 2272 
L 678 2272 
L 678 2803 
L 2419 2803 
L 2419 4013 
L 2944 4013 
z
M 678 531 
L 4684 531 
L 4684 0 
L 678 0 
L 678 531 
z
" transform="scale(0.015625)"/>
       <path id="DejaVuSans-44" d="M 1259 4147 
L 1259 519 
L 2022 519 
Q 2988 519 3436 956 
Q 3884 1394 3884 2338 
Q 3884 3275 3436 3711 
Q 2988 4147 2022 4147 
L 1259 4147 
z
M 628 4666 
L 1925 4666 
Q 3281 4666 3915 4102 
Q 4550 3538 4550 2338 
Q 4550 1131 3912 565 
Q 3275 0 1925 0 
L 628 0 
L 628 4666 
z
" transform="scale(0.015625)"/>
       <path id="DejaVuSans-20" transform="scale(0.015625)"/>
       <path id="DejaVuSans-28" d="M 1984 4856 
Q 1566 4138 1362 3434 
Q 1159 2731 1159 2009 
Q 1159 1288 1364 580 
Q 1569 -128 1984 -844 
L 1484 -844 
Q 1016 -109 783 600 
Q 550 1309 550 2009 
Q 550 2706 781 3412 
Q 1013 4119 1484 4856 
L 1984 4856 
z
" transform="scale(0.015625)"/>
       <path id="DejaVuSans-6e" d="M 3513 2113 
L 3513 0 
L 2938 0 
L 2938 2094 
Q 2938 2591 2744 2837 
Q 2550 3084 2163 3084 
Q 1697 3084 1428 2787 
Q 1159 2491 1159 1978 
L 1159 0 
L 581 0 
L 581 3500 
L 1159 3500 
L 1159 2956 
Q 1366 3272 1645 3428 
Q 1925 3584 2291 3584 
Q 2894 3584 3203 3211 
Q 3513 2838 3513 2113 
z
" transform="scale(0.015625)"/>
       <path id="DejaVuSans-3d" d="M 678 2906 
L 4684 2906 
L 4684 2381 
L 678 2381 
L 678 2906 
z
M 678 1631 
L 4684 1631 
L 4684 1100 
L 678 1100 
L 678 1631 
z
" transform="scale(0.015625)"/>
       <path id="DejaVuSans-29" d="M 513 4856 
L 1013 4856 
Q 1481 4119 1714 3412 
Q 1947 2706 1947 2009 
Q 1947 1309 1714 600 
Q 1481 -109 1013 -844 
L 513 -844 
Q 928 -128 1133 580 
Q 1338 1288 1338 2009 
Q 1338 2731 1133 3434 
Q 928 4138 513 4856 
z
" transform="scale(0.015625)"/>
      </defs>
      <use xlink:href="#DejaVuSans-53"/>
      <use xlink:href="#DejaVuSans-35" x="63.476562"/>
      <use xlink:href="#DejaVuSans-b1" x="127.099609"/>
      <use xlink:href="#DejaVuSans-53" x="210.888672"/>
      <use xlink:href="#DejaVuSans-44" x="274.365234"/>
      <use xlink:href="#DejaVuSans-20" x="351.367188"/>
      <use xlink:href="#DejaVuSans-28" x="383.154297"/>
      <use xlink:href="#DejaVuSans-6e" x="422.167969"/>
      <use xlink:href="#DejaVuSans-3d" x="485.546875"/>
      <use xlink:href="#DejaVuSans-36" x="569.335938"/>
      <use xlink:href="#DejaVuSans-29" x="632.958984"/>
     </g>
    </g>
    <g id="line2d_20">
     <path d="M 352.102031 121.654687 
L 372.102031 121.654687 
" style="fill: none; stroke: #ffb347; stroke-width: 2; stroke-linecap: square"/>
    </g>
    <g id="line2d_21"/>
    <g id="text_17">
     <!-- S10 -->
     <g transform="translate(380.102031 125.154687) scale(0.1 -0.1)">
      <use xlink:href="#DejaVuSans-53"/>
      <use xlink:href="#DejaVuSans-31" x="63.476562"/>
      <use xlink:href="#DejaVuSans-30" x="127.099609"/>
     </g>
    </g>
    <g id="LineCollection_4">
     <path d="M 362.102031 141.332812 
L 362.102031 131.332812 
" style="fill: none; stroke: #ffb347"/>
    </g>
    <g id="line2d_22">
     <path d="M 352.102031 136.332812 
L 372.102031 136.332812 
" style="fill: none; stroke-dasharray: 3.7,1.6; stroke-dashoffset: 0; stroke: #ffb347"/>
    </g>
    <g id="line2d_23">
     <g>
      <use xlink:href="#mf6b14e3e1f" x="362.102031" y="136.332812" style="fill: #ffb347; stroke: #000000; stroke-linejoin: miter"/>
     </g>
    </g>
    <g id="text_18">
     <!-- S10±SD (n=6) -->
     <g transform="translate(380.102031 139.832812) scale(0.1 -0.1)">
      <use xlink:href="#DejaVuSans-53"/>
      <use xlink:href="#DejaVuSans-31" x="63.476562"/>
      <use xlink:href="#DejaVuSans-30" x="127.099609"/>
      <use xlink:href="#DejaVuSans-b1" x="190.722656"/>
      <use xlink:href="#DejaVuSans-53" x="274.511719"/>
      <use xlink:href="#DejaVuSans-44" x="337.988281"/>
      <use xlink:href="#DejaVuSans-20" x="414.990234"/>
      <use xlink:href="#DejaVuSans-28" x="446.777344"/>
      <use xlink:href="#DejaVuSans-6e" x="485.791016"/>
      <use xlink:href="#DejaVuSans-3d" x="549.169922"/>
      <use xlink:href="#DejaVuSans-36" x="632.958984"/>
      <use xlink:href="#DejaVuSans-29" x="696.582031"/>
     </g>
    </g>
   </g>
  </g>
  <g id="axes_2">
   <g id="patch_8">
    <path d="M 72.064531 633.6 
L 462.664531 633.6 
L 462.664531 392.556522 
L 72.064531 392.556522 
z
" style="fill: #ffffff"/>
   </g>
   <g id="matplotlib.axis_3">
    <g id="xtick_7">
     <g id="line2d_24">
      <g>
       <use xlink:href="#m98a57165bd" x="89.819077" y="633.6" style="stroke: #000000; stroke-width: 0.8"/>
      </g>
     </g>
     <g id="text_19">
      <!-- 0 -->
      <g transform="translate(85.047202 651.997656) scale(0.15 -0.15)">
       <use xlink:href="#DejaVuSans-30"/>
      </g>
     </g>
    </g>
    <g id="xtick_8">
     <g id="line2d_25">
      <g>
       <use xlink:href="#m98a57165bd" x="160.837259" y="633.6" style="stroke: #000000; stroke-width: 0.8"/>
      </g>
     </g>
     <g id="text_20">
      <!-- 10 -->
      <g transform="translate(151.293509 651.997656) scale(0.15 -0.15)">
       <use xlink:href="#DejaVuSans-31"/>
       <use xlink:href="#DejaVuSans-30" x="63.623047"/>
      </g>
     </g>
    </g>
    <g id="xtick_9">
     <g id="line2d_26">
      <g>
       <use xlink:href="#m98a57165bd" x="231.85544" y="633.6" style="stroke: #000000; stroke-width: 0.8"/>
      </g>
     </g>
     <g id="text_21">
      <!-- 20 -->
      <g transform="translate(222.31169 651.997656) scale(0.15 -0.15)">
       <use xlink:href="#DejaVuSans-32"/>
       <use xlink:href="#DejaVuSans-30" x="63.623047"/>
      </g>
     </g>
    </g>
    <g id="xtick_10">
     <g id="line2d_27">
      <g>
       <use xlink:href="#m98a57165bd" x="302.873622" y="633.6" style="stroke: #000000; stroke-width: 0.8"/>
      </g>
     </g>
     <g id="text_22">
      <!-- 30 -->
      <g transform="translate(293.329872 651.997656) scale(0.15 -0.15)">
       <use xlink:href="#DejaVuSans-33"/>
       <use xlink:href="#DejaVuSans-30" x="63.623047"/>
      </g>
     </g>
    </g>
    <g id="xtick_11">
     <g id="line2d_28">
      <g>
       <use xlink:href="#m98a57165bd" x="373.891804" y="633.6" style="stroke: #000000; stroke-width: 0.8"/>
      </g>
     </g>
     <g id="text_23">
      <!-- 40 -->
      <g transform="translate(364.348054 651.997656) scale(0.15 -0.15)">
       <use xlink:href="#DejaVuSans-34"/>
       <use xlink:href="#DejaVuSans-30" x="63.623047"/>
      </g>
     </g>
    </g>
    <g id="xtick_12">
     <g id="line2d_29">
      <g>
       <use xlink:href="#m98a57165bd" x="444.909986" y="633.6" style="stroke: #000000; stroke-width: 0.8"/>
      </g>
     </g>
     <g id="text_24">
      <!-- 50 -->
      <g transform="translate(435.366236 651.997656) scale(0.15 -0.15)">
       <use xlink:href="#DejaVuSans-35"/>
       <use xlink:href="#DejaVuSans-30" x="63.623047"/>
      </g>
     </g>
    </g>
    <g id="text_25">
     <!-- time [hr] -->
     <g transform="translate(222.29 672.794375) scale(0.18 -0.18)">
      <use xlink:href="#DejaVuSans-Bold-74"/>
      <use xlink:href="#DejaVuSans-Bold-69" x="47.802734"/>
      <use xlink:href="#DejaVuSans-Bold-6d" x="82.080078"/>
      <use xlink:href="#DejaVuSans-Bold-65" x="186.279297"/>
      <use xlink:href="#DejaVuSans-Bold-20" x="254.101562"/>
      <use xlink:href="#DejaVuSans-Bold-5b" x="288.916016"/>
      <use xlink:href="#DejaVuSans-Bold-68" x="334.619141"/>
      <use xlink:href="#DejaVuSans-Bold-72" x="405.810547"/>
      <use xlink:href="#DejaVuSans-Bold-5d" x="455.126953"/>
     </g>
    </g>
   </g>
   <g id="matplotlib.axis_4">
    <g id="ytick_6">
     <g id="line2d_30">
      <g>
       <use xlink:href="#me8e612f049" x="72.064531" y="621.763259" style="stroke: #000000; stroke-width: 0.8"/>
      </g>
     </g>
     <g id="text_26">
      <!-- −0.1 -->
      <g transform="translate(28.640313 627.462087) scale(0.15 -0.15)">
       <defs>
        <path id="DejaVuSans-2212" d="M 678 2272 
L 4684 2272 
L 4684 1741 
L 678 1741 
L 678 2272 
z
" transform="scale(0.015625)"/>
       </defs>
       <use xlink:href="#DejaVuSans-2212"/>
       <use xlink:href="#DejaVuSans-30" x="83.789062"/>
       <use xlink:href="#DejaVuSans-2e" x="147.412109"/>
       <use xlink:href="#DejaVuSans-31" x="179.199219"/>
      </g>
     </g>
    </g>
    <g id="ytick_7">
     <g id="line2d_31">
      <g>
       <use xlink:href="#me8e612f049" x="72.064531" y="575.88781" style="stroke: #000000; stroke-width: 0.8"/>
      </g>
     </g>
     <g id="text_27">
      <!-- 0.0 -->
      <g transform="translate(41.209844 581.586638) scale(0.15 -0.15)">
       <use xlink:href="#DejaVuSans-30"/>
       <use xlink:href="#DejaVuSans-2e" x="63.623047"/>
       <use xlink:href="#DejaVuSans-30" x="95.410156"/>
      </g>
     </g>
    </g>
    <g id="ytick_8">
     <g id="line2d_32">
      <g>
       <use xlink:href="#me8e612f049" x="72.064531" y="530.012361" style="stroke: #000000; stroke-width: 0.8"/>
      </g>
     </g>
     <g id="text_28">
      <!-- 0.1 -->
      <g transform="translate(41.209844 535.711189) scale(0.15 -0.15)">
       <use xlink:href="#DejaVuSans-30"/>
       <use xlink:href="#DejaVuSans-2e" x="63.623047"/>
       <use xlink:href="#DejaVuSans-31" x="95.410156"/>
      </g>
     </g>
    </g>
    <g id="ytick_9">
     <g id="line2d_33">
      <g>
       <use xlink:href="#me8e612f049" x="72.064531" y="484.136913" style="stroke: #000000; stroke-width: 0.8"/>
      </g>
     </g>
     <g id="text_29">
      <!-- 0.2 -->
      <g transform="translate(41.209844 489.835741) scale(0.15 -0.15)">
       <use xlink:href="#DejaVuSans-30"/>
       <use xlink:href="#DejaVuSans-2e" x="63.623047"/>
       <use xlink:href="#DejaVuSans-32" x="95.410156"/>
      </g>
     </g>
    </g>
    <g id="ytick_10">
     <g id="line2d_34">
      <g>
       <use xlink:href="#me8e612f049" x="72.064531" y="438.261464" style="stroke: #000000; stroke-width: 0.8"/>
      </g>
     </g>
     <g id="text_30">
      <!-- 0.3 -->
      <g transform="translate(41.209844 443.960292) scale(0.15 -0.15)">
       <use xlink:href="#DejaVuSans-30"/>
       <use xlink:href="#DejaVuSans-2e" x="63.623047"/>
       <use xlink:href="#DejaVuSans-33" x="95.410156"/>
      </g>
     </g>
    </g>
    <g id="text_31">
     <!-- rivaroxaban plasma [µM] -->
     <g transform="translate(20.877187 640.445136) rotate(-90) scale(0.18 -0.18)">
      <use xlink:href="#DejaVuSans-Bold-72"/>
      <use xlink:href="#DejaVuSans-Bold-69" x="49.316406"/>
      <use xlink:href="#DejaVuSans-Bold-76" x="83.59375"/>
      <use xlink:href="#DejaVuSans-Bold-61" x="148.779297"/>
      <use xlink:href="#DejaVuSans-Bold-72" x="216.259766"/>
      <use xlink:href="#DejaVuSans-Bold-6f" x="265.576172"/>
      <use xlink:href="#DejaVuSans-Bold-78" x="334.277344"/>
      <use xlink:href="#DejaVuSans-Bold-61" x="398.779297"/>
      <use xlink:href="#DejaVuSans-Bold-62" x="466.259766"/>
      <use xlink:href="#DejaVuSans-Bold-61" x="537.841797"/>
      <use xlink:href="#DejaVuSans-Bold-6e" x="605.322266"/>
      <use xlink:href="#DejaVuSans-Bold-20" x="676.513672"/>
      <use xlink:href="#DejaVuSans-Bold-70" x="711.328125"/>
      <use xlink:href="#DejaVuSans-Bold-6c" x="782.910156"/>
      <use xlink:href="#DejaVuSans-Bold-61" x="817.1875"/>
      <use xlink:href="#DejaVuSans-Bold-73" x="884.667969"/>
      <use xlink:href="#DejaVuSans-Bold-6d" x="944.189453"/>
      <use xlink:href="#DejaVuSans-Bold-61" x="1048.388672"/>
      <use xlink:href="#DejaVuSans-Bold-20" x="1115.869141"/>
      <use xlink:href="#DejaVuSans-Bold-5b" x="1150.683594"/>
      <use xlink:href="#DejaVuSans-Bold-b5" x="1196.386719"/>
      <use xlink:href="#DejaVuSans-Bold-4d" x="1269.970703"/>
      <use xlink:href="#DejaVuSans-Bold-5d" x="1369.482422"/>
     </g>
    </g>
   </g>
   <g id="LineCollection_5">
    <path d="M 95.297622 579.752744 
L 95.297622 553.24771 
" clip-path="url(#p235d7e9e99)" style="fill: none; stroke: #ffd580"/>
    <path d="M 98.949986 599.231128 
L 98.949986 525.951096 
" clip-path="url(#p235d7e9e99)" style="fill: none; stroke: #ffd580"/>
    <path d="M 100.776168 595.325694 
L 100.776168 512.690295 
" clip-path="url(#p235d7e9e99)" style="fill: none; stroke: #ffd580"/>
    <path d="M 104.885077 544.6379 
L 104.885077 515.012569 
" clip-path="url(#p235d7e9e99)" style="fill: none; stroke: #ffd580"/>
    <path d="M 108.080895 525.907835 
L 108.080895 502.521257 
" clip-path="url(#p235d7e9e99)" style="fill: none; stroke: #ffd580"/>
    <path d="M 111.733259 530.573553 
L 111.733259 504.066678 
" clip-path="url(#p235d7e9e99)" style="fill: none; stroke: #ffd580"/>
    <path d="M 118.226349 544.574389 
L 118.226349 504.032622 
" clip-path="url(#p235d7e9e99)" style="fill: none; stroke: #ffd580"/>
    <path d="M 133.190895 548.407108 
L 133.190895 529.694532 
" clip-path="url(#p235d7e9e99)" style="fill: none; stroke: #ffd580"/>
    <path d="M 146.633622 566.273798 
L 146.633622 539.765082 
" clip-path="url(#p235d7e9e99)" style="fill: none; stroke: #ffd580"/>
    <path d="M 175.040895 580.955761 
L 175.040895 549.769361 
" clip-path="url(#p235d7e9e99)" style="fill: none; stroke: #ffd580"/>
    <path d="M 197.107259 586.308129 
L 197.107259 553.573546 
" clip-path="url(#p235d7e9e99)" style="fill: none; stroke: #ffd580"/>
   </g>
   <g id="LineCollection_6">
    <path d="M 93.84372 622.643478 
L 93.84372 504.149518 
" clip-path="url(#p235d7e9e99)" style="fill: none; stroke: #ffb347"/>
    <path d="M 95.453577 601.590219 
L 95.453577 486.207351 
" clip-path="url(#p235d7e9e99)" style="fill: none; stroke: #ffb347"/>
    <path d="M 97.063434 576.634288 
L 97.063434 462.812489 
" clip-path="url(#p235d7e9e99)" style="fill: none; stroke: #ffb347"/>
    <path d="M 100.886845 524.382663 
L 100.886845 427.712372 
" clip-path="url(#p235d7e9e99)" style="fill: none; stroke: #ffb347"/>
    <path d="M 104.509024 497.080527 
L 104.509024 412.882218 
" clip-path="url(#p235d7e9e99)" style="fill: none; stroke: #ffb347"/>
    <path d="M 107.326274 483.03551 
L 107.326274 403.513043 
" clip-path="url(#p235d7e9e99)" style="fill: none; stroke: #ffb347"/>
    <path d="M 111.55215 495.489084 
L 111.55215 425.323826 
" clip-path="url(#p235d7e9e99)" style="fill: none; stroke: #ffb347"/>
    <path d="M 118.226349 494.680936 
L 118.226349 443.222732 
" clip-path="url(#p235d7e9e99)" style="fill: none; stroke: #ffb347"/>
    <path d="M 132.681526 539.053581 
L 132.681526 503.185816 
" clip-path="url(#p235d7e9e99)" style="fill: none; stroke: #ffb347"/>
    <path d="M 146.633622 549.901905 
L 146.633622 524.954258 
" clip-path="url(#p235d7e9e99)" style="fill: none; stroke: #ffb347"/>
    <path d="M 175.040895 564.579265 
L 175.040895 541.196369 
" clip-path="url(#p235d7e9e99)" style="fill: none; stroke: #ffb347"/>
    <path d="M 196.270887 567.605677 
L 196.270887 550.45417 
" clip-path="url(#p235d7e9e99)" style="fill: none; stroke: #ffb347"/>
    <path d="M 260.262713 567.312056 
L 260.262713 561.073304 
" clip-path="url(#p235d7e9e99)" style="fill: none; stroke: #ffb347"/>
   </g>
   <g id="line2d_35">
    <path d="M 89.819077 575.88781 
L 90.529259 574.888774 
L 91.23944 572.035538 
L 92.659804 563.629736 
L 94.790349 550.167102 
L 96.210713 542.602929 
L 97.631077 536.587084 
L 99.05144 532.059495 
L 100.471804 528.828889 
L 101.181986 527.629673 
L 101.892168 526.670785 
L 102.602349 525.926121 
L 103.312531 525.371392 
L 104.022713 524.984287 
L 104.732895 524.74451 
L 105.443077 524.633734 
L 106.86344 524.735155 
L 108.283804 525.177216 
L 109.704168 525.872246 
L 111.834713 527.243941 
L 114.67544 529.441238 
L 120.356895 534.275788 
L 126.038349 539.008298 
L 130.29944 542.300013 
L 134.560531 545.332787 
L 138.821622 548.107496 
L 143.082713 550.637378 
L 147.343804 552.940109 
L 152.315077 555.364352 
L 157.286349 557.533286 
L 162.257622 559.473321 
L 167.939077 561.440852 
L 173.620531 563.172601 
L 180.012168 564.873987 
L 186.403804 566.347724 
L 193.505622 567.755112 
L 201.317622 569.064656 
L 209.839804 570.253978 
L 219.072168 571.309652 
L 229.014713 572.22642 
L 240.377622 573.051605 
L 253.160895 573.759839 
L 268.784895 574.389966 
L 287.249622 574.898709 
L 309.97544 575.294306 
L 340.513259 575.589026 
L 385.254713 575.778501 
L 444.909986 575.859209 
L 444.909986 575.859209 
" clip-path="url(#p235d7e9e99)" style="fill: none; stroke: #ffd580; stroke-width: 2; stroke-linecap: square"/>
   </g>
   <g id="line2d_36">
    <path d="M 95.297622 566.500227 
L 98.949986 562.591112 
L 100.776168 554.007994 
L 104.885077 529.825234 
L 108.080895 514.214546 
L 111.733259 517.320116 
L 118.226349 524.303506 
L 133.190895 539.05082 
L 146.633622 553.01944 
L 175.040895 565.362561 
L 197.107259 569.940837 
" clip-path="url(#p235d7e9e99)" style="fill: none; stroke-dasharray: 3.7,1.6; stroke-dashoffset: 0; stroke: #ffd580"/>
    <g clip-path="url(#p235d7e9e99)">
     <use xlink:href="#m739b5237b6" x="95.297622" y="566.500227" style="fill: #ffd580; stroke: #000000; stroke-linejoin: miter"/>
     <use xlink:href="#m739b5237b6" x="98.949986" y="562.591112" style="fill: #ffd580; stroke: #000000; stroke-linejoin: miter"/>
     <use xlink:href="#m739b5237b6" x="100.776168" y="554.007994" style="fill: #ffd580; stroke: #000000; stroke-linejoin: miter"/>
     <use xlink:href="#m739b5237b6" x="104.885077" y="529.825234" style="fill: #ffd580; stroke: #000000; stroke-linejoin: miter"/>
     <use xlink:href="#m739b5237b6" x="108.080895" y="514.214546" style="fill: #ffd580; stroke: #000000; stroke-linejoin: miter"/>
     <use xlink:href="#m739b5237b6" x="111.733259" y="517.320116" style="fill: #ffd580; stroke: #000000; stroke-linejoin: miter"/>
     <use xlink:href="#m739b5237b6" x="118.226349" y="524.303506" style="fill: #ffd580; stroke: #000000; stroke-linejoin: miter"/>
     <use xlink:href="#m739b5237b6" x="133.190895" y="539.05082" style="fill: #ffd580; stroke: #000000; stroke-linejoin: miter"/>
     <use xlink:href="#m739b5237b6" x="146.633622" y="553.01944" style="fill: #ffd580; stroke: #000000; stroke-linejoin: miter"/>
     <use xlink:href="#m739b5237b6" x="175.040895" y="565.362561" style="fill: #ffd580; stroke: #000000; stroke-linejoin: miter"/>
     <use xlink:href="#m739b5237b6" x="197.107259" y="569.940837" style="fill: #ffd580; stroke: #000000; stroke-linejoin: miter"/>
    </g>
   </g>
   <g id="line2d_37">
    <path d="M 89.819077 575.88781 
L 90.529259 573.889739 
L 91.23944 568.183266 
L 92.659804 551.371662 
L 94.790349 524.446394 
L 96.210713 509.318048 
L 97.631077 497.286357 
L 99.05144 488.23118 
L 99.761622 484.70422 
L 100.471804 481.769968 
L 101.181986 479.371535 
L 101.892168 477.453761 
L 102.602349 475.964433 
L 103.312531 474.854974 
L 104.022713 474.080764 
L 104.732895 473.601209 
L 105.443077 473.379658 
L 106.153259 473.383216 
L 106.86344 473.5825 
L 107.573622 473.951365 
L 108.993986 475.107763 
L 110.414349 476.697436 
L 111.834713 478.600071 
L 113.965259 481.843889 
L 117.516168 487.780934 
L 125.328168 500.983878 
L 129.589259 507.650382 
L 133.140168 512.814084 
L 136.691077 517.615668 
L 140.241986 522.066521 
L 143.792895 526.185067 
L 147.343804 529.992407 
L 150.894713 533.510143 
L 154.445622 536.759315 
L 158.706713 540.331879 
L 162.967804 543.578611 
L 167.228895 546.529036 
L 171.489986 549.210105 
L 175.751077 551.64637 
L 180.722349 554.208956 
L 185.693622 556.500656 
L 190.664895 558.550101 
L 196.346349 560.628407 
L 202.027804 562.457583 
L 207.709259 564.067492 
L 214.100895 565.649148 
L 221.202713 567.159594 
L 228.304531 568.447214 
L 236.116531 569.645315 
L 244.638713 570.733424 
L 254.581259 571.765581 
L 265.233986 572.643252 
L 277.307077 573.414291 
L 291.510713 574.090265 
L 308.555077 574.662299 
L 329.150349 575.116381 
L 355.427077 575.460424 
L 392.356531 575.701443 
L 444.909986 575.830607 
L 444.909986 575.830607 
" clip-path="url(#p235d7e9e99)" style="fill: none; stroke: #ffb347; stroke-width: 2; stroke-linecap: square"/>
   </g>
   <g id="line2d_38">
    <path d="M 93.84372 563.396498 
L 95.453577 543.898785 
L 97.063434 519.723388 
L 100.886845 476.047518 
L 104.509024 454.981372 
L 107.326274 443.274277 
L 111.55215 460.406455 
L 118.226349 468.951834 
L 132.681526 521.119698 
L 146.633622 537.428081 
L 175.040895 552.887817 
L 196.270887 559.029923 
L 260.262713 564.19268 
" clip-path="url(#p235d7e9e99)" style="fill: none; stroke-dasharray: 3.7,1.6; stroke-dashoffset: 0; stroke: #ffb347"/>
    <g clip-path="url(#p235d7e9e99)">
     <use xlink:href="#mf6b14e3e1f" x="93.84372" y="563.396498" style="fill: #ffb347; stroke: #000000; stroke-linejoin: miter"/>
     <use xlink:href="#mf6b14e3e1f" x="95.453577" y="543.898785" style="fill: #ffb347; stroke: #000000; stroke-linejoin: miter"/>
     <use xlink:href="#mf6b14e3e1f" x="97.063434" y="519.723388" style="fill: #ffb347; stroke: #000000; stroke-linejoin: miter"/>
     <use xlink:href="#mf6b14e3e1f" x="100.886845" y="476.047518" style="fill: #ffb347; stroke: #000000; stroke-linejoin: miter"/>
     <use xlink:href="#mf6b14e3e1f" x="104.509024" y="454.981372" style="fill: #ffb347; stroke: #000000; stroke-linejoin: miter"/>
     <use xlink:href="#mf6b14e3e1f" x="107.326274" y="443.274277" style="fill: #ffb347; stroke: #000000; stroke-linejoin: miter"/>
     <use xlink:href="#mf6b14e3e1f" x="111.55215" y="460.406455" style="fill: #ffb347; stroke: #000000; stroke-linejoin: miter"/>
     <use xlink:href="#mf6b14e3e1f" x="118.226349" y="468.951834" style="fill: #ffb347; stroke: #000000; stroke-linejoin: miter"/>
     <use xlink:href="#mf6b14e3e1f" x="132.681526" y="521.119698" style="fill: #ffb347; stroke: #000000; stroke-linejoin: miter"/>
     <use xlink:href="#mf6b14e3e1f" x="146.633622" y="537.428081" style="fill: #ffb347; stroke: #000000; stroke-linejoin: miter"/>
     <use xlink:href="#mf6b14e3e1f" x="175.040895" y="552.887817" style="fill: #ffb347; stroke: #000000; stroke-linejoin: miter"/>
     <use xlink:href="#mf6b14e3e1f" x="196.270887" y="559.029923" style="fill: #ffb347; stroke: #000000; stroke-linejoin: miter"/>
     <use xlink:href="#mf6b14e3e1f" x="260.262713" y="564.19268" style="fill: #ffb347; stroke: #000000; stroke-linejoin: miter"/>
    </g>
   </g>
   <g id="patch_9">
    <path d="M 72.064531 633.6 
L 72.064531 392.556522 
" style="fill: none; stroke: #000000; stroke-width: 0.8; stroke-linejoin: miter; stroke-linecap: square"/>
   </g>
   <g id="patch_10">
    <path d="M 462.664531 633.6 
L 462.664531 392.556522 
" style="fill: none; stroke: #000000; stroke-width: 0.8; stroke-linejoin: miter; stroke-linecap: square"/>
   </g>
   <g id="patch_11">
    <path d="M 72.064531 633.6 
L 462.664531 633.6 
" style="fill: none; stroke: #000000; stroke-width: 0.8; stroke-linejoin: miter; stroke-linecap: square"/>
   </g>
   <g id="patch_12">
    <path d="M 72.064531 392.556522 
L 462.664531 392.556522 
" style="fill: none; stroke: #000000; stroke-width: 0.8; stroke-linejoin: miter; stroke-linecap: square"/>
   </g>
   <g id="text_32">
    <!-- Tablet (single dose) -->
    <g transform="translate(156.200469 386.556522) scale(0.2 -0.2)">
     <defs>
      <path id="DejaVuSans-Bold-54" d="M 31 4666 
L 4331 4666 
L 4331 3756 
L 2784 3756 
L 2784 0 
L 1581 0 
L 1581 3756 
L 31 3756 
L 31 4666 
z
" transform="scale(0.015625)"/>
     </defs>
     <use xlink:href="#DejaVuSans-Bold-54"/>
     <use xlink:href="#DejaVuSans-Bold-61" x="55.337891"/>
     <use xlink:href="#DejaVuSans-Bold-62" x="122.818359"/>
     <use xlink:href="#DejaVuSans-Bold-6c" x="194.400391"/>
     <use xlink:href="#DejaVuSans-Bold-65" x="228.677734"/>
     <use xlink:href="#DejaVuSans-Bold-74" x="296.5"/>
     <use xlink:href="#DejaVuSans-Bold-20" x="344.302734"/>
     <use xlink:href="#DejaVuSans-Bold-28" x="379.117188"/>
     <use xlink:href="#DejaVuSans-Bold-73" x="424.820312"/>
     <use xlink:href="#DejaVuSans-Bold-69" x="484.341797"/>
     <use xlink:href="#DejaVuSans-Bold-6e" x="518.619141"/>
     <use xlink:href="#DejaVuSans-Bold-67" x="589.810547"/>
     <use xlink:href="#DejaVuSans-Bold-6c" x="661.392578"/>
     <use xlink:href="#DejaVuSans-Bold-65" x="695.669922"/>
     <use xlink:href="#DejaVuSans-Bold-20" x="763.492188"/>
     <use xlink:href="#DejaVuSans-Bold-64" x="798.306641"/>
     <use xlink:href="#DejaVuSans-Bold-6f" x="869.888672"/>
     <use xlink:href="#DejaVuSans-Bold-73" x="938.589844"/>
     <use xlink:href="#DejaVuSans-Bold-65" x="998.111328"/>
     <use xlink:href="#DejaVuSans-Bold-29" x="1065.933594"/>
    </g>
   </g>
   <g id="legend_2">
    <g id="patch_13">
     <path d="M 329.653594 459.269022 
L 455.664531 459.269022 
Q 457.664531 459.269022 457.664531 457.269022 
L 457.664531 399.556522 
Q 457.664531 397.556522 455.664531 397.556522 
L 329.653594 397.556522 
Q 327.653594 397.556522 327.653594 399.556522 
L 327.653594 457.269022 
Q 327.653594 459.269022 329.653594 459.269022 
z
" style="fill: #ffffff; opacity: 0.8; stroke: #cccccc; stroke-linejoin: miter"/>
    </g>
    <g id="line2d_39">
     <path d="M 331.653594 405.654959 
L 351.653594 405.654959 
" style="fill: none; stroke: #ffd580; stroke-width: 2; stroke-linecap: square"/>
    </g>
    <g id="line2d_40"/>
    <g id="text_33">
     <!-- T5 BID -->
     <g transform="translate(359.653594 409.154959) scale(0.1 -0.1)">
      <defs>
       <path id="DejaVuSans-54" d="M -19 4666 
L 3928 4666 
L 3928 4134 
L 2272 4134 
L 2272 0 
L 1638 0 
L 1638 4134 
L -19 4134 
L -19 4666 
z
" transform="scale(0.015625)"/>
       <path id="DejaVuSans-42" d="M 1259 2228 
L 1259 519 
L 2272 519 
Q 2781 519 3026 730 
Q 3272 941 3272 1375 
Q 3272 1813 3026 2020 
Q 2781 2228 2272 2228 
L 1259 2228 
z
M 1259 4147 
L 1259 2741 
L 2194 2741 
Q 2656 2741 2882 2914 
Q 3109 3088 3109 3444 
Q 3109 3797 2882 3972 
Q 2656 4147 2194 4147 
L 1259 4147 
z
M 628 4666 
L 2241 4666 
Q 2963 4666 3353 4366 
Q 3744 4066 3744 3513 
Q 3744 3084 3544 2831 
Q 3344 2578 2956 2516 
Q 3422 2416 3680 2098 
Q 3938 1781 3938 1306 
Q 3938 681 3513 340 
Q 3088 0 2303 0 
L 628 0 
L 628 4666 
z
" transform="scale(0.015625)"/>
       <path id="DejaVuSans-49" d="M 628 4666 
L 1259 4666 
L 1259 0 
L 628 0 
L 628 4666 
z
" transform="scale(0.015625)"/>
      </defs>
      <use xlink:href="#DejaVuSans-54"/>
      <use xlink:href="#DejaVuSans-35" x="61.083984"/>
      <use xlink:href="#DejaVuSans-20" x="124.707031"/>
      <use xlink:href="#DejaVuSans-42" x="156.494141"/>
      <use xlink:href="#DejaVuSans-49" x="225.097656"/>
      <use xlink:href="#DejaVuSans-44" x="254.589844"/>
     </g>
    </g>
    <g id="LineCollection_7">
     <path d="M 341.653594 425.333084 
L 341.653594 415.333084 
" style="fill: none; stroke: #ffd580"/>
    </g>
    <g id="line2d_41">
     <path d="M 331.653594 420.333084 
L 351.653594 420.333084 
" style="fill: none; stroke-dasharray: 3.7,1.6; stroke-dashoffset: 0; stroke: #ffd580"/>
    </g>
    <g id="line2d_42">
     <g>
      <use xlink:href="#m739b5237b6" x="341.653594" y="420.333084" style="fill: #ffd580; stroke: #000000; stroke-linejoin: miter"/>
     </g>
    </g>
    <g id="text_34">
     <!-- T5 BID±SD (n=6) -->
     <g transform="translate(359.653594 423.833084) scale(0.1 -0.1)">
      <use xlink:href="#DejaVuSans-54"/>
      <use xlink:href="#DejaVuSans-35" x="61.083984"/>
      <use xlink:href="#DejaVuSans-20" x="124.707031"/>
      <use xlink:href="#DejaVuSans-42" x="156.494141"/>
      <use xlink:href="#DejaVuSans-49" x="225.097656"/>
      <use xlink:href="#DejaVuSans-44" x="254.589844"/>
      <use xlink:href="#DejaVuSans-b1" x="331.591797"/>
      <use xlink:href="#DejaVuSans-53" x="415.380859"/>
      <use xlink:href="#DejaVuSans-44" x="478.857422"/>
      <use xlink:href="#DejaVuSans-20" x="555.859375"/>
      <use xlink:href="#DejaVuSans-28" x="587.646484"/>
      <use xlink:href="#DejaVuSans-6e" x="626.660156"/>
      <use xlink:href="#DejaVuSans-3d" x="690.039062"/>
      <use xlink:href="#DejaVuSans-36" x="773.828125"/>
      <use xlink:href="#DejaVuSans-29" x="837.451172"/>
     </g>
    </g>
    <g id="line2d_43">
     <path d="M 331.653594 435.011209 
L 351.653594 435.011209 
" style="fill: none; stroke: #ffb347; stroke-width: 2; stroke-linecap: square"/>
    </g>
    <g id="line2d_44"/>
    <g id="text_35">
     <!-- T10 BID -->
     <g transform="translate(359.653594 438.511209) scale(0.1 -0.1)">
      <use xlink:href="#DejaVuSans-54"/>
      <use xlink:href="#DejaVuSans-31" x="61.083984"/>
      <use xlink:href="#DejaVuSans-30" x="124.707031"/>
      <use xlink:href="#DejaVuSans-20" x="188.330078"/>
      <use xlink:href="#DejaVuSans-42" x="220.117188"/>
      <use xlink:href="#DejaVuSans-49" x="288.720703"/>
      <use xlink:href="#DejaVuSans-44" x="318.212891"/>
     </g>
    </g>
    <g id="LineCollection_8">
     <path d="M 341.653594 454.689334 
L 341.653594 444.689334 
" style="fill: none; stroke: #ffb347"/>
    </g>
    <g id="line2d_45">
     <path d="M 331.653594 449.689334 
L 351.653594 449.689334 
" style="fill: none; stroke-dasharray: 3.7,1.6; stroke-dashoffset: 0; stroke: #ffb347"/>
    </g>
    <g id="line2d_46">
     <g>
      <use xlink:href="#mf6b14e3e1f" x="341.653594" y="449.689334" style="fill: #ffb347; stroke: #000000; stroke-linejoin: miter"/>
     </g>
    </g>
    <g id="text_36">
     <!-- T10 BID±SD (n=8) -->
     <g transform="translate(359.653594 453.189334) scale(0.1 -0.1)">
      <use xlink:href="#DejaVuSans-54"/>
      <use xlink:href="#DejaVuSans-31" x="61.083984"/>
      <use xlink:href="#DejaVuSans-30" x="124.707031"/>
      <use xlink:href="#DejaVuSans-20" x="188.330078"/>
      <use xlink:href="#DejaVuSans-42" x="220.117188"/>
      <use xlink:href="#DejaVuSans-49" x="288.720703"/>
      <use xlink:href="#DejaVuSans-44" x="318.212891"/>
      <use xlink:href="#DejaVuSans-b1" x="395.214844"/>
      <use xlink:href="#DejaVuSans-53" x="479.003906"/>
      <use xlink:href="#DejaVuSans-44" x="542.480469"/>
      <use xlink:href="#DejaVuSans-20" x="619.482422"/>
      <use xlink:href="#DejaVuSans-28" x="651.269531"/>
      <use xlink:href="#DejaVuSans-6e" x="690.283203"/>
      <use xlink:href="#DejaVuSans-3d" x="753.662109"/>
      <use xlink:href="#DejaVuSans-38" x="837.451172"/>
      <use xlink:href="#DejaVuSans-29" x="901.074219"/>
     </g>
    </g>
   </g>
  </g>
  <g id="text_37">
   <!-- Kubitza2005a -->
   <g transform="translate(164.556719 26.196094) scale(0.25 -0.25)">
    <defs>
     <path id="DejaVuSans-Bold-4b" d="M 588 4666 
L 1791 4666 
L 1791 2963 
L 3525 4666 
L 4922 4666 
L 2675 2456 
L 5153 0 
L 3647 0 
L 1791 1838 
L 1791 0 
L 588 0 
L 588 4666 
z
" transform="scale(0.015625)"/>
     <path id="DejaVuSans-Bold-7a" d="M 366 3500 
L 3419 3500 
L 3419 2719 
L 1575 800 
L 3419 800 
L 3419 0 
L 288 0 
L 288 781 
L 2131 2700 
L 366 2700 
L 366 3500 
z
" transform="scale(0.015625)"/>
     <path id="DejaVuSans-Bold-32" d="M 1844 884 
L 3897 884 
L 3897 0 
L 506 0 
L 506 884 
L 2209 2388 
Q 2438 2594 2547 2791 
Q 2656 2988 2656 3200 
Q 2656 3528 2436 3728 
Q 2216 3928 1850 3928 
Q 1569 3928 1234 3808 
Q 900 3688 519 3450 
L 519 4475 
Q 925 4609 1322 4679 
Q 1719 4750 2100 4750 
Q 2938 4750 3402 4381 
Q 3866 4013 3866 3353 
Q 3866 2972 3669 2642 
Q 3472 2313 2841 1759 
L 1844 884 
z
" transform="scale(0.015625)"/>
     <path id="DejaVuSans-Bold-30" d="M 2944 2338 
Q 2944 3213 2780 3570 
Q 2616 3928 2228 3928 
Q 1841 3928 1675 3570 
Q 1509 3213 1509 2338 
Q 1509 1453 1675 1090 
Q 1841 728 2228 728 
Q 2613 728 2778 1090 
Q 2944 1453 2944 2338 
z
M 4147 2328 
Q 4147 1169 3647 539 
Q 3147 -91 2228 -91 
Q 1306 -91 806 539 
Q 306 1169 306 2328 
Q 306 3491 806 4120 
Q 1306 4750 2228 4750 
Q 3147 4750 3647 4120 
Q 4147 3491 4147 2328 
z
" transform="scale(0.015625)"/>
     <path id="DejaVuSans-Bold-35" d="M 678 4666 
L 3669 4666 
L 3669 3781 
L 1638 3781 
L 1638 3059 
Q 1775 3097 1914 3117 
Q 2053 3138 2203 3138 
Q 3056 3138 3531 2711 
Q 4006 2284 4006 1522 
Q 4006 766 3489 337 
Q 2972 -91 2053 -91 
Q 1656 -91 1267 -14 
Q 878 63 494 219 
L 494 1166 
Q 875 947 1217 837 
Q 1559 728 1863 728 
Q 2300 728 2551 942 
Q 2803 1156 2803 1522 
Q 2803 1891 2551 2103 
Q 2300 2316 1863 2316 
Q 1603 2316 1309 2248 
Q 1016 2181 678 2041 
L 678 4666 
z
" transform="scale(0.015625)"/>
    </defs>
    <use xlink:href="#DejaVuSans-Bold-4b"/>
    <use xlink:href="#DejaVuSans-Bold-75" x="75.740234"/>
    <use xlink:href="#DejaVuSans-Bold-62" x="146.931641"/>
    <use xlink:href="#DejaVuSans-Bold-69" x="218.513672"/>
    <use xlink:href="#DejaVuSans-Bold-74" x="252.791016"/>
    <use xlink:href="#DejaVuSans-Bold-7a" x="300.59375"/>
    <use xlink:href="#DejaVuSans-Bold-61" x="358.796875"/>
    <use xlink:href="#DejaVuSans-Bold-32" x="426.277344"/>
    <use xlink:href="#DejaVuSans-Bold-30" x="495.857422"/>
    <use xlink:href="#DejaVuSans-Bold-30" x="565.4375"/>
    <use xlink:href="#DejaVuSans-Bold-35" x="635.017578"/>
    <use xlink:href="#DejaVuSans-Bold-61" x="704.597656"/>
   </g>
  </g>
 </g>
 <defs>
  <clipPath id="pfc3930f0c5">
   <rect x="72.064531" y="79.2" width="390.6" height="241.043478"/>
  </clipPath>
  <clipPath id="p235d7e9e99">
   <rect x="72.064531" y="392.556522" width="390.6" height="241.043478"/>
  </clipPath>
 </defs>
</svg>
