<?xml version="1.0" encoding="utf-8" standalone="no"?>
<!DOCTYPE svg PUBLIC "-//W3C//DTD SVG 1.1//EN"
  "http://www.w3.org/Graphics/SVG/1.1/DTD/svg11.dtd">
<svg xmlns:xlink="http://www.w3.org/1999/xlink" width="466.83875pt" height="683.737812pt" viewBox="0 0 466.83875 683.737812" xmlns="http://www.w3.org/2000/svg" version="1.1">
 <metadata>
  <rdf:RDF xmlns:dc="http://purl.org/dc/elements/1.1/" xmlns:cc="http://creativecommons.org/ns#" xmlns:rdf="http://www.w3.org/1999/02/22-rdf-syntax-ns#">
   <cc:Work>
    <dc:type rdf:resource="http://purl.org/dc/dcmitype/StillImage"/>
    <dc:date>2025-07-19T10:58:45.846836</dc:date>
    <dc:format>image/svg+xml</dc:format>
    <dc:creator>
     <cc:Agent>
      <dc:title>Matplotlib v3.9.1, https://matplotlib.org/</dc:title>
     </cc:Agent>
    </dc:creator>
   </cc:Work>
  </rdf:RDF>
 </metadata>
 <defs>
  <style type="text/css">*{stroke-linejoin: round; stroke-linecap: butt}</style>
 </defs>
 <g id="figure_1">
  <g id="patch_1">
   <path d="M 0 683.737812 
L 466.83875 683.737812 
L 466.83875 0 
L 0 0 
z
" style="fill: #ffffff"/>
  </g>
  <g id="axes_1">
   <g id="patch_2">
    <path d="M 69.03875 320.243478 
L 459.63875 320.243478 
L 459.63875 79.2 
L 69.03875 79.2 
z
" style="fill: #ffffff"/>
   </g>
   <g id="matplotlib.axis_1">
    <g id="xtick_1">
     <g id="line2d_1">
      <defs>
       <path id="mc6063974f1" d="M 0 0 
L 0 3.5 
" style="stroke: #000000; stroke-width: 0.8"/>
      </defs>
      <g>
       <use xlink:href="#mc6063974f1" x="86.793295" y="320.243478" style="stroke: #000000; stroke-width: 0.8"/>
      </g>
     </g>
     <g id="text_1">
      <!-- 0 -->
      <g transform="translate(82.02142 338.641135) scale(0.15 -0.15)">
       <defs>
        <path id="DejaVuSans-30" d="M 2034 4250 
Q 1547 4250 1301 3770 
Q 1056 3291 1056 2328 
Q 1056 1369 1301 889 
Q 1547 409 2034 409 
Q 2525 409 2770 889 
Q 3016 1369 3016 2328 
Q 3016 3291 2770 3770 
Q 2525 4250 2034 4250 
z
M 2034 4750 
Q 2819 4750 3233 4129 
Q 3647 3509 3647 2328 
Q 3647 1150 3233 529 
Q 2819 -91 2034 -91 
Q 1250 -91 836 529 
Q 422 1150 422 2328 
Q 422 3509 836 4129 
Q 1250 4750 2034 4750 
z
" transform="scale(0.015625)"/>
       </defs>
       <use xlink:href="#DejaVuSans-30"/>
      </g>
     </g>
    </g>
    <g id="xtick_2">
     <g id="line2d_2">
      <g>
       <use xlink:href="#mc6063974f1" x="175.566023" y="320.243478" style="stroke: #000000; stroke-width: 0.8"/>
      </g>
     </g>
     <g id="text_2">
      <!-- 20 -->
      <g transform="translate(166.022273 338.641135) scale(0.15 -0.15)">
       <defs>
        <path id="DejaVuSans-32" d="M 1228 531 
L 3431 531 
L 3431 0 
L 469 0 
L 469 531 
Q 828 903 1448 1529 
Q 2069 2156 2228 2338 
Q 2531 2678 2651 2914 
Q 2772 3150 2772 3378 
Q 2772 3750 2511 3984 
Q 2250 4219 1831 4219 
Q 1534 4219 1204 4116 
Q 875 4013 500 3803 
L 500 4441 
Q 881 4594 1212 4672 
Q 1544 4750 1819 4750 
Q 2544 4750 2975 4387 
Q 3406 4025 3406 3419 
Q 3406 3131 3298 2873 
Q 3191 2616 2906 2266 
Q 2828 2175 2409 1742 
Q 1991 1309 1228 531 
z
" transform="scale(0.015625)"/>
       </defs>
       <use xlink:href="#DejaVuSans-32"/>
       <use xlink:href="#DejaVuSans-30" x="63.623047"/>
      </g>
     </g>
    </g>
    <g id="xtick_3">
     <g id="line2d_3">
      <g>
       <use xlink:href="#mc6063974f1" x="264.33875" y="320.243478" style="stroke: #000000; stroke-width: 0.8"/>
      </g>
     </g>
     <g id="text_3">
      <!-- 40 -->
      <g transform="translate(254.795 338.641135) scale(0.15 -0.15)">
       <defs>
        <path id="DejaVuSans-34" d="M 2419 4116 
L 825 1625 
L 2419 1625 
L 2419 4116 
z
M 2253 4666 
L 3047 4666 
L 3047 1625 
L 3713 1625 
L 3713 1100 
L 3047 1100 
L 3047 0 
L 2419 0 
L 2419 1100 
L 313 1100 
L 313 1709 
L 2253 4666 
z
" transform="scale(0.015625)"/>
       </defs>
       <use xlink:href="#DejaVuSans-34"/>
       <use xlink:href="#DejaVuSans-30" x="63.623047"/>
      </g>
     </g>
    </g>
    <g id="xtick_4">
     <g id="line2d_4">
      <g>
       <use xlink:href="#mc6063974f1" x="353.111477" y="320.243478" style="stroke: #000000; stroke-width: 0.8"/>
      </g>
     </g>
     <g id="text_4">
      <!-- 60 -->
      <g transform="translate(343.567727 338.641135) scale(0.15 -0.15)">
       <defs>
        <path id="DejaVuSans-36" d="M 2113 2584 
Q 1688 2584 1439 2293 
Q 1191 2003 1191 1497 
Q 1191 994 1439 701 
Q 1688 409 2113 409 
Q 2538 409 2786 701 
Q 3034 994 3034 1497 
Q 3034 2003 2786 2293 
Q 2538 2584 2113 2584 
z
M 3366 4563 
L 3366 3988 
Q 3128 4100 2886 4159 
Q 2644 4219 2406 4219 
Q 1781 4219 1451 3797 
Q 1122 3375 1075 2522 
Q 1259 2794 1537 2939 
Q 1816 3084 2150 3084 
Q 2853 3084 3261 2657 
Q 3669 2231 3669 1497 
Q 3669 778 3244 343 
Q 2819 -91 2113 -91 
Q 1303 -91 875 529 
Q 447 1150 447 2328 
Q 447 3434 972 4092 
Q 1497 4750 2381 4750 
Q 2619 4750 2861 4703 
Q 3103 4656 3366 4563 
z
" transform="scale(0.015625)"/>
       </defs>
       <use xlink:href="#DejaVuSans-36"/>
       <use xlink:href="#DejaVuSans-30" x="63.623047"/>
      </g>
     </g>
    </g>
    <g id="xtick_5">
     <g id="line2d_5">
      <g>
       <use xlink:href="#mc6063974f1" x="441.884205" y="320.243478" style="stroke: #000000; stroke-width: 0.8"/>
      </g>
     </g>
     <g id="text_5">
      <!-- 80 -->
      <g transform="translate(432.340455 338.641135) scale(0.15 -0.15)">
       <defs>
        <path id="DejaVuSans-38" d="M 2034 2216 
Q 1584 2216 1326 1975 
Q 1069 1734 1069 1313 
Q 1069 891 1326 650 
Q 1584 409 2034 409 
Q 2484 409 2743 651 
Q 3003 894 3003 1313 
Q 3003 1734 2745 1975 
Q 2488 2216 2034 2216 
z
M 1403 2484 
Q 997 2584 770 2862 
Q 544 3141 544 3541 
Q 544 4100 942 4425 
Q 1341 4750 2034 4750 
Q 2731 4750 3128 4425 
Q 3525 4100 3525 3541 
Q 3525 3141 3298 2862 
Q 3072 2584 2669 2484 
Q 3125 2378 3379 2068 
Q 3634 1759 3634 1313 
Q 3634 634 3220 271 
Q 2806 -91 2034 -91 
Q 1263 -91 848 271 
Q 434 634 434 1313 
Q 434 1759 690 2068 
Q 947 2378 1403 2484 
z
M 1172 3481 
Q 1172 3119 1398 2916 
Q 1625 2713 2034 2713 
Q 2441 2713 2670 2916 
Q 2900 3119 2900 3481 
Q 2900 3844 2670 4047 
Q 2441 4250 2034 4250 
Q 1625 4250 1398 4047 
Q 1172 3844 1172 3481 
z
" transform="scale(0.015625)"/>
       </defs>
       <use xlink:href="#DejaVuSans-38"/>
       <use xlink:href="#DejaVuSans-30" x="63.623047"/>
      </g>
     </g>
    </g>
    <g id="text_6">
     <!-- time [hr] -->
     <g transform="translate(219.264219 359.437853) scale(0.18 -0.18)">
      <defs>
       <path id="DejaVuSans-Bold-74" d="M 1759 4494 
L 1759 3500 
L 2913 3500 
L 2913 2700 
L 1759 2700 
L 1759 1216 
Q 1759 972 1856 886 
Q 1953 800 2241 800 
L 2816 800 
L 2816 0 
L 1856 0 
Q 1194 0 917 276 
Q 641 553 641 1216 
L 641 2700 
L 84 2700 
L 84 3500 
L 641 3500 
L 641 4494 
L 1759 4494 
z
" transform="scale(0.015625)"/>
       <path id="DejaVuSans-Bold-69" d="M 538 3500 
L 1656 3500 
L 1656 0 
L 538 0 
L 538 3500 
z
M 538 4863 
L 1656 4863 
L 1656 3950 
L 538 3950 
L 538 4863 
z
" transform="scale(0.015625)"/>
       <path id="DejaVuSans-Bold-6d" d="M 3781 2919 
Q 3994 3244 4286 3414 
Q 4578 3584 4928 3584 
Q 5531 3584 5847 3212 
Q 6163 2841 6163 2131 
L 6163 0 
L 5038 0 
L 5038 1825 
Q 5041 1866 5042 1909 
Q 5044 1953 5044 2034 
Q 5044 2406 4934 2573 
Q 4825 2741 4581 2741 
Q 4263 2741 4089 2478 
Q 3916 2216 3909 1719 
L 3909 0 
L 2784 0 
L 2784 1825 
Q 2784 2406 2684 2573 
Q 2584 2741 2328 2741 
Q 2006 2741 1831 2477 
Q 1656 2213 1656 1722 
L 1656 0 
L 531 0 
L 531 3500 
L 1656 3500 
L 1656 2988 
Q 1863 3284 2130 3434 
Q 2397 3584 2719 3584 
Q 3081 3584 3359 3409 
Q 3638 3234 3781 2919 
z
" transform="scale(0.015625)"/>
       <path id="DejaVuSans-Bold-65" d="M 4031 1759 
L 4031 1441 
L 1416 1441 
Q 1456 1047 1700 850 
Q 1944 653 2381 653 
Q 2734 653 3104 758 
Q 3475 863 3866 1075 
L 3866 213 
Q 3469 63 3072 -14 
Q 2675 -91 2278 -91 
Q 1328 -91 801 392 
Q 275 875 275 1747 
Q 275 2603 792 3093 
Q 1309 3584 2216 3584 
Q 3041 3584 3536 3087 
Q 4031 2591 4031 1759 
z
M 2881 2131 
Q 2881 2450 2695 2645 
Q 2509 2841 2209 2841 
Q 1884 2841 1681 2658 
Q 1478 2475 1428 2131 
L 2881 2131 
z
" transform="scale(0.015625)"/>
       <path id="DejaVuSans-Bold-20" transform="scale(0.015625)"/>
       <path id="DejaVuSans-Bold-5b" d="M 550 4863 
L 2491 4863 
L 2491 4159 
L 1613 4159 
L 1613 -141 
L 2491 -141 
L 2491 -844 
L 550 -844 
L 550 4863 
z
" transform="scale(0.015625)"/>
       <path id="DejaVuSans-Bold-68" d="M 4056 2131 
L 4056 0 
L 2931 0 
L 2931 347 
L 2931 1625 
Q 2931 2084 2911 2256 
Q 2891 2428 2841 2509 
Q 2775 2619 2662 2680 
Q 2550 2741 2406 2741 
Q 2056 2741 1856 2470 
Q 1656 2200 1656 1722 
L 1656 0 
L 538 0 
L 538 4863 
L 1656 4863 
L 1656 2988 
Q 1909 3294 2193 3439 
Q 2478 3584 2822 3584 
Q 3428 3584 3742 3212 
Q 4056 2841 4056 2131 
z
" transform="scale(0.015625)"/>
       <path id="DejaVuSans-Bold-72" d="M 3138 2547 
Q 2991 2616 2845 2648 
Q 2700 2681 2553 2681 
Q 2122 2681 1889 2404 
Q 1656 2128 1656 1613 
L 1656 0 
L 538 0 
L 538 3500 
L 1656 3500 
L 1656 2925 
Q 1872 3269 2151 3426 
Q 2431 3584 2822 3584 
Q 2878 3584 2943 3579 
Q 3009 3575 3134 3559 
L 3138 2547 
z
" transform="scale(0.015625)"/>
       <path id="DejaVuSans-Bold-5d" d="M 2375 -844 
L 434 -844 
L 434 -141 
L 1313 -141 
L 1313 4159 
L 434 4159 
L 434 4863 
L 2375 4863 
L 2375 -844 
z
" transform="scale(0.015625)"/>
      </defs>
      <use xlink:href="#DejaVuSans-Bold-74"/>
      <use xlink:href="#DejaVuSans-Bold-69" x="47.802734"/>
      <use xlink:href="#DejaVuSans-Bold-6d" x="82.080078"/>
      <use xlink:href="#DejaVuSans-Bold-65" x="186.279297"/>
      <use xlink:href="#DejaVuSans-Bold-20" x="254.101562"/>
      <use xlink:href="#DejaVuSans-Bold-5b" x="288.916016"/>
      <use xlink:href="#DejaVuSans-Bold-68" x="334.619141"/>
      <use xlink:href="#DejaVuSans-Bold-72" x="405.810547"/>
      <use xlink:href="#DejaVuSans-Bold-5d" x="455.126953"/>
     </g>
    </g>
   </g>
   <g id="matplotlib.axis_2">
    <g id="ytick_1">
     <g id="line2d_6">
      <defs>
       <path id="mb34ff94273" d="M 0 0 
L -3.5 0 
" style="stroke: #000000; stroke-width: 0.8"/>
      </defs>
      <g>
       <use xlink:href="#mb34ff94273" x="69.03875" y="307.652752" style="stroke: #000000; stroke-width: 0.8"/>
      </g>
     </g>
     <g id="text_7">
      <!-- 0.0 -->
      <g transform="translate(38.184063 313.35158) scale(0.15 -0.15)">
       <defs>
        <path id="DejaVuSans-2e" d="M 684 794 
L 1344 794 
L 1344 0 
L 684 0 
L 684 794 
z
" transform="scale(0.015625)"/>
       </defs>
       <use xlink:href="#DejaVuSans-30"/>
       <use xlink:href="#DejaVuSans-2e" x="63.623047"/>
       <use xlink:href="#DejaVuSans-30" x="95.410156"/>
      </g>
     </g>
    </g>
    <g id="ytick_2">
     <g id="line2d_7">
      <g>
       <use xlink:href="#mb34ff94273" x="69.03875" y="276.899452" style="stroke: #000000; stroke-width: 0.8"/>
      </g>
     </g>
     <g id="text_8">
      <!-- 0.1 -->
      <g transform="translate(38.184063 282.59828) scale(0.15 -0.15)">
       <defs>
        <path id="DejaVuSans-31" d="M 794 531 
L 1825 531 
L 1825 4091 
L 703 3866 
L 703 4441 
L 1819 4666 
L 2450 4666 
L 2450 531 
L 3481 531 
L 3481 0 
L 794 0 
L 794 531 
z
" transform="scale(0.015625)"/>
       </defs>
       <use xlink:href="#DejaVuSans-30"/>
       <use xlink:href="#DejaVuSans-2e" x="63.623047"/>
       <use xlink:href="#DejaVuSans-31" x="95.410156"/>
      </g>
     </g>
    </g>
    <g id="ytick_3">
     <g id="line2d_8">
      <g>
       <use xlink:href="#mb34ff94273" x="69.03875" y="246.146152" style="stroke: #000000; stroke-width: 0.8"/>
      </g>
     </g>
     <g id="text_9">
      <!-- 0.2 -->
      <g transform="translate(38.184063 251.84498) scale(0.15 -0.15)">
       <use xlink:href="#DejaVuSans-30"/>
       <use xlink:href="#DejaVuSans-2e" x="63.623047"/>
       <use xlink:href="#DejaVuSans-32" x="95.410156"/>
      </g>
     </g>
    </g>
    <g id="ytick_4">
     <g id="line2d_9">
      <g>
       <use xlink:href="#mb34ff94273" x="69.03875" y="215.392851" style="stroke: #000000; stroke-width: 0.8"/>
      </g>
     </g>
     <g id="text_10">
      <!-- 0.3 -->
      <g transform="translate(38.184063 221.091679) scale(0.15 -0.15)">
       <defs>
        <path id="DejaVuSans-33" d="M 2597 2516 
Q 3050 2419 3304 2112 
Q 3559 1806 3559 1356 
Q 3559 666 3084 287 
Q 2609 -91 1734 -91 
Q 1441 -91 1130 -33 
Q 819 25 488 141 
L 488 750 
Q 750 597 1062 519 
Q 1375 441 1716 441 
Q 2309 441 2620 675 
Q 2931 909 2931 1356 
Q 2931 1769 2642 2001 
Q 2353 2234 1838 2234 
L 1294 2234 
L 1294 2753 
L 1863 2753 
Q 2328 2753 2575 2939 
Q 2822 3125 2822 3475 
Q 2822 3834 2567 4026 
Q 2313 4219 1838 4219 
Q 1578 4219 1281 4162 
Q 984 4106 628 3988 
L 628 4550 
Q 988 4650 1302 4700 
Q 1616 4750 1894 4750 
Q 2613 4750 3031 4423 
Q 3450 4097 3450 3541 
Q 3450 3153 3228 2886 
Q 3006 2619 2597 2516 
z
" transform="scale(0.015625)"/>
       </defs>
       <use xlink:href="#DejaVuSans-30"/>
       <use xlink:href="#DejaVuSans-2e" x="63.623047"/>
       <use xlink:href="#DejaVuSans-33" x="95.410156"/>
      </g>
     </g>
    </g>
    <g id="ytick_5">
     <g id="line2d_10">
      <g>
       <use xlink:href="#mb34ff94273" x="69.03875" y="184.639551" style="stroke: #000000; stroke-width: 0.8"/>
      </g>
     </g>
     <g id="text_11">
      <!-- 0.4 -->
      <g transform="translate(38.184063 190.338379) scale(0.15 -0.15)">
       <use xlink:href="#DejaVuSans-30"/>
       <use xlink:href="#DejaVuSans-2e" x="63.623047"/>
       <use xlink:href="#DejaVuSans-34" x="95.410156"/>
      </g>
     </g>
    </g>
    <g id="ytick_6">
     <g id="line2d_11">
      <g>
       <use xlink:href="#mb34ff94273" x="69.03875" y="153.886251" style="stroke: #000000; stroke-width: 0.8"/>
      </g>
     </g>
     <g id="text_12">
      <!-- 0.5 -->
      <g transform="translate(38.184063 159.585079) scale(0.15 -0.15)">
       <defs>
        <path id="DejaVuSans-35" d="M 691 4666 
L 3169 4666 
L 3169 4134 
L 1269 4134 
L 1269 2991 
Q 1406 3038 1543 3061 
Q 1681 3084 1819 3084 
Q 2600 3084 3056 2656 
Q 3513 2228 3513 1497 
Q 3513 744 3044 326 
Q 2575 -91 1722 -91 
Q 1428 -91 1123 -41 
Q 819 9 494 109 
L 494 744 
Q 775 591 1075 516 
Q 1375 441 1709 441 
Q 2250 441 2565 725 
Q 2881 1009 2881 1497 
Q 2881 1984 2565 2268 
Q 2250 2553 1709 2553 
Q 1456 2553 1204 2497 
Q 953 2441 691 2322 
L 691 4666 
z
" transform="scale(0.015625)"/>
       </defs>
       <use xlink:href="#DejaVuSans-30"/>
       <use xlink:href="#DejaVuSans-2e" x="63.623047"/>
       <use xlink:href="#DejaVuSans-35" x="95.410156"/>
      </g>
     </g>
    </g>
    <g id="ytick_7">
     <g id="line2d_12">
      <g>
       <use xlink:href="#mb34ff94273" x="69.03875" y="123.132951" style="stroke: #000000; stroke-width: 0.8"/>
      </g>
     </g>
     <g id="text_13">
      <!-- 0.6 -->
      <g transform="translate(38.184063 128.831779) scale(0.15 -0.15)">
       <use xlink:href="#DejaVuSans-30"/>
       <use xlink:href="#DejaVuSans-2e" x="63.623047"/>
       <use xlink:href="#DejaVuSans-36" x="95.410156"/>
      </g>
     </g>
    </g>
    <g id="ytick_8">
     <g id="line2d_13">
      <g>
       <use xlink:href="#mb34ff94273" x="69.03875" y="92.37965" style="stroke: #000000; stroke-width: 0.8"/>
      </g>
     </g>
     <g id="text_14">
      <!-- 0.7 -->
      <g transform="translate(38.184063 98.078479) scale(0.15 -0.15)">
       <defs>
        <path id="DejaVuSans-37" d="M 525 4666 
L 3525 4666 
L 3525 4397 
L 1831 0 
L 1172 0 
L 2766 4134 
L 525 4134 
L 525 4666 
z
" transform="scale(0.015625)"/>
       </defs>
       <use xlink:href="#DejaVuSans-30"/>
       <use xlink:href="#DejaVuSans-2e" x="63.623047"/>
       <use xlink:href="#DejaVuSans-37" x="95.410156"/>
      </g>
     </g>
    </g>
    <g id="text_15">
     <!-- rivaroxaban plasma [µM] -->
     <g transform="translate(30.420938 327.088614) rotate(-90) scale(0.18 -0.18)">
      <defs>
       <path id="DejaVuSans-Bold-76" d="M 97 3500 
L 1216 3500 
L 2088 1081 
L 2956 3500 
L 4078 3500 
L 2700 0 
L 1472 0 
L 97 3500 
z
" transform="scale(0.015625)"/>
       <path id="DejaVuSans-Bold-61" d="M 2106 1575 
Q 1756 1575 1579 1456 
Q 1403 1338 1403 1106 
Q 1403 894 1545 773 
Q 1688 653 1941 653 
Q 2256 653 2472 879 
Q 2688 1106 2688 1447 
L 2688 1575 
L 2106 1575 
z
M 3816 1997 
L 3816 0 
L 2688 0 
L 2688 519 
Q 2463 200 2181 54 
Q 1900 -91 1497 -91 
Q 953 -91 614 226 
Q 275 544 275 1050 
Q 275 1666 698 1953 
Q 1122 2241 2028 2241 
L 2688 2241 
L 2688 2328 
Q 2688 2594 2478 2717 
Q 2269 2841 1825 2841 
Q 1466 2841 1156 2769 
Q 847 2697 581 2553 
L 581 3406 
Q 941 3494 1303 3539 
Q 1666 3584 2028 3584 
Q 2975 3584 3395 3211 
Q 3816 2838 3816 1997 
z
" transform="scale(0.015625)"/>
       <path id="DejaVuSans-Bold-6f" d="M 2203 2784 
Q 1831 2784 1636 2517 
Q 1441 2250 1441 1747 
Q 1441 1244 1636 976 
Q 1831 709 2203 709 
Q 2569 709 2762 976 
Q 2956 1244 2956 1747 
Q 2956 2250 2762 2517 
Q 2569 2784 2203 2784 
z
M 2203 3584 
Q 3106 3584 3614 3096 
Q 4122 2609 4122 1747 
Q 4122 884 3614 396 
Q 3106 -91 2203 -91 
Q 1297 -91 786 396 
Q 275 884 275 1747 
Q 275 2609 786 3096 
Q 1297 3584 2203 3584 
z
" transform="scale(0.015625)"/>
       <path id="DejaVuSans-Bold-78" d="M 1422 1791 
L 159 3500 
L 1344 3500 
L 2059 2463 
L 2784 3500 
L 3969 3500 
L 2706 1797 
L 4031 0 
L 2847 0 
L 2059 1106 
L 1281 0 
L 97 0 
L 1422 1791 
z
" transform="scale(0.015625)"/>
       <path id="DejaVuSans-Bold-62" d="M 2400 722 
Q 2759 722 2948 984 
Q 3138 1247 3138 1747 
Q 3138 2247 2948 2509 
Q 2759 2772 2400 2772 
Q 2041 2772 1848 2508 
Q 1656 2244 1656 1747 
Q 1656 1250 1848 986 
Q 2041 722 2400 722 
z
M 1656 2988 
Q 1888 3294 2169 3439 
Q 2450 3584 2816 3584 
Q 3463 3584 3878 3070 
Q 4294 2556 4294 1747 
Q 4294 938 3878 423 
Q 3463 -91 2816 -91 
Q 2450 -91 2169 54 
Q 1888 200 1656 506 
L 1656 0 
L 538 0 
L 538 4863 
L 1656 4863 
L 1656 2988 
z
" transform="scale(0.015625)"/>
       <path id="DejaVuSans-Bold-6e" d="M 4056 2131 
L 4056 0 
L 2931 0 
L 2931 347 
L 2931 1631 
Q 2931 2084 2911 2256 
Q 2891 2428 2841 2509 
Q 2775 2619 2662 2680 
Q 2550 2741 2406 2741 
Q 2056 2741 1856 2470 
Q 1656 2200 1656 1722 
L 1656 0 
L 538 0 
L 538 3500 
L 1656 3500 
L 1656 2988 
Q 1909 3294 2193 3439 
Q 2478 3584 2822 3584 
Q 3428 3584 3742 3212 
Q 4056 2841 4056 2131 
z
" transform="scale(0.015625)"/>
       <path id="DejaVuSans-Bold-70" d="M 1656 506 
L 1656 -1331 
L 538 -1331 
L 538 3500 
L 1656 3500 
L 1656 2988 
Q 1888 3294 2169 3439 
Q 2450 3584 2816 3584 
Q 3463 3584 3878 3070 
Q 4294 2556 4294 1747 
Q 4294 938 3878 423 
Q 3463 -91 2816 -91 
Q 2450 -91 2169 54 
Q 1888 200 1656 506 
z
M 2400 2772 
Q 2041 2772 1848 2508 
Q 1656 2244 1656 1747 
Q 1656 1250 1848 986 
Q 2041 722 2400 722 
Q 2759 722 2948 984 
Q 3138 1247 3138 1747 
Q 3138 2247 2948 2509 
Q 2759 2772 2400 2772 
z
" transform="scale(0.015625)"/>
       <path id="DejaVuSans-Bold-6c" d="M 538 4863 
L 1656 4863 
L 1656 0 
L 538 0 
L 538 4863 
z
" transform="scale(0.015625)"/>
       <path id="DejaVuSans-Bold-73" d="M 3272 3391 
L 3272 2541 
Q 2913 2691 2578 2766 
Q 2244 2841 1947 2841 
Q 1628 2841 1473 2761 
Q 1319 2681 1319 2516 
Q 1319 2381 1436 2309 
Q 1553 2238 1856 2203 
L 2053 2175 
Q 2913 2066 3209 1816 
Q 3506 1566 3506 1031 
Q 3506 472 3093 190 
Q 2681 -91 1863 -91 
Q 1516 -91 1145 -36 
Q 775 19 384 128 
L 384 978 
Q 719 816 1070 734 
Q 1422 653 1784 653 
Q 2113 653 2278 743 
Q 2444 834 2444 1013 
Q 2444 1163 2330 1236 
Q 2216 1309 1875 1350 
L 1678 1375 
Q 931 1469 631 1722 
Q 331 1975 331 2491 
Q 331 3047 712 3315 
Q 1094 3584 1881 3584 
Q 2191 3584 2531 3537 
Q 2872 3491 3272 3391 
z
" transform="scale(0.015625)"/>
       <path id="DejaVuSans-Bold-b5" d="M 544 -1338 
L 544 3500 
L 1672 3500 
L 1672 1466 
Q 1672 1103 1828 926 
Q 1984 750 2303 750 
Q 2625 750 2781 926 
Q 2938 1103 2938 1466 
L 2938 3500 
L 4063 3500 
L 4063 1159 
Q 4063 938 4114 850 
Q 4166 763 4288 763 
Q 4344 763 4395 778 
Q 4447 794 4506 831 
L 4506 50 
Q 4341 -22 4195 -56 
Q 4050 -91 3909 -91 
Q 3631 -91 3454 26 
Q 3278 144 3169 403 
Q 3022 156 2811 32 
Q 2600 -91 2322 -91 
Q 2091 -91 1928 -17 
Q 1766 56 1672 206 
L 1672 -1338 
L 544 -1338 
z
" transform="scale(0.015625)"/>
       <path id="DejaVuSans-Bold-4d" d="M 588 4666 
L 2119 4666 
L 3181 2169 
L 4250 4666 
L 5778 4666 
L 5778 0 
L 4641 0 
L 4641 3413 
L 3566 897 
L 2803 897 
L 1728 3413 
L 1728 0 
L 588 0 
L 588 4666 
z
" transform="scale(0.015625)"/>
      </defs>
      <use xlink:href="#DejaVuSans-Bold-72"/>
      <use xlink:href="#DejaVuSans-Bold-69" x="49.316406"/>
      <use xlink:href="#DejaVuSans-Bold-76" x="83.59375"/>
      <use xlink:href="#DejaVuSans-Bold-61" x="148.779297"/>
      <use xlink:href="#DejaVuSans-Bold-72" x="216.259766"/>
      <use xlink:href="#DejaVuSans-Bold-6f" x="265.576172"/>
      <use xlink:href="#DejaVuSans-Bold-78" x="334.277344"/>
      <use xlink:href="#DejaVuSans-Bold-61" x="398.779297"/>
      <use xlink:href="#DejaVuSans-Bold-62" x="466.259766"/>
      <use xlink:href="#DejaVuSans-Bold-61" x="537.841797"/>
      <use xlink:href="#DejaVuSans-Bold-6e" x="605.322266"/>
      <use xlink:href="#DejaVuSans-Bold-20" x="676.513672"/>
      <use xlink:href="#DejaVuSans-Bold-70" x="711.328125"/>
      <use xlink:href="#DejaVuSans-Bold-6c" x="782.910156"/>
      <use xlink:href="#DejaVuSans-Bold-61" x="817.1875"/>
      <use xlink:href="#DejaVuSans-Bold-73" x="884.667969"/>
      <use xlink:href="#DejaVuSans-Bold-6d" x="944.189453"/>
      <use xlink:href="#DejaVuSans-Bold-61" x="1048.388672"/>
      <use xlink:href="#DejaVuSans-Bold-20" x="1115.869141"/>
      <use xlink:href="#DejaVuSans-Bold-5b" x="1150.683594"/>
      <use xlink:href="#DejaVuSans-Bold-b5" x="1196.386719"/>
      <use xlink:href="#DejaVuSans-Bold-4d" x="1269.970703"/>
      <use xlink:href="#DejaVuSans-Bold-5d" x="1369.482422"/>
     </g>
    </g>
   </g>
   <g id="LineCollection_1">
    <path d="M 90.009323 258.707968 
L 90.009323 164.289163 
" clip-path="url(#p5495fecb8c)" style="fill: none; stroke: #000000"/>
    <path d="M 91.378503 206.667887 
L 91.378503 145.757436 
" clip-path="url(#p5495fecb8c)" style="fill: none; stroke: #000000"/>
    <path d="M 96.719854 189.158076 
L 96.719854 153.976176 
" clip-path="url(#p5495fecb8c)" style="fill: none; stroke: #000000"/>
    <path d="M 101.403689 192.899613 
L 101.403689 115.052738 
" clip-path="url(#p5495fecb8c)" style="fill: none; stroke: #000000"/>
    <path d="M 105.414537 195.686107 
L 105.414537 90.156522 
" clip-path="url(#p5495fecb8c)" style="fill: none; stroke: #000000"/>
    <path d="M 114.70872 238.916402 
L 114.70872 159.222211 
" clip-path="url(#p5495fecb8c)" style="fill: none; stroke: #000000"/>
    <path d="M 123.356991 250.768626 
L 123.356991 191.25826 
" clip-path="url(#p5495fecb8c)" style="fill: none; stroke: #000000"/>
    <path d="M 140.056932 277.787875 
L 140.056932 243.161986 
" clip-path="url(#p5495fecb8c)" style="fill: none; stroke: #000000"/>
    <path d="M 193.320568 294.64278 
L 193.320568 286.795632 
" clip-path="url(#p5495fecb8c)" style="fill: none; stroke: #000000"/>
    <path d="M 246.584205 304.973889 
L 246.584205 298.590657 
" clip-path="url(#p5495fecb8c)" style="fill: none; stroke: #000000"/>
    <path d="M 299.847841 308.579867 
L 299.847841 301.883343 
" clip-path="url(#p5495fecb8c)" style="fill: none; stroke: #000000"/>
   </g>
   <g id="LineCollection_2">
    <path d="M 89.385615 249.649884 
L 89.385615 125.181549 
" clip-path="url(#p5495fecb8c)" style="fill: none; stroke: #2ca25f"/>
    <path d="M 95.924205 217.31473 
L 95.924205 118.129252 
" clip-path="url(#p5495fecb8c)" style="fill: none; stroke: #2ca25f"/>
    <path d="M 101.143931 215.585551 
L 101.143931 114.501541 
" clip-path="url(#p5495fecb8c)" style="fill: none; stroke: #2ca25f"/>
    <path d="M 105.05305 229.89587 
L 105.05305 110.804391 
" clip-path="url(#p5495fecb8c)" style="fill: none; stroke: #2ca25f"/>
    <path d="M 114.153 240.95354 
L 114.153 167.721991 
" clip-path="url(#p5495fecb8c)" style="fill: none; stroke: #2ca25f"/>
    <path d="M 122.613125 255.976885 
L 122.613125 185.114233 
" clip-path="url(#p5495fecb8c)" style="fill: none; stroke: #2ca25f"/>
    <path d="M 140.056932 273.948594 
L 140.056932 236.943543 
" clip-path="url(#p5495fecb8c)" style="fill: none; stroke: #2ca25f"/>
    <path d="M 193.320568 290.941388 
L 193.320568 272.593358 
" clip-path="url(#p5495fecb8c)" style="fill: none; stroke: #2ca25f"/>
    <path d="M 246.584205 303.74524 
L 246.584205 294.322091 
" clip-path="url(#p5495fecb8c)" style="fill: none; stroke: #2ca25f"/>
    <path d="M 299.847841 306.939368 
L 299.847841 297.429936 
" clip-path="url(#p5495fecb8c)" style="fill: none; stroke: #2ca25f"/>
    <path d="M 406.375114 309.286957 
L 406.375114 304.782844 
" clip-path="url(#p5495fecb8c)" style="fill: none; stroke: #2ca25f"/>
   </g>
   <g id="line2d_14">
    <path d="M 86.793295 307.652752 
L 87.148386 305.876042 
L 87.503477 300.417333 
L 88.213659 283.017403 
L 90.344205 223.147667 
L 91.409477 200.468228 
L 92.119659 188.851726 
L 92.829841 179.791125 
L 93.540023 172.97239 
L 94.250205 168.065824 
L 94.960386 164.75887 
L 95.670568 162.770954 
L 96.025659 162.194026 
L 96.38075 161.858376 
L 96.735841 161.739241 
L 97.090932 161.813964 
L 97.446023 162.061873 
L 98.156205 163.003713 
L 98.866386 164.434132 
L 99.931659 167.266957 
L 101.352023 171.910253 
L 103.482568 179.85142 
L 109.874205 204.296898 
L 112.714932 214.135866 
L 115.555659 223.131964 
L 118.041295 230.325031 
L 120.526932 236.920685 
L 123.012568 242.960809 
L 125.498205 248.488507 
L 128.338932 254.231817 
L 131.179659 259.418502 
L 134.020386 264.101996 
L 136.861114 268.330895 
L 139.701841 272.149228 
L 142.542568 275.596814 
L 145.383295 278.709634 
L 148.224023 281.520186 
L 151.419841 284.357183 
L 154.615659 286.886191 
L 157.811477 289.140647 
L 161.362386 291.359731 
L 164.913295 293.312809 
L 168.819295 295.191898 
L 172.725295 296.824753 
L 176.986386 298.36302 
L 181.602568 299.783875 
L 186.573841 301.07198 
L 191.900205 302.219053 
L 197.93675 303.279309 
L 204.683477 304.221438 
L 212.140386 305.028493 
L 220.662568 305.721155 
L 230.605114 306.301785 
L 242.678205 306.777565 
L 257.947114 307.147338 
L 278.897477 307.414812 
L 310.855659 307.57735 
L 377.257659 307.645828 
L 441.884205 307.652074 
L 441.884205 307.652074 
" clip-path="url(#p5495fecb8c)" style="fill: none; stroke: #000000; stroke-width: 2; stroke-linecap: square"/>
   </g>
   <g id="line2d_15">
    <path d="M 90.009323 211.498565 
L 91.378503 176.212661 
L 96.719854 171.567126 
L 101.403689 153.976176 
L 105.414537 142.921315 
L 114.70872 199.069306 
L 123.356991 221.013443 
L 140.056932 260.474931 
L 193.320568 290.719206 
L 246.584205 301.782273 
L 299.847841 305.231605 
" clip-path="url(#p5495fecb8c)" style="fill: none; stroke-dasharray: 3.7,1.6; stroke-dashoffset: 0; stroke: #000000"/>
    <defs>
     <path id="mdcad137f1e" d="M -3 3 
L 3 3 
L 3 -3 
L -3 -3 
z
" style="stroke: #000000; stroke-linejoin: miter"/>
    </defs>
    <g clip-path="url(#p5495fecb8c)">
     <use xlink:href="#mdcad137f1e" x="90.009323" y="211.498565" style="stroke: #000000; stroke-linejoin: miter"/>
     <use xlink:href="#mdcad137f1e" x="91.378503" y="176.212661" style="stroke: #000000; stroke-linejoin: miter"/>
     <use xlink:href="#mdcad137f1e" x="96.719854" y="171.567126" style="stroke: #000000; stroke-linejoin: miter"/>
     <use xlink:href="#mdcad137f1e" x="101.403689" y="153.976176" style="stroke: #000000; stroke-linejoin: miter"/>
     <use xlink:href="#mdcad137f1e" x="105.414537" y="142.921315" style="stroke: #000000; stroke-linejoin: miter"/>
     <use xlink:href="#mdcad137f1e" x="114.70872" y="199.069306" style="stroke: #000000; stroke-linejoin: miter"/>
     <use xlink:href="#mdcad137f1e" x="123.356991" y="221.013443" style="stroke: #000000; stroke-linejoin: miter"/>
     <use xlink:href="#mdcad137f1e" x="140.056932" y="260.474931" style="stroke: #000000; stroke-linejoin: miter"/>
     <use xlink:href="#mdcad137f1e" x="193.320568" y="290.719206" style="stroke: #000000; stroke-linejoin: miter"/>
     <use xlink:href="#mdcad137f1e" x="246.584205" y="301.782273" style="stroke: #000000; stroke-linejoin: miter"/>
     <use xlink:href="#mdcad137f1e" x="299.847841" y="305.231605" style="stroke: #000000; stroke-linejoin: miter"/>
    </g>
   </g>
   <g id="line2d_16">
    <path d="M 86.793295 307.652752 
L 87.148386 305.667065 
L 87.503477 299.534318 
L 88.213659 279.791032 
L 90.699295 199.830433 
L 91.764568 174.502301 
L 92.829841 155.888506 
L 93.540023 146.77545 
L 94.250205 139.914495 
L 94.960386 134.977999 
L 95.670568 131.663408 
L 96.38075 129.701342 
L 96.735841 129.152923 
L 97.090932 128.857428 
L 97.446023 128.790793 
L 97.801114 128.930865 
L 98.156205 129.257298 
L 98.866386 130.396189 
L 99.576568 132.076415 
L 100.641841 135.377614 
L 102.062205 140.799722 
L 104.19275 150.162452 
L 112.00475 185.778337 
L 114.845477 197.355717 
L 117.686205 207.944706 
L 120.171841 216.417337 
L 122.657477 224.190921 
L 125.143114 231.313007 
L 127.62875 237.83296 
L 130.114386 243.798977 
L 132.600023 249.256716 
L 135.44075 254.926219 
L 138.281477 260.045767 
L 141.122205 264.668454 
L 143.962932 268.84238 
L 146.803659 272.611054 
L 149.644386 276.013796 
L 152.485114 279.086124 
L 155.325841 281.860116 
L 158.521659 284.660209 
L 161.717477 287.15632 
L 164.913295 289.38145 
L 168.464205 291.571668 
L 172.015114 293.499341 
L 175.921114 295.353986 
L 179.827114 296.965602 
L 184.088205 298.483859 
L 188.704386 299.886233 
L 193.675659 301.157581 
L 199.002023 302.289734 
L 205.038568 303.336198 
L 211.785295 304.266072 
L 219.242205 305.062629 
L 227.764386 305.74628 
L 237.706932 306.319358 
L 249.780023 306.78895 
L 265.404023 307.160241 
L 286.354386 307.420886 
L 319.02275 307.581128 
L 387.910386 307.646737 
L 441.884205 307.651888 
L 441.884205 307.651888 
" clip-path="url(#p5495fecb8c)" style="fill: none; stroke: #2ca25f; stroke-width: 2; stroke-linecap: square"/>
   </g>
   <g id="line2d_17">
    <path d="M 89.385615 187.415717 
L 95.924205 167.721991 
L 101.143931 165.043546 
L 105.05305 170.350131 
L 114.153 204.337766 
L 122.613125 220.545559 
L 140.056932 255.446068 
L 193.320568 281.767373 
L 246.584205 299.033666 
L 299.847841 302.184652 
L 406.375114 307.0349 
" clip-path="url(#p5495fecb8c)" style="fill: none; stroke-dasharray: 3.7,1.6; stroke-dashoffset: 0; stroke: #2ca25f"/>
    <defs>
     <path id="m2623a03ec7" d="M -3 3 
L 3 3 
L 3 -3 
L -3 -3 
z
" style="stroke: #000000; stroke-linejoin: miter"/>
    </defs>
    <g clip-path="url(#p5495fecb8c)">
     <use xlink:href="#m2623a03ec7" x="89.385615" y="187.415717" style="fill: #2ca25f; stroke: #000000; stroke-linejoin: miter"/>
     <use xlink:href="#m2623a03ec7" x="95.924205" y="167.721991" style="fill: #2ca25f; stroke: #000000; stroke-linejoin: miter"/>
     <use xlink:href="#m2623a03ec7" x="101.143931" y="165.043546" style="fill: #2ca25f; stroke: #000000; stroke-linejoin: miter"/>
     <use xlink:href="#m2623a03ec7" x="105.05305" y="170.350131" style="fill: #2ca25f; stroke: #000000; stroke-linejoin: miter"/>
     <use xlink:href="#m2623a03ec7" x="114.153" y="204.337766" style="fill: #2ca25f; stroke: #000000; stroke-linejoin: miter"/>
     <use xlink:href="#m2623a03ec7" x="122.613125" y="220.545559" style="fill: #2ca25f; stroke: #000000; stroke-linejoin: miter"/>
     <use xlink:href="#m2623a03ec7" x="140.056932" y="255.446068" style="fill: #2ca25f; stroke: #000000; stroke-linejoin: miter"/>
     <use xlink:href="#m2623a03ec7" x="193.320568" y="281.767373" style="fill: #2ca25f; stroke: #000000; stroke-linejoin: miter"/>
     <use xlink:href="#m2623a03ec7" x="246.584205" y="299.033666" style="fill: #2ca25f; stroke: #000000; stroke-linejoin: miter"/>
     <use xlink:href="#m2623a03ec7" x="299.847841" y="302.184652" style="fill: #2ca25f; stroke: #000000; stroke-linejoin: miter"/>
     <use xlink:href="#m2623a03ec7" x="406.375114" y="307.0349" style="fill: #2ca25f; stroke: #000000; stroke-linejoin: miter"/>
    </g>
   </g>
   <g id="patch_3">
    <path d="M 69.03875 320.243478 
L 69.03875 79.2 
" style="fill: none; stroke: #000000; stroke-width: 0.8; stroke-linejoin: miter; stroke-linecap: square"/>
   </g>
   <g id="patch_4">
    <path d="M 459.63875 320.243478 
L 459.63875 79.2 
" style="fill: none; stroke: #000000; stroke-width: 0.8; stroke-linejoin: miter; stroke-linecap: square"/>
   </g>
   <g id="patch_5">
    <path d="M 69.03875 320.243478 
L 459.63875 320.243478 
" style="fill: none; stroke: #000000; stroke-width: 0.8; stroke-linejoin: miter; stroke-linecap: square"/>
   </g>
   <g id="patch_6">
    <path d="M 69.03875 79.2 
L 459.63875 79.2 
" style="fill: none; stroke: #000000; stroke-width: 0.8; stroke-linejoin: miter; stroke-linecap: square"/>
   </g>
   <g id="legend_1">
    <g id="patch_7">
     <path d="M 339.605938 145.9125 
L 452.63875 145.9125 
Q 454.63875 145.9125 454.63875 143.9125 
L 454.63875 86.2 
Q 454.63875 84.2 452.63875 84.2 
L 339.605938 84.2 
Q 337.605938 84.2 337.605938 86.2 
L 337.605938 143.9125 
Q 337.605938 145.9125 339.605938 145.9125 
z
" style="fill: #ffffff; opacity: 0.8; stroke: #cccccc; stroke-linejoin: miter"/>
    </g>
    <g id="line2d_18">
     <path d="M 341.605938 92.298437 
L 361.605938 92.298437 
" style="fill: none; stroke: #000000; stroke-width: 2; stroke-linecap: square"/>
    </g>
    <g id="line2d_19"/>
    <g id="text_16">
     <!-- NRF -->
     <g transform="translate(369.605938 95.798437) scale(0.1 -0.1)">
      <defs>
       <path id="DejaVuSans-4e" d="M 628 4666 
L 1478 4666 
L 3547 763 
L 3547 4666 
L 4159 4666 
L 4159 0 
L 3309 0 
L 1241 3903 
L 1241 0 
L 628 0 
L 628 4666 
z
" transform="scale(0.015625)"/>
       <path id="DejaVuSans-52" d="M 2841 2188 
Q 3044 2119 3236 1894 
Q 3428 1669 3622 1275 
L 4263 0 
L 3584 0 
L 2988 1197 
Q 2756 1666 2539 1819 
Q 2322 1972 1947 1972 
L 1259 1972 
L 1259 0 
L 628 0 
L 628 4666 
L 2053 4666 
Q 2853 4666 3247 4331 
Q 3641 3997 3641 3322 
Q 3641 2881 3436 2590 
Q 3231 2300 2841 2188 
z
M 1259 4147 
L 1259 2491 
L 2053 2491 
Q 2509 2491 2742 2702 
Q 2975 2913 2975 3322 
Q 2975 3731 2742 3939 
Q 2509 4147 2053 4147 
L 1259 4147 
z
" transform="scale(0.015625)"/>
       <path id="DejaVuSans-46" d="M 628 4666 
L 3309 4666 
L 3309 4134 
L 1259 4134 
L 1259 2759 
L 3109 2759 
L 3109 2228 
L 1259 2228 
L 1259 0 
L 628 0 
L 628 4666 
z
" transform="scale(0.015625)"/>
      </defs>
      <use xlink:href="#DejaVuSans-4e"/>
      <use xlink:href="#DejaVuSans-52" x="74.804688"/>
      <use xlink:href="#DejaVuSans-46" x="144.287109"/>
     </g>
    </g>
    <g id="LineCollection_3">
     <path d="M 351.605938 111.976562 
L 351.605938 101.976562 
" style="fill: none; stroke: #000000"/>
    </g>
    <g id="line2d_20">
     <path d="M 341.605938 106.976562 
L 361.605938 106.976562 
" style="fill: none; stroke-dasharray: 3.7,1.6; stroke-dashoffset: 0; stroke: #000000"/>
    </g>
    <g id="line2d_21">
     <g>
      <use xlink:href="#mdcad137f1e" x="351.605938" y="106.976562" style="stroke: #000000; stroke-linejoin: miter"/>
     </g>
    </g>
    <g id="text_17">
     <!-- NRF±SD (n=13) -->
     <g transform="translate(369.605938 110.476562) scale(0.1 -0.1)">
      <defs>
       <path id="DejaVuSans-b1" d="M 2944 4013 
L 2944 2803 
L 4684 2803 
L 4684 2272 
L 2944 2272 
L 2944 1063 
L 2419 1063 
L 2419 2272 
L 678 2272 
L 678 2803 
L 2419 2803 
L 2419 4013 
L 2944 4013 
z
M 678 531 
L 4684 531 
L 4684 0 
L 678 0 
L 678 531 
z
" transform="scale(0.015625)"/>
       <path id="DejaVuSans-53" d="M 3425 4513 
L 3425 3897 
Q 3066 4069 2747 4153 
Q 2428 4238 2131 4238 
Q 1616 4238 1336 4038 
Q 1056 3838 1056 3469 
Q 1056 3159 1242 3001 
Q 1428 2844 1947 2747 
L 2328 2669 
Q 3034 2534 3370 2195 
Q 3706 1856 3706 1288 
Q 3706 609 3251 259 
Q 2797 -91 1919 -91 
Q 1588 -91 1214 -16 
Q 841 59 441 206 
L 441 856 
Q 825 641 1194 531 
Q 1563 422 1919 422 
Q 2459 422 2753 634 
Q 3047 847 3047 1241 
Q 3047 1584 2836 1778 
Q 2625 1972 2144 2069 
L 1759 2144 
Q 1053 2284 737 2584 
Q 422 2884 422 3419 
Q 422 4038 858 4394 
Q 1294 4750 2059 4750 
Q 2388 4750 2728 4690 
Q 3069 4631 3425 4513 
z
" transform="scale(0.015625)"/>
       <path id="DejaVuSans-44" d="M 1259 4147 
L 1259 519 
L 2022 519 
Q 2988 519 3436 956 
Q 3884 1394 3884 2338 
Q 3884 3275 3436 3711 
Q 2988 4147 2022 4147 
L 1259 4147 
z
M 628 4666 
L 1925 4666 
Q 3281 4666 3915 4102 
Q 4550 3538 4550 2338 
Q 4550 1131 3912 565 
Q 3275 0 1925 0 
L 628 0 
L 628 4666 
z
" transform="scale(0.015625)"/>
       <path id="DejaVuSans-20" transform="scale(0.015625)"/>
       <path id="DejaVuSans-28" d="M 1984 4856 
Q 1566 4138 1362 3434 
Q 1159 2731 1159 2009 
Q 1159 1288 1364 580 
Q 1569 -128 1984 -844 
L 1484 -844 
Q 1016 -109 783 600 
Q 550 1309 550 2009 
Q 550 2706 781 3412 
Q 1013 4119 1484 4856 
L 1984 4856 
z
" transform="scale(0.015625)"/>
       <path id="DejaVuSans-6e" d="M 3513 2113 
L 3513 0 
L 2938 0 
L 2938 2094 
Q 2938 2591 2744 2837 
Q 2550 3084 2163 3084 
Q 1697 3084 1428 2787 
Q 1159 2491 1159 1978 
L 1159 0 
L 581 0 
L 581 3500 
L 1159 3500 
L 1159 2956 
Q 1366 3272 1645 3428 
Q 1925 3584 2291 3584 
Q 2894 3584 3203 3211 
Q 3513 2838 3513 2113 
z
" transform="scale(0.015625)"/>
       <path id="DejaVuSans-3d" d="M 678 2906 
L 4684 2906 
L 4684 2381 
L 678 2381 
L 678 2906 
z
M 678 1631 
L 4684 1631 
L 4684 1100 
L 678 1100 
L 678 1631 
z
" transform="scale(0.015625)"/>
       <path id="DejaVuSans-29" d="M 513 4856 
L 1013 4856 
Q 1481 4119 1714 3412 
Q 1947 2706 1947 2009 
Q 1947 1309 1714 600 
Q 1481 -109 1013 -844 
L 513 -844 
Q 928 -128 1133 580 
Q 1338 1288 1338 2009 
Q 1338 2731 1133 3434 
Q 928 4138 513 4856 
z
" transform="scale(0.015625)"/>
      </defs>
      <use xlink:href="#DejaVuSans-4e"/>
      <use xlink:href="#DejaVuSans-52" x="74.804688"/>
      <use xlink:href="#DejaVuSans-46" x="144.287109"/>
      <use xlink:href="#DejaVuSans-b1" x="201.806641"/>
      <use xlink:href="#DejaVuSans-53" x="285.595703"/>
      <use xlink:href="#DejaVuSans-44" x="349.072266"/>
      <use xlink:href="#DejaVuSans-20" x="426.074219"/>
      <use xlink:href="#DejaVuSans-28" x="457.861328"/>
      <use xlink:href="#DejaVuSans-6e" x="496.875"/>
      <use xlink:href="#DejaVuSans-3d" x="560.253906"/>
      <use xlink:href="#DejaVuSans-31" x="644.042969"/>
      <use xlink:href="#DejaVuSans-33" x="707.666016"/>
      <use xlink:href="#DejaVuSans-29" x="771.289062"/>
     </g>
    </g>
    <g id="line2d_22">
     <path d="M 341.605938 121.654687 
L 361.605938 121.654687 
" style="fill: none; stroke: #2ca25f; stroke-width: 2; stroke-linecap: square"/>
    </g>
    <g id="line2d_23"/>
    <g id="text_18">
     <!-- MRI -->
     <g transform="translate(369.605938 125.154687) scale(0.1 -0.1)">
      <defs>
       <path id="DejaVuSans-4d" d="M 628 4666 
L 1569 4666 
L 2759 1491 
L 3956 4666 
L 4897 4666 
L 4897 0 
L 4281 0 
L 4281 4097 
L 3078 897 
L 2444 897 
L 1241 4097 
L 1241 0 
L 628 0 
L 628 4666 
z
" transform="scale(0.015625)"/>
       <path id="DejaVuSans-49" d="M 628 4666 
L 1259 4666 
L 1259 0 
L 628 0 
L 628 4666 
z
" transform="scale(0.015625)"/>
      </defs>
      <use xlink:href="#DejaVuSans-4d"/>
      <use xlink:href="#DejaVuSans-52" x="86.279297"/>
      <use xlink:href="#DejaVuSans-49" x="155.761719"/>
     </g>
    </g>
    <g id="LineCollection_4">
     <path d="M 351.605938 141.332812 
L 351.605938 131.332812 
" style="fill: none; stroke: #2ca25f"/>
    </g>
    <g id="line2d_24">
     <path d="M 341.605938 136.332812 
L 361.605938 136.332812 
" style="fill: none; stroke-dasharray: 3.7,1.6; stroke-dashoffset: 0; stroke: #2ca25f"/>
    </g>
    <g id="line2d_25">
     <g>
      <use xlink:href="#m2623a03ec7" x="351.605938" y="136.332812" style="fill: #2ca25f; stroke: #000000; stroke-linejoin: miter"/>
     </g>
    </g>
    <g id="text_19">
     <!-- MRI±SD (n=14) -->
     <g transform="translate(369.605938 139.832812) scale(0.1 -0.1)">
      <use xlink:href="#DejaVuSans-4d"/>
      <use xlink:href="#DejaVuSans-52" x="86.279297"/>
      <use xlink:href="#DejaVuSans-49" x="155.761719"/>
      <use xlink:href="#DejaVuSans-b1" x="185.253906"/>
      <use xlink:href="#DejaVuSans-53" x="269.042969"/>
      <use xlink:href="#DejaVuSans-44" x="332.519531"/>
      <use xlink:href="#DejaVuSans-20" x="409.521484"/>
      <use xlink:href="#DejaVuSans-28" x="441.308594"/>
      <use xlink:href="#DejaVuSans-6e" x="480.322266"/>
      <use xlink:href="#DejaVuSans-3d" x="543.701172"/>
      <use xlink:href="#DejaVuSans-31" x="627.490234"/>
      <use xlink:href="#DejaVuSans-34" x="691.113281"/>
      <use xlink:href="#DejaVuSans-29" x="754.736328"/>
     </g>
    </g>
   </g>
  </g>
  <g id="axes_2">
   <g id="patch_8">
    <path d="M 69.03875 633.6 
L 459.63875 633.6 
L 459.63875 392.556522 
L 69.03875 392.556522 
z
" style="fill: #ffffff"/>
   </g>
   <g id="matplotlib.axis_3">
    <g id="xtick_6">
     <g id="line2d_26">
      <g>
       <use xlink:href="#mc6063974f1" x="86.793295" y="633.6" style="stroke: #000000; stroke-width: 0.8"/>
      </g>
     </g>
     <g id="text_20">
      <!-- 0 -->
      <g transform="translate(82.02142 651.997656) scale(0.15 -0.15)">
       <use xlink:href="#DejaVuSans-30"/>
      </g>
     </g>
    </g>
    <g id="xtick_7">
     <g id="line2d_27">
      <g>
       <use xlink:href="#mc6063974f1" x="175.566023" y="633.6" style="stroke: #000000; stroke-width: 0.8"/>
      </g>
     </g>
     <g id="text_21">
      <!-- 20 -->
      <g transform="translate(166.022273 651.997656) scale(0.15 -0.15)">
       <use xlink:href="#DejaVuSans-32"/>
       <use xlink:href="#DejaVuSans-30" x="63.623047"/>
      </g>
     </g>
    </g>
    <g id="xtick_8">
     <g id="line2d_28">
      <g>
       <use xlink:href="#mc6063974f1" x="264.33875" y="633.6" style="stroke: #000000; stroke-width: 0.8"/>
      </g>
     </g>
     <g id="text_22">
      <!-- 40 -->
      <g transform="translate(254.795 651.997656) scale(0.15 -0.15)">
       <use xlink:href="#DejaVuSans-34"/>
       <use xlink:href="#DejaVuSans-30" x="63.623047"/>
      </g>
     </g>
    </g>
    <g id="xtick_9">
     <g id="line2d_29">
      <g>
       <use xlink:href="#mc6063974f1" x="353.111477" y="633.6" style="stroke: #000000; stroke-width: 0.8"/>
      </g>
     </g>
     <g id="text_23">
      <!-- 60 -->
      <g transform="translate(343.567727 651.997656) scale(0.15 -0.15)">
       <use xlink:href="#DejaVuSans-36"/>
       <use xlink:href="#DejaVuSans-30" x="63.623047"/>
      </g>
     </g>
    </g>
    <g id="xtick_10">
     <g id="line2d_30">
      <g>
       <use xlink:href="#mc6063974f1" x="441.884205" y="633.6" style="stroke: #000000; stroke-width: 0.8"/>
      </g>
     </g>
     <g id="text_24">
      <!-- 80 -->
      <g transform="translate(432.340455 651.997656) scale(0.15 -0.15)">
       <use xlink:href="#DejaVuSans-38"/>
       <use xlink:href="#DejaVuSans-30" x="63.623047"/>
      </g>
     </g>
    </g>
    <g id="text_25">
     <!-- time [hr] -->
     <g transform="translate(219.264219 672.794375) scale(0.18 -0.18)">
      <use xlink:href="#DejaVuSans-Bold-74"/>
      <use xlink:href="#DejaVuSans-Bold-69" x="47.802734"/>
      <use xlink:href="#DejaVuSans-Bold-6d" x="82.080078"/>
      <use xlink:href="#DejaVuSans-Bold-65" x="186.279297"/>
      <use xlink:href="#DejaVuSans-Bold-20" x="254.101562"/>
      <use xlink:href="#DejaVuSans-Bold-5b" x="288.916016"/>
      <use xlink:href="#DejaVuSans-Bold-68" x="334.619141"/>
      <use xlink:href="#DejaVuSans-Bold-72" x="405.810547"/>
      <use xlink:href="#DejaVuSans-Bold-5d" x="455.126953"/>
     </g>
    </g>
   </g>
   <g id="matplotlib.axis_4">
    <g id="ytick_9">
     <g id="line2d_31">
      <g>
       <use xlink:href="#mb34ff94273" x="69.03875" y="622.643478" style="stroke: #000000; stroke-width: 0.8"/>
      </g>
     </g>
     <g id="text_26">
      <!-- 0.0 -->
      <g transform="translate(38.184063 628.342306) scale(0.15 -0.15)">
       <use xlink:href="#DejaVuSans-30"/>
       <use xlink:href="#DejaVuSans-2e" x="63.623047"/>
       <use xlink:href="#DejaVuSans-30" x="95.410156"/>
      </g>
     </g>
    </g>
    <g id="ytick_10">
     <g id="line2d_32">
      <g>
       <use xlink:href="#mb34ff94273" x="69.03875" y="590.84683" style="stroke: #000000; stroke-width: 0.8"/>
      </g>
     </g>
     <g id="text_27">
      <!-- 2.5 -->
      <g transform="translate(38.184063 596.545658) scale(0.15 -0.15)">
       <use xlink:href="#DejaVuSans-32"/>
       <use xlink:href="#DejaVuSans-2e" x="63.623047"/>
       <use xlink:href="#DejaVuSans-35" x="95.410156"/>
      </g>
     </g>
    </g>
    <g id="ytick_11">
     <g id="line2d_33">
      <g>
       <use xlink:href="#mb34ff94273" x="69.03875" y="559.050182" style="stroke: #000000; stroke-width: 0.8"/>
      </g>
     </g>
     <g id="text_28">
      <!-- 5.0 -->
      <g transform="translate(38.184063 564.74901) scale(0.15 -0.15)">
       <use xlink:href="#DejaVuSans-35"/>
       <use xlink:href="#DejaVuSans-2e" x="63.623047"/>
       <use xlink:href="#DejaVuSans-30" x="95.410156"/>
      </g>
     </g>
    </g>
    <g id="ytick_12">
     <g id="line2d_34">
      <g>
       <use xlink:href="#mb34ff94273" x="69.03875" y="527.253534" style="stroke: #000000; stroke-width: 0.8"/>
      </g>
     </g>
     <g id="text_29">
      <!-- 7.5 -->
      <g transform="translate(38.184063 532.952363) scale(0.15 -0.15)">
       <use xlink:href="#DejaVuSans-37"/>
       <use xlink:href="#DejaVuSans-2e" x="63.623047"/>
       <use xlink:href="#DejaVuSans-35" x="95.410156"/>
      </g>
     </g>
    </g>
    <g id="ytick_13">
     <g id="line2d_35">
      <g>
       <use xlink:href="#mb34ff94273" x="69.03875" y="495.456886" style="stroke: #000000; stroke-width: 0.8"/>
      </g>
     </g>
     <g id="text_30">
      <!-- 10.0 -->
      <g transform="translate(28.640313 501.155715) scale(0.15 -0.15)">
       <use xlink:href="#DejaVuSans-31"/>
       <use xlink:href="#DejaVuSans-30" x="63.623047"/>
       <use xlink:href="#DejaVuSans-2e" x="127.246094"/>
       <use xlink:href="#DejaVuSans-30" x="159.033203"/>
      </g>
     </g>
    </g>
    <g id="ytick_14">
     <g id="line2d_36">
      <g>
       <use xlink:href="#mb34ff94273" x="69.03875" y="463.660239" style="stroke: #000000; stroke-width: 0.8"/>
      </g>
     </g>
     <g id="text_31">
      <!-- 12.5 -->
      <g transform="translate(28.640313 469.359067) scale(0.15 -0.15)">
       <use xlink:href="#DejaVuSans-31"/>
       <use xlink:href="#DejaVuSans-32" x="63.623047"/>
       <use xlink:href="#DejaVuSans-2e" x="127.246094"/>
       <use xlink:href="#DejaVuSans-35" x="159.033203"/>
      </g>
     </g>
    </g>
    <g id="ytick_15">
     <g id="line2d_37">
      <g>
       <use xlink:href="#mb34ff94273" x="69.03875" y="431.863591" style="stroke: #000000; stroke-width: 0.8"/>
      </g>
     </g>
     <g id="text_32">
      <!-- 15.0 -->
      <g transform="translate(28.640313 437.562419) scale(0.15 -0.15)">
       <use xlink:href="#DejaVuSans-31"/>
       <use xlink:href="#DejaVuSans-35" x="63.623047"/>
       <use xlink:href="#DejaVuSans-2e" x="127.246094"/>
       <use xlink:href="#DejaVuSans-30" x="159.033203"/>
      </g>
     </g>
    </g>
    <g id="ytick_16">
     <g id="line2d_38">
      <g>
       <use xlink:href="#mb34ff94273" x="69.03875" y="400.066943" style="stroke: #000000; stroke-width: 0.8"/>
      </g>
     </g>
     <g id="text_33">
      <!-- 17.5 -->
      <g transform="translate(28.640313 405.765771) scale(0.15 -0.15)">
       <use xlink:href="#DejaVuSans-31"/>
       <use xlink:href="#DejaVuSans-37" x="63.623047"/>
       <use xlink:href="#DejaVuSans-2e" x="127.246094"/>
       <use xlink:href="#DejaVuSans-35" x="159.033203"/>
      </g>
     </g>
    </g>
    <g id="text_34">
     <!-- rivaroxaban urine [µmole] -->
     <g transform="translate(20.877187 646.272636) rotate(-90) scale(0.18 -0.18)">
      <defs>
       <path id="DejaVuSans-Bold-75" d="M 500 1363 
L 500 3500 
L 1625 3500 
L 1625 3150 
Q 1625 2866 1622 2436 
Q 1619 2006 1619 1863 
Q 1619 1441 1641 1255 
Q 1663 1069 1716 984 
Q 1784 875 1895 815 
Q 2006 756 2150 756 
Q 2500 756 2700 1025 
Q 2900 1294 2900 1772 
L 2900 3500 
L 4019 3500 
L 4019 0 
L 2900 0 
L 2900 506 
Q 2647 200 2364 54 
Q 2081 -91 1741 -91 
Q 1134 -91 817 281 
Q 500 653 500 1363 
z
" transform="scale(0.015625)"/>
      </defs>
      <use xlink:href="#DejaVuSans-Bold-72"/>
      <use xlink:href="#DejaVuSans-Bold-69" x="49.316406"/>
      <use xlink:href="#DejaVuSans-Bold-76" x="83.59375"/>
      <use xlink:href="#DejaVuSans-Bold-61" x="148.779297"/>
      <use xlink:href="#DejaVuSans-Bold-72" x="216.259766"/>
      <use xlink:href="#DejaVuSans-Bold-6f" x="265.576172"/>
      <use xlink:href="#DejaVuSans-Bold-78" x="334.277344"/>
      <use xlink:href="#DejaVuSans-Bold-61" x="398.779297"/>
      <use xlink:href="#DejaVuSans-Bold-62" x="466.259766"/>
      <use xlink:href="#DejaVuSans-Bold-61" x="537.841797"/>
      <use xlink:href="#DejaVuSans-Bold-6e" x="605.322266"/>
      <use xlink:href="#DejaVuSans-Bold-20" x="676.513672"/>
      <use xlink:href="#DejaVuSans-Bold-75" x="711.328125"/>
      <use xlink:href="#DejaVuSans-Bold-72" x="782.519531"/>
      <use xlink:href="#DejaVuSans-Bold-69" x="831.835938"/>
      <use xlink:href="#DejaVuSans-Bold-6e" x="866.113281"/>
      <use xlink:href="#DejaVuSans-Bold-65" x="937.304688"/>
      <use xlink:href="#DejaVuSans-Bold-20" x="1005.126953"/>
      <use xlink:href="#DejaVuSans-Bold-5b" x="1039.941406"/>
      <use xlink:href="#DejaVuSans-Bold-b5" x="1085.644531"/>
      <use xlink:href="#DejaVuSans-Bold-6d" x="1159.228516"/>
      <use xlink:href="#DejaVuSans-Bold-6f" x="1263.427734"/>
      <use xlink:href="#DejaVuSans-Bold-6c" x="1332.128906"/>
      <use xlink:href="#DejaVuSans-Bold-65" x="1366.40625"/>
      <use xlink:href="#DejaVuSans-Bold-5d" x="1434.228516"/>
     </g>
    </g>
   </g>
   <g id="LineCollection_5">
    <path clip-path="url(#pfff5943a19)" style="fill: none; stroke: #000000"/>
    <path d="M 104.458622 585.262819 
L 104.458622 547.834379 
" clip-path="url(#pfff5943a19)" style="fill: none; stroke: #000000"/>
    <path d="M 122.123949 549.073651 
L 122.123949 482.667179 
" clip-path="url(#pfff5943a19)" style="fill: none; stroke: #000000"/>
    <path d="M 140.056932 530.99651 
L 140.056932 452.515859 
" clip-path="url(#pfff5943a19)" style="fill: none; stroke: #000000"/>
    <path d="M 193.320568 503.328285 
L 193.320568 422.429764 
" clip-path="url(#pfff5943a19)" style="fill: none; stroke: #000000"/>
    <path d="M 299.847841 487.228367 
L 299.847841 406.331363 
" clip-path="url(#pfff5943a19)" style="fill: none; stroke: #000000"/>
    <path d="M 406.375114 485.618982 
L 406.375114 403.513043 
" clip-path="url(#pfff5943a19)" style="fill: none; stroke: #000000"/>
   </g>
   <g id="LineCollection_6">
    <path clip-path="url(#pfff5943a19)" style="fill: none; stroke: #2ca25f"/>
    <path d="M 104.459068 586.470237 
L 104.459068 546.626961 
" clip-path="url(#pfff5943a19)" style="fill: none; stroke: #2ca25f"/>
    <path d="M 122.124841 568.393097 
L 122.124841 483.873839 
" clip-path="url(#pfff5943a19)" style="fill: none; stroke: #2ca25f"/>
    <path d="M 140.056932 546.092269 
L 140.056932 453.118051 
" clip-path="url(#pfff5943a19)" style="fill: none; stroke: #2ca25f"/>
    <path d="M 193.320568 514.195047 
L 193.320568 422.429764 
" clip-path="url(#pfff5943a19)" style="fill: none; stroke: #2ca25f"/>
    <path d="M 299.847841 482.395662 
L 299.847841 406.331363 
" clip-path="url(#pfff5943a19)" style="fill: none; stroke: #2ca25f"/>
    <path d="M 406.375114 477.76849 
L 406.375114 404.117511 
" clip-path="url(#pfff5943a19)" style="fill: none; stroke: #2ca25f"/>
   </g>
   <g id="line2d_39">
    <path d="M 86.793295 622.643478 
L 87.503477 622.597844 
L 88.213659 622.291879 
L 88.923841 621.590853 
L 89.634023 620.465274 
L 90.344205 618.939517 
L 91.409477 616.009904 
L 92.829841 611.204863 
L 94.605295 604.317433 
L 103.127477 569.971425 
L 105.968205 559.908971 
L 108.808932 550.742827 
L 111.294568 543.426143 
L 113.780205 536.722405 
L 116.265841 530.58581 
L 118.751477 524.971023 
L 121.237114 519.834938 
L 124.077841 514.499851 
L 126.918568 509.682461 
L 129.759295 505.33271 
L 132.600023 501.405277 
L 135.44075 497.859192 
L 138.281477 494.657442 
L 141.122205 491.766597 
L 144.318023 488.848552 
L 147.513841 486.247295 
L 150.709659 483.928434 
L 154.260568 481.645955 
L 157.811477 479.637082 
L 161.362386 477.869016 
L 165.268386 476.167931 
L 169.529477 474.565386 
L 174.145659 473.085159 
L 179.116932 471.74323 
L 184.443295 470.548226 
L 190.12475 469.502216 
L 196.516386 468.554635 
L 203.618205 467.728149 
L 211.785295 467.005235 
L 221.37275 466.38768 
L 232.735659 465.88448 
L 246.939295 465.485722 
L 265.759114 465.191545 
L 293.456205 464.999789 
L 344.589295 464.905336 
L 441.884205 464.888016 
L 441.884205 464.888016 
" clip-path="url(#pfff5943a19)" style="fill: none; stroke: #000000; stroke-width: 2; stroke-linecap: square"/>
   </g>
   <g id="line2d_40">
    <path d="M 86.793295 622.643478 
L 104.458622 566.548599 
L 122.123949 515.870415 
L 140.056932 491.756185 
L 193.320568 462.879024 
L 299.847841 446.779865 
L 406.375114 444.566013 
" clip-path="url(#pfff5943a19)" style="fill: none; stroke-dasharray: 3.7,1.6; stroke-dashoffset: 0; stroke: #000000"/>
    <g clip-path="url(#pfff5943a19)">
     <use xlink:href="#mdcad137f1e" x="86.793295" y="622.643478" style="stroke: #000000; stroke-linejoin: miter"/>
     <use xlink:href="#mdcad137f1e" x="104.458622" y="566.548599" style="stroke: #000000; stroke-linejoin: miter"/>
     <use xlink:href="#mdcad137f1e" x="122.123949" y="515.870415" style="stroke: #000000; stroke-linejoin: miter"/>
     <use xlink:href="#mdcad137f1e" x="140.056932" y="491.756185" style="stroke: #000000; stroke-linejoin: miter"/>
     <use xlink:href="#mdcad137f1e" x="193.320568" y="462.879024" style="stroke: #000000; stroke-linejoin: miter"/>
     <use xlink:href="#mdcad137f1e" x="299.847841" y="446.779865" style="stroke: #000000; stroke-linejoin: miter"/>
     <use xlink:href="#mdcad137f1e" x="406.375114" y="444.566013" style="stroke: #000000; stroke-linejoin: miter"/>
    </g>
   </g>
   <g id="line2d_41">
    <path d="M 86.793295 622.643478 
L 87.858568 622.53689 
L 88.56875 622.192743 
L 89.278932 621.552176 
L 89.989114 620.612178 
L 91.054386 618.695587 
L 92.119659 616.280465 
L 93.540023 612.502255 
L 95.670568 606.139174 
L 103.127477 583.316751 
L 105.968205 575.520565 
L 108.808932 568.386625 
L 111.649659 561.900654 
L 114.490386 556.023365 
L 117.331114 550.70681 
L 120.171841 545.901811 
L 123.012568 541.56118 
L 125.853295 537.641001 
L 128.694023 534.100998 
L 131.53475 530.904518 
L 134.375477 528.018325 
L 137.571295 525.104919 
L 140.767114 522.507769 
L 143.962932 520.192559 
L 147.513841 517.913667 
L 151.06475 515.907948 
L 154.97075 513.978211 
L 158.87675 512.301344 
L 163.137841 510.721615 
L 167.754023 509.262462 
L 172.725295 507.939638 
L 178.051659 506.761647 
L 183.733114 505.730529 
L 190.12475 504.796438 
L 197.226568 503.98172 
L 205.393659 503.269098 
L 214.981114 502.660334 
L 226.699114 502.151829 
L 241.257841 501.756348 
L 260.787841 501.466304 
L 289.550205 501.282736 
L 344.234205 501.195659 
L 441.884205 501.181911 
L 441.884205 501.181911 
" clip-path="url(#pfff5943a19)" style="fill: none; stroke: #2ca25f; stroke-width: 2; stroke-linecap: square"/>
   </g>
   <g id="line2d_42">
    <path d="M 86.793295 622.643478 
L 104.459068 566.548599 
L 122.124841 526.133468 
L 140.056932 499.60516 
L 193.320568 468.312405 
L 299.847841 444.363513 
L 406.375114 440.943001 
" clip-path="url(#pfff5943a19)" style="fill: none; stroke-dasharray: 3.7,1.6; stroke-dashoffset: 0; stroke: #2ca25f"/>
    <g clip-path="url(#pfff5943a19)">
     <use xlink:href="#m2623a03ec7" x="86.793295" y="622.643478" style="fill: #2ca25f; stroke: #000000; stroke-linejoin: miter"/>
     <use xlink:href="#m2623a03ec7" x="104.459068" y="566.548599" style="fill: #2ca25f; stroke: #000000; stroke-linejoin: miter"/>
     <use xlink:href="#m2623a03ec7" x="122.124841" y="526.133468" style="fill: #2ca25f; stroke: #000000; stroke-linejoin: miter"/>
     <use xlink:href="#m2623a03ec7" x="140.056932" y="499.60516" style="fill: #2ca25f; stroke: #000000; stroke-linejoin: miter"/>
     <use xlink:href="#m2623a03ec7" x="193.320568" y="468.312405" style="fill: #2ca25f; stroke: #000000; stroke-linejoin: miter"/>
     <use xlink:href="#m2623a03ec7" x="299.847841" y="444.363513" style="fill: #2ca25f; stroke: #000000; stroke-linejoin: miter"/>
     <use xlink:href="#m2623a03ec7" x="406.375114" y="440.943001" style="fill: #2ca25f; stroke: #000000; stroke-linejoin: miter"/>
    </g>
   </g>
   <g id="patch_9">
    <path d="M 69.03875 633.6 
L 69.03875 392.556522 
" style="fill: none; stroke: #000000; stroke-width: 0.8; stroke-linejoin: miter; stroke-linecap: square"/>
   </g>
   <g id="patch_10">
    <path d="M 459.63875 633.6 
L 459.63875 392.556522 
" style="fill: none; stroke: #000000; stroke-width: 0.8; stroke-linejoin: miter; stroke-linecap: square"/>
   </g>
   <g id="patch_11">
    <path d="M 69.03875 633.6 
L 459.63875 633.6 
" style="fill: none; stroke: #000000; stroke-width: 0.8; stroke-linejoin: miter; stroke-linecap: square"/>
   </g>
   <g id="patch_12">
    <path d="M 69.03875 392.556522 
L 459.63875 392.556522 
" style="fill: none; stroke: #000000; stroke-width: 0.8; stroke-linejoin: miter; stroke-linecap: square"/>
   </g>
   <g id="legend_2">
    <g id="patch_13">
     <path d="M 76.03875 459.269022 
L 189.071563 459.269022 
Q 191.071563 459.269022 191.071563 457.269022 
L 191.071563 399.556522 
Q 191.071563 397.556522 189.071563 397.556522 
L 76.03875 397.556522 
Q 74.03875 397.556522 74.03875 399.556522 
L 74.03875 457.269022 
Q 74.03875 459.269022 76.03875 459.269022 
z
" style="fill: #ffffff; opacity: 0.8; stroke: #cccccc; stroke-linejoin: miter"/>
    </g>
    <g id="line2d_43">
     <path d="M 78.03875 405.654959 
L 98.03875 405.654959 
" style="fill: none; stroke: #000000; stroke-width: 2; stroke-linecap: square"/>
    </g>
    <g id="line2d_44"/>
    <g id="text_35">
     <!-- NRF -->
     <g transform="translate(106.03875 409.154959) scale(0.1 -0.1)">
      <use xlink:href="#DejaVuSans-4e"/>
      <use xlink:href="#DejaVuSans-52" x="74.804688"/>
      <use xlink:href="#DejaVuSans-46" x="144.287109"/>
     </g>
    </g>
    <g id="LineCollection_7">
     <path d="M 88.03875 425.333084 
L 88.03875 415.333084 
" style="fill: none; stroke: #000000"/>
    </g>
    <g id="line2d_45">
     <path d="M 78.03875 420.333084 
L 98.03875 420.333084 
" style="fill: none; stroke-dasharray: 3.7,1.6; stroke-dashoffset: 0; stroke: #000000"/>
    </g>
    <g id="line2d_46">
     <g>
      <use xlink:href="#mdcad137f1e" x="88.03875" y="420.333084" style="stroke: #000000; stroke-linejoin: miter"/>
     </g>
    </g>
    <g id="text_36">
     <!-- NRF±SD (n=13) -->
     <g transform="translate(106.03875 423.833084) scale(0.1 -0.1)">
      <use xlink:href="#DejaVuSans-4e"/>
      <use xlink:href="#DejaVuSans-52" x="74.804688"/>
      <use xlink:href="#DejaVuSans-46" x="144.287109"/>
      <use xlink:href="#DejaVuSans-b1" x="201.806641"/>
      <use xlink:href="#DejaVuSans-53" x="285.595703"/>
      <use xlink:href="#DejaVuSans-44" x="349.072266"/>
      <use xlink:href="#DejaVuSans-20" x="426.074219"/>
      <use xlink:href="#DejaVuSans-28" x="457.861328"/>
      <use xlink:href="#DejaVuSans-6e" x="496.875"/>
      <use xlink:href="#DejaVuSans-3d" x="560.253906"/>
      <use xlink:href="#DejaVuSans-31" x="644.042969"/>
      <use xlink:href="#DejaVuSans-33" x="707.666016"/>
      <use xlink:href="#DejaVuSans-29" x="771.289062"/>
     </g>
    </g>
    <g id="line2d_47">
     <path d="M 78.03875 435.011209 
L 98.03875 435.011209 
" style="fill: none; stroke: #2ca25f; stroke-width: 2; stroke-linecap: square"/>
    </g>
    <g id="line2d_48"/>
    <g id="text_37">
     <!-- MRI -->
     <g transform="translate(106.03875 438.511209) scale(0.1 -0.1)">
      <use xlink:href="#DejaVuSans-4d"/>
      <use xlink:href="#DejaVuSans-52" x="86.279297"/>
      <use xlink:href="#DejaVuSans-49" x="155.761719"/>
     </g>
    </g>
    <g id="LineCollection_8">
     <path d="M 88.03875 454.689334 
L 88.03875 444.689334 
" style="fill: none; stroke: #2ca25f"/>
    </g>
    <g id="line2d_49">
     <path d="M 78.03875 449.689334 
L 98.03875 449.689334 
" style="fill: none; stroke-dasharray: 3.7,1.6; stroke-dashoffset: 0; stroke: #2ca25f"/>
    </g>
    <g id="line2d_50">
     <g>
      <use xlink:href="#m2623a03ec7" x="88.03875" y="449.689334" style="fill: #2ca25f; stroke: #000000; stroke-linejoin: miter"/>
     </g>
    </g>
    <g id="text_38">
     <!-- MRI±SD (n=14) -->
     <g transform="translate(106.03875 453.189334) scale(0.1 -0.1)">
      <use xlink:href="#DejaVuSans-4d"/>
      <use xlink:href="#DejaVuSans-52" x="86.279297"/>
      <use xlink:href="#DejaVuSans-49" x="155.761719"/>
      <use xlink:href="#DejaVuSans-b1" x="185.253906"/>
      <use xlink:href="#DejaVuSans-53" x="269.042969"/>
      <use xlink:href="#DejaVuSans-44" x="332.519531"/>
      <use xlink:href="#DejaVuSans-20" x="409.521484"/>
      <use xlink:href="#DejaVuSans-28" x="441.308594"/>
      <use xlink:href="#DejaVuSans-6e" x="480.322266"/>
      <use xlink:href="#DejaVuSans-3d" x="543.701172"/>
      <use xlink:href="#DejaVuSans-31" x="627.490234"/>
      <use xlink:href="#DejaVuSans-34" x="691.113281"/>
      <use xlink:href="#DejaVuSans-29" x="754.736328"/>
     </g>
    </g>
   </g>
  </g>
  <g id="text_39">
   <!-- Greenblatt2018 -->
   <g transform="translate(147.353203 26.196094) scale(0.25 -0.25)">
    <defs>
     <path id="DejaVuSans-Bold-47" d="M 4781 347 
Q 4331 128 3847 18 
Q 3363 -91 2847 -91 
Q 1681 -91 1000 561 
Q 319 1213 319 2328 
Q 319 3456 1012 4103 
Q 1706 4750 2913 4750 
Q 3378 4750 3804 4662 
Q 4231 4575 4609 4403 
L 4609 3438 
Q 4219 3659 3833 3768 
Q 3447 3878 3059 3878 
Q 2341 3878 1952 3476 
Q 1563 3075 1563 2328 
Q 1563 1588 1938 1184 
Q 2313 781 3003 781 
Q 3191 781 3352 804 
Q 3513 828 3641 878 
L 3641 1784 
L 2906 1784 
L 2906 2591 
L 4781 2591 
L 4781 347 
z
" transform="scale(0.015625)"/>
     <path id="DejaVuSans-Bold-32" d="M 1844 884 
L 3897 884 
L 3897 0 
L 506 0 
L 506 884 
L 2209 2388 
Q 2438 2594 2547 2791 
Q 2656 2988 2656 3200 
Q 2656 3528 2436 3728 
Q 2216 3928 1850 3928 
Q 1569 3928 1234 3808 
Q 900 3688 519 3450 
L 519 4475 
Q 925 4609 1322 4679 
Q 1719 4750 2100 4750 
Q 2938 4750 3402 4381 
Q 3866 4013 3866 3353 
Q 3866 2972 3669 2642 
Q 3472 2313 2841 1759 
L 1844 884 
z
" transform="scale(0.015625)"/>
     <path id="DejaVuSans-Bold-30" d="M 2944 2338 
Q 2944 3213 2780 3570 
Q 2616 3928 2228 3928 
Q 1841 3928 1675 3570 
Q 1509 3213 1509 2338 
Q 1509 1453 1675 1090 
Q 1841 728 2228 728 
Q 2613 728 2778 1090 
Q 2944 1453 2944 2338 
z
M 4147 2328 
Q 4147 1169 3647 539 
Q 3147 -91 2228 -91 
Q 1306 -91 806 539 
Q 306 1169 306 2328 
Q 306 3491 806 4120 
Q 1306 4750 2228 4750 
Q 3147 4750 3647 4120 
Q 4147 3491 4147 2328 
z
" transform="scale(0.015625)"/>
     <path id="DejaVuSans-Bold-31" d="M 750 831 
L 1813 831 
L 1813 3847 
L 722 3622 
L 722 4441 
L 1806 4666 
L 2950 4666 
L 2950 831 
L 4013 831 
L 4013 0 
L 750 0 
L 750 831 
z
" transform="scale(0.015625)"/>
     <path id="DejaVuSans-Bold-38" d="M 2228 2088 
Q 1891 2088 1709 1903 
Q 1528 1719 1528 1375 
Q 1528 1031 1709 848 
Q 1891 666 2228 666 
Q 2563 666 2741 848 
Q 2919 1031 2919 1375 
Q 2919 1722 2741 1905 
Q 2563 2088 2228 2088 
z
M 1350 2484 
Q 925 2613 709 2878 
Q 494 3144 494 3541 
Q 494 4131 934 4440 
Q 1375 4750 2228 4750 
Q 3075 4750 3515 4442 
Q 3956 4134 3956 3541 
Q 3956 3144 3739 2878 
Q 3522 2613 3097 2484 
Q 3572 2353 3814 2058 
Q 4056 1763 4056 1313 
Q 4056 619 3595 264 
Q 3134 -91 2228 -91 
Q 1319 -91 855 264 
Q 391 619 391 1313 
Q 391 1763 633 2058 
Q 875 2353 1350 2484 
z
M 1631 3419 
Q 1631 3141 1786 2991 
Q 1941 2841 2228 2841 
Q 2509 2841 2662 2991 
Q 2816 3141 2816 3419 
Q 2816 3697 2662 3845 
Q 2509 3994 2228 3994 
Q 1941 3994 1786 3844 
Q 1631 3694 1631 3419 
z
" transform="scale(0.015625)"/>
    </defs>
    <use xlink:href="#DejaVuSans-Bold-47"/>
    <use xlink:href="#DejaVuSans-Bold-72" x="82.080078"/>
    <use xlink:href="#DejaVuSans-Bold-65" x="131.396484"/>
    <use xlink:href="#DejaVuSans-Bold-65" x="199.21875"/>
    <use xlink:href="#DejaVuSans-Bold-6e" x="267.041016"/>
    <use xlink:href="#DejaVuSans-Bold-62" x="338.232422"/>
    <use xlink:href="#DejaVuSans-Bold-6c" x="409.814453"/>
    <use xlink:href="#DejaVuSans-Bold-61" x="444.091797"/>
    <use xlink:href="#DejaVuSans-Bold-74" x="511.572266"/>
    <use xlink:href="#DejaVuSans-Bold-74" x="559.375"/>
    <use xlink:href="#DejaVuSans-Bold-32" x="607.177734"/>
    <use xlink:href="#DejaVuSans-Bold-30" x="676.757812"/>
    <use xlink:href="#DejaVuSans-Bold-31" x="746.337891"/>
    <use xlink:href="#DejaVuSans-Bold-38" x="815.917969"/>
   </g>
  </g>
 </g>
 <defs>
  <clipPath id="p5495fecb8c">
   <rect x="69.03875" y="79.2" width="390.6" height="241.043478"/>
  </clipPath>
  <clipPath id="pfff5943a19">
   <rect x="69.03875" y="392.556522" width="390.6" height="241.043478"/>
  </clipPath>
 </defs>
</svg>
