<?xml version="1.0" encoding="utf-8" standalone="no"?>
<!DOCTYPE svg PUBLIC "-//W3C//DTD SVG 1.1//EN"
  "http://www.w3.org/Graphics/SVG/1.1/DTD/svg11.dtd">
<svg xmlns:xlink="http://www.w3.org/1999/xlink" width="480.205588pt" height="683.737812pt" viewBox="0 0 480.205588 683.737812" xmlns="http://www.w3.org/2000/svg" version="1.1">
 <metadata>
  <rdf:RDF xmlns:dc="http://purl.org/dc/elements/1.1/" xmlns:cc="http://creativecommons.org/ns#" xmlns:rdf="http://www.w3.org/1999/02/22-rdf-syntax-ns#">
   <cc:Work>
    <dc:type rdf:resource="http://purl.org/dc/dcmitype/StillImage"/>
    <dc:date>2025-04-05T16:57:39.844408</dc:date>
    <dc:format>image/svg+xml</dc:format>
    <dc:creator>
     <cc:Agent>
      <dc:title>Matplotlib v3.9.1, https://matplotlib.org/</dc:title>
     </cc:Agent>
    </dc:creator>
   </cc:Work>
  </rdf:RDF>
 </metadata>
 <defs>
  <style type="text/css">*{stroke-linejoin: round; stroke-linecap: butt}</style>
 </defs>
 <g id="figure_1">
  <g id="patch_1">
   <path d="M 0 683.737812 
L 480.205588 683.737812 
L 480.205588 0 
L 0 0 
z
" style="fill: #ffffff"/>
  </g>
  <g id="axes_1">
   <g id="patch_2">
    <path d="M 79.651062 320.243478 
L 470.251062 320.243478 
L 470.251062 79.2 
L 79.651062 79.2 
z
" style="fill: #ffffff"/>
   </g>
   <g id="matplotlib.axis_1">
    <g id="xtick_1">
     <g id="line2d_1">
      <defs>
       <path id="m28d8cea2b4" d="M 0 0 
L 0 3.5 
" style="stroke: #000000; stroke-width: 0.8"/>
      </defs>
      <g>
       <use xlink:href="#m28d8cea2b4" x="97.405608" y="320.243478" style="stroke: #000000; stroke-width: 0.8"/>
      </g>
     </g>
     <g id="text_1">
      <!-- 0 -->
      <g transform="translate(92.633733 338.641135) scale(0.15 -0.15)">
       <defs>
        <path id="DejaVuSans-30" d="M 2034 4250 
Q 1547 4250 1301 3770 
Q 1056 3291 1056 2328 
Q 1056 1369 1301 889 
Q 1547 409 2034 409 
Q 2525 409 2770 889 
Q 3016 1369 3016 2328 
Q 3016 3291 2770 3770 
Q 2525 4250 2034 4250 
z
M 2034 4750 
Q 2819 4750 3233 4129 
Q 3647 3509 3647 2328 
Q 3647 1150 3233 529 
Q 2819 -91 2034 -91 
Q 1250 -91 836 529 
Q 422 1150 422 2328 
Q 422 3509 836 4129 
Q 1250 4750 2034 4750 
z
" transform="scale(0.015625)"/>
       </defs>
       <use xlink:href="#DejaVuSans-30"/>
      </g>
     </g>
    </g>
    <g id="xtick_2">
     <g id="line2d_2">
      <g>
       <use xlink:href="#m28d8cea2b4" x="165.692321" y="320.243478" style="stroke: #000000; stroke-width: 0.8"/>
      </g>
     </g>
     <g id="text_2">
      <!-- 10 -->
      <g transform="translate(156.148571 338.641135) scale(0.15 -0.15)">
       <defs>
        <path id="DejaVuSans-31" d="M 794 531 
L 1825 531 
L 1825 4091 
L 703 3866 
L 703 4441 
L 1819 4666 
L 2450 4666 
L 2450 531 
L 3481 531 
L 3481 0 
L 794 0 
L 794 531 
z
" transform="scale(0.015625)"/>
       </defs>
       <use xlink:href="#DejaVuSans-31"/>
       <use xlink:href="#DejaVuSans-30" x="63.623047"/>
      </g>
     </g>
    </g>
    <g id="xtick_3">
     <g id="line2d_3">
      <g>
       <use xlink:href="#m28d8cea2b4" x="233.979035" y="320.243478" style="stroke: #000000; stroke-width: 0.8"/>
      </g>
     </g>
     <g id="text_3">
      <!-- 20 -->
      <g transform="translate(224.435285 338.641135) scale(0.15 -0.15)">
       <defs>
        <path id="DejaVuSans-32" d="M 1228 531 
L 3431 531 
L 3431 0 
L 469 0 
L 469 531 
Q 828 903 1448 1529 
Q 2069 2156 2228 2338 
Q 2531 2678 2651 2914 
Q 2772 3150 2772 3378 
Q 2772 3750 2511 3984 
Q 2250 4219 1831 4219 
Q 1534 4219 1204 4116 
Q 875 4013 500 3803 
L 500 4441 
Q 881 4594 1212 4672 
Q 1544 4750 1819 4750 
Q 2544 4750 2975 4387 
Q 3406 4025 3406 3419 
Q 3406 3131 3298 2873 
Q 3191 2616 2906 2266 
Q 2828 2175 2409 1742 
Q 1991 1309 1228 531 
z
" transform="scale(0.015625)"/>
       </defs>
       <use xlink:href="#DejaVuSans-32"/>
       <use xlink:href="#DejaVuSans-30" x="63.623047"/>
      </g>
     </g>
    </g>
    <g id="xtick_4">
     <g id="line2d_4">
      <g>
       <use xlink:href="#m28d8cea2b4" x="302.265748" y="320.243478" style="stroke: #000000; stroke-width: 0.8"/>
      </g>
     </g>
     <g id="text_4">
      <!-- 30 -->
      <g transform="translate(292.721998 338.641135) scale(0.15 -0.15)">
       <defs>
        <path id="DejaVuSans-33" d="M 2597 2516 
Q 3050 2419 3304 2112 
Q 3559 1806 3559 1356 
Q 3559 666 3084 287 
Q 2609 -91 1734 -91 
Q 1441 -91 1130 -33 
Q 819 25 488 141 
L 488 750 
Q 750 597 1062 519 
Q 1375 441 1716 441 
Q 2309 441 2620 675 
Q 2931 909 2931 1356 
Q 2931 1769 2642 2001 
Q 2353 2234 1838 2234 
L 1294 2234 
L 1294 2753 
L 1863 2753 
Q 2328 2753 2575 2939 
Q 2822 3125 2822 3475 
Q 2822 3834 2567 4026 
Q 2313 4219 1838 4219 
Q 1578 4219 1281 4162 
Q 984 4106 628 3988 
L 628 4550 
Q 988 4650 1302 4700 
Q 1616 4750 1894 4750 
Q 2613 4750 3031 4423 
Q 3450 4097 3450 3541 
Q 3450 3153 3228 2886 
Q 3006 2619 2597 2516 
z
" transform="scale(0.015625)"/>
       </defs>
       <use xlink:href="#DejaVuSans-33"/>
       <use xlink:href="#DejaVuSans-30" x="63.623047"/>
      </g>
     </g>
    </g>
    <g id="xtick_5">
     <g id="line2d_5">
      <g>
       <use xlink:href="#m28d8cea2b4" x="370.552461" y="320.243478" style="stroke: #000000; stroke-width: 0.8"/>
      </g>
     </g>
     <g id="text_5">
      <!-- 40 -->
      <g transform="translate(361.008711 338.641135) scale(0.15 -0.15)">
       <defs>
        <path id="DejaVuSans-34" d="M 2419 4116 
L 825 1625 
L 2419 1625 
L 2419 4116 
z
M 2253 4666 
L 3047 4666 
L 3047 1625 
L 3713 1625 
L 3713 1100 
L 3047 1100 
L 3047 0 
L 2419 0 
L 2419 1100 
L 313 1100 
L 313 1709 
L 2253 4666 
z
" transform="scale(0.015625)"/>
       </defs>
       <use xlink:href="#DejaVuSans-34"/>
       <use xlink:href="#DejaVuSans-30" x="63.623047"/>
      </g>
     </g>
    </g>
    <g id="xtick_6">
     <g id="line2d_6">
      <g>
       <use xlink:href="#m28d8cea2b4" x="438.839174" y="320.243478" style="stroke: #000000; stroke-width: 0.8"/>
      </g>
     </g>
     <g id="text_6">
      <!-- 50 -->
      <g transform="translate(429.295424 338.641135) scale(0.15 -0.15)">
       <defs>
        <path id="DejaVuSans-35" d="M 691 4666 
L 3169 4666 
L 3169 4134 
L 1269 4134 
L 1269 2991 
Q 1406 3038 1543 3061 
Q 1681 3084 1819 3084 
Q 2600 3084 3056 2656 
Q 3513 2228 3513 1497 
Q 3513 744 3044 326 
Q 2575 -91 1722 -91 
Q 1428 -91 1123 -41 
Q 819 9 494 109 
L 494 744 
Q 775 591 1075 516 
Q 1375 441 1709 441 
Q 2250 441 2565 725 
Q 2881 1009 2881 1497 
Q 2881 1984 2565 2268 
Q 2250 2553 1709 2553 
Q 1456 2553 1204 2497 
Q 953 2441 691 2322 
L 691 4666 
z
" transform="scale(0.015625)"/>
       </defs>
       <use xlink:href="#DejaVuSans-35"/>
       <use xlink:href="#DejaVuSans-30" x="63.623047"/>
      </g>
     </g>
    </g>
    <g id="text_7">
     <!-- time [hr] -->
     <g transform="translate(229.876531 359.437853) scale(0.18 -0.18)">
      <defs>
       <path id="DejaVuSans-Bold-74" d="M 1759 4494 
L 1759 3500 
L 2913 3500 
L 2913 2700 
L 1759 2700 
L 1759 1216 
Q 1759 972 1856 886 
Q 1953 800 2241 800 
L 2816 800 
L 2816 0 
L 1856 0 
Q 1194 0 917 276 
Q 641 553 641 1216 
L 641 2700 
L 84 2700 
L 84 3500 
L 641 3500 
L 641 4494 
L 1759 4494 
z
" transform="scale(0.015625)"/>
       <path id="DejaVuSans-Bold-69" d="M 538 3500 
L 1656 3500 
L 1656 0 
L 538 0 
L 538 3500 
z
M 538 4863 
L 1656 4863 
L 1656 3950 
L 538 3950 
L 538 4863 
z
" transform="scale(0.015625)"/>
       <path id="DejaVuSans-Bold-6d" d="M 3781 2919 
Q 3994 3244 4286 3414 
Q 4578 3584 4928 3584 
Q 5531 3584 5847 3212 
Q 6163 2841 6163 2131 
L 6163 0 
L 5038 0 
L 5038 1825 
Q 5041 1866 5042 1909 
Q 5044 1953 5044 2034 
Q 5044 2406 4934 2573 
Q 4825 2741 4581 2741 
Q 4263 2741 4089 2478 
Q 3916 2216 3909 1719 
L 3909 0 
L 2784 0 
L 2784 1825 
Q 2784 2406 2684 2573 
Q 2584 2741 2328 2741 
Q 2006 2741 1831 2477 
Q 1656 2213 1656 1722 
L 1656 0 
L 531 0 
L 531 3500 
L 1656 3500 
L 1656 2988 
Q 1863 3284 2130 3434 
Q 2397 3584 2719 3584 
Q 3081 3584 3359 3409 
Q 3638 3234 3781 2919 
z
" transform="scale(0.015625)"/>
       <path id="DejaVuSans-Bold-65" d="M 4031 1759 
L 4031 1441 
L 1416 1441 
Q 1456 1047 1700 850 
Q 1944 653 2381 653 
Q 2734 653 3104 758 
Q 3475 863 3866 1075 
L 3866 213 
Q 3469 63 3072 -14 
Q 2675 -91 2278 -91 
Q 1328 -91 801 392 
Q 275 875 275 1747 
Q 275 2603 792 3093 
Q 1309 3584 2216 3584 
Q 3041 3584 3536 3087 
Q 4031 2591 4031 1759 
z
M 2881 2131 
Q 2881 2450 2695 2645 
Q 2509 2841 2209 2841 
Q 1884 2841 1681 2658 
Q 1478 2475 1428 2131 
L 2881 2131 
z
" transform="scale(0.015625)"/>
       <path id="DejaVuSans-Bold-20" transform="scale(0.015625)"/>
       <path id="DejaVuSans-Bold-5b" d="M 550 4863 
L 2491 4863 
L 2491 4159 
L 1613 4159 
L 1613 -141 
L 2491 -141 
L 2491 -844 
L 550 -844 
L 550 4863 
z
" transform="scale(0.015625)"/>
       <path id="DejaVuSans-Bold-68" d="M 4056 2131 
L 4056 0 
L 2931 0 
L 2931 347 
L 2931 1625 
Q 2931 2084 2911 2256 
Q 2891 2428 2841 2509 
Q 2775 2619 2662 2680 
Q 2550 2741 2406 2741 
Q 2056 2741 1856 2470 
Q 1656 2200 1656 1722 
L 1656 0 
L 538 0 
L 538 4863 
L 1656 4863 
L 1656 2988 
Q 1909 3294 2193 3439 
Q 2478 3584 2822 3584 
Q 3428 3584 3742 3212 
Q 4056 2841 4056 2131 
z
" transform="scale(0.015625)"/>
       <path id="DejaVuSans-Bold-72" d="M 3138 2547 
Q 2991 2616 2845 2648 
Q 2700 2681 2553 2681 
Q 2122 2681 1889 2404 
Q 1656 2128 1656 1613 
L 1656 0 
L 538 0 
L 538 3500 
L 1656 3500 
L 1656 2925 
Q 1872 3269 2151 3426 
Q 2431 3584 2822 3584 
Q 2878 3584 2943 3579 
Q 3009 3575 3134 3559 
L 3138 2547 
z
" transform="scale(0.015625)"/>
       <path id="DejaVuSans-Bold-5d" d="M 2375 -844 
L 434 -844 
L 434 -141 
L 1313 -141 
L 1313 4159 
L 434 4159 
L 434 4863 
L 2375 4863 
L 2375 -844 
z
" transform="scale(0.015625)"/>
      </defs>
      <use xlink:href="#DejaVuSans-Bold-74"/>
      <use xlink:href="#DejaVuSans-Bold-69" x="47.802734"/>
      <use xlink:href="#DejaVuSans-Bold-6d" x="82.080078"/>
      <use xlink:href="#DejaVuSans-Bold-65" x="186.279297"/>
      <use xlink:href="#DejaVuSans-Bold-20" x="254.101562"/>
      <use xlink:href="#DejaVuSans-Bold-5b" x="288.916016"/>
      <use xlink:href="#DejaVuSans-Bold-68" x="334.619141"/>
      <use xlink:href="#DejaVuSans-Bold-72" x="405.810547"/>
      <use xlink:href="#DejaVuSans-Bold-5d" x="455.126953"/>
     </g>
    </g>
   </g>
   <g id="matplotlib.axis_2">
    <g id="ytick_1">
     <g id="line2d_7">
      <defs>
       <path id="m269a97ff96" d="M 0 0 
L -3.5 0 
" style="stroke: #000000; stroke-width: 0.8"/>
      </defs>
      <g>
       <use xlink:href="#m269a97ff96" x="79.651062" y="307.505408" style="stroke: #000000; stroke-width: 0.8"/>
      </g>
     </g>
     <g id="text_8">
      <!-- 0.0 -->
      <g transform="translate(48.796375 313.204236) scale(0.15 -0.15)">
       <defs>
        <path id="DejaVuSans-2e" d="M 684 794 
L 1344 794 
L 1344 0 
L 684 0 
L 684 794 
z
" transform="scale(0.015625)"/>
       </defs>
       <use xlink:href="#DejaVuSans-30"/>
       <use xlink:href="#DejaVuSans-2e" x="63.623047"/>
       <use xlink:href="#DejaVuSans-30" x="95.410156"/>
      </g>
     </g>
    </g>
    <g id="ytick_2">
     <g id="line2d_8">
      <g>
       <use xlink:href="#m269a97ff96" x="79.651062" y="262.724863" style="stroke: #000000; stroke-width: 0.8"/>
      </g>
     </g>
     <g id="text_9">
      <!-- 0.2 -->
      <g transform="translate(48.796375 268.423691) scale(0.15 -0.15)">
       <use xlink:href="#DejaVuSans-30"/>
       <use xlink:href="#DejaVuSans-2e" x="63.623047"/>
       <use xlink:href="#DejaVuSans-32" x="95.410156"/>
      </g>
     </g>
    </g>
    <g id="ytick_3">
     <g id="line2d_9">
      <g>
       <use xlink:href="#m269a97ff96" x="79.651062" y="217.944317" style="stroke: #000000; stroke-width: 0.8"/>
      </g>
     </g>
     <g id="text_10">
      <!-- 0.4 -->
      <g transform="translate(48.796375 223.643145) scale(0.15 -0.15)">
       <use xlink:href="#DejaVuSans-30"/>
       <use xlink:href="#DejaVuSans-2e" x="63.623047"/>
       <use xlink:href="#DejaVuSans-34" x="95.410156"/>
      </g>
     </g>
    </g>
    <g id="ytick_4">
     <g id="line2d_10">
      <g>
       <use xlink:href="#m269a97ff96" x="79.651062" y="173.163772" style="stroke: #000000; stroke-width: 0.8"/>
      </g>
     </g>
     <g id="text_11">
      <!-- 0.6 -->
      <g transform="translate(48.796375 178.8626) scale(0.15 -0.15)">
       <defs>
        <path id="DejaVuSans-36" d="M 2113 2584 
Q 1688 2584 1439 2293 
Q 1191 2003 1191 1497 
Q 1191 994 1439 701 
Q 1688 409 2113 409 
Q 2538 409 2786 701 
Q 3034 994 3034 1497 
Q 3034 2003 2786 2293 
Q 2538 2584 2113 2584 
z
M 3366 4563 
L 3366 3988 
Q 3128 4100 2886 4159 
Q 2644 4219 2406 4219 
Q 1781 4219 1451 3797 
Q 1122 3375 1075 2522 
Q 1259 2794 1537 2939 
Q 1816 3084 2150 3084 
Q 2853 3084 3261 2657 
Q 3669 2231 3669 1497 
Q 3669 778 3244 343 
Q 2819 -91 2113 -91 
Q 1303 -91 875 529 
Q 447 1150 447 2328 
Q 447 3434 972 4092 
Q 1497 4750 2381 4750 
Q 2619 4750 2861 4703 
Q 3103 4656 3366 4563 
z
" transform="scale(0.015625)"/>
       </defs>
       <use xlink:href="#DejaVuSans-30"/>
       <use xlink:href="#DejaVuSans-2e" x="63.623047"/>
       <use xlink:href="#DejaVuSans-36" x="95.410156"/>
      </g>
     </g>
    </g>
    <g id="ytick_5">
     <g id="line2d_11">
      <g>
       <use xlink:href="#m269a97ff96" x="79.651062" y="128.383226" style="stroke: #000000; stroke-width: 0.8"/>
      </g>
     </g>
     <g id="text_12">
      <!-- 0.8 -->
      <g transform="translate(48.796375 134.082054) scale(0.15 -0.15)">
       <defs>
        <path id="DejaVuSans-38" d="M 2034 2216 
Q 1584 2216 1326 1975 
Q 1069 1734 1069 1313 
Q 1069 891 1326 650 
Q 1584 409 2034 409 
Q 2484 409 2743 651 
Q 3003 894 3003 1313 
Q 3003 1734 2745 1975 
Q 2488 2216 2034 2216 
z
M 1403 2484 
Q 997 2584 770 2862 
Q 544 3141 544 3541 
Q 544 4100 942 4425 
Q 1341 4750 2034 4750 
Q 2731 4750 3128 4425 
Q 3525 4100 3525 3541 
Q 3525 3141 3298 2862 
Q 3072 2584 2669 2484 
Q 3125 2378 3379 2068 
Q 3634 1759 3634 1313 
Q 3634 634 3220 271 
Q 2806 -91 2034 -91 
Q 1263 -91 848 271 
Q 434 634 434 1313 
Q 434 1759 690 2068 
Q 947 2378 1403 2484 
z
M 1172 3481 
Q 1172 3119 1398 2916 
Q 1625 2713 2034 2713 
Q 2441 2713 2670 2916 
Q 2900 3119 2900 3481 
Q 2900 3844 2670 4047 
Q 2441 4250 2034 4250 
Q 1625 4250 1398 4047 
Q 1172 3844 1172 3481 
z
" transform="scale(0.015625)"/>
       </defs>
       <use xlink:href="#DejaVuSans-30"/>
       <use xlink:href="#DejaVuSans-2e" x="63.623047"/>
       <use xlink:href="#DejaVuSans-38" x="95.410156"/>
      </g>
     </g>
    </g>
    <g id="ytick_6">
     <g id="line2d_12">
      <g>
       <use xlink:href="#m269a97ff96" x="79.651062" y="83.602681" style="stroke: #000000; stroke-width: 0.8"/>
      </g>
     </g>
     <g id="text_13">
      <!-- 1.0 -->
      <g transform="translate(48.796375 89.301509) scale(0.15 -0.15)">
       <use xlink:href="#DejaVuSans-31"/>
       <use xlink:href="#DejaVuSans-2e" x="63.623047"/>
       <use xlink:href="#DejaVuSans-30" x="95.410156"/>
      </g>
     </g>
    </g>
    <g id="text_14">
     <!-- rivaroxaban -->
     <g transform="translate(20.877187 260.608145) rotate(-90) scale(0.18 -0.18)">
      <defs>
       <path id="DejaVuSans-Bold-76" d="M 97 3500 
L 1216 3500 
L 2088 1081 
L 2956 3500 
L 4078 3500 
L 2700 0 
L 1472 0 
L 97 3500 
z
" transform="scale(0.015625)"/>
       <path id="DejaVuSans-Bold-61" d="M 2106 1575 
Q 1756 1575 1579 1456 
Q 1403 1338 1403 1106 
Q 1403 894 1545 773 
Q 1688 653 1941 653 
Q 2256 653 2472 879 
Q 2688 1106 2688 1447 
L 2688 1575 
L 2106 1575 
z
M 3816 1997 
L 3816 0 
L 2688 0 
L 2688 519 
Q 2463 200 2181 54 
Q 1900 -91 1497 -91 
Q 953 -91 614 226 
Q 275 544 275 1050 
Q 275 1666 698 1953 
Q 1122 2241 2028 2241 
L 2688 2241 
L 2688 2328 
Q 2688 2594 2478 2717 
Q 2269 2841 1825 2841 
Q 1466 2841 1156 2769 
Q 847 2697 581 2553 
L 581 3406 
Q 941 3494 1303 3539 
Q 1666 3584 2028 3584 
Q 2975 3584 3395 3211 
Q 3816 2838 3816 1997 
z
" transform="scale(0.015625)"/>
       <path id="DejaVuSans-Bold-6f" d="M 2203 2784 
Q 1831 2784 1636 2517 
Q 1441 2250 1441 1747 
Q 1441 1244 1636 976 
Q 1831 709 2203 709 
Q 2569 709 2762 976 
Q 2956 1244 2956 1747 
Q 2956 2250 2762 2517 
Q 2569 2784 2203 2784 
z
M 2203 3584 
Q 3106 3584 3614 3096 
Q 4122 2609 4122 1747 
Q 4122 884 3614 396 
Q 3106 -91 2203 -91 
Q 1297 -91 786 396 
Q 275 884 275 1747 
Q 275 2609 786 3096 
Q 1297 3584 2203 3584 
z
" transform="scale(0.015625)"/>
       <path id="DejaVuSans-Bold-78" d="M 1422 1791 
L 159 3500 
L 1344 3500 
L 2059 2463 
L 2784 3500 
L 3969 3500 
L 2706 1797 
L 4031 0 
L 2847 0 
L 2059 1106 
L 1281 0 
L 97 0 
L 1422 1791 
z
" transform="scale(0.015625)"/>
       <path id="DejaVuSans-Bold-62" d="M 2400 722 
Q 2759 722 2948 984 
Q 3138 1247 3138 1747 
Q 3138 2247 2948 2509 
Q 2759 2772 2400 2772 
Q 2041 2772 1848 2508 
Q 1656 2244 1656 1747 
Q 1656 1250 1848 986 
Q 2041 722 2400 722 
z
M 1656 2988 
Q 1888 3294 2169 3439 
Q 2450 3584 2816 3584 
Q 3463 3584 3878 3070 
Q 4294 2556 4294 1747 
Q 4294 938 3878 423 
Q 3463 -91 2816 -91 
Q 2450 -91 2169 54 
Q 1888 200 1656 506 
L 1656 0 
L 538 0 
L 538 4863 
L 1656 4863 
L 1656 2988 
z
" transform="scale(0.015625)"/>
       <path id="DejaVuSans-Bold-6e" d="M 4056 2131 
L 4056 0 
L 2931 0 
L 2931 347 
L 2931 1631 
Q 2931 2084 2911 2256 
Q 2891 2428 2841 2509 
Q 2775 2619 2662 2680 
Q 2550 2741 2406 2741 
Q 2056 2741 1856 2470 
Q 1656 2200 1656 1722 
L 1656 0 
L 538 0 
L 538 3500 
L 1656 3500 
L 1656 2988 
Q 1909 3294 2193 3439 
Q 2478 3584 2822 3584 
Q 3428 3584 3742 3212 
Q 4056 2841 4056 2131 
z
" transform="scale(0.015625)"/>
      </defs>
      <use xlink:href="#DejaVuSans-Bold-72"/>
      <use xlink:href="#DejaVuSans-Bold-69" x="49.316406"/>
      <use xlink:href="#DejaVuSans-Bold-76" x="83.59375"/>
      <use xlink:href="#DejaVuSans-Bold-61" x="148.779297"/>
      <use xlink:href="#DejaVuSans-Bold-72" x="216.259766"/>
      <use xlink:href="#DejaVuSans-Bold-6f" x="265.576172"/>
      <use xlink:href="#DejaVuSans-Bold-78" x="334.277344"/>
      <use xlink:href="#DejaVuSans-Bold-61" x="398.779297"/>
      <use xlink:href="#DejaVuSans-Bold-62" x="466.259766"/>
      <use xlink:href="#DejaVuSans-Bold-61" x="537.841797"/>
      <use xlink:href="#DejaVuSans-Bold-6e" x="605.322266"/>
     </g>
     <!-- plasma [µM] -->
     <g transform="translate(41.03325 263.069083) rotate(-90) scale(0.18 -0.18)">
      <defs>
       <path id="DejaVuSans-Bold-70" d="M 1656 506 
L 1656 -1331 
L 538 -1331 
L 538 3500 
L 1656 3500 
L 1656 2988 
Q 1888 3294 2169 3439 
Q 2450 3584 2816 3584 
Q 3463 3584 3878 3070 
Q 4294 2556 4294 1747 
Q 4294 938 3878 423 
Q 3463 -91 2816 -91 
Q 2450 -91 2169 54 
Q 1888 200 1656 506 
z
M 2400 2772 
Q 2041 2772 1848 2508 
Q 1656 2244 1656 1747 
Q 1656 1250 1848 986 
Q 2041 722 2400 722 
Q 2759 722 2948 984 
Q 3138 1247 3138 1747 
Q 3138 2247 2948 2509 
Q 2759 2772 2400 2772 
z
" transform="scale(0.015625)"/>
       <path id="DejaVuSans-Bold-6c" d="M 538 4863 
L 1656 4863 
L 1656 0 
L 538 0 
L 538 4863 
z
" transform="scale(0.015625)"/>
       <path id="DejaVuSans-Bold-73" d="M 3272 3391 
L 3272 2541 
Q 2913 2691 2578 2766 
Q 2244 2841 1947 2841 
Q 1628 2841 1473 2761 
Q 1319 2681 1319 2516 
Q 1319 2381 1436 2309 
Q 1553 2238 1856 2203 
L 2053 2175 
Q 2913 2066 3209 1816 
Q 3506 1566 3506 1031 
Q 3506 472 3093 190 
Q 2681 -91 1863 -91 
Q 1516 -91 1145 -36 
Q 775 19 384 128 
L 384 978 
Q 719 816 1070 734 
Q 1422 653 1784 653 
Q 2113 653 2278 743 
Q 2444 834 2444 1013 
Q 2444 1163 2330 1236 
Q 2216 1309 1875 1350 
L 1678 1375 
Q 931 1469 631 1722 
Q 331 1975 331 2491 
Q 331 3047 712 3315 
Q 1094 3584 1881 3584 
Q 2191 3584 2531 3537 
Q 2872 3491 3272 3391 
z
" transform="scale(0.015625)"/>
       <path id="DejaVuSans-Bold-b5" d="M 544 -1338 
L 544 3500 
L 1672 3500 
L 1672 1466 
Q 1672 1103 1828 926 
Q 1984 750 2303 750 
Q 2625 750 2781 926 
Q 2938 1103 2938 1466 
L 2938 3500 
L 4063 3500 
L 4063 1159 
Q 4063 938 4114 850 
Q 4166 763 4288 763 
Q 4344 763 4395 778 
Q 4447 794 4506 831 
L 4506 50 
Q 4341 -22 4195 -56 
Q 4050 -91 3909 -91 
Q 3631 -91 3454 26 
Q 3278 144 3169 403 
Q 3022 156 2811 32 
Q 2600 -91 2322 -91 
Q 2091 -91 1928 -17 
Q 1766 56 1672 206 
L 1672 -1338 
L 544 -1338 
z
" transform="scale(0.015625)"/>
       <path id="DejaVuSans-Bold-4d" d="M 588 4666 
L 2119 4666 
L 3181 2169 
L 4250 4666 
L 5778 4666 
L 5778 0 
L 4641 0 
L 4641 3413 
L 3566 897 
L 2803 897 
L 1728 3413 
L 1728 0 
L 588 0 
L 588 4666 
z
" transform="scale(0.015625)"/>
      </defs>
      <use xlink:href="#DejaVuSans-Bold-70"/>
      <use xlink:href="#DejaVuSans-Bold-6c" x="71.582031"/>
      <use xlink:href="#DejaVuSans-Bold-61" x="105.859375"/>
      <use xlink:href="#DejaVuSans-Bold-73" x="173.339844"/>
      <use xlink:href="#DejaVuSans-Bold-6d" x="232.861328"/>
      <use xlink:href="#DejaVuSans-Bold-61" x="337.060547"/>
      <use xlink:href="#DejaVuSans-Bold-20" x="404.541016"/>
      <use xlink:href="#DejaVuSans-Bold-5b" x="439.355469"/>
      <use xlink:href="#DejaVuSans-Bold-b5" x="485.058594"/>
      <use xlink:href="#DejaVuSans-Bold-4d" x="558.642578"/>
      <use xlink:href="#DejaVuSans-Bold-5d" x="658.154297"/>
     </g>
    </g>
   </g>
   <g id="line2d_13">
    <path d="M 97.405608 307.505408 
L 97.760699 307.371617 
L 98.11579 307.009516 
L 98.825972 305.768593 
L 99.891244 303.099499 
L 103.797244 292.212447 
L 105.217608 289.151222 
L 106.282881 287.28519 
L 107.348153 285.768125 
L 108.413426 284.567849 
L 109.478699 283.646809 
L 110.543972 282.966614 
L 111.964335 282.371526 
L 113.384699 282.062297 
L 114.805062 281.973426 
L 116.580517 282.09186 
L 118.711062 282.466942 
L 121.55179 283.206185 
L 126.167972 284.669117 
L 138.596153 288.681675 
L 146.053062 290.806504 
L 153.509972 292.696731 
L 161.321972 294.448898 
L 169.844153 296.124969 
L 178.721426 297.642536 
L 188.308881 299.05505 
L 198.606517 300.347694 
L 209.969426 301.545839 
L 222.397608 302.627915 
L 236.246153 303.603891 
L 251.870153 304.47264 
L 269.624699 305.227546 
L 290.219972 305.87113 
L 314.721244 306.404438 
L 344.903972 306.828631 
L 384.319062 307.146921 
L 440.423426 307.360314 
L 452.496517 307.385977 
L 452.496517 307.385977 
" clip-path="url(#pbb53205f98)" style="fill: none; stroke: #1f77b4; stroke-width: 2; stroke-linecap: square"/>
   </g>
   <g id="line2d_14">
    <path d="M 97.405608 280.782185 
L 118.383286 275.43754 
L 123.627706 271.874443 
L 134.116545 268.311347 
L 144.605384 268.311347 
L 160.338643 271.874443 
L 191.80516 280.782185 
L 223.271678 295.034571 
L 291.449132 302.160764 
L 338.648909 305.72386 
L 425.181832 309.286957 
" clip-path="url(#pbb53205f98)" style="fill: none; stroke-dasharray: 3.7,1.6; stroke-dashoffset: 0; stroke: #1f77b4"/>
    <defs>
     <path id="m6c14eea3b5" d="M -3 3 
L 3 3 
L 3 -3 
L -3 -3 
z
" style="stroke: #000000; stroke-linejoin: miter"/>
    </defs>
    <g clip-path="url(#pbb53205f98)">
     <use xlink:href="#m6c14eea3b5" x="97.405608" y="280.782185" style="fill: #1f77b4; stroke: #000000; stroke-linejoin: miter"/>
     <use xlink:href="#m6c14eea3b5" x="118.383286" y="275.43754" style="fill: #1f77b4; stroke: #000000; stroke-linejoin: miter"/>
     <use xlink:href="#m6c14eea3b5" x="123.627706" y="271.874443" style="fill: #1f77b4; stroke: #000000; stroke-linejoin: miter"/>
     <use xlink:href="#m6c14eea3b5" x="134.116545" y="268.311347" style="fill: #1f77b4; stroke: #000000; stroke-linejoin: miter"/>
     <use xlink:href="#m6c14eea3b5" x="144.605384" y="268.311347" style="fill: #1f77b4; stroke: #000000; stroke-linejoin: miter"/>
     <use xlink:href="#m6c14eea3b5" x="160.338643" y="271.874443" style="fill: #1f77b4; stroke: #000000; stroke-linejoin: miter"/>
     <use xlink:href="#m6c14eea3b5" x="191.80516" y="280.782185" style="fill: #1f77b4; stroke: #000000; stroke-linejoin: miter"/>
     <use xlink:href="#m6c14eea3b5" x="223.271678" y="295.034571" style="fill: #1f77b4; stroke: #000000; stroke-linejoin: miter"/>
     <use xlink:href="#m6c14eea3b5" x="291.449132" y="302.160764" style="fill: #1f77b4; stroke: #000000; stroke-linejoin: miter"/>
     <use xlink:href="#m6c14eea3b5" x="338.648909" y="305.72386" style="fill: #1f77b4; stroke: #000000; stroke-linejoin: miter"/>
     <use xlink:href="#m6c14eea3b5" x="425.181832" y="309.286957" style="fill: #1f77b4; stroke: #000000; stroke-linejoin: miter"/>
    </g>
   </g>
   <g id="line2d_15">
    <path d="M 97.405608 307.505408 
L 97.760699 307.237827 
L 98.11579 306.513624 
L 98.825972 304.031778 
L 99.891244 298.693591 
L 103.797244 276.919486 
L 105.217608 270.797036 
L 106.282881 267.064972 
L 107.348153 264.030842 
L 108.413426 261.630289 
L 109.478699 259.788211 
L 110.543972 258.42782 
L 111.609244 257.475925 
L 112.674517 256.865719 
L 113.73979 256.538007 
L 114.805062 256.441444 
L 116.225426 256.597536 
L 117.64579 257.002332 
L 119.421244 257.758105 
L 121.906881 259.11609 
L 125.45779 261.363511 
L 137.530881 269.211232 
L 142.857244 272.345662 
L 148.183608 275.233951 
L 153.865062 278.057073 
L 159.546517 280.634185 
L 165.583062 283.125986 
L 171.974699 285.513053 
L 178.366335 287.666414 
L 185.113062 289.711095 
L 192.214881 291.636152 
L 199.67179 293.433738 
L 207.838881 295.169752 
L 216.361063 296.753325 
L 225.593426 298.240299 
L 235.535972 299.612519 
L 246.188699 300.858052 
L 257.906699 302.002361 
L 270.689972 303.027257 
L 285.248699 303.964104 
L 301.582881 304.783983 
L 320.402699 305.496195 
L 342.418335 306.09651 
L 368.695062 306.583053 
L 402.073608 306.9669 
L 446.815062 307.243634 
L 452.496517 307.266546 
L 452.496517 307.266546 
" clip-path="url(#pbb53205f98)" style="fill: none; stroke: #ff7f0e; stroke-width: 2; stroke-linecap: square"/>
   </g>
   <g id="line2d_16">
    <path d="M 97.405608 295.034571 
L 123.627706 280.782185 
L 128.872125 264.74825 
L 139.360965 250.495864 
L 144.605384 241.588123 
L 160.338643 236.243478 
L 191.80516 246.932768 
L 223.271678 279.000636 
L 291.449132 293.253022 
L 338.648909 302.160764 
L 425.181832 307.505408 
" clip-path="url(#pbb53205f98)" style="fill: none; stroke-dasharray: 3.7,1.6; stroke-dashoffset: 0; stroke: #ff7f0e"/>
    <defs>
     <path id="m163b510110" d="M -3 3 
L 3 3 
L 3 -3 
L -3 -3 
z
" style="stroke: #000000; stroke-linejoin: miter"/>
    </defs>
    <g clip-path="url(#pbb53205f98)">
     <use xlink:href="#m163b510110" x="97.405608" y="295.034571" style="fill: #ff7f0e; stroke: #000000; stroke-linejoin: miter"/>
     <use xlink:href="#m163b510110" x="123.627706" y="280.782185" style="fill: #ff7f0e; stroke: #000000; stroke-linejoin: miter"/>
     <use xlink:href="#m163b510110" x="128.872125" y="264.74825" style="fill: #ff7f0e; stroke: #000000; stroke-linejoin: miter"/>
     <use xlink:href="#m163b510110" x="139.360965" y="250.495864" style="fill: #ff7f0e; stroke: #000000; stroke-linejoin: miter"/>
     <use xlink:href="#m163b510110" x="144.605384" y="241.588123" style="fill: #ff7f0e; stroke: #000000; stroke-linejoin: miter"/>
     <use xlink:href="#m163b510110" x="160.338643" y="236.243478" style="fill: #ff7f0e; stroke: #000000; stroke-linejoin: miter"/>
     <use xlink:href="#m163b510110" x="191.80516" y="246.932768" style="fill: #ff7f0e; stroke: #000000; stroke-linejoin: miter"/>
     <use xlink:href="#m163b510110" x="223.271678" y="279.000636" style="fill: #ff7f0e; stroke: #000000; stroke-linejoin: miter"/>
     <use xlink:href="#m163b510110" x="291.449132" y="293.253022" style="fill: #ff7f0e; stroke: #000000; stroke-linejoin: miter"/>
     <use xlink:href="#m163b510110" x="338.648909" y="302.160764" style="fill: #ff7f0e; stroke: #000000; stroke-linejoin: miter"/>
     <use xlink:href="#m163b510110" x="425.181832" y="307.505408" style="fill: #ff7f0e; stroke: #000000; stroke-linejoin: miter"/>
    </g>
   </g>
   <g id="line2d_17">
    <path d="M 97.405608 307.505408 
L 97.760699 306.970245 
L 98.11579 305.521841 
L 98.825972 300.558148 
L 99.891244 289.881773 
L 103.797244 246.333563 
L 105.217608 234.088664 
L 106.282881 226.624536 
L 107.348153 220.556275 
L 108.413426 215.75517 
L 109.478699 212.071013 
L 110.543972 209.350232 
L 111.254153 207.998809 
L 111.964335 206.969877 
L 112.674517 206.226031 
L 113.384699 205.732963 
L 114.094881 205.459491 
L 114.805062 205.377479 
L 115.515244 205.461702 
L 116.580517 205.851215 
L 117.64579 206.499256 
L 119.066153 207.673061 
L 120.841608 209.498384 
L 122.972153 212.0246 
L 126.523062 216.631792 
L 135.400335 228.272439 
L 140.016517 233.904334 
L 144.277608 238.773823 
L 148.538699 243.330593 
L 153.154881 247.930731 
L 157.771062 252.202578 
L 162.387244 256.168609 
L 167.003426 259.850388 
L 171.974699 263.520699 
L 176.945972 266.90835 
L 181.917244 270.035094 
L 187.243608 273.118444 
L 192.569972 275.948073 
L 198.251426 278.710177 
L 203.932881 281.230523 
L 209.969426 283.667132 
L 216.361063 286.001241 
L 223.10779 288.217542 
L 230.209608 290.304179 
L 237.666517 292.252643 
L 245.478517 294.057603 
L 253.645608 295.716651 
L 262.522881 297.288672 
L 272.110335 298.751866 
L 282.407972 300.090888 
L 293.41579 301.296578 
L 305.488881 302.394738 
L 318.982335 303.393902 
L 333.896153 304.272606 
L 350.940517 305.049343 
L 370.470517 305.712752 
L 393.551426 306.269769 
L 421.958699 306.723793 
L 452.496517 307.027684 
L 452.496517 307.027684 
" clip-path="url(#pbb53205f98)" style="fill: none; stroke: #d62728; stroke-width: 2; stroke-linecap: square"/>
   </g>
   <g id="line2d_18">
    <path d="M 97.405608 293.253022 
L 113.138867 238.025027 
L 118.383286 202.394062 
L 128.872125 186.360127 
L 134.116545 154.292259 
L 144.605384 157.855355 
L 160.338643 175.670838 
L 191.80516 214.864899 
L 223.271678 257.622057 
L 291.449132 286.126829 
L 338.648909 296.816119 
L 425.181832 305.72386 
" clip-path="url(#pbb53205f98)" style="fill: none; stroke-dasharray: 3.7,1.6; stroke-dashoffset: 0; stroke: #d62728"/>
    <defs>
     <path id="m3e1cac27ab" d="M -3 3 
L 3 3 
L 3 -3 
L -3 -3 
z
" style="stroke: #000000; stroke-linejoin: miter"/>
    </defs>
    <g clip-path="url(#pbb53205f98)">
     <use xlink:href="#m3e1cac27ab" x="97.405608" y="293.253022" style="fill: #d62728; stroke: #000000; stroke-linejoin: miter"/>
     <use xlink:href="#m3e1cac27ab" x="113.138867" y="238.025027" style="fill: #d62728; stroke: #000000; stroke-linejoin: miter"/>
     <use xlink:href="#m3e1cac27ab" x="118.383286" y="202.394062" style="fill: #d62728; stroke: #000000; stroke-linejoin: miter"/>
     <use xlink:href="#m3e1cac27ab" x="128.872125" y="186.360127" style="fill: #d62728; stroke: #000000; stroke-linejoin: miter"/>
     <use xlink:href="#m3e1cac27ab" x="134.116545" y="154.292259" style="fill: #d62728; stroke: #000000; stroke-linejoin: miter"/>
     <use xlink:href="#m3e1cac27ab" x="144.605384" y="157.855355" style="fill: #d62728; stroke: #000000; stroke-linejoin: miter"/>
     <use xlink:href="#m3e1cac27ab" x="160.338643" y="175.670838" style="fill: #d62728; stroke: #000000; stroke-linejoin: miter"/>
     <use xlink:href="#m3e1cac27ab" x="191.80516" y="214.864899" style="fill: #d62728; stroke: #000000; stroke-linejoin: miter"/>
     <use xlink:href="#m3e1cac27ab" x="223.271678" y="257.622057" style="fill: #d62728; stroke: #000000; stroke-linejoin: miter"/>
     <use xlink:href="#m3e1cac27ab" x="291.449132" y="286.126829" style="fill: #d62728; stroke: #000000; stroke-linejoin: miter"/>
     <use xlink:href="#m3e1cac27ab" x="338.648909" y="296.816119" style="fill: #d62728; stroke: #000000; stroke-linejoin: miter"/>
     <use xlink:href="#m3e1cac27ab" x="425.181832" y="305.72386" style="fill: #d62728; stroke: #000000; stroke-linejoin: miter"/>
    </g>
   </g>
   <g id="line2d_19">
    <path d="M 97.405608 307.505408 
L 97.760699 306.702663 
L 98.11579 304.530057 
L 98.825972 297.084518 
L 99.891244 281.069955 
L 103.797244 215.747641 
L 105.217608 197.380292 
L 106.282881 186.1841 
L 107.348153 177.081709 
L 108.413426 169.880051 
L 109.478699 164.353815 
L 110.543972 160.272644 
L 111.254153 158.245509 
L 111.964335 156.702112 
L 112.674517 155.586342 
L 113.384699 154.84674 
L 114.094881 154.436532 
L 114.805062 154.313515 
L 115.515244 154.439849 
L 116.225426 154.781792 
L 117.290699 155.634417 
L 118.355972 156.818834 
L 119.776335 158.792427 
L 121.55179 161.710068 
L 124.037426 166.306155 
L 128.653608 175.458797 
L 134.690153 187.308891 
L 138.951244 195.203162 
L 143.212335 202.626564 
L 147.473426 209.577341 
L 151.734517 216.074279 
L 155.995608 222.142745 
L 160.256699 227.809393 
L 164.51779 233.100227 
L 168.778881 238.039948 
L 173.039972 242.651773 
L 177.301063 246.957437 
L 181.917244 251.299938 
L 186.533426 255.330997 
L 191.149608 259.072949 
L 196.120881 262.803173 
L 201.092153 266.246098 
L 206.063426 269.423853 
L 211.38979 272.557501 
L 216.716153 275.433289 
L 222.397608 278.24045 
L 228.079062 280.80191 
L 234.115608 283.278267 
L 240.507244 285.650451 
L 246.898881 287.790364 
L 253.645608 289.822272 
L 260.747426 291.735302 
L 268.559426 293.601482 
L 276.726517 295.316801 
L 285.248699 296.881497 
L 294.481063 298.350745 
L 304.423608 299.706608 
L 315.431426 300.974786 
L 327.149426 302.099 
L 340.28779 303.131012 
L 354.846517 304.046154 
L 371.180699 304.847036 
L 390.000517 305.542747 
L 412.016153 306.129154 
L 438.647972 306.609567 
L 452.496517 306.788823 
L 452.496517 306.788823 
" clip-path="url(#pbb53205f98)" style="fill: none; stroke: #2ca02c; stroke-width: 2; stroke-linecap: square"/>
   </g>
   <g id="line2d_20">
    <path d="M 97.405608 295.034571 
L 113.138867 209.520255 
L 118.383286 143.602969 
L 128.872125 104.408908 
L 134.116545 95.501166 
L 144.605384 90.156522 
L 160.338643 111.535101 
L 191.80516 166.763097 
L 228.516097 234.46193 
L 291.449132 279.000636 
L 338.648909 291.471474 
L 425.181832 302.160764 
" clip-path="url(#pbb53205f98)" style="fill: none; stroke-dasharray: 3.7,1.6; stroke-dashoffset: 0; stroke: #2ca02c"/>
    <defs>
     <path id="mf1de14aad4" d="M -3 3 
L 3 3 
L 3 -3 
L -3 -3 
z
" style="stroke: #000000; stroke-linejoin: miter"/>
    </defs>
    <g clip-path="url(#pbb53205f98)">
     <use xlink:href="#mf1de14aad4" x="97.405608" y="295.034571" style="fill: #2ca02c; stroke: #000000; stroke-linejoin: miter"/>
     <use xlink:href="#mf1de14aad4" x="113.138867" y="209.520255" style="fill: #2ca02c; stroke: #000000; stroke-linejoin: miter"/>
     <use xlink:href="#mf1de14aad4" x="118.383286" y="143.602969" style="fill: #2ca02c; stroke: #000000; stroke-linejoin: miter"/>
     <use xlink:href="#mf1de14aad4" x="128.872125" y="104.408908" style="fill: #2ca02c; stroke: #000000; stroke-linejoin: miter"/>
     <use xlink:href="#mf1de14aad4" x="134.116545" y="95.501166" style="fill: #2ca02c; stroke: #000000; stroke-linejoin: miter"/>
     <use xlink:href="#mf1de14aad4" x="144.605384" y="90.156522" style="fill: #2ca02c; stroke: #000000; stroke-linejoin: miter"/>
     <use xlink:href="#mf1de14aad4" x="160.338643" y="111.535101" style="fill: #2ca02c; stroke: #000000; stroke-linejoin: miter"/>
     <use xlink:href="#mf1de14aad4" x="191.80516" y="166.763097" style="fill: #2ca02c; stroke: #000000; stroke-linejoin: miter"/>
     <use xlink:href="#mf1de14aad4" x="228.516097" y="234.46193" style="fill: #2ca02c; stroke: #000000; stroke-linejoin: miter"/>
     <use xlink:href="#mf1de14aad4" x="291.449132" y="279.000636" style="fill: #2ca02c; stroke: #000000; stroke-linejoin: miter"/>
     <use xlink:href="#mf1de14aad4" x="338.648909" y="291.471474" style="fill: #2ca02c; stroke: #000000; stroke-linejoin: miter"/>
     <use xlink:href="#mf1de14aad4" x="425.181832" y="302.160764" style="fill: #2ca02c; stroke: #000000; stroke-linejoin: miter"/>
    </g>
   </g>
   <g id="patch_3">
    <path d="M 79.651062 320.243478 
L 79.651062 79.2 
" style="fill: none; stroke: #000000; stroke-width: 0.8; stroke-linejoin: miter; stroke-linecap: square"/>
   </g>
   <g id="patch_4">
    <path d="M 470.251062 320.243478 
L 470.251062 79.2 
" style="fill: none; stroke: #000000; stroke-width: 0.8; stroke-linejoin: miter; stroke-linecap: square"/>
   </g>
   <g id="patch_5">
    <path d="M 79.651062 320.243478 
L 470.251062 320.243478 
" style="fill: none; stroke: #000000; stroke-width: 0.8; stroke-linejoin: miter; stroke-linecap: square"/>
   </g>
   <g id="patch_6">
    <path d="M 79.651062 79.2 
L 470.251062 79.2 
" style="fill: none; stroke: #000000; stroke-width: 0.8; stroke-linejoin: miter; stroke-linecap: square"/>
   </g>
  </g>
  <g id="axes_2">
   <g id="patch_7">
    <path d="M 79.651062 633.6 
L 470.251062 633.6 
L 470.251062 392.556522 
L 79.651062 392.556522 
z
" style="fill: #ffffff"/>
   </g>
   <g id="matplotlib.axis_3">
    <g id="xtick_7">
     <g id="line2d_21">
      <g>
       <use xlink:href="#m28d8cea2b4" x="97.405608" y="633.6" style="stroke: #000000; stroke-width: 0.8"/>
      </g>
     </g>
     <g id="text_15">
      <!-- 0 -->
      <g transform="translate(92.633733 651.997656) scale(0.15 -0.15)">
       <use xlink:href="#DejaVuSans-30"/>
      </g>
     </g>
    </g>
    <g id="xtick_8">
     <g id="line2d_22">
      <g>
       <use xlink:href="#m28d8cea2b4" x="149.017659" y="633.6" style="stroke: #000000; stroke-width: 0.8"/>
      </g>
     </g>
     <g id="text_16">
      <!-- 25 -->
      <g transform="translate(139.473909 651.997656) scale(0.15 -0.15)">
       <use xlink:href="#DejaVuSans-32"/>
       <use xlink:href="#DejaVuSans-35" x="63.623047"/>
      </g>
     </g>
    </g>
    <g id="xtick_9">
     <g id="line2d_23">
      <g>
       <use xlink:href="#m28d8cea2b4" x="200.629709" y="633.6" style="stroke: #000000; stroke-width: 0.8"/>
      </g>
     </g>
     <g id="text_17">
      <!-- 50 -->
      <g transform="translate(191.085959 651.997656) scale(0.15 -0.15)">
       <use xlink:href="#DejaVuSans-35"/>
       <use xlink:href="#DejaVuSans-30" x="63.623047"/>
      </g>
     </g>
    </g>
    <g id="xtick_10">
     <g id="line2d_24">
      <g>
       <use xlink:href="#m28d8cea2b4" x="252.24176" y="633.6" style="stroke: #000000; stroke-width: 0.8"/>
      </g>
     </g>
     <g id="text_18">
      <!-- 75 -->
      <g transform="translate(242.69801 651.997656) scale(0.15 -0.15)">
       <defs>
        <path id="DejaVuSans-37" d="M 525 4666 
L 3525 4666 
L 3525 4397 
L 1831 0 
L 1172 0 
L 2766 4134 
L 525 4134 
L 525 4666 
z
" transform="scale(0.015625)"/>
       </defs>
       <use xlink:href="#DejaVuSans-37"/>
       <use xlink:href="#DejaVuSans-35" x="63.623047"/>
      </g>
     </g>
    </g>
    <g id="xtick_11">
     <g id="line2d_25">
      <g>
       <use xlink:href="#m28d8cea2b4" x="303.853811" y="633.6" style="stroke: #000000; stroke-width: 0.8"/>
      </g>
     </g>
     <g id="text_19">
      <!-- 100 -->
      <g transform="translate(289.538186 651.997656) scale(0.15 -0.15)">
       <use xlink:href="#DejaVuSans-31"/>
       <use xlink:href="#DejaVuSans-30" x="63.623047"/>
       <use xlink:href="#DejaVuSans-30" x="127.246094"/>
      </g>
     </g>
    </g>
    <g id="xtick_12">
     <g id="line2d_26">
      <g>
       <use xlink:href="#m28d8cea2b4" x="355.465862" y="633.6" style="stroke: #000000; stroke-width: 0.8"/>
      </g>
     </g>
     <g id="text_20">
      <!-- 125 -->
      <g transform="translate(341.150237 651.997656) scale(0.15 -0.15)">
       <use xlink:href="#DejaVuSans-31"/>
       <use xlink:href="#DejaVuSans-32" x="63.623047"/>
       <use xlink:href="#DejaVuSans-35" x="127.246094"/>
      </g>
     </g>
    </g>
    <g id="xtick_13">
     <g id="line2d_27">
      <g>
       <use xlink:href="#m28d8cea2b4" x="407.077912" y="633.6" style="stroke: #000000; stroke-width: 0.8"/>
      </g>
     </g>
     <g id="text_21">
      <!-- 150 -->
      <g transform="translate(392.762287 651.997656) scale(0.15 -0.15)">
       <use xlink:href="#DejaVuSans-31"/>
       <use xlink:href="#DejaVuSans-35" x="63.623047"/>
       <use xlink:href="#DejaVuSans-30" x="127.246094"/>
      </g>
     </g>
    </g>
    <g id="xtick_14">
     <g id="line2d_28">
      <g>
       <use xlink:href="#m28d8cea2b4" x="458.689963" y="633.6" style="stroke: #000000; stroke-width: 0.8"/>
      </g>
     </g>
     <g id="text_22">
      <!-- 175 -->
      <g transform="translate(444.374338 651.997656) scale(0.15 -0.15)">
       <use xlink:href="#DejaVuSans-31"/>
       <use xlink:href="#DejaVuSans-37" x="63.623047"/>
       <use xlink:href="#DejaVuSans-35" x="127.246094"/>
      </g>
     </g>
    </g>
    <g id="text_23">
     <!-- time [hr] -->
     <g transform="translate(229.876531 672.794375) scale(0.18 -0.18)">
      <use xlink:href="#DejaVuSans-Bold-74"/>
      <use xlink:href="#DejaVuSans-Bold-69" x="47.802734"/>
      <use xlink:href="#DejaVuSans-Bold-6d" x="82.080078"/>
      <use xlink:href="#DejaVuSans-Bold-65" x="186.279297"/>
      <use xlink:href="#DejaVuSans-Bold-20" x="254.101562"/>
      <use xlink:href="#DejaVuSans-Bold-5b" x="288.916016"/>
      <use xlink:href="#DejaVuSans-Bold-68" x="334.619141"/>
      <use xlink:href="#DejaVuSans-Bold-72" x="405.810547"/>
      <use xlink:href="#DejaVuSans-Bold-5d" x="455.126953"/>
     </g>
    </g>
   </g>
   <g id="matplotlib.axis_4">
    <g id="ytick_7">
     <g id="line2d_29">
      <g>
       <use xlink:href="#m269a97ff96" x="79.651062" y="622.643478" style="stroke: #000000; stroke-width: 0.8"/>
      </g>
     </g>
     <g id="text_24">
      <!-- 0.0 -->
      <g transform="translate(48.796375 628.342306) scale(0.15 -0.15)">
       <use xlink:href="#DejaVuSans-30"/>
       <use xlink:href="#DejaVuSans-2e" x="63.623047"/>
       <use xlink:href="#DejaVuSans-30" x="95.410156"/>
      </g>
     </g>
    </g>
    <g id="ytick_8">
     <g id="line2d_30">
      <g>
       <use xlink:href="#m269a97ff96" x="79.651062" y="589.462713" style="stroke: #000000; stroke-width: 0.8"/>
      </g>
     </g>
     <g id="text_25">
      <!-- 0.2 -->
      <g transform="translate(48.796375 595.161541) scale(0.15 -0.15)">
       <use xlink:href="#DejaVuSans-30"/>
       <use xlink:href="#DejaVuSans-2e" x="63.623047"/>
       <use xlink:href="#DejaVuSans-32" x="95.410156"/>
      </g>
     </g>
    </g>
    <g id="ytick_9">
     <g id="line2d_31">
      <g>
       <use xlink:href="#m269a97ff96" x="79.651062" y="556.281947" style="stroke: #000000; stroke-width: 0.8"/>
      </g>
     </g>
     <g id="text_26">
      <!-- 0.4 -->
      <g transform="translate(48.796375 561.980775) scale(0.15 -0.15)">
       <use xlink:href="#DejaVuSans-30"/>
       <use xlink:href="#DejaVuSans-2e" x="63.623047"/>
       <use xlink:href="#DejaVuSans-34" x="95.410156"/>
      </g>
     </g>
    </g>
    <g id="ytick_10">
     <g id="line2d_32">
      <g>
       <use xlink:href="#m269a97ff96" x="79.651062" y="523.101181" style="stroke: #000000; stroke-width: 0.8"/>
      </g>
     </g>
     <g id="text_27">
      <!-- 0.6 -->
      <g transform="translate(48.796375 528.800009) scale(0.15 -0.15)">
       <use xlink:href="#DejaVuSans-30"/>
       <use xlink:href="#DejaVuSans-2e" x="63.623047"/>
       <use xlink:href="#DejaVuSans-36" x="95.410156"/>
      </g>
     </g>
    </g>
    <g id="ytick_11">
     <g id="line2d_33">
      <g>
       <use xlink:href="#m269a97ff96" x="79.651062" y="489.920416" style="stroke: #000000; stroke-width: 0.8"/>
      </g>
     </g>
     <g id="text_28">
      <!-- 0.8 -->
      <g transform="translate(48.796375 495.619244) scale(0.15 -0.15)">
       <use xlink:href="#DejaVuSans-30"/>
       <use xlink:href="#DejaVuSans-2e" x="63.623047"/>
       <use xlink:href="#DejaVuSans-38" x="95.410156"/>
      </g>
     </g>
    </g>
    <g id="ytick_12">
     <g id="line2d_34">
      <g>
       <use xlink:href="#m269a97ff96" x="79.651062" y="456.73965" style="stroke: #000000; stroke-width: 0.8"/>
      </g>
     </g>
     <g id="text_29">
      <!-- 1.0 -->
      <g transform="translate(48.796375 462.438478) scale(0.15 -0.15)">
       <use xlink:href="#DejaVuSans-31"/>
       <use xlink:href="#DejaVuSans-2e" x="63.623047"/>
       <use xlink:href="#DejaVuSans-30" x="95.410156"/>
      </g>
     </g>
    </g>
    <g id="ytick_13">
     <g id="line2d_35">
      <g>
       <use xlink:href="#m269a97ff96" x="79.651062" y="423.558884" style="stroke: #000000; stroke-width: 0.8"/>
      </g>
     </g>
     <g id="text_30">
      <!-- 1.2 -->
      <g transform="translate(48.796375 429.257713) scale(0.15 -0.15)">
       <use xlink:href="#DejaVuSans-31"/>
       <use xlink:href="#DejaVuSans-2e" x="63.623047"/>
       <use xlink:href="#DejaVuSans-32" x="95.410156"/>
      </g>
     </g>
    </g>
    <g id="text_31">
     <!-- rivaroxaban -->
     <g transform="translate(20.877187 573.964667) rotate(-90) scale(0.18 -0.18)">
      <use xlink:href="#DejaVuSans-Bold-72"/>
      <use xlink:href="#DejaVuSans-Bold-69" x="49.316406"/>
      <use xlink:href="#DejaVuSans-Bold-76" x="83.59375"/>
      <use xlink:href="#DejaVuSans-Bold-61" x="148.779297"/>
      <use xlink:href="#DejaVuSans-Bold-72" x="216.259766"/>
      <use xlink:href="#DejaVuSans-Bold-6f" x="265.576172"/>
      <use xlink:href="#DejaVuSans-Bold-78" x="334.277344"/>
      <use xlink:href="#DejaVuSans-Bold-61" x="398.779297"/>
      <use xlink:href="#DejaVuSans-Bold-62" x="466.259766"/>
      <use xlink:href="#DejaVuSans-Bold-61" x="537.841797"/>
      <use xlink:href="#DejaVuSans-Bold-6e" x="605.322266"/>
     </g>
     <!-- plasma [µM] -->
     <g transform="translate(41.03325 576.425605) rotate(-90) scale(0.18 -0.18)">
      <use xlink:href="#DejaVuSans-Bold-70"/>
      <use xlink:href="#DejaVuSans-Bold-6c" x="71.582031"/>
      <use xlink:href="#DejaVuSans-Bold-61" x="105.859375"/>
      <use xlink:href="#DejaVuSans-Bold-73" x="173.339844"/>
      <use xlink:href="#DejaVuSans-Bold-6d" x="232.861328"/>
      <use xlink:href="#DejaVuSans-Bold-61" x="337.060547"/>
      <use xlink:href="#DejaVuSans-Bold-20" x="404.541016"/>
      <use xlink:href="#DejaVuSans-Bold-5b" x="439.355469"/>
      <use xlink:href="#DejaVuSans-Bold-b5" x="485.058594"/>
      <use xlink:href="#DejaVuSans-Bold-4d" x="558.642578"/>
      <use xlink:href="#DejaVuSans-Bold-5d" x="658.154297"/>
     </g>
    </g>
   </g>
   <g id="line2d_36">
    <path d="M 97.405608 622.643478 
L 97.901084 620.996165 
L 99.387511 611.025482 
L 99.882986 608.516411 
L 100.378462 606.640976 
L 100.873938 605.326344 
L 101.369413 604.47204 
L 101.864889 603.978162 
L 102.360365 603.757209 
L 102.855841 603.73757 
L 103.846792 604.09088 
L 105.333219 605.10928 
L 111.278927 609.708625 
L 114.251781 611.602948 
L 117.224635 613.221334 
L 120.19749 614.60264 
L 123.665819 615.960393 
L 127.134149 617.088882 
L 131.097955 618.147201 
L 135.557236 619.098784 
L 140.511993 619.921846 
L 146.457701 620.661356 
L 146.953177 620.713042 
L 146.953177 620.713042 
L 147.200915 620.259498 
L 147.69639 617.579612 
L 149.182817 607.975551 
L 149.926031 604.99355 
L 150.421506 603.721876 
L 150.916982 602.909411 
L 151.412458 602.45628 
L 151.907934 602.275011 
L 152.403409 602.294022 
L 153.146623 602.57895 
L 154.137574 603.24092 
L 156.119477 604.92273 
L 159.587807 607.845207 
L 162.312923 609.841739 
L 165.038039 611.572613 
L 168.010893 613.195571 
L 171.231485 614.686484 
L 171.726961 614.893971 
L 171.726961 614.893971 
L 171.974699 614.516796 
L 172.470175 611.986657 
L 173.956602 602.808812 
L 174.699815 600.027579 
L 175.195291 598.885398 
L 175.690767 598.199048 
L 176.186242 597.868745 
L 176.681718 597.807101 
L 177.177194 597.942617 
L 177.920407 598.396631 
L 179.159096 599.520447 
L 185.848018 606.228419 
L 188.325397 608.258283 
L 191.050513 610.203714 
L 193.775629 611.886228 
L 196.500745 613.3412 
L 196.500745 613.3412 
L 196.748483 612.984404 
L 197.243959 610.494223 
L 198.730386 601.430111 
L 199.473599 598.702451 
L 199.969075 597.594824 
L 200.464551 596.942127 
L 200.960027 596.644599 
L 201.455502 596.614876 
L 201.950978 596.78148 
L 202.694191 597.280614 
L 203.932881 598.475766 
L 210.374065 605.269561 
L 212.851443 607.41776 
L 215.576559 609.476825 
L 218.301676 611.257648 
L 221.27453 612.926856 
L 221.27453 612.926856 
L 221.522268 612.575498 
L 222.017743 610.09598 
L 223.50417 601.062216 
L 224.247384 598.348852 
L 224.74286 597.250445 
L 225.238335 596.606728 
L 225.733811 596.317946 
L 226.229287 596.296741 
L 226.724762 596.471641 
L 227.467976 596.982814 
L 228.706665 598.197002 
L 235.147849 605.071836 
L 237.625227 607.244504 
L 240.350344 609.327002 
L 243.07546 611.12809 
L 246.048314 612.816291 
L 246.048314 612.816291 
L 246.296052 612.466385 
L 246.791528 609.989712 
L 248.277955 600.964046 
L 249.021168 598.254497 
L 249.516644 597.15855 
L 250.01212 596.51723 
L 250.507595 596.230781 
L 251.003071 596.211849 
L 251.498547 596.388963 
L 252.24176 596.903349 
L 253.480449 598.122616 
L 259.921633 605.019074 
L 262.399012 607.198272 
L 265.124128 609.287024 
L 267.849244 611.093519 
L 270.822098 612.786788 
L 270.822098 612.786788 
L 271.069836 612.437269 
L 271.565312 609.961355 
L 273.051739 600.93785 
L 273.794953 598.229319 
L 274.290428 597.134029 
L 274.785904 596.493348 
L 275.28138 596.207522 
L 275.776855 596.189196 
L 276.272331 596.366901 
L 277.015545 596.882144 
L 278.254234 598.102767 
L 284.695418 605.004995 
L 287.172796 607.185935 
L 289.897912 609.276356 
L 292.623029 611.084294 
L 295.595883 612.778916 
L 295.595883 612.778916 
L 295.843621 612.4295 
L 296.339096 609.953788 
L 297.825523 600.93086 
L 298.568737 598.2226 
L 299.064213 597.127486 
L 299.559688 596.486975 
L 300.055164 596.201316 
L 300.55064 596.183152 
L 301.046115 596.361014 
L 301.789329 596.876486 
L 303.028018 598.09747 
L 309.469202 605.001238 
L 311.94658 607.182643 
L 314.671697 609.273509 
L 317.396813 611.081832 
L 320.369667 612.776815 
L 320.369667 612.776815 
L 320.617405 612.427426 
L 321.112881 609.951769 
L 322.599308 600.928995 
L 323.342521 598.220808 
L 323.837997 597.125739 
L 324.333473 596.485275 
L 324.828948 596.19966 
L 325.324424 596.181539 
L 325.8199 596.359443 
L 326.563113 596.874976 
L 327.801802 598.096057 
L 334.242986 605.000236 
L 336.720365 607.181765 
L 339.445481 609.272749 
L 342.170597 611.081175 
L 345.143452 612.776254 
L 345.143452 612.776254 
L 346.216982 607.772414 
L 347.290513 601.317092 
L 348.364043 597.609495 
L 349.437574 596.2607 
L 350.511105 596.318315 
L 351.584635 597.092122 
L 353.731697 599.393912 
L 356.952289 602.956335 
L 359.09935 605.077344 
L 361.246411 606.975985 
L 364.467003 609.44802 
L 367.687595 611.530291 
L 370.908187 613.283998 
L 374.128779 614.760965 
L 377.349371 616.00486 
L 380.569963 617.052463 
L 384.864086 618.196743 
L 389.158208 619.10683 
L 394.525862 619.987159 
L 399.893515 620.648361 
L 406.334699 621.228354 
L 414.922944 621.748328 
L 425.658251 622.1385 
L 439.614149 622.403561 
L 452.496517 622.522776 
L 452.496517 622.522776 
" clip-path="url(#pb95bf865e3)" style="fill: none; stroke: #1f77b4; stroke-width: 2; stroke-linecap: square"/>
   </g>
   <g id="line2d_37">
    <path d="M 345.143452 613.403038 
L 345.80852 606.802724 
L 347.138656 594.922158 
L 347.803724 588.321844 
L 348.468792 584.361655 
L 349.798928 584.361655 
L 351.129064 585.681718 
L 353.124268 590.96197 
L 357.114676 600.20241 
L 361.105084 609.44285 
L 369.750969 617.363227 
L 375.736581 620.003353 
L 394.69102 622.643478 
" clip-path="url(#pb95bf865e3)" style="fill: none; stroke-dasharray: 3.7,1.6; stroke-dashoffset: 0; stroke: #1f77b4"/>
    <g clip-path="url(#pb95bf865e3)">
     <use xlink:href="#m6c14eea3b5" x="345.143452" y="613.403038" style="fill: #1f77b4; stroke: #000000; stroke-linejoin: miter"/>
     <use xlink:href="#m6c14eea3b5" x="345.80852" y="606.802724" style="fill: #1f77b4; stroke: #000000; stroke-linejoin: miter"/>
     <use xlink:href="#m6c14eea3b5" x="347.138656" y="594.922158" style="fill: #1f77b4; stroke: #000000; stroke-linejoin: miter"/>
     <use xlink:href="#m6c14eea3b5" x="347.803724" y="588.321844" style="fill: #1f77b4; stroke: #000000; stroke-linejoin: miter"/>
     <use xlink:href="#m6c14eea3b5" x="348.468792" y="584.361655" style="fill: #1f77b4; stroke: #000000; stroke-linejoin: miter"/>
     <use xlink:href="#m6c14eea3b5" x="349.798928" y="584.361655" style="fill: #1f77b4; stroke: #000000; stroke-linejoin: miter"/>
     <use xlink:href="#m6c14eea3b5" x="351.129064" y="585.681718" style="fill: #1f77b4; stroke: #000000; stroke-linejoin: miter"/>
     <use xlink:href="#m6c14eea3b5" x="353.124268" y="590.96197" style="fill: #1f77b4; stroke: #000000; stroke-linejoin: miter"/>
     <use xlink:href="#m6c14eea3b5" x="357.114676" y="600.20241" style="fill: #1f77b4; stroke: #000000; stroke-linejoin: miter"/>
     <use xlink:href="#m6c14eea3b5" x="361.105084" y="609.44285" style="fill: #1f77b4; stroke: #000000; stroke-linejoin: miter"/>
     <use xlink:href="#m6c14eea3b5" x="369.750969" y="617.363227" style="fill: #1f77b4; stroke: #000000; stroke-linejoin: miter"/>
     <use xlink:href="#m6c14eea3b5" x="375.736581" y="620.003353" style="fill: #1f77b4; stroke: #000000; stroke-linejoin: miter"/>
     <use xlink:href="#m6c14eea3b5" x="394.69102" y="622.643478" style="fill: #1f77b4; stroke: #000000; stroke-linejoin: miter"/>
    </g>
   </g>
   <g id="line2d_38">
    <path d="M 97.405608 622.643478 
L 97.901084 619.348851 
L 99.387511 599.407485 
L 99.882986 594.389344 
L 100.378462 590.638474 
L 100.873938 588.009209 
L 101.369413 586.300602 
L 101.864889 585.312846 
L 102.360365 584.87094 
L 102.855841 584.831662 
L 103.351316 585.082652 
L 104.342268 586.134665 
L 105.828695 588.360857 
L 109.7925 594.650364 
L 112.269879 598.102807 
L 114.747257 601.138046 
L 117.224635 603.799189 
L 119.702014 606.131231 
L 122.179392 608.174704 
L 124.656771 609.965292 
L 127.629625 611.823969 
L 130.602479 613.410156 
L 133.575333 614.763801 
L 137.043663 616.094343 
L 140.511993 617.200214 
L 144.475798 618.237321 
L 146.953177 618.782606 
L 146.953177 618.782606 
L 147.200915 617.875517 
L 147.69639 612.515745 
L 149.182817 593.307625 
L 149.926031 587.343622 
L 150.421506 584.800274 
L 150.916982 583.175343 
L 151.412458 582.269081 
L 151.907934 581.906544 
L 152.403409 581.944566 
L 152.898885 582.27084 
L 153.642098 583.119606 
L 154.880788 585.045279 
L 160.578758 594.563851 
L 162.808399 597.707145 
L 165.038039 600.501749 
L 167.515418 603.241754 
L 169.992796 605.642799 
L 171.726961 607.144463 
L 171.726961 607.144463 
L 171.974699 606.390114 
L 172.470175 601.329835 
L 173.956602 582.974146 
L 174.699815 577.41168 
L 175.195291 575.127317 
L 175.690767 573.754618 
L 176.186242 573.094011 
L 176.681718 572.970723 
L 177.177194 573.241755 
L 177.672669 573.794963 
L 178.415883 574.973084 
L 179.654572 577.419488 
L 184.361591 587.113952 
L 186.591232 591.087344 
L 188.820872 594.623114 
L 191.050513 597.763949 
L 193.280153 600.55295 
L 195.757532 603.286761 
L 196.500745 604.038921 
L 196.500745 604.038921 
L 196.748483 603.32533 
L 197.243959 598.344968 
L 198.730386 580.216743 
L 199.473599 574.761424 
L 199.969075 572.546169 
L 200.464551 571.240776 
L 200.960027 570.64572 
L 201.455502 570.586274 
L 201.950978 570.919482 
L 202.694191 571.917749 
L 203.685143 573.787121 
L 205.914783 578.714033 
L 208.6399 584.542944 
L 210.86954 588.800204 
L 213.099181 592.591563 
L 215.328821 595.959993 
L 217.558462 598.951195 
L 220.035841 601.883227 
L 221.27453 603.210233 
L 221.27453 603.210233 
L 221.522268 602.507518 
L 222.017743 597.548481 
L 223.50417 579.480953 
L 224.247384 574.054225 
L 224.74286 571.857411 
L 225.238335 570.569978 
L 225.733811 569.992414 
L 226.229287 569.950003 
L 226.724762 570.299803 
L 227.467976 571.32215 
L 228.458927 573.222178 
L 230.688568 578.212422 
L 233.413684 584.109178 
L 235.643325 588.415064 
L 237.872965 592.249598 
L 240.102606 595.656364 
L 242.332246 598.681603 
L 244.809625 601.646999 
L 246.048314 602.989105 
L 246.048314 602.989105 
L 246.296052 602.289291 
L 246.791528 597.335945 
L 248.277955 579.284613 
L 249.021168 573.865515 
L 249.516644 571.673622 
L 250.01212 570.390981 
L 250.507595 569.818084 
L 251.003071 569.78022 
L 251.498547 570.134447 
L 252.24176 571.163219 
L 253.232712 573.071428 
L 255.462352 578.078571 
L 258.187468 583.993432 
L 260.417109 588.312293 
L 262.64675 592.158348 
L 264.87639 595.575343 
L 267.106031 598.609665 
L 269.335671 601.3039 
L 270.822098 602.930098 
L 270.822098 602.930098 
L 271.069836 602.23106 
L 271.565312 597.279232 
L 273.051739 579.232222 
L 273.794953 573.81516 
L 274.290428 571.624579 
L 274.785904 570.343218 
L 275.28138 569.771566 
L 275.776855 569.734915 
L 276.272331 570.090323 
L 277.015545 571.12081 
L 278.006496 573.031201 
L 280.236136 578.042854 
L 282.961253 583.962545 
L 285.190893 588.284869 
L 287.420534 592.133999 
L 289.650175 595.553723 
L 291.879815 598.590469 
L 294.109456 601.286856 
L 295.595883 602.914353 
L 295.595883 602.914353 
L 295.843621 602.215521 
L 296.339096 597.264098 
L 297.825523 579.218242 
L 298.568737 573.801723 
L 299.064213 571.611493 
L 299.559688 570.330472 
L 300.055164 569.759153 
L 300.55064 569.722825 
L 301.046115 570.078549 
L 301.789329 571.109493 
L 302.78028 573.020467 
L 305.009921 578.033323 
L 307.735037 583.954304 
L 309.964678 588.277552 
L 312.194318 592.127501 
L 314.423959 595.547954 
L 316.653599 598.585346 
L 318.88324 601.282308 
L 320.369667 602.910152 
L 320.369667 602.910152 
L 320.617405 602.211374 
L 321.112881 597.26006 
L 322.599308 579.214511 
L 323.342521 573.798137 
L 323.837997 571.608001 
L 324.333473 570.327071 
L 324.828948 569.755841 
L 325.324424 569.719599 
L 325.8199 570.075407 
L 326.563113 571.106473 
L 327.554065 573.017603 
L 329.783705 578.03078 
L 332.508821 583.952105 
L 334.738462 588.275599 
L 336.968103 592.125767 
L 339.197743 595.546414 
L 341.427384 598.583979 
L 343.657024 601.281095 
L 345.143452 602.90903 
L 345.143452 602.90903 
L 346.216982 592.90135 
L 347.290513 579.990706 
L 348.364043 572.575512 
L 349.437574 569.877922 
L 350.511105 569.993152 
L 351.584635 571.540766 
L 353.731697 576.144346 
L 356.952289 583.269191 
L 359.09935 587.51121 
L 361.246411 591.308493 
L 363.393473 594.697761 
L 365.540534 597.720908 
L 367.687595 600.417104 
L 369.834657 602.821634 
L 371.981718 604.966038 
L 374.128779 606.878452 
L 376.275841 608.583973 
L 379.496432 610.802625 
L 382.717024 612.671164 
L 385.937616 614.244839 
L 389.158208 615.570181 
L 392.3788 616.686378 
L 396.672923 617.905582 
L 400.967046 618.875259 
L 406.334699 619.813231 
L 411.702352 620.517726 
L 418.143536 621.135696 
L 425.658251 621.633523 
L 435.320027 622.040167 
L 448.202394 622.339954 
L 452.496517 622.402075 
L 452.496517 622.402075 
" clip-path="url(#pb95bf865e3)" style="fill: none; stroke: #ff7f0e; stroke-width: 2; stroke-linecap: square"/>
   </g>
   <g id="line2d_39">
    <path d="M 345.143452 604.162598 
L 345.80852 598.882347 
L 346.473588 587.001781 
L 347.803724 567.200838 
L 349.13386 550.040021 
L 349.798928 546.079832 
L 351.129064 546.079832 
L 353.124268 556.640335 
L 357.114676 573.801152 
L 361.105084 596.242221 
L 369.750969 610.762913 
L 375.736581 617.363227 
L 394.69102 621.323415 
" clip-path="url(#pb95bf865e3)" style="fill: none; stroke-dasharray: 3.7,1.6; stroke-dashoffset: 0; stroke: #ff7f0e"/>
    <g clip-path="url(#pb95bf865e3)">
     <use xlink:href="#m163b510110" x="345.143452" y="604.162598" style="fill: #ff7f0e; stroke: #000000; stroke-linejoin: miter"/>
     <use xlink:href="#m163b510110" x="345.80852" y="598.882347" style="fill: #ff7f0e; stroke: #000000; stroke-linejoin: miter"/>
     <use xlink:href="#m163b510110" x="346.473588" y="587.001781" style="fill: #ff7f0e; stroke: #000000; stroke-linejoin: miter"/>
     <use xlink:href="#m163b510110" x="347.803724" y="567.200838" style="fill: #ff7f0e; stroke: #000000; stroke-linejoin: miter"/>
     <use xlink:href="#m163b510110" x="349.13386" y="550.040021" style="fill: #ff7f0e; stroke: #000000; stroke-linejoin: miter"/>
     <use xlink:href="#m163b510110" x="349.798928" y="546.079832" style="fill: #ff7f0e; stroke: #000000; stroke-linejoin: miter"/>
     <use xlink:href="#m163b510110" x="351.129064" y="546.079832" style="fill: #ff7f0e; stroke: #000000; stroke-linejoin: miter"/>
     <use xlink:href="#m163b510110" x="353.124268" y="556.640335" style="fill: #ff7f0e; stroke: #000000; stroke-linejoin: miter"/>
     <use xlink:href="#m163b510110" x="357.114676" y="573.801152" style="fill: #ff7f0e; stroke: #000000; stroke-linejoin: miter"/>
     <use xlink:href="#m163b510110" x="361.105084" y="596.242221" style="fill: #ff7f0e; stroke: #000000; stroke-linejoin: miter"/>
     <use xlink:href="#m163b510110" x="369.750969" y="610.762913" style="fill: #ff7f0e; stroke: #000000; stroke-linejoin: miter"/>
     <use xlink:href="#m163b510110" x="375.736581" y="617.363227" style="fill: #ff7f0e; stroke: #000000; stroke-linejoin: miter"/>
     <use xlink:href="#m163b510110" x="394.69102" y="621.323415" style="fill: #ff7f0e; stroke: #000000; stroke-linejoin: miter"/>
    </g>
   </g>
   <g id="line2d_40">
    <path d="M 97.405608 622.643478 
L 97.901084 616.054225 
L 99.387511 576.171493 
L 99.882986 566.13521 
L 100.378462 558.633469 
L 100.873938 553.37494 
L 101.369413 549.957725 
L 101.864889 547.982213 
L 102.360365 547.098401 
L 102.855841 547.019845 
L 103.351316 547.521826 
L 103.846792 548.433085 
L 104.837743 551.006354 
L 106.819646 557.307562 
L 109.7925 566.65725 
L 111.774403 572.250173 
L 113.756306 577.299429 
L 115.738208 581.846113 
L 117.720111 585.937634 
L 119.702014 589.618984 
L 122.179392 593.705931 
L 124.656771 597.287106 
L 127.134149 600.425093 
L 129.611528 603.174738 
L 132.088906 605.584099 
L 134.566284 607.695289 
L 137.043663 609.545208 
L 140.016517 611.465471 
L 142.989371 613.104215 
L 145.962225 614.502713 
L 146.953177 614.921734 
L 146.953177 614.921734 
L 147.200915 613.107557 
L 147.69639 602.388012 
L 149.182817 563.971771 
L 149.926031 552.043766 
L 150.421506 546.95707 
L 150.916982 543.707208 
L 151.412458 541.894684 
L 151.907934 541.169611 
L 152.155671 541.122897 
L 152.403409 541.245654 
L 152.898885 541.898202 
L 153.642098 543.595733 
L 154.63305 546.618075 
L 157.605904 556.942952 
L 160.083282 564.986112 
L 162.312923 571.436522 
L 164.542564 577.17455 
L 166.772204 582.271296 
L 169.001845 586.797041 
L 171.231485 590.815503 
L 171.726961 591.645448 
L 171.726961 591.645448 
L 171.974699 590.13675 
L 172.470175 580.016192 
L 173.956602 543.304813 
L 174.699815 532.179882 
L 175.195291 527.611156 
L 175.690767 524.865758 
L 176.186242 523.544543 
L 176.43398 523.306317 
L 176.681718 523.297968 
L 176.929456 523.485804 
L 177.424931 524.33451 
L 178.168145 526.446383 
L 179.159096 530.151353 
L 185.60028 556.111751 
L 187.829921 563.562665 
L 190.059561 570.184414 
L 192.289202 576.064961 
L 194.518843 581.286485 
L 196.500745 585.434364 
L 196.500745 585.434364 
L 196.748483 584.007182 
L 197.243959 574.046458 
L 198.730386 537.790007 
L 199.473599 526.87937 
L 199.969075 522.44886 
L 200.464551 519.838074 
L 200.960027 518.647961 
L 201.207764 518.473998 
L 201.455502 518.529069 
L 201.70324 518.779493 
L 202.198716 519.750921 
L 202.941929 522.040902 
L 203.932881 525.972631 
L 210.126327 552.225667 
L 212.355967 560.110674 
L 214.585608 567.119115 
L 216.815249 573.343238 
L 219.044889 578.869866 
L 221.27453 583.776988 
L 221.27453 583.776988 
L 221.522268 582.371557 
L 222.017743 572.453484 
L 223.50417 536.318427 
L 224.247384 525.464973 
L 224.74286 521.071344 
L 225.238335 518.496478 
L 225.733811 517.341349 
L 225.981549 517.184534 
L 226.229287 517.256528 
L 226.477024 517.523653 
L 226.9725 518.527828 
L 227.715714 520.865337 
L 228.954403 525.939364 
L 234.156898 548.554119 
L 236.386538 556.843882 
L 238.616179 564.217282 
L 240.845819 570.766479 
L 243.07546 576.581926 
L 245.305101 581.745525 
L 246.048314 583.334731 
L 246.048314 583.334731 
L 246.296052 581.935105 
L 246.791528 572.028412 
L 248.277955 535.925749 
L 249.021168 525.087552 
L 249.516644 520.703766 
L 250.01212 518.138485 
L 250.507595 516.992691 
L 250.755333 516.840451 
L 251.003071 516.916961 
L 251.250809 517.188542 
L 251.746284 518.201456 
L 252.489498 520.551647 
L 253.728187 525.645725 
L 258.930682 548.331621 
L 261.160323 556.646326 
L 263.389963 564.041873 
L 265.619604 570.610734 
L 267.849244 576.44364 
L 270.078885 581.622741 
L 270.822098 583.216718 
L 270.822098 583.216718 
L 271.069836 581.818641 
L 271.565312 571.914985 
L 273.051739 535.820966 
L 273.794953 524.986841 
L 274.290428 520.605681 
L 274.785904 518.042957 
L 275.28138 516.899654 
L 275.529117 516.748636 
L 275.776855 516.826351 
L 276.024593 517.099121 
L 276.520069 518.114366 
L 277.263282 520.467941 
L 278.501972 525.56737 
L 283.704466 548.272249 
L 285.934107 556.59361 
L 288.163747 563.995066 
L 290.393388 570.569175 
L 292.623029 576.40674 
L 294.852669 581.589977 
L 295.595883 583.185228 
L 295.595883 583.185228 
L 295.843621 581.787563 
L 296.339096 571.884718 
L 297.825523 535.793005 
L 298.568737 524.959967 
L 299.064213 520.579507 
L 299.559688 518.017466 
L 300.055164 516.874828 
L 300.302902 516.724135 
L 300.55064 516.802172 
L 301.046115 517.51362 
L 301.541591 518.785004 
L 302.284805 521.380666 
L 303.523494 526.652014 
L 307.982775 546.274411 
L 310.212416 554.812517 
L 312.442056 562.412304 
L 314.671697 569.163601 
L 316.901337 575.158691 
L 319.130978 580.48183 
L 320.369667 583.176825 
L 320.369667 583.176825 
L 320.617405 581.779271 
L 321.112881 571.876642 
L 322.599308 535.785544 
L 323.342521 524.952796 
L 323.837997 520.572523 
L 324.333473 518.010664 
L 324.828948 516.868203 
L 325.076686 516.717598 
L 325.324424 516.79572 
L 325.8199 517.507336 
L 326.315375 518.778885 
L 327.058589 521.374784 
L 328.297278 526.646508 
L 332.756559 546.27007 
L 334.9862 554.808663 
L 337.215841 562.408882 
L 339.445481 569.160563 
L 341.675122 575.155993 
L 343.904762 580.479434 
L 345.143452 583.174582 
L 345.143452 583.174582 
L 346.216982 563.159221 
L 347.290513 537.337934 
L 348.364043 522.507545 
L 349.437574 517.112365 
L 350.511105 517.342825 
L 351.584635 520.438054 
L 353.731697 529.645213 
L 356.952289 543.894904 
L 359.09935 552.378942 
L 361.246411 559.973507 
L 363.393473 566.752044 
L 365.540534 572.798338 
L 367.687595 578.190729 
L 369.834657 582.999791 
L 371.981718 587.288597 
L 374.128779 591.113425 
L 376.275841 594.524469 
L 378.422902 597.566492 
L 380.569963 600.279418 
L 382.717024 602.698849 
L 384.864086 604.856537 
L 387.011147 606.780797 
L 389.158208 608.496884 
L 392.3788 610.729278 
L 395.599392 612.609391 
L 398.819984 614.192814 
L 402.040576 615.526366 
L 405.261168 616.649478 
L 409.555291 617.876234 
L 413.849413 618.851917 
L 419.217067 619.795699 
L 424.58472 620.504558 
L 431.025904 621.126356 
L 438.540619 621.627267 
L 448.202394 622.03643 
L 452.496517 622.160671 
L 452.496517 622.160671 
" clip-path="url(#pb95bf865e3)" style="fill: none; stroke: #d62728; stroke-width: 2; stroke-linecap: square"/>
   </g>
   <g id="line2d_41">
    <path d="M 345.143452 589.641907 
L 345.80852 588.321844 
L 347.138656 547.399895 
L 347.803724 514.398324 
L 349.13386 482.716815 
L 349.798928 466.876061 
L 351.129064 474.796438 
L 353.124268 489.317129 
L 357.114676 527.598952 
L 361.770152 572.48109 
L 369.750969 598.882347 
L 375.736581 610.762913 
L 394.69102 618.68329 
L 419.631072 622.643478 
" clip-path="url(#pb95bf865e3)" style="fill: none; stroke-dasharray: 3.7,1.6; stroke-dashoffset: 0; stroke: #d62728"/>
    <g clip-path="url(#pb95bf865e3)">
     <use xlink:href="#m3e1cac27ab" x="345.143452" y="589.641907" style="fill: #d62728; stroke: #000000; stroke-linejoin: miter"/>
     <use xlink:href="#m3e1cac27ab" x="345.80852" y="588.321844" style="fill: #d62728; stroke: #000000; stroke-linejoin: miter"/>
     <use xlink:href="#m3e1cac27ab" x="347.138656" y="547.399895" style="fill: #d62728; stroke: #000000; stroke-linejoin: miter"/>
     <use xlink:href="#m3e1cac27ab" x="347.803724" y="514.398324" style="fill: #d62728; stroke: #000000; stroke-linejoin: miter"/>
     <use xlink:href="#m3e1cac27ab" x="349.13386" y="482.716815" style="fill: #d62728; stroke: #000000; stroke-linejoin: miter"/>
     <use xlink:href="#m3e1cac27ab" x="349.798928" y="466.876061" style="fill: #d62728; stroke: #000000; stroke-linejoin: miter"/>
     <use xlink:href="#m3e1cac27ab" x="351.129064" y="474.796438" style="fill: #d62728; stroke: #000000; stroke-linejoin: miter"/>
     <use xlink:href="#m3e1cac27ab" x="353.124268" y="489.317129" style="fill: #d62728; stroke: #000000; stroke-linejoin: miter"/>
     <use xlink:href="#m3e1cac27ab" x="357.114676" y="527.598952" style="fill: #d62728; stroke: #000000; stroke-linejoin: miter"/>
     <use xlink:href="#m3e1cac27ab" x="361.770152" y="572.48109" style="fill: #d62728; stroke: #000000; stroke-linejoin: miter"/>
     <use xlink:href="#m3e1cac27ab" x="369.750969" y="598.882347" style="fill: #d62728; stroke: #000000; stroke-linejoin: miter"/>
     <use xlink:href="#m3e1cac27ab" x="375.736581" y="610.762913" style="fill: #d62728; stroke: #000000; stroke-linejoin: miter"/>
     <use xlink:href="#m3e1cac27ab" x="394.69102" y="618.68329" style="fill: #d62728; stroke: #000000; stroke-linejoin: miter"/>
     <use xlink:href="#m3e1cac27ab" x="419.631072" y="622.643478" style="fill: #d62728; stroke: #000000; stroke-linejoin: miter"/>
    </g>
   </g>
   <g id="line2d_42">
    <path d="M 97.405608 622.643478 
L 97.901084 612.759598 
L 99.387511 552.9355 
L 99.882986 537.881076 
L 100.378462 526.628464 
L 100.873938 518.74067 
L 101.369413 513.614849 
L 101.864889 510.651581 
L 102.360365 509.325863 
L 102.855841 509.208029 
L 103.351316 509.960999 
L 103.846792 511.327888 
L 104.837743 515.187792 
L 106.819646 524.639604 
L 109.7925 538.664136 
L 111.774403 547.053521 
L 113.756306 554.627404 
L 115.738208 561.44743 
L 117.720111 567.584713 
L 119.702014 573.106736 
L 121.683917 578.074991 
L 123.665819 582.544969 
L 125.647722 586.566635 
L 127.629625 590.18495 
L 130.107003 594.201868 
L 132.584382 597.72167 
L 135.06176 600.805878 
L 137.539139 603.508399 
L 140.016517 605.876468 
L 142.493895 607.951475 
L 144.971274 609.76969 
L 146.953177 611.060862 
L 146.953177 611.060862 
L 147.200915 608.339596 
L 147.69639 592.26028 
L 149.182817 534.635918 
L 149.926031 516.74391 
L 150.421506 509.113865 
L 150.916982 504.239072 
L 151.412458 501.520287 
L 151.660196 500.801703 
L 151.907934 500.432677 
L 152.155671 500.362606 
L 152.403409 500.546741 
L 152.898885 501.525563 
L 153.394361 503.112415 
L 154.137574 506.228126 
L 155.624001 513.703038 
L 159.092331 531.494041 
L 161.321972 541.670405 
L 163.551612 550.740018 
L 165.781253 558.799182 
L 168.010893 565.956036 
L 170.240534 572.310795 
L 171.726961 576.146432 
L 171.726961 576.146432 
L 171.974699 573.883386 
L 172.470175 558.702549 
L 173.956602 503.63548 
L 174.699815 486.948084 
L 175.195291 480.094995 
L 175.690767 475.976897 
L 176.186242 473.995076 
L 176.43398 473.637736 
L 176.681718 473.625213 
L 176.929456 473.906967 
L 177.424931 475.180026 
L 178.168145 478.347836 
L 179.159096 483.90529 
L 185.60028 522.845887 
L 187.829921 534.022259 
L 190.059561 543.954881 
L 192.289202 552.775702 
L 194.518843 560.607989 
L 196.500745 566.829807 
L 196.500745 566.829807 
L 196.748483 564.689033 
L 197.243959 549.747948 
L 198.730386 495.363272 
L 199.473599 478.997316 
L 199.969075 472.351551 
L 200.464551 468.435372 
L 200.960027 466.650203 
L 201.207764 466.389258 
L 201.455502 466.471865 
L 201.70324 466.8475 
L 202.198716 468.304642 
L 202.941929 471.739615 
L 203.932881 477.637207 
L 210.126327 517.016762 
L 212.355967 528.844271 
L 214.585608 539.356934 
L 216.815249 548.693119 
L 219.044889 556.983059 
L 221.27453 564.343743 
L 221.27453 564.343743 
L 221.522268 562.235597 
L 222.017743 547.358487 
L 223.50417 493.155902 
L 224.247384 476.87572 
L 224.74286 470.285277 
L 225.238335 466.422978 
L 225.733811 464.690285 
L 225.981549 464.455062 
L 226.229287 464.563053 
L 226.477024 464.96374 
L 226.9725 466.470003 
L 227.715714 469.976266 
L 228.706665 475.964621 
L 234.900111 515.814631 
L 237.129752 527.776902 
L 239.359392 538.409219 
L 241.589033 547.851645 
L 243.818673 556.235917 
L 246.048314 563.680357 
L 246.048314 563.680357 
L 246.296052 561.580918 
L 246.791528 546.720879 
L 248.277955 492.566884 
L 249.021168 476.30959 
L 249.516644 469.73391 
L 250.01212 465.885988 
L 250.507595 464.167297 
L 250.755333 463.938938 
L 251.003071 464.053703 
L 251.250809 464.461074 
L 251.746284 465.980445 
L 252.489498 469.505731 
L 253.480449 475.518306 
L 259.673895 515.493852 
L 261.903536 527.492084 
L 264.133177 538.15633 
L 266.362817 547.627105 
L 268.592458 556.036549 
L 270.822098 563.503339 
L 270.822098 563.503339 
L 271.069836 561.406222 
L 271.565312 546.550739 
L 273.051739 492.409709 
L 273.794953 476.158522 
L 274.290428 469.586782 
L 274.785904 465.742697 
L 275.28138 464.027742 
L 275.529117 463.801214 
L 275.776855 463.917787 
L 276.024593 464.326942 
L 276.520069 465.84981 
L 277.263282 469.380173 
L 278.501972 477.029316 
L 283.456728 509.609606 
L 285.686369 522.252317 
L 287.91601 533.501162 
L 290.14565 543.493285 
L 292.375291 552.366049 
L 294.604931 560.244294 
L 295.595883 563.456103 
L 295.595883 563.456103 
L 295.843621 561.359606 
L 296.339096 546.505338 
L 297.825523 492.367768 
L 298.568737 476.118211 
L 299.064213 469.547522 
L 299.559688 465.70446 
L 300.055164 463.990503 
L 300.302902 463.764464 
L 300.55064 463.881519 
L 300.798378 464.29115 
L 301.293853 465.814952 
L 302.037067 469.346668 
L 303.275756 476.997953 
L 308.230513 509.585526 
L 310.460153 522.230936 
L 312.689794 533.482178 
L 314.919435 543.476429 
L 317.149075 552.351082 
L 319.378716 560.231006 
L 320.369667 563.443498 
L 320.369667 563.443498 
L 320.617405 561.347167 
L 321.112881 546.493224 
L 322.599308 492.356577 
L 323.342521 476.107455 
L 323.837997 469.537046 
L 324.333473 465.694257 
L 324.828948 463.980566 
L 325.076686 463.754657 
L 325.324424 463.871841 
L 325.572162 464.281599 
L 326.067638 465.80565 
L 326.810851 469.337728 
L 328.04954 476.989584 
L 333.004297 509.5791 
L 335.233938 522.225231 
L 337.463578 533.477112 
L 339.693219 543.471932 
L 341.92286 552.347089 
L 344.1525 560.22746 
L 345.143452 563.440135 
L 345.143452 563.440135 
L 346.216982 533.417093 
L 347.290513 494.685162 
L 348.364043 472.439579 
L 349.437574 464.346809 
L 350.511105 464.692499 
L 351.584635 469.335342 
L 352.658166 475.896586 
L 356.952289 504.520617 
L 359.09935 517.246674 
L 361.246411 528.638521 
L 363.393473 538.806327 
L 365.540534 547.875767 
L 367.687595 555.964354 
L 369.834657 563.177947 
L 371.981718 569.611156 
L 374.128779 575.348398 
L 376.275841 580.464964 
L 378.422902 585.027999 
L 380.569963 589.097388 
L 382.717024 592.726534 
L 384.864086 595.963066 
L 387.011147 598.849456 
L 389.158208 601.423586 
L 391.30527 603.719237 
L 393.452331 605.766535 
L 395.599392 607.592348 
L 398.819984 609.967482 
L 402.040576 611.96781 
L 405.261168 613.652477 
L 408.48176 615.071297 
L 411.702352 616.26622 
L 415.996475 617.571416 
L 420.290597 618.609484 
L 424.58472 619.435098 
L 429.952373 620.233716 
L 436.393557 620.93425 
L 443.908272 621.498588 
L 452.496517 621.919268 
L 452.496517 621.919268 
" clip-path="url(#pb95bf865e3)" style="fill: none; stroke: #2ca02c; stroke-width: 2; stroke-linecap: square"/>
   </g>
   <g id="line2d_43">
    <path d="M 345.143452 565.880775 
L 345.80852 551.360084 
L 346.473588 464.235935 
L 347.803724 418.033735 
L 349.13386 403.513043 
L 349.798928 418.033735 
L 351.129064 424.634049 
L 353.124268 445.755055 
L 357.114676 499.877632 
L 361.770152 550.040021 
L 369.750969 588.321844 
L 375.736581 601.522472 
L 394.358486 616.043164 
L 419.631072 621.323415 
L 444.238589 622.643478 
" clip-path="url(#pb95bf865e3)" style="fill: none; stroke-dasharray: 3.7,1.6; stroke-dashoffset: 0; stroke: #2ca02c"/>
    <g clip-path="url(#pb95bf865e3)">
     <use xlink:href="#mf1de14aad4" x="345.143452" y="565.880775" style="fill: #2ca02c; stroke: #000000; stroke-linejoin: miter"/>
     <use xlink:href="#mf1de14aad4" x="345.80852" y="551.360084" style="fill: #2ca02c; stroke: #000000; stroke-linejoin: miter"/>
     <use xlink:href="#mf1de14aad4" x="346.473588" y="464.235935" style="fill: #2ca02c; stroke: #000000; stroke-linejoin: miter"/>
     <use xlink:href="#mf1de14aad4" x="347.803724" y="418.033735" style="fill: #2ca02c; stroke: #000000; stroke-linejoin: miter"/>
     <use xlink:href="#mf1de14aad4" x="349.13386" y="403.513043" style="fill: #2ca02c; stroke: #000000; stroke-linejoin: miter"/>
     <use xlink:href="#mf1de14aad4" x="349.798928" y="418.033735" style="fill: #2ca02c; stroke: #000000; stroke-linejoin: miter"/>
     <use xlink:href="#mf1de14aad4" x="351.129064" y="424.634049" style="fill: #2ca02c; stroke: #000000; stroke-linejoin: miter"/>
     <use xlink:href="#mf1de14aad4" x="353.124268" y="445.755055" style="fill: #2ca02c; stroke: #000000; stroke-linejoin: miter"/>
     <use xlink:href="#mf1de14aad4" x="357.114676" y="499.877632" style="fill: #2ca02c; stroke: #000000; stroke-linejoin: miter"/>
     <use xlink:href="#mf1de14aad4" x="361.770152" y="550.040021" style="fill: #2ca02c; stroke: #000000; stroke-linejoin: miter"/>
     <use xlink:href="#mf1de14aad4" x="369.750969" y="588.321844" style="fill: #2ca02c; stroke: #000000; stroke-linejoin: miter"/>
     <use xlink:href="#mf1de14aad4" x="375.736581" y="601.522472" style="fill: #2ca02c; stroke: #000000; stroke-linejoin: miter"/>
     <use xlink:href="#mf1de14aad4" x="394.358486" y="616.043164" style="fill: #2ca02c; stroke: #000000; stroke-linejoin: miter"/>
     <use xlink:href="#mf1de14aad4" x="419.631072" y="621.323415" style="fill: #2ca02c; stroke: #000000; stroke-linejoin: miter"/>
     <use xlink:href="#mf1de14aad4" x="444.238589" y="622.643478" style="fill: #2ca02c; stroke: #000000; stroke-linejoin: miter"/>
    </g>
   </g>
   <g id="patch_8">
    <path d="M 79.651062 633.6 
L 79.651062 392.556522 
" style="fill: none; stroke: #000000; stroke-width: 0.8; stroke-linejoin: miter; stroke-linecap: square"/>
   </g>
   <g id="patch_9">
    <path d="M 470.251062 633.6 
L 470.251062 392.556522 
" style="fill: none; stroke: #000000; stroke-width: 0.8; stroke-linejoin: miter; stroke-linecap: square"/>
   </g>
   <g id="patch_10">
    <path d="M 79.651062 633.6 
L 470.251062 633.6 
" style="fill: none; stroke: #000000; stroke-width: 0.8; stroke-linejoin: miter; stroke-linecap: square"/>
   </g>
   <g id="patch_11">
    <path d="M 79.651062 392.556522 
L 470.251062 392.556522 
" style="fill: none; stroke: #000000; stroke-width: 0.8; stroke-linejoin: miter; stroke-linecap: square"/>
   </g>
  </g>
  <g id="text_32">
   <!-- Zhao2009 (healthy) -->
   <g transform="translate(129.979187 26.196094) scale(0.25 -0.25)">
    <defs>
     <path id="DejaVuSans-Bold-5a" d="M 359 4666 
L 4281 4666 
L 4281 3938 
L 1778 909 
L 4353 909 
L 4353 0 
L 288 0 
L 288 728 
L 2791 3756 
L 359 3756 
L 359 4666 
z
" transform="scale(0.015625)"/>
     <path id="DejaVuSans-Bold-32" d="M 1844 884 
L 3897 884 
L 3897 0 
L 506 0 
L 506 884 
L 2209 2388 
Q 2438 2594 2547 2791 
Q 2656 2988 2656 3200 
Q 2656 3528 2436 3728 
Q 2216 3928 1850 3928 
Q 1569 3928 1234 3808 
Q 900 3688 519 3450 
L 519 4475 
Q 925 4609 1322 4679 
Q 1719 4750 2100 4750 
Q 2938 4750 3402 4381 
Q 3866 4013 3866 3353 
Q 3866 2972 3669 2642 
Q 3472 2313 2841 1759 
L 1844 884 
z
" transform="scale(0.015625)"/>
     <path id="DejaVuSans-Bold-30" d="M 2944 2338 
Q 2944 3213 2780 3570 
Q 2616 3928 2228 3928 
Q 1841 3928 1675 3570 
Q 1509 3213 1509 2338 
Q 1509 1453 1675 1090 
Q 1841 728 2228 728 
Q 2613 728 2778 1090 
Q 2944 1453 2944 2338 
z
M 4147 2328 
Q 4147 1169 3647 539 
Q 3147 -91 2228 -91 
Q 1306 -91 806 539 
Q 306 1169 306 2328 
Q 306 3491 806 4120 
Q 1306 4750 2228 4750 
Q 3147 4750 3647 4120 
Q 4147 3491 4147 2328 
z
" transform="scale(0.015625)"/>
     <path id="DejaVuSans-Bold-39" d="M 641 103 
L 641 966 
Q 928 831 1190 764 
Q 1453 697 1709 697 
Q 2247 697 2547 995 
Q 2847 1294 2900 1881 
Q 2688 1725 2447 1647 
Q 2206 1569 1925 1569 
Q 1209 1569 770 1986 
Q 331 2403 331 3084 
Q 331 3838 820 4291 
Q 1309 4744 2131 4744 
Q 3044 4744 3544 4128 
Q 4044 3513 4044 2388 
Q 4044 1231 3459 570 
Q 2875 -91 1856 -91 
Q 1528 -91 1228 -42 
Q 928 6 641 103 
z
M 2125 2350 
Q 2441 2350 2600 2554 
Q 2759 2759 2759 3169 
Q 2759 3575 2600 3781 
Q 2441 3988 2125 3988 
Q 1809 3988 1650 3781 
Q 1491 3575 1491 3169 
Q 1491 2759 1650 2554 
Q 1809 2350 2125 2350 
z
" transform="scale(0.015625)"/>
     <path id="DejaVuSans-Bold-28" d="M 2413 -844 
L 1484 -844 
Q 1006 -72 778 623 
Q 550 1319 550 2003 
Q 550 2688 779 3389 
Q 1009 4091 1484 4856 
L 2413 4856 
Q 2013 4116 1813 3408 
Q 1613 2700 1613 2009 
Q 1613 1319 1811 609 
Q 2009 -100 2413 -844 
z
" transform="scale(0.015625)"/>
     <path id="DejaVuSans-Bold-79" d="M 78 3500 
L 1197 3500 
L 2138 1125 
L 2938 3500 
L 4056 3500 
L 2584 -331 
Q 2363 -916 2067 -1148 
Q 1772 -1381 1288 -1381 
L 641 -1381 
L 641 -647 
L 991 -647 
Q 1275 -647 1404 -556 
Q 1534 -466 1606 -231 
L 1638 -134 
L 78 3500 
z
" transform="scale(0.015625)"/>
     <path id="DejaVuSans-Bold-29" d="M 513 -844 
Q 913 -100 1113 609 
Q 1313 1319 1313 2009 
Q 1313 2700 1113 3408 
Q 913 4116 513 4856 
L 1441 4856 
Q 1916 4091 2145 3389 
Q 2375 2688 2375 2003 
Q 2375 1319 2147 623 
Q 1919 -72 1441 -844 
L 513 -844 
z
" transform="scale(0.015625)"/>
    </defs>
    <use xlink:href="#DejaVuSans-Bold-5a"/>
    <use xlink:href="#DejaVuSans-Bold-68" x="72.509766"/>
    <use xlink:href="#DejaVuSans-Bold-61" x="143.701172"/>
    <use xlink:href="#DejaVuSans-Bold-6f" x="211.181641"/>
    <use xlink:href="#DejaVuSans-Bold-32" x="279.882812"/>
    <use xlink:href="#DejaVuSans-Bold-30" x="349.462891"/>
    <use xlink:href="#DejaVuSans-Bold-30" x="419.042969"/>
    <use xlink:href="#DejaVuSans-Bold-39" x="488.623047"/>
    <use xlink:href="#DejaVuSans-Bold-20" x="558.203125"/>
    <use xlink:href="#DejaVuSans-Bold-28" x="593.017578"/>
    <use xlink:href="#DejaVuSans-Bold-68" x="638.720703"/>
    <use xlink:href="#DejaVuSans-Bold-65" x="709.912109"/>
    <use xlink:href="#DejaVuSans-Bold-61" x="777.734375"/>
    <use xlink:href="#DejaVuSans-Bold-6c" x="845.214844"/>
    <use xlink:href="#DejaVuSans-Bold-74" x="879.492188"/>
    <use xlink:href="#DejaVuSans-Bold-68" x="927.294922"/>
    <use xlink:href="#DejaVuSans-Bold-79" x="998.486328"/>
    <use xlink:href="#DejaVuSans-Bold-29" x="1063.671875"/>
   </g>
  </g>
 </g>
 <defs>
  <clipPath id="pbb53205f98">
   <rect x="79.651062" y="79.2" width="390.6" height="241.043478"/>
  </clipPath>
  <clipPath id="pb95bf865e3">
   <rect x="79.651062" y="392.556522" width="390.6" height="241.043478"/>
  </clipPath>
 </defs>
</svg>
