<?xml version="1.0" encoding="utf-8" standalone="no"?>
<!DOCTYPE svg PUBLIC "-//W3C//DTD SVG 1.1//EN"
  "http://www.w3.org/Graphics/SVG/1.1/DTD/svg11.dtd">
<svg xmlns:xlink="http://www.w3.org/1999/xlink" width="477.451062pt" height="370.537812pt" viewBox="0 0 477.451062 370.537812" xmlns="http://www.w3.org/2000/svg" version="1.1">
 <metadata>
  <rdf:RDF xmlns:dc="http://purl.org/dc/elements/1.1/" xmlns:cc="http://creativecommons.org/ns#" xmlns:rdf="http://www.w3.org/1999/02/22-rdf-syntax-ns#">
   <cc:Work>
    <dc:type rdf:resource="http://purl.org/dc/dcmitype/StillImage"/>
    <dc:date>2025-04-05T16:57:35.484429</dc:date>
    <dc:format>image/svg+xml</dc:format>
    <dc:creator>
     <cc:Agent>
      <dc:title>Matplotlib v3.9.1, https://matplotlib.org/</dc:title>
     </cc:Agent>
    </dc:creator>
   </cc:Work>
  </rdf:RDF>
 </metadata>
 <defs>
  <style type="text/css">*{stroke-linejoin: round; stroke-linecap: butt}</style>
 </defs>
 <g id="figure_1">
  <g id="patch_1">
   <path d="M 0 370.537812 
L 477.451062 370.537812 
L 477.451062 0 
L 0 0 
z
" style="fill: #ffffff"/>
  </g>
  <g id="axes_1">
   <g id="patch_2">
    <path d="M 79.651062 320.4 
L 470.251062 320.4 
L 470.251062 43.2 
L 79.651062 43.2 
z
" style="fill: #ffffff"/>
   </g>
   <g id="matplotlib.axis_1">
    <g id="xtick_1">
     <g id="line2d_1">
      <defs>
       <path id="m4ead05484a" d="M 0 0 
L 0 3.5 
" style="stroke: #000000; stroke-width: 0.8"/>
      </defs>
      <g>
       <use xlink:href="#m4ead05484a" x="97.405608" y="320.4" style="stroke: #000000; stroke-width: 0.8"/>
      </g>
     </g>
     <g id="text_1">
      <!-- 0 -->
      <g transform="translate(92.633733 338.797656) scale(0.15 -0.15)">
       <defs>
        <path id="DejaVuSans-30" d="M 2034 4250 
Q 1547 4250 1301 3770 
Q 1056 3291 1056 2328 
Q 1056 1369 1301 889 
Q 1547 409 2034 409 
Q 2525 409 2770 889 
Q 3016 1369 3016 2328 
Q 3016 3291 2770 3770 
Q 2525 4250 2034 4250 
z
M 2034 4750 
Q 2819 4750 3233 4129 
Q 3647 3509 3647 2328 
Q 3647 1150 3233 529 
Q 2819 -91 2034 -91 
Q 1250 -91 836 529 
Q 422 1150 422 2328 
Q 422 3509 836 4129 
Q 1250 4750 2034 4750 
z
" transform="scale(0.015625)"/>
       </defs>
       <use xlink:href="#DejaVuSans-30"/>
      </g>
     </g>
    </g>
    <g id="xtick_2">
     <g id="line2d_2">
      <g>
       <use xlink:href="#m4ead05484a" x="168.42379" y="320.4" style="stroke: #000000; stroke-width: 0.8"/>
      </g>
     </g>
     <g id="text_2">
      <!-- 10 -->
      <g transform="translate(158.88004 338.797656) scale(0.15 -0.15)">
       <defs>
        <path id="DejaVuSans-31" d="M 794 531 
L 1825 531 
L 1825 4091 
L 703 3866 
L 703 4441 
L 1819 4666 
L 2450 4666 
L 2450 531 
L 3481 531 
L 3481 0 
L 794 0 
L 794 531 
z
" transform="scale(0.015625)"/>
       </defs>
       <use xlink:href="#DejaVuSans-31"/>
       <use xlink:href="#DejaVuSans-30" x="63.623047"/>
      </g>
     </g>
    </g>
    <g id="xtick_3">
     <g id="line2d_3">
      <g>
       <use xlink:href="#m4ead05484a" x="239.441972" y="320.4" style="stroke: #000000; stroke-width: 0.8"/>
      </g>
     </g>
     <g id="text_3">
      <!-- 20 -->
      <g transform="translate(229.898222 338.797656) scale(0.15 -0.15)">
       <defs>
        <path id="DejaVuSans-32" d="M 1228 531 
L 3431 531 
L 3431 0 
L 469 0 
L 469 531 
Q 828 903 1448 1529 
Q 2069 2156 2228 2338 
Q 2531 2678 2651 2914 
Q 2772 3150 2772 3378 
Q 2772 3750 2511 3984 
Q 2250 4219 1831 4219 
Q 1534 4219 1204 4116 
Q 875 4013 500 3803 
L 500 4441 
Q 881 4594 1212 4672 
Q 1544 4750 1819 4750 
Q 2544 4750 2975 4387 
Q 3406 4025 3406 3419 
Q 3406 3131 3298 2873 
Q 3191 2616 2906 2266 
Q 2828 2175 2409 1742 
Q 1991 1309 1228 531 
z
" transform="scale(0.015625)"/>
       </defs>
       <use xlink:href="#DejaVuSans-32"/>
       <use xlink:href="#DejaVuSans-30" x="63.623047"/>
      </g>
     </g>
    </g>
    <g id="xtick_4">
     <g id="line2d_4">
      <g>
       <use xlink:href="#m4ead05484a" x="310.460153" y="320.4" style="stroke: #000000; stroke-width: 0.8"/>
      </g>
     </g>
     <g id="text_4">
      <!-- 30 -->
      <g transform="translate(300.916403 338.797656) scale(0.15 -0.15)">
       <defs>
        <path id="DejaVuSans-33" d="M 2597 2516 
Q 3050 2419 3304 2112 
Q 3559 1806 3559 1356 
Q 3559 666 3084 287 
Q 2609 -91 1734 -91 
Q 1441 -91 1130 -33 
Q 819 25 488 141 
L 488 750 
Q 750 597 1062 519 
Q 1375 441 1716 441 
Q 2309 441 2620 675 
Q 2931 909 2931 1356 
Q 2931 1769 2642 2001 
Q 2353 2234 1838 2234 
L 1294 2234 
L 1294 2753 
L 1863 2753 
Q 2328 2753 2575 2939 
Q 2822 3125 2822 3475 
Q 2822 3834 2567 4026 
Q 2313 4219 1838 4219 
Q 1578 4219 1281 4162 
Q 984 4106 628 3988 
L 628 4550 
Q 988 4650 1302 4700 
Q 1616 4750 1894 4750 
Q 2613 4750 3031 4423 
Q 3450 4097 3450 3541 
Q 3450 3153 3228 2886 
Q 3006 2619 2597 2516 
z
" transform="scale(0.015625)"/>
       </defs>
       <use xlink:href="#DejaVuSans-33"/>
       <use xlink:href="#DejaVuSans-30" x="63.623047"/>
      </g>
     </g>
    </g>
    <g id="xtick_5">
     <g id="line2d_5">
      <g>
       <use xlink:href="#m4ead05484a" x="381.478335" y="320.4" style="stroke: #000000; stroke-width: 0.8"/>
      </g>
     </g>
     <g id="text_5">
      <!-- 40 -->
      <g transform="translate(371.934585 338.797656) scale(0.15 -0.15)">
       <defs>
        <path id="DejaVuSans-34" d="M 2419 4116 
L 825 1625 
L 2419 1625 
L 2419 4116 
z
M 2253 4666 
L 3047 4666 
L 3047 1625 
L 3713 1625 
L 3713 1100 
L 3047 1100 
L 3047 0 
L 2419 0 
L 2419 1100 
L 313 1100 
L 313 1709 
L 2253 4666 
z
" transform="scale(0.015625)"/>
       </defs>
       <use xlink:href="#DejaVuSans-34"/>
       <use xlink:href="#DejaVuSans-30" x="63.623047"/>
      </g>
     </g>
    </g>
    <g id="xtick_6">
     <g id="line2d_6">
      <g>
       <use xlink:href="#m4ead05484a" x="452.496517" y="320.4" style="stroke: #000000; stroke-width: 0.8"/>
      </g>
     </g>
     <g id="text_6">
      <!-- 50 -->
      <g transform="translate(442.952767 338.797656) scale(0.15 -0.15)">
       <defs>
        <path id="DejaVuSans-35" d="M 691 4666 
L 3169 4666 
L 3169 4134 
L 1269 4134 
L 1269 2991 
Q 1406 3038 1543 3061 
Q 1681 3084 1819 3084 
Q 2600 3084 3056 2656 
Q 3513 2228 3513 1497 
Q 3513 744 3044 326 
Q 2575 -91 1722 -91 
Q 1428 -91 1123 -41 
Q 819 9 494 109 
L 494 744 
Q 775 591 1075 516 
Q 1375 441 1709 441 
Q 2250 441 2565 725 
Q 2881 1009 2881 1497 
Q 2881 1984 2565 2268 
Q 2250 2553 1709 2553 
Q 1456 2553 1204 2497 
Q 953 2441 691 2322 
L 691 4666 
z
" transform="scale(0.015625)"/>
       </defs>
       <use xlink:href="#DejaVuSans-35"/>
       <use xlink:href="#DejaVuSans-30" x="63.623047"/>
      </g>
     </g>
    </g>
    <g id="text_7">
     <!-- time [hr] -->
     <g transform="translate(229.876531 359.594375) scale(0.18 -0.18)">
      <defs>
       <path id="DejaVuSans-Bold-74" d="M 1759 4494 
L 1759 3500 
L 2913 3500 
L 2913 2700 
L 1759 2700 
L 1759 1216 
Q 1759 972 1856 886 
Q 1953 800 2241 800 
L 2816 800 
L 2816 0 
L 1856 0 
Q 1194 0 917 276 
Q 641 553 641 1216 
L 641 2700 
L 84 2700 
L 84 3500 
L 641 3500 
L 641 4494 
L 1759 4494 
z
" transform="scale(0.015625)"/>
       <path id="DejaVuSans-Bold-69" d="M 538 3500 
L 1656 3500 
L 1656 0 
L 538 0 
L 538 3500 
z
M 538 4863 
L 1656 4863 
L 1656 3950 
L 538 3950 
L 538 4863 
z
" transform="scale(0.015625)"/>
       <path id="DejaVuSans-Bold-6d" d="M 3781 2919 
Q 3994 3244 4286 3414 
Q 4578 3584 4928 3584 
Q 5531 3584 5847 3212 
Q 6163 2841 6163 2131 
L 6163 0 
L 5038 0 
L 5038 1825 
Q 5041 1866 5042 1909 
Q 5044 1953 5044 2034 
Q 5044 2406 4934 2573 
Q 4825 2741 4581 2741 
Q 4263 2741 4089 2478 
Q 3916 2216 3909 1719 
L 3909 0 
L 2784 0 
L 2784 1825 
Q 2784 2406 2684 2573 
Q 2584 2741 2328 2741 
Q 2006 2741 1831 2477 
Q 1656 2213 1656 1722 
L 1656 0 
L 531 0 
L 531 3500 
L 1656 3500 
L 1656 2988 
Q 1863 3284 2130 3434 
Q 2397 3584 2719 3584 
Q 3081 3584 3359 3409 
Q 3638 3234 3781 2919 
z
" transform="scale(0.015625)"/>
       <path id="DejaVuSans-Bold-65" d="M 4031 1759 
L 4031 1441 
L 1416 1441 
Q 1456 1047 1700 850 
Q 1944 653 2381 653 
Q 2734 653 3104 758 
Q 3475 863 3866 1075 
L 3866 213 
Q 3469 63 3072 -14 
Q 2675 -91 2278 -91 
Q 1328 -91 801 392 
Q 275 875 275 1747 
Q 275 2603 792 3093 
Q 1309 3584 2216 3584 
Q 3041 3584 3536 3087 
Q 4031 2591 4031 1759 
z
M 2881 2131 
Q 2881 2450 2695 2645 
Q 2509 2841 2209 2841 
Q 1884 2841 1681 2658 
Q 1478 2475 1428 2131 
L 2881 2131 
z
" transform="scale(0.015625)"/>
       <path id="DejaVuSans-Bold-20" transform="scale(0.015625)"/>
       <path id="DejaVuSans-Bold-5b" d="M 550 4863 
L 2491 4863 
L 2491 4159 
L 1613 4159 
L 1613 -141 
L 2491 -141 
L 2491 -844 
L 550 -844 
L 550 4863 
z
" transform="scale(0.015625)"/>
       <path id="DejaVuSans-Bold-68" d="M 4056 2131 
L 4056 0 
L 2931 0 
L 2931 347 
L 2931 1625 
Q 2931 2084 2911 2256 
Q 2891 2428 2841 2509 
Q 2775 2619 2662 2680 
Q 2550 2741 2406 2741 
Q 2056 2741 1856 2470 
Q 1656 2200 1656 1722 
L 1656 0 
L 538 0 
L 538 4863 
L 1656 4863 
L 1656 2988 
Q 1909 3294 2193 3439 
Q 2478 3584 2822 3584 
Q 3428 3584 3742 3212 
Q 4056 2841 4056 2131 
z
" transform="scale(0.015625)"/>
       <path id="DejaVuSans-Bold-72" d="M 3138 2547 
Q 2991 2616 2845 2648 
Q 2700 2681 2553 2681 
Q 2122 2681 1889 2404 
Q 1656 2128 1656 1613 
L 1656 0 
L 538 0 
L 538 3500 
L 1656 3500 
L 1656 2925 
Q 1872 3269 2151 3426 
Q 2431 3584 2822 3584 
Q 2878 3584 2943 3579 
Q 3009 3575 3134 3559 
L 3138 2547 
z
" transform="scale(0.015625)"/>
       <path id="DejaVuSans-Bold-5d" d="M 2375 -844 
L 434 -844 
L 434 -141 
L 1313 -141 
L 1313 4159 
L 434 4159 
L 434 4863 
L 2375 4863 
L 2375 -844 
z
" transform="scale(0.015625)"/>
      </defs>
      <use xlink:href="#DejaVuSans-Bold-74"/>
      <use xlink:href="#DejaVuSans-Bold-69" x="47.802734"/>
      <use xlink:href="#DejaVuSans-Bold-6d" x="82.080078"/>
      <use xlink:href="#DejaVuSans-Bold-65" x="186.279297"/>
      <use xlink:href="#DejaVuSans-Bold-20" x="254.101562"/>
      <use xlink:href="#DejaVuSans-Bold-5b" x="288.916016"/>
      <use xlink:href="#DejaVuSans-Bold-68" x="334.619141"/>
      <use xlink:href="#DejaVuSans-Bold-72" x="405.810547"/>
      <use xlink:href="#DejaVuSans-Bold-5d" x="455.126953"/>
     </g>
    </g>
   </g>
   <g id="matplotlib.axis_2">
    <g id="ytick_1">
     <g id="line2d_7">
      <defs>
       <path id="md5b90ade04" d="M 0 0 
L -3.5 0 
" style="stroke: #000000; stroke-width: 0.8"/>
      </defs>
      <g>
       <use xlink:href="#md5b90ade04" x="79.651062" y="291.457957" style="stroke: #000000; stroke-width: 0.8"/>
      </g>
     </g>
     <g id="text_8">
      <!-- 0.0 -->
      <g transform="translate(48.796375 297.156785) scale(0.15 -0.15)">
       <defs>
        <path id="DejaVuSans-2e" d="M 684 794 
L 1344 794 
L 1344 0 
L 684 0 
L 684 794 
z
" transform="scale(0.015625)"/>
       </defs>
       <use xlink:href="#DejaVuSans-30"/>
       <use xlink:href="#DejaVuSans-2e" x="63.623047"/>
       <use xlink:href="#DejaVuSans-30" x="95.410156"/>
      </g>
     </g>
    </g>
    <g id="ytick_2">
     <g id="line2d_8">
      <g>
       <use xlink:href="#md5b90ade04" x="79.651062" y="241.57931" style="stroke: #000000; stroke-width: 0.8"/>
      </g>
     </g>
     <g id="text_9">
      <!-- 0.1 -->
      <g transform="translate(48.796375 247.278138) scale(0.15 -0.15)">
       <use xlink:href="#DejaVuSans-30"/>
       <use xlink:href="#DejaVuSans-2e" x="63.623047"/>
       <use xlink:href="#DejaVuSans-31" x="95.410156"/>
      </g>
     </g>
    </g>
    <g id="ytick_3">
     <g id="line2d_9">
      <g>
       <use xlink:href="#md5b90ade04" x="79.651062" y="191.700662" style="stroke: #000000; stroke-width: 0.8"/>
      </g>
     </g>
     <g id="text_10">
      <!-- 0.2 -->
      <g transform="translate(48.796375 197.39949) scale(0.15 -0.15)">
       <use xlink:href="#DejaVuSans-30"/>
       <use xlink:href="#DejaVuSans-2e" x="63.623047"/>
       <use xlink:href="#DejaVuSans-32" x="95.410156"/>
      </g>
     </g>
    </g>
    <g id="ytick_4">
     <g id="line2d_10">
      <g>
       <use xlink:href="#md5b90ade04" x="79.651062" y="141.822015" style="stroke: #000000; stroke-width: 0.8"/>
      </g>
     </g>
     <g id="text_11">
      <!-- 0.3 -->
      <g transform="translate(48.796375 147.520843) scale(0.15 -0.15)">
       <use xlink:href="#DejaVuSans-30"/>
       <use xlink:href="#DejaVuSans-2e" x="63.623047"/>
       <use xlink:href="#DejaVuSans-33" x="95.410156"/>
      </g>
     </g>
    </g>
    <g id="ytick_5">
     <g id="line2d_11">
      <g>
       <use xlink:href="#md5b90ade04" x="79.651062" y="91.943367" style="stroke: #000000; stroke-width: 0.8"/>
      </g>
     </g>
     <g id="text_12">
      <!-- 0.4 -->
      <g transform="translate(48.796375 97.642195) scale(0.15 -0.15)">
       <use xlink:href="#DejaVuSans-30"/>
       <use xlink:href="#DejaVuSans-2e" x="63.623047"/>
       <use xlink:href="#DejaVuSans-34" x="95.410156"/>
      </g>
     </g>
    </g>
    <g id="text_13">
     <!-- rivaroxaban -->
     <g transform="translate(20.877187 242.686406) rotate(-90) scale(0.18 -0.18)">
      <defs>
       <path id="DejaVuSans-Bold-76" d="M 97 3500 
L 1216 3500 
L 2088 1081 
L 2956 3500 
L 4078 3500 
L 2700 0 
L 1472 0 
L 97 3500 
z
" transform="scale(0.015625)"/>
       <path id="DejaVuSans-Bold-61" d="M 2106 1575 
Q 1756 1575 1579 1456 
Q 1403 1338 1403 1106 
Q 1403 894 1545 773 
Q 1688 653 1941 653 
Q 2256 653 2472 879 
Q 2688 1106 2688 1447 
L 2688 1575 
L 2106 1575 
z
M 3816 1997 
L 3816 0 
L 2688 0 
L 2688 519 
Q 2463 200 2181 54 
Q 1900 -91 1497 -91 
Q 953 -91 614 226 
Q 275 544 275 1050 
Q 275 1666 698 1953 
Q 1122 2241 2028 2241 
L 2688 2241 
L 2688 2328 
Q 2688 2594 2478 2717 
Q 2269 2841 1825 2841 
Q 1466 2841 1156 2769 
Q 847 2697 581 2553 
L 581 3406 
Q 941 3494 1303 3539 
Q 1666 3584 2028 3584 
Q 2975 3584 3395 3211 
Q 3816 2838 3816 1997 
z
" transform="scale(0.015625)"/>
       <path id="DejaVuSans-Bold-6f" d="M 2203 2784 
Q 1831 2784 1636 2517 
Q 1441 2250 1441 1747 
Q 1441 1244 1636 976 
Q 1831 709 2203 709 
Q 2569 709 2762 976 
Q 2956 1244 2956 1747 
Q 2956 2250 2762 2517 
Q 2569 2784 2203 2784 
z
M 2203 3584 
Q 3106 3584 3614 3096 
Q 4122 2609 4122 1747 
Q 4122 884 3614 396 
Q 3106 -91 2203 -91 
Q 1297 -91 786 396 
Q 275 884 275 1747 
Q 275 2609 786 3096 
Q 1297 3584 2203 3584 
z
" transform="scale(0.015625)"/>
       <path id="DejaVuSans-Bold-78" d="M 1422 1791 
L 159 3500 
L 1344 3500 
L 2059 2463 
L 2784 3500 
L 3969 3500 
L 2706 1797 
L 4031 0 
L 2847 0 
L 2059 1106 
L 1281 0 
L 97 0 
L 1422 1791 
z
" transform="scale(0.015625)"/>
       <path id="DejaVuSans-Bold-62" d="M 2400 722 
Q 2759 722 2948 984 
Q 3138 1247 3138 1747 
Q 3138 2247 2948 2509 
Q 2759 2772 2400 2772 
Q 2041 2772 1848 2508 
Q 1656 2244 1656 1747 
Q 1656 1250 1848 986 
Q 2041 722 2400 722 
z
M 1656 2988 
Q 1888 3294 2169 3439 
Q 2450 3584 2816 3584 
Q 3463 3584 3878 3070 
Q 4294 2556 4294 1747 
Q 4294 938 3878 423 
Q 3463 -91 2816 -91 
Q 2450 -91 2169 54 
Q 1888 200 1656 506 
L 1656 0 
L 538 0 
L 538 4863 
L 1656 4863 
L 1656 2988 
z
" transform="scale(0.015625)"/>
       <path id="DejaVuSans-Bold-6e" d="M 4056 2131 
L 4056 0 
L 2931 0 
L 2931 347 
L 2931 1631 
Q 2931 2084 2911 2256 
Q 2891 2428 2841 2509 
Q 2775 2619 2662 2680 
Q 2550 2741 2406 2741 
Q 2056 2741 1856 2470 
Q 1656 2200 1656 1722 
L 1656 0 
L 538 0 
L 538 3500 
L 1656 3500 
L 1656 2988 
Q 1909 3294 2193 3439 
Q 2478 3584 2822 3584 
Q 3428 3584 3742 3212 
Q 4056 2841 4056 2131 
z
" transform="scale(0.015625)"/>
      </defs>
      <use xlink:href="#DejaVuSans-Bold-72"/>
      <use xlink:href="#DejaVuSans-Bold-69" x="49.316406"/>
      <use xlink:href="#DejaVuSans-Bold-76" x="83.59375"/>
      <use xlink:href="#DejaVuSans-Bold-61" x="148.779297"/>
      <use xlink:href="#DejaVuSans-Bold-72" x="216.259766"/>
      <use xlink:href="#DejaVuSans-Bold-6f" x="265.576172"/>
      <use xlink:href="#DejaVuSans-Bold-78" x="334.277344"/>
      <use xlink:href="#DejaVuSans-Bold-61" x="398.779297"/>
      <use xlink:href="#DejaVuSans-Bold-62" x="466.259766"/>
      <use xlink:href="#DejaVuSans-Bold-61" x="537.841797"/>
      <use xlink:href="#DejaVuSans-Bold-6e" x="605.322266"/>
     </g>
     <!-- plasma [µM] -->
     <g transform="translate(41.03325 245.147344) rotate(-90) scale(0.18 -0.18)">
      <defs>
       <path id="DejaVuSans-Bold-70" d="M 1656 506 
L 1656 -1331 
L 538 -1331 
L 538 3500 
L 1656 3500 
L 1656 2988 
Q 1888 3294 2169 3439 
Q 2450 3584 2816 3584 
Q 3463 3584 3878 3070 
Q 4294 2556 4294 1747 
Q 4294 938 3878 423 
Q 3463 -91 2816 -91 
Q 2450 -91 2169 54 
Q 1888 200 1656 506 
z
M 2400 2772 
Q 2041 2772 1848 2508 
Q 1656 2244 1656 1747 
Q 1656 1250 1848 986 
Q 2041 722 2400 722 
Q 2759 722 2948 984 
Q 3138 1247 3138 1747 
Q 3138 2247 2948 2509 
Q 2759 2772 2400 2772 
z
" transform="scale(0.015625)"/>
       <path id="DejaVuSans-Bold-6c" d="M 538 4863 
L 1656 4863 
L 1656 0 
L 538 0 
L 538 4863 
z
" transform="scale(0.015625)"/>
       <path id="DejaVuSans-Bold-73" d="M 3272 3391 
L 3272 2541 
Q 2913 2691 2578 2766 
Q 2244 2841 1947 2841 
Q 1628 2841 1473 2761 
Q 1319 2681 1319 2516 
Q 1319 2381 1436 2309 
Q 1553 2238 1856 2203 
L 2053 2175 
Q 2913 2066 3209 1816 
Q 3506 1566 3506 1031 
Q 3506 472 3093 190 
Q 2681 -91 1863 -91 
Q 1516 -91 1145 -36 
Q 775 19 384 128 
L 384 978 
Q 719 816 1070 734 
Q 1422 653 1784 653 
Q 2113 653 2278 743 
Q 2444 834 2444 1013 
Q 2444 1163 2330 1236 
Q 2216 1309 1875 1350 
L 1678 1375 
Q 931 1469 631 1722 
Q 331 1975 331 2491 
Q 331 3047 712 3315 
Q 1094 3584 1881 3584 
Q 2191 3584 2531 3537 
Q 2872 3491 3272 3391 
z
" transform="scale(0.015625)"/>
       <path id="DejaVuSans-Bold-b5" d="M 544 -1338 
L 544 3500 
L 1672 3500 
L 1672 1466 
Q 1672 1103 1828 926 
Q 1984 750 2303 750 
Q 2625 750 2781 926 
Q 2938 1103 2938 1466 
L 2938 3500 
L 4063 3500 
L 4063 1159 
Q 4063 938 4114 850 
Q 4166 763 4288 763 
Q 4344 763 4395 778 
Q 4447 794 4506 831 
L 4506 50 
Q 4341 -22 4195 -56 
Q 4050 -91 3909 -91 
Q 3631 -91 3454 26 
Q 3278 144 3169 403 
Q 3022 156 2811 32 
Q 2600 -91 2322 -91 
Q 2091 -91 1928 -17 
Q 1766 56 1672 206 
L 1672 -1338 
L 544 -1338 
z
" transform="scale(0.015625)"/>
       <path id="DejaVuSans-Bold-4d" d="M 588 4666 
L 2119 4666 
L 3181 2169 
L 4250 4666 
L 5778 4666 
L 5778 0 
L 4641 0 
L 4641 3413 
L 3566 897 
L 2803 897 
L 1728 3413 
L 1728 0 
L 588 0 
L 588 4666 
z
" transform="scale(0.015625)"/>
      </defs>
      <use xlink:href="#DejaVuSans-Bold-70"/>
      <use xlink:href="#DejaVuSans-Bold-6c" x="71.582031"/>
      <use xlink:href="#DejaVuSans-Bold-61" x="105.859375"/>
      <use xlink:href="#DejaVuSans-Bold-73" x="173.339844"/>
      <use xlink:href="#DejaVuSans-Bold-6d" x="232.861328"/>
      <use xlink:href="#DejaVuSans-Bold-61" x="337.060547"/>
      <use xlink:href="#DejaVuSans-Bold-20" x="404.541016"/>
      <use xlink:href="#DejaVuSans-Bold-5b" x="439.355469"/>
      <use xlink:href="#DejaVuSans-Bold-b5" x="485.058594"/>
      <use xlink:href="#DejaVuSans-Bold-4d" x="558.642578"/>
      <use xlink:href="#DejaVuSans-Bold-5d" x="658.154297"/>
     </g>
    </g>
   </g>
   <g id="LineCollection_1">
    <path d="M 98.525949 299.579054 
L 98.525949 262.922131 
" clip-path="url(#p51501f8e33)" style="fill: none; stroke: #00008b"/>
    <path d="M 100.339655 286.721717 
L 100.339655 217.241075 
" clip-path="url(#p51501f8e33)" style="fill: none; stroke: #00008b"/>
    <path d="M 103.632212 277.364583 
L 103.632212 154.446625 
" clip-path="url(#p51501f8e33)" style="fill: none; stroke: #00008b"/>
    <path d="M 107.422698 242.702775 
L 107.422698 127.391415 
" clip-path="url(#p51501f8e33)" style="fill: none; stroke: #00008b"/>
    <path d="M 110.755088 235.900143 
L 110.755088 118.313237 
" clip-path="url(#p51501f8e33)" style="fill: none; stroke: #00008b"/>
    <path d="M 115.043503 227.505582 
L 115.043503 118.361274 
" clip-path="url(#p51501f8e33)" style="fill: none; stroke: #00008b"/>
    <path d="M 122.261972 210.004423 
L 122.261972 144.341606 
" clip-path="url(#p51501f8e33)" style="fill: none; stroke: #00008b"/>
    <path d="M 125.812881 237.120335 
L 125.812881 144.371291 
" clip-path="url(#p51501f8e33)" style="fill: none; stroke: #00008b"/>
    <path d="M 129.36379 231.066323 
L 129.36379 192.580898 
" clip-path="url(#p51501f8e33)" style="fill: none; stroke: #00008b"/>
    <path d="M 132.914699 239.305228 
L 132.914699 211.831645 
" clip-path="url(#p51501f8e33)" style="fill: none; stroke: #00008b"/>
    <path d="M 140.016517 266.815423 
L 140.016517 214.675981 
" clip-path="url(#p51501f8e33)" style="fill: none; stroke: #00008b"/>
    <path d="M 154.220153 273.977932 
L 154.220153 236.993149 
" clip-path="url(#p51501f8e33)" style="fill: none; stroke: #00008b"/>
    <path d="M 182.627426 282.340191 
L 182.627426 263.048538 
" clip-path="url(#p51501f8e33)" style="fill: none; stroke: #00008b"/>
    <path d="M 267.849244 288.41281 
L 267.849244 279.342109 
" clip-path="url(#p51501f8e33)" style="fill: none; stroke: #00008b"/>
    <path d="M 345.969244 291.24008 
L 345.969244 288.045251 
" clip-path="url(#p51501f8e33)" style="fill: none; stroke: #00008b"/>
    <path d="M 438.292881 291.574741 
L 438.292881 289.584514 
" clip-path="url(#p51501f8e33)" style="fill: none; stroke: #00008b"/>
   </g>
   <g id="LineCollection_2">
    <path d="M 98.529683 299.151315 
L 98.529683 264.425117 
" clip-path="url(#p51501f8e33)" style="fill: none; stroke: #1f77b4"/>
    <path d="M 99.865378 289.517036 
L 99.865378 217.241075 
" clip-path="url(#p51501f8e33)" style="fill: none; stroke: #1f77b4"/>
    <path d="M 103.147976 257.645252 
L 103.147976 156.892213 
" clip-path="url(#p51501f8e33)" style="fill: none; stroke: #1f77b4"/>
    <path d="M 106.467918 238.814431 
L 106.467918 127.395554 
" clip-path="url(#p51501f8e33)" style="fill: none; stroke: #1f77b4"/>
    <path d="M 111.230611 219.692324 
L 111.230611 130.364632 
" clip-path="url(#p51501f8e33)" style="fill: none; stroke: #1f77b4"/>
    <path d="M 116.477539 230.878548 
L 116.477539 127.490711 
" clip-path="url(#p51501f8e33)" style="fill: none; stroke: #1f77b4"/>
    <path d="M 121.25019 227.072579 
L 121.25019 146.978498 
" clip-path="url(#p51501f8e33)" style="fill: none; stroke: #1f77b4"/>
    <path d="M 129.36379 246.756518 
L 129.36379 152.132428 
" clip-path="url(#p51501f8e33)" style="fill: none; stroke: #1f77b4"/>
    <path d="M 132.914699 249.950697 
L 132.914699 192.583392 
" clip-path="url(#p51501f8e33)" style="fill: none; stroke: #1f77b4"/>
    <path d="M 140.016517 255.183734 
L 140.016517 218.7201 
" clip-path="url(#p51501f8e33)" style="fill: none; stroke: #1f77b4"/>
    <path d="M 154.220153 271.336232 
L 154.220153 236.990401 
" clip-path="url(#p51501f8e33)" style="fill: none; stroke: #1f77b4"/>
    <path d="M 182.627426 280.254451 
L 182.627426 263.047822 
" clip-path="url(#p51501f8e33)" style="fill: none; stroke: #1f77b4"/>
    <path d="M 267.849244 288.46784 
L 267.849244 279.558071 
" clip-path="url(#p51501f8e33)" style="fill: none; stroke: #1f77b4"/>
    <path d="M 345.969244 291.17409 
L 345.969244 288.045165 
" clip-path="url(#p51501f8e33)" style="fill: none; stroke: #1f77b4"/>
    <path d="M 438.292881 291.727393 
L 438.292881 289.046318 
" clip-path="url(#p51501f8e33)" style="fill: none; stroke: #1f77b4"/>
   </g>
   <g id="LineCollection_3">
    <path d="M 98.499288 290.135122 
L 98.499288 287.942604 
" clip-path="url(#p51501f8e33)" style="fill: none; stroke: #ff8c00"/>
    <path d="M 101.780328 274.463651 
L 101.780328 271.106215 
" clip-path="url(#p51501f8e33)" style="fill: none; stroke: #ff8c00"/>
    <path d="M 104.933535 249.430493 
L 104.933535 234.09202 
" clip-path="url(#p51501f8e33)" style="fill: none; stroke: #ff8c00"/>
    <path d="M 104.20915 307.8 
L 104.20915 138.712895 
" clip-path="url(#p51501f8e33)" style="fill: none; stroke: #ff8c00"/>
    <path d="M 114.954201 234.003907 
L 114.954201 99.038155 
" clip-path="url(#p51501f8e33)" style="fill: none; stroke: #ff8c00"/>
    <path d="M 127.183532 177.381778 
L 127.183532 81.441937 
" clip-path="url(#p51501f8e33)" style="fill: none; stroke: #ff8c00"/>
    <path d="M 140.016517 228.71829 
L 140.016517 124.507299 
" clip-path="url(#p51501f8e33)" style="fill: none; stroke: #ff8c00"/>
    <path d="M 154.220153 244.482451 
L 154.220153 197.448585 
" clip-path="url(#p51501f8e33)" style="fill: none; stroke: #ff8c00"/>
    <path d="M 182.627426 277.738697 
L 182.627426 245.57871 
" clip-path="url(#p51501f8e33)" style="fill: none; stroke: #ff8c00"/>
    <path d="M 267.849244 290.977342 
L 267.849244 283.699463 
" clip-path="url(#p51501f8e33)" style="fill: none; stroke: #ff8c00"/>
    <path d="M 353.071062 291.699409 
L 353.071062 290.385729 
" clip-path="url(#p51501f8e33)" style="fill: none; stroke: #ff8c00"/>
    <path d="M 438.356797 291.752048 
L 438.356797 290.756489 
" clip-path="url(#p51501f8e33)" style="fill: none; stroke: #ff8c00"/>
   </g>
   <g id="LineCollection_4">
    <path d="M 98.932499 289.584704 
L 98.932499 287.156456 
" clip-path="url(#p51501f8e33)" style="fill: none; stroke: #ff7f0e"/>
    <path d="M 101.219284 288.812288 
L 101.219284 260.119592 
" clip-path="url(#p51501f8e33)" style="fill: none; stroke: #ff7f0e"/>
    <path d="M 102.746175 268.307206 
L 102.746175 228.905959 
" clip-path="url(#p51501f8e33)" style="fill: none; stroke: #ff7f0e"/>
    <path d="M 108.846637 255.300858 
L 108.846637 183.350554 
" clip-path="url(#p51501f8e33)" style="fill: none; stroke: #ff7f0e"/>
    <path d="M 111.893317 273.300564 
L 111.893317 105.486859 
" clip-path="url(#p51501f8e33)" style="fill: none; stroke: #ff7f0e"/>
    <path d="M 120.280564 226.668812 
L 120.280564 75.517789 
" clip-path="url(#p51501f8e33)" style="fill: none; stroke: #ff7f0e"/>
    <path d="M 129.36379 173.08371 
L 129.36379 55.8 
" clip-path="url(#p51501f8e33)" style="fill: none; stroke: #ff7f0e"/>
    <path d="M 140.016517 188.272277 
L 140.016517 129.255085 
" clip-path="url(#p51501f8e33)" style="fill: none; stroke: #ff7f0e"/>
    <path d="M 154.220153 243.474305 
L 154.220153 185.997368 
" clip-path="url(#p51501f8e33)" style="fill: none; stroke: #ff7f0e"/>
    <path d="M 182.627426 279.061532 
L 182.627426 242.859804 
" clip-path="url(#p51501f8e33)" style="fill: none; stroke: #ff7f0e"/>
    <path d="M 267.849244 289.623611 
L 267.849244 282.75311 
" clip-path="url(#p51501f8e33)" style="fill: none; stroke: #ff7f0e"/>
    <path d="M 353.071062 291.447658 
L 353.071062 290.321647 
" clip-path="url(#p51501f8e33)" style="fill: none; stroke: #ff7f0e"/>
    <path d="M 438.292881 291.615873 
L 438.292881 290.670665 
" clip-path="url(#p51501f8e33)" style="fill: none; stroke: #ff7f0e"/>
   </g>
   <g id="line2d_12">
    <path d="M 97.405608 291.457957 
L 98.11579 289.012953 
L 98.825972 282.856085 
L 99.536153 274.324484 
L 101.666699 243.164404 
L 103.087062 222.784545 
L 104.507426 204.976699 
L 105.92779 190.332389 
L 107.348153 178.848114 
L 108.768517 170.230968 
L 109.478699 166.871743 
L 110.188881 164.073587 
L 110.899062 161.783292 
L 111.609244 159.949688 
L 112.319426 158.524402 
L 113.029608 157.462309 
L 113.73979 156.721762 
L 114.449972 156.264664 
L 115.160153 156.056413 
L 115.870335 156.065783 
L 116.580517 156.264738 
L 117.290699 156.628226 
L 118.711062 157.762145 
L 120.131426 159.318101 
L 121.55179 161.179922 
L 123.682335 164.356556 
L 127.233244 170.189524 
L 136.465608 185.662885 
L 140.726699 192.355741 
L 144.98779 198.663065 
L 149.248881 204.583885 
L 153.509972 210.13277 
L 157.771062 215.329513 
L 162.032153 220.195065 
L 166.293244 224.749992 
L 170.554335 229.013913 
L 174.815426 233.005339 
L 179.786699 237.340728 
L 184.757972 241.354573 
L 189.729244 245.070717 
L 194.700517 248.511237 
L 199.67179 251.696575 
L 204.643062 254.645659 
L 210.324517 257.749166 
L 216.005972 260.591029 
L 221.687426 263.193304 
L 228.079062 265.859565 
L 234.470699 268.274313 
L 240.862335 270.461272 
L 247.964153 272.650134 
L 255.065972 274.610811 
L 262.877972 276.532319 
L 271.400153 278.379447 
L 279.922335 279.997983 
L 289.154699 281.526161 
L 299.097244 282.944799 
L 309.749972 284.240696 
L 321.823062 285.472578 
L 334.606335 286.548542 
L 348.809972 287.518782 
L 365.144153 288.399958 
L 383.608881 289.161144 
L 404.914335 289.807178 
L 430.480881 290.347338 
L 452.496517 290.668466 
L 452.496517 290.668466 
" clip-path="url(#p51501f8e33)" style="fill: none; stroke: #00008b; stroke-width: 2; stroke-linecap: square"/>
   </g>
   <g id="line2d_13">
    <path d="M 98.525949 281.250592 
L 100.339655 251.981396 
L 103.632212 215.905604 
L 107.422698 185.047095 
L 110.755088 177.10669 
L 115.043503 172.933428 
L 122.261972 177.173015 
L 125.812881 190.745813 
L 129.36379 211.823611 
L 132.914699 225.568437 
L 140.016517 240.745702 
L 154.220153 255.48554 
L 182.627426 272.694365 
L 267.849244 283.877459 
L 345.969244 289.642665 
L 438.292881 290.579628 
" clip-path="url(#p51501f8e33)" style="fill: none; stroke-dasharray: 3.7,1.6; stroke-dashoffset: 0; stroke: #00008b"/>
    <defs>
     <path id="mceaf833f8b" d="M -3 3 
L 3 3 
L 3 -3 
L -3 -3 
z
" style="stroke: #000000; stroke-linejoin: miter"/>
    </defs>
    <g clip-path="url(#p51501f8e33)">
     <use xlink:href="#mceaf833f8b" x="98.525949" y="281.250592" style="fill: #00008b; stroke: #000000; stroke-linejoin: miter"/>
     <use xlink:href="#mceaf833f8b" x="100.339655" y="251.981396" style="fill: #00008b; stroke: #000000; stroke-linejoin: miter"/>
     <use xlink:href="#mceaf833f8b" x="103.632212" y="215.905604" style="fill: #00008b; stroke: #000000; stroke-linejoin: miter"/>
     <use xlink:href="#mceaf833f8b" x="107.422698" y="185.047095" style="fill: #00008b; stroke: #000000; stroke-linejoin: miter"/>
     <use xlink:href="#mceaf833f8b" x="110.755088" y="177.10669" style="fill: #00008b; stroke: #000000; stroke-linejoin: miter"/>
     <use xlink:href="#mceaf833f8b" x="115.043503" y="172.933428" style="fill: #00008b; stroke: #000000; stroke-linejoin: miter"/>
     <use xlink:href="#mceaf833f8b" x="122.261972" y="177.173015" style="fill: #00008b; stroke: #000000; stroke-linejoin: miter"/>
     <use xlink:href="#mceaf833f8b" x="125.812881" y="190.745813" style="fill: #00008b; stroke: #000000; stroke-linejoin: miter"/>
     <use xlink:href="#mceaf833f8b" x="129.36379" y="211.823611" style="fill: #00008b; stroke: #000000; stroke-linejoin: miter"/>
     <use xlink:href="#mceaf833f8b" x="132.914699" y="225.568437" style="fill: #00008b; stroke: #000000; stroke-linejoin: miter"/>
     <use xlink:href="#mceaf833f8b" x="140.016517" y="240.745702" style="fill: #00008b; stroke: #000000; stroke-linejoin: miter"/>
     <use xlink:href="#mceaf833f8b" x="154.220153" y="255.48554" style="fill: #00008b; stroke: #000000; stroke-linejoin: miter"/>
     <use xlink:href="#mceaf833f8b" x="182.627426" y="272.694365" style="fill: #00008b; stroke: #000000; stroke-linejoin: miter"/>
     <use xlink:href="#mceaf833f8b" x="267.849244" y="283.877459" style="fill: #00008b; stroke: #000000; stroke-linejoin: miter"/>
     <use xlink:href="#mceaf833f8b" x="345.969244" y="289.642665" style="fill: #00008b; stroke: #000000; stroke-linejoin: miter"/>
     <use xlink:href="#mceaf833f8b" x="438.292881" y="290.579628" style="fill: #00008b; stroke: #000000; stroke-linejoin: miter"/>
    </g>
   </g>
   <g id="line2d_14">
    <path d="M 97.405608 291.457957 
L 98.11579 289.012953 
L 98.825972 282.856085 
L 99.536153 274.324484 
L 101.666699 243.164404 
L 103.087062 222.784545 
L 104.507426 204.976699 
L 105.92779 190.332389 
L 107.348153 178.848114 
L 108.768517 170.230968 
L 109.478699 166.871743 
L 110.188881 164.073587 
L 110.899062 161.783292 
L 111.609244 159.949688 
L 112.319426 158.524402 
L 113.029608 157.462309 
L 113.73979 156.721762 
L 114.449972 156.264664 
L 115.160153 156.056413 
L 115.870335 156.065783 
L 116.580517 156.264738 
L 117.290699 156.628226 
L 118.711062 157.762145 
L 120.131426 159.318101 
L 121.55179 161.179922 
L 123.682335 164.356556 
L 127.233244 170.189524 
L 136.465608 185.662885 
L 140.726699 192.355741 
L 144.98779 198.663065 
L 149.248881 204.583885 
L 153.509972 210.13277 
L 157.771062 215.329513 
L 162.032153 220.195065 
L 166.293244 224.749992 
L 170.554335 229.013913 
L 174.815426 233.005339 
L 179.786699 237.340728 
L 184.757972 241.354573 
L 189.729244 245.070717 
L 194.700517 248.511237 
L 199.67179 251.696575 
L 204.643062 254.645659 
L 210.324517 257.749166 
L 216.005972 260.591029 
L 221.687426 263.193304 
L 228.079062 265.859565 
L 234.470699 268.274313 
L 240.862335 270.461272 
L 247.964153 272.650134 
L 255.065972 274.610811 
L 262.877972 276.532319 
L 271.400153 278.379447 
L 279.922335 279.997983 
L 289.154699 281.526161 
L 299.097244 282.944799 
L 309.749972 284.240696 
L 321.823062 285.472578 
L 334.606335 286.548542 
L 348.809972 287.518782 
L 365.144153 288.399958 
L 383.608881 289.161144 
L 404.914335 289.807178 
L 430.480881 290.347338 
L 452.496517 290.668466 
L 452.496517 290.668466 
" clip-path="url(#p51501f8e33)" style="fill: none; stroke: #1f77b4; stroke-width: 2; stroke-linecap: square"/>
   </g>
   <g id="line2d_15">
    <path d="M 98.529683 281.788216 
L 99.865378 253.379055 
L 103.147976 207.268732 
L 106.467918 183.104992 
L 111.230611 175.028478 
L 116.477539 179.18463 
L 121.25019 187.025539 
L 129.36379 199.444473 
L 132.914699 221.267045 
L 140.016517 236.951917 
L 154.220153 254.163317 
L 182.627426 271.651136 
L 267.849244 284.012955 
L 345.969244 289.609628 
L 438.292881 290.386856 
" clip-path="url(#p51501f8e33)" style="fill: none; stroke-dasharray: 3.7,1.6; stroke-dashoffset: 0; stroke: #1f77b4"/>
    <defs>
     <path id="mdc7c677da4" d="M -3 3 
L 3 3 
L 3 -3 
L -3 -3 
z
" style="stroke: #000000; stroke-linejoin: miter"/>
    </defs>
    <g clip-path="url(#p51501f8e33)">
     <use xlink:href="#mdc7c677da4" x="98.529683" y="281.788216" style="fill: #1f77b4; stroke: #000000; stroke-linejoin: miter"/>
     <use xlink:href="#mdc7c677da4" x="99.865378" y="253.379055" style="fill: #1f77b4; stroke: #000000; stroke-linejoin: miter"/>
     <use xlink:href="#mdc7c677da4" x="103.147976" y="207.268732" style="fill: #1f77b4; stroke: #000000; stroke-linejoin: miter"/>
     <use xlink:href="#mdc7c677da4" x="106.467918" y="183.104992" style="fill: #1f77b4; stroke: #000000; stroke-linejoin: miter"/>
     <use xlink:href="#mdc7c677da4" x="111.230611" y="175.028478" style="fill: #1f77b4; stroke: #000000; stroke-linejoin: miter"/>
     <use xlink:href="#mdc7c677da4" x="116.477539" y="179.18463" style="fill: #1f77b4; stroke: #000000; stroke-linejoin: miter"/>
     <use xlink:href="#mdc7c677da4" x="121.25019" y="187.025539" style="fill: #1f77b4; stroke: #000000; stroke-linejoin: miter"/>
     <use xlink:href="#mdc7c677da4" x="129.36379" y="199.444473" style="fill: #1f77b4; stroke: #000000; stroke-linejoin: miter"/>
     <use xlink:href="#mdc7c677da4" x="132.914699" y="221.267045" style="fill: #1f77b4; stroke: #000000; stroke-linejoin: miter"/>
     <use xlink:href="#mdc7c677da4" x="140.016517" y="236.951917" style="fill: #1f77b4; stroke: #000000; stroke-linejoin: miter"/>
     <use xlink:href="#mdc7c677da4" x="154.220153" y="254.163317" style="fill: #1f77b4; stroke: #000000; stroke-linejoin: miter"/>
     <use xlink:href="#mdc7c677da4" x="182.627426" y="271.651136" style="fill: #1f77b4; stroke: #000000; stroke-linejoin: miter"/>
     <use xlink:href="#mdc7c677da4" x="267.849244" y="284.012955" style="fill: #1f77b4; stroke: #000000; stroke-linejoin: miter"/>
     <use xlink:href="#mdc7c677da4" x="345.969244" y="289.609628" style="fill: #1f77b4; stroke: #000000; stroke-linejoin: miter"/>
     <use xlink:href="#mdc7c677da4" x="438.292881" y="290.386856" style="fill: #1f77b4; stroke: #000000; stroke-linejoin: miter"/>
    </g>
   </g>
   <g id="line2d_16">
    <path d="M 97.405608 291.457957 
L 98.11579 288.973518 
L 98.825972 282.717346 
L 99.536153 274.048138 
L 101.666699 242.385476 
L 103.087062 221.676909 
L 104.507426 203.58184 
L 105.92779 188.701331 
L 107.348153 177.031826 
L 108.768517 168.275693 
L 109.478699 164.862288 
L 110.188881 162.019 
L 110.899062 159.691765 
L 111.609244 157.828587 
L 112.319426 156.380313 
L 113.029608 155.301089 
L 113.73979 154.548598 
L 114.449972 154.084127 
L 115.160153 153.872518 
L 115.870335 153.882038 
L 116.580517 154.084202 
L 117.290699 154.453553 
L 118.711062 155.605761 
L 120.131426 157.186813 
L 121.55179 159.078664 
L 123.682335 162.306534 
L 127.233244 168.233582 
L 136.465608 183.956513 
L 140.726699 190.757318 
L 144.98779 197.166373 
L 149.248881 203.18269 
L 153.509972 208.821074 
L 157.771062 214.101635 
L 162.032153 219.045664 
L 166.293244 223.674057 
L 170.554335 228.006751 
L 174.815426 232.062554 
L 179.786699 236.467869 
L 184.757972 240.546454 
L 189.729244 244.322536 
L 194.700517 247.818548 
L 199.67179 251.055263 
L 204.643062 254.051912 
L 210.324517 257.205476 
L 216.005972 260.093175 
L 221.687426 262.737423 
L 228.079062 265.446688 
L 234.470699 267.900383 
L 240.862335 270.122616 
L 247.964153 272.346782 
L 255.065972 274.339083 
L 262.877972 276.291583 
L 270.689972 278.021389 
L 279.212153 279.684237 
L 288.444517 281.254253 
L 298.387062 282.711729 
L 309.03979 284.043105 
L 320.402699 285.24064 
L 333.185972 286.358299 
L 347.389608 287.366136 
L 363.013608 288.246295 
L 380.768153 289.019027 
L 401.363426 289.68563 
L 425.509608 290.239017 
L 452.496517 290.655732 
L 452.496517 290.655732 
" clip-path="url(#p51501f8e33)" style="fill: none; stroke: #ff8c00; stroke-width: 2; stroke-linecap: square"/>
   </g>
   <g id="line2d_17">
    <path d="M 98.499288 289.038863 
L 101.780328 272.784933 
L 104.933535 241.761257 
L 104.20915 223.256448 
L 114.954201 166.521031 
L 127.183532 129.411857 
L 140.016517 176.612795 
L 154.220153 220.965518 
L 182.627426 261.658704 
L 267.849244 287.338403 
L 353.071062 291.042569 
L 438.356797 291.254268 
" clip-path="url(#p51501f8e33)" style="fill: none; stroke-dasharray: 3.7,1.6; stroke-dashoffset: 0; stroke: #ff8c00"/>
    <defs>
     <path id="m5f9107d37f" d="M -3 3 
L 3 3 
L 3 -3 
L -3 -3 
z
" style="stroke: #000000; stroke-linejoin: miter"/>
    </defs>
    <g clip-path="url(#p51501f8e33)">
     <use xlink:href="#m5f9107d37f" x="98.499288" y="289.038863" style="fill: #ff8c00; stroke: #000000; stroke-linejoin: miter"/>
     <use xlink:href="#m5f9107d37f" x="101.780328" y="272.784933" style="fill: #ff8c00; stroke: #000000; stroke-linejoin: miter"/>
     <use xlink:href="#m5f9107d37f" x="104.933535" y="241.761257" style="fill: #ff8c00; stroke: #000000; stroke-linejoin: miter"/>
     <use xlink:href="#m5f9107d37f" x="104.20915" y="223.256448" style="fill: #ff8c00; stroke: #000000; stroke-linejoin: miter"/>
     <use xlink:href="#m5f9107d37f" x="114.954201" y="166.521031" style="fill: #ff8c00; stroke: #000000; stroke-linejoin: miter"/>
     <use xlink:href="#m5f9107d37f" x="127.183532" y="129.411857" style="fill: #ff8c00; stroke: #000000; stroke-linejoin: miter"/>
     <use xlink:href="#m5f9107d37f" x="140.016517" y="176.612795" style="fill: #ff8c00; stroke: #000000; stroke-linejoin: miter"/>
     <use xlink:href="#m5f9107d37f" x="154.220153" y="220.965518" style="fill: #ff8c00; stroke: #000000; stroke-linejoin: miter"/>
     <use xlink:href="#m5f9107d37f" x="182.627426" y="261.658704" style="fill: #ff8c00; stroke: #000000; stroke-linejoin: miter"/>
     <use xlink:href="#m5f9107d37f" x="267.849244" y="287.338403" style="fill: #ff8c00; stroke: #000000; stroke-linejoin: miter"/>
     <use xlink:href="#m5f9107d37f" x="353.071062" y="291.042569" style="fill: #ff8c00; stroke: #000000; stroke-linejoin: miter"/>
     <use xlink:href="#m5f9107d37f" x="438.356797" y="291.254268" style="fill: #ff8c00; stroke: #000000; stroke-linejoin: miter"/>
    </g>
   </g>
   <g id="line2d_18">
    <path d="M 97.405608 291.457957 
L 98.11579 288.973518 
L 98.825972 282.717346 
L 99.536153 274.048138 
L 101.666699 242.385476 
L 103.087062 221.676909 
L 104.507426 203.58184 
L 105.92779 188.701331 
L 107.348153 177.031826 
L 108.768517 168.275693 
L 109.478699 164.862288 
L 110.188881 162.019 
L 110.899062 159.691765 
L 111.609244 157.828587 
L 112.319426 156.380313 
L 113.029608 155.301089 
L 113.73979 154.548598 
L 114.449972 154.084127 
L 115.160153 153.872518 
L 115.870335 153.882038 
L 116.580517 154.084202 
L 117.290699 154.453553 
L 118.711062 155.605761 
L 120.131426 157.186813 
L 121.55179 159.078664 
L 123.682335 162.306534 
L 127.233244 168.233582 
L 136.465608 183.956513 
L 140.726699 190.757318 
L 144.98779 197.166373 
L 149.248881 203.18269 
L 153.509972 208.821074 
L 157.771062 214.101635 
L 162.032153 219.045664 
L 166.293244 223.674057 
L 170.554335 228.006751 
L 174.815426 232.062554 
L 179.786699 236.467869 
L 184.757972 240.546454 
L 189.729244 244.322536 
L 194.700517 247.818548 
L 199.67179 251.055263 
L 204.643062 254.051912 
L 210.324517 257.205476 
L 216.005972 260.093175 
L 221.687426 262.737423 
L 228.079062 265.446688 
L 234.470699 267.900383 
L 240.862335 270.122616 
L 247.964153 272.346782 
L 255.065972 274.339083 
L 262.877972 276.291583 
L 270.689972 278.021389 
L 279.212153 279.684237 
L 288.444517 281.254253 
L 298.387062 282.711729 
L 309.03979 284.043105 
L 320.402699 285.24064 
L 333.185972 286.358299 
L 347.389608 287.366136 
L 363.013608 288.246295 
L 380.768153 289.019027 
L 401.363426 289.68563 
L 425.509608 290.239017 
L 452.496517 290.655732 
L 452.496517 290.655732 
" clip-path="url(#p51501f8e33)" style="fill: none; stroke: #ff7f0e; stroke-width: 2; stroke-linecap: square"/>
   </g>
   <g id="line2d_19">
    <path d="M 98.932499 288.37058 
L 101.219284 274.46594 
L 102.746175 248.606583 
L 108.846637 219.325706 
L 111.893317 189.393712 
L 120.280564 151.0933 
L 129.36379 114.441855 
L 140.016517 158.763681 
L 154.220153 214.735836 
L 182.627426 260.960668 
L 267.849244 286.188361 
L 353.071062 290.884652 
L 438.292881 291.143269 
" clip-path="url(#p51501f8e33)" style="fill: none; stroke-dasharray: 3.7,1.6; stroke-dashoffset: 0; stroke: #ff7f0e"/>
    <defs>
     <path id="m5c89df5aff" d="M -3 3 
L 3 3 
L 3 -3 
L -3 -3 
z
" style="stroke: #000000; stroke-linejoin: miter"/>
    </defs>
    <g clip-path="url(#p51501f8e33)">
     <use xlink:href="#m5c89df5aff" x="98.932499" y="288.37058" style="fill: #ff7f0e; stroke: #000000; stroke-linejoin: miter"/>
     <use xlink:href="#m5c89df5aff" x="101.219284" y="274.46594" style="fill: #ff7f0e; stroke: #000000; stroke-linejoin: miter"/>
     <use xlink:href="#m5c89df5aff" x="102.746175" y="248.606583" style="fill: #ff7f0e; stroke: #000000; stroke-linejoin: miter"/>
     <use xlink:href="#m5c89df5aff" x="108.846637" y="219.325706" style="fill: #ff7f0e; stroke: #000000; stroke-linejoin: miter"/>
     <use xlink:href="#m5c89df5aff" x="111.893317" y="189.393712" style="fill: #ff7f0e; stroke: #000000; stroke-linejoin: miter"/>
     <use xlink:href="#m5c89df5aff" x="120.280564" y="151.0933" style="fill: #ff7f0e; stroke: #000000; stroke-linejoin: miter"/>
     <use xlink:href="#m5c89df5aff" x="129.36379" y="114.441855" style="fill: #ff7f0e; stroke: #000000; stroke-linejoin: miter"/>
     <use xlink:href="#m5c89df5aff" x="140.016517" y="158.763681" style="fill: #ff7f0e; stroke: #000000; stroke-linejoin: miter"/>
     <use xlink:href="#m5c89df5aff" x="154.220153" y="214.735836" style="fill: #ff7f0e; stroke: #000000; stroke-linejoin: miter"/>
     <use xlink:href="#m5c89df5aff" x="182.627426" y="260.960668" style="fill: #ff7f0e; stroke: #000000; stroke-linejoin: miter"/>
     <use xlink:href="#m5c89df5aff" x="267.849244" y="286.188361" style="fill: #ff7f0e; stroke: #000000; stroke-linejoin: miter"/>
     <use xlink:href="#m5c89df5aff" x="353.071062" y="290.884652" style="fill: #ff7f0e; stroke: #000000; stroke-linejoin: miter"/>
     <use xlink:href="#m5c89df5aff" x="438.292881" y="291.143269" style="fill: #ff7f0e; stroke: #000000; stroke-linejoin: miter"/>
    </g>
   </g>
   <g id="patch_3">
    <path d="M 79.651062 320.4 
L 79.651062 43.2 
" style="fill: none; stroke: #000000; stroke-width: 0.8; stroke-linejoin: miter; stroke-linecap: square"/>
   </g>
   <g id="patch_4">
    <path d="M 470.251062 320.4 
L 470.251062 43.2 
" style="fill: none; stroke: #000000; stroke-width: 0.8; stroke-linejoin: miter; stroke-linecap: square"/>
   </g>
   <g id="patch_5">
    <path d="M 79.651062 320.4 
L 470.251062 320.4 
" style="fill: none; stroke: #000000; stroke-width: 0.8; stroke-linejoin: miter; stroke-linecap: square"/>
   </g>
   <g id="patch_6">
    <path d="M 79.651062 43.2 
L 470.251062 43.2 
" style="fill: none; stroke: #000000; stroke-width: 0.8; stroke-linejoin: miter; stroke-linecap: square"/>
   </g>
   <g id="legend_1">
    <g id="patch_7">
     <path d="M 311.987 168.625 
L 463.251062 168.625 
Q 465.251062 168.625 465.251062 166.625 
L 465.251062 50.2 
Q 465.251062 48.2 463.251062 48.2 
L 311.987 48.2 
Q 309.987 48.2 309.987 50.2 
L 309.987 166.625 
Q 309.987 168.625 311.987 168.625 
z
" style="fill: #ffffff; opacity: 0.8; stroke: #cccccc; stroke-linejoin: miter"/>
    </g>
    <g id="line2d_20">
     <path d="M 313.987 56.298437 
L 333.987 56.298437 
" style="fill: none; stroke: #00008b; stroke-width: 2; stroke-linecap: square"/>
    </g>
    <g id="line2d_21"/>
    <g id="text_14">
     <!-- Fasting T10 -->
     <g transform="translate(341.987 59.798437) scale(0.1 -0.1)">
      <defs>
       <path id="DejaVuSans-46" d="M 628 4666 
L 3309 4666 
L 3309 4134 
L 1259 4134 
L 1259 2759 
L 3109 2759 
L 3109 2228 
L 1259 2228 
L 1259 0 
L 628 0 
L 628 4666 
z
" transform="scale(0.015625)"/>
       <path id="DejaVuSans-61" d="M 2194 1759 
Q 1497 1759 1228 1600 
Q 959 1441 959 1056 
Q 959 750 1161 570 
Q 1363 391 1709 391 
Q 2188 391 2477 730 
Q 2766 1069 2766 1631 
L 2766 1759 
L 2194 1759 
z
M 3341 1997 
L 3341 0 
L 2766 0 
L 2766 531 
Q 2569 213 2275 61 
Q 1981 -91 1556 -91 
Q 1019 -91 701 211 
Q 384 513 384 1019 
Q 384 1609 779 1909 
Q 1175 2209 1959 2209 
L 2766 2209 
L 2766 2266 
Q 2766 2663 2505 2880 
Q 2244 3097 1772 3097 
Q 1472 3097 1187 3025 
Q 903 2953 641 2809 
L 641 3341 
Q 956 3463 1253 3523 
Q 1550 3584 1831 3584 
Q 2591 3584 2966 3190 
Q 3341 2797 3341 1997 
z
" transform="scale(0.015625)"/>
       <path id="DejaVuSans-73" d="M 2834 3397 
L 2834 2853 
Q 2591 2978 2328 3040 
Q 2066 3103 1784 3103 
Q 1356 3103 1142 2972 
Q 928 2841 928 2578 
Q 928 2378 1081 2264 
Q 1234 2150 1697 2047 
L 1894 2003 
Q 2506 1872 2764 1633 
Q 3022 1394 3022 966 
Q 3022 478 2636 193 
Q 2250 -91 1575 -91 
Q 1294 -91 989 -36 
Q 684 19 347 128 
L 347 722 
Q 666 556 975 473 
Q 1284 391 1588 391 
Q 1994 391 2212 530 
Q 2431 669 2431 922 
Q 2431 1156 2273 1281 
Q 2116 1406 1581 1522 
L 1381 1569 
Q 847 1681 609 1914 
Q 372 2147 372 2553 
Q 372 3047 722 3315 
Q 1072 3584 1716 3584 
Q 2034 3584 2315 3537 
Q 2597 3491 2834 3397 
z
" transform="scale(0.015625)"/>
       <path id="DejaVuSans-74" d="M 1172 4494 
L 1172 3500 
L 2356 3500 
L 2356 3053 
L 1172 3053 
L 1172 1153 
Q 1172 725 1289 603 
Q 1406 481 1766 481 
L 2356 481 
L 2356 0 
L 1766 0 
Q 1100 0 847 248 
Q 594 497 594 1153 
L 594 3053 
L 172 3053 
L 172 3500 
L 594 3500 
L 594 4494 
L 1172 4494 
z
" transform="scale(0.015625)"/>
       <path id="DejaVuSans-69" d="M 603 3500 
L 1178 3500 
L 1178 0 
L 603 0 
L 603 3500 
z
M 603 4863 
L 1178 4863 
L 1178 4134 
L 603 4134 
L 603 4863 
z
" transform="scale(0.015625)"/>
       <path id="DejaVuSans-6e" d="M 3513 2113 
L 3513 0 
L 2938 0 
L 2938 2094 
Q 2938 2591 2744 2837 
Q 2550 3084 2163 3084 
Q 1697 3084 1428 2787 
Q 1159 2491 1159 1978 
L 1159 0 
L 581 0 
L 581 3500 
L 1159 3500 
L 1159 2956 
Q 1366 3272 1645 3428 
Q 1925 3584 2291 3584 
Q 2894 3584 3203 3211 
Q 3513 2838 3513 2113 
z
" transform="scale(0.015625)"/>
       <path id="DejaVuSans-67" d="M 2906 1791 
Q 2906 2416 2648 2759 
Q 2391 3103 1925 3103 
Q 1463 3103 1205 2759 
Q 947 2416 947 1791 
Q 947 1169 1205 825 
Q 1463 481 1925 481 
Q 2391 481 2648 825 
Q 2906 1169 2906 1791 
z
M 3481 434 
Q 3481 -459 3084 -895 
Q 2688 -1331 1869 -1331 
Q 1566 -1331 1297 -1286 
Q 1028 -1241 775 -1147 
L 775 -588 
Q 1028 -725 1275 -790 
Q 1522 -856 1778 -856 
Q 2344 -856 2625 -561 
Q 2906 -266 2906 331 
L 2906 616 
Q 2728 306 2450 153 
Q 2172 0 1784 0 
Q 1141 0 747 490 
Q 353 981 353 1791 
Q 353 2603 747 3093 
Q 1141 3584 1784 3584 
Q 2172 3584 2450 3431 
Q 2728 3278 2906 2969 
L 2906 3500 
L 3481 3500 
L 3481 434 
z
" transform="scale(0.015625)"/>
       <path id="DejaVuSans-20" transform="scale(0.015625)"/>
       <path id="DejaVuSans-54" d="M -19 4666 
L 3928 4666 
L 3928 4134 
L 2272 4134 
L 2272 0 
L 1638 0 
L 1638 4134 
L -19 4134 
L -19 4666 
z
" transform="scale(0.015625)"/>
      </defs>
      <use xlink:href="#DejaVuSans-46"/>
      <use xlink:href="#DejaVuSans-61" x="48.394531"/>
      <use xlink:href="#DejaVuSans-73" x="109.673828"/>
      <use xlink:href="#DejaVuSans-74" x="161.773438"/>
      <use xlink:href="#DejaVuSans-69" x="200.982422"/>
      <use xlink:href="#DejaVuSans-6e" x="228.765625"/>
      <use xlink:href="#DejaVuSans-67" x="292.144531"/>
      <use xlink:href="#DejaVuSans-20" x="355.621094"/>
      <use xlink:href="#DejaVuSans-54" x="387.408203"/>
      <use xlink:href="#DejaVuSans-31" x="448.492188"/>
      <use xlink:href="#DejaVuSans-30" x="512.115234"/>
     </g>
    </g>
    <g id="LineCollection_5">
     <path d="M 323.987 75.976562 
L 323.987 65.976562 
" style="fill: none; stroke: #00008b"/>
    </g>
    <g id="line2d_22">
     <path d="M 313.987 70.976562 
L 333.987 70.976562 
" style="fill: none; stroke-dasharray: 3.7,1.6; stroke-dashoffset: 0; stroke: #00008b"/>
    </g>
    <g id="line2d_23">
     <g>
      <use xlink:href="#mceaf833f8b" x="323.987" y="70.976562" style="fill: #00008b; stroke: #000000; stroke-linejoin: miter"/>
     </g>
    </g>
    <g id="text_15">
     <!-- Fasting T10±SD (n=28) -->
     <g transform="translate(341.987 74.476562) scale(0.1 -0.1)">
      <defs>
       <path id="DejaVuSans-b1" d="M 2944 4013 
L 2944 2803 
L 4684 2803 
L 4684 2272 
L 2944 2272 
L 2944 1063 
L 2419 1063 
L 2419 2272 
L 678 2272 
L 678 2803 
L 2419 2803 
L 2419 4013 
L 2944 4013 
z
M 678 531 
L 4684 531 
L 4684 0 
L 678 0 
L 678 531 
z
" transform="scale(0.015625)"/>
       <path id="DejaVuSans-53" d="M 3425 4513 
L 3425 3897 
Q 3066 4069 2747 4153 
Q 2428 4238 2131 4238 
Q 1616 4238 1336 4038 
Q 1056 3838 1056 3469 
Q 1056 3159 1242 3001 
Q 1428 2844 1947 2747 
L 2328 2669 
Q 3034 2534 3370 2195 
Q 3706 1856 3706 1288 
Q 3706 609 3251 259 
Q 2797 -91 1919 -91 
Q 1588 -91 1214 -16 
Q 841 59 441 206 
L 441 856 
Q 825 641 1194 531 
Q 1563 422 1919 422 
Q 2459 422 2753 634 
Q 3047 847 3047 1241 
Q 3047 1584 2836 1778 
Q 2625 1972 2144 2069 
L 1759 2144 
Q 1053 2284 737 2584 
Q 422 2884 422 3419 
Q 422 4038 858 4394 
Q 1294 4750 2059 4750 
Q 2388 4750 2728 4690 
Q 3069 4631 3425 4513 
z
" transform="scale(0.015625)"/>
       <path id="DejaVuSans-44" d="M 1259 4147 
L 1259 519 
L 2022 519 
Q 2988 519 3436 956 
Q 3884 1394 3884 2338 
Q 3884 3275 3436 3711 
Q 2988 4147 2022 4147 
L 1259 4147 
z
M 628 4666 
L 1925 4666 
Q 3281 4666 3915 4102 
Q 4550 3538 4550 2338 
Q 4550 1131 3912 565 
Q 3275 0 1925 0 
L 628 0 
L 628 4666 
z
" transform="scale(0.015625)"/>
       <path id="DejaVuSans-28" d="M 1984 4856 
Q 1566 4138 1362 3434 
Q 1159 2731 1159 2009 
Q 1159 1288 1364 580 
Q 1569 -128 1984 -844 
L 1484 -844 
Q 1016 -109 783 600 
Q 550 1309 550 2009 
Q 550 2706 781 3412 
Q 1013 4119 1484 4856 
L 1984 4856 
z
" transform="scale(0.015625)"/>
       <path id="DejaVuSans-3d" d="M 678 2906 
L 4684 2906 
L 4684 2381 
L 678 2381 
L 678 2906 
z
M 678 1631 
L 4684 1631 
L 4684 1100 
L 678 1100 
L 678 1631 
z
" transform="scale(0.015625)"/>
       <path id="DejaVuSans-38" d="M 2034 2216 
Q 1584 2216 1326 1975 
Q 1069 1734 1069 1313 
Q 1069 891 1326 650 
Q 1584 409 2034 409 
Q 2484 409 2743 651 
Q 3003 894 3003 1313 
Q 3003 1734 2745 1975 
Q 2488 2216 2034 2216 
z
M 1403 2484 
Q 997 2584 770 2862 
Q 544 3141 544 3541 
Q 544 4100 942 4425 
Q 1341 4750 2034 4750 
Q 2731 4750 3128 4425 
Q 3525 4100 3525 3541 
Q 3525 3141 3298 2862 
Q 3072 2584 2669 2484 
Q 3125 2378 3379 2068 
Q 3634 1759 3634 1313 
Q 3634 634 3220 271 
Q 2806 -91 2034 -91 
Q 1263 -91 848 271 
Q 434 634 434 1313 
Q 434 1759 690 2068 
Q 947 2378 1403 2484 
z
M 1172 3481 
Q 1172 3119 1398 2916 
Q 1625 2713 2034 2713 
Q 2441 2713 2670 2916 
Q 2900 3119 2900 3481 
Q 2900 3844 2670 4047 
Q 2441 4250 2034 4250 
Q 1625 4250 1398 4047 
Q 1172 3844 1172 3481 
z
" transform="scale(0.015625)"/>
       <path id="DejaVuSans-29" d="M 513 4856 
L 1013 4856 
Q 1481 4119 1714 3412 
Q 1947 2706 1947 2009 
Q 1947 1309 1714 600 
Q 1481 -109 1013 -844 
L 513 -844 
Q 928 -128 1133 580 
Q 1338 1288 1338 2009 
Q 1338 2731 1133 3434 
Q 928 4138 513 4856 
z
" transform="scale(0.015625)"/>
      </defs>
      <use xlink:href="#DejaVuSans-46"/>
      <use xlink:href="#DejaVuSans-61" x="48.394531"/>
      <use xlink:href="#DejaVuSans-73" x="109.673828"/>
      <use xlink:href="#DejaVuSans-74" x="161.773438"/>
      <use xlink:href="#DejaVuSans-69" x="200.982422"/>
      <use xlink:href="#DejaVuSans-6e" x="228.765625"/>
      <use xlink:href="#DejaVuSans-67" x="292.144531"/>
      <use xlink:href="#DejaVuSans-20" x="355.621094"/>
      <use xlink:href="#DejaVuSans-54" x="387.408203"/>
      <use xlink:href="#DejaVuSans-31" x="448.492188"/>
      <use xlink:href="#DejaVuSans-30" x="512.115234"/>
      <use xlink:href="#DejaVuSans-b1" x="575.738281"/>
      <use xlink:href="#DejaVuSans-53" x="659.527344"/>
      <use xlink:href="#DejaVuSans-44" x="723.003906"/>
      <use xlink:href="#DejaVuSans-20" x="800.005859"/>
      <use xlink:href="#DejaVuSans-28" x="831.792969"/>
      <use xlink:href="#DejaVuSans-6e" x="870.806641"/>
      <use xlink:href="#DejaVuSans-3d" x="934.185547"/>
      <use xlink:href="#DejaVuSans-32" x="1017.974609"/>
      <use xlink:href="#DejaVuSans-38" x="1081.597656"/>
      <use xlink:href="#DejaVuSans-29" x="1145.220703"/>
     </g>
    </g>
    <g id="line2d_24">
     <path d="M 313.987 85.654687 
L 333.987 85.654687 
" style="fill: none; stroke: #1f77b4; stroke-width: 2; stroke-linecap: square"/>
    </g>
    <g id="line2d_25"/>
    <g id="text_16">
     <!-- Fasting R10 -->
     <g transform="translate(341.987 89.154687) scale(0.1 -0.1)">
      <defs>
       <path id="DejaVuSans-52" d="M 2841 2188 
Q 3044 2119 3236 1894 
Q 3428 1669 3622 1275 
L 4263 0 
L 3584 0 
L 2988 1197 
Q 2756 1666 2539 1819 
Q 2322 1972 1947 1972 
L 1259 1972 
L 1259 0 
L 628 0 
L 628 4666 
L 2053 4666 
Q 2853 4666 3247 4331 
Q 3641 3997 3641 3322 
Q 3641 2881 3436 2590 
Q 3231 2300 2841 2188 
z
M 1259 4147 
L 1259 2491 
L 2053 2491 
Q 2509 2491 2742 2702 
Q 2975 2913 2975 3322 
Q 2975 3731 2742 3939 
Q 2509 4147 2053 4147 
L 1259 4147 
z
" transform="scale(0.015625)"/>
      </defs>
      <use xlink:href="#DejaVuSans-46"/>
      <use xlink:href="#DejaVuSans-61" x="48.394531"/>
      <use xlink:href="#DejaVuSans-73" x="109.673828"/>
      <use xlink:href="#DejaVuSans-74" x="161.773438"/>
      <use xlink:href="#DejaVuSans-69" x="200.982422"/>
      <use xlink:href="#DejaVuSans-6e" x="228.765625"/>
      <use xlink:href="#DejaVuSans-67" x="292.144531"/>
      <use xlink:href="#DejaVuSans-20" x="355.621094"/>
      <use xlink:href="#DejaVuSans-52" x="387.408203"/>
      <use xlink:href="#DejaVuSans-31" x="456.890625"/>
      <use xlink:href="#DejaVuSans-30" x="520.513672"/>
     </g>
    </g>
    <g id="LineCollection_6">
     <path d="M 323.987 105.332812 
L 323.987 95.332812 
" style="fill: none; stroke: #1f77b4"/>
    </g>
    <g id="line2d_26">
     <path d="M 313.987 100.332812 
L 333.987 100.332812 
" style="fill: none; stroke-dasharray: 3.7,1.6; stroke-dashoffset: 0; stroke: #1f77b4"/>
    </g>
    <g id="line2d_27">
     <g>
      <use xlink:href="#mdc7c677da4" x="323.987" y="100.332812" style="fill: #1f77b4; stroke: #000000; stroke-linejoin: miter"/>
     </g>
    </g>
    <g id="text_17">
     <!-- Fasting R10±SD (n=28) -->
     <g transform="translate(341.987 103.832812) scale(0.1 -0.1)">
      <use xlink:href="#DejaVuSans-46"/>
      <use xlink:href="#DejaVuSans-61" x="48.394531"/>
      <use xlink:href="#DejaVuSans-73" x="109.673828"/>
      <use xlink:href="#DejaVuSans-74" x="161.773438"/>
      <use xlink:href="#DejaVuSans-69" x="200.982422"/>
      <use xlink:href="#DejaVuSans-6e" x="228.765625"/>
      <use xlink:href="#DejaVuSans-67" x="292.144531"/>
      <use xlink:href="#DejaVuSans-20" x="355.621094"/>
      <use xlink:href="#DejaVuSans-52" x="387.408203"/>
      <use xlink:href="#DejaVuSans-31" x="456.890625"/>
      <use xlink:href="#DejaVuSans-30" x="520.513672"/>
      <use xlink:href="#DejaVuSans-b1" x="584.136719"/>
      <use xlink:href="#DejaVuSans-53" x="667.925781"/>
      <use xlink:href="#DejaVuSans-44" x="731.402344"/>
      <use xlink:href="#DejaVuSans-20" x="808.404297"/>
      <use xlink:href="#DejaVuSans-28" x="840.191406"/>
      <use xlink:href="#DejaVuSans-6e" x="879.205078"/>
      <use xlink:href="#DejaVuSans-3d" x="942.583984"/>
      <use xlink:href="#DejaVuSans-32" x="1026.373047"/>
      <use xlink:href="#DejaVuSans-38" x="1089.996094"/>
      <use xlink:href="#DejaVuSans-29" x="1153.619141"/>
     </g>
    </g>
    <g id="line2d_28">
     <path d="M 313.987 115.010937 
L 333.987 115.010937 
" style="fill: none; stroke: #ff8c00; stroke-width: 2; stroke-linecap: square"/>
    </g>
    <g id="line2d_29"/>
    <g id="text_18">
     <!-- Fed T10 -->
     <g transform="translate(341.987 118.510937) scale(0.1 -0.1)">
      <defs>
       <path id="DejaVuSans-65" d="M 3597 1894 
L 3597 1613 
L 953 1613 
Q 991 1019 1311 708 
Q 1631 397 2203 397 
Q 2534 397 2845 478 
Q 3156 559 3463 722 
L 3463 178 
Q 3153 47 2828 -22 
Q 2503 -91 2169 -91 
Q 1331 -91 842 396 
Q 353 884 353 1716 
Q 353 2575 817 3079 
Q 1281 3584 2069 3584 
Q 2775 3584 3186 3129 
Q 3597 2675 3597 1894 
z
M 3022 2063 
Q 3016 2534 2758 2815 
Q 2500 3097 2075 3097 
Q 1594 3097 1305 2825 
Q 1016 2553 972 2059 
L 3022 2063 
z
" transform="scale(0.015625)"/>
       <path id="DejaVuSans-64" d="M 2906 2969 
L 2906 4863 
L 3481 4863 
L 3481 0 
L 2906 0 
L 2906 525 
Q 2725 213 2448 61 
Q 2172 -91 1784 -91 
Q 1150 -91 751 415 
Q 353 922 353 1747 
Q 353 2572 751 3078 
Q 1150 3584 1784 3584 
Q 2172 3584 2448 3432 
Q 2725 3281 2906 2969 
z
M 947 1747 
Q 947 1113 1208 752 
Q 1469 391 1925 391 
Q 2381 391 2643 752 
Q 2906 1113 2906 1747 
Q 2906 2381 2643 2742 
Q 2381 3103 1925 3103 
Q 1469 3103 1208 2742 
Q 947 2381 947 1747 
z
" transform="scale(0.015625)"/>
      </defs>
      <use xlink:href="#DejaVuSans-46"/>
      <use xlink:href="#DejaVuSans-65" x="52.019531"/>
      <use xlink:href="#DejaVuSans-64" x="113.542969"/>
      <use xlink:href="#DejaVuSans-20" x="177.019531"/>
      <use xlink:href="#DejaVuSans-54" x="208.806641"/>
      <use xlink:href="#DejaVuSans-31" x="269.890625"/>
      <use xlink:href="#DejaVuSans-30" x="333.513672"/>
     </g>
    </g>
    <g id="LineCollection_7">
     <path d="M 323.987 134.689062 
L 323.987 124.689062 
" style="fill: none; stroke: #ff8c00"/>
    </g>
    <g id="line2d_30">
     <path d="M 313.987 129.689062 
L 333.987 129.689062 
" style="fill: none; stroke-dasharray: 3.7,1.6; stroke-dashoffset: 0; stroke: #ff8c00"/>
    </g>
    <g id="line2d_31">
     <g>
      <use xlink:href="#m5f9107d37f" x="323.987" y="129.689062" style="fill: #ff8c00; stroke: #000000; stroke-linejoin: miter"/>
     </g>
    </g>
    <g id="text_19">
     <!-- Fed T10±SD (n=28) -->
     <g transform="translate(341.987 133.189062) scale(0.1 -0.1)">
      <use xlink:href="#DejaVuSans-46"/>
      <use xlink:href="#DejaVuSans-65" x="52.019531"/>
      <use xlink:href="#DejaVuSans-64" x="113.542969"/>
      <use xlink:href="#DejaVuSans-20" x="177.019531"/>
      <use xlink:href="#DejaVuSans-54" x="208.806641"/>
      <use xlink:href="#DejaVuSans-31" x="269.890625"/>
      <use xlink:href="#DejaVuSans-30" x="333.513672"/>
      <use xlink:href="#DejaVuSans-b1" x="397.136719"/>
      <use xlink:href="#DejaVuSans-53" x="480.925781"/>
      <use xlink:href="#DejaVuSans-44" x="544.402344"/>
      <use xlink:href="#DejaVuSans-20" x="621.404297"/>
      <use xlink:href="#DejaVuSans-28" x="653.191406"/>
      <use xlink:href="#DejaVuSans-6e" x="692.205078"/>
      <use xlink:href="#DejaVuSans-3d" x="755.583984"/>
      <use xlink:href="#DejaVuSans-32" x="839.373047"/>
      <use xlink:href="#DejaVuSans-38" x="902.996094"/>
      <use xlink:href="#DejaVuSans-29" x="966.619141"/>
     </g>
    </g>
    <g id="line2d_32">
     <path d="M 313.987 144.367187 
L 333.987 144.367187 
" style="fill: none; stroke: #ff7f0e; stroke-width: 2; stroke-linecap: square"/>
    </g>
    <g id="line2d_33"/>
    <g id="text_20">
     <!-- Fed R10 -->
     <g transform="translate(341.987 147.867187) scale(0.1 -0.1)">
      <use xlink:href="#DejaVuSans-46"/>
      <use xlink:href="#DejaVuSans-65" x="52.019531"/>
      <use xlink:href="#DejaVuSans-64" x="113.542969"/>
      <use xlink:href="#DejaVuSans-20" x="177.019531"/>
      <use xlink:href="#DejaVuSans-52" x="208.806641"/>
      <use xlink:href="#DejaVuSans-31" x="278.289062"/>
      <use xlink:href="#DejaVuSans-30" x="341.912109"/>
     </g>
    </g>
    <g id="LineCollection_8">
     <path d="M 323.987 164.045312 
L 323.987 154.045312 
" style="fill: none; stroke: #ff7f0e"/>
    </g>
    <g id="line2d_34">
     <path d="M 313.987 159.045312 
L 333.987 159.045312 
" style="fill: none; stroke-dasharray: 3.7,1.6; stroke-dashoffset: 0; stroke: #ff7f0e"/>
    </g>
    <g id="line2d_35">
     <g>
      <use xlink:href="#m5c89df5aff" x="323.987" y="159.045312" style="fill: #ff7f0e; stroke: #000000; stroke-linejoin: miter"/>
     </g>
    </g>
    <g id="text_21">
     <!-- Fed R10±SD (n=28) -->
     <g transform="translate(341.987 162.545312) scale(0.1 -0.1)">
      <use xlink:href="#DejaVuSans-46"/>
      <use xlink:href="#DejaVuSans-65" x="52.019531"/>
      <use xlink:href="#DejaVuSans-64" x="113.542969"/>
      <use xlink:href="#DejaVuSans-20" x="177.019531"/>
      <use xlink:href="#DejaVuSans-52" x="208.806641"/>
      <use xlink:href="#DejaVuSans-31" x="278.289062"/>
      <use xlink:href="#DejaVuSans-30" x="341.912109"/>
      <use xlink:href="#DejaVuSans-b1" x="405.535156"/>
      <use xlink:href="#DejaVuSans-53" x="489.324219"/>
      <use xlink:href="#DejaVuSans-44" x="552.800781"/>
      <use xlink:href="#DejaVuSans-20" x="629.802734"/>
      <use xlink:href="#DejaVuSans-28" x="661.589844"/>
      <use xlink:href="#DejaVuSans-6e" x="700.603516"/>
      <use xlink:href="#DejaVuSans-3d" x="763.982422"/>
      <use xlink:href="#DejaVuSans-32" x="847.771484"/>
      <use xlink:href="#DejaVuSans-38" x="911.394531"/>
      <use xlink:href="#DejaVuSans-29" x="975.017578"/>
     </g>
    </g>
   </g>
  </g>
  <g id="text_22">
   <!-- Ding2020 (healthy) -->
   <g transform="translate(132.457703 26.196094) scale(0.25 -0.25)">
    <defs>
     <path id="DejaVuSans-Bold-44" d="M 1791 3756 
L 1791 909 
L 2222 909 
Q 2959 909 3348 1275 
Q 3738 1641 3738 2338 
Q 3738 3031 3350 3393 
Q 2963 3756 2222 3756 
L 1791 3756 
z
M 588 4666 
L 1856 4666 
Q 2919 4666 3439 4514 
Q 3959 4363 4331 4000 
Q 4659 3684 4818 3271 
Q 4978 2859 4978 2338 
Q 4978 1809 4818 1395 
Q 4659 981 4331 666 
Q 3956 303 3431 151 
Q 2906 0 1856 0 
L 588 0 
L 588 4666 
z
" transform="scale(0.015625)"/>
     <path id="DejaVuSans-Bold-67" d="M 2919 594 
Q 2688 288 2409 144 
Q 2131 0 1766 0 
Q 1125 0 706 504 
Q 288 1009 288 1791 
Q 288 2575 706 3076 
Q 1125 3578 1766 3578 
Q 2131 3578 2409 3434 
Q 2688 3291 2919 2981 
L 2919 3500 
L 4044 3500 
L 4044 353 
Q 4044 -491 3511 -936 
Q 2978 -1381 1966 -1381 
Q 1638 -1381 1331 -1331 
Q 1025 -1281 716 -1178 
L 716 -306 
Q 1009 -475 1290 -558 
Q 1572 -641 1856 -641 
Q 2406 -641 2662 -400 
Q 2919 -159 2919 353 
L 2919 594 
z
M 2181 2772 
Q 1834 2772 1640 2515 
Q 1447 2259 1447 1791 
Q 1447 1309 1634 1061 
Q 1822 813 2181 813 
Q 2531 813 2725 1069 
Q 2919 1325 2919 1791 
Q 2919 2259 2725 2515 
Q 2531 2772 2181 2772 
z
" transform="scale(0.015625)"/>
     <path id="DejaVuSans-Bold-32" d="M 1844 884 
L 3897 884 
L 3897 0 
L 506 0 
L 506 884 
L 2209 2388 
Q 2438 2594 2547 2791 
Q 2656 2988 2656 3200 
Q 2656 3528 2436 3728 
Q 2216 3928 1850 3928 
Q 1569 3928 1234 3808 
Q 900 3688 519 3450 
L 519 4475 
Q 925 4609 1322 4679 
Q 1719 4750 2100 4750 
Q 2938 4750 3402 4381 
Q 3866 4013 3866 3353 
Q 3866 2972 3669 2642 
Q 3472 2313 2841 1759 
L 1844 884 
z
" transform="scale(0.015625)"/>
     <path id="DejaVuSans-Bold-30" d="M 2944 2338 
Q 2944 3213 2780 3570 
Q 2616 3928 2228 3928 
Q 1841 3928 1675 3570 
Q 1509 3213 1509 2338 
Q 1509 1453 1675 1090 
Q 1841 728 2228 728 
Q 2613 728 2778 1090 
Q 2944 1453 2944 2338 
z
M 4147 2328 
Q 4147 1169 3647 539 
Q 3147 -91 2228 -91 
Q 1306 -91 806 539 
Q 306 1169 306 2328 
Q 306 3491 806 4120 
Q 1306 4750 2228 4750 
Q 3147 4750 3647 4120 
Q 4147 3491 4147 2328 
z
" transform="scale(0.015625)"/>
     <path id="DejaVuSans-Bold-28" d="M 2413 -844 
L 1484 -844 
Q 1006 -72 778 623 
Q 550 1319 550 2003 
Q 550 2688 779 3389 
Q 1009 4091 1484 4856 
L 2413 4856 
Q 2013 4116 1813 3408 
Q 1613 2700 1613 2009 
Q 1613 1319 1811 609 
Q 2009 -100 2413 -844 
z
" transform="scale(0.015625)"/>
     <path id="DejaVuSans-Bold-79" d="M 78 3500 
L 1197 3500 
L 2138 1125 
L 2938 3500 
L 4056 3500 
L 2584 -331 
Q 2363 -916 2067 -1148 
Q 1772 -1381 1288 -1381 
L 641 -1381 
L 641 -647 
L 991 -647 
Q 1275 -647 1404 -556 
Q 1534 -466 1606 -231 
L 1638 -134 
L 78 3500 
z
" transform="scale(0.015625)"/>
     <path id="DejaVuSans-Bold-29" d="M 513 -844 
Q 913 -100 1113 609 
Q 1313 1319 1313 2009 
Q 1313 2700 1113 3408 
Q 913 4116 513 4856 
L 1441 4856 
Q 1916 4091 2145 3389 
Q 2375 2688 2375 2003 
Q 2375 1319 2147 623 
Q 1919 -72 1441 -844 
L 513 -844 
z
" transform="scale(0.015625)"/>
    </defs>
    <use xlink:href="#DejaVuSans-Bold-44"/>
    <use xlink:href="#DejaVuSans-Bold-69" x="83.007812"/>
    <use xlink:href="#DejaVuSans-Bold-6e" x="117.285156"/>
    <use xlink:href="#DejaVuSans-Bold-67" x="188.476562"/>
    <use xlink:href="#DejaVuSans-Bold-32" x="260.058594"/>
    <use xlink:href="#DejaVuSans-Bold-30" x="329.638672"/>
    <use xlink:href="#DejaVuSans-Bold-32" x="399.21875"/>
    <use xlink:href="#DejaVuSans-Bold-30" x="468.798828"/>
    <use xlink:href="#DejaVuSans-Bold-20" x="538.378906"/>
    <use xlink:href="#DejaVuSans-Bold-28" x="573.193359"/>
    <use xlink:href="#DejaVuSans-Bold-68" x="618.896484"/>
    <use xlink:href="#DejaVuSans-Bold-65" x="690.087891"/>
    <use xlink:href="#DejaVuSans-Bold-61" x="757.910156"/>
    <use xlink:href="#DejaVuSans-Bold-6c" x="825.390625"/>
    <use xlink:href="#DejaVuSans-Bold-74" x="859.667969"/>
    <use xlink:href="#DejaVuSans-Bold-68" x="907.470703"/>
    <use xlink:href="#DejaVuSans-Bold-79" x="978.662109"/>
    <use xlink:href="#DejaVuSans-Bold-29" x="1043.847656"/>
   </g>
  </g>
 </g>
 <defs>
  <clipPath id="p51501f8e33">
   <rect x="79.651062" y="43.2" width="390.6" height="277.2"/>
  </clipPath>
 </defs>
</svg>
