<?xml version="1.0" encoding="utf-8" standalone="no"?>
<!DOCTYPE svg PUBLIC "-//W3C//DTD SVG 1.1//EN"
  "http://www.w3.org/Graphics/SVG/1.1/DTD/svg11.dtd">
<svg xmlns:xlink="http://www.w3.org/1999/xlink" width="457.295pt" height="370.537812pt" viewBox="0 0 457.295 370.537812" xmlns="http://www.w3.org/2000/svg" version="1.1">
 <metadata>
  <rdf:RDF xmlns:dc="http://purl.org/dc/elements/1.1/" xmlns:cc="http://creativecommons.org/ns#" xmlns:rdf="http://www.w3.org/1999/02/22-rdf-syntax-ns#">
   <cc:Work>
    <dc:type rdf:resource="http://purl.org/dc/dcmitype/StillImage"/>
    <dc:date>2026-01-05T10:58:40.201588</dc:date>
    <dc:format>image/svg+xml</dc:format>
    <dc:creator>
     <cc:Agent>
      <dc:title>Matplotlib v3.10.8, https://matplotlib.org/</dc:title>
     </cc:Agent>
    </dc:creator>
   </cc:Work>
  </rdf:RDF>
 </metadata>
 <defs>
  <style type="text/css">*{stroke-linejoin: round; stroke-linecap: butt}</style>
 </defs>
 <g id="figure_1">
  <g id="patch_1">
   <path d="M 0 370.537812 
L 457.295 370.537812 
L 457.295 0 
L 0 0 
z
" style="fill: #ffffff"/>
  </g>
  <g id="axes_1">
   <g id="patch_2">
    <path d="M 59.495 320.4 
L 450.095 320.4 
L 450.095 43.2 
L 59.495 43.2 
z
" style="fill: #ffffff"/>
   </g>
   <g id="matplotlib.axis_1">
    <g id="xtick_1">
     <g id="line2d_1">
      <defs>
       <path id="m54f1a7452a" d="M 0 0 
L 0 3.5 
" style="stroke: #000000; stroke-width: 0.8"/>
      </defs>
      <g>
       <use xlink:href="#m54f1a7452a" x="77.249545" y="320.4" style="stroke: #000000; stroke-width: 0.8"/>
      </g>
     </g>
     <g id="text_1">
      <!-- 0 -->
      <g transform="translate(72.47767 338.797656) scale(0.15 -0.15)">
       <defs>
        <path id="DejaVuSans-30" d="M 2034 4250 
Q 1547 4250 1301 3770 
Q 1056 3291 1056 2328 
Q 1056 1369 1301 889 
Q 1547 409 2034 409 
Q 2525 409 2770 889 
Q 3016 1369 3016 2328 
Q 3016 3291 2770 3770 
Q 2525 4250 2034 4250 
z
M 2034 4750 
Q 2819 4750 3233 4129 
Q 3647 3509 3647 2328 
Q 3647 1150 3233 529 
Q 2819 -91 2034 -91 
Q 1250 -91 836 529 
Q 422 1150 422 2328 
Q 422 3509 836 4129 
Q 1250 4750 2034 4750 
z
" transform="scale(0.015625)"/>
       </defs>
       <use xlink:href="#DejaVuSans-30"/>
      </g>
     </g>
    </g>
    <g id="xtick_2">
     <g id="line2d_2">
      <g>
       <use xlink:href="#m54f1a7452a" x="148.267727" y="320.4" style="stroke: #000000; stroke-width: 0.8"/>
      </g>
     </g>
     <g id="text_2">
      <!-- 10 -->
      <g transform="translate(138.723977 338.797656) scale(0.15 -0.15)">
       <defs>
        <path id="DejaVuSans-31" d="M 794 531 
L 1825 531 
L 1825 4091 
L 703 3866 
L 703 4441 
L 1819 4666 
L 2450 4666 
L 2450 531 
L 3481 531 
L 3481 0 
L 794 0 
L 794 531 
z
" transform="scale(0.015625)"/>
       </defs>
       <use xlink:href="#DejaVuSans-31"/>
       <use xlink:href="#DejaVuSans-30" transform="translate(63.623047 0)"/>
      </g>
     </g>
    </g>
    <g id="xtick_3">
     <g id="line2d_3">
      <g>
       <use xlink:href="#m54f1a7452a" x="219.285909" y="320.4" style="stroke: #000000; stroke-width: 0.8"/>
      </g>
     </g>
     <g id="text_3">
      <!-- 20 -->
      <g transform="translate(209.742159 338.797656) scale(0.15 -0.15)">
       <defs>
        <path id="DejaVuSans-32" d="M 1228 531 
L 3431 531 
L 3431 0 
L 469 0 
L 469 531 
Q 828 903 1448 1529 
Q 2069 2156 2228 2338 
Q 2531 2678 2651 2914 
Q 2772 3150 2772 3378 
Q 2772 3750 2511 3984 
Q 2250 4219 1831 4219 
Q 1534 4219 1204 4116 
Q 875 4013 500 3803 
L 500 4441 
Q 881 4594 1212 4672 
Q 1544 4750 1819 4750 
Q 2544 4750 2975 4387 
Q 3406 4025 3406 3419 
Q 3406 3131 3298 2873 
Q 3191 2616 2906 2266 
Q 2828 2175 2409 1742 
Q 1991 1309 1228 531 
z
" transform="scale(0.015625)"/>
       </defs>
       <use xlink:href="#DejaVuSans-32"/>
       <use xlink:href="#DejaVuSans-30" transform="translate(63.623047 0)"/>
      </g>
     </g>
    </g>
    <g id="xtick_4">
     <g id="line2d_4">
      <g>
       <use xlink:href="#m54f1a7452a" x="290.304091" y="320.4" style="stroke: #000000; stroke-width: 0.8"/>
      </g>
     </g>
     <g id="text_4">
      <!-- 30 -->
      <g transform="translate(280.760341 338.797656) scale(0.15 -0.15)">
       <defs>
        <path id="DejaVuSans-33" d="M 2597 2516 
Q 3050 2419 3304 2112 
Q 3559 1806 3559 1356 
Q 3559 666 3084 287 
Q 2609 -91 1734 -91 
Q 1441 -91 1130 -33 
Q 819 25 488 141 
L 488 750 
Q 750 597 1062 519 
Q 1375 441 1716 441 
Q 2309 441 2620 675 
Q 2931 909 2931 1356 
Q 2931 1769 2642 2001 
Q 2353 2234 1838 2234 
L 1294 2234 
L 1294 2753 
L 1863 2753 
Q 2328 2753 2575 2939 
Q 2822 3125 2822 3475 
Q 2822 3834 2567 4026 
Q 2313 4219 1838 4219 
Q 1578 4219 1281 4162 
Q 984 4106 628 3988 
L 628 4550 
Q 988 4650 1302 4700 
Q 1616 4750 1894 4750 
Q 2613 4750 3031 4423 
Q 3450 4097 3450 3541 
Q 3450 3153 3228 2886 
Q 3006 2619 2597 2516 
z
" transform="scale(0.015625)"/>
       </defs>
       <use xlink:href="#DejaVuSans-33"/>
       <use xlink:href="#DejaVuSans-30" transform="translate(63.623047 0)"/>
      </g>
     </g>
    </g>
    <g id="xtick_5">
     <g id="line2d_5">
      <g>
       <use xlink:href="#m54f1a7452a" x="361.322273" y="320.4" style="stroke: #000000; stroke-width: 0.8"/>
      </g>
     </g>
     <g id="text_5">
      <!-- 40 -->
      <g transform="translate(351.778523 338.797656) scale(0.15 -0.15)">
       <defs>
        <path id="DejaVuSans-34" d="M 2419 4116 
L 825 1625 
L 2419 1625 
L 2419 4116 
z
M 2253 4666 
L 3047 4666 
L 3047 1625 
L 3713 1625 
L 3713 1100 
L 3047 1100 
L 3047 0 
L 2419 0 
L 2419 1100 
L 313 1100 
L 313 1709 
L 2253 4666 
z
" transform="scale(0.015625)"/>
       </defs>
       <use xlink:href="#DejaVuSans-34"/>
       <use xlink:href="#DejaVuSans-30" transform="translate(63.623047 0)"/>
      </g>
     </g>
    </g>
    <g id="xtick_6">
     <g id="line2d_6">
      <g>
       <use xlink:href="#m54f1a7452a" x="432.340455" y="320.4" style="stroke: #000000; stroke-width: 0.8"/>
      </g>
     </g>
     <g id="text_6">
      <!-- 50 -->
      <g transform="translate(422.796705 338.797656) scale(0.15 -0.15)">
       <defs>
        <path id="DejaVuSans-35" d="M 691 4666 
L 3169 4666 
L 3169 4134 
L 1269 4134 
L 1269 2991 
Q 1406 3038 1543 3061 
Q 1681 3084 1819 3084 
Q 2600 3084 3056 2656 
Q 3513 2228 3513 1497 
Q 3513 744 3044 326 
Q 2575 -91 1722 -91 
Q 1428 -91 1123 -41 
Q 819 9 494 109 
L 494 744 
Q 775 591 1075 516 
Q 1375 441 1709 441 
Q 2250 441 2565 725 
Q 2881 1009 2881 1497 
Q 2881 1984 2565 2268 
Q 2250 2553 1709 2553 
Q 1456 2553 1204 2497 
Q 953 2441 691 2322 
L 691 4666 
z
" transform="scale(0.015625)"/>
       </defs>
       <use xlink:href="#DejaVuSans-35"/>
       <use xlink:href="#DejaVuSans-30" transform="translate(63.623047 0)"/>
      </g>
     </g>
    </g>
    <g id="text_7">
     <!-- time [hr] -->
     <g transform="translate(209.720469 359.594375) scale(0.18 -0.18)">
      <defs>
       <path id="DejaVuSans-Bold-74" d="M 1759 4494 
L 1759 3500 
L 2913 3500 
L 2913 2700 
L 1759 2700 
L 1759 1216 
Q 1759 972 1856 886 
Q 1953 800 2241 800 
L 2816 800 
L 2816 0 
L 1856 0 
Q 1194 0 917 276 
Q 641 553 641 1216 
L 641 2700 
L 84 2700 
L 84 3500 
L 641 3500 
L 641 4494 
L 1759 4494 
z
" transform="scale(0.015625)"/>
       <path id="DejaVuSans-Bold-69" d="M 538 3500 
L 1656 3500 
L 1656 0 
L 538 0 
L 538 3500 
z
M 538 4863 
L 1656 4863 
L 1656 3950 
L 538 3950 
L 538 4863 
z
" transform="scale(0.015625)"/>
       <path id="DejaVuSans-Bold-6d" d="M 3781 2919 
Q 3994 3244 4286 3414 
Q 4578 3584 4928 3584 
Q 5531 3584 5847 3212 
Q 6163 2841 6163 2131 
L 6163 0 
L 5038 0 
L 5038 1825 
Q 5041 1866 5042 1909 
Q 5044 1953 5044 2034 
Q 5044 2406 4934 2573 
Q 4825 2741 4581 2741 
Q 4263 2741 4089 2478 
Q 3916 2216 3909 1719 
L 3909 0 
L 2784 0 
L 2784 1825 
Q 2784 2406 2684 2573 
Q 2584 2741 2328 2741 
Q 2006 2741 1831 2477 
Q 1656 2213 1656 1722 
L 1656 0 
L 531 0 
L 531 3500 
L 1656 3500 
L 1656 2988 
Q 1863 3284 2130 3434 
Q 2397 3584 2719 3584 
Q 3081 3584 3359 3409 
Q 3638 3234 3781 2919 
z
" transform="scale(0.015625)"/>
       <path id="DejaVuSans-Bold-65" d="M 4031 1759 
L 4031 1441 
L 1416 1441 
Q 1456 1047 1700 850 
Q 1944 653 2381 653 
Q 2734 653 3104 758 
Q 3475 863 3866 1075 
L 3866 213 
Q 3469 63 3072 -14 
Q 2675 -91 2278 -91 
Q 1328 -91 801 392 
Q 275 875 275 1747 
Q 275 2603 792 3093 
Q 1309 3584 2216 3584 
Q 3041 3584 3536 3087 
Q 4031 2591 4031 1759 
z
M 2881 2131 
Q 2881 2450 2695 2645 
Q 2509 2841 2209 2841 
Q 1884 2841 1681 2658 
Q 1478 2475 1428 2131 
L 2881 2131 
z
" transform="scale(0.015625)"/>
       <path id="DejaVuSans-Bold-20" transform="scale(0.015625)"/>
       <path id="DejaVuSans-Bold-5b" d="M 550 4863 
L 2491 4863 
L 2491 4159 
L 1613 4159 
L 1613 -141 
L 2491 -141 
L 2491 -844 
L 550 -844 
L 550 4863 
z
" transform="scale(0.015625)"/>
       <path id="DejaVuSans-Bold-68" d="M 4056 2131 
L 4056 0 
L 2931 0 
L 2931 347 
L 2931 1625 
Q 2931 2084 2911 2256 
Q 2891 2428 2841 2509 
Q 2775 2619 2662 2680 
Q 2550 2741 2406 2741 
Q 2056 2741 1856 2470 
Q 1656 2200 1656 1722 
L 1656 0 
L 538 0 
L 538 4863 
L 1656 4863 
L 1656 2988 
Q 1909 3294 2193 3439 
Q 2478 3584 2822 3584 
Q 3428 3584 3742 3212 
Q 4056 2841 4056 2131 
z
" transform="scale(0.015625)"/>
       <path id="DejaVuSans-Bold-72" d="M 3138 2547 
Q 2991 2616 2845 2648 
Q 2700 2681 2553 2681 
Q 2122 2681 1889 2404 
Q 1656 2128 1656 1613 
L 1656 0 
L 538 0 
L 538 3500 
L 1656 3500 
L 1656 2925 
Q 1872 3269 2151 3426 
Q 2431 3584 2822 3584 
Q 2878 3584 2943 3579 
Q 3009 3575 3134 3559 
L 3138 2547 
z
" transform="scale(0.015625)"/>
       <path id="DejaVuSans-Bold-5d" d="M 2375 -844 
L 434 -844 
L 434 -141 
L 1313 -141 
L 1313 4159 
L 434 4159 
L 434 4863 
L 2375 4863 
L 2375 -844 
z
" transform="scale(0.015625)"/>
      </defs>
      <use xlink:href="#DejaVuSans-Bold-74"/>
      <use xlink:href="#DejaVuSans-Bold-69" transform="translate(47.802734 0)"/>
      <use xlink:href="#DejaVuSans-Bold-6d" transform="translate(82.080078 0)"/>
      <use xlink:href="#DejaVuSans-Bold-65" transform="translate(186.279297 0)"/>
      <use xlink:href="#DejaVuSans-Bold-20" transform="translate(254.101562 0)"/>
      <use xlink:href="#DejaVuSans-Bold-5b" transform="translate(288.916016 0)"/>
      <use xlink:href="#DejaVuSans-Bold-68" transform="translate(334.619141 0)"/>
      <use xlink:href="#DejaVuSans-Bold-72" transform="translate(405.810547 0)"/>
      <use xlink:href="#DejaVuSans-Bold-5d" transform="translate(455.126953 0)"/>
     </g>
    </g>
   </g>
   <g id="matplotlib.axis_2">
    <g id="ytick_1">
     <g id="line2d_7">
      <defs>
       <path id="m9f893bfa37" d="M 0 0 
L -3.5 0 
" style="stroke: #000000; stroke-width: 0.8"/>
      </defs>
      <g>
       <use xlink:href="#m9f893bfa37" x="59.495" y="307.793703" style="stroke: #000000; stroke-width: 0.8"/>
      </g>
     </g>
     <g id="text_8">
      <!-- 0.0 -->
      <g transform="translate(28.640313 313.492531) scale(0.15 -0.15)">
       <defs>
        <path id="DejaVuSans-2e" d="M 684 794 
L 1344 794 
L 1344 0 
L 684 0 
L 684 794 
z
" transform="scale(0.015625)"/>
       </defs>
       <use xlink:href="#DejaVuSans-30"/>
       <use xlink:href="#DejaVuSans-2e" transform="translate(63.623047 0)"/>
       <use xlink:href="#DejaVuSans-30" transform="translate(95.410156 0)"/>
      </g>
     </g>
    </g>
    <g id="ytick_2">
     <g id="line2d_8">
      <g>
       <use xlink:href="#m9f893bfa37" x="59.495" y="273.354513" style="stroke: #000000; stroke-width: 0.8"/>
      </g>
     </g>
     <g id="text_9">
      <!-- 0.1 -->
      <g transform="translate(28.640313 279.053341) scale(0.15 -0.15)">
       <use xlink:href="#DejaVuSans-30"/>
       <use xlink:href="#DejaVuSans-2e" transform="translate(63.623047 0)"/>
       <use xlink:href="#DejaVuSans-31" transform="translate(95.410156 0)"/>
      </g>
     </g>
    </g>
    <g id="ytick_3">
     <g id="line2d_9">
      <g>
       <use xlink:href="#m9f893bfa37" x="59.495" y="238.915324" style="stroke: #000000; stroke-width: 0.8"/>
      </g>
     </g>
     <g id="text_10">
      <!-- 0.2 -->
      <g transform="translate(28.640313 244.614152) scale(0.15 -0.15)">
       <use xlink:href="#DejaVuSans-30"/>
       <use xlink:href="#DejaVuSans-2e" transform="translate(63.623047 0)"/>
       <use xlink:href="#DejaVuSans-32" transform="translate(95.410156 0)"/>
      </g>
     </g>
    </g>
    <g id="ytick_4">
     <g id="line2d_10">
      <g>
       <use xlink:href="#m9f893bfa37" x="59.495" y="204.476134" style="stroke: #000000; stroke-width: 0.8"/>
      </g>
     </g>
     <g id="text_11">
      <!-- 0.3 -->
      <g transform="translate(28.640313 210.174962) scale(0.15 -0.15)">
       <use xlink:href="#DejaVuSans-30"/>
       <use xlink:href="#DejaVuSans-2e" transform="translate(63.623047 0)"/>
       <use xlink:href="#DejaVuSans-33" transform="translate(95.410156 0)"/>
      </g>
     </g>
    </g>
    <g id="ytick_5">
     <g id="line2d_11">
      <g>
       <use xlink:href="#m9f893bfa37" x="59.495" y="170.036944" style="stroke: #000000; stroke-width: 0.8"/>
      </g>
     </g>
     <g id="text_12">
      <!-- 0.4 -->
      <g transform="translate(28.640313 175.735772) scale(0.15 -0.15)">
       <use xlink:href="#DejaVuSans-30"/>
       <use xlink:href="#DejaVuSans-2e" transform="translate(63.623047 0)"/>
       <use xlink:href="#DejaVuSans-34" transform="translate(95.410156 0)"/>
      </g>
     </g>
    </g>
    <g id="ytick_6">
     <g id="line2d_12">
      <g>
       <use xlink:href="#m9f893bfa37" x="59.495" y="135.597755" style="stroke: #000000; stroke-width: 0.8"/>
      </g>
     </g>
     <g id="text_13">
      <!-- 0.5 -->
      <g transform="translate(28.640313 141.296583) scale(0.15 -0.15)">
       <use xlink:href="#DejaVuSans-30"/>
       <use xlink:href="#DejaVuSans-2e" transform="translate(63.623047 0)"/>
       <use xlink:href="#DejaVuSans-35" transform="translate(95.410156 0)"/>
      </g>
     </g>
    </g>
    <g id="ytick_7">
     <g id="line2d_13">
      <g>
       <use xlink:href="#m9f893bfa37" x="59.495" y="101.158565" style="stroke: #000000; stroke-width: 0.8"/>
      </g>
     </g>
     <g id="text_14">
      <!-- 0.6 -->
      <g transform="translate(28.640313 106.857393) scale(0.15 -0.15)">
       <defs>
        <path id="DejaVuSans-36" d="M 2113 2584 
Q 1688 2584 1439 2293 
Q 1191 2003 1191 1497 
Q 1191 994 1439 701 
Q 1688 409 2113 409 
Q 2538 409 2786 701 
Q 3034 994 3034 1497 
Q 3034 2003 2786 2293 
Q 2538 2584 2113 2584 
z
M 3366 4563 
L 3366 3988 
Q 3128 4100 2886 4159 
Q 2644 4219 2406 4219 
Q 1781 4219 1451 3797 
Q 1122 3375 1075 2522 
Q 1259 2794 1537 2939 
Q 1816 3084 2150 3084 
Q 2853 3084 3261 2657 
Q 3669 2231 3669 1497 
Q 3669 778 3244 343 
Q 2819 -91 2113 -91 
Q 1303 -91 875 529 
Q 447 1150 447 2328 
Q 447 3434 972 4092 
Q 1497 4750 2381 4750 
Q 2619 4750 2861 4703 
Q 3103 4656 3366 4563 
z
" transform="scale(0.015625)"/>
       </defs>
       <use xlink:href="#DejaVuSans-30"/>
       <use xlink:href="#DejaVuSans-2e" transform="translate(63.623047 0)"/>
       <use xlink:href="#DejaVuSans-36" transform="translate(95.410156 0)"/>
      </g>
     </g>
    </g>
    <g id="ytick_8">
     <g id="line2d_14">
      <g>
       <use xlink:href="#m9f893bfa37" x="59.495" y="66.719375" style="stroke: #000000; stroke-width: 0.8"/>
      </g>
     </g>
     <g id="text_15">
      <!-- 0.7 -->
      <g transform="translate(28.640313 72.418203) scale(0.15 -0.15)">
       <defs>
        <path id="DejaVuSans-37" d="M 525 4666 
L 3525 4666 
L 3525 4397 
L 1831 0 
L 1172 0 
L 2766 4134 
L 525 4134 
L 525 4666 
z
" transform="scale(0.015625)"/>
       </defs>
       <use xlink:href="#DejaVuSans-30"/>
       <use xlink:href="#DejaVuSans-2e" transform="translate(63.623047 0)"/>
       <use xlink:href="#DejaVuSans-37" transform="translate(95.410156 0)"/>
      </g>
     </g>
    </g>
    <g id="text_16">
     <!-- rivaroxaban plasma [µM] -->
     <g transform="translate(20.877187 309.166875) rotate(-90) scale(0.18 -0.18)">
      <defs>
       <path id="DejaVuSans-Bold-76" d="M 97 3500 
L 1216 3500 
L 2088 1081 
L 2956 3500 
L 4078 3500 
L 2700 0 
L 1472 0 
L 97 3500 
z
" transform="scale(0.015625)"/>
       <path id="DejaVuSans-Bold-61" d="M 2106 1575 
Q 1756 1575 1579 1456 
Q 1403 1338 1403 1106 
Q 1403 894 1545 773 
Q 1688 653 1941 653 
Q 2256 653 2472 879 
Q 2688 1106 2688 1447 
L 2688 1575 
L 2106 1575 
z
M 3816 1997 
L 3816 0 
L 2688 0 
L 2688 519 
Q 2463 200 2181 54 
Q 1900 -91 1497 -91 
Q 953 -91 614 226 
Q 275 544 275 1050 
Q 275 1666 698 1953 
Q 1122 2241 2028 2241 
L 2688 2241 
L 2688 2328 
Q 2688 2594 2478 2717 
Q 2269 2841 1825 2841 
Q 1466 2841 1156 2769 
Q 847 2697 581 2553 
L 581 3406 
Q 941 3494 1303 3539 
Q 1666 3584 2028 3584 
Q 2975 3584 3395 3211 
Q 3816 2838 3816 1997 
z
" transform="scale(0.015625)"/>
       <path id="DejaVuSans-Bold-6f" d="M 2203 2784 
Q 1831 2784 1636 2517 
Q 1441 2250 1441 1747 
Q 1441 1244 1636 976 
Q 1831 709 2203 709 
Q 2569 709 2762 976 
Q 2956 1244 2956 1747 
Q 2956 2250 2762 2517 
Q 2569 2784 2203 2784 
z
M 2203 3584 
Q 3106 3584 3614 3096 
Q 4122 2609 4122 1747 
Q 4122 884 3614 396 
Q 3106 -91 2203 -91 
Q 1297 -91 786 396 
Q 275 884 275 1747 
Q 275 2609 786 3096 
Q 1297 3584 2203 3584 
z
" transform="scale(0.015625)"/>
       <path id="DejaVuSans-Bold-78" d="M 1422 1791 
L 159 3500 
L 1344 3500 
L 2059 2463 
L 2784 3500 
L 3969 3500 
L 2706 1797 
L 4031 0 
L 2847 0 
L 2059 1106 
L 1281 0 
L 97 0 
L 1422 1791 
z
" transform="scale(0.015625)"/>
       <path id="DejaVuSans-Bold-62" d="M 2400 722 
Q 2759 722 2948 984 
Q 3138 1247 3138 1747 
Q 3138 2247 2948 2509 
Q 2759 2772 2400 2772 
Q 2041 2772 1848 2508 
Q 1656 2244 1656 1747 
Q 1656 1250 1848 986 
Q 2041 722 2400 722 
z
M 1656 2988 
Q 1888 3294 2169 3439 
Q 2450 3584 2816 3584 
Q 3463 3584 3878 3070 
Q 4294 2556 4294 1747 
Q 4294 938 3878 423 
Q 3463 -91 2816 -91 
Q 2450 -91 2169 54 
Q 1888 200 1656 506 
L 1656 0 
L 538 0 
L 538 4863 
L 1656 4863 
L 1656 2988 
z
" transform="scale(0.015625)"/>
       <path id="DejaVuSans-Bold-6e" d="M 4056 2131 
L 4056 0 
L 2931 0 
L 2931 347 
L 2931 1631 
Q 2931 2084 2911 2256 
Q 2891 2428 2841 2509 
Q 2775 2619 2662 2680 
Q 2550 2741 2406 2741 
Q 2056 2741 1856 2470 
Q 1656 2200 1656 1722 
L 1656 0 
L 538 0 
L 538 3500 
L 1656 3500 
L 1656 2988 
Q 1909 3294 2193 3439 
Q 2478 3584 2822 3584 
Q 3428 3584 3742 3212 
Q 4056 2841 4056 2131 
z
" transform="scale(0.015625)"/>
       <path id="DejaVuSans-Bold-70" d="M 1656 506 
L 1656 -1331 
L 538 -1331 
L 538 3500 
L 1656 3500 
L 1656 2988 
Q 1888 3294 2169 3439 
Q 2450 3584 2816 3584 
Q 3463 3584 3878 3070 
Q 4294 2556 4294 1747 
Q 4294 938 3878 423 
Q 3463 -91 2816 -91 
Q 2450 -91 2169 54 
Q 1888 200 1656 506 
z
M 2400 2772 
Q 2041 2772 1848 2508 
Q 1656 2244 1656 1747 
Q 1656 1250 1848 986 
Q 2041 722 2400 722 
Q 2759 722 2948 984 
Q 3138 1247 3138 1747 
Q 3138 2247 2948 2509 
Q 2759 2772 2400 2772 
z
" transform="scale(0.015625)"/>
       <path id="DejaVuSans-Bold-6c" d="M 538 4863 
L 1656 4863 
L 1656 0 
L 538 0 
L 538 4863 
z
" transform="scale(0.015625)"/>
       <path id="DejaVuSans-Bold-73" d="M 3272 3391 
L 3272 2541 
Q 2913 2691 2578 2766 
Q 2244 2841 1947 2841 
Q 1628 2841 1473 2761 
Q 1319 2681 1319 2516 
Q 1319 2381 1436 2309 
Q 1553 2238 1856 2203 
L 2053 2175 
Q 2913 2066 3209 1816 
Q 3506 1566 3506 1031 
Q 3506 472 3093 190 
Q 2681 -91 1863 -91 
Q 1516 -91 1145 -36 
Q 775 19 384 128 
L 384 978 
Q 719 816 1070 734 
Q 1422 653 1784 653 
Q 2113 653 2278 743 
Q 2444 834 2444 1013 
Q 2444 1163 2330 1236 
Q 2216 1309 1875 1350 
L 1678 1375 
Q 931 1469 631 1722 
Q 331 1975 331 2491 
Q 331 3047 712 3315 
Q 1094 3584 1881 3584 
Q 2191 3584 2531 3537 
Q 2872 3491 3272 3391 
z
" transform="scale(0.015625)"/>
       <path id="DejaVuSans-Bold-b5" d="M 544 -1338 
L 544 3500 
L 1672 3500 
L 1672 1466 
Q 1672 1103 1828 926 
Q 1984 750 2303 750 
Q 2625 750 2781 926 
Q 2938 1103 2938 1466 
L 2938 3500 
L 4063 3500 
L 4063 1159 
Q 4063 938 4114 850 
Q 4166 763 4288 763 
Q 4344 763 4395 778 
Q 4447 794 4506 831 
L 4506 50 
Q 4341 -22 4195 -56 
Q 4050 -91 3909 -91 
Q 3631 -91 3454 26 
Q 3278 144 3169 403 
Q 3022 156 2811 32 
Q 2600 -91 2322 -91 
Q 2091 -91 1928 -17 
Q 1766 56 1672 206 
L 1672 -1338 
L 544 -1338 
z
" transform="scale(0.015625)"/>
       <path id="DejaVuSans-Bold-4d" d="M 588 4666 
L 2119 4666 
L 3181 2169 
L 4250 4666 
L 5778 4666 
L 5778 0 
L 4641 0 
L 4641 3413 
L 3566 897 
L 2803 897 
L 1728 3413 
L 1728 0 
L 588 0 
L 588 4666 
z
" transform="scale(0.015625)"/>
      </defs>
      <use xlink:href="#DejaVuSans-Bold-72"/>
      <use xlink:href="#DejaVuSans-Bold-69" transform="translate(49.316406 0)"/>
      <use xlink:href="#DejaVuSans-Bold-76" transform="translate(83.59375 0)"/>
      <use xlink:href="#DejaVuSans-Bold-61" transform="translate(148.779297 0)"/>
      <use xlink:href="#DejaVuSans-Bold-72" transform="translate(216.259766 0)"/>
      <use xlink:href="#DejaVuSans-Bold-6f" transform="translate(265.576172 0)"/>
      <use xlink:href="#DejaVuSans-Bold-78" transform="translate(334.277344 0)"/>
      <use xlink:href="#DejaVuSans-Bold-61" transform="translate(398.779297 0)"/>
      <use xlink:href="#DejaVuSans-Bold-62" transform="translate(466.259766 0)"/>
      <use xlink:href="#DejaVuSans-Bold-61" transform="translate(537.841797 0)"/>
      <use xlink:href="#DejaVuSans-Bold-6e" transform="translate(605.322266 0)"/>
      <use xlink:href="#DejaVuSans-Bold-20" transform="translate(676.513672 0)"/>
      <use xlink:href="#DejaVuSans-Bold-70" transform="translate(711.328125 0)"/>
      <use xlink:href="#DejaVuSans-Bold-6c" transform="translate(782.910156 0)"/>
      <use xlink:href="#DejaVuSans-Bold-61" transform="translate(817.1875 0)"/>
      <use xlink:href="#DejaVuSans-Bold-73" transform="translate(884.667969 0)"/>
      <use xlink:href="#DejaVuSans-Bold-6d" transform="translate(944.189453 0)"/>
      <use xlink:href="#DejaVuSans-Bold-61" transform="translate(1048.388672 0)"/>
      <use xlink:href="#DejaVuSans-Bold-20" transform="translate(1115.869141 0)"/>
      <use xlink:href="#DejaVuSans-Bold-5b" transform="translate(1150.683594 0)"/>
      <use xlink:href="#DejaVuSans-Bold-b5" transform="translate(1196.386719 0)"/>
      <use xlink:href="#DejaVuSans-Bold-4d" transform="translate(1269.970703 0)"/>
      <use xlink:href="#DejaVuSans-Bold-5d" transform="translate(1369.482422 0)"/>
     </g>
    </g>
   </g>
   <g id="LineCollection_1">
    <path d="M 79.025 307.584462 
L 79.025 306.475725 
" clip-path="url(#p559f317b80)" style="fill: none; stroke: #1f77b4"/>
    <path d="M 80.800455 304.096924 
L 80.800455 292.427209 
" clip-path="url(#p559f317b80)" style="fill: none; stroke: #1f77b4"/>
    <path d="M 82.575909 292.053417 
L 82.575909 270.4893 
" clip-path="url(#p559f317b80)" style="fill: none; stroke: #1f77b4"/>
    <path d="M 84.351364 274.16192 
L 84.351364 243.406869 
" clip-path="url(#p559f317b80)" style="fill: none; stroke: #1f77b4"/>
    <path d="M 87.902273 250.252936 
L 87.902273 171.422389 
" clip-path="url(#p559f317b80)" style="fill: none; stroke: #1f77b4"/>
    <path d="M 91.453182 237.183977 
L 91.453182 140.44902 
" clip-path="url(#p559f317b80)" style="fill: none; stroke: #1f77b4"/>
    <path d="M 95.004091 221.146723 
L 95.004091 102.440822 
" clip-path="url(#p559f317b80)" style="fill: none; stroke: #1f77b4"/>
    <path d="M 98.555 200.529812 
L 98.555 102.440822 
" clip-path="url(#p559f317b80)" style="fill: none; stroke: #1f77b4"/>
    <path d="M 102.105909 208.479195 
L 102.105909 72.418853 
" clip-path="url(#p559f317b80)" style="fill: none; stroke: #1f77b4"/>
    <path d="M 105.656818 225.098048 
L 105.656818 55.8 
" clip-path="url(#p559f317b80)" style="fill: none; stroke: #1f77b4"/>
    <path d="M 119.860455 226.861042 
L 119.860455 115.98374 
" clip-path="url(#p559f317b80)" style="fill: none; stroke: #1f77b4"/>
    <path d="M 134.064091 274.455773 
L 134.064091 228.78299 
" clip-path="url(#p559f317b80)" style="fill: none; stroke: #1f77b4"/>
    <path d="M 162.471364 293.091474 
L 162.471364 272.949512 
" clip-path="url(#p559f317b80)" style="fill: none; stroke: #1f77b4"/>
    <path d="M 247.693182 301.309931 
L 247.693182 292.427209 
" clip-path="url(#p559f317b80)" style="fill: none; stroke: #1f77b4"/>
    <path d="M 418.136818 306.137035 
L 418.136818 303.867416 
" clip-path="url(#p559f317b80)" style="fill: none; stroke: #1f77b4"/>
   </g>
   <g id="LineCollection_2">
    <path d="M 79.025 307.8 
L 79.025 307.680662 
" clip-path="url(#p559f317b80)" style="fill: none; stroke: #000000"/>
    <path d="M 80.800455 303.083511 
L 80.800455 293.440617 
" clip-path="url(#p559f317b80)" style="fill: none; stroke: #000000"/>
    <path d="M 82.575909 286.932354 
L 82.575909 267.855391 
" clip-path="url(#p559f317b80)" style="fill: none; stroke: #000000"/>
    <path d="M 84.351364 274.161916 
L 84.351364 243.406869 
" clip-path="url(#p559f317b80)" style="fill: none; stroke: #000000"/>
    <path d="M 87.902273 245.647226 
L 87.902273 188.816495 
" clip-path="url(#p559f317b80)" style="fill: none; stroke: #000000"/>
    <path d="M 91.453182 226.147674 
L 91.453182 151.485316 
" clip-path="url(#p559f317b80)" style="fill: none; stroke: #000000"/>
    <path d="M 95.004091 226.861038 
L 95.004091 115.98374 
" clip-path="url(#p559f317b80)" style="fill: none; stroke: #000000"/>
    <path d="M 98.555 207.603805 
L 98.555 115.98374 
" clip-path="url(#p559f317b80)" style="fill: none; stroke: #000000"/>
    <path d="M 102.105909 178.457219 
L 102.105909 102.440822 
" clip-path="url(#p559f317b80)" style="fill: none; stroke: #000000"/>
    <path d="M 105.656818 178.457219 
L 105.656818 102.440822 
" clip-path="url(#p559f317b80)" style="fill: none; stroke: #000000"/>
    <path d="M 119.860455 186.986891 
L 119.860455 115.98374 
" clip-path="url(#p559f317b80)" style="fill: none; stroke: #000000"/>
    <path d="M 134.064091 261.312577 
L 134.064091 233.993707 
" clip-path="url(#p559f317b80)" style="fill: none; stroke: #000000"/>
    <path d="M 162.471364 285.148837 
L 162.471364 277.393873 
" clip-path="url(#p559f317b80)" style="fill: none; stroke: #000000"/>
    <path d="M 247.693182 298.115491 
L 247.693182 292.427209 
" clip-path="url(#p559f317b80)" style="fill: none; stroke: #000000"/>
    <path d="M 418.136818 304.610069 
L 418.136818 304.126349 
" clip-path="url(#p559f317b80)" style="fill: none; stroke: #000000"/>
   </g>
   <g id="line2d_15">
    <path d="M 77.249545 307.793703 
L 77.959727 302.978988 
L 78.669909 289.228206 
L 80.090273 248.7176 
L 82.220818 183.836286 
L 83.641182 147.381793 
L 85.061545 118.389253 
L 86.481909 96.569161 
L 87.192091 88.070311 
L 87.902273 80.999699 
L 88.612455 75.220241 
L 89.322636 70.599016 
L 90.032818 67.010209 
L 90.743 64.336768 
L 91.453182 62.471168 
L 92.163364 61.315594 
L 92.873545 60.781727 
L 93.583727 60.790301 
L 94.293909 61.270511 
L 95.004091 62.159357 
L 95.714273 63.400964 
L 97.134636 66.750565 
L 98.555 70.989967 
L 100.685545 78.476539 
L 103.526273 89.653208 
L 114.179 132.785384 
L 117.729909 145.92193 
L 121.280818 158.18948 
L 124.831727 169.587787 
L 128.382636 180.148908 
L 131.933545 189.91915 
L 135.484455 198.94991 
L 139.035364 207.293116 
L 142.586273 214.999026 
L 146.137182 222.11524 
L 149.688091 228.686326 
L 153.239 234.753754 
L 156.789909 240.355979 
L 160.340818 245.528591 
L 163.891727 250.304496 
L 167.442636 254.714099 
L 170.993545 258.785482 
L 174.544455 262.544583 
L 178.095364 266.01535 
L 181.646273 269.219899 
L 185.907364 272.742588 
L 190.168455 275.943574 
L 194.429545 278.852235 
L 198.690636 281.495267 
L 202.951727 283.896929 
L 207.923 286.423096 
L 212.894273 288.682218 
L 217.865545 290.702524 
L 223.547 292.751279 
L 229.228455 294.554445 
L 235.620091 296.325967 
L 242.011727 297.860445 
L 249.113545 299.325837 
L 256.925545 300.689351 
L 265.447727 301.927688 
L 274.680091 303.026868 
L 284.622636 303.981419 
L 295.985545 304.840611 
L 308.768818 305.578033 
L 323.682636 306.209037 
L 341.437182 306.730433 
L 363.452818 307.145429 
L 392.570273 307.45676 
L 432.340455 307.655863 
L 432.340455 307.655863 
" clip-path="url(#p559f317b80)" style="fill: none; stroke: #1f77b4; stroke-width: 2; stroke-linecap: square"/>
   </g>
   <g id="line2d_16">
    <path d="M 79.025 307.030094 
L 80.800455 298.262067 
L 82.575909 281.271359 
L 84.351364 258.784394 
L 87.902273 210.837663 
L 91.453182 188.816499 
L 95.004091 161.793773 
L 98.555 151.485317 
L 102.105909 140.449024 
L 105.656818 140.449024 
L 119.860455 171.422391 
L 134.064091 251.619382 
L 162.471364 283.020493 
L 247.693182 296.86857 
L 418.136818 305.002225 
" clip-path="url(#p559f317b80)" style="fill: none; stroke-dasharray: 3.7,1.6; stroke-dashoffset: 0; stroke: #1f77b4"/>
    <defs>
     <path id="mdf5ea317e8" d="M -3 3 
L 3 3 
L 3 -3 
L -3 -3 
z
" style="stroke: #000000; stroke-linejoin: miter"/>
    </defs>
    <g clip-path="url(#p559f317b80)">
     <use xlink:href="#mdf5ea317e8" x="79.025" y="307.030094" style="fill: #1f77b4; stroke: #000000; stroke-linejoin: miter"/>
     <use xlink:href="#mdf5ea317e8" x="80.800455" y="298.262067" style="fill: #1f77b4; stroke: #000000; stroke-linejoin: miter"/>
     <use xlink:href="#mdf5ea317e8" x="82.575909" y="281.271359" style="fill: #1f77b4; stroke: #000000; stroke-linejoin: miter"/>
     <use xlink:href="#mdf5ea317e8" x="84.351364" y="258.784394" style="fill: #1f77b4; stroke: #000000; stroke-linejoin: miter"/>
     <use xlink:href="#mdf5ea317e8" x="87.902273" y="210.837663" style="fill: #1f77b4; stroke: #000000; stroke-linejoin: miter"/>
     <use xlink:href="#mdf5ea317e8" x="91.453182" y="188.816499" style="fill: #1f77b4; stroke: #000000; stroke-linejoin: miter"/>
     <use xlink:href="#mdf5ea317e8" x="95.004091" y="161.793773" style="fill: #1f77b4; stroke: #000000; stroke-linejoin: miter"/>
     <use xlink:href="#mdf5ea317e8" x="98.555" y="151.485317" style="fill: #1f77b4; stroke: #000000; stroke-linejoin: miter"/>
     <use xlink:href="#mdf5ea317e8" x="102.105909" y="140.449024" style="fill: #1f77b4; stroke: #000000; stroke-linejoin: miter"/>
     <use xlink:href="#mdf5ea317e8" x="105.656818" y="140.449024" style="fill: #1f77b4; stroke: #000000; stroke-linejoin: miter"/>
     <use xlink:href="#mdf5ea317e8" x="119.860455" y="171.422391" style="fill: #1f77b4; stroke: #000000; stroke-linejoin: miter"/>
     <use xlink:href="#mdf5ea317e8" x="134.064091" y="251.619382" style="fill: #1f77b4; stroke: #000000; stroke-linejoin: miter"/>
     <use xlink:href="#mdf5ea317e8" x="162.471364" y="283.020493" style="fill: #1f77b4; stroke: #000000; stroke-linejoin: miter"/>
     <use xlink:href="#mdf5ea317e8" x="247.693182" y="296.86857" style="fill: #1f77b4; stroke: #000000; stroke-linejoin: miter"/>
     <use xlink:href="#mdf5ea317e8" x="418.136818" y="305.002225" style="fill: #1f77b4; stroke: #000000; stroke-linejoin: miter"/>
    </g>
   </g>
   <g id="line2d_17">
    <path d="M 77.249545 307.793703 
L 77.959727 302.978988 
L 78.669909 289.228206 
L 80.090273 248.7176 
L 82.220818 183.836286 
L 83.641182 147.381793 
L 85.061545 118.389253 
L 86.481909 96.569161 
L 87.192091 88.070311 
L 87.902273 80.999699 
L 88.612455 75.220241 
L 89.322636 70.599016 
L 90.032818 67.010209 
L 90.743 64.336768 
L 91.453182 62.471168 
L 92.163364 61.315594 
L 92.873545 60.781727 
L 93.583727 60.790301 
L 94.293909 61.270511 
L 95.004091 62.159357 
L 95.714273 63.400964 
L 97.134636 66.750565 
L 98.555 70.989967 
L 100.685545 78.476539 
L 103.526273 89.653208 
L 114.179 132.785384 
L 117.729909 145.92193 
L 121.280818 158.18948 
L 124.831727 169.587787 
L 128.382636 180.148908 
L 131.933545 189.91915 
L 135.484455 198.94991 
L 139.035364 207.293116 
L 142.586273 214.999026 
L 146.137182 222.11524 
L 149.688091 228.686326 
L 153.239 234.753754 
L 156.789909 240.355979 
L 160.340818 245.528591 
L 163.891727 250.304496 
L 167.442636 254.714099 
L 170.993545 258.785482 
L 174.544455 262.544583 
L 178.095364 266.01535 
L 181.646273 269.219899 
L 185.907364 272.742588 
L 190.168455 275.943574 
L 194.429545 278.852235 
L 198.690636 281.495267 
L 202.951727 283.896929 
L 207.923 286.423096 
L 212.894273 288.682218 
L 217.865545 290.702524 
L 223.547 292.751279 
L 229.228455 294.554445 
L 235.620091 296.325967 
L 242.011727 297.860445 
L 249.113545 299.325837 
L 256.925545 300.689351 
L 265.447727 301.927688 
L 274.680091 303.026868 
L 284.622636 303.981419 
L 295.985545 304.840611 
L 308.768818 305.578033 
L 323.682636 306.209037 
L 341.437182 306.730433 
L 363.452818 307.145429 
L 392.570273 307.45676 
L 432.340455 307.655863 
L 432.340455 307.655863 
" clip-path="url(#p559f317b80)" style="fill: none; stroke: #000000; stroke-width: 2; stroke-linecap: square"/>
   </g>
   <g id="line2d_18">
    <path d="M 79.025 307.740331 
L 80.800455 298.262064 
L 82.575909 277.393873 
L 84.351364 258.784393 
L 87.902273 217.23186 
L 91.453182 188.816495 
L 95.004091 171.422389 
L 98.555 161.793772 
L 102.105909 140.44902 
L 105.656818 140.44902 
L 119.860455 151.485316 
L 134.064091 247.653142 
L 162.471364 281.271355 
L 247.693182 295.27135 
L 418.136818 304.368209 
" clip-path="url(#p559f317b80)" style="fill: none; stroke-dasharray: 3.7,1.6; stroke-dashoffset: 0; stroke: #000000"/>
    <defs>
     <path id="m7fda3370a0" d="M -3 3 
L 3 3 
L 3 -3 
L -3 -3 
z
" style="stroke: #000000; stroke-linejoin: miter"/>
    </defs>
    <g clip-path="url(#p559f317b80)">
     <use xlink:href="#m7fda3370a0" x="79.025" y="307.740331" style="stroke: #000000; stroke-linejoin: miter"/>
     <use xlink:href="#m7fda3370a0" x="80.800455" y="298.262064" style="stroke: #000000; stroke-linejoin: miter"/>
     <use xlink:href="#m7fda3370a0" x="82.575909" y="277.393873" style="stroke: #000000; stroke-linejoin: miter"/>
     <use xlink:href="#m7fda3370a0" x="84.351364" y="258.784393" style="stroke: #000000; stroke-linejoin: miter"/>
     <use xlink:href="#m7fda3370a0" x="87.902273" y="217.23186" style="stroke: #000000; stroke-linejoin: miter"/>
     <use xlink:href="#m7fda3370a0" x="91.453182" y="188.816495" style="stroke: #000000; stroke-linejoin: miter"/>
     <use xlink:href="#m7fda3370a0" x="95.004091" y="171.422389" style="stroke: #000000; stroke-linejoin: miter"/>
     <use xlink:href="#m7fda3370a0" x="98.555" y="161.793772" style="stroke: #000000; stroke-linejoin: miter"/>
     <use xlink:href="#m7fda3370a0" x="102.105909" y="140.44902" style="stroke: #000000; stroke-linejoin: miter"/>
     <use xlink:href="#m7fda3370a0" x="105.656818" y="140.44902" style="stroke: #000000; stroke-linejoin: miter"/>
     <use xlink:href="#m7fda3370a0" x="119.860455" y="151.485316" style="stroke: #000000; stroke-linejoin: miter"/>
     <use xlink:href="#m7fda3370a0" x="134.064091" y="247.653142" style="stroke: #000000; stroke-linejoin: miter"/>
     <use xlink:href="#m7fda3370a0" x="162.471364" y="281.271355" style="stroke: #000000; stroke-linejoin: miter"/>
     <use xlink:href="#m7fda3370a0" x="247.693182" y="295.27135" style="stroke: #000000; stroke-linejoin: miter"/>
     <use xlink:href="#m7fda3370a0" x="418.136818" y="304.368209" style="stroke: #000000; stroke-linejoin: miter"/>
    </g>
   </g>
   <g id="patch_3">
    <path d="M 59.495 320.4 
L 59.495 43.2 
" style="fill: none; stroke: #000000; stroke-width: 0.8; stroke-linejoin: miter; stroke-linecap: square"/>
   </g>
   <g id="patch_4">
    <path d="M 450.095 320.4 
L 450.095 43.2 
" style="fill: none; stroke: #000000; stroke-width: 0.8; stroke-linejoin: miter; stroke-linecap: square"/>
   </g>
   <g id="patch_5">
    <path d="M 59.495 320.4 
L 450.095 320.4 
" style="fill: none; stroke: #000000; stroke-width: 0.8; stroke-linejoin: miter; stroke-linecap: square"/>
   </g>
   <g id="patch_6">
    <path d="M 59.495 43.2 
L 450.095 43.2 
" style="fill: none; stroke: #000000; stroke-width: 0.8; stroke-linejoin: miter; stroke-linecap: square"/>
   </g>
   <g id="legend_1">
    <g id="patch_7">
     <path d="M 264.72 109.9125 
L 443.095 109.9125 
Q 445.095 109.9125 445.095 107.9125 
L 445.095 50.2 
Q 445.095 48.2 443.095 48.2 
L 264.72 48.2 
Q 262.72 48.2 262.72 50.2 
L 262.72 107.9125 
Q 262.72 109.9125 264.72 109.9125 
z
" style="fill: #ffffff; opacity: 0.8; stroke: #cccccc; stroke-linejoin: miter"/>
    </g>
    <g id="line2d_19">
     <path d="M 266.72 56.298437 
L 286.72 56.298437 
" style="fill: none; stroke: #1f77b4; stroke-width: 2; stroke-linecap: square"/>
    </g>
    <g id="line2d_20"/>
    <g id="text_17">
     <!-- Test 20 mg -->
     <g transform="translate(294.72 59.798437) scale(0.1 -0.1)">
      <defs>
       <path id="DejaVuSans-54" d="M -19 4666 
L 3928 4666 
L 3928 4134 
L 2272 4134 
L 2272 0 
L 1638 0 
L 1638 4134 
L -19 4134 
L -19 4666 
z
" transform="scale(0.015625)"/>
       <path id="DejaVuSans-65" d="M 3597 1894 
L 3597 1613 
L 953 1613 
Q 991 1019 1311 708 
Q 1631 397 2203 397 
Q 2534 397 2845 478 
Q 3156 559 3463 722 
L 3463 178 
Q 3153 47 2828 -22 
Q 2503 -91 2169 -91 
Q 1331 -91 842 396 
Q 353 884 353 1716 
Q 353 2575 817 3079 
Q 1281 3584 2069 3584 
Q 2775 3584 3186 3129 
Q 3597 2675 3597 1894 
z
M 3022 2063 
Q 3016 2534 2758 2815 
Q 2500 3097 2075 3097 
Q 1594 3097 1305 2825 
Q 1016 2553 972 2059 
L 3022 2063 
z
" transform="scale(0.015625)"/>
       <path id="DejaVuSans-73" d="M 2834 3397 
L 2834 2853 
Q 2591 2978 2328 3040 
Q 2066 3103 1784 3103 
Q 1356 3103 1142 2972 
Q 928 2841 928 2578 
Q 928 2378 1081 2264 
Q 1234 2150 1697 2047 
L 1894 2003 
Q 2506 1872 2764 1633 
Q 3022 1394 3022 966 
Q 3022 478 2636 193 
Q 2250 -91 1575 -91 
Q 1294 -91 989 -36 
Q 684 19 347 128 
L 347 722 
Q 666 556 975 473 
Q 1284 391 1588 391 
Q 1994 391 2212 530 
Q 2431 669 2431 922 
Q 2431 1156 2273 1281 
Q 2116 1406 1581 1522 
L 1381 1569 
Q 847 1681 609 1914 
Q 372 2147 372 2553 
Q 372 3047 722 3315 
Q 1072 3584 1716 3584 
Q 2034 3584 2315 3537 
Q 2597 3491 2834 3397 
z
" transform="scale(0.015625)"/>
       <path id="DejaVuSans-74" d="M 1172 4494 
L 1172 3500 
L 2356 3500 
L 2356 3053 
L 1172 3053 
L 1172 1153 
Q 1172 725 1289 603 
Q 1406 481 1766 481 
L 2356 481 
L 2356 0 
L 1766 0 
Q 1100 0 847 248 
Q 594 497 594 1153 
L 594 3053 
L 172 3053 
L 172 3500 
L 594 3500 
L 594 4494 
L 1172 4494 
z
" transform="scale(0.015625)"/>
       <path id="DejaVuSans-20" transform="scale(0.015625)"/>
       <path id="DejaVuSans-6d" d="M 3328 2828 
Q 3544 3216 3844 3400 
Q 4144 3584 4550 3584 
Q 5097 3584 5394 3201 
Q 5691 2819 5691 2113 
L 5691 0 
L 5113 0 
L 5113 2094 
Q 5113 2597 4934 2840 
Q 4756 3084 4391 3084 
Q 3944 3084 3684 2787 
Q 3425 2491 3425 1978 
L 3425 0 
L 2847 0 
L 2847 2094 
Q 2847 2600 2669 2842 
Q 2491 3084 2119 3084 
Q 1678 3084 1418 2786 
Q 1159 2488 1159 1978 
L 1159 0 
L 581 0 
L 581 3500 
L 1159 3500 
L 1159 2956 
Q 1356 3278 1631 3431 
Q 1906 3584 2284 3584 
Q 2666 3584 2933 3390 
Q 3200 3197 3328 2828 
z
" transform="scale(0.015625)"/>
       <path id="DejaVuSans-67" d="M 2906 1791 
Q 2906 2416 2648 2759 
Q 2391 3103 1925 3103 
Q 1463 3103 1205 2759 
Q 947 2416 947 1791 
Q 947 1169 1205 825 
Q 1463 481 1925 481 
Q 2391 481 2648 825 
Q 2906 1169 2906 1791 
z
M 3481 434 
Q 3481 -459 3084 -895 
Q 2688 -1331 1869 -1331 
Q 1566 -1331 1297 -1286 
Q 1028 -1241 775 -1147 
L 775 -588 
Q 1028 -725 1275 -790 
Q 1522 -856 1778 -856 
Q 2344 -856 2625 -561 
Q 2906 -266 2906 331 
L 2906 616 
Q 2728 306 2450 153 
Q 2172 0 1784 0 
Q 1141 0 747 490 
Q 353 981 353 1791 
Q 353 2603 747 3093 
Q 1141 3584 1784 3584 
Q 2172 3584 2450 3431 
Q 2728 3278 2906 2969 
L 2906 3500 
L 3481 3500 
L 3481 434 
z
" transform="scale(0.015625)"/>
      </defs>
      <use xlink:href="#DejaVuSans-54"/>
      <use xlink:href="#DejaVuSans-65" transform="translate(44.083984 0)"/>
      <use xlink:href="#DejaVuSans-73" transform="translate(105.607422 0)"/>
      <use xlink:href="#DejaVuSans-74" transform="translate(157.707031 0)"/>
      <use xlink:href="#DejaVuSans-20" transform="translate(196.916016 0)"/>
      <use xlink:href="#DejaVuSans-32" transform="translate(228.703125 0)"/>
      <use xlink:href="#DejaVuSans-30" transform="translate(292.326172 0)"/>
      <use xlink:href="#DejaVuSans-20" transform="translate(355.949219 0)"/>
      <use xlink:href="#DejaVuSans-6d" transform="translate(387.736328 0)"/>
      <use xlink:href="#DejaVuSans-67" transform="translate(485.148438 0)"/>
     </g>
    </g>
    <g id="LineCollection_3">
     <path d="M 276.72 75.976562 
L 276.72 65.976562 
" style="fill: none; stroke: #1f77b4"/>
    </g>
    <g id="line2d_21">
     <path d="M 266.72 70.976562 
L 286.72 70.976562 
" style="fill: none; stroke-dasharray: 3.7,1.6; stroke-dashoffset: 0; stroke: #1f77b4"/>
    </g>
    <g id="line2d_22">
     <g>
      <use xlink:href="#mdf5ea317e8" x="276.72" y="70.976562" style="fill: #1f77b4; stroke: #000000; stroke-linejoin: miter"/>
     </g>
    </g>
    <g id="text_18">
     <!-- Test 20 mg±SD (n=32) -->
     <g transform="translate(294.72 74.476562) scale(0.1 -0.1)">
      <defs>
       <path id="DejaVuSans-b1" d="M 2944 4013 
L 2944 2803 
L 4684 2803 
L 4684 2272 
L 2944 2272 
L 2944 1063 
L 2419 1063 
L 2419 2272 
L 678 2272 
L 678 2803 
L 2419 2803 
L 2419 4013 
L 2944 4013 
z
M 678 531 
L 4684 531 
L 4684 0 
L 678 0 
L 678 531 
z
" transform="scale(0.015625)"/>
       <path id="DejaVuSans-53" d="M 3425 4513 
L 3425 3897 
Q 3066 4069 2747 4153 
Q 2428 4238 2131 4238 
Q 1616 4238 1336 4038 
Q 1056 3838 1056 3469 
Q 1056 3159 1242 3001 
Q 1428 2844 1947 2747 
L 2328 2669 
Q 3034 2534 3370 2195 
Q 3706 1856 3706 1288 
Q 3706 609 3251 259 
Q 2797 -91 1919 -91 
Q 1588 -91 1214 -16 
Q 841 59 441 206 
L 441 856 
Q 825 641 1194 531 
Q 1563 422 1919 422 
Q 2459 422 2753 634 
Q 3047 847 3047 1241 
Q 3047 1584 2836 1778 
Q 2625 1972 2144 2069 
L 1759 2144 
Q 1053 2284 737 2584 
Q 422 2884 422 3419 
Q 422 4038 858 4394 
Q 1294 4750 2059 4750 
Q 2388 4750 2728 4690 
Q 3069 4631 3425 4513 
z
" transform="scale(0.015625)"/>
       <path id="DejaVuSans-44" d="M 1259 4147 
L 1259 519 
L 2022 519 
Q 2988 519 3436 956 
Q 3884 1394 3884 2338 
Q 3884 3275 3436 3711 
Q 2988 4147 2022 4147 
L 1259 4147 
z
M 628 4666 
L 1925 4666 
Q 3281 4666 3915 4102 
Q 4550 3538 4550 2338 
Q 4550 1131 3912 565 
Q 3275 0 1925 0 
L 628 0 
L 628 4666 
z
" transform="scale(0.015625)"/>
       <path id="DejaVuSans-28" d="M 1984 4856 
Q 1566 4138 1362 3434 
Q 1159 2731 1159 2009 
Q 1159 1288 1364 580 
Q 1569 -128 1984 -844 
L 1484 -844 
Q 1016 -109 783 600 
Q 550 1309 550 2009 
Q 550 2706 781 3412 
Q 1013 4119 1484 4856 
L 1984 4856 
z
" transform="scale(0.015625)"/>
       <path id="DejaVuSans-6e" d="M 3513 2113 
L 3513 0 
L 2938 0 
L 2938 2094 
Q 2938 2591 2744 2837 
Q 2550 3084 2163 3084 
Q 1697 3084 1428 2787 
Q 1159 2491 1159 1978 
L 1159 0 
L 581 0 
L 581 3500 
L 1159 3500 
L 1159 2956 
Q 1366 3272 1645 3428 
Q 1925 3584 2291 3584 
Q 2894 3584 3203 3211 
Q 3513 2838 3513 2113 
z
" transform="scale(0.015625)"/>
       <path id="DejaVuSans-3d" d="M 678 2906 
L 4684 2906 
L 4684 2381 
L 678 2381 
L 678 2906 
z
M 678 1631 
L 4684 1631 
L 4684 1100 
L 678 1100 
L 678 1631 
z
" transform="scale(0.015625)"/>
       <path id="DejaVuSans-29" d="M 513 4856 
L 1013 4856 
Q 1481 4119 1714 3412 
Q 1947 2706 1947 2009 
Q 1947 1309 1714 600 
Q 1481 -109 1013 -844 
L 513 -844 
Q 928 -128 1133 580 
Q 1338 1288 1338 2009 
Q 1338 2731 1133 3434 
Q 928 4138 513 4856 
z
" transform="scale(0.015625)"/>
      </defs>
      <use xlink:href="#DejaVuSans-54"/>
      <use xlink:href="#DejaVuSans-65" transform="translate(44.083984 0)"/>
      <use xlink:href="#DejaVuSans-73" transform="translate(105.607422 0)"/>
      <use xlink:href="#DejaVuSans-74" transform="translate(157.707031 0)"/>
      <use xlink:href="#DejaVuSans-20" transform="translate(196.916016 0)"/>
      <use xlink:href="#DejaVuSans-32" transform="translate(228.703125 0)"/>
      <use xlink:href="#DejaVuSans-30" transform="translate(292.326172 0)"/>
      <use xlink:href="#DejaVuSans-20" transform="translate(355.949219 0)"/>
      <use xlink:href="#DejaVuSans-6d" transform="translate(387.736328 0)"/>
      <use xlink:href="#DejaVuSans-67" transform="translate(485.148438 0)"/>
      <use xlink:href="#DejaVuSans-b1" transform="translate(548.625 0)"/>
      <use xlink:href="#DejaVuSans-53" transform="translate(632.414062 0)"/>
      <use xlink:href="#DejaVuSans-44" transform="translate(695.890625 0)"/>
      <use xlink:href="#DejaVuSans-20" transform="translate(772.892578 0)"/>
      <use xlink:href="#DejaVuSans-28" transform="translate(804.679688 0)"/>
      <use xlink:href="#DejaVuSans-6e" transform="translate(843.693359 0)"/>
      <use xlink:href="#DejaVuSans-3d" transform="translate(907.072266 0)"/>
      <use xlink:href="#DejaVuSans-33" transform="translate(990.861328 0)"/>
      <use xlink:href="#DejaVuSans-32" transform="translate(1054.484375 0)"/>
      <use xlink:href="#DejaVuSans-29" transform="translate(1118.107422 0)"/>
     </g>
    </g>
    <g id="line2d_23">
     <path d="M 266.72 85.654687 
L 286.72 85.654687 
" style="fill: none; stroke: #000000; stroke-width: 2; stroke-linecap: square"/>
    </g>
    <g id="line2d_24"/>
    <g id="text_19">
     <!-- Reference 20 mg -->
     <g transform="translate(294.72 89.154687) scale(0.1 -0.1)">
      <defs>
       <path id="DejaVuSans-52" d="M 2841 2188 
Q 3044 2119 3236 1894 
Q 3428 1669 3622 1275 
L 4263 0 
L 3584 0 
L 2988 1197 
Q 2756 1666 2539 1819 
Q 2322 1972 1947 1972 
L 1259 1972 
L 1259 0 
L 628 0 
L 628 4666 
L 2053 4666 
Q 2853 4666 3247 4331 
Q 3641 3997 3641 3322 
Q 3641 2881 3436 2590 
Q 3231 2300 2841 2188 
z
M 1259 4147 
L 1259 2491 
L 2053 2491 
Q 2509 2491 2742 2702 
Q 2975 2913 2975 3322 
Q 2975 3731 2742 3939 
Q 2509 4147 2053 4147 
L 1259 4147 
z
" transform="scale(0.015625)"/>
       <path id="DejaVuSans-66" d="M 2375 4863 
L 2375 4384 
L 1825 4384 
Q 1516 4384 1395 4259 
Q 1275 4134 1275 3809 
L 1275 3500 
L 2222 3500 
L 2222 3053 
L 1275 3053 
L 1275 0 
L 697 0 
L 697 3053 
L 147 3053 
L 147 3500 
L 697 3500 
L 697 3744 
Q 697 4328 969 4595 
Q 1241 4863 1831 4863 
L 2375 4863 
z
" transform="scale(0.015625)"/>
       <path id="DejaVuSans-72" d="M 2631 2963 
Q 2534 3019 2420 3045 
Q 2306 3072 2169 3072 
Q 1681 3072 1420 2755 
Q 1159 2438 1159 1844 
L 1159 0 
L 581 0 
L 581 3500 
L 1159 3500 
L 1159 2956 
Q 1341 3275 1631 3429 
Q 1922 3584 2338 3584 
Q 2397 3584 2469 3576 
Q 2541 3569 2628 3553 
L 2631 2963 
z
" transform="scale(0.015625)"/>
       <path id="DejaVuSans-63" d="M 3122 3366 
L 3122 2828 
Q 2878 2963 2633 3030 
Q 2388 3097 2138 3097 
Q 1578 3097 1268 2742 
Q 959 2388 959 1747 
Q 959 1106 1268 751 
Q 1578 397 2138 397 
Q 2388 397 2633 464 
Q 2878 531 3122 666 
L 3122 134 
Q 2881 22 2623 -34 
Q 2366 -91 2075 -91 
Q 1284 -91 818 406 
Q 353 903 353 1747 
Q 353 2603 823 3093 
Q 1294 3584 2113 3584 
Q 2378 3584 2631 3529 
Q 2884 3475 3122 3366 
z
" transform="scale(0.015625)"/>
      </defs>
      <use xlink:href="#DejaVuSans-52"/>
      <use xlink:href="#DejaVuSans-65" transform="translate(64.982422 0)"/>
      <use xlink:href="#DejaVuSans-66" transform="translate(126.505859 0)"/>
      <use xlink:href="#DejaVuSans-65" transform="translate(161.710938 0)"/>
      <use xlink:href="#DejaVuSans-72" transform="translate(223.234375 0)"/>
      <use xlink:href="#DejaVuSans-65" transform="translate(262.097656 0)"/>
      <use xlink:href="#DejaVuSans-6e" transform="translate(323.621094 0)"/>
      <use xlink:href="#DejaVuSans-63" transform="translate(387 0)"/>
      <use xlink:href="#DejaVuSans-65" transform="translate(441.980469 0)"/>
      <use xlink:href="#DejaVuSans-20" transform="translate(503.503906 0)"/>
      <use xlink:href="#DejaVuSans-32" transform="translate(535.291016 0)"/>
      <use xlink:href="#DejaVuSans-30" transform="translate(598.914062 0)"/>
      <use xlink:href="#DejaVuSans-20" transform="translate(662.537109 0)"/>
      <use xlink:href="#DejaVuSans-6d" transform="translate(694.324219 0)"/>
      <use xlink:href="#DejaVuSans-67" transform="translate(791.736328 0)"/>
     </g>
    </g>
    <g id="LineCollection_4">
     <path d="M 276.72 105.332812 
L 276.72 95.332812 
" style="fill: none; stroke: #000000"/>
    </g>
    <g id="line2d_25">
     <path d="M 266.72 100.332812 
L 286.72 100.332812 
" style="fill: none; stroke-dasharray: 3.7,1.6; stroke-dashoffset: 0; stroke: #000000"/>
    </g>
    <g id="line2d_26">
     <g>
      <use xlink:href="#m7fda3370a0" x="276.72" y="100.332812" style="stroke: #000000; stroke-linejoin: miter"/>
     </g>
    </g>
    <g id="text_20">
     <!-- Reference 20 mg±SD (n=31) -->
     <g transform="translate(294.72 103.832812) scale(0.1 -0.1)">
      <use xlink:href="#DejaVuSans-52"/>
      <use xlink:href="#DejaVuSans-65" transform="translate(64.982422 0)"/>
      <use xlink:href="#DejaVuSans-66" transform="translate(126.505859 0)"/>
      <use xlink:href="#DejaVuSans-65" transform="translate(161.710938 0)"/>
      <use xlink:href="#DejaVuSans-72" transform="translate(223.234375 0)"/>
      <use xlink:href="#DejaVuSans-65" transform="translate(262.097656 0)"/>
      <use xlink:href="#DejaVuSans-6e" transform="translate(323.621094 0)"/>
      <use xlink:href="#DejaVuSans-63" transform="translate(387 0)"/>
      <use xlink:href="#DejaVuSans-65" transform="translate(441.980469 0)"/>
      <use xlink:href="#DejaVuSans-20" transform="translate(503.503906 0)"/>
      <use xlink:href="#DejaVuSans-32" transform="translate(535.291016 0)"/>
      <use xlink:href="#DejaVuSans-30" transform="translate(598.914062 0)"/>
      <use xlink:href="#DejaVuSans-20" transform="translate(662.537109 0)"/>
      <use xlink:href="#DejaVuSans-6d" transform="translate(694.324219 0)"/>
      <use xlink:href="#DejaVuSans-67" transform="translate(791.736328 0)"/>
      <use xlink:href="#DejaVuSans-b1" transform="translate(855.212891 0)"/>
      <use xlink:href="#DejaVuSans-53" transform="translate(939.001953 0)"/>
      <use xlink:href="#DejaVuSans-44" transform="translate(1002.478516 0)"/>
      <use xlink:href="#DejaVuSans-20" transform="translate(1079.480469 0)"/>
      <use xlink:href="#DejaVuSans-28" transform="translate(1111.267578 0)"/>
      <use xlink:href="#DejaVuSans-6e" transform="translate(1150.28125 0)"/>
      <use xlink:href="#DejaVuSans-3d" transform="translate(1213.660156 0)"/>
      <use xlink:href="#DejaVuSans-33" transform="translate(1297.449219 0)"/>
      <use xlink:href="#DejaVuSans-31" transform="translate(1361.072266 0)"/>
      <use xlink:href="#DejaVuSans-29" transform="translate(1424.695312 0)"/>
     </g>
    </g>
   </g>
  </g>
  <g id="text_21">
   <!-- GenisNajera2022 -->
   <g transform="translate(128.084844 26.196094) scale(0.25 -0.25)">
    <defs>
     <path id="DejaVuSans-Bold-47" d="M 4781 347 
Q 4331 128 3847 18 
Q 3363 -91 2847 -91 
Q 1681 -91 1000 561 
Q 319 1213 319 2328 
Q 319 3456 1012 4103 
Q 1706 4750 2913 4750 
Q 3378 4750 3804 4662 
Q 4231 4575 4609 4403 
L 4609 3438 
Q 4219 3659 3833 3768 
Q 3447 3878 3059 3878 
Q 2341 3878 1952 3476 
Q 1563 3075 1563 2328 
Q 1563 1588 1938 1184 
Q 2313 781 3003 781 
Q 3191 781 3352 804 
Q 3513 828 3641 878 
L 3641 1784 
L 2906 1784 
L 2906 2591 
L 4781 2591 
L 4781 347 
z
" transform="scale(0.015625)"/>
     <path id="DejaVuSans-Bold-4e" d="M 588 4666 
L 1931 4666 
L 3628 1466 
L 3628 4666 
L 4769 4666 
L 4769 0 
L 3425 0 
L 1728 3200 
L 1728 0 
L 588 0 
L 588 4666 
z
" transform="scale(0.015625)"/>
     <path id="DejaVuSans-Bold-6a" d="M 538 3500 
L 1656 3500 
L 1656 63 
Q 1656 -641 1318 -1011 
Q 981 -1381 341 -1381 
L -213 -1381 
L -213 -647 
L -19 -647 
Q 300 -647 419 -503 
Q 538 -359 538 63 
L 538 3500 
z
M 538 4863 
L 1656 4863 
L 1656 3950 
L 538 3950 
L 538 4863 
z
" transform="scale(0.015625)"/>
     <path id="DejaVuSans-Bold-32" d="M 1844 884 
L 3897 884 
L 3897 0 
L 506 0 
L 506 884 
L 2209 2388 
Q 2438 2594 2547 2791 
Q 2656 2988 2656 3200 
Q 2656 3528 2436 3728 
Q 2216 3928 1850 3928 
Q 1569 3928 1234 3808 
Q 900 3688 519 3450 
L 519 4475 
Q 925 4609 1322 4679 
Q 1719 4750 2100 4750 
Q 2938 4750 3402 4381 
Q 3866 4013 3866 3353 
Q 3866 2972 3669 2642 
Q 3472 2313 2841 1759 
L 1844 884 
z
" transform="scale(0.015625)"/>
     <path id="DejaVuSans-Bold-30" d="M 2944 2338 
Q 2944 3213 2780 3570 
Q 2616 3928 2228 3928 
Q 1841 3928 1675 3570 
Q 1509 3213 1509 2338 
Q 1509 1453 1675 1090 
Q 1841 728 2228 728 
Q 2613 728 2778 1090 
Q 2944 1453 2944 2338 
z
M 4147 2328 
Q 4147 1169 3647 539 
Q 3147 -91 2228 -91 
Q 1306 -91 806 539 
Q 306 1169 306 2328 
Q 306 3491 806 4120 
Q 1306 4750 2228 4750 
Q 3147 4750 3647 4120 
Q 4147 3491 4147 2328 
z
" transform="scale(0.015625)"/>
    </defs>
    <use xlink:href="#DejaVuSans-Bold-47"/>
    <use xlink:href="#DejaVuSans-Bold-65" transform="translate(82.080078 0)"/>
    <use xlink:href="#DejaVuSans-Bold-6e" transform="translate(149.902344 0)"/>
    <use xlink:href="#DejaVuSans-Bold-69" transform="translate(221.09375 0)"/>
    <use xlink:href="#DejaVuSans-Bold-73" transform="translate(255.371094 0)"/>
    <use xlink:href="#DejaVuSans-Bold-4e" transform="translate(314.892578 0)"/>
    <use xlink:href="#DejaVuSans-Bold-61" transform="translate(398.583984 0)"/>
    <use xlink:href="#DejaVuSans-Bold-6a" transform="translate(466.064453 0)"/>
    <use xlink:href="#DejaVuSans-Bold-65" transform="translate(500.341797 0)"/>
    <use xlink:href="#DejaVuSans-Bold-72" transform="translate(568.164062 0)"/>
    <use xlink:href="#DejaVuSans-Bold-61" transform="translate(617.480469 0)"/>
    <use xlink:href="#DejaVuSans-Bold-32" transform="translate(684.960938 0)"/>
    <use xlink:href="#DejaVuSans-Bold-30" transform="translate(754.541016 0)"/>
    <use xlink:href="#DejaVuSans-Bold-32" transform="translate(824.121094 0)"/>
    <use xlink:href="#DejaVuSans-Bold-32" transform="translate(893.701172 0)"/>
   </g>
  </g>
 </g>
 <defs>
  <clipPath id="p559f317b80">
   <rect x="59.495" y="43.2" width="390.6" height="277.2"/>
  </clipPath>
 </defs>
</svg>
