<?xml version="1.0" encoding="utf-8" standalone="no"?>
<!DOCTYPE svg PUBLIC "-//W3C//DTD SVG 1.1//EN"
  "http://www.w3.org/Graphics/SVG/1.1/DTD/svg11.dtd">
<svg xmlns:xlink="http://www.w3.org/1999/xlink" width="720pt" height="360pt" viewBox="0 0 720 360" xmlns="http://www.w3.org/2000/svg" version="1.1">
 <metadata>
  <rdf:RDF xmlns:dc="http://purl.org/dc/elements/1.1/" xmlns:cc="http://creativecommons.org/ns#" xmlns:rdf="http://www.w3.org/1999/02/22-rdf-syntax-ns#">
   <cc:Work>
    <dc:type rdf:resource="http://purl.org/dc/dcmitype/StillImage"/>
    <dc:date>2025-07-17T16:26:44.135765</dc:date>
    <dc:format>image/svg+xml</dc:format>
    <dc:creator>
     <cc:Agent>
      <dc:title>Matplotlib v3.9.1, https://matplotlib.org/</dc:title>
     </cc:Agent>
    </dc:creator>
   </cc:Work>
  </rdf:RDF>
 </metadata>
 <defs>
  <style type="text/css">*{stroke-linejoin: round; stroke-linecap: butt}</style>
 </defs>
 <g id="figure_1">
  <g id="patch_1">
   <path d="M 0 360 
L 720 360 
L 720 0 
L 0 0 
z
" style="fill: #ffffff"/>
  </g>
  <g id="axes_1">
   <g id="patch_2">
    <path d="M 90 320.4 
L 343.636364 320.4 
L 343.636364 43.2 
L 90 43.2 
z
" style="fill: #ffffff"/>
   </g>
   <g id="matplotlib.axis_1">
    <g id="xtick_1">
     <g id="line2d_1">
      <defs>
       <path id="md3f1f420cb" d="M 0 0 
L 0 3.5 
" style="stroke: #000000; stroke-width: 0.8"/>
      </defs>
      <g>
       <use xlink:href="#md3f1f420cb" x="106.510065" y="320.4" style="stroke: #000000; stroke-width: 0.8"/>
      </g>
     </g>
     <g id="text_1">
      <!-- 0 -->
      <g transform="translate(103.328815 334.998438) scale(0.1 -0.1)">
       <defs>
        <path id="DejaVuSans-30" d="M 2034 4250 
Q 1547 4250 1301 3770 
Q 1056 3291 1056 2328 
Q 1056 1369 1301 889 
Q 1547 409 2034 409 
Q 2525 409 2770 889 
Q 3016 1369 3016 2328 
Q 3016 3291 2770 3770 
Q 2525 4250 2034 4250 
z
M 2034 4750 
Q 2819 4750 3233 4129 
Q 3647 3509 3647 2328 
Q 3647 1150 3233 529 
Q 2819 -91 2034 -91 
Q 1250 -91 836 529 
Q 422 1150 422 2328 
Q 422 3509 836 4129 
Q 1250 4750 2034 4750 
z
" transform="scale(0.015625)"/>
       </defs>
       <use xlink:href="#DejaVuSans-30"/>
      </g>
     </g>
    </g>
    <g id="xtick_2">
     <g id="line2d_2">
      <g>
       <use xlink:href="#md3f1f420cb" x="144.00876" y="320.4" style="stroke: #000000; stroke-width: 0.8"/>
      </g>
     </g>
     <g id="text_2">
      <!-- 250 -->
      <g transform="translate(134.46501 334.998438) scale(0.1 -0.1)">
       <defs>
        <path id="DejaVuSans-32" d="M 1228 531 
L 3431 531 
L 3431 0 
L 469 0 
L 469 531 
Q 828 903 1448 1529 
Q 2069 2156 2228 2338 
Q 2531 2678 2651 2914 
Q 2772 3150 2772 3378 
Q 2772 3750 2511 3984 
Q 2250 4219 1831 4219 
Q 1534 4219 1204 4116 
Q 875 4013 500 3803 
L 500 4441 
Q 881 4594 1212 4672 
Q 1544 4750 1819 4750 
Q 2544 4750 2975 4387 
Q 3406 4025 3406 3419 
Q 3406 3131 3298 2873 
Q 3191 2616 2906 2266 
Q 2828 2175 2409 1742 
Q 1991 1309 1228 531 
z
" transform="scale(0.015625)"/>
        <path id="DejaVuSans-35" d="M 691 4666 
L 3169 4666 
L 3169 4134 
L 1269 4134 
L 1269 2991 
Q 1406 3038 1543 3061 
Q 1681 3084 1819 3084 
Q 2600 3084 3056 2656 
Q 3513 2228 3513 1497 
Q 3513 744 3044 326 
Q 2575 -91 1722 -91 
Q 1428 -91 1123 -41 
Q 819 9 494 109 
L 494 744 
Q 775 591 1075 516 
Q 1375 441 1709 441 
Q 2250 441 2565 725 
Q 2881 1009 2881 1497 
Q 2881 1984 2565 2268 
Q 2250 2553 1709 2553 
Q 1456 2553 1204 2497 
Q 953 2441 691 2322 
L 691 4666 
z
" transform="scale(0.015625)"/>
       </defs>
       <use xlink:href="#DejaVuSans-32"/>
       <use xlink:href="#DejaVuSans-35" x="63.623047"/>
       <use xlink:href="#DejaVuSans-30" x="127.246094"/>
      </g>
     </g>
    </g>
    <g id="xtick_3">
     <g id="line2d_3">
      <g>
       <use xlink:href="#md3f1f420cb" x="181.507455" y="320.4" style="stroke: #000000; stroke-width: 0.8"/>
      </g>
     </g>
     <g id="text_3">
      <!-- 500 -->
      <g transform="translate(171.963705 334.998438) scale(0.1 -0.1)">
       <use xlink:href="#DejaVuSans-35"/>
       <use xlink:href="#DejaVuSans-30" x="63.623047"/>
       <use xlink:href="#DejaVuSans-30" x="127.246094"/>
      </g>
     </g>
    </g>
    <g id="xtick_4">
     <g id="line2d_4">
      <g>
       <use xlink:href="#md3f1f420cb" x="219.00615" y="320.4" style="stroke: #000000; stroke-width: 0.8"/>
      </g>
     </g>
     <g id="text_4">
      <!-- 750 -->
      <g transform="translate(209.4624 334.998438) scale(0.1 -0.1)">
       <defs>
        <path id="DejaVuSans-37" d="M 525 4666 
L 3525 4666 
L 3525 4397 
L 1831 0 
L 1172 0 
L 2766 4134 
L 525 4134 
L 525 4666 
z
" transform="scale(0.015625)"/>
       </defs>
       <use xlink:href="#DejaVuSans-37"/>
       <use xlink:href="#DejaVuSans-35" x="63.623047"/>
       <use xlink:href="#DejaVuSans-30" x="127.246094"/>
      </g>
     </g>
    </g>
    <g id="xtick_5">
     <g id="line2d_5">
      <g>
       <use xlink:href="#md3f1f420cb" x="256.504845" y="320.4" style="stroke: #000000; stroke-width: 0.8"/>
      </g>
     </g>
     <g id="text_5">
      <!-- 1000 -->
      <g transform="translate(243.779845 334.998438) scale(0.1 -0.1)">
       <defs>
        <path id="DejaVuSans-31" d="M 794 531 
L 1825 531 
L 1825 4091 
L 703 3866 
L 703 4441 
L 1819 4666 
L 2450 4666 
L 2450 531 
L 3481 531 
L 3481 0 
L 794 0 
L 794 531 
z
" transform="scale(0.015625)"/>
       </defs>
       <use xlink:href="#DejaVuSans-31"/>
       <use xlink:href="#DejaVuSans-30" x="63.623047"/>
       <use xlink:href="#DejaVuSans-30" x="127.246094"/>
       <use xlink:href="#DejaVuSans-30" x="190.869141"/>
      </g>
     </g>
    </g>
    <g id="xtick_6">
     <g id="line2d_6">
      <g>
       <use xlink:href="#md3f1f420cb" x="294.00354" y="320.4" style="stroke: #000000; stroke-width: 0.8"/>
      </g>
     </g>
     <g id="text_6">
      <!-- 1250 -->
      <g transform="translate(281.27854 334.998438) scale(0.1 -0.1)">
       <use xlink:href="#DejaVuSans-31"/>
       <use xlink:href="#DejaVuSans-32" x="63.623047"/>
       <use xlink:href="#DejaVuSans-35" x="127.246094"/>
       <use xlink:href="#DejaVuSans-30" x="190.869141"/>
      </g>
     </g>
    </g>
    <g id="xtick_7">
     <g id="line2d_7">
      <g>
       <use xlink:href="#md3f1f420cb" x="331.502235" y="320.4" style="stroke: #000000; stroke-width: 0.8"/>
      </g>
     </g>
     <g id="text_7">
      <!-- 1500 -->
      <g transform="translate(318.777235 334.998438) scale(0.1 -0.1)">
       <use xlink:href="#DejaVuSans-31"/>
       <use xlink:href="#DejaVuSans-35" x="63.623047"/>
       <use xlink:href="#DejaVuSans-30" x="127.246094"/>
       <use xlink:href="#DejaVuSans-30" x="190.869141"/>
      </g>
     </g>
    </g>
    <g id="text_8">
     <!-- time -->
     <g transform="translate(203.262869 350.19625) scale(0.12 -0.12)">
      <defs>
       <path id="DejaVuSans-74" d="M 1172 4494 
L 1172 3500 
L 2356 3500 
L 2356 3053 
L 1172 3053 
L 1172 1153 
Q 1172 725 1289 603 
Q 1406 481 1766 481 
L 2356 481 
L 2356 0 
L 1766 0 
Q 1100 0 847 248 
Q 594 497 594 1153 
L 594 3053 
L 172 3053 
L 172 3500 
L 594 3500 
L 594 4494 
L 1172 4494 
z
" transform="scale(0.015625)"/>
       <path id="DejaVuSans-69" d="M 603 3500 
L 1178 3500 
L 1178 0 
L 603 0 
L 603 3500 
z
M 603 4863 
L 1178 4863 
L 1178 4134 
L 603 4134 
L 603 4863 
z
" transform="scale(0.015625)"/>
       <path id="DejaVuSans-6d" d="M 3328 2828 
Q 3544 3216 3844 3400 
Q 4144 3584 4550 3584 
Q 5097 3584 5394 3201 
Q 5691 2819 5691 2113 
L 5691 0 
L 5113 0 
L 5113 2094 
Q 5113 2597 4934 2840 
Q 4756 3084 4391 3084 
Q 3944 3084 3684 2787 
Q 3425 2491 3425 1978 
L 3425 0 
L 2847 0 
L 2847 2094 
Q 2847 2600 2669 2842 
Q 2491 3084 2119 3084 
Q 1678 3084 1418 2786 
Q 1159 2488 1159 1978 
L 1159 0 
L 581 0 
L 581 3500 
L 1159 3500 
L 1159 2956 
Q 1356 3278 1631 3431 
Q 1906 3584 2284 3584 
Q 2666 3584 2933 3390 
Q 3200 3197 3328 2828 
z
" transform="scale(0.015625)"/>
       <path id="DejaVuSans-65" d="M 3597 1894 
L 3597 1613 
L 953 1613 
Q 991 1019 1311 708 
Q 1631 397 2203 397 
Q 2534 397 2845 478 
Q 3156 559 3463 722 
L 3463 178 
Q 3153 47 2828 -22 
Q 2503 -91 2169 -91 
Q 1331 -91 842 396 
Q 353 884 353 1716 
Q 353 2575 817 3079 
Q 1281 3584 2069 3584 
Q 2775 3584 3186 3129 
Q 3597 2675 3597 1894 
z
M 3022 2063 
Q 3016 2534 2758 2815 
Q 2500 3097 2075 3097 
Q 1594 3097 1305 2825 
Q 1016 2553 972 2059 
L 3022 2063 
z
" transform="scale(0.015625)"/>
      </defs>
      <use xlink:href="#DejaVuSans-74"/>
      <use xlink:href="#DejaVuSans-69" x="39.208984"/>
      <use xlink:href="#DejaVuSans-6d" x="66.992188"/>
      <use xlink:href="#DejaVuSans-65" x="164.404297"/>
     </g>
    </g>
   </g>
   <g id="matplotlib.axis_2">
    <g id="ytick_1">
     <g id="line2d_8">
      <defs>
       <path id="m5239d1e7ed" d="M 0 0 
L -3.5 0 
" style="stroke: #000000; stroke-width: 0.8"/>
      </defs>
      <g>
       <use xlink:href="#m5239d1e7ed" x="90" y="298.966905" style="stroke: #000000; stroke-width: 0.8"/>
      </g>
     </g>
     <g id="text_9">
      <!-- 1.0 -->
      <g transform="translate(67.096875 302.766124) scale(0.1 -0.1)">
       <defs>
        <path id="DejaVuSans-2e" d="M 684 794 
L 1344 794 
L 1344 0 
L 684 0 
L 684 794 
z
" transform="scale(0.015625)"/>
       </defs>
       <use xlink:href="#DejaVuSans-31"/>
       <use xlink:href="#DejaVuSans-2e" x="63.623047"/>
       <use xlink:href="#DejaVuSans-30" x="95.410156"/>
      </g>
     </g>
    </g>
    <g id="ytick_2">
     <g id="line2d_9">
      <g>
       <use xlink:href="#m5239d1e7ed" x="90" y="243.129129" style="stroke: #000000; stroke-width: 0.8"/>
      </g>
     </g>
     <g id="text_10">
      <!-- 1.1 -->
      <g transform="translate(67.096875 246.928348) scale(0.1 -0.1)">
       <use xlink:href="#DejaVuSans-31"/>
       <use xlink:href="#DejaVuSans-2e" x="63.623047"/>
       <use xlink:href="#DejaVuSans-31" x="95.410156"/>
      </g>
     </g>
    </g>
    <g id="ytick_3">
     <g id="line2d_10">
      <g>
       <use xlink:href="#m5239d1e7ed" x="90" y="187.291353" style="stroke: #000000; stroke-width: 0.8"/>
      </g>
     </g>
     <g id="text_11">
      <!-- 1.2 -->
      <g transform="translate(67.096875 191.090571) scale(0.1 -0.1)">
       <use xlink:href="#DejaVuSans-31"/>
       <use xlink:href="#DejaVuSans-2e" x="63.623047"/>
       <use xlink:href="#DejaVuSans-32" x="95.410156"/>
      </g>
     </g>
    </g>
    <g id="ytick_4">
     <g id="line2d_11">
      <g>
       <use xlink:href="#m5239d1e7ed" x="90" y="131.453576" style="stroke: #000000; stroke-width: 0.8"/>
      </g>
     </g>
     <g id="text_12">
      <!-- 1.3 -->
      <g transform="translate(67.096875 135.252795) scale(0.1 -0.1)">
       <defs>
        <path id="DejaVuSans-33" d="M 2597 2516 
Q 3050 2419 3304 2112 
Q 3559 1806 3559 1356 
Q 3559 666 3084 287 
Q 2609 -91 1734 -91 
Q 1441 -91 1130 -33 
Q 819 25 488 141 
L 488 750 
Q 750 597 1062 519 
Q 1375 441 1716 441 
Q 2309 441 2620 675 
Q 2931 909 2931 1356 
Q 2931 1769 2642 2001 
Q 2353 2234 1838 2234 
L 1294 2234 
L 1294 2753 
L 1863 2753 
Q 2328 2753 2575 2939 
Q 2822 3125 2822 3475 
Q 2822 3834 2567 4026 
Q 2313 4219 1838 4219 
Q 1578 4219 1281 4162 
Q 984 4106 628 3988 
L 628 4550 
Q 988 4650 1302 4700 
Q 1616 4750 1894 4750 
Q 2613 4750 3031 4423 
Q 3450 4097 3450 3541 
Q 3450 3153 3228 2886 
Q 3006 2619 2597 2516 
z
" transform="scale(0.015625)"/>
       </defs>
       <use xlink:href="#DejaVuSans-31"/>
       <use xlink:href="#DejaVuSans-2e" x="63.623047"/>
       <use xlink:href="#DejaVuSans-33" x="95.410156"/>
      </g>
     </g>
    </g>
    <g id="ytick_5">
     <g id="line2d_12">
      <g>
       <use xlink:href="#m5239d1e7ed" x="90" y="75.6158" style="stroke: #000000; stroke-width: 0.8"/>
      </g>
     </g>
     <g id="text_13">
      <!-- 1.4 -->
      <g transform="translate(67.096875 79.415019) scale(0.1 -0.1)">
       <defs>
        <path id="DejaVuSans-34" d="M 2419 4116 
L 825 1625 
L 2419 1625 
L 2419 4116 
z
M 2253 4666 
L 3047 4666 
L 3047 1625 
L 3713 1625 
L 3713 1100 
L 3047 1100 
L 3047 0 
L 2419 0 
L 2419 1100 
L 313 1100 
L 313 1709 
L 2253 4666 
z
" transform="scale(0.015625)"/>
       </defs>
       <use xlink:href="#DejaVuSans-31"/>
       <use xlink:href="#DejaVuSans-2e" x="63.623047"/>
       <use xlink:href="#DejaVuSans-34" x="95.410156"/>
      </g>
     </g>
    </g>
    <g id="text_14">
     <!-- PT_ratio -->
     <g transform="translate(60.2675 205.91625) rotate(-90) scale(0.12 -0.12)">
      <defs>
       <path id="DejaVuSans-50" d="M 1259 4147 
L 1259 2394 
L 2053 2394 
Q 2494 2394 2734 2622 
Q 2975 2850 2975 3272 
Q 2975 3691 2734 3919 
Q 2494 4147 2053 4147 
L 1259 4147 
z
M 628 4666 
L 2053 4666 
Q 2838 4666 3239 4311 
Q 3641 3956 3641 3272 
Q 3641 2581 3239 2228 
Q 2838 1875 2053 1875 
L 1259 1875 
L 1259 0 
L 628 0 
L 628 4666 
z
" transform="scale(0.015625)"/>
       <path id="DejaVuSans-54" d="M -19 4666 
L 3928 4666 
L 3928 4134 
L 2272 4134 
L 2272 0 
L 1638 0 
L 1638 4134 
L -19 4134 
L -19 4666 
z
" transform="scale(0.015625)"/>
       <path id="DejaVuSans-5f" d="M 3263 -1063 
L 3263 -1509 
L -63 -1509 
L -63 -1063 
L 3263 -1063 
z
" transform="scale(0.015625)"/>
       <path id="DejaVuSans-72" d="M 2631 2963 
Q 2534 3019 2420 3045 
Q 2306 3072 2169 3072 
Q 1681 3072 1420 2755 
Q 1159 2438 1159 1844 
L 1159 0 
L 581 0 
L 581 3500 
L 1159 3500 
L 1159 2956 
Q 1341 3275 1631 3429 
Q 1922 3584 2338 3584 
Q 2397 3584 2469 3576 
Q 2541 3569 2628 3553 
L 2631 2963 
z
" transform="scale(0.015625)"/>
       <path id="DejaVuSans-61" d="M 2194 1759 
Q 1497 1759 1228 1600 
Q 959 1441 959 1056 
Q 959 750 1161 570 
Q 1363 391 1709 391 
Q 2188 391 2477 730 
Q 2766 1069 2766 1631 
L 2766 1759 
L 2194 1759 
z
M 3341 1997 
L 3341 0 
L 2766 0 
L 2766 531 
Q 2569 213 2275 61 
Q 1981 -91 1556 -91 
Q 1019 -91 701 211 
Q 384 513 384 1019 
Q 384 1609 779 1909 
Q 1175 2209 1959 2209 
L 2766 2209 
L 2766 2266 
Q 2766 2663 2505 2880 
Q 2244 3097 1772 3097 
Q 1472 3097 1187 3025 
Q 903 2953 641 2809 
L 641 3341 
Q 956 3463 1253 3523 
Q 1550 3584 1831 3584 
Q 2591 3584 2966 3190 
Q 3341 2797 3341 1997 
z
" transform="scale(0.015625)"/>
       <path id="DejaVuSans-6f" d="M 1959 3097 
Q 1497 3097 1228 2736 
Q 959 2375 959 1747 
Q 959 1119 1226 758 
Q 1494 397 1959 397 
Q 2419 397 2687 759 
Q 2956 1122 2956 1747 
Q 2956 2369 2687 2733 
Q 2419 3097 1959 3097 
z
M 1959 3584 
Q 2709 3584 3137 3096 
Q 3566 2609 3566 1747 
Q 3566 888 3137 398 
Q 2709 -91 1959 -91 
Q 1206 -91 779 398 
Q 353 888 353 1747 
Q 353 2609 779 3096 
Q 1206 3584 1959 3584 
z
" transform="scale(0.015625)"/>
      </defs>
      <use xlink:href="#DejaVuSans-50"/>
      <use xlink:href="#DejaVuSans-54" x="60.302734"/>
      <use xlink:href="#DejaVuSans-5f" x="121.386719"/>
      <use xlink:href="#DejaVuSans-72" x="171.386719"/>
      <use xlink:href="#DejaVuSans-61" x="212.5"/>
      <use xlink:href="#DejaVuSans-74" x="273.779297"/>
      <use xlink:href="#DejaVuSans-69" x="312.988281"/>
      <use xlink:href="#DejaVuSans-6f" x="340.771484"/>
     </g>
    </g>
   </g>
   <g id="LineCollection_1">
    <path d="M 111.136364 283.824458 
L 111.136364 266.210778 
" clip-path="url(#pab392a4b7e)" style="fill: none; stroke: #000000; stroke-width: 1.5"/>
    <path d="M 113.373703 244.706467 
L 113.373703 146.362603 
" clip-path="url(#pab392a4b7e)" style="fill: none; stroke: #000000; stroke-width: 1.5"/>
    <path d="M 115.562627 210.63596 
L 115.562627 94.648879 
" clip-path="url(#pab392a4b7e)" style="fill: none; stroke: #000000; stroke-width: 1.5"/>
    <path d="M 117.6802 198.017253 
L 117.6802 107.29384 
" clip-path="url(#pab392a4b7e)" style="fill: none; stroke: #000000; stroke-width: 1.5"/>
    <path d="M 120.165992 170.256099 
L 120.165992 119.942083 
" clip-path="url(#pab392a4b7e)" style="fill: none; stroke: #000000; stroke-width: 1.5"/>
    <path d="M 123.002164 147.542427 
L 123.002164 125.019102 
" clip-path="url(#pab392a4b7e)" style="fill: none; stroke: #000000; stroke-width: 1.5"/>
    <path d="M 124.406235 221.992796 
L 124.406235 65.737437 
" clip-path="url(#pab392a4b7e)" style="fill: none; stroke: #000000; stroke-width: 1.5"/>
    <path d="M 126.856352 221.992796 
L 126.856352 88.483927 
" clip-path="url(#pab392a4b7e)" style="fill: none; stroke: #000000; stroke-width: 1.5"/>
    <path d="M 129.02489 155.113651 
L 129.02489 84.718006 
" clip-path="url(#pab392a4b7e)" style="fill: none; stroke: #000000; stroke-width: 1.5"/>
    <path d="M 131.515778 153.85178 
L 131.515778 60.768718 
" clip-path="url(#pab392a4b7e)" style="fill: none; stroke: #000000; stroke-width: 1.5"/>
    <path d="M 133.280422 147.542427 
L 133.280422 67.104326 
" clip-path="url(#pab392a4b7e)" style="fill: none; stroke: #000000; stroke-width: 1.5"/>
    <path d="M 137.868498 158.899263 
L 137.868498 55.8 
" clip-path="url(#pab392a4b7e)" style="fill: none; stroke: #000000; stroke-width: 1.5"/>
    <path d="M 142.78402 175.303581 
L 142.78402 72.256828 
" clip-path="url(#pab392a4b7e)" style="fill: none; stroke: #000000; stroke-width: 1.5"/>
    <path d="M 160.399886 204.326606 
L 160.399886 88.88103 
" clip-path="url(#pab392a4b7e)" style="fill: none; stroke: #000000; stroke-width: 1.5"/>
    <path d="M 177.952047 243.444597 
L 177.952047 168.592202 
" clip-path="url(#pab392a4b7e)" style="fill: none; stroke: #000000; stroke-width: 1.5"/>
    <path d="M 214.541982 307.8 
L 214.541982 245.996234 
" clip-path="url(#pab392a4b7e)" style="fill: none; stroke: #000000; stroke-width: 1.5"/>
    <path d="M 241.34674 306.538129 
L 241.34674 270.293397 
" clip-path="url(#pab392a4b7e)" style="fill: none; stroke: #000000; stroke-width: 1.5"/>
    <path d="M 322.5 305.276259 
L 322.5 297.760826 
" clip-path="url(#pab392a4b7e)" style="fill: none; stroke: #000000; stroke-width: 1.5"/>
   </g>
   <g id="line2d_13">
    <path d="M 106.510065 298.966905 
L 106.735576 298.872655 
L 106.933543 298.52823 
L 107.22645 297.543788 
L 107.645208 295.284273 
L 108.246824 290.680324 
L 109.194771 281.328633 
L 113.595757 233.829662 
L 115.037757 221.721282 
L 116.479758 211.875567 
L 117.441091 206.489298 
L 118.402425 201.960352 
L 119.899842 196.422935 
L 120.64855 194.265917 
L 121.397259 192.468494 
L 122.145967 190.99688 
L 122.894676 189.819494 
L 123.643384 188.907105 
L 124.392093 188.232833 
L 125.140801 187.772058 
L 125.88951 187.502302 
L 126.638218 187.403112 
L 127.828235 187.551418 
L 129.018252 188.01877 
L 130.208268 188.749479 
L 131.398285 189.696329 
L 133.778319 192.084847 
L 136.158352 194.934312 
L 139.728403 199.701071 
L 153.561159 218.959144 
L 158.979475 225.881929 
L 163.536242 231.3062 
L 169.037564 237.368026 
L 174.538886 242.917632 
L 177.289547 245.510266 
L 182.154996 249.816099 
L 187.020446 253.785197 
L 190.519256 256.444462 
L 194.018066 258.950558 
L 197.516876 261.312069 
L 201.015687 263.536986 
L 207.211514 267.165002 
L 211.178399 269.293081 
L 215.145284 271.280593 
L 219.11217 273.136834 
L 227.04594 276.488824 
L 234.97971 279.410032 
L 242.913481 281.954972 
L 248.86676 283.646446 
L 254.820039 285.170904 
L 260.773319 286.54458 
L 266.726598 287.782227 
L 278.633157 289.901571 
L 290.539715 291.620837 
L 302.446274 293.015018 
L 314.352833 294.145257 
L 326.259391 295.061287 
L 338.16595 295.803568 
L 356.025788 296.661362 
L 376.500669 297.360641 
L 376.500669 297.360641 
" clip-path="url(#pab392a4b7e)" style="fill: none; stroke: #0000ff; stroke-width: 1.5; stroke-linecap: square"/>
   </g>
   <g id="line2d_14">
    <path d="M 111.136364 275.017618 
L 113.373703 195.534535 
L 115.562627 152.642419 
L 117.6802 152.655547 
L 120.165992 145.099091 
L 123.002164 136.280765 
L 124.406235 143.865116 
L 126.856352 155.238361 
L 129.02489 119.915828 
L 131.515778 107.310249 
L 133.280422 107.323377 
L 137.868498 107.349631 
L 142.78402 123.780205 
L 160.399886 146.603818 
L 177.952047 206.018399 
L 214.541982 276.898117 
L 241.34674 288.415763 
L 322.5 301.518542 
" clip-path="url(#pab392a4b7e)" style="fill: none; stroke: #000000; stroke-width: 1.5; stroke-linecap: square"/>
    <defs>
     <path id="m51f686623c" d="M -5 5 
L 5 5 
L 5 -5 
L -5 -5 
z
" style="stroke: #000000; stroke-linejoin: miter"/>
    </defs>
    <g clip-path="url(#pab392a4b7e)">
     <use xlink:href="#m51f686623c" x="111.136364" y="275.017618" style="stroke: #000000; stroke-linejoin: miter"/>
     <use xlink:href="#m51f686623c" x="113.373703" y="195.534535" style="stroke: #000000; stroke-linejoin: miter"/>
     <use xlink:href="#m51f686623c" x="115.562627" y="152.642419" style="stroke: #000000; stroke-linejoin: miter"/>
     <use xlink:href="#m51f686623c" x="117.6802" y="152.655547" style="stroke: #000000; stroke-linejoin: miter"/>
     <use xlink:href="#m51f686623c" x="120.165992" y="145.099091" style="stroke: #000000; stroke-linejoin: miter"/>
     <use xlink:href="#m51f686623c" x="123.002164" y="136.280765" style="stroke: #000000; stroke-linejoin: miter"/>
     <use xlink:href="#m51f686623c" x="124.406235" y="143.865116" style="stroke: #000000; stroke-linejoin: miter"/>
     <use xlink:href="#m51f686623c" x="126.856352" y="155.238361" style="stroke: #000000; stroke-linejoin: miter"/>
     <use xlink:href="#m51f686623c" x="129.02489" y="119.915828" style="stroke: #000000; stroke-linejoin: miter"/>
     <use xlink:href="#m51f686623c" x="131.515778" y="107.310249" style="stroke: #000000; stroke-linejoin: miter"/>
     <use xlink:href="#m51f686623c" x="133.280422" y="107.323377" style="stroke: #000000; stroke-linejoin: miter"/>
     <use xlink:href="#m51f686623c" x="137.868498" y="107.349631" style="stroke: #000000; stroke-linejoin: miter"/>
     <use xlink:href="#m51f686623c" x="142.78402" y="123.780205" style="stroke: #000000; stroke-linejoin: miter"/>
     <use xlink:href="#m51f686623c" x="160.399886" y="146.603818" style="stroke: #000000; stroke-linejoin: miter"/>
     <use xlink:href="#m51f686623c" x="177.952047" y="206.018399" style="stroke: #000000; stroke-linejoin: miter"/>
     <use xlink:href="#m51f686623c" x="214.541982" y="276.898117" style="stroke: #000000; stroke-linejoin: miter"/>
     <use xlink:href="#m51f686623c" x="241.34674" y="288.415763" style="stroke: #000000; stroke-linejoin: miter"/>
     <use xlink:href="#m51f686623c" x="322.5" y="301.518542" style="stroke: #000000; stroke-linejoin: miter"/>
    </g>
   </g>
   <g id="patch_3">
    <path d="M 90 320.4 
L 90 43.2 
" style="fill: none; stroke: #000000; stroke-width: 0.8; stroke-linejoin: miter; stroke-linecap: square"/>
   </g>
   <g id="patch_4">
    <path d="M 343.636364 320.4 
L 343.636364 43.2 
" style="fill: none; stroke: #000000; stroke-width: 0.8; stroke-linejoin: miter; stroke-linecap: square"/>
   </g>
   <g id="patch_5">
    <path d="M 90 320.4 
L 343.636364 320.4 
" style="fill: none; stroke: #000000; stroke-width: 0.8; stroke-linejoin: miter; stroke-linecap: square"/>
   </g>
   <g id="patch_6">
    <path d="M 90 43.2 
L 343.636364 43.2 
" style="fill: none; stroke: #000000; stroke-width: 0.8; stroke-linejoin: miter; stroke-linecap: square"/>
   </g>
   <g id="text_15">
    <!-- Kubitza2006 fm_prothrombin time (change relative)_RIV10_fasted -->
    <g transform="translate(-14.686037 37.2) scale(0.14 -0.14)">
     <defs>
      <path id="DejaVuSans-4b" d="M 628 4666 
L 1259 4666 
L 1259 2694 
L 3353 4666 
L 4166 4666 
L 1850 2491 
L 4331 0 
L 3500 0 
L 1259 2247 
L 1259 0 
L 628 0 
L 628 4666 
z
" transform="scale(0.015625)"/>
      <path id="DejaVuSans-75" d="M 544 1381 
L 544 3500 
L 1119 3500 
L 1119 1403 
Q 1119 906 1312 657 
Q 1506 409 1894 409 
Q 2359 409 2629 706 
Q 2900 1003 2900 1516 
L 2900 3500 
L 3475 3500 
L 3475 0 
L 2900 0 
L 2900 538 
Q 2691 219 2414 64 
Q 2138 -91 1772 -91 
Q 1169 -91 856 284 
Q 544 659 544 1381 
z
M 1991 3584 
L 1991 3584 
z
" transform="scale(0.015625)"/>
      <path id="DejaVuSans-62" d="M 3116 1747 
Q 3116 2381 2855 2742 
Q 2594 3103 2138 3103 
Q 1681 3103 1420 2742 
Q 1159 2381 1159 1747 
Q 1159 1113 1420 752 
Q 1681 391 2138 391 
Q 2594 391 2855 752 
Q 3116 1113 3116 1747 
z
M 1159 2969 
Q 1341 3281 1617 3432 
Q 1894 3584 2278 3584 
Q 2916 3584 3314 3078 
Q 3713 2572 3713 1747 
Q 3713 922 3314 415 
Q 2916 -91 2278 -91 
Q 1894 -91 1617 61 
Q 1341 213 1159 525 
L 1159 0 
L 581 0 
L 581 4863 
L 1159 4863 
L 1159 2969 
z
" transform="scale(0.015625)"/>
      <path id="DejaVuSans-7a" d="M 353 3500 
L 3084 3500 
L 3084 2975 
L 922 459 
L 3084 459 
L 3084 0 
L 275 0 
L 275 525 
L 2438 3041 
L 353 3041 
L 353 3500 
z
" transform="scale(0.015625)"/>
      <path id="DejaVuSans-36" d="M 2113 2584 
Q 1688 2584 1439 2293 
Q 1191 2003 1191 1497 
Q 1191 994 1439 701 
Q 1688 409 2113 409 
Q 2538 409 2786 701 
Q 3034 994 3034 1497 
Q 3034 2003 2786 2293 
Q 2538 2584 2113 2584 
z
M 3366 4563 
L 3366 3988 
Q 3128 4100 2886 4159 
Q 2644 4219 2406 4219 
Q 1781 4219 1451 3797 
Q 1122 3375 1075 2522 
Q 1259 2794 1537 2939 
Q 1816 3084 2150 3084 
Q 2853 3084 3261 2657 
Q 3669 2231 3669 1497 
Q 3669 778 3244 343 
Q 2819 -91 2113 -91 
Q 1303 -91 875 529 
Q 447 1150 447 2328 
Q 447 3434 972 4092 
Q 1497 4750 2381 4750 
Q 2619 4750 2861 4703 
Q 3103 4656 3366 4563 
z
" transform="scale(0.015625)"/>
      <path id="DejaVuSans-20" transform="scale(0.015625)"/>
      <path id="DejaVuSans-66" d="M 2375 4863 
L 2375 4384 
L 1825 4384 
Q 1516 4384 1395 4259 
Q 1275 4134 1275 3809 
L 1275 3500 
L 2222 3500 
L 2222 3053 
L 1275 3053 
L 1275 0 
L 697 0 
L 697 3053 
L 147 3053 
L 147 3500 
L 697 3500 
L 697 3744 
Q 697 4328 969 4595 
Q 1241 4863 1831 4863 
L 2375 4863 
z
" transform="scale(0.015625)"/>
      <path id="DejaVuSans-70" d="M 1159 525 
L 1159 -1331 
L 581 -1331 
L 581 3500 
L 1159 3500 
L 1159 2969 
Q 1341 3281 1617 3432 
Q 1894 3584 2278 3584 
Q 2916 3584 3314 3078 
Q 3713 2572 3713 1747 
Q 3713 922 3314 415 
Q 2916 -91 2278 -91 
Q 1894 -91 1617 61 
Q 1341 213 1159 525 
z
M 3116 1747 
Q 3116 2381 2855 2742 
Q 2594 3103 2138 3103 
Q 1681 3103 1420 2742 
Q 1159 2381 1159 1747 
Q 1159 1113 1420 752 
Q 1681 391 2138 391 
Q 2594 391 2855 752 
Q 3116 1113 3116 1747 
z
" transform="scale(0.015625)"/>
      <path id="DejaVuSans-68" d="M 3513 2113 
L 3513 0 
L 2938 0 
L 2938 2094 
Q 2938 2591 2744 2837 
Q 2550 3084 2163 3084 
Q 1697 3084 1428 2787 
Q 1159 2491 1159 1978 
L 1159 0 
L 581 0 
L 581 4863 
L 1159 4863 
L 1159 2956 
Q 1366 3272 1645 3428 
Q 1925 3584 2291 3584 
Q 2894 3584 3203 3211 
Q 3513 2838 3513 2113 
z
" transform="scale(0.015625)"/>
      <path id="DejaVuSans-6e" d="M 3513 2113 
L 3513 0 
L 2938 0 
L 2938 2094 
Q 2938 2591 2744 2837 
Q 2550 3084 2163 3084 
Q 1697 3084 1428 2787 
Q 1159 2491 1159 1978 
L 1159 0 
L 581 0 
L 581 3500 
L 1159 3500 
L 1159 2956 
Q 1366 3272 1645 3428 
Q 1925 3584 2291 3584 
Q 2894 3584 3203 3211 
Q 3513 2838 3513 2113 
z
" transform="scale(0.015625)"/>
      <path id="DejaVuSans-28" d="M 1984 4856 
Q 1566 4138 1362 3434 
Q 1159 2731 1159 2009 
Q 1159 1288 1364 580 
Q 1569 -128 1984 -844 
L 1484 -844 
Q 1016 -109 783 600 
Q 550 1309 550 2009 
Q 550 2706 781 3412 
Q 1013 4119 1484 4856 
L 1984 4856 
z
" transform="scale(0.015625)"/>
      <path id="DejaVuSans-63" d="M 3122 3366 
L 3122 2828 
Q 2878 2963 2633 3030 
Q 2388 3097 2138 3097 
Q 1578 3097 1268 2742 
Q 959 2388 959 1747 
Q 959 1106 1268 751 
Q 1578 397 2138 397 
Q 2388 397 2633 464 
Q 2878 531 3122 666 
L 3122 134 
Q 2881 22 2623 -34 
Q 2366 -91 2075 -91 
Q 1284 -91 818 406 
Q 353 903 353 1747 
Q 353 2603 823 3093 
Q 1294 3584 2113 3584 
Q 2378 3584 2631 3529 
Q 2884 3475 3122 3366 
z
" transform="scale(0.015625)"/>
      <path id="DejaVuSans-67" d="M 2906 1791 
Q 2906 2416 2648 2759 
Q 2391 3103 1925 3103 
Q 1463 3103 1205 2759 
Q 947 2416 947 1791 
Q 947 1169 1205 825 
Q 1463 481 1925 481 
Q 2391 481 2648 825 
Q 2906 1169 2906 1791 
z
M 3481 434 
Q 3481 -459 3084 -895 
Q 2688 -1331 1869 -1331 
Q 1566 -1331 1297 -1286 
Q 1028 -1241 775 -1147 
L 775 -588 
Q 1028 -725 1275 -790 
Q 1522 -856 1778 -856 
Q 2344 -856 2625 -561 
Q 2906 -266 2906 331 
L 2906 616 
Q 2728 306 2450 153 
Q 2172 0 1784 0 
Q 1141 0 747 490 
Q 353 981 353 1791 
Q 353 2603 747 3093 
Q 1141 3584 1784 3584 
Q 2172 3584 2450 3431 
Q 2728 3278 2906 2969 
L 2906 3500 
L 3481 3500 
L 3481 434 
z
" transform="scale(0.015625)"/>
      <path id="DejaVuSans-6c" d="M 603 4863 
L 1178 4863 
L 1178 0 
L 603 0 
L 603 4863 
z
" transform="scale(0.015625)"/>
      <path id="DejaVuSans-76" d="M 191 3500 
L 800 3500 
L 1894 563 
L 2988 3500 
L 3597 3500 
L 2284 0 
L 1503 0 
L 191 3500 
z
" transform="scale(0.015625)"/>
      <path id="DejaVuSans-29" d="M 513 4856 
L 1013 4856 
Q 1481 4119 1714 3412 
Q 1947 2706 1947 2009 
Q 1947 1309 1714 600 
Q 1481 -109 1013 -844 
L 513 -844 
Q 928 -128 1133 580 
Q 1338 1288 1338 2009 
Q 1338 2731 1133 3434 
Q 928 4138 513 4856 
z
" transform="scale(0.015625)"/>
      <path id="DejaVuSans-52" d="M 2841 2188 
Q 3044 2119 3236 1894 
Q 3428 1669 3622 1275 
L 4263 0 
L 3584 0 
L 2988 1197 
Q 2756 1666 2539 1819 
Q 2322 1972 1947 1972 
L 1259 1972 
L 1259 0 
L 628 0 
L 628 4666 
L 2053 4666 
Q 2853 4666 3247 4331 
Q 3641 3997 3641 3322 
Q 3641 2881 3436 2590 
Q 3231 2300 2841 2188 
z
M 1259 4147 
L 1259 2491 
L 2053 2491 
Q 2509 2491 2742 2702 
Q 2975 2913 2975 3322 
Q 2975 3731 2742 3939 
Q 2509 4147 2053 4147 
L 1259 4147 
z
" transform="scale(0.015625)"/>
      <path id="DejaVuSans-49" d="M 628 4666 
L 1259 4666 
L 1259 0 
L 628 0 
L 628 4666 
z
" transform="scale(0.015625)"/>
      <path id="DejaVuSans-56" d="M 1831 0 
L 50 4666 
L 709 4666 
L 2188 738 
L 3669 4666 
L 4325 4666 
L 2547 0 
L 1831 0 
z
" transform="scale(0.015625)"/>
      <path id="DejaVuSans-73" d="M 2834 3397 
L 2834 2853 
Q 2591 2978 2328 3040 
Q 2066 3103 1784 3103 
Q 1356 3103 1142 2972 
Q 928 2841 928 2578 
Q 928 2378 1081 2264 
Q 1234 2150 1697 2047 
L 1894 2003 
Q 2506 1872 2764 1633 
Q 3022 1394 3022 966 
Q 3022 478 2636 193 
Q 2250 -91 1575 -91 
Q 1294 -91 989 -36 
Q 684 19 347 128 
L 347 722 
Q 666 556 975 473 
Q 1284 391 1588 391 
Q 1994 391 2212 530 
Q 2431 669 2431 922 
Q 2431 1156 2273 1281 
Q 2116 1406 1581 1522 
L 1381 1569 
Q 847 1681 609 1914 
Q 372 2147 372 2553 
Q 372 3047 722 3315 
Q 1072 3584 1716 3584 
Q 2034 3584 2315 3537 
Q 2597 3491 2834 3397 
z
" transform="scale(0.015625)"/>
      <path id="DejaVuSans-64" d="M 2906 2969 
L 2906 4863 
L 3481 4863 
L 3481 0 
L 2906 0 
L 2906 525 
Q 2725 213 2448 61 
Q 2172 -91 1784 -91 
Q 1150 -91 751 415 
Q 353 922 353 1747 
Q 353 2572 751 3078 
Q 1150 3584 1784 3584 
Q 2172 3584 2448 3432 
Q 2725 3281 2906 2969 
z
M 947 1747 
Q 947 1113 1208 752 
Q 1469 391 1925 391 
Q 2381 391 2643 752 
Q 2906 1113 2906 1747 
Q 2906 2381 2643 2742 
Q 2381 3103 1925 3103 
Q 1469 3103 1208 2742 
Q 947 2381 947 1747 
z
" transform="scale(0.015625)"/>
     </defs>
     <use xlink:href="#DejaVuSans-4b"/>
     <use xlink:href="#DejaVuSans-75" x="60.576172"/>
     <use xlink:href="#DejaVuSans-62" x="123.955078"/>
     <use xlink:href="#DejaVuSans-69" x="187.431641"/>
     <use xlink:href="#DejaVuSans-74" x="215.214844"/>
     <use xlink:href="#DejaVuSans-7a" x="254.423828"/>
     <use xlink:href="#DejaVuSans-61" x="306.914062"/>
     <use xlink:href="#DejaVuSans-32" x="368.193359"/>
     <use xlink:href="#DejaVuSans-30" x="431.816406"/>
     <use xlink:href="#DejaVuSans-30" x="495.439453"/>
     <use xlink:href="#DejaVuSans-36" x="559.0625"/>
     <use xlink:href="#DejaVuSans-20" x="622.685547"/>
     <use xlink:href="#DejaVuSans-66" x="654.472656"/>
     <use xlink:href="#DejaVuSans-6d" x="689.677734"/>
     <use xlink:href="#DejaVuSans-5f" x="787.089844"/>
     <use xlink:href="#DejaVuSans-70" x="837.089844"/>
     <use xlink:href="#DejaVuSans-72" x="900.566406"/>
     <use xlink:href="#DejaVuSans-6f" x="939.429688"/>
     <use xlink:href="#DejaVuSans-74" x="1000.611328"/>
     <use xlink:href="#DejaVuSans-68" x="1039.820312"/>
     <use xlink:href="#DejaVuSans-72" x="1103.199219"/>
     <use xlink:href="#DejaVuSans-6f" x="1142.0625"/>
     <use xlink:href="#DejaVuSans-6d" x="1203.244141"/>
     <use xlink:href="#DejaVuSans-62" x="1300.65625"/>
     <use xlink:href="#DejaVuSans-69" x="1364.132812"/>
     <use xlink:href="#DejaVuSans-6e" x="1391.916016"/>
     <use xlink:href="#DejaVuSans-20" x="1455.294922"/>
     <use xlink:href="#DejaVuSans-74" x="1487.082031"/>
     <use xlink:href="#DejaVuSans-69" x="1526.291016"/>
     <use xlink:href="#DejaVuSans-6d" x="1554.074219"/>
     <use xlink:href="#DejaVuSans-65" x="1651.486328"/>
     <use xlink:href="#DejaVuSans-20" x="1713.009766"/>
     <use xlink:href="#DejaVuSans-28" x="1744.796875"/>
     <use xlink:href="#DejaVuSans-63" x="1783.810547"/>
     <use xlink:href="#DejaVuSans-68" x="1838.791016"/>
     <use xlink:href="#DejaVuSans-61" x="1902.169922"/>
     <use xlink:href="#DejaVuSans-6e" x="1963.449219"/>
     <use xlink:href="#DejaVuSans-67" x="2026.828125"/>
     <use xlink:href="#DejaVuSans-65" x="2090.304688"/>
     <use xlink:href="#DejaVuSans-20" x="2151.828125"/>
     <use xlink:href="#DejaVuSans-72" x="2183.615234"/>
     <use xlink:href="#DejaVuSans-65" x="2222.478516"/>
     <use xlink:href="#DejaVuSans-6c" x="2284.001953"/>
     <use xlink:href="#DejaVuSans-61" x="2311.785156"/>
     <use xlink:href="#DejaVuSans-74" x="2373.064453"/>
     <use xlink:href="#DejaVuSans-69" x="2412.273438"/>
     <use xlink:href="#DejaVuSans-76" x="2440.056641"/>
     <use xlink:href="#DejaVuSans-65" x="2499.236328"/>
     <use xlink:href="#DejaVuSans-29" x="2560.759766"/>
     <use xlink:href="#DejaVuSans-5f" x="2599.773438"/>
     <use xlink:href="#DejaVuSans-52" x="2649.773438"/>
     <use xlink:href="#DejaVuSans-49" x="2719.255859"/>
     <use xlink:href="#DejaVuSans-56" x="2748.748047"/>
     <use xlink:href="#DejaVuSans-31" x="2817.15625"/>
     <use xlink:href="#DejaVuSans-30" x="2880.779297"/>
     <use xlink:href="#DejaVuSans-5f" x="2944.402344"/>
     <use xlink:href="#DejaVuSans-66" x="2994.402344"/>
     <use xlink:href="#DejaVuSans-61" x="3029.607422"/>
     <use xlink:href="#DejaVuSans-73" x="3090.886719"/>
     <use xlink:href="#DejaVuSans-74" x="3142.986328"/>
     <use xlink:href="#DejaVuSans-65" x="3182.195312"/>
     <use xlink:href="#DejaVuSans-64" x="3243.71875"/>
    </g>
   </g>
   <g id="legend_1">
    <g id="patch_7">
     <path d="M 200.586364 80.834375 
L 336.636364 80.834375 
Q 338.636364 80.834375 338.636364 78.834375 
L 338.636364 50.2 
Q 338.636364 48.2 336.636364 48.2 
L 200.586364 48.2 
Q 198.586364 48.2 198.586364 50.2 
L 198.586364 78.834375 
Q 198.586364 80.834375 200.586364 80.834375 
z
" style="fill: #ffffff; opacity: 0.8; stroke: #cccccc; stroke-linejoin: miter"/>
    </g>
    <g id="line2d_15">
     <path d="M 202.586364 56.298437 
L 212.586364 56.298437 
L 222.586364 56.298437 
" style="fill: none; stroke: #0000ff; stroke-width: 1.5; stroke-linecap: square"/>
    </g>
    <g id="text_16">
     <!-- observable -->
     <g transform="translate(230.586364 59.798437) scale(0.1 -0.1)">
      <use xlink:href="#DejaVuSans-6f"/>
      <use xlink:href="#DejaVuSans-62" x="61.181641"/>
      <use xlink:href="#DejaVuSans-73" x="124.658203"/>
      <use xlink:href="#DejaVuSans-65" x="176.757812"/>
      <use xlink:href="#DejaVuSans-72" x="238.28125"/>
      <use xlink:href="#DejaVuSans-76" x="279.394531"/>
      <use xlink:href="#DejaVuSans-61" x="338.574219"/>
      <use xlink:href="#DejaVuSans-62" x="399.853516"/>
      <use xlink:href="#DejaVuSans-6c" x="463.330078"/>
      <use xlink:href="#DejaVuSans-65" x="491.113281"/>
     </g>
    </g>
    <g id="LineCollection_2">
     <path d="M 212.586364 75.976562 
L 212.586364 65.976562 
" style="fill: none; stroke: #000000; stroke-width: 1.5"/>
    </g>
    <g id="line2d_16">
     <path d="M 202.586364 70.976562 
L 222.586364 70.976562 
" style="fill: none; stroke: #000000; stroke-width: 1.5; stroke-linecap: square"/>
    </g>
    <g id="line2d_17">
     <g>
      <use xlink:href="#m51f686623c" x="212.586364" y="70.976562" style="stroke: #000000; stroke-linejoin: miter"/>
     </g>
    </g>
    <g id="text_17">
     <!-- reference_data ± SD -->
     <g transform="translate(230.586364 74.476562) scale(0.1 -0.1)">
      <defs>
       <path id="DejaVuSans-b1" d="M 2944 4013 
L 2944 2803 
L 4684 2803 
L 4684 2272 
L 2944 2272 
L 2944 1063 
L 2419 1063 
L 2419 2272 
L 678 2272 
L 678 2803 
L 2419 2803 
L 2419 4013 
L 2944 4013 
z
M 678 531 
L 4684 531 
L 4684 0 
L 678 0 
L 678 531 
z
" transform="scale(0.015625)"/>
       <path id="DejaVuSans-53" d="M 3425 4513 
L 3425 3897 
Q 3066 4069 2747 4153 
Q 2428 4238 2131 4238 
Q 1616 4238 1336 4038 
Q 1056 3838 1056 3469 
Q 1056 3159 1242 3001 
Q 1428 2844 1947 2747 
L 2328 2669 
Q 3034 2534 3370 2195 
Q 3706 1856 3706 1288 
Q 3706 609 3251 259 
Q 2797 -91 1919 -91 
Q 1588 -91 1214 -16 
Q 841 59 441 206 
L 441 856 
Q 825 641 1194 531 
Q 1563 422 1919 422 
Q 2459 422 2753 634 
Q 3047 847 3047 1241 
Q 3047 1584 2836 1778 
Q 2625 1972 2144 2069 
L 1759 2144 
Q 1053 2284 737 2584 
Q 422 2884 422 3419 
Q 422 4038 858 4394 
Q 1294 4750 2059 4750 
Q 2388 4750 2728 4690 
Q 3069 4631 3425 4513 
z
" transform="scale(0.015625)"/>
       <path id="DejaVuSans-44" d="M 1259 4147 
L 1259 519 
L 2022 519 
Q 2988 519 3436 956 
Q 3884 1394 3884 2338 
Q 3884 3275 3436 3711 
Q 2988 4147 2022 4147 
L 1259 4147 
z
M 628 4666 
L 1925 4666 
Q 3281 4666 3915 4102 
Q 4550 3538 4550 2338 
Q 4550 1131 3912 565 
Q 3275 0 1925 0 
L 628 0 
L 628 4666 
z
" transform="scale(0.015625)"/>
      </defs>
      <use xlink:href="#DejaVuSans-72"/>
      <use xlink:href="#DejaVuSans-65" x="38.863281"/>
      <use xlink:href="#DejaVuSans-66" x="100.386719"/>
      <use xlink:href="#DejaVuSans-65" x="135.591797"/>
      <use xlink:href="#DejaVuSans-72" x="197.115234"/>
      <use xlink:href="#DejaVuSans-65" x="235.978516"/>
      <use xlink:href="#DejaVuSans-6e" x="297.501953"/>
      <use xlink:href="#DejaVuSans-63" x="360.880859"/>
      <use xlink:href="#DejaVuSans-65" x="415.861328"/>
      <use xlink:href="#DejaVuSans-5f" x="477.384766"/>
      <use xlink:href="#DejaVuSans-64" x="527.384766"/>
      <use xlink:href="#DejaVuSans-61" x="590.861328"/>
      <use xlink:href="#DejaVuSans-74" x="652.140625"/>
      <use xlink:href="#DejaVuSans-61" x="691.349609"/>
      <use xlink:href="#DejaVuSans-20" x="752.628906"/>
      <use xlink:href="#DejaVuSans-b1" x="784.416016"/>
      <use xlink:href="#DejaVuSans-20" x="868.205078"/>
      <use xlink:href="#DejaVuSans-53" x="899.992188"/>
      <use xlink:href="#DejaVuSans-44" x="963.46875"/>
     </g>
    </g>
   </g>
  </g>
  <g id="axes_2">
   <g id="patch_8">
    <path d="M 394.363636 320.4 
L 648 320.4 
L 648 43.2 
L 394.363636 43.2 
z
" style="fill: #ffffff"/>
   </g>
   <g id="matplotlib.axis_3">
    <g id="xtick_8">
     <g id="line2d_18">
      <g>
       <use xlink:href="#md3f1f420cb" x="410.873701" y="320.4" style="stroke: #000000; stroke-width: 0.8"/>
      </g>
     </g>
     <g id="text_18">
      <!-- 0 -->
      <g transform="translate(407.692451 334.998438) scale(0.1 -0.1)">
       <use xlink:href="#DejaVuSans-30"/>
      </g>
     </g>
    </g>
    <g id="xtick_9">
     <g id="line2d_19">
      <g>
       <use xlink:href="#md3f1f420cb" x="448.372396" y="320.4" style="stroke: #000000; stroke-width: 0.8"/>
      </g>
     </g>
     <g id="text_19">
      <!-- 250 -->
      <g transform="translate(438.828646 334.998438) scale(0.1 -0.1)">
       <use xlink:href="#DejaVuSans-32"/>
       <use xlink:href="#DejaVuSans-35" x="63.623047"/>
       <use xlink:href="#DejaVuSans-30" x="127.246094"/>
      </g>
     </g>
    </g>
    <g id="xtick_10">
     <g id="line2d_20">
      <g>
       <use xlink:href="#md3f1f420cb" x="485.871091" y="320.4" style="stroke: #000000; stroke-width: 0.8"/>
      </g>
     </g>
     <g id="text_20">
      <!-- 500 -->
      <g transform="translate(476.327341 334.998438) scale(0.1 -0.1)">
       <use xlink:href="#DejaVuSans-35"/>
       <use xlink:href="#DejaVuSans-30" x="63.623047"/>
       <use xlink:href="#DejaVuSans-30" x="127.246094"/>
      </g>
     </g>
    </g>
    <g id="xtick_11">
     <g id="line2d_21">
      <g>
       <use xlink:href="#md3f1f420cb" x="523.369786" y="320.4" style="stroke: #000000; stroke-width: 0.8"/>
      </g>
     </g>
     <g id="text_21">
      <!-- 750 -->
      <g transform="translate(513.826036 334.998438) scale(0.1 -0.1)">
       <use xlink:href="#DejaVuSans-37"/>
       <use xlink:href="#DejaVuSans-35" x="63.623047"/>
       <use xlink:href="#DejaVuSans-30" x="127.246094"/>
      </g>
     </g>
    </g>
    <g id="xtick_12">
     <g id="line2d_22">
      <g>
       <use xlink:href="#md3f1f420cb" x="560.868481" y="320.4" style="stroke: #000000; stroke-width: 0.8"/>
      </g>
     </g>
     <g id="text_22">
      <!-- 1000 -->
      <g transform="translate(548.143481 334.998438) scale(0.1 -0.1)">
       <use xlink:href="#DejaVuSans-31"/>
       <use xlink:href="#DejaVuSans-30" x="63.623047"/>
       <use xlink:href="#DejaVuSans-30" x="127.246094"/>
       <use xlink:href="#DejaVuSans-30" x="190.869141"/>
      </g>
     </g>
    </g>
    <g id="xtick_13">
     <g id="line2d_23">
      <g>
       <use xlink:href="#md3f1f420cb" x="598.367176" y="320.4" style="stroke: #000000; stroke-width: 0.8"/>
      </g>
     </g>
     <g id="text_23">
      <!-- 1250 -->
      <g transform="translate(585.642176 334.998438) scale(0.1 -0.1)">
       <use xlink:href="#DejaVuSans-31"/>
       <use xlink:href="#DejaVuSans-32" x="63.623047"/>
       <use xlink:href="#DejaVuSans-35" x="127.246094"/>
       <use xlink:href="#DejaVuSans-30" x="190.869141"/>
      </g>
     </g>
    </g>
    <g id="xtick_14">
     <g id="line2d_24">
      <g>
       <use xlink:href="#md3f1f420cb" x="635.865871" y="320.4" style="stroke: #000000; stroke-width: 0.8"/>
      </g>
     </g>
     <g id="text_24">
      <!-- 1500 -->
      <g transform="translate(623.140871 334.998438) scale(0.1 -0.1)">
       <use xlink:href="#DejaVuSans-31"/>
       <use xlink:href="#DejaVuSans-35" x="63.623047"/>
       <use xlink:href="#DejaVuSans-30" x="127.246094"/>
       <use xlink:href="#DejaVuSans-30" x="190.869141"/>
      </g>
     </g>
    </g>
    <g id="text_25">
     <!-- time -->
     <g transform="translate(507.626506 350.19625) scale(0.12 -0.12)">
      <use xlink:href="#DejaVuSans-74"/>
      <use xlink:href="#DejaVuSans-69" x="39.208984"/>
      <use xlink:href="#DejaVuSans-6d" x="66.992188"/>
      <use xlink:href="#DejaVuSans-65" x="164.404297"/>
     </g>
    </g>
   </g>
   <g id="matplotlib.axis_4">
    <g id="ytick_6">
     <g id="line2d_25">
      <g>
       <use xlink:href="#m5239d1e7ed" x="394.363636" y="109.559506" style="stroke: #000000; stroke-width: 0.8"/>
      </g>
     </g>
     <g id="text_26">
      <!-- $\mathdefault{10^{0}}$ -->
      <g transform="translate(369.763636 113.358725) scale(0.1 -0.1)">
       <use xlink:href="#DejaVuSans-31" transform="translate(0 0.765625)"/>
       <use xlink:href="#DejaVuSans-30" transform="translate(63.623047 0.765625)"/>
       <use xlink:href="#DejaVuSans-30" transform="translate(128.203125 39.046875) scale(0.7)"/>
      </g>
     </g>
    </g>
    <g id="ytick_7">
     <g id="line2d_26">
      <defs>
       <path id="mce60e88624" d="M 0 0 
L -2 0 
" style="stroke: #000000; stroke-width: 0.6"/>
      </defs>
      <g>
       <use xlink:href="#mce60e88624" x="394.363636" y="319.600951" style="stroke: #000000; stroke-width: 0.6"/>
      </g>
     </g>
     <g id="text_27">
      <!-- $\mathdefault{3\times10^{-1}}$ -->
      <g transform="translate(346.863636 323.40017) scale(0.1 -0.1)">
       <defs>
        <path id="DejaVuSans-d7" d="M 4488 3438 
L 3059 2003 
L 4488 575 
L 4116 197 
L 2681 1631 
L 1247 197 
L 878 575 
L 2303 2003 
L 878 3438 
L 1247 3816 
L 2681 2381 
L 4116 3816 
L 4488 3438 
z
" transform="scale(0.015625)"/>
        <path id="DejaVuSans-2212" d="M 678 2272 
L 4684 2272 
L 4684 1741 
L 678 1741 
L 678 2272 
z
" transform="scale(0.015625)"/>
       </defs>
       <use xlink:href="#DejaVuSans-33" transform="translate(0 0.684375)"/>
       <use xlink:href="#DejaVuSans-d7" transform="translate(83.105469 0.684375)"/>
       <use xlink:href="#DejaVuSans-31" transform="translate(186.376953 0.684375)"/>
       <use xlink:href="#DejaVuSans-30" transform="translate(250 0.684375)"/>
       <use xlink:href="#DejaVuSans-2212" transform="translate(314.580078 38.965625) scale(0.7)"/>
       <use xlink:href="#DejaVuSans-31" transform="translate(373.232422 38.965625) scale(0.7)"/>
      </g>
     </g>
    </g>
    <g id="ytick_8">
     <g id="line2d_27">
      <g>
       <use xlink:href="#mce60e88624" x="394.363636" y="269.412809" style="stroke: #000000; stroke-width: 0.6"/>
      </g>
     </g>
     <g id="text_28">
      <!-- $\mathdefault{4\times10^{-1}}$ -->
      <g transform="translate(346.863636 273.212028) scale(0.1 -0.1)">
       <use xlink:href="#DejaVuSans-34" transform="translate(0 0.684375)"/>
       <use xlink:href="#DejaVuSans-d7" transform="translate(83.105469 0.684375)"/>
       <use xlink:href="#DejaVuSans-31" transform="translate(186.376953 0.684375)"/>
       <use xlink:href="#DejaVuSans-30" transform="translate(250 0.684375)"/>
       <use xlink:href="#DejaVuSans-2212" transform="translate(314.580078 38.965625) scale(0.7)"/>
       <use xlink:href="#DejaVuSans-31" transform="translate(373.232422 38.965625) scale(0.7)"/>
      </g>
     </g>
    </g>
    <g id="ytick_9">
     <g id="line2d_28">
      <g>
       <use xlink:href="#mce60e88624" x="394.363636" y="230.483862" style="stroke: #000000; stroke-width: 0.6"/>
      </g>
     </g>
    </g>
    <g id="ytick_10">
     <g id="line2d_29">
      <g>
       <use xlink:href="#mce60e88624" x="394.363636" y="198.676596" style="stroke: #000000; stroke-width: 0.6"/>
      </g>
     </g>
     <g id="text_29">
      <!-- $\mathdefault{6\times10^{-1}}$ -->
      <g transform="translate(346.863636 202.475814) scale(0.1 -0.1)">
       <use xlink:href="#DejaVuSans-36" transform="translate(0 0.684375)"/>
       <use xlink:href="#DejaVuSans-d7" transform="translate(83.105469 0.684375)"/>
       <use xlink:href="#DejaVuSans-31" transform="translate(186.376953 0.684375)"/>
       <use xlink:href="#DejaVuSans-30" transform="translate(250 0.684375)"/>
       <use xlink:href="#DejaVuSans-2212" transform="translate(314.580078 38.965625) scale(0.7)"/>
       <use xlink:href="#DejaVuSans-31" transform="translate(373.232422 38.965625) scale(0.7)"/>
      </g>
     </g>
    </g>
    <g id="ytick_11">
     <g id="line2d_30">
      <g>
       <use xlink:href="#mce60e88624" x="394.363636" y="171.783935" style="stroke: #000000; stroke-width: 0.6"/>
      </g>
     </g>
    </g>
    <g id="ytick_12">
     <g id="line2d_31">
      <g>
       <use xlink:href="#mce60e88624" x="394.363636" y="148.488454" style="stroke: #000000; stroke-width: 0.6"/>
      </g>
     </g>
    </g>
    <g id="ytick_13">
     <g id="line2d_32">
      <g>
       <use xlink:href="#mce60e88624" x="394.363636" y="127.940382" style="stroke: #000000; stroke-width: 0.6"/>
      </g>
     </g>
    </g>
    <g id="text_30">
     <!-- PT_ratio -->
     <g transform="translate(340.034261 205.91625) rotate(-90) scale(0.12 -0.12)">
      <use xlink:href="#DejaVuSans-50"/>
      <use xlink:href="#DejaVuSans-54" x="60.302734"/>
      <use xlink:href="#DejaVuSans-5f" x="121.386719"/>
      <use xlink:href="#DejaVuSans-72" x="171.386719"/>
      <use xlink:href="#DejaVuSans-61" x="212.5"/>
      <use xlink:href="#DejaVuSans-74" x="273.779297"/>
      <use xlink:href="#DejaVuSans-69" x="312.988281"/>
      <use xlink:href="#DejaVuSans-6f" x="340.771484"/>
     </g>
    </g>
   </g>
   <g id="LineCollection_3">
    <path d="M 415.5 104.891483 
L 415.5 99.614271 
" clip-path="url(#pa84c509780)" style="fill: none; stroke: #000000; stroke-width: 1.5"/>
    <path d="M 417.73734 93.380572 
L 417.73734 67.4087 
" clip-path="url(#pa84c509780)" style="fill: none; stroke: #000000; stroke-width: 1.5"/>
    <path d="M 419.926263 83.938713 
L 419.926263 55.15972 
" clip-path="url(#pa84c509780)" style="fill: none; stroke: #000000; stroke-width: 1.5"/>
    <path d="M 422.043837 80.567459 
L 422.043837 58.07634 
" clip-path="url(#pa84c509780)" style="fill: none; stroke: #000000; stroke-width: 1.5"/>
    <path d="M 424.529628 73.372337 
L 424.529628 61.043326 
" clip-path="url(#pa84c509780)" style="fill: none; stroke: #000000; stroke-width: 1.5"/>
    <path d="M 427.365801 67.69844 
L 427.365801 62.248617 
" clip-path="url(#pa84c509780)" style="fill: none; stroke: #000000; stroke-width: 1.5"/>
    <path d="M 428.769872 87.029567 
L 428.769872 48.668857 
" clip-path="url(#pa84c509780)" style="fill: none; stroke: #000000; stroke-width: 1.5"/>
    <path d="M 431.219988 87.029567 
L 431.219988 53.755235 
" clip-path="url(#pa84c509780)" style="fill: none; stroke: #000000; stroke-width: 1.5"/>
    <path d="M 433.388526 69.56931 
L 433.388526 52.902821 
" clip-path="url(#pa84c509780)" style="fill: none; stroke: #000000; stroke-width: 1.5"/>
    <path d="M 435.879414 69.256102 
L 435.879414 47.577257 
" clip-path="url(#pa84c509780)" style="fill: none; stroke: #000000; stroke-width: 1.5"/>
    <path d="M 437.644058 67.69844 
L 437.644058 48.970357 
" clip-path="url(#pa84c509780)" style="fill: none; stroke: #000000; stroke-width: 1.5"/>
    <path d="M 442.232134 70.512323 
L 442.232134 46.492445 
" clip-path="url(#pa84c509780)" style="fill: none; stroke: #000000; stroke-width: 1.5"/>
    <path d="M 447.147656 74.658662 
L 447.147656 50.11157 
" clip-path="url(#pa84c509780)" style="fill: none; stroke: #000000; stroke-width: 1.5"/>
    <path d="M 464.763522 82.244943 
L 464.763522 53.845362 
" clip-path="url(#pa84c509780)" style="fill: none; stroke: #000000; stroke-width: 1.5"/>
    <path d="M 482.315683 93.021607 
L 482.315683 72.950372 
" clip-path="url(#pa84c509780)" style="fill: none; stroke: #000000; stroke-width: 1.5"/>
    <path d="M 518.905618 112.341339 
L 518.905618 93.748238 
" clip-path="url(#pa84c509780)" style="fill: none; stroke: #000000; stroke-width: 1.5"/>
    <path d="M 545.710376 111.941208 
L 545.710376 100.823324 
" clip-path="url(#pa84c509780)" style="fill: none; stroke: #000000; stroke-width: 1.5"/>
    <path d="M 626.863636 111.541993 
L 626.863636 109.183091 
" clip-path="url(#pa84c509780)" style="fill: none; stroke: #000000; stroke-width: 1.5"/>
   </g>
   <g id="line2d_33">
    <path d="M 410.873701 109.559506 
L 411.238598 109.463049 
L 411.590086 109.11544 
L 412.113534 108.196004 
L 412.776103 106.533261 
L 413.843787 103.192838 
L 416.998059 92.938407 
L 418.44006 89.11388 
L 419.88206 85.989463 
L 421.324061 83.516892 
L 422.766061 81.613929 
L 424.263478 80.146114 
L 425.760895 79.10541 
L 427.258312 78.411719 
L 428.755729 77.997539 
L 430.253146 77.807172 
L 432.191871 77.819965 
L 434.571905 78.132296 
L 436.951938 78.673228 
L 440.521989 79.753619 
L 445.282056 81.45466 
L 461.537006 87.479786 
L 467.899878 89.6058 
L 476.151861 92.103401 
L 481.653183 93.609615 
L 491.384082 95.98521 
L 498.381703 97.484667 
L 505.379323 98.826953 
L 515.542035 100.526308 
L 527.442691 102.188799 
L 539.343347 103.553817 
L 553.230396 104.837343 
L 565.136955 105.720875 
L 582.996793 106.749921 
L 600.856631 107.505677 
L 618.716469 108.05952 
L 642.529586 108.573957 
L 672.295983 108.977138 
L 680.864305 109.058373 
L 680.864305 109.058373 
" clip-path="url(#pa84c509780)" style="fill: none; stroke: #0000ff; stroke-width: 1.5; stroke-linecap: square"/>
   </g>
   <g id="line2d_34">
    <path d="M 415.5 102.232923 
L 417.73734 79.911769 
L 419.926263 68.956454 
L 422.043837 68.959704 
L 424.529628 67.098942 
L 427.365801 64.952249 
L 428.769872 66.796954 
L 431.219988 69.600295 
L 433.388526 61.037115 
L 435.879414 58.080156 
L 437.644058 58.08321 
L 442.232134 58.089317 
L 447.147656 61.953732 
L 464.763522 67.467899 
L 482.315683 82.6975 
L 518.905618 102.797206 
L 545.710376 106.293715 
L 626.863636 110.358555 
" clip-path="url(#pa84c509780)" style="fill: none; stroke: #000000; stroke-width: 1.5; stroke-linecap: square"/>
    <g clip-path="url(#pa84c509780)">
     <use xlink:href="#m51f686623c" x="415.5" y="102.232923" style="stroke: #000000; stroke-linejoin: miter"/>
     <use xlink:href="#m51f686623c" x="417.73734" y="79.911769" style="stroke: #000000; stroke-linejoin: miter"/>
     <use xlink:href="#m51f686623c" x="419.926263" y="68.956454" style="stroke: #000000; stroke-linejoin: miter"/>
     <use xlink:href="#m51f686623c" x="422.043837" y="68.959704" style="stroke: #000000; stroke-linejoin: miter"/>
     <use xlink:href="#m51f686623c" x="424.529628" y="67.098942" style="stroke: #000000; stroke-linejoin: miter"/>
     <use xlink:href="#m51f686623c" x="427.365801" y="64.952249" style="stroke: #000000; stroke-linejoin: miter"/>
     <use xlink:href="#m51f686623c" x="428.769872" y="66.796954" style="stroke: #000000; stroke-linejoin: miter"/>
     <use xlink:href="#m51f686623c" x="431.219988" y="69.600295" style="stroke: #000000; stroke-linejoin: miter"/>
     <use xlink:href="#m51f686623c" x="433.388526" y="61.037115" style="stroke: #000000; stroke-linejoin: miter"/>
     <use xlink:href="#m51f686623c" x="435.879414" y="58.080156" style="stroke: #000000; stroke-linejoin: miter"/>
     <use xlink:href="#m51f686623c" x="437.644058" y="58.08321" style="stroke: #000000; stroke-linejoin: miter"/>
     <use xlink:href="#m51f686623c" x="442.232134" y="58.089317" style="stroke: #000000; stroke-linejoin: miter"/>
     <use xlink:href="#m51f686623c" x="447.147656" y="61.953732" style="stroke: #000000; stroke-linejoin: miter"/>
     <use xlink:href="#m51f686623c" x="464.763522" y="67.467899" style="stroke: #000000; stroke-linejoin: miter"/>
     <use xlink:href="#m51f686623c" x="482.315683" y="82.6975" style="stroke: #000000; stroke-linejoin: miter"/>
     <use xlink:href="#m51f686623c" x="518.905618" y="102.797206" style="stroke: #000000; stroke-linejoin: miter"/>
     <use xlink:href="#m51f686623c" x="545.710376" y="106.293715" style="stroke: #000000; stroke-linejoin: miter"/>
     <use xlink:href="#m51f686623c" x="626.863636" y="110.358555" style="stroke: #000000; stroke-linejoin: miter"/>
    </g>
   </g>
   <g id="patch_9">
    <path d="M 394.363636 320.4 
L 394.363636 43.2 
" style="fill: none; stroke: #000000; stroke-width: 0.8; stroke-linejoin: miter; stroke-linecap: square"/>
   </g>
   <g id="patch_10">
    <path d="M 648 320.4 
L 648 43.2 
" style="fill: none; stroke: #000000; stroke-width: 0.8; stroke-linejoin: miter; stroke-linecap: square"/>
   </g>
   <g id="patch_11">
    <path d="M 394.363636 320.4 
L 648 320.4 
" style="fill: none; stroke: #000000; stroke-width: 0.8; stroke-linejoin: miter; stroke-linecap: square"/>
   </g>
   <g id="patch_12">
    <path d="M 394.363636 43.2 
L 648 43.2 
" style="fill: none; stroke: #000000; stroke-width: 0.8; stroke-linejoin: miter; stroke-linecap: square"/>
   </g>
   <g id="text_31">
    <!-- Kubitza2006 fm_prothrombin time (change relative)_RIV10_fasted -->
    <g transform="translate(289.677599 37.2) scale(0.14 -0.14)">
     <use xlink:href="#DejaVuSans-4b"/>
     <use xlink:href="#DejaVuSans-75" x="60.576172"/>
     <use xlink:href="#DejaVuSans-62" x="123.955078"/>
     <use xlink:href="#DejaVuSans-69" x="187.431641"/>
     <use xlink:href="#DejaVuSans-74" x="215.214844"/>
     <use xlink:href="#DejaVuSans-7a" x="254.423828"/>
     <use xlink:href="#DejaVuSans-61" x="306.914062"/>
     <use xlink:href="#DejaVuSans-32" x="368.193359"/>
     <use xlink:href="#DejaVuSans-30" x="431.816406"/>
     <use xlink:href="#DejaVuSans-30" x="495.439453"/>
     <use xlink:href="#DejaVuSans-36" x="559.0625"/>
     <use xlink:href="#DejaVuSans-20" x="622.685547"/>
     <use xlink:href="#DejaVuSans-66" x="654.472656"/>
     <use xlink:href="#DejaVuSans-6d" x="689.677734"/>
     <use xlink:href="#DejaVuSans-5f" x="787.089844"/>
     <use xlink:href="#DejaVuSans-70" x="837.089844"/>
     <use xlink:href="#DejaVuSans-72" x="900.566406"/>
     <use xlink:href="#DejaVuSans-6f" x="939.429688"/>
     <use xlink:href="#DejaVuSans-74" x="1000.611328"/>
     <use xlink:href="#DejaVuSans-68" x="1039.820312"/>
     <use xlink:href="#DejaVuSans-72" x="1103.199219"/>
     <use xlink:href="#DejaVuSans-6f" x="1142.0625"/>
     <use xlink:href="#DejaVuSans-6d" x="1203.244141"/>
     <use xlink:href="#DejaVuSans-62" x="1300.65625"/>
     <use xlink:href="#DejaVuSans-69" x="1364.132812"/>
     <use xlink:href="#DejaVuSans-6e" x="1391.916016"/>
     <use xlink:href="#DejaVuSans-20" x="1455.294922"/>
     <use xlink:href="#DejaVuSans-74" x="1487.082031"/>
     <use xlink:href="#DejaVuSans-69" x="1526.291016"/>
     <use xlink:href="#DejaVuSans-6d" x="1554.074219"/>
     <use xlink:href="#DejaVuSans-65" x="1651.486328"/>
     <use xlink:href="#DejaVuSans-20" x="1713.009766"/>
     <use xlink:href="#DejaVuSans-28" x="1744.796875"/>
     <use xlink:href="#DejaVuSans-63" x="1783.810547"/>
     <use xlink:href="#DejaVuSans-68" x="1838.791016"/>
     <use xlink:href="#DejaVuSans-61" x="1902.169922"/>
     <use xlink:href="#DejaVuSans-6e" x="1963.449219"/>
     <use xlink:href="#DejaVuSans-67" x="2026.828125"/>
     <use xlink:href="#DejaVuSans-65" x="2090.304688"/>
     <use xlink:href="#DejaVuSans-20" x="2151.828125"/>
     <use xlink:href="#DejaVuSans-72" x="2183.615234"/>
     <use xlink:href="#DejaVuSans-65" x="2222.478516"/>
     <use xlink:href="#DejaVuSans-6c" x="2284.001953"/>
     <use xlink:href="#DejaVuSans-61" x="2311.785156"/>
     <use xlink:href="#DejaVuSans-74" x="2373.064453"/>
     <use xlink:href="#DejaVuSans-69" x="2412.273438"/>
     <use xlink:href="#DejaVuSans-76" x="2440.056641"/>
     <use xlink:href="#DejaVuSans-65" x="2499.236328"/>
     <use xlink:href="#DejaVuSans-29" x="2560.759766"/>
     <use xlink:href="#DejaVuSans-5f" x="2599.773438"/>
     <use xlink:href="#DejaVuSans-52" x="2649.773438"/>
     <use xlink:href="#DejaVuSans-49" x="2719.255859"/>
     <use xlink:href="#DejaVuSans-56" x="2748.748047"/>
     <use xlink:href="#DejaVuSans-31" x="2817.15625"/>
     <use xlink:href="#DejaVuSans-30" x="2880.779297"/>
     <use xlink:href="#DejaVuSans-5f" x="2944.402344"/>
     <use xlink:href="#DejaVuSans-66" x="2994.402344"/>
     <use xlink:href="#DejaVuSans-61" x="3029.607422"/>
     <use xlink:href="#DejaVuSans-73" x="3090.886719"/>
     <use xlink:href="#DejaVuSans-74" x="3142.986328"/>
     <use xlink:href="#DejaVuSans-65" x="3182.195312"/>
     <use xlink:href="#DejaVuSans-64" x="3243.71875"/>
    </g>
   </g>
   <g id="legend_2">
    <g id="patch_13">
     <path d="M 504.95 80.834375 
L 641 80.834375 
Q 643 80.834375 643 78.834375 
L 643 50.2 
Q 643 48.2 641 48.2 
L 504.95 48.2 
Q 502.95 48.2 502.95 50.2 
L 502.95 78.834375 
Q 502.95 80.834375 504.95 80.834375 
z
" style="fill: #ffffff; opacity: 0.8; stroke: #cccccc; stroke-linejoin: miter"/>
    </g>
    <g id="line2d_35">
     <path d="M 506.95 56.298437 
L 516.95 56.298437 
L 526.95 56.298437 
" style="fill: none; stroke: #0000ff; stroke-width: 1.5; stroke-linecap: square"/>
    </g>
    <g id="text_32">
     <!-- observable -->
     <g transform="translate(534.95 59.798437) scale(0.1 -0.1)">
      <use xlink:href="#DejaVuSans-6f"/>
      <use xlink:href="#DejaVuSans-62" x="61.181641"/>
      <use xlink:href="#DejaVuSans-73" x="124.658203"/>
      <use xlink:href="#DejaVuSans-65" x="176.757812"/>
      <use xlink:href="#DejaVuSans-72" x="238.28125"/>
      <use xlink:href="#DejaVuSans-76" x="279.394531"/>
      <use xlink:href="#DejaVuSans-61" x="338.574219"/>
      <use xlink:href="#DejaVuSans-62" x="399.853516"/>
      <use xlink:href="#DejaVuSans-6c" x="463.330078"/>
      <use xlink:href="#DejaVuSans-65" x="491.113281"/>
     </g>
    </g>
    <g id="LineCollection_4">
     <path d="M 516.95 75.976562 
L 516.95 65.976562 
" style="fill: none; stroke: #000000; stroke-width: 1.5"/>
    </g>
    <g id="line2d_36">
     <path d="M 506.95 70.976562 
L 526.95 70.976562 
" style="fill: none; stroke: #000000; stroke-width: 1.5; stroke-linecap: square"/>
    </g>
    <g id="line2d_37">
     <g>
      <use xlink:href="#m51f686623c" x="516.95" y="70.976562" style="stroke: #000000; stroke-linejoin: miter"/>
     </g>
    </g>
    <g id="text_33">
     <!-- reference_data ± SD -->
     <g transform="translate(534.95 74.476562) scale(0.1 -0.1)">
      <use xlink:href="#DejaVuSans-72"/>
      <use xlink:href="#DejaVuSans-65" x="38.863281"/>
      <use xlink:href="#DejaVuSans-66" x="100.386719"/>
      <use xlink:href="#DejaVuSans-65" x="135.591797"/>
      <use xlink:href="#DejaVuSans-72" x="197.115234"/>
      <use xlink:href="#DejaVuSans-65" x="235.978516"/>
      <use xlink:href="#DejaVuSans-6e" x="297.501953"/>
      <use xlink:href="#DejaVuSans-63" x="360.880859"/>
      <use xlink:href="#DejaVuSans-65" x="415.861328"/>
      <use xlink:href="#DejaVuSans-5f" x="477.384766"/>
      <use xlink:href="#DejaVuSans-64" x="527.384766"/>
      <use xlink:href="#DejaVuSans-61" x="590.861328"/>
      <use xlink:href="#DejaVuSans-74" x="652.140625"/>
      <use xlink:href="#DejaVuSans-61" x="691.349609"/>
      <use xlink:href="#DejaVuSans-20" x="752.628906"/>
      <use xlink:href="#DejaVuSans-b1" x="784.416016"/>
      <use xlink:href="#DejaVuSans-20" x="868.205078"/>
      <use xlink:href="#DejaVuSans-53" x="899.992188"/>
      <use xlink:href="#DejaVuSans-44" x="963.46875"/>
     </g>
    </g>
   </g>
  </g>
 </g>
 <defs>
  <clipPath id="pab392a4b7e">
   <rect x="90" y="43.2" width="253.636364" height="277.2"/>
  </clipPath>
  <clipPath id="pa84c509780">
   <rect x="394.363636" y="43.2" width="253.636364" height="277.2"/>
  </clipPath>
 </defs>
</svg>
