<?xml version="1.0" encoding="utf-8" standalone="no"?>
<!DOCTYPE svg PUBLIC "-//W3C//DTD SVG 1.1//EN"
  "http://www.w3.org/Graphics/SVG/1.1/DTD/svg11.dtd">
<svg xmlns:xlink="http://www.w3.org/1999/xlink" width="720pt" height="360pt" viewBox="0 0 720 360" xmlns="http://www.w3.org/2000/svg" version="1.1">
 <metadata>
  <rdf:RDF xmlns:dc="http://purl.org/dc/elements/1.1/" xmlns:cc="http://creativecommons.org/ns#" xmlns:rdf="http://www.w3.org/1999/02/22-rdf-syntax-ns#">
   <cc:Work>
    <dc:type rdf:resource="http://purl.org/dc/dcmitype/StillImage"/>
    <dc:date>2025-07-17T16:26:41.819665</dc:date>
    <dc:format>image/svg+xml</dc:format>
    <dc:creator>
     <cc:Agent>
      <dc:title>Matplotlib v3.9.1, https://matplotlib.org/</dc:title>
     </cc:Agent>
    </dc:creator>
   </cc:Work>
  </rdf:RDF>
 </metadata>
 <defs>
  <style type="text/css">*{stroke-linejoin: round; stroke-linecap: butt}</style>
 </defs>
 <g id="figure_1">
  <g id="patch_1">
   <path d="M 0 360 
L 720 360 
L 720 0 
L 0 0 
z
" style="fill: #ffffff"/>
  </g>
  <g id="axes_1">
   <g id="patch_2">
    <path d="M 90 320.4 
L 343.636364 320.4 
L 343.636364 43.2 
L 90 43.2 
z
" style="fill: #ffffff"/>
   </g>
   <g id="matplotlib.axis_1">
    <g id="xtick_1">
     <g id="line2d_1">
      <defs>
       <path id="mbf7c61a944" d="M 0 0 
L 0 3.5 
" style="stroke: #000000; stroke-width: 0.8"/>
      </defs>
      <g>
       <use xlink:href="#mbf7c61a944" x="103.96216" y="320.4" style="stroke: #000000; stroke-width: 0.8"/>
      </g>
     </g>
     <g id="text_1">
      <!-- 0 -->
      <g transform="translate(100.78091 334.998438) scale(0.1 -0.1)">
       <defs>
        <path id="DejaVuSans-30" d="M 2034 4250 
Q 1547 4250 1301 3770 
Q 1056 3291 1056 2328 
Q 1056 1369 1301 889 
Q 1547 409 2034 409 
Q 2525 409 2770 889 
Q 3016 1369 3016 2328 
Q 3016 3291 2770 3770 
Q 2525 4250 2034 4250 
z
M 2034 4750 
Q 2819 4750 3233 4129 
Q 3647 3509 3647 2328 
Q 3647 1150 3233 529 
Q 2819 -91 2034 -91 
Q 1250 -91 836 529 
Q 422 1150 422 2328 
Q 422 3509 836 4129 
Q 1250 4750 2034 4750 
z
" transform="scale(0.015625)"/>
       </defs>
       <use xlink:href="#DejaVuSans-30"/>
      </g>
     </g>
    </g>
    <g id="xtick_2">
     <g id="line2d_2">
      <g>
       <use xlink:href="#mbf7c61a944" x="141.902757" y="320.4" style="stroke: #000000; stroke-width: 0.8"/>
      </g>
     </g>
     <g id="text_2">
      <!-- 250 -->
      <g transform="translate(132.359007 334.998438) scale(0.1 -0.1)">
       <defs>
        <path id="DejaVuSans-32" d="M 1228 531 
L 3431 531 
L 3431 0 
L 469 0 
L 469 531 
Q 828 903 1448 1529 
Q 2069 2156 2228 2338 
Q 2531 2678 2651 2914 
Q 2772 3150 2772 3378 
Q 2772 3750 2511 3984 
Q 2250 4219 1831 4219 
Q 1534 4219 1204 4116 
Q 875 4013 500 3803 
L 500 4441 
Q 881 4594 1212 4672 
Q 1544 4750 1819 4750 
Q 2544 4750 2975 4387 
Q 3406 4025 3406 3419 
Q 3406 3131 3298 2873 
Q 3191 2616 2906 2266 
Q 2828 2175 2409 1742 
Q 1991 1309 1228 531 
z
" transform="scale(0.015625)"/>
        <path id="DejaVuSans-35" d="M 691 4666 
L 3169 4666 
L 3169 4134 
L 1269 4134 
L 1269 2991 
Q 1406 3038 1543 3061 
Q 1681 3084 1819 3084 
Q 2600 3084 3056 2656 
Q 3513 2228 3513 1497 
Q 3513 744 3044 326 
Q 2575 -91 1722 -91 
Q 1428 -91 1123 -41 
Q 819 9 494 109 
L 494 744 
Q 775 591 1075 516 
Q 1375 441 1709 441 
Q 2250 441 2565 725 
Q 2881 1009 2881 1497 
Q 2881 1984 2565 2268 
Q 2250 2553 1709 2553 
Q 1456 2553 1204 2497 
Q 953 2441 691 2322 
L 691 4666 
z
" transform="scale(0.015625)"/>
       </defs>
       <use xlink:href="#DejaVuSans-32"/>
       <use xlink:href="#DejaVuSans-35" x="63.623047"/>
       <use xlink:href="#DejaVuSans-30" x="127.246094"/>
      </g>
     </g>
    </g>
    <g id="xtick_3">
     <g id="line2d_3">
      <g>
       <use xlink:href="#mbf7c61a944" x="179.843354" y="320.4" style="stroke: #000000; stroke-width: 0.8"/>
      </g>
     </g>
     <g id="text_3">
      <!-- 500 -->
      <g transform="translate(170.299604 334.998438) scale(0.1 -0.1)">
       <use xlink:href="#DejaVuSans-35"/>
       <use xlink:href="#DejaVuSans-30" x="63.623047"/>
       <use xlink:href="#DejaVuSans-30" x="127.246094"/>
      </g>
     </g>
    </g>
    <g id="xtick_4">
     <g id="line2d_4">
      <g>
       <use xlink:href="#mbf7c61a944" x="217.783952" y="320.4" style="stroke: #000000; stroke-width: 0.8"/>
      </g>
     </g>
     <g id="text_4">
      <!-- 750 -->
      <g transform="translate(208.240202 334.998438) scale(0.1 -0.1)">
       <defs>
        <path id="DejaVuSans-37" d="M 525 4666 
L 3525 4666 
L 3525 4397 
L 1831 0 
L 1172 0 
L 2766 4134 
L 525 4134 
L 525 4666 
z
" transform="scale(0.015625)"/>
       </defs>
       <use xlink:href="#DejaVuSans-37"/>
       <use xlink:href="#DejaVuSans-35" x="63.623047"/>
       <use xlink:href="#DejaVuSans-30" x="127.246094"/>
      </g>
     </g>
    </g>
    <g id="xtick_5">
     <g id="line2d_5">
      <g>
       <use xlink:href="#mbf7c61a944" x="255.724549" y="320.4" style="stroke: #000000; stroke-width: 0.8"/>
      </g>
     </g>
     <g id="text_5">
      <!-- 1000 -->
      <g transform="translate(242.999549 334.998438) scale(0.1 -0.1)">
       <defs>
        <path id="DejaVuSans-31" d="M 794 531 
L 1825 531 
L 1825 4091 
L 703 3866 
L 703 4441 
L 1819 4666 
L 2450 4666 
L 2450 531 
L 3481 531 
L 3481 0 
L 794 0 
L 794 531 
z
" transform="scale(0.015625)"/>
       </defs>
       <use xlink:href="#DejaVuSans-31"/>
       <use xlink:href="#DejaVuSans-30" x="63.623047"/>
       <use xlink:href="#DejaVuSans-30" x="127.246094"/>
       <use xlink:href="#DejaVuSans-30" x="190.869141"/>
      </g>
     </g>
    </g>
    <g id="xtick_6">
     <g id="line2d_6">
      <g>
       <use xlink:href="#mbf7c61a944" x="293.665146" y="320.4" style="stroke: #000000; stroke-width: 0.8"/>
      </g>
     </g>
     <g id="text_6">
      <!-- 1250 -->
      <g transform="translate(280.940146 334.998438) scale(0.1 -0.1)">
       <use xlink:href="#DejaVuSans-31"/>
       <use xlink:href="#DejaVuSans-32" x="63.623047"/>
       <use xlink:href="#DejaVuSans-35" x="127.246094"/>
       <use xlink:href="#DejaVuSans-30" x="190.869141"/>
      </g>
     </g>
    </g>
    <g id="xtick_7">
     <g id="line2d_7">
      <g>
       <use xlink:href="#mbf7c61a944" x="331.605743" y="320.4" style="stroke: #000000; stroke-width: 0.8"/>
      </g>
     </g>
     <g id="text_7">
      <!-- 1500 -->
      <g transform="translate(318.880743 334.998438) scale(0.1 -0.1)">
       <use xlink:href="#DejaVuSans-31"/>
       <use xlink:href="#DejaVuSans-35" x="63.623047"/>
       <use xlink:href="#DejaVuSans-30" x="127.246094"/>
       <use xlink:href="#DejaVuSans-30" x="190.869141"/>
      </g>
     </g>
    </g>
    <g id="text_8">
     <!-- time -->
     <g transform="translate(203.262869 350.19625) scale(0.12 -0.12)">
      <defs>
       <path id="DejaVuSans-74" d="M 1172 4494 
L 1172 3500 
L 2356 3500 
L 2356 3053 
L 1172 3053 
L 1172 1153 
Q 1172 725 1289 603 
Q 1406 481 1766 481 
L 2356 481 
L 2356 0 
L 1766 0 
Q 1100 0 847 248 
Q 594 497 594 1153 
L 594 3053 
L 172 3053 
L 172 3500 
L 594 3500 
L 594 4494 
L 1172 4494 
z
" transform="scale(0.015625)"/>
       <path id="DejaVuSans-69" d="M 603 3500 
L 1178 3500 
L 1178 0 
L 603 0 
L 603 3500 
z
M 603 4863 
L 1178 4863 
L 1178 4134 
L 603 4134 
L 603 4863 
z
" transform="scale(0.015625)"/>
       <path id="DejaVuSans-6d" d="M 3328 2828 
Q 3544 3216 3844 3400 
Q 4144 3584 4550 3584 
Q 5097 3584 5394 3201 
Q 5691 2819 5691 2113 
L 5691 0 
L 5113 0 
L 5113 2094 
Q 5113 2597 4934 2840 
Q 4756 3084 4391 3084 
Q 3944 3084 3684 2787 
Q 3425 2491 3425 1978 
L 3425 0 
L 2847 0 
L 2847 2094 
Q 2847 2600 2669 2842 
Q 2491 3084 2119 3084 
Q 1678 3084 1418 2786 
Q 1159 2488 1159 1978 
L 1159 0 
L 581 0 
L 581 3500 
L 1159 3500 
L 1159 2956 
Q 1356 3278 1631 3431 
Q 1906 3584 2284 3584 
Q 2666 3584 2933 3390 
Q 3200 3197 3328 2828 
z
" transform="scale(0.015625)"/>
       <path id="DejaVuSans-65" d="M 3597 1894 
L 3597 1613 
L 953 1613 
Q 991 1019 1311 708 
Q 1631 397 2203 397 
Q 2534 397 2845 478 
Q 3156 559 3463 722 
L 3463 178 
Q 3153 47 2828 -22 
Q 2503 -91 2169 -91 
Q 1331 -91 842 396 
Q 353 884 353 1716 
Q 353 2575 817 3079 
Q 1281 3584 2069 3584 
Q 2775 3584 3186 3129 
Q 3597 2675 3597 1894 
z
M 3022 2063 
Q 3016 2534 2758 2815 
Q 2500 3097 2075 3097 
Q 1594 3097 1305 2825 
Q 1016 2553 972 2059 
L 3022 2063 
z
" transform="scale(0.015625)"/>
      </defs>
      <use xlink:href="#DejaVuSans-74"/>
      <use xlink:href="#DejaVuSans-69" x="39.208984"/>
      <use xlink:href="#DejaVuSans-6d" x="66.992188"/>
      <use xlink:href="#DejaVuSans-65" x="164.404297"/>
     </g>
    </g>
   </g>
   <g id="matplotlib.axis_2">
    <g id="ytick_1">
     <g id="line2d_8">
      <defs>
       <path id="m5d6de928c2" d="M 0 0 
L -3.5 0 
" style="stroke: #000000; stroke-width: 0.8"/>
      </defs>
      <g>
       <use xlink:href="#m5d6de928c2" x="90" y="307.8" style="stroke: #000000; stroke-width: 0.8"/>
      </g>
     </g>
     <g id="text_9">
      <!-- 1.00 -->
      <g transform="translate(60.734375 311.599219) scale(0.1 -0.1)">
       <defs>
        <path id="DejaVuSans-2e" d="M 684 794 
L 1344 794 
L 1344 0 
L 684 0 
L 684 794 
z
" transform="scale(0.015625)"/>
       </defs>
       <use xlink:href="#DejaVuSans-31"/>
       <use xlink:href="#DejaVuSans-2e" x="63.623047"/>
       <use xlink:href="#DejaVuSans-30" x="95.410156"/>
       <use xlink:href="#DejaVuSans-30" x="159.033203"/>
      </g>
     </g>
    </g>
    <g id="ytick_2">
     <g id="line2d_9">
      <g>
       <use xlink:href="#m5d6de928c2" x="90" y="250.445997" style="stroke: #000000; stroke-width: 0.8"/>
      </g>
     </g>
     <g id="text_10">
      <!-- 1.05 -->
      <g transform="translate(60.734375 254.245216) scale(0.1 -0.1)">
       <use xlink:href="#DejaVuSans-31"/>
       <use xlink:href="#DejaVuSans-2e" x="63.623047"/>
       <use xlink:href="#DejaVuSans-30" x="95.410156"/>
       <use xlink:href="#DejaVuSans-35" x="159.033203"/>
      </g>
     </g>
    </g>
    <g id="ytick_3">
     <g id="line2d_10">
      <g>
       <use xlink:href="#m5d6de928c2" x="90" y="193.091994" style="stroke: #000000; stroke-width: 0.8"/>
      </g>
     </g>
     <g id="text_11">
      <!-- 1.10 -->
      <g transform="translate(60.734375 196.891212) scale(0.1 -0.1)">
       <use xlink:href="#DejaVuSans-31"/>
       <use xlink:href="#DejaVuSans-2e" x="63.623047"/>
       <use xlink:href="#DejaVuSans-31" x="95.410156"/>
       <use xlink:href="#DejaVuSans-30" x="159.033203"/>
      </g>
     </g>
    </g>
    <g id="ytick_4">
     <g id="line2d_11">
      <g>
       <use xlink:href="#m5d6de928c2" x="90" y="135.737991" style="stroke: #000000; stroke-width: 0.8"/>
      </g>
     </g>
     <g id="text_12">
      <!-- 1.15 -->
      <g transform="translate(60.734375 139.537209) scale(0.1 -0.1)">
       <use xlink:href="#DejaVuSans-31"/>
       <use xlink:href="#DejaVuSans-2e" x="63.623047"/>
       <use xlink:href="#DejaVuSans-31" x="95.410156"/>
       <use xlink:href="#DejaVuSans-35" x="159.033203"/>
      </g>
     </g>
    </g>
    <g id="ytick_5">
     <g id="line2d_12">
      <g>
       <use xlink:href="#m5d6de928c2" x="90" y="78.383987" style="stroke: #000000; stroke-width: 0.8"/>
      </g>
     </g>
     <g id="text_13">
      <!-- 1.20 -->
      <g transform="translate(60.734375 82.183206) scale(0.1 -0.1)">
       <use xlink:href="#DejaVuSans-31"/>
       <use xlink:href="#DejaVuSans-2e" x="63.623047"/>
       <use xlink:href="#DejaVuSans-32" x="95.410156"/>
       <use xlink:href="#DejaVuSans-30" x="159.033203"/>
      </g>
     </g>
    </g>
    <g id="text_14">
     <!-- aPTT_ratio -->
     <g transform="translate(53.905 213.152812) rotate(-90) scale(0.12 -0.12)">
      <defs>
       <path id="DejaVuSans-61" d="M 2194 1759 
Q 1497 1759 1228 1600 
Q 959 1441 959 1056 
Q 959 750 1161 570 
Q 1363 391 1709 391 
Q 2188 391 2477 730 
Q 2766 1069 2766 1631 
L 2766 1759 
L 2194 1759 
z
M 3341 1997 
L 3341 0 
L 2766 0 
L 2766 531 
Q 2569 213 2275 61 
Q 1981 -91 1556 -91 
Q 1019 -91 701 211 
Q 384 513 384 1019 
Q 384 1609 779 1909 
Q 1175 2209 1959 2209 
L 2766 2209 
L 2766 2266 
Q 2766 2663 2505 2880 
Q 2244 3097 1772 3097 
Q 1472 3097 1187 3025 
Q 903 2953 641 2809 
L 641 3341 
Q 956 3463 1253 3523 
Q 1550 3584 1831 3584 
Q 2591 3584 2966 3190 
Q 3341 2797 3341 1997 
z
" transform="scale(0.015625)"/>
       <path id="DejaVuSans-50" d="M 1259 4147 
L 1259 2394 
L 2053 2394 
Q 2494 2394 2734 2622 
Q 2975 2850 2975 3272 
Q 2975 3691 2734 3919 
Q 2494 4147 2053 4147 
L 1259 4147 
z
M 628 4666 
L 2053 4666 
Q 2838 4666 3239 4311 
Q 3641 3956 3641 3272 
Q 3641 2581 3239 2228 
Q 2838 1875 2053 1875 
L 1259 1875 
L 1259 0 
L 628 0 
L 628 4666 
z
" transform="scale(0.015625)"/>
       <path id="DejaVuSans-54" d="M -19 4666 
L 3928 4666 
L 3928 4134 
L 2272 4134 
L 2272 0 
L 1638 0 
L 1638 4134 
L -19 4134 
L -19 4666 
z
" transform="scale(0.015625)"/>
       <path id="DejaVuSans-5f" d="M 3263 -1063 
L 3263 -1509 
L -63 -1509 
L -63 -1063 
L 3263 -1063 
z
" transform="scale(0.015625)"/>
       <path id="DejaVuSans-72" d="M 2631 2963 
Q 2534 3019 2420 3045 
Q 2306 3072 2169 3072 
Q 1681 3072 1420 2755 
Q 1159 2438 1159 1844 
L 1159 0 
L 581 0 
L 581 3500 
L 1159 3500 
L 1159 2956 
Q 1341 3275 1631 3429 
Q 1922 3584 2338 3584 
Q 2397 3584 2469 3576 
Q 2541 3569 2628 3553 
L 2631 2963 
z
" transform="scale(0.015625)"/>
       <path id="DejaVuSans-6f" d="M 1959 3097 
Q 1497 3097 1228 2736 
Q 959 2375 959 1747 
Q 959 1119 1226 758 
Q 1494 397 1959 397 
Q 2419 397 2687 759 
Q 2956 1122 2956 1747 
Q 2956 2369 2687 2733 
Q 2419 3097 1959 3097 
z
M 1959 3584 
Q 2709 3584 3137 3096 
Q 3566 2609 3566 1747 
Q 3566 888 3137 398 
Q 2709 -91 1959 -91 
Q 1206 -91 779 398 
Q 353 888 353 1747 
Q 353 2609 779 3096 
Q 1206 3584 1959 3584 
z
" transform="scale(0.015625)"/>
      </defs>
      <use xlink:href="#DejaVuSans-61"/>
      <use xlink:href="#DejaVuSans-50" x="61.279297"/>
      <use xlink:href="#DejaVuSans-54" x="121.582031"/>
      <use xlink:href="#DejaVuSans-54" x="180.916016"/>
      <use xlink:href="#DejaVuSans-5f" x="242"/>
      <use xlink:href="#DejaVuSans-72" x="292"/>
      <use xlink:href="#DejaVuSans-61" x="333.113281"/>
      <use xlink:href="#DejaVuSans-74" x="394.392578"/>
      <use xlink:href="#DejaVuSans-69" x="433.601562"/>
      <use xlink:href="#DejaVuSans-6f" x="461.384766"/>
     </g>
    </g>
   </g>
   <g id="line2d_13">
    <defs>
     <path id="m08de9708a7" d="M -5 5 
L 5 5 
L 5 -5 
L -5 -5 
z
" style="stroke: #000000; stroke-linejoin: miter"/>
    </defs>
    <g clip-path="url(#p55ee42bcaa)">
     <use xlink:href="#m08de9708a7" x="111.136364" y="195.299614" style="stroke: #000000; stroke-linejoin: miter"/>
     <use xlink:href="#m08de9708a7" x="113.297521" y="144.503066" style="stroke: #000000; stroke-linejoin: miter"/>
     <use xlink:href="#m08de9708a7" x="115.624166" y="161.474617" style="stroke: #000000; stroke-linejoin: miter"/>
     <use xlink:href="#m08de9708a7" x="117.769624" y="133.26652" style="stroke: #000000; stroke-linejoin: miter"/>
     <use xlink:href="#m08de9708a7" x="120.112949" y="126.237843" style="stroke: #000000; stroke-linejoin: miter"/>
     <use xlink:href="#m08de9708a7" x="120.326514" y="124.828811" style="stroke: #000000; stroke-linejoin: miter"/>
     <use xlink:href="#m08de9708a7" x="122.173646" y="78.264851" style="stroke: #000000; stroke-linejoin: miter"/>
     <use xlink:href="#m08de9708a7" x="125.239483" y="91.009308" style="stroke: #000000; stroke-linejoin: miter"/>
     <use xlink:href="#m08de9708a7" x="126.948" y="79.737056" style="stroke: #000000; stroke-linejoin: miter"/>
     <use xlink:href="#m08de9708a7" x="129.279551" y="89.649716" style="stroke: #000000; stroke-linejoin: miter"/>
     <use xlink:href="#m08de9708a7" x="131.854101" y="55.8" style="stroke: #000000; stroke-linejoin: miter"/>
     <use xlink:href="#m08de9708a7" x="136.513278" y="81.272433" style="stroke: #000000; stroke-linejoin: miter"/>
     <use xlink:href="#m08de9708a7" x="140.385133" y="91.207067" style="stroke: #000000; stroke-linejoin: miter"/>
     <use xlink:href="#m08de9708a7" x="158.59662" y="170.505603" style="stroke: #000000; stroke-linejoin: miter"/>
     <use xlink:href="#m08de9708a7" x="176.808107" y="170.741815" style="stroke: #000000; stroke-linejoin: miter"/>
     <use xlink:href="#m08de9708a7" x="213.23108" y="251.682848" style="stroke: #000000; stroke-linejoin: miter"/>
     <use xlink:href="#m08de9708a7" x="240.562455" y="250.619894" style="stroke: #000000; stroke-linejoin: miter"/>
     <use xlink:href="#m08de9708a7" x="322.5" y="298.271527" style="stroke: #000000; stroke-linejoin: miter"/>
    </g>
   </g>
   <g id="line2d_14">
    <path d="M 103.96216 307.8 
L 104.098686 307.738455 
L 104.269227 307.30162 
L 104.484831 306.05791 
L 104.825898 302.62382 
L 105.199519 297.136671 
L 105.93553 282.532968 
L 107.162544 252.384316 
L 109.477121 194.940712 
L 110.956292 164.235316 
L 112.435463 139.327278 
L 113.421578 125.743127 
L 114.407692 114.320942 
L 115.393806 104.821113 
L 116.877974 93.638971 
L 117.620059 89.256869 
L 118.362143 85.573072 
L 119.104227 82.515575 
L 119.846311 80.019107 
L 120.588395 78.024809 
L 121.330479 76.479766 
L 122.072563 75.336442 
L 122.814648 74.552154 
L 123.940072 73.963344 
L 125.065495 73.996577 
L 126.190919 74.553124 
L 127.316343 75.549289 
L 128.441767 76.914003 
L 129.567191 78.5869 
L 130.692615 80.516732 
L 132.434576 83.911025 
L 134.176538 87.686426 
L 137.660461 95.99011 
L 142.886346 109.358743 
L 151.596154 131.778272 
L 156.822038 144.619858 
L 161.333308 155.17546 
L 166.871924 167.408597 
L 172.41054 178.828631 
L 175.179849 184.237725 
L 180.085514 193.340442 
L 184.991179 201.85056 
L 189.896844 209.793356 
L 194.802509 217.195899 
L 199.708175 224.086703 
L 204.61384 230.494448 
L 209.519505 236.446906 
L 214.42517 241.970896 
L 219.330835 247.092629 
L 224.2365 251.837657 
L 229.142166 256.230488 
L 234.047831 260.294395 
L 238.953496 264.051513 
L 243.859161 267.522935 
L 251.963344 272.68466 
L 260.067527 277.204118 
L 268.171709 281.156658 
L 276.275892 284.609853 
L 284.380074 287.623987 
L 292.484257 290.252761 
L 300.58844 292.543895 
L 308.692622 294.53959 
L 316.796805 296.277032 
L 324.900988 297.788934 
L 333.00517 299.104055 
L 341.109353 300.247625 
L 349.213536 301.241726 
L 357.317718 302.105663 
L 373.526084 303.508392 
L 389.734449 304.566611 
L 405.942814 305.364479 
L 422.151179 305.965799 
L 446.463727 306.601541 
L 470.776275 307.017091 
L 503.193006 307.356313 
L 551.818102 307.610756 
L 559.249327 307.633732 
L 559.249327 307.633732 
" clip-path="url(#p55ee42bcaa)" style="fill: none; stroke: #0000ff; stroke-width: 1.5; stroke-linecap: square"/>
   </g>
   <g id="patch_3">
    <path d="M 90 320.4 
L 90 43.2 
" style="fill: none; stroke: #000000; stroke-width: 0.8; stroke-linejoin: miter; stroke-linecap: square"/>
   </g>
   <g id="patch_4">
    <path d="M 343.636364 320.4 
L 343.636364 43.2 
" style="fill: none; stroke: #000000; stroke-width: 0.8; stroke-linejoin: miter; stroke-linecap: square"/>
   </g>
   <g id="patch_5">
    <path d="M 90 320.4 
L 343.636364 320.4 
" style="fill: none; stroke: #000000; stroke-width: 0.8; stroke-linejoin: miter; stroke-linecap: square"/>
   </g>
   <g id="patch_6">
    <path d="M 90 43.2 
L 343.636364 43.2 
" style="fill: none; stroke: #000000; stroke-width: 0.8; stroke-linejoin: miter; stroke-linecap: square"/>
   </g>
   <g id="text_15">
    <!-- Kubitza2005a fm_Fig3C_aPTT (change relative)_T5 -->
    <g transform="translate(39.941307 37.2) scale(0.14 -0.14)">
     <defs>
      <path id="DejaVuSans-4b" d="M 628 4666 
L 1259 4666 
L 1259 2694 
L 3353 4666 
L 4166 4666 
L 1850 2491 
L 4331 0 
L 3500 0 
L 1259 2247 
L 1259 0 
L 628 0 
L 628 4666 
z
" transform="scale(0.015625)"/>
      <path id="DejaVuSans-75" d="M 544 1381 
L 544 3500 
L 1119 3500 
L 1119 1403 
Q 1119 906 1312 657 
Q 1506 409 1894 409 
Q 2359 409 2629 706 
Q 2900 1003 2900 1516 
L 2900 3500 
L 3475 3500 
L 3475 0 
L 2900 0 
L 2900 538 
Q 2691 219 2414 64 
Q 2138 -91 1772 -91 
Q 1169 -91 856 284 
Q 544 659 544 1381 
z
M 1991 3584 
L 1991 3584 
z
" transform="scale(0.015625)"/>
      <path id="DejaVuSans-62" d="M 3116 1747 
Q 3116 2381 2855 2742 
Q 2594 3103 2138 3103 
Q 1681 3103 1420 2742 
Q 1159 2381 1159 1747 
Q 1159 1113 1420 752 
Q 1681 391 2138 391 
Q 2594 391 2855 752 
Q 3116 1113 3116 1747 
z
M 1159 2969 
Q 1341 3281 1617 3432 
Q 1894 3584 2278 3584 
Q 2916 3584 3314 3078 
Q 3713 2572 3713 1747 
Q 3713 922 3314 415 
Q 2916 -91 2278 -91 
Q 1894 -91 1617 61 
Q 1341 213 1159 525 
L 1159 0 
L 581 0 
L 581 4863 
L 1159 4863 
L 1159 2969 
z
" transform="scale(0.015625)"/>
      <path id="DejaVuSans-7a" d="M 353 3500 
L 3084 3500 
L 3084 2975 
L 922 459 
L 3084 459 
L 3084 0 
L 275 0 
L 275 525 
L 2438 3041 
L 353 3041 
L 353 3500 
z
" transform="scale(0.015625)"/>
      <path id="DejaVuSans-20" transform="scale(0.015625)"/>
      <path id="DejaVuSans-66" d="M 2375 4863 
L 2375 4384 
L 1825 4384 
Q 1516 4384 1395 4259 
Q 1275 4134 1275 3809 
L 1275 3500 
L 2222 3500 
L 2222 3053 
L 1275 3053 
L 1275 0 
L 697 0 
L 697 3053 
L 147 3053 
L 147 3500 
L 697 3500 
L 697 3744 
Q 697 4328 969 4595 
Q 1241 4863 1831 4863 
L 2375 4863 
z
" transform="scale(0.015625)"/>
      <path id="DejaVuSans-46" d="M 628 4666 
L 3309 4666 
L 3309 4134 
L 1259 4134 
L 1259 2759 
L 3109 2759 
L 3109 2228 
L 1259 2228 
L 1259 0 
L 628 0 
L 628 4666 
z
" transform="scale(0.015625)"/>
      <path id="DejaVuSans-67" d="M 2906 1791 
Q 2906 2416 2648 2759 
Q 2391 3103 1925 3103 
Q 1463 3103 1205 2759 
Q 947 2416 947 1791 
Q 947 1169 1205 825 
Q 1463 481 1925 481 
Q 2391 481 2648 825 
Q 2906 1169 2906 1791 
z
M 3481 434 
Q 3481 -459 3084 -895 
Q 2688 -1331 1869 -1331 
Q 1566 -1331 1297 -1286 
Q 1028 -1241 775 -1147 
L 775 -588 
Q 1028 -725 1275 -790 
Q 1522 -856 1778 -856 
Q 2344 -856 2625 -561 
Q 2906 -266 2906 331 
L 2906 616 
Q 2728 306 2450 153 
Q 2172 0 1784 0 
Q 1141 0 747 490 
Q 353 981 353 1791 
Q 353 2603 747 3093 
Q 1141 3584 1784 3584 
Q 2172 3584 2450 3431 
Q 2728 3278 2906 2969 
L 2906 3500 
L 3481 3500 
L 3481 434 
z
" transform="scale(0.015625)"/>
      <path id="DejaVuSans-33" d="M 2597 2516 
Q 3050 2419 3304 2112 
Q 3559 1806 3559 1356 
Q 3559 666 3084 287 
Q 2609 -91 1734 -91 
Q 1441 -91 1130 -33 
Q 819 25 488 141 
L 488 750 
Q 750 597 1062 519 
Q 1375 441 1716 441 
Q 2309 441 2620 675 
Q 2931 909 2931 1356 
Q 2931 1769 2642 2001 
Q 2353 2234 1838 2234 
L 1294 2234 
L 1294 2753 
L 1863 2753 
Q 2328 2753 2575 2939 
Q 2822 3125 2822 3475 
Q 2822 3834 2567 4026 
Q 2313 4219 1838 4219 
Q 1578 4219 1281 4162 
Q 984 4106 628 3988 
L 628 4550 
Q 988 4650 1302 4700 
Q 1616 4750 1894 4750 
Q 2613 4750 3031 4423 
Q 3450 4097 3450 3541 
Q 3450 3153 3228 2886 
Q 3006 2619 2597 2516 
z
" transform="scale(0.015625)"/>
      <path id="DejaVuSans-43" d="M 4122 4306 
L 4122 3641 
Q 3803 3938 3442 4084 
Q 3081 4231 2675 4231 
Q 1875 4231 1450 3742 
Q 1025 3253 1025 2328 
Q 1025 1406 1450 917 
Q 1875 428 2675 428 
Q 3081 428 3442 575 
Q 3803 722 4122 1019 
L 4122 359 
Q 3791 134 3420 21 
Q 3050 -91 2638 -91 
Q 1578 -91 968 557 
Q 359 1206 359 2328 
Q 359 3453 968 4101 
Q 1578 4750 2638 4750 
Q 3056 4750 3426 4639 
Q 3797 4528 4122 4306 
z
" transform="scale(0.015625)"/>
      <path id="DejaVuSans-28" d="M 1984 4856 
Q 1566 4138 1362 3434 
Q 1159 2731 1159 2009 
Q 1159 1288 1364 580 
Q 1569 -128 1984 -844 
L 1484 -844 
Q 1016 -109 783 600 
Q 550 1309 550 2009 
Q 550 2706 781 3412 
Q 1013 4119 1484 4856 
L 1984 4856 
z
" transform="scale(0.015625)"/>
      <path id="DejaVuSans-63" d="M 3122 3366 
L 3122 2828 
Q 2878 2963 2633 3030 
Q 2388 3097 2138 3097 
Q 1578 3097 1268 2742 
Q 959 2388 959 1747 
Q 959 1106 1268 751 
Q 1578 397 2138 397 
Q 2388 397 2633 464 
Q 2878 531 3122 666 
L 3122 134 
Q 2881 22 2623 -34 
Q 2366 -91 2075 -91 
Q 1284 -91 818 406 
Q 353 903 353 1747 
Q 353 2603 823 3093 
Q 1294 3584 2113 3584 
Q 2378 3584 2631 3529 
Q 2884 3475 3122 3366 
z
" transform="scale(0.015625)"/>
      <path id="DejaVuSans-68" d="M 3513 2113 
L 3513 0 
L 2938 0 
L 2938 2094 
Q 2938 2591 2744 2837 
Q 2550 3084 2163 3084 
Q 1697 3084 1428 2787 
Q 1159 2491 1159 1978 
L 1159 0 
L 581 0 
L 581 4863 
L 1159 4863 
L 1159 2956 
Q 1366 3272 1645 3428 
Q 1925 3584 2291 3584 
Q 2894 3584 3203 3211 
Q 3513 2838 3513 2113 
z
" transform="scale(0.015625)"/>
      <path id="DejaVuSans-6e" d="M 3513 2113 
L 3513 0 
L 2938 0 
L 2938 2094 
Q 2938 2591 2744 2837 
Q 2550 3084 2163 3084 
Q 1697 3084 1428 2787 
Q 1159 2491 1159 1978 
L 1159 0 
L 581 0 
L 581 3500 
L 1159 3500 
L 1159 2956 
Q 1366 3272 1645 3428 
Q 1925 3584 2291 3584 
Q 2894 3584 3203 3211 
Q 3513 2838 3513 2113 
z
" transform="scale(0.015625)"/>
      <path id="DejaVuSans-6c" d="M 603 4863 
L 1178 4863 
L 1178 0 
L 603 0 
L 603 4863 
z
" transform="scale(0.015625)"/>
      <path id="DejaVuSans-76" d="M 191 3500 
L 800 3500 
L 1894 563 
L 2988 3500 
L 3597 3500 
L 2284 0 
L 1503 0 
L 191 3500 
z
" transform="scale(0.015625)"/>
      <path id="DejaVuSans-29" d="M 513 4856 
L 1013 4856 
Q 1481 4119 1714 3412 
Q 1947 2706 1947 2009 
Q 1947 1309 1714 600 
Q 1481 -109 1013 -844 
L 513 -844 
Q 928 -128 1133 580 
Q 1338 1288 1338 2009 
Q 1338 2731 1133 3434 
Q 928 4138 513 4856 
z
" transform="scale(0.015625)"/>
     </defs>
     <use xlink:href="#DejaVuSans-4b"/>
     <use xlink:href="#DejaVuSans-75" x="60.576172"/>
     <use xlink:href="#DejaVuSans-62" x="123.955078"/>
     <use xlink:href="#DejaVuSans-69" x="187.431641"/>
     <use xlink:href="#DejaVuSans-74" x="215.214844"/>
     <use xlink:href="#DejaVuSans-7a" x="254.423828"/>
     <use xlink:href="#DejaVuSans-61" x="306.914062"/>
     <use xlink:href="#DejaVuSans-32" x="368.193359"/>
     <use xlink:href="#DejaVuSans-30" x="431.816406"/>
     <use xlink:href="#DejaVuSans-30" x="495.439453"/>
     <use xlink:href="#DejaVuSans-35" x="559.0625"/>
     <use xlink:href="#DejaVuSans-61" x="622.685547"/>
     <use xlink:href="#DejaVuSans-20" x="683.964844"/>
     <use xlink:href="#DejaVuSans-66" x="715.751953"/>
     <use xlink:href="#DejaVuSans-6d" x="750.957031"/>
     <use xlink:href="#DejaVuSans-5f" x="848.369141"/>
     <use xlink:href="#DejaVuSans-46" x="898.369141"/>
     <use xlink:href="#DejaVuSans-69" x="948.638672"/>
     <use xlink:href="#DejaVuSans-67" x="976.421875"/>
     <use xlink:href="#DejaVuSans-33" x="1039.898438"/>
     <use xlink:href="#DejaVuSans-43" x="1103.521484"/>
     <use xlink:href="#DejaVuSans-5f" x="1173.345703"/>
     <use xlink:href="#DejaVuSans-61" x="1223.345703"/>
     <use xlink:href="#DejaVuSans-50" x="1284.625"/>
     <use xlink:href="#DejaVuSans-54" x="1344.927734"/>
     <use xlink:href="#DejaVuSans-54" x="1404.261719"/>
     <use xlink:href="#DejaVuSans-20" x="1465.345703"/>
     <use xlink:href="#DejaVuSans-28" x="1497.132812"/>
     <use xlink:href="#DejaVuSans-63" x="1536.146484"/>
     <use xlink:href="#DejaVuSans-68" x="1591.126953"/>
     <use xlink:href="#DejaVuSans-61" x="1654.505859"/>
     <use xlink:href="#DejaVuSans-6e" x="1715.785156"/>
     <use xlink:href="#DejaVuSans-67" x="1779.164062"/>
     <use xlink:href="#DejaVuSans-65" x="1842.640625"/>
     <use xlink:href="#DejaVuSans-20" x="1904.164062"/>
     <use xlink:href="#DejaVuSans-72" x="1935.951172"/>
     <use xlink:href="#DejaVuSans-65" x="1974.814453"/>
     <use xlink:href="#DejaVuSans-6c" x="2036.337891"/>
     <use xlink:href="#DejaVuSans-61" x="2064.121094"/>
     <use xlink:href="#DejaVuSans-74" x="2125.400391"/>
     <use xlink:href="#DejaVuSans-69" x="2164.609375"/>
     <use xlink:href="#DejaVuSans-76" x="2192.392578"/>
     <use xlink:href="#DejaVuSans-65" x="2251.572266"/>
     <use xlink:href="#DejaVuSans-29" x="2313.095703"/>
     <use xlink:href="#DejaVuSans-5f" x="2352.109375"/>
     <use xlink:href="#DejaVuSans-54" x="2402.109375"/>
     <use xlink:href="#DejaVuSans-35" x="2463.193359"/>
    </g>
   </g>
   <g id="legend_1">
    <g id="patch_7">
     <path d="M 229.370739 80.834375 
L 336.636364 80.834375 
Q 338.636364 80.834375 338.636364 78.834375 
L 338.636364 50.2 
Q 338.636364 48.2 336.636364 48.2 
L 229.370739 48.2 
Q 227.370739 48.2 227.370739 50.2 
L 227.370739 78.834375 
Q 227.370739 80.834375 229.370739 80.834375 
z
" style="fill: #ffffff; opacity: 0.8; stroke: #cccccc; stroke-linejoin: miter"/>
    </g>
    <g id="line2d_15">
     <g>
      <use xlink:href="#m08de9708a7" x="241.370739" y="56.298437" style="stroke: #000000; stroke-linejoin: miter"/>
     </g>
    </g>
    <g id="text_16">
     <!-- reference_data -->
     <g transform="translate(259.370739 59.798437) scale(0.1 -0.1)">
      <defs>
       <path id="DejaVuSans-64" d="M 2906 2969 
L 2906 4863 
L 3481 4863 
L 3481 0 
L 2906 0 
L 2906 525 
Q 2725 213 2448 61 
Q 2172 -91 1784 -91 
Q 1150 -91 751 415 
Q 353 922 353 1747 
Q 353 2572 751 3078 
Q 1150 3584 1784 3584 
Q 2172 3584 2448 3432 
Q 2725 3281 2906 2969 
z
M 947 1747 
Q 947 1113 1208 752 
Q 1469 391 1925 391 
Q 2381 391 2643 752 
Q 2906 1113 2906 1747 
Q 2906 2381 2643 2742 
Q 2381 3103 1925 3103 
Q 1469 3103 1208 2742 
Q 947 2381 947 1747 
z
" transform="scale(0.015625)"/>
      </defs>
      <use xlink:href="#DejaVuSans-72"/>
      <use xlink:href="#DejaVuSans-65" x="38.863281"/>
      <use xlink:href="#DejaVuSans-66" x="100.386719"/>
      <use xlink:href="#DejaVuSans-65" x="135.591797"/>
      <use xlink:href="#DejaVuSans-72" x="197.115234"/>
      <use xlink:href="#DejaVuSans-65" x="235.978516"/>
      <use xlink:href="#DejaVuSans-6e" x="297.501953"/>
      <use xlink:href="#DejaVuSans-63" x="360.880859"/>
      <use xlink:href="#DejaVuSans-65" x="415.861328"/>
      <use xlink:href="#DejaVuSans-5f" x="477.384766"/>
      <use xlink:href="#DejaVuSans-64" x="527.384766"/>
      <use xlink:href="#DejaVuSans-61" x="590.861328"/>
      <use xlink:href="#DejaVuSans-74" x="652.140625"/>
      <use xlink:href="#DejaVuSans-61" x="691.349609"/>
     </g>
    </g>
    <g id="line2d_16">
     <path d="M 231.370739 71.254687 
L 241.370739 71.254687 
L 251.370739 71.254687 
" style="fill: none; stroke: #0000ff; stroke-width: 1.5; stroke-linecap: square"/>
    </g>
    <g id="text_17">
     <!-- observable -->
     <g transform="translate(259.370739 74.754687) scale(0.1 -0.1)">
      <defs>
       <path id="DejaVuSans-73" d="M 2834 3397 
L 2834 2853 
Q 2591 2978 2328 3040 
Q 2066 3103 1784 3103 
Q 1356 3103 1142 2972 
Q 928 2841 928 2578 
Q 928 2378 1081 2264 
Q 1234 2150 1697 2047 
L 1894 2003 
Q 2506 1872 2764 1633 
Q 3022 1394 3022 966 
Q 3022 478 2636 193 
Q 2250 -91 1575 -91 
Q 1294 -91 989 -36 
Q 684 19 347 128 
L 347 722 
Q 666 556 975 473 
Q 1284 391 1588 391 
Q 1994 391 2212 530 
Q 2431 669 2431 922 
Q 2431 1156 2273 1281 
Q 2116 1406 1581 1522 
L 1381 1569 
Q 847 1681 609 1914 
Q 372 2147 372 2553 
Q 372 3047 722 3315 
Q 1072 3584 1716 3584 
Q 2034 3584 2315 3537 
Q 2597 3491 2834 3397 
z
" transform="scale(0.015625)"/>
      </defs>
      <use xlink:href="#DejaVuSans-6f"/>
      <use xlink:href="#DejaVuSans-62" x="61.181641"/>
      <use xlink:href="#DejaVuSans-73" x="124.658203"/>
      <use xlink:href="#DejaVuSans-65" x="176.757812"/>
      <use xlink:href="#DejaVuSans-72" x="238.28125"/>
      <use xlink:href="#DejaVuSans-76" x="279.394531"/>
      <use xlink:href="#DejaVuSans-61" x="338.574219"/>
      <use xlink:href="#DejaVuSans-62" x="399.853516"/>
      <use xlink:href="#DejaVuSans-6c" x="463.330078"/>
      <use xlink:href="#DejaVuSans-65" x="491.113281"/>
     </g>
    </g>
   </g>
  </g>
  <g id="axes_2">
   <g id="patch_8">
    <path d="M 394.363636 320.4 
L 648 320.4 
L 648 43.2 
L 394.363636 43.2 
z
" style="fill: #ffffff"/>
   </g>
   <g id="matplotlib.axis_3">
    <g id="xtick_8">
     <g id="line2d_17">
      <g>
       <use xlink:href="#mbf7c61a944" x="408.325796" y="320.4" style="stroke: #000000; stroke-width: 0.8"/>
      </g>
     </g>
     <g id="text_18">
      <!-- 0 -->
      <g transform="translate(405.144546 334.998438) scale(0.1 -0.1)">
       <use xlink:href="#DejaVuSans-30"/>
      </g>
     </g>
    </g>
    <g id="xtick_9">
     <g id="line2d_18">
      <g>
       <use xlink:href="#mbf7c61a944" x="446.266393" y="320.4" style="stroke: #000000; stroke-width: 0.8"/>
      </g>
     </g>
     <g id="text_19">
      <!-- 250 -->
      <g transform="translate(436.722643 334.998438) scale(0.1 -0.1)">
       <use xlink:href="#DejaVuSans-32"/>
       <use xlink:href="#DejaVuSans-35" x="63.623047"/>
       <use xlink:href="#DejaVuSans-30" x="127.246094"/>
      </g>
     </g>
    </g>
    <g id="xtick_10">
     <g id="line2d_19">
      <g>
       <use xlink:href="#mbf7c61a944" x="484.206991" y="320.4" style="stroke: #000000; stroke-width: 0.8"/>
      </g>
     </g>
     <g id="text_20">
      <!-- 500 -->
      <g transform="translate(474.663241 334.998438) scale(0.1 -0.1)">
       <use xlink:href="#DejaVuSans-35"/>
       <use xlink:href="#DejaVuSans-30" x="63.623047"/>
       <use xlink:href="#DejaVuSans-30" x="127.246094"/>
      </g>
     </g>
    </g>
    <g id="xtick_11">
     <g id="line2d_20">
      <g>
       <use xlink:href="#mbf7c61a944" x="522.147588" y="320.4" style="stroke: #000000; stroke-width: 0.8"/>
      </g>
     </g>
     <g id="text_21">
      <!-- 750 -->
      <g transform="translate(512.603838 334.998438) scale(0.1 -0.1)">
       <use xlink:href="#DejaVuSans-37"/>
       <use xlink:href="#DejaVuSans-35" x="63.623047"/>
       <use xlink:href="#DejaVuSans-30" x="127.246094"/>
      </g>
     </g>
    </g>
    <g id="xtick_12">
     <g id="line2d_21">
      <g>
       <use xlink:href="#mbf7c61a944" x="560.088185" y="320.4" style="stroke: #000000; stroke-width: 0.8"/>
      </g>
     </g>
     <g id="text_22">
      <!-- 1000 -->
      <g transform="translate(547.363185 334.998438) scale(0.1 -0.1)">
       <use xlink:href="#DejaVuSans-31"/>
       <use xlink:href="#DejaVuSans-30" x="63.623047"/>
       <use xlink:href="#DejaVuSans-30" x="127.246094"/>
       <use xlink:href="#DejaVuSans-30" x="190.869141"/>
      </g>
     </g>
    </g>
    <g id="xtick_13">
     <g id="line2d_22">
      <g>
       <use xlink:href="#mbf7c61a944" x="598.028782" y="320.4" style="stroke: #000000; stroke-width: 0.8"/>
      </g>
     </g>
     <g id="text_23">
      <!-- 1250 -->
      <g transform="translate(585.303782 334.998438) scale(0.1 -0.1)">
       <use xlink:href="#DejaVuSans-31"/>
       <use xlink:href="#DejaVuSans-32" x="63.623047"/>
       <use xlink:href="#DejaVuSans-35" x="127.246094"/>
       <use xlink:href="#DejaVuSans-30" x="190.869141"/>
      </g>
     </g>
    </g>
    <g id="xtick_14">
     <g id="line2d_23">
      <g>
       <use xlink:href="#mbf7c61a944" x="635.96938" y="320.4" style="stroke: #000000; stroke-width: 0.8"/>
      </g>
     </g>
     <g id="text_24">
      <!-- 1500 -->
      <g transform="translate(623.24438 334.998438) scale(0.1 -0.1)">
       <use xlink:href="#DejaVuSans-31"/>
       <use xlink:href="#DejaVuSans-35" x="63.623047"/>
       <use xlink:href="#DejaVuSans-30" x="127.246094"/>
       <use xlink:href="#DejaVuSans-30" x="190.869141"/>
      </g>
     </g>
    </g>
    <g id="text_25">
     <!-- time -->
     <g transform="translate(507.626506 350.19625) scale(0.12 -0.12)">
      <use xlink:href="#DejaVuSans-74"/>
      <use xlink:href="#DejaVuSans-69" x="39.208984"/>
      <use xlink:href="#DejaVuSans-6d" x="66.992188"/>
      <use xlink:href="#DejaVuSans-65" x="164.404297"/>
     </g>
    </g>
   </g>
   <g id="matplotlib.axis_4">
    <g id="ytick_6">
     <g id="line2d_24">
      <g>
       <use xlink:href="#m5d6de928c2" x="394.363636" y="84.36372" style="stroke: #000000; stroke-width: 0.8"/>
      </g>
     </g>
     <g id="text_26">
      <!-- $\mathdefault{10^{0}}$ -->
      <g transform="translate(369.763636 88.162939) scale(0.1 -0.1)">
       <use xlink:href="#DejaVuSans-31" transform="translate(0 0.765625)"/>
       <use xlink:href="#DejaVuSans-30" transform="translate(63.623047 0.765625)"/>
       <use xlink:href="#DejaVuSans-30" transform="translate(128.203125 39.046875) scale(0.7)"/>
      </g>
     </g>
    </g>
    <g id="ytick_7">
     <g id="line2d_25">
      <defs>
       <path id="m4ee62a025b" d="M 0 0 
L -2 0 
" style="stroke: #000000; stroke-width: 0.6"/>
      </defs>
      <g>
       <use xlink:href="#m4ee62a025b" x="394.363636" y="265.243359" style="stroke: #000000; stroke-width: 0.6"/>
      </g>
     </g>
     <g id="text_27">
      <!-- $\mathdefault{4\times10^{-1}}$ -->
      <g transform="translate(346.863636 269.042578) scale(0.1 -0.1)">
       <defs>
        <path id="DejaVuSans-34" d="M 2419 4116 
L 825 1625 
L 2419 1625 
L 2419 4116 
z
M 2253 4666 
L 3047 4666 
L 3047 1625 
L 3713 1625 
L 3713 1100 
L 3047 1100 
L 3047 0 
L 2419 0 
L 2419 1100 
L 313 1100 
L 313 1709 
L 2253 4666 
z
" transform="scale(0.015625)"/>
        <path id="DejaVuSans-d7" d="M 4488 3438 
L 3059 2003 
L 4488 575 
L 4116 197 
L 2681 1631 
L 1247 197 
L 878 575 
L 2303 2003 
L 878 3438 
L 1247 3816 
L 2681 2381 
L 4116 3816 
L 4488 3438 
z
" transform="scale(0.015625)"/>
        <path id="DejaVuSans-2212" d="M 678 2272 
L 4684 2272 
L 4684 1741 
L 678 1741 
L 678 2272 
z
" transform="scale(0.015625)"/>
       </defs>
       <use xlink:href="#DejaVuSans-34" transform="translate(0 0.684375)"/>
       <use xlink:href="#DejaVuSans-d7" transform="translate(83.105469 0.684375)"/>
       <use xlink:href="#DejaVuSans-31" transform="translate(186.376953 0.684375)"/>
       <use xlink:href="#DejaVuSans-30" transform="translate(250 0.684375)"/>
       <use xlink:href="#DejaVuSans-2212" transform="translate(314.580078 38.965625) scale(0.7)"/>
       <use xlink:href="#DejaVuSans-31" transform="translate(373.232422 38.965625) scale(0.7)"/>
      </g>
     </g>
    </g>
    <g id="ytick_8">
     <g id="line2d_26">
      <g>
       <use xlink:href="#m4ee62a025b" x="394.363636" y="221.193885" style="stroke: #000000; stroke-width: 0.6"/>
      </g>
     </g>
    </g>
    <g id="ytick_9">
     <g id="line2d_27">
      <g>
       <use xlink:href="#m4ee62a025b" x="394.363636" y="185.202844" style="stroke: #000000; stroke-width: 0.6"/>
      </g>
     </g>
     <g id="text_28">
      <!-- $\mathdefault{6\times10^{-1}}$ -->
      <g transform="translate(346.863636 189.002063) scale(0.1 -0.1)">
       <defs>
        <path id="DejaVuSans-36" d="M 2113 2584 
Q 1688 2584 1439 2293 
Q 1191 2003 1191 1497 
Q 1191 994 1439 701 
Q 1688 409 2113 409 
Q 2538 409 2786 701 
Q 3034 994 3034 1497 
Q 3034 2003 2786 2293 
Q 2538 2584 2113 2584 
z
M 3366 4563 
L 3366 3988 
Q 3128 4100 2886 4159 
Q 2644 4219 2406 4219 
Q 1781 4219 1451 3797 
Q 1122 3375 1075 2522 
Q 1259 2794 1537 2939 
Q 1816 3084 2150 3084 
Q 2853 3084 3261 2657 
Q 3669 2231 3669 1497 
Q 3669 778 3244 343 
Q 2819 -91 2113 -91 
Q 1303 -91 875 529 
Q 447 1150 447 2328 
Q 447 3434 972 4092 
Q 1497 4750 2381 4750 
Q 2619 4750 2861 4703 
Q 3103 4656 3366 4563 
z
" transform="scale(0.015625)"/>
       </defs>
       <use xlink:href="#DejaVuSans-36" transform="translate(0 0.684375)"/>
       <use xlink:href="#DejaVuSans-d7" transform="translate(83.105469 0.684375)"/>
       <use xlink:href="#DejaVuSans-31" transform="translate(186.376953 0.684375)"/>
       <use xlink:href="#DejaVuSans-30" transform="translate(250 0.684375)"/>
       <use xlink:href="#DejaVuSans-2212" transform="translate(314.580078 38.965625) scale(0.7)"/>
       <use xlink:href="#DejaVuSans-31" transform="translate(373.232422 38.965625) scale(0.7)"/>
      </g>
     </g>
    </g>
    <g id="ytick_10">
     <g id="line2d_28">
      <g>
       <use xlink:href="#m4ee62a025b" x="394.363636" y="154.772852" style="stroke: #000000; stroke-width: 0.6"/>
      </g>
     </g>
    </g>
    <g id="ytick_11">
     <g id="line2d_29">
      <g>
       <use xlink:href="#m4ee62a025b" x="394.363636" y="128.413195" style="stroke: #000000; stroke-width: 0.6"/>
      </g>
     </g>
    </g>
    <g id="ytick_12">
     <g id="line2d_30">
      <g>
       <use xlink:href="#m4ee62a025b" x="394.363636" y="105.162329" style="stroke: #000000; stroke-width: 0.6"/>
      </g>
     </g>
    </g>
    <g id="text_29">
     <!-- aPTT_ratio -->
     <g transform="translate(340.034261 213.152812) rotate(-90) scale(0.12 -0.12)">
      <use xlink:href="#DejaVuSans-61"/>
      <use xlink:href="#DejaVuSans-50" x="61.279297"/>
      <use xlink:href="#DejaVuSans-54" x="121.582031"/>
      <use xlink:href="#DejaVuSans-54" x="180.916016"/>
      <use xlink:href="#DejaVuSans-5f" x="242"/>
      <use xlink:href="#DejaVuSans-72" x="292"/>
      <use xlink:href="#DejaVuSans-61" x="333.113281"/>
      <use xlink:href="#DejaVuSans-74" x="394.392578"/>
      <use xlink:href="#DejaVuSans-69" x="433.601562"/>
      <use xlink:href="#DejaVuSans-6f" x="461.384766"/>
     </g>
    </g>
   </g>
   <g id="line2d_31">
    <g clip-path="url(#p4cd5168a3c)">
     <use xlink:href="#m08de9708a7" x="415.5" y="65.894771" style="stroke: #000000; stroke-linejoin: miter"/>
     <use xlink:href="#m08de9708a7" x="417.661157" y="58.090161" style="stroke: #000000; stroke-linejoin: miter"/>
     <use xlink:href="#m08de9708a7" x="419.987802" y="60.663573" style="stroke: #000000; stroke-linejoin: miter"/>
     <use xlink:href="#m08de9708a7" x="422.133261" y="56.404627" style="stroke: #000000; stroke-linejoin: miter"/>
     <use xlink:href="#m08de9708a7" x="424.476585" y="55.357563" style="stroke: #000000; stroke-linejoin: miter"/>
     <use xlink:href="#m08de9708a7" x="424.69015" y="55.148326" style="stroke: #000000; stroke-linejoin: miter"/>
     <use xlink:href="#m08de9708a7" x="426.537283" y="48.355595" style="stroke: #000000; stroke-linejoin: miter"/>
     <use xlink:href="#m08de9708a7" x="429.603119" y="50.19164" style="stroke: #000000; stroke-linejoin: miter"/>
     <use xlink:href="#m08de9708a7" x="431.311637" y="48.566819" style="stroke: #000000; stroke-linejoin: miter"/>
     <use xlink:href="#m08de9708a7" x="433.643187" y="49.994953" style="stroke: #000000; stroke-linejoin: miter"/>
     <use xlink:href="#m08de9708a7" x="436.217738" y="45.160177" style="stroke: #000000; stroke-linejoin: miter"/>
     <use xlink:href="#m08de9708a7" x="440.876915" y="48.787349" style="stroke: #000000; stroke-linejoin: miter"/>
     <use xlink:href="#m08de9708a7" x="444.74877" y="50.220265" style="stroke: #000000; stroke-linejoin: miter"/>
     <use xlink:href="#m08de9708a7" x="462.960256" y="62.046749" style="stroke: #000000; stroke-linejoin: miter"/>
     <use xlink:href="#m08de9708a7" x="481.171743" y="62.083058" style="stroke: #000000; stroke-linejoin: miter"/>
     <use xlink:href="#m08de9708a7" x="517.594716" y="74.935159" style="stroke: #000000; stroke-linejoin: miter"/>
     <use xlink:href="#m08de9708a7" x="544.926091" y="74.760841" style="stroke: #000000; stroke-linejoin: miter"/>
     <use xlink:href="#m08de9708a7" x="626.863636" y="82.730712" style="stroke: #000000; stroke-linejoin: miter"/>
    </g>
   </g>
   <g id="line2d_32">
    <path d="M 408.325796 84.36372 
L 408.666972 84.252989 
L 408.999915 83.837974 
L 409.379153 83.03269 
L 410.115163 80.740443 
L 411.239844 76.260155 
L 413.101479 68.584877 
L 414.826871 62.557445 
L 416.306043 58.466966 
L 417.785214 55.284074 
L 418.771328 53.594892 
L 419.757442 52.200927 
L 421.241611 50.57262 
L 422.725779 49.406372 
L 424.209947 48.607312 
L 425.694116 48.099783 
L 427.178284 47.823917 
L 429.429132 47.744479 
L 431.67998 47.966572 
L 433.930827 48.401781 
L 436.798213 49.166911 
L 442.024097 50.913871 
L 450.733905 54.198581 
L 461.185675 58.107756 
L 468.466253 60.651214 
L 476.774177 63.330135 
L 484.44915 65.587964 
L 494.26048 68.179432 
L 504.071811 70.458701 
L 513.883141 72.451147 
L 523.694472 74.183491 
L 533.505802 75.682687 
L 543.317132 76.974943 
L 556.32698 78.411277 
L 572.535346 79.831033 
L 588.743711 80.921757 
L 604.952076 81.755561 
L 621.160441 82.390595 
L 645.472989 83.068271 
L 669.785537 83.514775 
L 702.202268 83.881364 
L 721 84.015653 
L 721 84.015653 
" clip-path="url(#p4cd5168a3c)" style="fill: none; stroke: #0000ff; stroke-width: 1.5; stroke-linecap: square"/>
   </g>
   <g id="patch_9">
    <path d="M 394.363636 320.4 
L 394.363636 43.2 
" style="fill: none; stroke: #000000; stroke-width: 0.8; stroke-linejoin: miter; stroke-linecap: square"/>
   </g>
   <g id="patch_10">
    <path d="M 648 320.4 
L 648 43.2 
" style="fill: none; stroke: #000000; stroke-width: 0.8; stroke-linejoin: miter; stroke-linecap: square"/>
   </g>
   <g id="patch_11">
    <path d="M 394.363636 320.4 
L 648 320.4 
" style="fill: none; stroke: #000000; stroke-width: 0.8; stroke-linejoin: miter; stroke-linecap: square"/>
   </g>
   <g id="patch_12">
    <path d="M 394.363636 43.2 
L 648 43.2 
" style="fill: none; stroke: #000000; stroke-width: 0.8; stroke-linejoin: miter; stroke-linecap: square"/>
   </g>
   <g id="text_30">
    <!-- Kubitza2005a fm_Fig3C_aPTT (change relative)_T5 -->
    <g transform="translate(344.304943 37.2) scale(0.14 -0.14)">
     <use xlink:href="#DejaVuSans-4b"/>
     <use xlink:href="#DejaVuSans-75" x="60.576172"/>
     <use xlink:href="#DejaVuSans-62" x="123.955078"/>
     <use xlink:href="#DejaVuSans-69" x="187.431641"/>
     <use xlink:href="#DejaVuSans-74" x="215.214844"/>
     <use xlink:href="#DejaVuSans-7a" x="254.423828"/>
     <use xlink:href="#DejaVuSans-61" x="306.914062"/>
     <use xlink:href="#DejaVuSans-32" x="368.193359"/>
     <use xlink:href="#DejaVuSans-30" x="431.816406"/>
     <use xlink:href="#DejaVuSans-30" x="495.439453"/>
     <use xlink:href="#DejaVuSans-35" x="559.0625"/>
     <use xlink:href="#DejaVuSans-61" x="622.685547"/>
     <use xlink:href="#DejaVuSans-20" x="683.964844"/>
     <use xlink:href="#DejaVuSans-66" x="715.751953"/>
     <use xlink:href="#DejaVuSans-6d" x="750.957031"/>
     <use xlink:href="#DejaVuSans-5f" x="848.369141"/>
     <use xlink:href="#DejaVuSans-46" x="898.369141"/>
     <use xlink:href="#DejaVuSans-69" x="948.638672"/>
     <use xlink:href="#DejaVuSans-67" x="976.421875"/>
     <use xlink:href="#DejaVuSans-33" x="1039.898438"/>
     <use xlink:href="#DejaVuSans-43" x="1103.521484"/>
     <use xlink:href="#DejaVuSans-5f" x="1173.345703"/>
     <use xlink:href="#DejaVuSans-61" x="1223.345703"/>
     <use xlink:href="#DejaVuSans-50" x="1284.625"/>
     <use xlink:href="#DejaVuSans-54" x="1344.927734"/>
     <use xlink:href="#DejaVuSans-54" x="1404.261719"/>
     <use xlink:href="#DejaVuSans-20" x="1465.345703"/>
     <use xlink:href="#DejaVuSans-28" x="1497.132812"/>
     <use xlink:href="#DejaVuSans-63" x="1536.146484"/>
     <use xlink:href="#DejaVuSans-68" x="1591.126953"/>
     <use xlink:href="#DejaVuSans-61" x="1654.505859"/>
     <use xlink:href="#DejaVuSans-6e" x="1715.785156"/>
     <use xlink:href="#DejaVuSans-67" x="1779.164062"/>
     <use xlink:href="#DejaVuSans-65" x="1842.640625"/>
     <use xlink:href="#DejaVuSans-20" x="1904.164062"/>
     <use xlink:href="#DejaVuSans-72" x="1935.951172"/>
     <use xlink:href="#DejaVuSans-65" x="1974.814453"/>
     <use xlink:href="#DejaVuSans-6c" x="2036.337891"/>
     <use xlink:href="#DejaVuSans-61" x="2064.121094"/>
     <use xlink:href="#DejaVuSans-74" x="2125.400391"/>
     <use xlink:href="#DejaVuSans-69" x="2164.609375"/>
     <use xlink:href="#DejaVuSans-76" x="2192.392578"/>
     <use xlink:href="#DejaVuSans-65" x="2251.572266"/>
     <use xlink:href="#DejaVuSans-29" x="2313.095703"/>
     <use xlink:href="#DejaVuSans-5f" x="2352.109375"/>
     <use xlink:href="#DejaVuSans-54" x="2402.109375"/>
     <use xlink:href="#DejaVuSans-35" x="2463.193359"/>
    </g>
   </g>
   <g id="legend_2">
    <g id="patch_13">
     <path d="M 401.363636 315.4 
L 508.629261 315.4 
Q 510.629261 315.4 510.629261 313.4 
L 510.629261 284.765625 
Q 510.629261 282.765625 508.629261 282.765625 
L 401.363636 282.765625 
Q 399.363636 282.765625 399.363636 284.765625 
L 399.363636 313.4 
Q 399.363636 315.4 401.363636 315.4 
z
" style="fill: #ffffff; opacity: 0.8; stroke: #cccccc; stroke-linejoin: miter"/>
    </g>
    <g id="line2d_33">
     <g>
      <use xlink:href="#m08de9708a7" x="413.363636" y="290.864062" style="stroke: #000000; stroke-linejoin: miter"/>
     </g>
    </g>
    <g id="text_31">
     <!-- reference_data -->
     <g transform="translate(431.363636 294.364062) scale(0.1 -0.1)">
      <use xlink:href="#DejaVuSans-72"/>
      <use xlink:href="#DejaVuSans-65" x="38.863281"/>
      <use xlink:href="#DejaVuSans-66" x="100.386719"/>
      <use xlink:href="#DejaVuSans-65" x="135.591797"/>
      <use xlink:href="#DejaVuSans-72" x="197.115234"/>
      <use xlink:href="#DejaVuSans-65" x="235.978516"/>
      <use xlink:href="#DejaVuSans-6e" x="297.501953"/>
      <use xlink:href="#DejaVuSans-63" x="360.880859"/>
      <use xlink:href="#DejaVuSans-65" x="415.861328"/>
      <use xlink:href="#DejaVuSans-5f" x="477.384766"/>
      <use xlink:href="#DejaVuSans-64" x="527.384766"/>
      <use xlink:href="#DejaVuSans-61" x="590.861328"/>
      <use xlink:href="#DejaVuSans-74" x="652.140625"/>
      <use xlink:href="#DejaVuSans-61" x="691.349609"/>
     </g>
    </g>
    <g id="line2d_34">
     <path d="M 403.363636 305.820312 
L 413.363636 305.820312 
L 423.363636 305.820312 
" style="fill: none; stroke: #0000ff; stroke-width: 1.5; stroke-linecap: square"/>
    </g>
    <g id="text_32">
     <!-- observable -->
     <g transform="translate(431.363636 309.320312) scale(0.1 -0.1)">
      <use xlink:href="#DejaVuSans-6f"/>
      <use xlink:href="#DejaVuSans-62" x="61.181641"/>
      <use xlink:href="#DejaVuSans-73" x="124.658203"/>
      <use xlink:href="#DejaVuSans-65" x="176.757812"/>
      <use xlink:href="#DejaVuSans-72" x="238.28125"/>
      <use xlink:href="#DejaVuSans-76" x="279.394531"/>
      <use xlink:href="#DejaVuSans-61" x="338.574219"/>
      <use xlink:href="#DejaVuSans-62" x="399.853516"/>
      <use xlink:href="#DejaVuSans-6c" x="463.330078"/>
      <use xlink:href="#DejaVuSans-65" x="491.113281"/>
     </g>
    </g>
   </g>
  </g>
 </g>
 <defs>
  <clipPath id="p55ee42bcaa">
   <rect x="90" y="43.2" width="253.636364" height="277.2"/>
  </clipPath>
  <clipPath id="p4cd5168a3c">
   <rect x="394.363636" y="43.2" width="253.636364" height="277.2"/>
  </clipPath>
 </defs>
</svg>
