<?xml version="1.0" encoding="utf-8" standalone="no"?>
<!DOCTYPE svg PUBLIC "-//W3C//DTD SVG 1.1//EN"
  "http://www.w3.org/Graphics/SVG/1.1/DTD/svg11.dtd">
<svg xmlns:xlink="http://www.w3.org/1999/xlink" width="360pt" height="360pt" viewBox="0 0 360 360" xmlns="http://www.w3.org/2000/svg" version="1.1">
 <metadata>
  <rdf:RDF xmlns:dc="http://purl.org/dc/elements/1.1/" xmlns:cc="http://creativecommons.org/ns#" xmlns:rdf="http://www.w3.org/1999/02/22-rdf-syntax-ns#">
   <cc:Work>
    <dc:type rdf:resource="http://purl.org/dc/dcmitype/StillImage"/>
    <dc:date>2025-07-17T16:26:32.141451</dc:date>
    <dc:format>image/svg+xml</dc:format>
    <dc:creator>
     <cc:Agent>
      <dc:title>Matplotlib v3.9.1, https://matplotlib.org/</dc:title>
     </cc:Agent>
    </dc:creator>
   </cc:Work>
  </rdf:RDF>
 </metadata>
 <defs>
  <style type="text/css">*{stroke-linejoin: round; stroke-linecap: butt}</style>
 </defs>
 <g id="figure_1">
  <g id="patch_1">
   <path d="M 0 360 
L 360 360 
L 360 0 
L 0 0 
z
" style="fill: #ffffff"/>
  </g>
  <g id="axes_1">
   <g id="patch_2">
    <path d="M 88.91399 324.707885 
L 356.99976 324.707885 
L 356.99976 3.00024 
L 88.91399 3.00024 
z
" style="fill: #ffffff"/>
   </g>
   <g id="matplotlib.axis_1">
    <g id="xtick_1">
     <g id="line2d_1">
      <defs>
       <path id="mc95a79e6f2" d="M 0 0 
L 0 3.5 
" style="stroke: #000000; stroke-width: 0.8"/>
      </defs>
      <g>
       <use xlink:href="#mc95a79e6f2" x="101.099707" y="324.707885" style="stroke: #000000; stroke-width: 0.8"/>
      </g>
     </g>
     <g id="text_1">
      <!-- 0 -->
      <g transform="translate(97.918457 339.306323) scale(0.1 -0.1)">
       <defs>
        <path id="DejaVuSans-30" d="M 2034 4250 
Q 1547 4250 1301 3770 
Q 1056 3291 1056 2328 
Q 1056 1369 1301 889 
Q 1547 409 2034 409 
Q 2525 409 2770 889 
Q 3016 1369 3016 2328 
Q 3016 3291 2770 3770 
Q 2525 4250 2034 4250 
z
M 2034 4750 
Q 2819 4750 3233 4129 
Q 3647 3509 3647 2328 
Q 3647 1150 3233 529 
Q 2819 -91 2034 -91 
Q 1250 -91 836 529 
Q 422 1150 422 2328 
Q 422 3509 836 4129 
Q 1250 4750 2034 4750 
z
" transform="scale(0.015625)"/>
       </defs>
       <use xlink:href="#DejaVuSans-30"/>
      </g>
     </g>
    </g>
    <g id="xtick_2">
     <g id="line2d_2">
      <g>
       <use xlink:href="#mc95a79e6f2" x="150.334926" y="324.707885" style="stroke: #000000; stroke-width: 0.8"/>
      </g>
     </g>
     <g id="text_2">
      <!-- 20 -->
      <g transform="translate(143.972426 339.306323) scale(0.1 -0.1)">
       <defs>
        <path id="DejaVuSans-32" d="M 1228 531 
L 3431 531 
L 3431 0 
L 469 0 
L 469 531 
Q 828 903 1448 1529 
Q 2069 2156 2228 2338 
Q 2531 2678 2651 2914 
Q 2772 3150 2772 3378 
Q 2772 3750 2511 3984 
Q 2250 4219 1831 4219 
Q 1534 4219 1204 4116 
Q 875 4013 500 3803 
L 500 4441 
Q 881 4594 1212 4672 
Q 1544 4750 1819 4750 
Q 2544 4750 2975 4387 
Q 3406 4025 3406 3419 
Q 3406 3131 3298 2873 
Q 3191 2616 2906 2266 
Q 2828 2175 2409 1742 
Q 1991 1309 1228 531 
z
" transform="scale(0.015625)"/>
       </defs>
       <use xlink:href="#DejaVuSans-32"/>
       <use xlink:href="#DejaVuSans-30" x="63.623047"/>
      </g>
     </g>
    </g>
    <g id="xtick_3">
     <g id="line2d_3">
      <g>
       <use xlink:href="#mc95a79e6f2" x="199.570146" y="324.707885" style="stroke: #000000; stroke-width: 0.8"/>
      </g>
     </g>
     <g id="text_3">
      <!-- 40 -->
      <g transform="translate(193.207646 339.306323) scale(0.1 -0.1)">
       <defs>
        <path id="DejaVuSans-34" d="M 2419 4116 
L 825 1625 
L 2419 1625 
L 2419 4116 
z
M 2253 4666 
L 3047 4666 
L 3047 1625 
L 3713 1625 
L 3713 1100 
L 3047 1100 
L 3047 0 
L 2419 0 
L 2419 1100 
L 313 1100 
L 313 1709 
L 2253 4666 
z
" transform="scale(0.015625)"/>
       </defs>
       <use xlink:href="#DejaVuSans-34"/>
       <use xlink:href="#DejaVuSans-30" x="63.623047"/>
      </g>
     </g>
    </g>
    <g id="xtick_4">
     <g id="line2d_4">
      <g>
       <use xlink:href="#mc95a79e6f2" x="248.805365" y="324.707885" style="stroke: #000000; stroke-width: 0.8"/>
      </g>
     </g>
     <g id="text_4">
      <!-- 60 -->
      <g transform="translate(242.442865 339.306323) scale(0.1 -0.1)">
       <defs>
        <path id="DejaVuSans-36" d="M 2113 2584 
Q 1688 2584 1439 2293 
Q 1191 2003 1191 1497 
Q 1191 994 1439 701 
Q 1688 409 2113 409 
Q 2538 409 2786 701 
Q 3034 994 3034 1497 
Q 3034 2003 2786 2293 
Q 2538 2584 2113 2584 
z
M 3366 4563 
L 3366 3988 
Q 3128 4100 2886 4159 
Q 2644 4219 2406 4219 
Q 1781 4219 1451 3797 
Q 1122 3375 1075 2522 
Q 1259 2794 1537 2939 
Q 1816 3084 2150 3084 
Q 2853 3084 3261 2657 
Q 3669 2231 3669 1497 
Q 3669 778 3244 343 
Q 2819 -91 2113 -91 
Q 1303 -91 875 529 
Q 447 1150 447 2328 
Q 447 3434 972 4092 
Q 1497 4750 2381 4750 
Q 2619 4750 2861 4703 
Q 3103 4656 3366 4563 
z
" transform="scale(0.015625)"/>
       </defs>
       <use xlink:href="#DejaVuSans-36"/>
       <use xlink:href="#DejaVuSans-30" x="63.623047"/>
      </g>
     </g>
    </g>
    <g id="xtick_5">
     <g id="line2d_5">
      <g>
       <use xlink:href="#mc95a79e6f2" x="298.040585" y="324.707885" style="stroke: #000000; stroke-width: 0.8"/>
      </g>
     </g>
     <g id="text_5">
      <!-- 80 -->
      <g transform="translate(291.678085 339.306323) scale(0.1 -0.1)">
       <defs>
        <path id="DejaVuSans-38" d="M 2034 2216 
Q 1584 2216 1326 1975 
Q 1069 1734 1069 1313 
Q 1069 891 1326 650 
Q 1584 409 2034 409 
Q 2484 409 2743 651 
Q 3003 894 3003 1313 
Q 3003 1734 2745 1975 
Q 2488 2216 2034 2216 
z
M 1403 2484 
Q 997 2584 770 2862 
Q 544 3141 544 3541 
Q 544 4100 942 4425 
Q 1341 4750 2034 4750 
Q 2731 4750 3128 4425 
Q 3525 4100 3525 3541 
Q 3525 3141 3298 2862 
Q 3072 2584 2669 2484 
Q 3125 2378 3379 2068 
Q 3634 1759 3634 1313 
Q 3634 634 3220 271 
Q 2806 -91 2034 -91 
Q 1263 -91 848 271 
Q 434 634 434 1313 
Q 434 1759 690 2068 
Q 947 2378 1403 2484 
z
M 1172 3481 
Q 1172 3119 1398 2916 
Q 1625 2713 2034 2713 
Q 2441 2713 2670 2916 
Q 2900 3119 2900 3481 
Q 2900 3844 2670 4047 
Q 2441 4250 2034 4250 
Q 1625 4250 1398 4047 
Q 1172 3844 1172 3481 
z
" transform="scale(0.015625)"/>
       </defs>
       <use xlink:href="#DejaVuSans-38"/>
       <use xlink:href="#DejaVuSans-30" x="63.623047"/>
      </g>
     </g>
    </g>
    <g id="xtick_6">
     <g id="line2d_6">
      <g>
       <use xlink:href="#mc95a79e6f2" x="347.275804" y="324.707885" style="stroke: #000000; stroke-width: 0.8"/>
      </g>
     </g>
     <g id="text_6">
      <!-- 100 -->
      <g transform="translate(337.732054 339.306323) scale(0.1 -0.1)">
       <defs>
        <path id="DejaVuSans-31" d="M 794 531 
L 1825 531 
L 1825 4091 
L 703 3866 
L 703 4441 
L 1819 4666 
L 2450 4666 
L 2450 531 
L 3481 531 
L 3481 0 
L 794 0 
L 794 531 
z
" transform="scale(0.015625)"/>
       </defs>
       <use xlink:href="#DejaVuSans-31"/>
       <use xlink:href="#DejaVuSans-30" x="63.623047"/>
       <use xlink:href="#DejaVuSans-30" x="127.246094"/>
      </g>
     </g>
    </g>
    <g id="text_7">
     <!-- Index (ordered optimizer run) -->
     <g transform="translate(134.27875 354.504135) scale(0.12 -0.12)">
      <defs>
       <path id="DejaVuSans-49" d="M 628 4666 
L 1259 4666 
L 1259 0 
L 628 0 
L 628 4666 
z
" transform="scale(0.015625)"/>
       <path id="DejaVuSans-6e" d="M 3513 2113 
L 3513 0 
L 2938 0 
L 2938 2094 
Q 2938 2591 2744 2837 
Q 2550 3084 2163 3084 
Q 1697 3084 1428 2787 
Q 1159 2491 1159 1978 
L 1159 0 
L 581 0 
L 581 3500 
L 1159 3500 
L 1159 2956 
Q 1366 3272 1645 3428 
Q 1925 3584 2291 3584 
Q 2894 3584 3203 3211 
Q 3513 2838 3513 2113 
z
" transform="scale(0.015625)"/>
       <path id="DejaVuSans-64" d="M 2906 2969 
L 2906 4863 
L 3481 4863 
L 3481 0 
L 2906 0 
L 2906 525 
Q 2725 213 2448 61 
Q 2172 -91 1784 -91 
Q 1150 -91 751 415 
Q 353 922 353 1747 
Q 353 2572 751 3078 
Q 1150 3584 1784 3584 
Q 2172 3584 2448 3432 
Q 2725 3281 2906 2969 
z
M 947 1747 
Q 947 1113 1208 752 
Q 1469 391 1925 391 
Q 2381 391 2643 752 
Q 2906 1113 2906 1747 
Q 2906 2381 2643 2742 
Q 2381 3103 1925 3103 
Q 1469 3103 1208 2742 
Q 947 2381 947 1747 
z
" transform="scale(0.015625)"/>
       <path id="DejaVuSans-65" d="M 3597 1894 
L 3597 1613 
L 953 1613 
Q 991 1019 1311 708 
Q 1631 397 2203 397 
Q 2534 397 2845 478 
Q 3156 559 3463 722 
L 3463 178 
Q 3153 47 2828 -22 
Q 2503 -91 2169 -91 
Q 1331 -91 842 396 
Q 353 884 353 1716 
Q 353 2575 817 3079 
Q 1281 3584 2069 3584 
Q 2775 3584 3186 3129 
Q 3597 2675 3597 1894 
z
M 3022 2063 
Q 3016 2534 2758 2815 
Q 2500 3097 2075 3097 
Q 1594 3097 1305 2825 
Q 1016 2553 972 2059 
L 3022 2063 
z
" transform="scale(0.015625)"/>
       <path id="DejaVuSans-78" d="M 3513 3500 
L 2247 1797 
L 3578 0 
L 2900 0 
L 1881 1375 
L 863 0 
L 184 0 
L 1544 1831 
L 300 3500 
L 978 3500 
L 1906 2253 
L 2834 3500 
L 3513 3500 
z
" transform="scale(0.015625)"/>
       <path id="DejaVuSans-20" transform="scale(0.015625)"/>
       <path id="DejaVuSans-28" d="M 1984 4856 
Q 1566 4138 1362 3434 
Q 1159 2731 1159 2009 
Q 1159 1288 1364 580 
Q 1569 -128 1984 -844 
L 1484 -844 
Q 1016 -109 783 600 
Q 550 1309 550 2009 
Q 550 2706 781 3412 
Q 1013 4119 1484 4856 
L 1984 4856 
z
" transform="scale(0.015625)"/>
       <path id="DejaVuSans-6f" d="M 1959 3097 
Q 1497 3097 1228 2736 
Q 959 2375 959 1747 
Q 959 1119 1226 758 
Q 1494 397 1959 397 
Q 2419 397 2687 759 
Q 2956 1122 2956 1747 
Q 2956 2369 2687 2733 
Q 2419 3097 1959 3097 
z
M 1959 3584 
Q 2709 3584 3137 3096 
Q 3566 2609 3566 1747 
Q 3566 888 3137 398 
Q 2709 -91 1959 -91 
Q 1206 -91 779 398 
Q 353 888 353 1747 
Q 353 2609 779 3096 
Q 1206 3584 1959 3584 
z
" transform="scale(0.015625)"/>
       <path id="DejaVuSans-72" d="M 2631 2963 
Q 2534 3019 2420 3045 
Q 2306 3072 2169 3072 
Q 1681 3072 1420 2755 
Q 1159 2438 1159 1844 
L 1159 0 
L 581 0 
L 581 3500 
L 1159 3500 
L 1159 2956 
Q 1341 3275 1631 3429 
Q 1922 3584 2338 3584 
Q 2397 3584 2469 3576 
Q 2541 3569 2628 3553 
L 2631 2963 
z
" transform="scale(0.015625)"/>
       <path id="DejaVuSans-70" d="M 1159 525 
L 1159 -1331 
L 581 -1331 
L 581 3500 
L 1159 3500 
L 1159 2969 
Q 1341 3281 1617 3432 
Q 1894 3584 2278 3584 
Q 2916 3584 3314 3078 
Q 3713 2572 3713 1747 
Q 3713 922 3314 415 
Q 2916 -91 2278 -91 
Q 1894 -91 1617 61 
Q 1341 213 1159 525 
z
M 3116 1747 
Q 3116 2381 2855 2742 
Q 2594 3103 2138 3103 
Q 1681 3103 1420 2742 
Q 1159 2381 1159 1747 
Q 1159 1113 1420 752 
Q 1681 391 2138 391 
Q 2594 391 2855 752 
Q 3116 1113 3116 1747 
z
" transform="scale(0.015625)"/>
       <path id="DejaVuSans-74" d="M 1172 4494 
L 1172 3500 
L 2356 3500 
L 2356 3053 
L 1172 3053 
L 1172 1153 
Q 1172 725 1289 603 
Q 1406 481 1766 481 
L 2356 481 
L 2356 0 
L 1766 0 
Q 1100 0 847 248 
Q 594 497 594 1153 
L 594 3053 
L 172 3053 
L 172 3500 
L 594 3500 
L 594 4494 
L 1172 4494 
z
" transform="scale(0.015625)"/>
       <path id="DejaVuSans-69" d="M 603 3500 
L 1178 3500 
L 1178 0 
L 603 0 
L 603 3500 
z
M 603 4863 
L 1178 4863 
L 1178 4134 
L 603 4134 
L 603 4863 
z
" transform="scale(0.015625)"/>
       <path id="DejaVuSans-6d" d="M 3328 2828 
Q 3544 3216 3844 3400 
Q 4144 3584 4550 3584 
Q 5097 3584 5394 3201 
Q 5691 2819 5691 2113 
L 5691 0 
L 5113 0 
L 5113 2094 
Q 5113 2597 4934 2840 
Q 4756 3084 4391 3084 
Q 3944 3084 3684 2787 
Q 3425 2491 3425 1978 
L 3425 0 
L 2847 0 
L 2847 2094 
Q 2847 2600 2669 2842 
Q 2491 3084 2119 3084 
Q 1678 3084 1418 2786 
Q 1159 2488 1159 1978 
L 1159 0 
L 581 0 
L 581 3500 
L 1159 3500 
L 1159 2956 
Q 1356 3278 1631 3431 
Q 1906 3584 2284 3584 
Q 2666 3584 2933 3390 
Q 3200 3197 3328 2828 
z
" transform="scale(0.015625)"/>
       <path id="DejaVuSans-7a" d="M 353 3500 
L 3084 3500 
L 3084 2975 
L 922 459 
L 3084 459 
L 3084 0 
L 275 0 
L 275 525 
L 2438 3041 
L 353 3041 
L 353 3500 
z
" transform="scale(0.015625)"/>
       <path id="DejaVuSans-75" d="M 544 1381 
L 544 3500 
L 1119 3500 
L 1119 1403 
Q 1119 906 1312 657 
Q 1506 409 1894 409 
Q 2359 409 2629 706 
Q 2900 1003 2900 1516 
L 2900 3500 
L 3475 3500 
L 3475 0 
L 2900 0 
L 2900 538 
Q 2691 219 2414 64 
Q 2138 -91 1772 -91 
Q 1169 -91 856 284 
Q 544 659 544 1381 
z
M 1991 3584 
L 1991 3584 
z
" transform="scale(0.015625)"/>
       <path id="DejaVuSans-29" d="M 513 4856 
L 1013 4856 
Q 1481 4119 1714 3412 
Q 1947 2706 1947 2009 
Q 1947 1309 1714 600 
Q 1481 -109 1013 -844 
L 513 -844 
Q 928 -128 1133 580 
Q 1338 1288 1338 2009 
Q 1338 2731 1133 3434 
Q 928 4138 513 4856 
z
" transform="scale(0.015625)"/>
      </defs>
      <use xlink:href="#DejaVuSans-49"/>
      <use xlink:href="#DejaVuSans-6e" x="29.492188"/>
      <use xlink:href="#DejaVuSans-64" x="92.871094"/>
      <use xlink:href="#DejaVuSans-65" x="156.347656"/>
      <use xlink:href="#DejaVuSans-78" x="216.121094"/>
      <use xlink:href="#DejaVuSans-20" x="275.300781"/>
      <use xlink:href="#DejaVuSans-28" x="307.087891"/>
      <use xlink:href="#DejaVuSans-6f" x="346.101562"/>
      <use xlink:href="#DejaVuSans-72" x="407.283203"/>
      <use xlink:href="#DejaVuSans-64" x="446.646484"/>
      <use xlink:href="#DejaVuSans-65" x="510.123047"/>
      <use xlink:href="#DejaVuSans-72" x="571.646484"/>
      <use xlink:href="#DejaVuSans-65" x="610.509766"/>
      <use xlink:href="#DejaVuSans-64" x="672.033203"/>
      <use xlink:href="#DejaVuSans-20" x="735.509766"/>
      <use xlink:href="#DejaVuSans-6f" x="767.296875"/>
      <use xlink:href="#DejaVuSans-70" x="828.478516"/>
      <use xlink:href="#DejaVuSans-74" x="891.955078"/>
      <use xlink:href="#DejaVuSans-69" x="931.164062"/>
      <use xlink:href="#DejaVuSans-6d" x="958.947266"/>
      <use xlink:href="#DejaVuSans-69" x="1056.359375"/>
      <use xlink:href="#DejaVuSans-7a" x="1084.142578"/>
      <use xlink:href="#DejaVuSans-65" x="1136.632812"/>
      <use xlink:href="#DejaVuSans-72" x="1198.15625"/>
      <use xlink:href="#DejaVuSans-20" x="1239.269531"/>
      <use xlink:href="#DejaVuSans-72" x="1271.056641"/>
      <use xlink:href="#DejaVuSans-75" x="1312.169922"/>
      <use xlink:href="#DejaVuSans-6e" x="1375.548828"/>
      <use xlink:href="#DejaVuSans-29" x="1438.927734"/>
     </g>
    </g>
   </g>
   <g id="matplotlib.axis_2">
    <g id="ytick_1">
     <g id="line2d_7">
      <defs>
       <path id="m28fd8be19f" d="M 0 0 
L -3.5 0 
" style="stroke: #000000; stroke-width: 0.8"/>
      </defs>
      <g>
       <use xlink:href="#m28fd8be19f" x="88.91399" y="310.08481" style="stroke: #000000; stroke-width: 0.8"/>
      </g>
     </g>
     <g id="text_8">
      <!-- $\mathdefault{10^{0}}$ -->
      <g transform="translate(64.31399 313.884029) scale(0.1 -0.1)">
       <use xlink:href="#DejaVuSans-31" transform="translate(0 0.765625)"/>
       <use xlink:href="#DejaVuSans-30" transform="translate(63.623047 0.765625)"/>
       <use xlink:href="#DejaVuSans-30" transform="translate(128.203125 39.046875) scale(0.7)"/>
      </g>
     </g>
    </g>
    <g id="ytick_2">
     <g id="line2d_8">
      <defs>
       <path id="m77553e2fa2" d="M 0 0 
L -2 0 
" style="stroke: #000000; stroke-width: 0.6"/>
      </defs>
      <g>
       <use xlink:href="#m77553e2fa2" x="88.91399" y="265.868791" style="stroke: #000000; stroke-width: 0.6"/>
      </g>
     </g>
     <g id="text_9">
      <!-- $\mathdefault{1.0001\times10^{0}}$ -->
      <g transform="translate(18.61399 269.66801) scale(0.1 -0.1)">
       <defs>
        <path id="DejaVuSans-2e" d="M 684 794 
L 1344 794 
L 1344 0 
L 684 0 
L 684 794 
z
" transform="scale(0.015625)"/>
        <path id="DejaVuSans-d7" d="M 4488 3438 
L 3059 2003 
L 4488 575 
L 4116 197 
L 2681 1631 
L 1247 197 
L 878 575 
L 2303 2003 
L 878 3438 
L 1247 3816 
L 2681 2381 
L 4116 3816 
L 4488 3438 
z
" transform="scale(0.015625)"/>
       </defs>
       <use xlink:href="#DejaVuSans-31" transform="translate(0 0.765625)"/>
       <use xlink:href="#DejaVuSans-2e" transform="translate(63.623047 0.765625)"/>
       <use xlink:href="#DejaVuSans-30" transform="translate(95.410156 0.765625)"/>
       <use xlink:href="#DejaVuSans-30" transform="translate(159.033203 0.765625)"/>
       <use xlink:href="#DejaVuSans-30" transform="translate(222.65625 0.765625)"/>
       <use xlink:href="#DejaVuSans-31" transform="translate(286.279297 0.765625)"/>
       <use xlink:href="#DejaVuSans-d7" transform="translate(369.384766 0.765625)"/>
       <use xlink:href="#DejaVuSans-31" transform="translate(472.65625 0.765625)"/>
       <use xlink:href="#DejaVuSans-30" transform="translate(536.279297 0.765625)"/>
       <use xlink:href="#DejaVuSans-30" transform="translate(600.859375 39.046875) scale(0.7)"/>
      </g>
     </g>
    </g>
    <g id="ytick_3">
     <g id="line2d_9">
      <g>
       <use xlink:href="#m77553e2fa2" x="88.91399" y="221.657193" style="stroke: #000000; stroke-width: 0.6"/>
      </g>
     </g>
     <g id="text_10">
      <!-- $\mathdefault{1.0002\times10^{0}}$ -->
      <g transform="translate(18.61399 225.456411) scale(0.1 -0.1)">
       <use xlink:href="#DejaVuSans-31" transform="translate(0 0.765625)"/>
       <use xlink:href="#DejaVuSans-2e" transform="translate(63.623047 0.765625)"/>
       <use xlink:href="#DejaVuSans-30" transform="translate(95.410156 0.765625)"/>
       <use xlink:href="#DejaVuSans-30" transform="translate(159.033203 0.765625)"/>
       <use xlink:href="#DejaVuSans-30" transform="translate(222.65625 0.765625)"/>
       <use xlink:href="#DejaVuSans-32" transform="translate(286.279297 0.765625)"/>
       <use xlink:href="#DejaVuSans-d7" transform="translate(369.384766 0.765625)"/>
       <use xlink:href="#DejaVuSans-31" transform="translate(472.65625 0.765625)"/>
       <use xlink:href="#DejaVuSans-30" transform="translate(536.279297 0.765625)"/>
       <use xlink:href="#DejaVuSans-30" transform="translate(600.859375 39.046875) scale(0.7)"/>
      </g>
     </g>
    </g>
    <g id="ytick_4">
     <g id="line2d_10">
      <g>
       <use xlink:href="#m77553e2fa2" x="88.91399" y="177.450014" style="stroke: #000000; stroke-width: 0.6"/>
      </g>
     </g>
     <g id="text_11">
      <!-- $\mathdefault{1.0003\times10^{0}}$ -->
      <g transform="translate(18.61399 181.249233) scale(0.1 -0.1)">
       <defs>
        <path id="DejaVuSans-33" d="M 2597 2516 
Q 3050 2419 3304 2112 
Q 3559 1806 3559 1356 
Q 3559 666 3084 287 
Q 2609 -91 1734 -91 
Q 1441 -91 1130 -33 
Q 819 25 488 141 
L 488 750 
Q 750 597 1062 519 
Q 1375 441 1716 441 
Q 2309 441 2620 675 
Q 2931 909 2931 1356 
Q 2931 1769 2642 2001 
Q 2353 2234 1838 2234 
L 1294 2234 
L 1294 2753 
L 1863 2753 
Q 2328 2753 2575 2939 
Q 2822 3125 2822 3475 
Q 2822 3834 2567 4026 
Q 2313 4219 1838 4219 
Q 1578 4219 1281 4162 
Q 984 4106 628 3988 
L 628 4550 
Q 988 4650 1302 4700 
Q 1616 4750 1894 4750 
Q 2613 4750 3031 4423 
Q 3450 4097 3450 3541 
Q 3450 3153 3228 2886 
Q 3006 2619 2597 2516 
z
" transform="scale(0.015625)"/>
       </defs>
       <use xlink:href="#DejaVuSans-31" transform="translate(0 0.765625)"/>
       <use xlink:href="#DejaVuSans-2e" transform="translate(63.623047 0.765625)"/>
       <use xlink:href="#DejaVuSans-30" transform="translate(95.410156 0.765625)"/>
       <use xlink:href="#DejaVuSans-30" transform="translate(159.033203 0.765625)"/>
       <use xlink:href="#DejaVuSans-30" transform="translate(222.65625 0.765625)"/>
       <use xlink:href="#DejaVuSans-33" transform="translate(286.279297 0.765625)"/>
       <use xlink:href="#DejaVuSans-d7" transform="translate(369.384766 0.765625)"/>
       <use xlink:href="#DejaVuSans-31" transform="translate(472.65625 0.765625)"/>
       <use xlink:href="#DejaVuSans-30" transform="translate(536.279297 0.765625)"/>
       <use xlink:href="#DejaVuSans-30" transform="translate(600.859375 39.046875) scale(0.7)"/>
      </g>
     </g>
    </g>
    <g id="ytick_5">
     <g id="line2d_11">
      <g>
       <use xlink:href="#m77553e2fa2" x="88.91399" y="133.247255" style="stroke: #000000; stroke-width: 0.6"/>
      </g>
     </g>
     <g id="text_12">
      <!-- $\mathdefault{1.0004\times10^{0}}$ -->
      <g transform="translate(18.61399 137.046474) scale(0.1 -0.1)">
       <use xlink:href="#DejaVuSans-31" transform="translate(0 0.765625)"/>
       <use xlink:href="#DejaVuSans-2e" transform="translate(63.623047 0.765625)"/>
       <use xlink:href="#DejaVuSans-30" transform="translate(95.410156 0.765625)"/>
       <use xlink:href="#DejaVuSans-30" transform="translate(159.033203 0.765625)"/>
       <use xlink:href="#DejaVuSans-30" transform="translate(222.65625 0.765625)"/>
       <use xlink:href="#DejaVuSans-34" transform="translate(286.279297 0.765625)"/>
       <use xlink:href="#DejaVuSans-d7" transform="translate(369.384766 0.765625)"/>
       <use xlink:href="#DejaVuSans-31" transform="translate(472.65625 0.765625)"/>
       <use xlink:href="#DejaVuSans-30" transform="translate(536.279297 0.765625)"/>
       <use xlink:href="#DejaVuSans-30" transform="translate(600.859375 39.046875) scale(0.7)"/>
      </g>
     </g>
    </g>
    <g id="ytick_6">
     <g id="line2d_12">
      <g>
       <use xlink:href="#m77553e2fa2" x="88.91399" y="89.048915" style="stroke: #000000; stroke-width: 0.6"/>
      </g>
     </g>
     <g id="text_13">
      <!-- $\mathdefault{1.0005\times10^{0}}$ -->
      <g transform="translate(18.61399 92.848133) scale(0.1 -0.1)">
       <defs>
        <path id="DejaVuSans-35" d="M 691 4666 
L 3169 4666 
L 3169 4134 
L 1269 4134 
L 1269 2991 
Q 1406 3038 1543 3061 
Q 1681 3084 1819 3084 
Q 2600 3084 3056 2656 
Q 3513 2228 3513 1497 
Q 3513 744 3044 326 
Q 2575 -91 1722 -91 
Q 1428 -91 1123 -41 
Q 819 9 494 109 
L 494 744 
Q 775 591 1075 516 
Q 1375 441 1709 441 
Q 2250 441 2565 725 
Q 2881 1009 2881 1497 
Q 2881 1984 2565 2268 
Q 2250 2553 1709 2553 
Q 1456 2553 1204 2497 
Q 953 2441 691 2322 
L 691 4666 
z
" transform="scale(0.015625)"/>
       </defs>
       <use xlink:href="#DejaVuSans-31" transform="translate(0 0.765625)"/>
       <use xlink:href="#DejaVuSans-2e" transform="translate(63.623047 0.765625)"/>
       <use xlink:href="#DejaVuSans-30" transform="translate(95.410156 0.765625)"/>
       <use xlink:href="#DejaVuSans-30" transform="translate(159.033203 0.765625)"/>
       <use xlink:href="#DejaVuSans-30" transform="translate(222.65625 0.765625)"/>
       <use xlink:href="#DejaVuSans-35" transform="translate(286.279297 0.765625)"/>
       <use xlink:href="#DejaVuSans-d7" transform="translate(369.384766 0.765625)"/>
       <use xlink:href="#DejaVuSans-31" transform="translate(472.65625 0.765625)"/>
       <use xlink:href="#DejaVuSans-30" transform="translate(536.279297 0.765625)"/>
       <use xlink:href="#DejaVuSans-30" transform="translate(600.859375 39.046875) scale(0.7)"/>
      </g>
     </g>
    </g>
    <g id="ytick_7">
     <g id="line2d_13">
      <g>
       <use xlink:href="#m77553e2fa2" x="88.91399" y="44.854991" style="stroke: #000000; stroke-width: 0.6"/>
      </g>
     </g>
     <g id="text_14">
      <!-- $\mathdefault{1.0006\times10^{0}}$ -->
      <g transform="translate(18.61399 48.65421) scale(0.1 -0.1)">
       <use xlink:href="#DejaVuSans-31" transform="translate(0 0.765625)"/>
       <use xlink:href="#DejaVuSans-2e" transform="translate(63.623047 0.765625)"/>
       <use xlink:href="#DejaVuSans-30" transform="translate(95.410156 0.765625)"/>
       <use xlink:href="#DejaVuSans-30" transform="translate(159.033203 0.765625)"/>
       <use xlink:href="#DejaVuSans-30" transform="translate(222.65625 0.765625)"/>
       <use xlink:href="#DejaVuSans-36" transform="translate(286.279297 0.765625)"/>
       <use xlink:href="#DejaVuSans-d7" transform="translate(369.384766 0.765625)"/>
       <use xlink:href="#DejaVuSans-31" transform="translate(472.65625 0.765625)"/>
       <use xlink:href="#DejaVuSans-30" transform="translate(536.279297 0.765625)"/>
       <use xlink:href="#DejaVuSans-30" transform="translate(600.859375 39.046875) scale(0.7)"/>
      </g>
     </g>
    </g>
    <g id="text_15">
     <!-- Offset cost value (relative to best start) -->
     <g transform="translate(12.118365 282.536875) rotate(-90) scale(0.12 -0.12)">
      <defs>
       <path id="DejaVuSans-4f" d="M 2522 4238 
Q 1834 4238 1429 3725 
Q 1025 3213 1025 2328 
Q 1025 1447 1429 934 
Q 1834 422 2522 422 
Q 3209 422 3611 934 
Q 4013 1447 4013 2328 
Q 4013 3213 3611 3725 
Q 3209 4238 2522 4238 
z
M 2522 4750 
Q 3503 4750 4090 4092 
Q 4678 3434 4678 2328 
Q 4678 1225 4090 567 
Q 3503 -91 2522 -91 
Q 1538 -91 948 565 
Q 359 1222 359 2328 
Q 359 3434 948 4092 
Q 1538 4750 2522 4750 
z
" transform="scale(0.015625)"/>
       <path id="DejaVuSans-66" d="M 2375 4863 
L 2375 4384 
L 1825 4384 
Q 1516 4384 1395 4259 
Q 1275 4134 1275 3809 
L 1275 3500 
L 2222 3500 
L 2222 3053 
L 1275 3053 
L 1275 0 
L 697 0 
L 697 3053 
L 147 3053 
L 147 3500 
L 697 3500 
L 697 3744 
Q 697 4328 969 4595 
Q 1241 4863 1831 4863 
L 2375 4863 
z
" transform="scale(0.015625)"/>
       <path id="DejaVuSans-73" d="M 2834 3397 
L 2834 2853 
Q 2591 2978 2328 3040 
Q 2066 3103 1784 3103 
Q 1356 3103 1142 2972 
Q 928 2841 928 2578 
Q 928 2378 1081 2264 
Q 1234 2150 1697 2047 
L 1894 2003 
Q 2506 1872 2764 1633 
Q 3022 1394 3022 966 
Q 3022 478 2636 193 
Q 2250 -91 1575 -91 
Q 1294 -91 989 -36 
Q 684 19 347 128 
L 347 722 
Q 666 556 975 473 
Q 1284 391 1588 391 
Q 1994 391 2212 530 
Q 2431 669 2431 922 
Q 2431 1156 2273 1281 
Q 2116 1406 1581 1522 
L 1381 1569 
Q 847 1681 609 1914 
Q 372 2147 372 2553 
Q 372 3047 722 3315 
Q 1072 3584 1716 3584 
Q 2034 3584 2315 3537 
Q 2597 3491 2834 3397 
z
" transform="scale(0.015625)"/>
       <path id="DejaVuSans-63" d="M 3122 3366 
L 3122 2828 
Q 2878 2963 2633 3030 
Q 2388 3097 2138 3097 
Q 1578 3097 1268 2742 
Q 959 2388 959 1747 
Q 959 1106 1268 751 
Q 1578 397 2138 397 
Q 2388 397 2633 464 
Q 2878 531 3122 666 
L 3122 134 
Q 2881 22 2623 -34 
Q 2366 -91 2075 -91 
Q 1284 -91 818 406 
Q 353 903 353 1747 
Q 353 2603 823 3093 
Q 1294 3584 2113 3584 
Q 2378 3584 2631 3529 
Q 2884 3475 3122 3366 
z
" transform="scale(0.015625)"/>
       <path id="DejaVuSans-76" d="M 191 3500 
L 800 3500 
L 1894 563 
L 2988 3500 
L 3597 3500 
L 2284 0 
L 1503 0 
L 191 3500 
z
" transform="scale(0.015625)"/>
       <path id="DejaVuSans-61" d="M 2194 1759 
Q 1497 1759 1228 1600 
Q 959 1441 959 1056 
Q 959 750 1161 570 
Q 1363 391 1709 391 
Q 2188 391 2477 730 
Q 2766 1069 2766 1631 
L 2766 1759 
L 2194 1759 
z
M 3341 1997 
L 3341 0 
L 2766 0 
L 2766 531 
Q 2569 213 2275 61 
Q 1981 -91 1556 -91 
Q 1019 -91 701 211 
Q 384 513 384 1019 
Q 384 1609 779 1909 
Q 1175 2209 1959 2209 
L 2766 2209 
L 2766 2266 
Q 2766 2663 2505 2880 
Q 2244 3097 1772 3097 
Q 1472 3097 1187 3025 
Q 903 2953 641 2809 
L 641 3341 
Q 956 3463 1253 3523 
Q 1550 3584 1831 3584 
Q 2591 3584 2966 3190 
Q 3341 2797 3341 1997 
z
" transform="scale(0.015625)"/>
       <path id="DejaVuSans-6c" d="M 603 4863 
L 1178 4863 
L 1178 0 
L 603 0 
L 603 4863 
z
" transform="scale(0.015625)"/>
       <path id="DejaVuSans-62" d="M 3116 1747 
Q 3116 2381 2855 2742 
Q 2594 3103 2138 3103 
Q 1681 3103 1420 2742 
Q 1159 2381 1159 1747 
Q 1159 1113 1420 752 
Q 1681 391 2138 391 
Q 2594 391 2855 752 
Q 3116 1113 3116 1747 
z
M 1159 2969 
Q 1341 3281 1617 3432 
Q 1894 3584 2278 3584 
Q 2916 3584 3314 3078 
Q 3713 2572 3713 1747 
Q 3713 922 3314 415 
Q 2916 -91 2278 -91 
Q 1894 -91 1617 61 
Q 1341 213 1159 525 
L 1159 0 
L 581 0 
L 581 4863 
L 1159 4863 
L 1159 2969 
z
" transform="scale(0.015625)"/>
      </defs>
      <use xlink:href="#DejaVuSans-4f"/>
      <use xlink:href="#DejaVuSans-66" x="78.710938"/>
      <use xlink:href="#DejaVuSans-66" x="113.916016"/>
      <use xlink:href="#DejaVuSans-73" x="149.121094"/>
      <use xlink:href="#DejaVuSans-65" x="201.220703"/>
      <use xlink:href="#DejaVuSans-74" x="262.744141"/>
      <use xlink:href="#DejaVuSans-20" x="301.953125"/>
      <use xlink:href="#DejaVuSans-63" x="333.740234"/>
      <use xlink:href="#DejaVuSans-6f" x="388.720703"/>
      <use xlink:href="#DejaVuSans-73" x="449.902344"/>
      <use xlink:href="#DejaVuSans-74" x="502.001953"/>
      <use xlink:href="#DejaVuSans-20" x="541.210938"/>
      <use xlink:href="#DejaVuSans-76" x="572.998047"/>
      <use xlink:href="#DejaVuSans-61" x="632.177734"/>
      <use xlink:href="#DejaVuSans-6c" x="693.457031"/>
      <use xlink:href="#DejaVuSans-75" x="721.240234"/>
      <use xlink:href="#DejaVuSans-65" x="784.619141"/>
      <use xlink:href="#DejaVuSans-20" x="846.142578"/>
      <use xlink:href="#DejaVuSans-28" x="877.929688"/>
      <use xlink:href="#DejaVuSans-72" x="916.943359"/>
      <use xlink:href="#DejaVuSans-65" x="955.806641"/>
      <use xlink:href="#DejaVuSans-6c" x="1017.330078"/>
      <use xlink:href="#DejaVuSans-61" x="1045.113281"/>
      <use xlink:href="#DejaVuSans-74" x="1106.392578"/>
      <use xlink:href="#DejaVuSans-69" x="1145.601562"/>
      <use xlink:href="#DejaVuSans-76" x="1173.384766"/>
      <use xlink:href="#DejaVuSans-65" x="1232.564453"/>
      <use xlink:href="#DejaVuSans-20" x="1294.087891"/>
      <use xlink:href="#DejaVuSans-74" x="1325.875"/>
      <use xlink:href="#DejaVuSans-6f" x="1365.083984"/>
      <use xlink:href="#DejaVuSans-20" x="1426.265625"/>
      <use xlink:href="#DejaVuSans-62" x="1458.052734"/>
      <use xlink:href="#DejaVuSans-65" x="1521.529297"/>
      <use xlink:href="#DejaVuSans-73" x="1583.052734"/>
      <use xlink:href="#DejaVuSans-74" x="1635.152344"/>
      <use xlink:href="#DejaVuSans-20" x="1674.361328"/>
      <use xlink:href="#DejaVuSans-73" x="1706.148438"/>
      <use xlink:href="#DejaVuSans-74" x="1758.248047"/>
      <use xlink:href="#DejaVuSans-61" x="1797.457031"/>
      <use xlink:href="#DejaVuSans-72" x="1858.736328"/>
      <use xlink:href="#DejaVuSans-74" x="1899.849609"/>
      <use xlink:href="#DejaVuSans-29" x="1939.058594"/>
     </g>
    </g>
   </g>
   <g id="line2d_14">
    <path d="M 101.099707 310.08481 
L 103.561468 238.824568 
L 106.023229 154.042104 
L 108.48499 146.60004 
L 110.946751 126.548779 
L 113.408512 126.538206 
L 115.870273 126.485801 
L 118.332034 126.465942 
L 120.793795 126.34381 
L 123.255556 126.318966 
L 125.717317 126.293857 
L 128.179078 126.262546 
L 130.640838 126.256056 
L 133.102599 126.232761 
L 135.56436 126.2096 
L 138.026121 126.193323 
L 140.487882 126.10019 
L 142.949643 126.007757 
L 145.411404 125.914053 
L 147.873165 125.90539 
L 150.334926 125.903642 
L 152.796687 125.881115 
L 155.258448 125.867415 
L 157.720209 125.84888 
L 160.18197 125.83339 
L 162.643731 125.801022 
L 165.105492 125.776514 
L 167.567253 125.743996 
L 170.029014 125.71156 
L 172.490775 125.602221 
L 174.952536 125.464938 
L 177.414297 125.458442 
L 179.876058 125.456409 
L 182.337819 125.362111 
L 184.79958 125.313122 
L 187.261341 125.298757 
L 189.723102 125.264686 
L 192.184863 125.237591 
L 194.646624 125.224402 
L 197.108385 125.143517 
L 199.570146 125.135895 
L 202.031907 124.995887 
L 204.493668 124.905788 
L 206.955429 124.868227 
L 209.41719 124.862864 
L 211.878951 124.836889 
L 214.340712 124.83585 
L 216.802473 124.819539 
L 219.264234 124.802373 
L 221.725995 124.788768 
L 224.187755 124.780378 
L 226.649516 124.774257 
L 229.111277 124.765974 
L 231.573038 124.739828 
L 234.034799 124.737381 
L 236.49656 124.713629 
L 238.958321 124.683538 
L 241.420082 124.577638 
L 243.881843 124.548263 
L 246.343604 124.530472 
L 248.805365 124.525106 
L 251.267126 124.504179 
L 253.728887 124.497946 
L 256.190648 124.483507 
L 258.652409 124.388147 
L 261.11417 124.37736 
L 263.575931 124.315503 
L 266.037692 124.275871 
L 268.499453 124.247899 
L 270.961214 124.238091 
L 273.422975 124.233384 
L 275.884736 124.231967 
L 278.346497 124.222603 
L 280.808258 124.180017 
L 283.270019 124.102915 
L 285.73178 124.099481 
L 288.193541 124.085303 
L 290.655302 124.08402 
L 293.117063 124.079808 
L 295.578824 124.063847 
L 298.040585 124.062281 
L 300.502346 124.052565 
L 302.964107 124.043473 
L 305.425868 124.005303 
L 307.887629 123.993503 
L 310.34939 123.952078 
L 312.811151 123.948305 
L 315.272912 123.938362 
L 317.734672 123.933532 
L 320.196433 123.882111 
L 322.658194 123.857381 
L 325.119955 123.846712 
L 327.581716 123.832058 
L 330.043477 123.817455 
L 332.505238 123.806906 
L 334.966999 123.800668 
L 337.42876 123.795948 
L 339.890521 72.714698 
L 342.352282 34.83371 
L 344.814043 17.623315 
" clip-path="url(#pefe81fa9e1)" style="fill: none; stroke: #000000; stroke-width: 1.5; stroke-linecap: square"/>
    <defs>
     <path id="m9f21b44038" d="M 0 3 
C 0.795609 3 1.55874 2.683901 2.12132 2.12132 
C 2.683901 1.55874 3 0.795609 3 0 
C 3 -0.795609 2.683901 -1.55874 2.12132 -2.12132 
C 1.55874 -2.683901 0.795609 -3 0 -3 
C -0.795609 -3 -1.55874 -2.683901 -2.12132 -2.12132 
C -2.683901 -1.55874 -3 -0.795609 -3 0 
C -3 0.795609 -2.683901 1.55874 -2.12132 2.12132 
C -1.55874 2.683901 -0.795609 3 0 3 
z
" style="stroke: #000000"/>
    </defs>
    <g clip-path="url(#pefe81fa9e1)">
     <use xlink:href="#m9f21b44038" x="101.099707" y="310.08481" style="stroke: #000000"/>
     <use xlink:href="#m9f21b44038" x="103.561468" y="238.824568" style="stroke: #000000"/>
     <use xlink:href="#m9f21b44038" x="106.023229" y="154.042104" style="stroke: #000000"/>
     <use xlink:href="#m9f21b44038" x="108.48499" y="146.60004" style="stroke: #000000"/>
     <use xlink:href="#m9f21b44038" x="110.946751" y="126.548779" style="stroke: #000000"/>
     <use xlink:href="#m9f21b44038" x="113.408512" y="126.538206" style="stroke: #000000"/>
     <use xlink:href="#m9f21b44038" x="115.870273" y="126.485801" style="stroke: #000000"/>
     <use xlink:href="#m9f21b44038" x="118.332034" y="126.465942" style="stroke: #000000"/>
     <use xlink:href="#m9f21b44038" x="120.793795" y="126.34381" style="stroke: #000000"/>
     <use xlink:href="#m9f21b44038" x="123.255556" y="126.318966" style="stroke: #000000"/>
     <use xlink:href="#m9f21b44038" x="125.717317" y="126.293857" style="stroke: #000000"/>
     <use xlink:href="#m9f21b44038" x="128.179078" y="126.262546" style="stroke: #000000"/>
     <use xlink:href="#m9f21b44038" x="130.640838" y="126.256056" style="stroke: #000000"/>
     <use xlink:href="#m9f21b44038" x="133.102599" y="126.232761" style="stroke: #000000"/>
     <use xlink:href="#m9f21b44038" x="135.56436" y="126.2096" style="stroke: #000000"/>
     <use xlink:href="#m9f21b44038" x="138.026121" y="126.193323" style="stroke: #000000"/>
     <use xlink:href="#m9f21b44038" x="140.487882" y="126.10019" style="stroke: #000000"/>
     <use xlink:href="#m9f21b44038" x="142.949643" y="126.007757" style="stroke: #000000"/>
     <use xlink:href="#m9f21b44038" x="145.411404" y="125.914053" style="stroke: #000000"/>
     <use xlink:href="#m9f21b44038" x="147.873165" y="125.90539" style="stroke: #000000"/>
     <use xlink:href="#m9f21b44038" x="150.334926" y="125.903642" style="stroke: #000000"/>
     <use xlink:href="#m9f21b44038" x="152.796687" y="125.881115" style="stroke: #000000"/>
     <use xlink:href="#m9f21b44038" x="155.258448" y="125.867415" style="stroke: #000000"/>
     <use xlink:href="#m9f21b44038" x="157.720209" y="125.84888" style="stroke: #000000"/>
     <use xlink:href="#m9f21b44038" x="160.18197" y="125.83339" style="stroke: #000000"/>
     <use xlink:href="#m9f21b44038" x="162.643731" y="125.801022" style="stroke: #000000"/>
     <use xlink:href="#m9f21b44038" x="165.105492" y="125.776514" style="stroke: #000000"/>
     <use xlink:href="#m9f21b44038" x="167.567253" y="125.743996" style="stroke: #000000"/>
     <use xlink:href="#m9f21b44038" x="170.029014" y="125.71156" style="stroke: #000000"/>
     <use xlink:href="#m9f21b44038" x="172.490775" y="125.602221" style="stroke: #000000"/>
     <use xlink:href="#m9f21b44038" x="174.952536" y="125.464938" style="stroke: #000000"/>
     <use xlink:href="#m9f21b44038" x="177.414297" y="125.458442" style="stroke: #000000"/>
     <use xlink:href="#m9f21b44038" x="179.876058" y="125.456409" style="stroke: #000000"/>
     <use xlink:href="#m9f21b44038" x="182.337819" y="125.362111" style="stroke: #000000"/>
     <use xlink:href="#m9f21b44038" x="184.79958" y="125.313122" style="stroke: #000000"/>
     <use xlink:href="#m9f21b44038" x="187.261341" y="125.298757" style="stroke: #000000"/>
     <use xlink:href="#m9f21b44038" x="189.723102" y="125.264686" style="stroke: #000000"/>
     <use xlink:href="#m9f21b44038" x="192.184863" y="125.237591" style="stroke: #000000"/>
     <use xlink:href="#m9f21b44038" x="194.646624" y="125.224402" style="stroke: #000000"/>
     <use xlink:href="#m9f21b44038" x="197.108385" y="125.143517" style="stroke: #000000"/>
     <use xlink:href="#m9f21b44038" x="199.570146" y="125.135895" style="stroke: #000000"/>
     <use xlink:href="#m9f21b44038" x="202.031907" y="124.995887" style="stroke: #000000"/>
     <use xlink:href="#m9f21b44038" x="204.493668" y="124.905788" style="stroke: #000000"/>
     <use xlink:href="#m9f21b44038" x="206.955429" y="124.868227" style="stroke: #000000"/>
     <use xlink:href="#m9f21b44038" x="209.41719" y="124.862864" style="stroke: #000000"/>
     <use xlink:href="#m9f21b44038" x="211.878951" y="124.836889" style="stroke: #000000"/>
     <use xlink:href="#m9f21b44038" x="214.340712" y="124.83585" style="stroke: #000000"/>
     <use xlink:href="#m9f21b44038" x="216.802473" y="124.819539" style="stroke: #000000"/>
     <use xlink:href="#m9f21b44038" x="219.264234" y="124.802373" style="stroke: #000000"/>
     <use xlink:href="#m9f21b44038" x="221.725995" y="124.788768" style="stroke: #000000"/>
     <use xlink:href="#m9f21b44038" x="224.187755" y="124.780378" style="stroke: #000000"/>
     <use xlink:href="#m9f21b44038" x="226.649516" y="124.774257" style="stroke: #000000"/>
     <use xlink:href="#m9f21b44038" x="229.111277" y="124.765974" style="stroke: #000000"/>
     <use xlink:href="#m9f21b44038" x="231.573038" y="124.739828" style="stroke: #000000"/>
     <use xlink:href="#m9f21b44038" x="234.034799" y="124.737381" style="stroke: #000000"/>
     <use xlink:href="#m9f21b44038" x="236.49656" y="124.713629" style="stroke: #000000"/>
     <use xlink:href="#m9f21b44038" x="238.958321" y="124.683538" style="stroke: #000000"/>
     <use xlink:href="#m9f21b44038" x="241.420082" y="124.577638" style="stroke: #000000"/>
     <use xlink:href="#m9f21b44038" x="243.881843" y="124.548263" style="stroke: #000000"/>
     <use xlink:href="#m9f21b44038" x="246.343604" y="124.530472" style="stroke: #000000"/>
     <use xlink:href="#m9f21b44038" x="248.805365" y="124.525106" style="stroke: #000000"/>
     <use xlink:href="#m9f21b44038" x="251.267126" y="124.504179" style="stroke: #000000"/>
     <use xlink:href="#m9f21b44038" x="253.728887" y="124.497946" style="stroke: #000000"/>
     <use xlink:href="#m9f21b44038" x="256.190648" y="124.483507" style="stroke: #000000"/>
     <use xlink:href="#m9f21b44038" x="258.652409" y="124.388147" style="stroke: #000000"/>
     <use xlink:href="#m9f21b44038" x="261.11417" y="124.37736" style="stroke: #000000"/>
     <use xlink:href="#m9f21b44038" x="263.575931" y="124.315503" style="stroke: #000000"/>
     <use xlink:href="#m9f21b44038" x="266.037692" y="124.275871" style="stroke: #000000"/>
     <use xlink:href="#m9f21b44038" x="268.499453" y="124.247899" style="stroke: #000000"/>
     <use xlink:href="#m9f21b44038" x="270.961214" y="124.238091" style="stroke: #000000"/>
     <use xlink:href="#m9f21b44038" x="273.422975" y="124.233384" style="stroke: #000000"/>
     <use xlink:href="#m9f21b44038" x="275.884736" y="124.231967" style="stroke: #000000"/>
     <use xlink:href="#m9f21b44038" x="278.346497" y="124.222603" style="stroke: #000000"/>
     <use xlink:href="#m9f21b44038" x="280.808258" y="124.180017" style="stroke: #000000"/>
     <use xlink:href="#m9f21b44038" x="283.270019" y="124.102915" style="stroke: #000000"/>
     <use xlink:href="#m9f21b44038" x="285.73178" y="124.099481" style="stroke: #000000"/>
     <use xlink:href="#m9f21b44038" x="288.193541" y="124.085303" style="stroke: #000000"/>
     <use xlink:href="#m9f21b44038" x="290.655302" y="124.08402" style="stroke: #000000"/>
     <use xlink:href="#m9f21b44038" x="293.117063" y="124.079808" style="stroke: #000000"/>
     <use xlink:href="#m9f21b44038" x="295.578824" y="124.063847" style="stroke: #000000"/>
     <use xlink:href="#m9f21b44038" x="298.040585" y="124.062281" style="stroke: #000000"/>
     <use xlink:href="#m9f21b44038" x="300.502346" y="124.052565" style="stroke: #000000"/>
     <use xlink:href="#m9f21b44038" x="302.964107" y="124.043473" style="stroke: #000000"/>
     <use xlink:href="#m9f21b44038" x="305.425868" y="124.005303" style="stroke: #000000"/>
     <use xlink:href="#m9f21b44038" x="307.887629" y="123.993503" style="stroke: #000000"/>
     <use xlink:href="#m9f21b44038" x="310.34939" y="123.952078" style="stroke: #000000"/>
     <use xlink:href="#m9f21b44038" x="312.811151" y="123.948305" style="stroke: #000000"/>
     <use xlink:href="#m9f21b44038" x="315.272912" y="123.938362" style="stroke: #000000"/>
     <use xlink:href="#m9f21b44038" x="317.734672" y="123.933532" style="stroke: #000000"/>
     <use xlink:href="#m9f21b44038" x="320.196433" y="123.882111" style="stroke: #000000"/>
     <use xlink:href="#m9f21b44038" x="322.658194" y="123.857381" style="stroke: #000000"/>
     <use xlink:href="#m9f21b44038" x="325.119955" y="123.846712" style="stroke: #000000"/>
     <use xlink:href="#m9f21b44038" x="327.581716" y="123.832058" style="stroke: #000000"/>
     <use xlink:href="#m9f21b44038" x="330.043477" y="123.817455" style="stroke: #000000"/>
     <use xlink:href="#m9f21b44038" x="332.505238" y="123.806906" style="stroke: #000000"/>
     <use xlink:href="#m9f21b44038" x="334.966999" y="123.800668" style="stroke: #000000"/>
     <use xlink:href="#m9f21b44038" x="337.42876" y="123.795948" style="stroke: #000000"/>
     <use xlink:href="#m9f21b44038" x="339.890521" y="72.714698" style="stroke: #000000"/>
     <use xlink:href="#m9f21b44038" x="342.352282" y="34.83371" style="stroke: #000000"/>
     <use xlink:href="#m9f21b44038" x="344.814043" y="17.623315" style="stroke: #000000"/>
    </g>
   </g>
   <g id="patch_3">
    <path d="M 88.91399 324.707885 
L 88.91399 3.00024 
" style="fill: none; stroke: #000000; stroke-width: 0.8; stroke-linejoin: miter; stroke-linecap: square"/>
   </g>
   <g id="patch_4">
    <path d="M 356.99976 324.707885 
L 356.99976 3.00024 
" style="fill: none; stroke: #000000; stroke-width: 0.8; stroke-linejoin: miter; stroke-linecap: square"/>
   </g>
   <g id="patch_5">
    <path d="M 88.91399 324.707885 
L 356.99976 324.707885 
" style="fill: none; stroke: #000000; stroke-width: 0.8; stroke-linejoin: miter; stroke-linecap: square"/>
   </g>
   <g id="patch_6">
    <path d="M 88.91399 3.00024 
L 356.99976 3.00024 
" style="fill: none; stroke: #000000; stroke-width: 0.8; stroke-linejoin: miter; stroke-linecap: square"/>
   </g>
  </g>
 </g>
 <defs>
  <clipPath id="pefe81fa9e1">
   <rect x="88.91399" y="3.00024" width="268.08577" height="321.707645"/>
  </clipPath>
 </defs>
</svg>
