<?xml version="1.0" encoding="utf-8" standalone="no"?>
<!DOCTYPE svg PUBLIC "-//W3C//DTD SVG 1.1//EN"
  "http://www.w3.org/Graphics/SVG/1.1/DTD/svg11.dtd">
<svg xmlns:xlink="http://www.w3.org/1999/xlink" width="360pt" height="360pt" viewBox="0 0 360 360" xmlns="http://www.w3.org/2000/svg" version="1.1">
 <metadata>
  <rdf:RDF xmlns:dc="http://purl.org/dc/elements/1.1/" xmlns:cc="http://creativecommons.org/ns#" xmlns:rdf="http://www.w3.org/1999/02/22-rdf-syntax-ns#">
   <cc:Work>
    <dc:type rdf:resource="http://purl.org/dc/dcmitype/StillImage"/>
    <dc:date>2025-04-04T14:43:40.960930</dc:date>
    <dc:format>image/svg+xml</dc:format>
    <dc:creator>
     <cc:Agent>
      <dc:title>Matplotlib v3.9.1, https://matplotlib.org/</dc:title>
     </cc:Agent>
    </dc:creator>
   </cc:Work>
  </rdf:RDF>
 </metadata>
 <defs>
  <style type="text/css">*{stroke-linejoin: round; stroke-linecap: butt}</style>
 </defs>
 <g id="figure_1">
  <g id="patch_1">
   <path d="M 0 360 
L 360 360 
L 360 0 
L 0 0 
z
" style="fill: #ffffff"/>
  </g>
  <g id="axes_1">
   <g id="patch_2">
    <path d="M 45 320.4 
L 324 320.4 
L 324 43.2 
L 45 43.2 
z
" style="fill: #ffffff"/>
   </g>
   <g id="matplotlib.axis_1">
    <g id="xtick_1">
     <g id="line2d_1">
      <defs>
       <path id="mddc318a916" d="M 0 0 
L 0 3.5 
" style="stroke: #000000; stroke-width: 0.8"/>
      </defs>
      <g>
       <use xlink:href="#mddc318a916" x="57.681818" y="320.4" style="stroke: #000000; stroke-width: 0.8"/>
      </g>
     </g>
     <g id="text_1">
      <!-- 0 -->
      <g transform="translate(54.500568 334.998438) scale(0.1 -0.1)">
       <defs>
        <path id="DejaVuSans-30" d="M 2034 4250 
Q 1547 4250 1301 3770 
Q 1056 3291 1056 2328 
Q 1056 1369 1301 889 
Q 1547 409 2034 409 
Q 2525 409 2770 889 
Q 3016 1369 3016 2328 
Q 3016 3291 2770 3770 
Q 2525 4250 2034 4250 
z
M 2034 4750 
Q 2819 4750 3233 4129 
Q 3647 3509 3647 2328 
Q 3647 1150 3233 529 
Q 2819 -91 2034 -91 
Q 1250 -91 836 529 
Q 422 1150 422 2328 
Q 422 3509 836 4129 
Q 1250 4750 2034 4750 
z
" transform="scale(0.015625)"/>
       </defs>
       <use xlink:href="#DejaVuSans-30"/>
      </g>
     </g>
    </g>
    <g id="xtick_2">
     <g id="line2d_2">
      <g>
       <use xlink:href="#mddc318a916" x="114.045455" y="320.4" style="stroke: #000000; stroke-width: 0.8"/>
      </g>
     </g>
     <g id="text_2">
      <!-- 10 -->
      <g transform="translate(107.682955 334.998438) scale(0.1 -0.1)">
       <defs>
        <path id="DejaVuSans-31" d="M 794 531 
L 1825 531 
L 1825 4091 
L 703 3866 
L 703 4441 
L 1819 4666 
L 2450 4666 
L 2450 531 
L 3481 531 
L 3481 0 
L 794 0 
L 794 531 
z
" transform="scale(0.015625)"/>
       </defs>
       <use xlink:href="#DejaVuSans-31"/>
       <use xlink:href="#DejaVuSans-30" x="63.623047"/>
      </g>
     </g>
    </g>
    <g id="xtick_3">
     <g id="line2d_3">
      <g>
       <use xlink:href="#mddc318a916" x="170.409091" y="320.4" style="stroke: #000000; stroke-width: 0.8"/>
      </g>
     </g>
     <g id="text_3">
      <!-- 20 -->
      <g transform="translate(164.046591 334.998438) scale(0.1 -0.1)">
       <defs>
        <path id="DejaVuSans-32" d="M 1228 531 
L 3431 531 
L 3431 0 
L 469 0 
L 469 531 
Q 828 903 1448 1529 
Q 2069 2156 2228 2338 
Q 2531 2678 2651 2914 
Q 2772 3150 2772 3378 
Q 2772 3750 2511 3984 
Q 2250 4219 1831 4219 
Q 1534 4219 1204 4116 
Q 875 4013 500 3803 
L 500 4441 
Q 881 4594 1212 4672 
Q 1544 4750 1819 4750 
Q 2544 4750 2975 4387 
Q 3406 4025 3406 3419 
Q 3406 3131 3298 2873 
Q 3191 2616 2906 2266 
Q 2828 2175 2409 1742 
Q 1991 1309 1228 531 
z
" transform="scale(0.015625)"/>
       </defs>
       <use xlink:href="#DejaVuSans-32"/>
       <use xlink:href="#DejaVuSans-30" x="63.623047"/>
      </g>
     </g>
    </g>
    <g id="xtick_4">
     <g id="line2d_4">
      <g>
       <use xlink:href="#mddc318a916" x="226.772727" y="320.4" style="stroke: #000000; stroke-width: 0.8"/>
      </g>
     </g>
     <g id="text_4">
      <!-- 30 -->
      <g transform="translate(220.410227 334.998438) scale(0.1 -0.1)">
       <defs>
        <path id="DejaVuSans-33" d="M 2597 2516 
Q 3050 2419 3304 2112 
Q 3559 1806 3559 1356 
Q 3559 666 3084 287 
Q 2609 -91 1734 -91 
Q 1441 -91 1130 -33 
Q 819 25 488 141 
L 488 750 
Q 750 597 1062 519 
Q 1375 441 1716 441 
Q 2309 441 2620 675 
Q 2931 909 2931 1356 
Q 2931 1769 2642 2001 
Q 2353 2234 1838 2234 
L 1294 2234 
L 1294 2753 
L 1863 2753 
Q 2328 2753 2575 2939 
Q 2822 3125 2822 3475 
Q 2822 3834 2567 4026 
Q 2313 4219 1838 4219 
Q 1578 4219 1281 4162 
Q 984 4106 628 3988 
L 628 4550 
Q 988 4650 1302 4700 
Q 1616 4750 1894 4750 
Q 2613 4750 3031 4423 
Q 3450 4097 3450 3541 
Q 3450 3153 3228 2886 
Q 3006 2619 2597 2516 
z
" transform="scale(0.015625)"/>
       </defs>
       <use xlink:href="#DejaVuSans-33"/>
       <use xlink:href="#DejaVuSans-30" x="63.623047"/>
      </g>
     </g>
    </g>
    <g id="xtick_5">
     <g id="line2d_5">
      <g>
       <use xlink:href="#mddc318a916" x="283.136364" y="320.4" style="stroke: #000000; stroke-width: 0.8"/>
      </g>
     </g>
     <g id="text_5">
      <!-- 40 -->
      <g transform="translate(276.773864 334.998438) scale(0.1 -0.1)">
       <defs>
        <path id="DejaVuSans-34" d="M 2419 4116 
L 825 1625 
L 2419 1625 
L 2419 4116 
z
M 2253 4666 
L 3047 4666 
L 3047 1625 
L 3713 1625 
L 3713 1100 
L 3047 1100 
L 3047 0 
L 2419 0 
L 2419 1100 
L 313 1100 
L 313 1709 
L 2253 4666 
z
" transform="scale(0.015625)"/>
       </defs>
       <use xlink:href="#DejaVuSans-34"/>
       <use xlink:href="#DejaVuSans-30" x="63.623047"/>
      </g>
     </g>
    </g>
    <g id="text_6">
     <!-- Optimization step -->
     <g transform="translate(131.233125 350.19625) scale(0.12 -0.12)">
      <defs>
       <path id="DejaVuSans-4f" d="M 2522 4238 
Q 1834 4238 1429 3725 
Q 1025 3213 1025 2328 
Q 1025 1447 1429 934 
Q 1834 422 2522 422 
Q 3209 422 3611 934 
Q 4013 1447 4013 2328 
Q 4013 3213 3611 3725 
Q 3209 4238 2522 4238 
z
M 2522 4750 
Q 3503 4750 4090 4092 
Q 4678 3434 4678 2328 
Q 4678 1225 4090 567 
Q 3503 -91 2522 -91 
Q 1538 -91 948 565 
Q 359 1222 359 2328 
Q 359 3434 948 4092 
Q 1538 4750 2522 4750 
z
" transform="scale(0.015625)"/>
       <path id="DejaVuSans-70" d="M 1159 525 
L 1159 -1331 
L 581 -1331 
L 581 3500 
L 1159 3500 
L 1159 2969 
Q 1341 3281 1617 3432 
Q 1894 3584 2278 3584 
Q 2916 3584 3314 3078 
Q 3713 2572 3713 1747 
Q 3713 922 3314 415 
Q 2916 -91 2278 -91 
Q 1894 -91 1617 61 
Q 1341 213 1159 525 
z
M 3116 1747 
Q 3116 2381 2855 2742 
Q 2594 3103 2138 3103 
Q 1681 3103 1420 2742 
Q 1159 2381 1159 1747 
Q 1159 1113 1420 752 
Q 1681 391 2138 391 
Q 2594 391 2855 752 
Q 3116 1113 3116 1747 
z
" transform="scale(0.015625)"/>
       <path id="DejaVuSans-74" d="M 1172 4494 
L 1172 3500 
L 2356 3500 
L 2356 3053 
L 1172 3053 
L 1172 1153 
Q 1172 725 1289 603 
Q 1406 481 1766 481 
L 2356 481 
L 2356 0 
L 1766 0 
Q 1100 0 847 248 
Q 594 497 594 1153 
L 594 3053 
L 172 3053 
L 172 3500 
L 594 3500 
L 594 4494 
L 1172 4494 
z
" transform="scale(0.015625)"/>
       <path id="DejaVuSans-69" d="M 603 3500 
L 1178 3500 
L 1178 0 
L 603 0 
L 603 3500 
z
M 603 4863 
L 1178 4863 
L 1178 4134 
L 603 4134 
L 603 4863 
z
" transform="scale(0.015625)"/>
       <path id="DejaVuSans-6d" d="M 3328 2828 
Q 3544 3216 3844 3400 
Q 4144 3584 4550 3584 
Q 5097 3584 5394 3201 
Q 5691 2819 5691 2113 
L 5691 0 
L 5113 0 
L 5113 2094 
Q 5113 2597 4934 2840 
Q 4756 3084 4391 3084 
Q 3944 3084 3684 2787 
Q 3425 2491 3425 1978 
L 3425 0 
L 2847 0 
L 2847 2094 
Q 2847 2600 2669 2842 
Q 2491 3084 2119 3084 
Q 1678 3084 1418 2786 
Q 1159 2488 1159 1978 
L 1159 0 
L 581 0 
L 581 3500 
L 1159 3500 
L 1159 2956 
Q 1356 3278 1631 3431 
Q 1906 3584 2284 3584 
Q 2666 3584 2933 3390 
Q 3200 3197 3328 2828 
z
" transform="scale(0.015625)"/>
       <path id="DejaVuSans-7a" d="M 353 3500 
L 3084 3500 
L 3084 2975 
L 922 459 
L 3084 459 
L 3084 0 
L 275 0 
L 275 525 
L 2438 3041 
L 353 3041 
L 353 3500 
z
" transform="scale(0.015625)"/>
       <path id="DejaVuSans-61" d="M 2194 1759 
Q 1497 1759 1228 1600 
Q 959 1441 959 1056 
Q 959 750 1161 570 
Q 1363 391 1709 391 
Q 2188 391 2477 730 
Q 2766 1069 2766 1631 
L 2766 1759 
L 2194 1759 
z
M 3341 1997 
L 3341 0 
L 2766 0 
L 2766 531 
Q 2569 213 2275 61 
Q 1981 -91 1556 -91 
Q 1019 -91 701 211 
Q 384 513 384 1019 
Q 384 1609 779 1909 
Q 1175 2209 1959 2209 
L 2766 2209 
L 2766 2266 
Q 2766 2663 2505 2880 
Q 2244 3097 1772 3097 
Q 1472 3097 1187 3025 
Q 903 2953 641 2809 
L 641 3341 
Q 956 3463 1253 3523 
Q 1550 3584 1831 3584 
Q 2591 3584 2966 3190 
Q 3341 2797 3341 1997 
z
" transform="scale(0.015625)"/>
       <path id="DejaVuSans-6f" d="M 1959 3097 
Q 1497 3097 1228 2736 
Q 959 2375 959 1747 
Q 959 1119 1226 758 
Q 1494 397 1959 397 
Q 2419 397 2687 759 
Q 2956 1122 2956 1747 
Q 2956 2369 2687 2733 
Q 2419 3097 1959 3097 
z
M 1959 3584 
Q 2709 3584 3137 3096 
Q 3566 2609 3566 1747 
Q 3566 888 3137 398 
Q 2709 -91 1959 -91 
Q 1206 -91 779 398 
Q 353 888 353 1747 
Q 353 2609 779 3096 
Q 1206 3584 1959 3584 
z
" transform="scale(0.015625)"/>
       <path id="DejaVuSans-6e" d="M 3513 2113 
L 3513 0 
L 2938 0 
L 2938 2094 
Q 2938 2591 2744 2837 
Q 2550 3084 2163 3084 
Q 1697 3084 1428 2787 
Q 1159 2491 1159 1978 
L 1159 0 
L 581 0 
L 581 3500 
L 1159 3500 
L 1159 2956 
Q 1366 3272 1645 3428 
Q 1925 3584 2291 3584 
Q 2894 3584 3203 3211 
Q 3513 2838 3513 2113 
z
" transform="scale(0.015625)"/>
       <path id="DejaVuSans-20" transform="scale(0.015625)"/>
       <path id="DejaVuSans-73" d="M 2834 3397 
L 2834 2853 
Q 2591 2978 2328 3040 
Q 2066 3103 1784 3103 
Q 1356 3103 1142 2972 
Q 928 2841 928 2578 
Q 928 2378 1081 2264 
Q 1234 2150 1697 2047 
L 1894 2003 
Q 2506 1872 2764 1633 
Q 3022 1394 3022 966 
Q 3022 478 2636 193 
Q 2250 -91 1575 -91 
Q 1294 -91 989 -36 
Q 684 19 347 128 
L 347 722 
Q 666 556 975 473 
Q 1284 391 1588 391 
Q 1994 391 2212 530 
Q 2431 669 2431 922 
Q 2431 1156 2273 1281 
Q 2116 1406 1581 1522 
L 1381 1569 
Q 847 1681 609 1914 
Q 372 2147 372 2553 
Q 372 3047 722 3315 
Q 1072 3584 1716 3584 
Q 2034 3584 2315 3537 
Q 2597 3491 2834 3397 
z
" transform="scale(0.015625)"/>
       <path id="DejaVuSans-65" d="M 3597 1894 
L 3597 1613 
L 953 1613 
Q 991 1019 1311 708 
Q 1631 397 2203 397 
Q 2534 397 2845 478 
Q 3156 559 3463 722 
L 3463 178 
Q 3153 47 2828 -22 
Q 2503 -91 2169 -91 
Q 1331 -91 842 396 
Q 353 884 353 1716 
Q 353 2575 817 3079 
Q 1281 3584 2069 3584 
Q 2775 3584 3186 3129 
Q 3597 2675 3597 1894 
z
M 3022 2063 
Q 3016 2534 2758 2815 
Q 2500 3097 2075 3097 
Q 1594 3097 1305 2825 
Q 1016 2553 972 2059 
L 3022 2063 
z
" transform="scale(0.015625)"/>
      </defs>
      <use xlink:href="#DejaVuSans-4f"/>
      <use xlink:href="#DejaVuSans-70" x="78.710938"/>
      <use xlink:href="#DejaVuSans-74" x="142.1875"/>
      <use xlink:href="#DejaVuSans-69" x="181.396484"/>
      <use xlink:href="#DejaVuSans-6d" x="209.179688"/>
      <use xlink:href="#DejaVuSans-69" x="306.591797"/>
      <use xlink:href="#DejaVuSans-7a" x="334.375"/>
      <use xlink:href="#DejaVuSans-61" x="386.865234"/>
      <use xlink:href="#DejaVuSans-74" x="448.144531"/>
      <use xlink:href="#DejaVuSans-69" x="487.353516"/>
      <use xlink:href="#DejaVuSans-6f" x="515.136719"/>
      <use xlink:href="#DejaVuSans-6e" x="576.318359"/>
      <use xlink:href="#DejaVuSans-20" x="639.697266"/>
      <use xlink:href="#DejaVuSans-73" x="671.484375"/>
      <use xlink:href="#DejaVuSans-74" x="723.583984"/>
      <use xlink:href="#DejaVuSans-65" x="762.792969"/>
      <use xlink:href="#DejaVuSans-70" x="824.316406"/>
     </g>
    </g>
   </g>
   <g id="matplotlib.axis_2">
    <g id="ytick_1">
     <g id="line2d_6">
      <defs>
       <path id="m3533fadc7f" d="M 0 0 
L -3.5 0 
" style="stroke: #000000; stroke-width: 0.8"/>
      </defs>
      <g>
       <use xlink:href="#m3533fadc7f" x="45" y="318.936358" style="stroke: #000000; stroke-width: 0.8"/>
      </g>
     </g>
     <g id="text_7">
      <!-- $\mathdefault{10^{2}}$ -->
      <g transform="translate(20.4 322.735577) scale(0.1 -0.1)">
       <use xlink:href="#DejaVuSans-31" transform="translate(0 0.765625)"/>
       <use xlink:href="#DejaVuSans-30" transform="translate(63.623047 0.765625)"/>
       <use xlink:href="#DejaVuSans-32" transform="translate(128.203125 39.046875) scale(0.7)"/>
      </g>
     </g>
    </g>
    <g id="ytick_2">
     <g id="line2d_7">
      <g>
       <use xlink:href="#m3533fadc7f" x="45" y="242.419406" style="stroke: #000000; stroke-width: 0.8"/>
      </g>
     </g>
     <g id="text_8">
      <!-- $\mathdefault{10^{3}}$ -->
      <g transform="translate(20.4 246.218625) scale(0.1 -0.1)">
       <use xlink:href="#DejaVuSans-31" transform="translate(0 0.765625)"/>
       <use xlink:href="#DejaVuSans-30" transform="translate(63.623047 0.765625)"/>
       <use xlink:href="#DejaVuSans-33" transform="translate(128.203125 39.046875) scale(0.7)"/>
      </g>
     </g>
    </g>
    <g id="ytick_3">
     <g id="line2d_8">
      <g>
       <use xlink:href="#m3533fadc7f" x="45" y="165.902453" style="stroke: #000000; stroke-width: 0.8"/>
      </g>
     </g>
     <g id="text_9">
      <!-- $\mathdefault{10^{4}}$ -->
      <g transform="translate(20.4 169.701672) scale(0.1 -0.1)">
       <use xlink:href="#DejaVuSans-31" transform="translate(0 0.684375)"/>
       <use xlink:href="#DejaVuSans-30" transform="translate(63.623047 0.684375)"/>
       <use xlink:href="#DejaVuSans-34" transform="translate(128.203125 38.965625) scale(0.7)"/>
      </g>
     </g>
    </g>
    <g id="ytick_4">
     <g id="line2d_9">
      <g>
       <use xlink:href="#m3533fadc7f" x="45" y="89.385501" style="stroke: #000000; stroke-width: 0.8"/>
      </g>
     </g>
     <g id="text_10">
      <!-- $\mathdefault{10^{5}}$ -->
      <g transform="translate(20.4 93.184719) scale(0.1 -0.1)">
       <defs>
        <path id="DejaVuSans-35" d="M 691 4666 
L 3169 4666 
L 3169 4134 
L 1269 4134 
L 1269 2991 
Q 1406 3038 1543 3061 
Q 1681 3084 1819 3084 
Q 2600 3084 3056 2656 
Q 3513 2228 3513 1497 
Q 3513 744 3044 326 
Q 2575 -91 1722 -91 
Q 1428 -91 1123 -41 
Q 819 9 494 109 
L 494 744 
Q 775 591 1075 516 
Q 1375 441 1709 441 
Q 2250 441 2565 725 
Q 2881 1009 2881 1497 
Q 2881 1984 2565 2268 
Q 2250 2553 1709 2553 
Q 1456 2553 1204 2497 
Q 953 2441 691 2322 
L 691 4666 
z
" transform="scale(0.015625)"/>
       </defs>
       <use xlink:href="#DejaVuSans-31" transform="translate(0 0.684375)"/>
       <use xlink:href="#DejaVuSans-30" transform="translate(63.623047 0.684375)"/>
       <use xlink:href="#DejaVuSans-35" transform="translate(128.203125 38.965625) scale(0.7)"/>
      </g>
     </g>
    </g>
    <g id="ytick_5">
     <g id="line2d_10">
      <defs>
       <path id="m9fe07995ba" d="M 0 0 
L -2 0 
" style="stroke: #000000; stroke-width: 0.6"/>
      </defs>
      <g>
       <use xlink:href="#m9fe07995ba" x="45" y="295.902461" style="stroke: #000000; stroke-width: 0.6"/>
      </g>
     </g>
    </g>
    <g id="ytick_6">
     <g id="line2d_11">
      <g>
       <use xlink:href="#m9fe07995ba" x="45" y="282.428494" style="stroke: #000000; stroke-width: 0.6"/>
      </g>
     </g>
    </g>
    <g id="ytick_7">
     <g id="line2d_12">
      <g>
       <use xlink:href="#m9fe07995ba" x="45" y="272.868563" style="stroke: #000000; stroke-width: 0.6"/>
      </g>
     </g>
    </g>
    <g id="ytick_8">
     <g id="line2d_13">
      <g>
       <use xlink:href="#m9fe07995ba" x="45" y="265.453304" style="stroke: #000000; stroke-width: 0.6"/>
      </g>
     </g>
    </g>
    <g id="ytick_9">
     <g id="line2d_14">
      <g>
       <use xlink:href="#m9fe07995ba" x="45" y="259.394596" style="stroke: #000000; stroke-width: 0.6"/>
      </g>
     </g>
    </g>
    <g id="ytick_10">
     <g id="line2d_15">
      <g>
       <use xlink:href="#m9fe07995ba" x="45" y="254.272032" style="stroke: #000000; stroke-width: 0.6"/>
      </g>
     </g>
    </g>
    <g id="ytick_11">
     <g id="line2d_16">
      <g>
       <use xlink:href="#m9fe07995ba" x="45" y="249.834665" style="stroke: #000000; stroke-width: 0.6"/>
      </g>
     </g>
    </g>
    <g id="ytick_12">
     <g id="line2d_17">
      <g>
       <use xlink:href="#m9fe07995ba" x="45" y="245.92063" style="stroke: #000000; stroke-width: 0.6"/>
      </g>
     </g>
    </g>
    <g id="ytick_13">
     <g id="line2d_18">
      <g>
       <use xlink:href="#m9fe07995ba" x="45" y="219.385508" style="stroke: #000000; stroke-width: 0.6"/>
      </g>
     </g>
    </g>
    <g id="ytick_14">
     <g id="line2d_19">
      <g>
       <use xlink:href="#m9fe07995ba" x="45" y="205.911541" style="stroke: #000000; stroke-width: 0.6"/>
      </g>
     </g>
    </g>
    <g id="ytick_15">
     <g id="line2d_20">
      <g>
       <use xlink:href="#m9fe07995ba" x="45" y="196.35161" style="stroke: #000000; stroke-width: 0.6"/>
      </g>
     </g>
    </g>
    <g id="ytick_16">
     <g id="line2d_21">
      <g>
       <use xlink:href="#m9fe07995ba" x="45" y="188.936351" style="stroke: #000000; stroke-width: 0.6"/>
      </g>
     </g>
    </g>
    <g id="ytick_17">
     <g id="line2d_22">
      <g>
       <use xlink:href="#m9fe07995ba" x="45" y="182.877644" style="stroke: #000000; stroke-width: 0.6"/>
      </g>
     </g>
    </g>
    <g id="ytick_18">
     <g id="line2d_23">
      <g>
       <use xlink:href="#m9fe07995ba" x="45" y="177.755079" style="stroke: #000000; stroke-width: 0.6"/>
      </g>
     </g>
    </g>
    <g id="ytick_19">
     <g id="line2d_24">
      <g>
       <use xlink:href="#m9fe07995ba" x="45" y="173.317712" style="stroke: #000000; stroke-width: 0.6"/>
      </g>
     </g>
    </g>
    <g id="ytick_20">
     <g id="line2d_25">
      <g>
       <use xlink:href="#m9fe07995ba" x="45" y="169.403677" style="stroke: #000000; stroke-width: 0.6"/>
      </g>
     </g>
    </g>
    <g id="ytick_21">
     <g id="line2d_26">
      <g>
       <use xlink:href="#m9fe07995ba" x="45" y="142.868555" style="stroke: #000000; stroke-width: 0.6"/>
      </g>
     </g>
    </g>
    <g id="ytick_22">
     <g id="line2d_27">
      <g>
       <use xlink:href="#m9fe07995ba" x="45" y="129.394589" style="stroke: #000000; stroke-width: 0.6"/>
      </g>
     </g>
    </g>
    <g id="ytick_23">
     <g id="line2d_28">
      <g>
       <use xlink:href="#m9fe07995ba" x="45" y="119.834657" style="stroke: #000000; stroke-width: 0.6"/>
      </g>
     </g>
    </g>
    <g id="ytick_24">
     <g id="line2d_29">
      <g>
       <use xlink:href="#m9fe07995ba" x="45" y="112.419399" style="stroke: #000000; stroke-width: 0.6"/>
      </g>
     </g>
    </g>
    <g id="ytick_25">
     <g id="line2d_30">
      <g>
       <use xlink:href="#m9fe07995ba" x="45" y="106.360691" style="stroke: #000000; stroke-width: 0.6"/>
      </g>
     </g>
    </g>
    <g id="ytick_26">
     <g id="line2d_31">
      <g>
       <use xlink:href="#m9fe07995ba" x="45" y="101.238127" style="stroke: #000000; stroke-width: 0.6"/>
      </g>
     </g>
    </g>
    <g id="ytick_27">
     <g id="line2d_32">
      <g>
       <use xlink:href="#m9fe07995ba" x="45" y="96.80076" style="stroke: #000000; stroke-width: 0.6"/>
      </g>
     </g>
    </g>
    <g id="ytick_28">
     <g id="line2d_33">
      <g>
       <use xlink:href="#m9fe07995ba" x="45" y="92.886724" style="stroke: #000000; stroke-width: 0.6"/>
      </g>
     </g>
    </g>
    <g id="ytick_29">
     <g id="line2d_34">
      <g>
       <use xlink:href="#m9fe07995ba" x="45" y="66.351603" style="stroke: #000000; stroke-width: 0.6"/>
      </g>
     </g>
    </g>
    <g id="ytick_30">
     <g id="line2d_35">
      <g>
       <use xlink:href="#m9fe07995ba" x="45" y="52.877636" style="stroke: #000000; stroke-width: 0.6"/>
      </g>
     </g>
    </g>
    <g id="ytick_31">
     <g id="line2d_36">
      <g>
       <use xlink:href="#m9fe07995ba" x="45" y="43.317705" style="stroke: #000000; stroke-width: 0.6"/>
      </g>
     </g>
    </g>
    <g id="text_11">
     <!-- Cost -->
     <g transform="translate(13.904375 195.13875) rotate(-90) scale(0.12 -0.12)">
      <defs>
       <path id="DejaVuSans-43" d="M 4122 4306 
L 4122 3641 
Q 3803 3938 3442 4084 
Q 3081 4231 2675 4231 
Q 1875 4231 1450 3742 
Q 1025 3253 1025 2328 
Q 1025 1406 1450 917 
Q 1875 428 2675 428 
Q 3081 428 3442 575 
Q 3803 722 4122 1019 
L 4122 359 
Q 3791 134 3420 21 
Q 3050 -91 2638 -91 
Q 1578 -91 968 557 
Q 359 1206 359 2328 
Q 359 3453 968 4101 
Q 1578 4750 2638 4750 
Q 3056 4750 3426 4639 
Q 3797 4528 4122 4306 
z
" transform="scale(0.015625)"/>
      </defs>
      <use xlink:href="#DejaVuSans-43"/>
      <use xlink:href="#DejaVuSans-6f" x="69.824219"/>
      <use xlink:href="#DejaVuSans-73" x="131.005859"/>
      <use xlink:href="#DejaVuSans-74" x="183.105469"/>
     </g>
    </g>
   </g>
   <g id="line2d_37">
    <path d="M 57.681818 68.548425 
L 63.318182 70.910198 
L 68.954545 67.854688 
L 74.590909 224.875578 
L 80.227273 240.171677 
L 85.863636 219.233901 
L 91.5 279.481936 
L 97.136364 295.993324 
L 102.772727 275.22417 
L 108.409091 304.70924 
L 114.045455 307.379904 
L 119.681818 303.424481 
L 125.318182 307.674155 
L 130.954545 304.327137 
L 136.590909 307.490302 
L 142.227273 307.798981 
L 147.863636 303.211654 
L 153.5 307.706167 
L 159.136364 307.799487 
L 164.772727 303.258698 
L 170.409091 307.691731 
L 176.045455 307.799609 
L 181.681818 303.264493 
L 187.318182 307.691351 
L 192.954545 307.799563 
L 198.590909 307.799585 
L 204.227273 307.799593 
L 209.863636 307.799614 
L 215.5 303.264455 
L 221.136364 307.691438 
L 226.772727 307.799592 
L 232.409091 307.799614 
L 238.045455 303.264436 
L 243.681818 307.691366 
" clip-path="url(#p517f0e2130)" style="fill: none; stroke: #1f77b4; stroke-opacity: 0.8; stroke-width: 1.5; stroke-linecap: square"/>
   </g>
   <g id="line2d_38">
    <path d="M 57.681818 148.517581 
L 63.318182 148.455552 
L 68.954545 146.671869 
L 74.590909 180.22479 
L 80.227273 180.228996 
L 85.863636 179.673481 
L 91.5 244.276107 
L 97.136364 250.756497 
L 102.772727 245.06396 
L 108.409091 275.384487 
L 114.045455 280.27873 
L 119.681818 275.502429 
L 125.318182 292.85643 
L 130.954545 290.891357 
L 136.590909 292.585086 
L 142.227273 305.899294 
L 147.863636 303.494955 
L 153.5 305.848021 
L 159.136364 307.694396 
L 164.772727 302.215787 
L 170.409091 307.766324 
L 176.045455 307.797118 
L 181.681818 303.336725 
L 187.318182 307.686062 
L 192.954545 307.795256 
L 198.590909 307.799968 
L 204.227273 303.296784 
L 209.863636 307.690076 
L 215.5 307.79931 
L 221.136364 307.799828 
L 226.772727 307.799915 
L 232.409091 307.799985 
L 238.045455 303.293723 
L 243.681818 307.690774 
L 249.318182 307.79993 
L 254.954545 307.79995 
L 260.590909 307.799895 
L 266.227273 307.79998 
L 271.863636 307.8 
L 277.5 303.293763 
L 283.136364 307.690752 
L 288.772727 307.799984 
L 294.409091 307.799998 
L 300.045455 307.8 
L 305.681818 303.293812 
L 311.318182 307.690753 
" clip-path="url(#p517f0e2130)" style="fill: none; stroke: #ff7f0e; stroke-opacity: 0.8; stroke-width: 1.5; stroke-linecap: square"/>
   </g>
   <g id="line2d_39">
    <path d="M 57.681818 55.985476 
L 63.318182 56.014003 
L 68.954545 55.8 
L 74.590909 201.005054 
L 80.227273 209.790408 
L 85.863636 198.289021 
L 91.5 259.392428 
L 97.136364 274.545186 
L 102.772727 257.831843 
L 108.409091 295.626671 
L 114.045455 303.471564 
L 119.681818 295.281994 
L 125.318182 305.376354 
L 130.954545 303.619374 
L 136.590909 305.484674 
L 142.227273 307.747798 
L 147.863636 302.681687 
L 153.5 307.793459 
L 159.136364 307.795066 
L 164.772727 303.216398 
L 170.409091 307.68879 
L 176.045455 307.799068 
L 181.681818 303.261677 
L 187.318182 307.687336 
L 192.954545 307.799638 
L 198.590909 303.26886 
L 204.227273 307.691049 
L 209.863636 307.799555 
L 215.5 307.799608 
L 221.136364 307.799591 
L 226.772727 307.799634 
L 232.409091 307.799626 
L 238.045455 307.799636 
L 243.681818 307.799637 
L 249.318182 307.799637 
" clip-path="url(#p517f0e2130)" style="fill: none; stroke: #2ca02c; stroke-opacity: 0.8; stroke-width: 1.5; stroke-linecap: square"/>
   </g>
   <g id="line2d_40">
    <path d="M 57.681818 221.508275 
L 63.318182 232.660893 
L 68.954545 219.227747 
L 74.590909 274.956209 
L 80.227273 289.700791 
L 85.863636 273.948263 
L 91.5 300.304529 
L 97.136364 303.930868 
L 102.772727 300.201156 
L 108.409091 306.748673 
L 114.045455 303.285207 
L 119.681818 306.902195 
L 125.318182 307.721873 
L 130.954545 302.422701 
L 136.590909 307.701876 
L 142.227273 307.796607 
L 147.863636 303.398815 
L 153.5 307.683873 
L 159.136364 307.794831 
L 164.772727 307.797064 
L 170.409091 303.330539 
L 176.045455 307.692134 
L 181.681818 307.799937 
L 187.318182 303.295064 
L 192.954545 307.690218 
L 198.590909 307.799307 
L 204.227273 307.799807 
L 209.863636 307.799809 
L 215.5 307.799969 
L 221.136364 303.292213 
L 226.772727 307.690871 
L 232.409091 307.799833 
L 238.045455 307.799927 
L 243.681818 307.799939 
L 249.318182 307.799962 
L 254.954545 307.799972 
L 260.590909 303.2922 
L 266.227273 307.690876 
L 271.863636 307.799945 
L 277.5 307.799945 
L 283.136364 307.799729 
L 288.772727 307.799972 
L 294.409091 303.292199 
L 300.045455 307.690876 
" clip-path="url(#p517f0e2130)" style="fill: none; stroke: #d62728; stroke-opacity: 0.8; stroke-width: 1.5; stroke-linecap: square"/>
   </g>
   <g id="line2d_41">
    <path d="M 57.681818 81.920785 
L 63.318182 83.517132 
L 68.954545 79.076937 
L 74.590909 139.589646 
L 80.227273 147.086063 
L 85.863636 134.411 
L 91.5 204.537619 
L 97.136364 218.673756 
L 102.772727 198.506138 
L 108.409091 263.862215 
L 114.045455 282.115853 
L 119.681818 258.441335 
L 125.318182 300.826229 
L 130.954545 307.101754 
L 136.590909 298.42818 
L 142.227273 307.562599 
L 147.863636 304.829681 
L 153.5 307.156825 
L 159.136364 307.79683 
L 164.772727 303.369104 
L 170.409091 307.691048 
L 176.045455 307.794596 
L 181.681818 307.7971 
L 187.318182 303.328506 
L 192.954545 307.691268 
L 198.590909 307.797037 
L 204.227273 307.797063 
L 209.863636 307.797089 
L 215.5 307.797096 
L 221.136364 307.7971 
L 226.772727 307.797096 
L 232.409091 307.797096 
L 238.045455 307.797096 
L 243.681818 307.797139 
L 249.318182 303.328506 
L 254.954545 307.691286 
" clip-path="url(#p517f0e2130)" style="fill: none; stroke: #9467bd; stroke-opacity: 0.8; stroke-width: 1.5; stroke-linecap: square"/>
   </g>
   <g id="line2d_42">
    <path d="M 57.681818 105.311193 
L 63.318182 107.75666 
L 68.954545 101.215341 
L 74.590909 173.080704 
L 80.227273 182.143622 
L 85.863636 167.61254 
L 91.5 235.242094 
L 97.136364 251.151642 
L 102.772727 229.958274 
L 108.409091 286.266293 
L 114.045455 301.077856 
L 119.681818 282.741795 
L 125.318182 305.748673 
L 130.954545 306.99954 
L 136.590909 304.885284 
L 142.227273 307.692614 
L 147.863636 304.072216 
L 153.5 307.576521 
L 159.136364 307.793345 
L 164.772727 303.13089 
L 170.409091 307.704666 
L 176.045455 307.799354 
L 181.681818 303.265987 
L 187.318182 307.687414 
L 192.954545 307.799643 
L 198.590909 303.268537 
L 204.227273 307.691289 
L 209.863636 307.79956 
L 215.5 307.799562 
L 221.136364 307.799634 
L 226.772727 307.799636 
L 232.409091 307.799642 
L 238.045455 307.799642 
L 243.681818 307.799643 
L 249.318182 307.799617 
" clip-path="url(#p517f0e2130)" style="fill: none; stroke: #8c564b; stroke-opacity: 0.8; stroke-width: 1.5; stroke-linecap: square"/>
   </g>
   <g id="line2d_43">
    <path d="M 57.681818 67.528527 
L 63.318182 67.635175 
L 68.954545 65.470617 
L 74.590909 122.632498 
L 80.227273 127.157966 
L 85.863636 117.926453 
L 91.5 189.897449 
L 97.136364 201.441463 
L 102.772727 184.18675 
L 108.409091 250.575758 
L 114.045455 268.185287 
L 119.681818 245.263593 
L 125.318182 295.058897 
L 130.954545 305.85347 
L 136.590909 292.138432 
L 142.227273 306.998633 
L 147.863636 305.919488 
L 153.5 306.431108 
L 159.136364 307.779293 
L 164.772727 303.639554 
L 170.409091 307.676751 
L 176.045455 307.792543 
L 181.681818 303.148324 
L 187.318182 307.693061 
L 192.954545 307.799413 
L 198.590909 303.274779 
L 204.227273 307.68688 
L 209.863636 307.799606 
L 215.5 303.265596 
L 221.136364 307.691217 
L 226.772727 307.799581 
L 232.409091 307.799581 
L 238.045455 307.799601 
L 243.681818 307.799598 
L 249.318182 307.799604 
L 254.954545 307.79961 
L 260.590909 303.265588 
L 266.227273 307.691219 
L 271.863636 307.79961 
L 277.5 307.79961 
L 283.136364 307.799611 
L 288.772727 303.265546 
L 294.409091 307.691219 
" clip-path="url(#p517f0e2130)" style="fill: none; stroke: #e377c2; stroke-opacity: 0.8; stroke-width: 1.5; stroke-linecap: square"/>
   </g>
   <g id="line2d_44">
    <path d="M 57.681818 94.870109 
L 63.318182 101.968593 
L 68.954545 93.665373 
L 74.590909 231.829902 
L 80.227273 251.275204 
L 85.863636 224.697925 
L 91.5 286.171501 
L 97.136364 267.197848 
L 102.772727 280.671367 
L 108.409091 305.031769 
L 114.045455 296.587607 
L 119.681818 303.71626 
L 125.318182 307.519678 
L 130.954545 301.874188 
L 136.590909 307.427836 
L 142.227273 307.788819 
L 147.863636 303.600734 
L 153.5 307.672836 
L 159.136364 307.793525 
L 164.772727 303.173605 
L 170.409091 307.691091 
L 176.045455 307.79939 
L 181.681818 303.270314 
L 187.318182 307.686808 
L 192.954545 307.799638 
L 198.590909 303.267901 
L 204.227273 307.691294 
L 209.863636 307.799555 
L 215.5 307.79961 
L 221.136364 307.799632 
L 226.772727 307.799633 
L 232.409091 307.799639 
L 238.045455 303.267799 
L 243.681818 307.691317 
" clip-path="url(#p517f0e2130)" style="fill: none; stroke: #7f7f7f; stroke-opacity: 0.8; stroke-width: 1.5; stroke-linecap: square"/>
   </g>
   <g id="line2d_45">
    <path d="M 57.681818 185.947269 
L 63.318182 185.998512 
L 68.954545 185.666632 
L 74.590909 215.15679 
L 80.227273 215.322044 
L 85.863636 216.213821 
L 91.5 242.797434 
L 97.136364 244.720521 
L 102.772727 244.06372 
L 108.409091 265.700983 
L 114.045455 268.92411 
L 119.681818 266.030244 
L 125.318182 277.220821 
L 130.954545 277.417147 
L 136.590909 276.770513 
L 142.227273 303.783428 
L 147.863636 307.581214 
L 153.5 302.303968 
L 159.136364 307.622448 
L 164.772727 304.538202 
L 170.409091 307.405766 
L 176.045455 307.79626 
L 181.681818 303.252867 
L 187.318182 307.709102 
L 192.954545 307.79494 
L 198.590909 307.797242 
L 204.227273 303.28418 
L 209.863636 307.696515 
L 215.5 307.799913 
L 221.136364 303.287362 
L 226.772727 307.690104 
L 232.409091 307.799397 
L 238.045455 307.79956 
L 243.681818 307.79992 
L 249.318182 303.280611 
L 254.954545 307.691476 
L 260.590909 307.799812 
L 266.227273 307.799871 
L 271.863636 307.79988 
L 277.5 307.799904 
L 283.136364 307.799908 
L 288.772727 307.799914 
L 294.409091 307.79992 
" clip-path="url(#p517f0e2130)" style="fill: none; stroke: #bcbd22; stroke-opacity: 0.8; stroke-width: 1.5; stroke-linecap: square"/>
   </g>
   <g id="line2d_46">
    <path d="M 57.681818 88.876521 
L 63.318182 94.997939 
L 68.954545 87.353695 
L 74.590909 189.42585 
L 80.227273 205.900116 
L 85.863636 183.007124 
L 91.5 251.31733 
L 97.136364 270.622231 
L 102.772727 244.317445 
L 108.409091 296.442867 
L 114.045455 279.954413 
L 119.681818 292.46261 
L 125.318182 306.524832 
L 130.954545 301.756359 
L 136.590909 305.822109 
L 142.227273 307.789837 
L 147.863636 303.34664 
L 153.5 307.637893 
L 159.136364 307.799356 
L 164.772727 303.274833 
L 170.409091 307.685405 
L 176.045455 307.799643 
L 181.681818 303.268443 
L 187.318182 307.691317 
L 192.954545 307.799564 
L 198.590909 307.799612 
L 204.227273 307.799628 
L 209.863636 307.799637 
L 215.5 307.799641 
L 221.136364 307.799642 
L 226.772727 307.799643 
L 232.409091 307.799643 
" clip-path="url(#p517f0e2130)" style="fill: none; stroke: #17becf; stroke-opacity: 0.8; stroke-width: 1.5; stroke-linecap: square"/>
   </g>
   <g id="line2d_47">
    <defs>
     <path id="m00027e4e22" d="M 0 3 
C 0.795609 3 1.55874 2.683901 2.12132 2.12132 
C 2.683901 1.55874 3 0.795609 3 0 
C 3 -0.795609 2.683901 -1.55874 2.12132 -2.12132 
C 1.55874 -2.683901 0.795609 -3 0 -3 
C -0.795609 -3 -1.55874 -2.683901 -2.12132 -2.12132 
C -2.683901 -1.55874 -3 -0.795609 -3 0 
C -3 0.795609 -2.683901 1.55874 -2.12132 2.12132 
C -1.55874 2.683901 -0.795609 3 0 3 
z
" style="stroke: #000000; stroke-opacity: 0.8"/>
    </defs>
    <g clip-path="url(#p517f0e2130)">
     <use xlink:href="#m00027e4e22" x="243.681818" y="307.691366" style="fill-opacity: 0.8; stroke: #000000; stroke-opacity: 0.8"/>
    </g>
   </g>
   <g id="line2d_48">
    <g clip-path="url(#p517f0e2130)">
     <use xlink:href="#m00027e4e22" x="311.318182" y="307.690753" style="fill-opacity: 0.8; stroke: #000000; stroke-opacity: 0.8"/>
    </g>
   </g>
   <g id="line2d_49">
    <g clip-path="url(#p517f0e2130)">
     <use xlink:href="#m00027e4e22" x="249.318182" y="307.799637" style="fill-opacity: 0.8; stroke: #000000; stroke-opacity: 0.8"/>
    </g>
   </g>
   <g id="line2d_50">
    <g clip-path="url(#p517f0e2130)">
     <use xlink:href="#m00027e4e22" x="300.045455" y="307.690876" style="fill-opacity: 0.8; stroke: #000000; stroke-opacity: 0.8"/>
    </g>
   </g>
   <g id="line2d_51">
    <g clip-path="url(#p517f0e2130)">
     <use xlink:href="#m00027e4e22" x="254.954545" y="307.691286" style="fill-opacity: 0.8; stroke: #000000; stroke-opacity: 0.8"/>
    </g>
   </g>
   <g id="line2d_52">
    <g clip-path="url(#p517f0e2130)">
     <use xlink:href="#m00027e4e22" x="249.318182" y="307.799617" style="fill-opacity: 0.8; stroke: #000000; stroke-opacity: 0.8"/>
    </g>
   </g>
   <g id="line2d_53">
    <g clip-path="url(#p517f0e2130)">
     <use xlink:href="#m00027e4e22" x="294.409091" y="307.691219" style="fill-opacity: 0.8; stroke: #000000; stroke-opacity: 0.8"/>
    </g>
   </g>
   <g id="line2d_54">
    <g clip-path="url(#p517f0e2130)">
     <use xlink:href="#m00027e4e22" x="243.681818" y="307.691317" style="fill-opacity: 0.8; stroke: #000000; stroke-opacity: 0.8"/>
    </g>
   </g>
   <g id="line2d_55">
    <g clip-path="url(#p517f0e2130)">
     <use xlink:href="#m00027e4e22" x="294.409091" y="307.79992" style="fill-opacity: 0.8; stroke: #000000; stroke-opacity: 0.8"/>
    </g>
   </g>
   <g id="line2d_56">
    <g clip-path="url(#p517f0e2130)">
     <use xlink:href="#m00027e4e22" x="232.409091" y="307.799643" style="fill-opacity: 0.8; stroke: #000000; stroke-opacity: 0.8"/>
    </g>
   </g>
   <g id="patch_3">
    <path d="M 45 320.4 
L 45 43.2 
" style="fill: none; stroke: #000000; stroke-width: 0.8; stroke-linejoin: miter; stroke-linecap: square"/>
   </g>
   <g id="patch_4">
    <path d="M 324 320.4 
L 324 43.2 
" style="fill: none; stroke: #000000; stroke-width: 0.8; stroke-linejoin: miter; stroke-linecap: square"/>
   </g>
   <g id="patch_5">
    <path d="M 45 320.4 
L 324 320.4 
" style="fill: none; stroke: #000000; stroke-width: 0.8; stroke-linejoin: miter; stroke-linecap: square"/>
   </g>
   <g id="patch_6">
    <path d="M 45 43.2 
L 324 43.2 
" style="fill: none; stroke: #000000; stroke-width: 0.8; stroke-linejoin: miter; stroke-linecap: square"/>
   </g>
  </g>
 </g>
 <defs>
  <clipPath id="p517f0e2130">
   <rect x="45" y="43.2" width="279" height="277.2"/>
  </clipPath>
 </defs>
</svg>
