<?xml version="1.0" encoding="utf-8" standalone="no"?>
<!DOCTYPE svg PUBLIC "-//W3C//DTD SVG 1.1//EN"
  "http://www.w3.org/Graphics/SVG/1.1/DTD/svg11.dtd">
<svg xmlns:xlink="http://www.w3.org/1999/xlink" width="469.844844pt" height="683.737812pt" viewBox="0 0 469.844844 683.737812" xmlns="http://www.w3.org/2000/svg" version="1.1">
 <metadata>
  <rdf:RDF xmlns:dc="http://purl.org/dc/elements/1.1/" xmlns:cc="http://creativecommons.org/ns#" xmlns:rdf="http://www.w3.org/1999/02/22-rdf-syntax-ns#">
   <cc:Work>
    <dc:type rdf:resource="http://purl.org/dc/dcmitype/StillImage"/>
    <dc:date>2025-07-19T10:59:05.607945</dc:date>
    <dc:format>image/svg+xml</dc:format>
    <dc:creator>
     <cc:Agent>
      <dc:title>Matplotlib v3.9.1, https://matplotlib.org/</dc:title>
     </cc:Agent>
    </dc:creator>
   </cc:Work>
  </rdf:RDF>
 </metadata>
 <defs>
  <style type="text/css">*{stroke-linejoin: round; stroke-linecap: butt}</style>
 </defs>
 <g id="figure_1">
  <g id="patch_1">
   <path d="M 0 683.737812 
L 469.844844 683.737812 
L 469.844844 0 
L 0 0 
z
" style="fill: #ffffff"/>
  </g>
  <g id="axes_1">
   <g id="patch_2">
    <path d="M 72.044844 320.243478 
L 462.644844 320.243478 
L 462.644844 79.2 
L 72.044844 79.2 
z
" style="fill: #ffffff"/>
   </g>
   <g id="matplotlib.axis_1">
    <g id="xtick_1">
     <g id="line2d_1">
      <defs>
       <path id="mb4d48eb026" d="M 0 0 
L 0 3.5 
" style="stroke: #000000; stroke-width: 0.8"/>
      </defs>
      <g>
       <use xlink:href="#mb4d48eb026" x="89.799389" y="320.243478" style="stroke: #000000; stroke-width: 0.8"/>
      </g>
     </g>
     <g id="text_1">
      <!-- 0 -->
      <g transform="translate(85.027514 338.641135) scale(0.15 -0.15)">
       <defs>
        <path id="DejaVuSans-30" d="M 2034 4250 
Q 1547 4250 1301 3770 
Q 1056 3291 1056 2328 
Q 1056 1369 1301 889 
Q 1547 409 2034 409 
Q 2525 409 2770 889 
Q 3016 1369 3016 2328 
Q 3016 3291 2770 3770 
Q 2525 4250 2034 4250 
z
M 2034 4750 
Q 2819 4750 3233 4129 
Q 3647 3509 3647 2328 
Q 3647 1150 3233 529 
Q 2819 -91 2034 -91 
Q 1250 -91 836 529 
Q 422 1150 422 2328 
Q 422 3509 836 4129 
Q 1250 4750 2034 4750 
z
" transform="scale(0.015625)"/>
       </defs>
       <use xlink:href="#DejaVuSans-30"/>
      </g>
     </g>
    </g>
    <g id="xtick_2">
     <g id="line2d_2">
      <g>
       <use xlink:href="#mb4d48eb026" x="148.981207" y="320.243478" style="stroke: #000000; stroke-width: 0.8"/>
      </g>
     </g>
     <g id="text_2">
      <!-- 5 -->
      <g transform="translate(144.209332 338.641135) scale(0.15 -0.15)">
       <defs>
        <path id="DejaVuSans-35" d="M 691 4666 
L 3169 4666 
L 3169 4134 
L 1269 4134 
L 1269 2991 
Q 1406 3038 1543 3061 
Q 1681 3084 1819 3084 
Q 2600 3084 3056 2656 
Q 3513 2228 3513 1497 
Q 3513 744 3044 326 
Q 2575 -91 1722 -91 
Q 1428 -91 1123 -41 
Q 819 9 494 109 
L 494 744 
Q 775 591 1075 516 
Q 1375 441 1709 441 
Q 2250 441 2565 725 
Q 2881 1009 2881 1497 
Q 2881 1984 2565 2268 
Q 2250 2553 1709 2553 
Q 1456 2553 1204 2497 
Q 953 2441 691 2322 
L 691 4666 
z
" transform="scale(0.015625)"/>
       </defs>
       <use xlink:href="#DejaVuSans-35"/>
      </g>
     </g>
    </g>
    <g id="xtick_3">
     <g id="line2d_3">
      <g>
       <use xlink:href="#mb4d48eb026" x="208.163026" y="320.243478" style="stroke: #000000; stroke-width: 0.8"/>
      </g>
     </g>
     <g id="text_3">
      <!-- 10 -->
      <g transform="translate(198.619276 338.641135) scale(0.15 -0.15)">
       <defs>
        <path id="DejaVuSans-31" d="M 794 531 
L 1825 531 
L 1825 4091 
L 703 3866 
L 703 4441 
L 1819 4666 
L 2450 4666 
L 2450 531 
L 3481 531 
L 3481 0 
L 794 0 
L 794 531 
z
" transform="scale(0.015625)"/>
       </defs>
       <use xlink:href="#DejaVuSans-31"/>
       <use xlink:href="#DejaVuSans-30" x="63.623047"/>
      </g>
     </g>
    </g>
    <g id="xtick_4">
     <g id="line2d_4">
      <g>
       <use xlink:href="#mb4d48eb026" x="267.344844" y="320.243478" style="stroke: #000000; stroke-width: 0.8"/>
      </g>
     </g>
     <g id="text_4">
      <!-- 15 -->
      <g transform="translate(257.801094 338.641135) scale(0.15 -0.15)">
       <use xlink:href="#DejaVuSans-31"/>
       <use xlink:href="#DejaVuSans-35" x="63.623047"/>
      </g>
     </g>
    </g>
    <g id="xtick_5">
     <g id="line2d_5">
      <g>
       <use xlink:href="#mb4d48eb026" x="326.526662" y="320.243478" style="stroke: #000000; stroke-width: 0.8"/>
      </g>
     </g>
     <g id="text_5">
      <!-- 20 -->
      <g transform="translate(316.982912 338.641135) scale(0.15 -0.15)">
       <defs>
        <path id="DejaVuSans-32" d="M 1228 531 
L 3431 531 
L 3431 0 
L 469 0 
L 469 531 
Q 828 903 1448 1529 
Q 2069 2156 2228 2338 
Q 2531 2678 2651 2914 
Q 2772 3150 2772 3378 
Q 2772 3750 2511 3984 
Q 2250 4219 1831 4219 
Q 1534 4219 1204 4116 
Q 875 4013 500 3803 
L 500 4441 
Q 881 4594 1212 4672 
Q 1544 4750 1819 4750 
Q 2544 4750 2975 4387 
Q 3406 4025 3406 3419 
Q 3406 3131 3298 2873 
Q 3191 2616 2906 2266 
Q 2828 2175 2409 1742 
Q 1991 1309 1228 531 
z
" transform="scale(0.015625)"/>
       </defs>
       <use xlink:href="#DejaVuSans-32"/>
       <use xlink:href="#DejaVuSans-30" x="63.623047"/>
      </g>
     </g>
    </g>
    <g id="xtick_6">
     <g id="line2d_6">
      <g>
       <use xlink:href="#mb4d48eb026" x="385.70848" y="320.243478" style="stroke: #000000; stroke-width: 0.8"/>
      </g>
     </g>
     <g id="text_6">
      <!-- 25 -->
      <g transform="translate(376.16473 338.641135) scale(0.15 -0.15)">
       <use xlink:href="#DejaVuSans-32"/>
       <use xlink:href="#DejaVuSans-35" x="63.623047"/>
      </g>
     </g>
    </g>
    <g id="xtick_7">
     <g id="line2d_7">
      <g>
       <use xlink:href="#mb4d48eb026" x="444.890298" y="320.243478" style="stroke: #000000; stroke-width: 0.8"/>
      </g>
     </g>
     <g id="text_7">
      <!-- 30 -->
      <g transform="translate(435.346548 338.641135) scale(0.15 -0.15)">
       <defs>
        <path id="DejaVuSans-33" d="M 2597 2516 
Q 3050 2419 3304 2112 
Q 3559 1806 3559 1356 
Q 3559 666 3084 287 
Q 2609 -91 1734 -91 
Q 1441 -91 1130 -33 
Q 819 25 488 141 
L 488 750 
Q 750 597 1062 519 
Q 1375 441 1716 441 
Q 2309 441 2620 675 
Q 2931 909 2931 1356 
Q 2931 1769 2642 2001 
Q 2353 2234 1838 2234 
L 1294 2234 
L 1294 2753 
L 1863 2753 
Q 2328 2753 2575 2939 
Q 2822 3125 2822 3475 
Q 2822 3834 2567 4026 
Q 2313 4219 1838 4219 
Q 1578 4219 1281 4162 
Q 984 4106 628 3988 
L 628 4550 
Q 988 4650 1302 4700 
Q 1616 4750 1894 4750 
Q 2613 4750 3031 4423 
Q 3450 4097 3450 3541 
Q 3450 3153 3228 2886 
Q 3006 2619 2597 2516 
z
" transform="scale(0.015625)"/>
       </defs>
       <use xlink:href="#DejaVuSans-33"/>
       <use xlink:href="#DejaVuSans-30" x="63.623047"/>
      </g>
     </g>
    </g>
    <g id="text_8">
     <!-- time [hr] -->
     <g transform="translate(222.270312 359.437853) scale(0.18 -0.18)">
      <defs>
       <path id="DejaVuSans-Bold-74" d="M 1759 4494 
L 1759 3500 
L 2913 3500 
L 2913 2700 
L 1759 2700 
L 1759 1216 
Q 1759 972 1856 886 
Q 1953 800 2241 800 
L 2816 800 
L 2816 0 
L 1856 0 
Q 1194 0 917 276 
Q 641 553 641 1216 
L 641 2700 
L 84 2700 
L 84 3500 
L 641 3500 
L 641 4494 
L 1759 4494 
z
" transform="scale(0.015625)"/>
       <path id="DejaVuSans-Bold-69" d="M 538 3500 
L 1656 3500 
L 1656 0 
L 538 0 
L 538 3500 
z
M 538 4863 
L 1656 4863 
L 1656 3950 
L 538 3950 
L 538 4863 
z
" transform="scale(0.015625)"/>
       <path id="DejaVuSans-Bold-6d" d="M 3781 2919 
Q 3994 3244 4286 3414 
Q 4578 3584 4928 3584 
Q 5531 3584 5847 3212 
Q 6163 2841 6163 2131 
L 6163 0 
L 5038 0 
L 5038 1825 
Q 5041 1866 5042 1909 
Q 5044 1953 5044 2034 
Q 5044 2406 4934 2573 
Q 4825 2741 4581 2741 
Q 4263 2741 4089 2478 
Q 3916 2216 3909 1719 
L 3909 0 
L 2784 0 
L 2784 1825 
Q 2784 2406 2684 2573 
Q 2584 2741 2328 2741 
Q 2006 2741 1831 2477 
Q 1656 2213 1656 1722 
L 1656 0 
L 531 0 
L 531 3500 
L 1656 3500 
L 1656 2988 
Q 1863 3284 2130 3434 
Q 2397 3584 2719 3584 
Q 3081 3584 3359 3409 
Q 3638 3234 3781 2919 
z
" transform="scale(0.015625)"/>
       <path id="DejaVuSans-Bold-65" d="M 4031 1759 
L 4031 1441 
L 1416 1441 
Q 1456 1047 1700 850 
Q 1944 653 2381 653 
Q 2734 653 3104 758 
Q 3475 863 3866 1075 
L 3866 213 
Q 3469 63 3072 -14 
Q 2675 -91 2278 -91 
Q 1328 -91 801 392 
Q 275 875 275 1747 
Q 275 2603 792 3093 
Q 1309 3584 2216 3584 
Q 3041 3584 3536 3087 
Q 4031 2591 4031 1759 
z
M 2881 2131 
Q 2881 2450 2695 2645 
Q 2509 2841 2209 2841 
Q 1884 2841 1681 2658 
Q 1478 2475 1428 2131 
L 2881 2131 
z
" transform="scale(0.015625)"/>
       <path id="DejaVuSans-Bold-20" transform="scale(0.015625)"/>
       <path id="DejaVuSans-Bold-5b" d="M 550 4863 
L 2491 4863 
L 2491 4159 
L 1613 4159 
L 1613 -141 
L 2491 -141 
L 2491 -844 
L 550 -844 
L 550 4863 
z
" transform="scale(0.015625)"/>
       <path id="DejaVuSans-Bold-68" d="M 4056 2131 
L 4056 0 
L 2931 0 
L 2931 347 
L 2931 1625 
Q 2931 2084 2911 2256 
Q 2891 2428 2841 2509 
Q 2775 2619 2662 2680 
Q 2550 2741 2406 2741 
Q 2056 2741 1856 2470 
Q 1656 2200 1656 1722 
L 1656 0 
L 538 0 
L 538 4863 
L 1656 4863 
L 1656 2988 
Q 1909 3294 2193 3439 
Q 2478 3584 2822 3584 
Q 3428 3584 3742 3212 
Q 4056 2841 4056 2131 
z
" transform="scale(0.015625)"/>
       <path id="DejaVuSans-Bold-72" d="M 3138 2547 
Q 2991 2616 2845 2648 
Q 2700 2681 2553 2681 
Q 2122 2681 1889 2404 
Q 1656 2128 1656 1613 
L 1656 0 
L 538 0 
L 538 3500 
L 1656 3500 
L 1656 2925 
Q 1872 3269 2151 3426 
Q 2431 3584 2822 3584 
Q 2878 3584 2943 3579 
Q 3009 3575 3134 3559 
L 3138 2547 
z
" transform="scale(0.015625)"/>
       <path id="DejaVuSans-Bold-5d" d="M 2375 -844 
L 434 -844 
L 434 -141 
L 1313 -141 
L 1313 4159 
L 434 4159 
L 434 4863 
L 2375 4863 
L 2375 -844 
z
" transform="scale(0.015625)"/>
      </defs>
      <use xlink:href="#DejaVuSans-Bold-74"/>
      <use xlink:href="#DejaVuSans-Bold-69" x="47.802734"/>
      <use xlink:href="#DejaVuSans-Bold-6d" x="82.080078"/>
      <use xlink:href="#DejaVuSans-Bold-65" x="186.279297"/>
      <use xlink:href="#DejaVuSans-Bold-20" x="254.101562"/>
      <use xlink:href="#DejaVuSans-Bold-5b" x="288.916016"/>
      <use xlink:href="#DejaVuSans-Bold-68" x="334.619141"/>
      <use xlink:href="#DejaVuSans-Bold-72" x="405.810547"/>
      <use xlink:href="#DejaVuSans-Bold-5d" x="455.126953"/>
     </g>
    </g>
   </g>
   <g id="matplotlib.axis_2">
    <g id="ytick_1">
     <g id="line2d_8">
      <defs>
       <path id="m601b2556c8" d="M 0 0 
L -3.5 0 
" style="stroke: #000000; stroke-width: 0.8"/>
      </defs>
      <g>
       <use xlink:href="#m601b2556c8" x="72.044844" y="300.253812" style="stroke: #000000; stroke-width: 0.8"/>
      </g>
     </g>
     <g id="text_9">
      <!-- 1.0 -->
      <g transform="translate(41.190156 305.95264) scale(0.15 -0.15)">
       <defs>
        <path id="DejaVuSans-2e" d="M 684 794 
L 1344 794 
L 1344 0 
L 684 0 
L 684 794 
z
" transform="scale(0.015625)"/>
       </defs>
       <use xlink:href="#DejaVuSans-31"/>
       <use xlink:href="#DejaVuSans-2e" x="63.623047"/>
       <use xlink:href="#DejaVuSans-30" x="95.410156"/>
      </g>
     </g>
    </g>
    <g id="ytick_2">
     <g id="line2d_9">
      <g>
       <use xlink:href="#m601b2556c8" x="72.044844" y="266.911572" style="stroke: #000000; stroke-width: 0.8"/>
      </g>
     </g>
     <g id="text_10">
      <!-- 1.1 -->
      <g transform="translate(41.190156 272.6104) scale(0.15 -0.15)">
       <use xlink:href="#DejaVuSans-31"/>
       <use xlink:href="#DejaVuSans-2e" x="63.623047"/>
       <use xlink:href="#DejaVuSans-31" x="95.410156"/>
      </g>
     </g>
    </g>
    <g id="ytick_3">
     <g id="line2d_10">
      <g>
       <use xlink:href="#m601b2556c8" x="72.044844" y="233.569332" style="stroke: #000000; stroke-width: 0.8"/>
      </g>
     </g>
     <g id="text_11">
      <!-- 1.2 -->
      <g transform="translate(41.190156 239.26816) scale(0.15 -0.15)">
       <use xlink:href="#DejaVuSans-31"/>
       <use xlink:href="#DejaVuSans-2e" x="63.623047"/>
       <use xlink:href="#DejaVuSans-32" x="95.410156"/>
      </g>
     </g>
    </g>
    <g id="ytick_4">
     <g id="line2d_11">
      <g>
       <use xlink:href="#m601b2556c8" x="72.044844" y="200.227092" style="stroke: #000000; stroke-width: 0.8"/>
      </g>
     </g>
     <g id="text_12">
      <!-- 1.3 -->
      <g transform="translate(41.190156 205.92592) scale(0.15 -0.15)">
       <use xlink:href="#DejaVuSans-31"/>
       <use xlink:href="#DejaVuSans-2e" x="63.623047"/>
       <use xlink:href="#DejaVuSans-33" x="95.410156"/>
      </g>
     </g>
    </g>
    <g id="ytick_5">
     <g id="line2d_12">
      <g>
       <use xlink:href="#m601b2556c8" x="72.044844" y="166.884852" style="stroke: #000000; stroke-width: 0.8"/>
      </g>
     </g>
     <g id="text_13">
      <!-- 1.4 -->
      <g transform="translate(41.190156 172.58368) scale(0.15 -0.15)">
       <defs>
        <path id="DejaVuSans-34" d="M 2419 4116 
L 825 1625 
L 2419 1625 
L 2419 4116 
z
M 2253 4666 
L 3047 4666 
L 3047 1625 
L 3713 1625 
L 3713 1100 
L 3047 1100 
L 3047 0 
L 2419 0 
L 2419 1100 
L 313 1100 
L 313 1709 
L 2253 4666 
z
" transform="scale(0.015625)"/>
       </defs>
       <use xlink:href="#DejaVuSans-31"/>
       <use xlink:href="#DejaVuSans-2e" x="63.623047"/>
       <use xlink:href="#DejaVuSans-34" x="95.410156"/>
      </g>
     </g>
    </g>
    <g id="ytick_6">
     <g id="line2d_13">
      <g>
       <use xlink:href="#m601b2556c8" x="72.044844" y="133.542612" style="stroke: #000000; stroke-width: 0.8"/>
      </g>
     </g>
     <g id="text_14">
      <!-- 1.5 -->
      <g transform="translate(41.190156 139.24144) scale(0.15 -0.15)">
       <use xlink:href="#DejaVuSans-31"/>
       <use xlink:href="#DejaVuSans-2e" x="63.623047"/>
       <use xlink:href="#DejaVuSans-35" x="95.410156"/>
      </g>
     </g>
    </g>
    <g id="ytick_7">
     <g id="line2d_14">
      <g>
       <use xlink:href="#m601b2556c8" x="72.044844" y="100.200372" style="stroke: #000000; stroke-width: 0.8"/>
      </g>
     </g>
     <g id="text_15">
      <!-- 1.6 -->
      <g transform="translate(41.190156 105.8992) scale(0.15 -0.15)">
       <defs>
        <path id="DejaVuSans-36" d="M 2113 2584 
Q 1688 2584 1439 2293 
Q 1191 2003 1191 1497 
Q 1191 994 1439 701 
Q 1688 409 2113 409 
Q 2538 409 2786 701 
Q 3034 994 3034 1497 
Q 3034 2003 2786 2293 
Q 2538 2584 2113 2584 
z
M 3366 4563 
L 3366 3988 
Q 3128 4100 2886 4159 
Q 2644 4219 2406 4219 
Q 1781 4219 1451 3797 
Q 1122 3375 1075 2522 
Q 1259 2794 1537 2939 
Q 1816 3084 2150 3084 
Q 2853 3084 3261 2657 
Q 3669 2231 3669 1497 
Q 3669 778 3244 343 
Q 2819 -91 2113 -91 
Q 1303 -91 875 529 
Q 447 1150 447 2328 
Q 447 3434 972 4092 
Q 1497 4750 2381 4750 
Q 2619 4750 2861 4703 
Q 3103 4656 3366 4563 
z
" transform="scale(0.015625)"/>
       </defs>
       <use xlink:href="#DejaVuSans-31"/>
       <use xlink:href="#DejaVuSans-2e" x="63.623047"/>
       <use xlink:href="#DejaVuSans-36" x="95.410156"/>
      </g>
     </g>
    </g>
    <g id="text_16">
     <!-- PT ratio [-] -->
     <g transform="translate(33.446719 254.767989) rotate(-90) scale(0.18 -0.18)">
      <defs>
       <path id="DejaVuSans-Bold-50" d="M 588 4666 
L 2584 4666 
Q 3475 4666 3951 4270 
Q 4428 3875 4428 3144 
Q 4428 2409 3951 2014 
Q 3475 1619 2584 1619 
L 1791 1619 
L 1791 0 
L 588 0 
L 588 4666 
z
M 1791 3794 
L 1791 2491 
L 2456 2491 
Q 2806 2491 2997 2661 
Q 3188 2831 3188 3144 
Q 3188 3456 2997 3625 
Q 2806 3794 2456 3794 
L 1791 3794 
z
" transform="scale(0.015625)"/>
       <path id="DejaVuSans-Bold-54" d="M 31 4666 
L 4331 4666 
L 4331 3756 
L 2784 3756 
L 2784 0 
L 1581 0 
L 1581 3756 
L 31 3756 
L 31 4666 
z
" transform="scale(0.015625)"/>
       <path id="DejaVuSans-Bold-61" d="M 2106 1575 
Q 1756 1575 1579 1456 
Q 1403 1338 1403 1106 
Q 1403 894 1545 773 
Q 1688 653 1941 653 
Q 2256 653 2472 879 
Q 2688 1106 2688 1447 
L 2688 1575 
L 2106 1575 
z
M 3816 1997 
L 3816 0 
L 2688 0 
L 2688 519 
Q 2463 200 2181 54 
Q 1900 -91 1497 -91 
Q 953 -91 614 226 
Q 275 544 275 1050 
Q 275 1666 698 1953 
Q 1122 2241 2028 2241 
L 2688 2241 
L 2688 2328 
Q 2688 2594 2478 2717 
Q 2269 2841 1825 2841 
Q 1466 2841 1156 2769 
Q 847 2697 581 2553 
L 581 3406 
Q 941 3494 1303 3539 
Q 1666 3584 2028 3584 
Q 2975 3584 3395 3211 
Q 3816 2838 3816 1997 
z
" transform="scale(0.015625)"/>
       <path id="DejaVuSans-Bold-6f" d="M 2203 2784 
Q 1831 2784 1636 2517 
Q 1441 2250 1441 1747 
Q 1441 1244 1636 976 
Q 1831 709 2203 709 
Q 2569 709 2762 976 
Q 2956 1244 2956 1747 
Q 2956 2250 2762 2517 
Q 2569 2784 2203 2784 
z
M 2203 3584 
Q 3106 3584 3614 3096 
Q 4122 2609 4122 1747 
Q 4122 884 3614 396 
Q 3106 -91 2203 -91 
Q 1297 -91 786 396 
Q 275 884 275 1747 
Q 275 2609 786 3096 
Q 1297 3584 2203 3584 
z
" transform="scale(0.015625)"/>
       <path id="DejaVuSans-Bold-2d" d="M 347 2297 
L 2309 2297 
L 2309 1388 
L 347 1388 
L 347 2297 
z
" transform="scale(0.015625)"/>
      </defs>
      <use xlink:href="#DejaVuSans-Bold-50"/>
      <use xlink:href="#DejaVuSans-Bold-54" x="73.291016"/>
      <use xlink:href="#DejaVuSans-Bold-20" x="141.503906"/>
      <use xlink:href="#DejaVuSans-Bold-72" x="176.318359"/>
      <use xlink:href="#DejaVuSans-Bold-61" x="225.634766"/>
      <use xlink:href="#DejaVuSans-Bold-74" x="293.115234"/>
      <use xlink:href="#DejaVuSans-Bold-69" x="340.917969"/>
      <use xlink:href="#DejaVuSans-Bold-6f" x="375.195312"/>
      <use xlink:href="#DejaVuSans-Bold-20" x="443.896484"/>
      <use xlink:href="#DejaVuSans-Bold-5b" x="478.710938"/>
      <use xlink:href="#DejaVuSans-Bold-2d" x="524.414062"/>
      <use xlink:href="#DejaVuSans-Bold-5d" x="565.917969"/>
     </g>
    </g>
   </g>
   <g id="LineCollection_1">
    <path d="M 91.662777 309.286957 
L 91.662777 291.220667 
" clip-path="url(#p556eec79ec)" style="fill: none; stroke: #a35ac7"/>
    <path d="M 94.908623 307.772124 
L 94.908623 291.228506 
" clip-path="url(#p556eec79ec)" style="fill: none; stroke: #a35ac7"/>
    <path d="M 98.66556 304.749318 
L 98.66556 267.125422 
" clip-path="url(#p556eec79ec)" style="fill: none; stroke: #a35ac7"/>
    <path d="M 101.951624 305.495956 
L 101.951624 246.787863 
" clip-path="url(#p556eec79ec)" style="fill: none; stroke: #a35ac7"/>
    <path d="M 105.214227 306.239654 
L 105.214227 240.016189 
" clip-path="url(#p556eec79ec)" style="fill: none; stroke: #a35ac7"/>
    <path d="M 108.032768 303.218807 
L 108.032768 223.446115 
" clip-path="url(#p556eec79ec)" style="fill: none; stroke: #a35ac7"/>
    <path d="M 110.851309 297.182993 
L 110.851309 209.891008 
" clip-path="url(#p556eec79ec)" style="fill: none; stroke: #a35ac7"/>
    <path d="M 113.242544 254.225828 
L 113.242544 210.652344 
" clip-path="url(#p556eec79ec)" style="fill: none; stroke: #a35ac7"/>
    <path d="M 116.531959 272.300937 
L 116.531959 166.95834 
" clip-path="url(#p556eec79ec)" style="fill: none; stroke: #a35ac7"/>
    <path d="M 119.424231 233.865733 
L 119.424231 146.620781 
" clip-path="url(#p556eec79ec)" style="fill: none; stroke: #a35ac7"/>
    <path d="M 122.757215 199.195075 
L 122.757215 131.56064 
" clip-path="url(#p556eec79ec)" style="fill: none; stroke: #a35ac7"/>
    <path d="M 125.168558 184.119257 
L 125.168558 93.891672 
" clip-path="url(#p556eec79ec)" style="fill: none; stroke: #a35ac7"/>
    <path d="M 131.216189 175.060636 
L 131.216189 96.922317 
" clip-path="url(#p556eec79ec)" style="fill: none; stroke: #a35ac7"/>
    <path d="M 137.247062 183.333425 
L 137.247062 90.156522 
" clip-path="url(#p556eec79ec)" style="fill: none; stroke: #a35ac7"/>
    <path d="M 160.321561 204.36765 
L 160.321561 147.48598 
" clip-path="url(#p556eec79ec)" style="fill: none; stroke: #a35ac7"/>
    <path d="M 183.806609 251.019792 
L 183.806609 207.830405 
" clip-path="url(#p556eec79ec)" style="fill: none; stroke: #a35ac7"/>
    <path d="M 231.949701 278.018303 
L 231.949701 254.674595 
" clip-path="url(#p556eec79ec)" style="fill: none; stroke: #a35ac7"/>
    <path d="M 267.146272 299.77271 
L 267.146272 281.143992 
" clip-path="url(#p556eec79ec)" style="fill: none; stroke: #a35ac7"/>
    <path d="M 372.953828 308.527581 
L 372.953828 287.459061 
" clip-path="url(#p556eec79ec)" style="fill: none; stroke: #a35ac7"/>
   </g>
   <g id="LineCollection_2">
    <path d="M 95.883885 291.211848 
L 95.883885 280.694246 
" clip-path="url(#p556eec79ec)" style="fill: none; stroke: #ddb8ea"/>
    <path d="M 98.826428 267.853443 
L 98.826428 209.129673 
" clip-path="url(#p556eec79ec)" style="fill: none; stroke: #ddb8ea"/>
    <path d="M 101.705295 247.509025 
L 101.705295 178.250016 
" clip-path="url(#p556eec79ec)" style="fill: none; stroke: #ddb8ea"/>
    <path d="M 104.490321 239.974056 
L 104.490321 185.800663 
" clip-path="url(#p556eec79ec)" style="fill: none; stroke: #ddb8ea"/>
    <path d="M 107.759628 223.397123 
L 107.759628 193.353269 
" clip-path="url(#p556eec79ec)" style="fill: none; stroke: #ddb8ea"/>
    <path d="M 111.489754 209.834178 
L 111.489754 196.384894 
" clip-path="url(#p556eec79ec)" style="fill: none; stroke: #ddb8ea"/>
    <path d="M 113.336384 254.290498 
L 113.336384 160.986215 
" clip-path="url(#p556eec79ec)" style="fill: none; stroke: #ddb8ea"/>
    <path d="M 116.558771 254.290498 
L 116.558771 174.568757 
" clip-path="url(#p556eec79ec)" style="fill: none; stroke: #ddb8ea"/>
    <path d="M 119.410826 214.355159 
L 119.410826 172.320024 
" clip-path="url(#p556eec79ec)" style="fill: none; stroke: #ddb8ea"/>
    <path d="M 122.686835 213.601662 
L 122.686835 158.019259 
" clip-path="url(#p556eec79ec)" style="fill: none; stroke: #ddb8ea"/>
    <path d="M 125.007691 209.834178 
L 125.007691 161.802422 
" clip-path="url(#p556eec79ec)" style="fill: none; stroke: #ddb8ea"/>
    <path d="M 131.041915 216.61565 
L 131.041915 155.052304 
" clip-path="url(#p556eec79ec)" style="fill: none; stroke: #ddb8ea"/>
    <path d="M 137.506797 226.411111 
L 137.506797 164.879119 
" clip-path="url(#p556eec79ec)" style="fill: none; stroke: #ddb8ea"/>
    <path d="M 160.675136 243.74154 
L 160.675136 174.805878 
" clip-path="url(#p556eec79ec)" style="fill: none; stroke: #ddb8ea"/>
    <path d="M 183.75969 267.099946 
L 183.75969 222.403565 
" clip-path="url(#p556eec79ec)" style="fill: none; stroke: #ddb8ea"/>
    <path d="M 231.882673 305.52829 
L 231.882673 268.623597 
" clip-path="url(#p556eec79ec)" style="fill: none; stroke: #ddb8ea"/>
    <path d="M 267.136218 304.774793 
L 267.136218 283.132088 
" clip-path="url(#p556eec79ec)" style="fill: none; stroke: #ddb8ea"/>
    <path d="M 373.868765 304.021296 
L 373.868765 299.533629 
" clip-path="url(#p556eec79ec)" style="fill: none; stroke: #ddb8ea"/>
   </g>
   <g id="line2d_15">
    <path d="M 89.799389 300.253812 
L 90.509571 299.696847 
L 91.219753 297.82667 
L 91.929935 294.949515 
L 93.350298 287.315958 
L 98.321571 257.30062 
L 99.741935 250.122488 
L 101.162298 243.875558 
L 102.582662 238.547057 
L 104.003026 234.081472 
L 105.423389 230.40265 
L 106.843753 227.427011 
L 108.264116 225.071182 
L 109.68448 223.256185 
L 111.104844 221.909518 
L 112.525207 220.965966 
L 113.945571 220.367685 
L 115.365935 220.063866 
L 116.786298 220.010195 
L 118.206662 220.168226 
L 119.627026 220.504734 
L 121.757571 221.282625 
L 123.888116 222.318384 
L 126.728844 223.992378 
L 130.279753 226.399501 
L 135.251026 230.087339 
L 151.585207 242.434046 
L 157.976844 246.900691 
L 164.36848 251.077659 
L 170.760116 254.960597 
L 177.151753 258.55801 
L 183.543389 261.884162 
L 189.935026 264.955563 
L 196.326662 267.789247 
L 203.42848 270.679296 
L 210.530298 273.318409 
L 217.632116 275.727167 
L 225.444116 278.133577 
L 233.256116 280.307977 
L 241.778298 282.440761 
L 250.30048 284.348611 
L 259.532844 286.188335 
L 269.475389 287.934823 
L 280.128116 289.568338 
L 291.491026 291.074595 
L 303.564116 292.444597 
L 316.347389 293.674238 
L 330.551026 294.815838 
L 346.175026 295.845051 
L 363.929571 296.780976 
L 383.814662 297.595965 
L 406.54048 298.296333 
L 432.817207 298.879688 
L 444.890298 299.085934 
L 444.890298 299.085934 
" clip-path="url(#p556eec79ec)" style="fill: none; stroke: #a35ac7; stroke-width: 2; stroke-linecap: square"/>
   </g>
   <g id="line2d_16">
    <path d="M 91.662777 300.253812 
L 94.908623 299.500315 
L 98.66556 285.93737 
L 101.951624 276.141909 
L 105.214227 273.127921 
L 108.032768 263.332461 
L 110.851309 253.537001 
L 113.242544 232.439086 
L 116.531959 219.629638 
L 119.424231 190.243257 
L 122.757215 165.377858 
L 125.168558 139.005464 
L 131.216189 135.991477 
L 137.247062 136.744974 
L 160.321561 175.926815 
L 183.806609 229.425098 
L 231.949701 266.346449 
L 267.146272 290.458351 
L 372.953828 297.993321 
" clip-path="url(#p556eec79ec)" style="fill: none; stroke-dasharray: 3.7,1.6; stroke-dashoffset: 0; stroke: #a35ac7"/>
    <defs>
     <path id="mb9b8e80012" d="M -3 3 
L 3 3 
L 3 -3 
L -3 -3 
z
" style="stroke: #000000; stroke-linejoin: miter"/>
    </defs>
    <g clip-path="url(#p556eec79ec)">
     <use xlink:href="#mb9b8e80012" x="91.662777" y="300.253812" style="fill: #a35ac7; stroke: #000000; stroke-linejoin: miter"/>
     <use xlink:href="#mb9b8e80012" x="94.908623" y="299.500315" style="fill: #a35ac7; stroke: #000000; stroke-linejoin: miter"/>
     <use xlink:href="#mb9b8e80012" x="98.66556" y="285.93737" style="fill: #a35ac7; stroke: #000000; stroke-linejoin: miter"/>
     <use xlink:href="#mb9b8e80012" x="101.951624" y="276.141909" style="fill: #a35ac7; stroke: #000000; stroke-linejoin: miter"/>
     <use xlink:href="#mb9b8e80012" x="105.214227" y="273.127921" style="fill: #a35ac7; stroke: #000000; stroke-linejoin: miter"/>
     <use xlink:href="#mb9b8e80012" x="108.032768" y="263.332461" style="fill: #a35ac7; stroke: #000000; stroke-linejoin: miter"/>
     <use xlink:href="#mb9b8e80012" x="110.851309" y="253.537001" style="fill: #a35ac7; stroke: #000000; stroke-linejoin: miter"/>
     <use xlink:href="#mb9b8e80012" x="113.242544" y="232.439086" style="fill: #a35ac7; stroke: #000000; stroke-linejoin: miter"/>
     <use xlink:href="#mb9b8e80012" x="116.531959" y="219.629638" style="fill: #a35ac7; stroke: #000000; stroke-linejoin: miter"/>
     <use xlink:href="#mb9b8e80012" x="119.424231" y="190.243257" style="fill: #a35ac7; stroke: #000000; stroke-linejoin: miter"/>
     <use xlink:href="#mb9b8e80012" x="122.757215" y="165.377858" style="fill: #a35ac7; stroke: #000000; stroke-linejoin: miter"/>
     <use xlink:href="#mb9b8e80012" x="125.168558" y="139.005464" style="fill: #a35ac7; stroke: #000000; stroke-linejoin: miter"/>
     <use xlink:href="#mb9b8e80012" x="131.216189" y="135.991477" style="fill: #a35ac7; stroke: #000000; stroke-linejoin: miter"/>
     <use xlink:href="#mb9b8e80012" x="137.247062" y="136.744974" style="fill: #a35ac7; stroke: #000000; stroke-linejoin: miter"/>
     <use xlink:href="#mb9b8e80012" x="160.321561" y="175.926815" style="fill: #a35ac7; stroke: #000000; stroke-linejoin: miter"/>
     <use xlink:href="#mb9b8e80012" x="183.806609" y="229.425098" style="fill: #a35ac7; stroke: #000000; stroke-linejoin: miter"/>
     <use xlink:href="#mb9b8e80012" x="231.949701" y="266.346449" style="fill: #a35ac7; stroke: #000000; stroke-linejoin: miter"/>
     <use xlink:href="#mb9b8e80012" x="267.146272" y="290.458351" style="fill: #a35ac7; stroke: #000000; stroke-linejoin: miter"/>
     <use xlink:href="#mb9b8e80012" x="372.953828" y="297.993321" style="fill: #a35ac7; stroke: #000000; stroke-linejoin: miter"/>
    </g>
   </g>
   <g id="line2d_17">
    <path d="M 89.799389 300.253812 
L 90.509571 299.797062 
L 91.219753 298.262821 
L 91.929935 295.90078 
L 93.350298 289.623876 
L 98.321571 264.800818 
L 99.741935 258.830608 
L 101.162298 253.62421 
L 102.582662 249.175377 
L 104.003026 245.441398 
L 105.423389 242.361438 
L 106.843753 239.867645 
L 108.264116 237.891679 
L 109.68448 236.368363 
L 111.104844 235.237563 
L 112.525207 234.444982 
L 113.945571 233.942307 
L 115.365935 233.687003 
L 116.786298 233.641901 
L 118.206662 233.774702 
L 120.337207 234.247412 
L 122.467753 234.979843 
L 125.30848 236.254122 
L 128.859389 238.171445 
L 133.12048 240.748676 
L 144.483389 248.0256 
L 152.295389 252.84697 
L 158.687026 256.545611 
L 165.078662 259.996923 
L 171.470298 263.199844 
L 177.861935 266.163059 
L 184.253571 268.899491 
L 191.355389 271.691598 
L 198.457207 274.241703 
L 205.559026 276.569259 
L 213.371026 278.894414 
L 221.183026 280.995198 
L 229.705207 283.055555 
L 238.937571 285.042883 
L 248.169935 286.803222 
L 258.11248 288.474128 
L 268.765207 290.036752 
L 280.128116 291.477474 
L 292.201207 292.787728 
L 305.694662 294.023264 
L 320.60848 295.153436 
L 336.942662 296.15825 
L 355.407389 297.058532 
L 376.002662 297.831778 
L 400.148844 298.503889 
L 428.556116 299.060207 
L 444.890298 299.295982 
L 444.890298 299.295982 
" clip-path="url(#p556eec79ec)" style="fill: none; stroke: #ddb8ea; stroke-width: 2; stroke-linecap: square"/>
   </g>
   <g id="line2d_18">
    <path d="M 95.883885 285.953047 
L 98.826428 238.491558 
L 101.705295 212.87952 
L 104.490321 212.887359 
L 107.759628 208.375196 
L 111.489754 203.109536 
L 113.336384 207.638356 
L 116.558771 214.429627 
L 119.410826 193.337592 
L 122.686835 185.810461 
L 125.007691 185.8183 
L 131.041915 185.833977 
L 137.506797 195.645115 
L 160.675136 209.273709 
L 183.75969 244.751755 
L 231.882673 287.075944 
L 267.136218 293.953441 
L 373.868765 301.777463 
" clip-path="url(#p556eec79ec)" style="fill: none; stroke-dasharray: 3.7,1.6; stroke-dashoffset: 0; stroke: #ddb8ea"/>
    <defs>
     <path id="m2872211d63" d="M -3 3 
L 3 3 
L 3 -3 
L -3 -3 
z
" style="stroke: #000000; stroke-linejoin: miter"/>
    </defs>
    <g clip-path="url(#p556eec79ec)">
     <use xlink:href="#m2872211d63" x="95.883885" y="285.953047" style="fill: #ddb8ea; stroke: #000000; stroke-linejoin: miter"/>
     <use xlink:href="#m2872211d63" x="98.826428" y="238.491558" style="fill: #ddb8ea; stroke: #000000; stroke-linejoin: miter"/>
     <use xlink:href="#m2872211d63" x="101.705295" y="212.87952" style="fill: #ddb8ea; stroke: #000000; stroke-linejoin: miter"/>
     <use xlink:href="#m2872211d63" x="104.490321" y="212.887359" style="fill: #ddb8ea; stroke: #000000; stroke-linejoin: miter"/>
     <use xlink:href="#m2872211d63" x="107.759628" y="208.375196" style="fill: #ddb8ea; stroke: #000000; stroke-linejoin: miter"/>
     <use xlink:href="#m2872211d63" x="111.489754" y="203.109536" style="fill: #ddb8ea; stroke: #000000; stroke-linejoin: miter"/>
     <use xlink:href="#m2872211d63" x="113.336384" y="207.638356" style="fill: #ddb8ea; stroke: #000000; stroke-linejoin: miter"/>
     <use xlink:href="#m2872211d63" x="116.558771" y="214.429627" style="fill: #ddb8ea; stroke: #000000; stroke-linejoin: miter"/>
     <use xlink:href="#m2872211d63" x="119.410826" y="193.337592" style="fill: #ddb8ea; stroke: #000000; stroke-linejoin: miter"/>
     <use xlink:href="#m2872211d63" x="122.686835" y="185.810461" style="fill: #ddb8ea; stroke: #000000; stroke-linejoin: miter"/>
     <use xlink:href="#m2872211d63" x="125.007691" y="185.8183" style="fill: #ddb8ea; stroke: #000000; stroke-linejoin: miter"/>
     <use xlink:href="#m2872211d63" x="131.041915" y="185.833977" style="fill: #ddb8ea; stroke: #000000; stroke-linejoin: miter"/>
     <use xlink:href="#m2872211d63" x="137.506797" y="195.645115" style="fill: #ddb8ea; stroke: #000000; stroke-linejoin: miter"/>
     <use xlink:href="#m2872211d63" x="160.675136" y="209.273709" style="fill: #ddb8ea; stroke: #000000; stroke-linejoin: miter"/>
     <use xlink:href="#m2872211d63" x="183.75969" y="244.751755" style="fill: #ddb8ea; stroke: #000000; stroke-linejoin: miter"/>
     <use xlink:href="#m2872211d63" x="231.882673" y="287.075944" style="fill: #ddb8ea; stroke: #000000; stroke-linejoin: miter"/>
     <use xlink:href="#m2872211d63" x="267.136218" y="293.953441" style="fill: #ddb8ea; stroke: #000000; stroke-linejoin: miter"/>
     <use xlink:href="#m2872211d63" x="373.868765" y="301.777463" style="fill: #ddb8ea; stroke: #000000; stroke-linejoin: miter"/>
    </g>
   </g>
   <g id="patch_3">
    <path d="M 72.044844 320.243478 
L 72.044844 79.2 
" style="fill: none; stroke: #000000; stroke-width: 0.8; stroke-linejoin: miter; stroke-linecap: square"/>
   </g>
   <g id="patch_4">
    <path d="M 462.644844 320.243478 
L 462.644844 79.2 
" style="fill: none; stroke: #000000; stroke-width: 0.8; stroke-linejoin: miter; stroke-linecap: square"/>
   </g>
   <g id="patch_5">
    <path d="M 72.044844 320.243478 
L 462.644844 320.243478 
" style="fill: none; stroke: #000000; stroke-width: 0.8; stroke-linejoin: miter; stroke-linecap: square"/>
   </g>
   <g id="patch_6">
    <path d="M 72.044844 79.2 
L 462.644844 79.2 
" style="fill: none; stroke: #000000; stroke-width: 0.8; stroke-linejoin: miter; stroke-linecap: square"/>
   </g>
   <g id="legend_1">
    <g id="patch_7">
     <path d="M 305.233906 145.9125 
L 455.644844 145.9125 
Q 457.644844 145.9125 457.644844 143.9125 
L 457.644844 86.2 
Q 457.644844 84.2 455.644844 84.2 
L 305.233906 84.2 
Q 303.233906 84.2 303.233906 86.2 
L 303.233906 143.9125 
Q 303.233906 145.9125 305.233906 145.9125 
z
" style="fill: #ffffff; opacity: 0.8; stroke: #cccccc; stroke-linejoin: miter"/>
    </g>
    <g id="line2d_19">
     <path d="M 307.233906 92.298437 
L 327.233906 92.298437 
" style="fill: none; stroke: #a35ac7; stroke-width: 2; stroke-linecap: square"/>
    </g>
    <g id="line2d_20"/>
    <g id="text_17">
     <!-- RIV10 fed -->
     <g transform="translate(335.233906 95.798437) scale(0.1 -0.1)">
      <defs>
       <path id="DejaVuSans-52" d="M 2841 2188 
Q 3044 2119 3236 1894 
Q 3428 1669 3622 1275 
L 4263 0 
L 3584 0 
L 2988 1197 
Q 2756 1666 2539 1819 
Q 2322 1972 1947 1972 
L 1259 1972 
L 1259 0 
L 628 0 
L 628 4666 
L 2053 4666 
Q 2853 4666 3247 4331 
Q 3641 3997 3641 3322 
Q 3641 2881 3436 2590 
Q 3231 2300 2841 2188 
z
M 1259 4147 
L 1259 2491 
L 2053 2491 
Q 2509 2491 2742 2702 
Q 2975 2913 2975 3322 
Q 2975 3731 2742 3939 
Q 2509 4147 2053 4147 
L 1259 4147 
z
" transform="scale(0.015625)"/>
       <path id="DejaVuSans-49" d="M 628 4666 
L 1259 4666 
L 1259 0 
L 628 0 
L 628 4666 
z
" transform="scale(0.015625)"/>
       <path id="DejaVuSans-56" d="M 1831 0 
L 50 4666 
L 709 4666 
L 2188 738 
L 3669 4666 
L 4325 4666 
L 2547 0 
L 1831 0 
z
" transform="scale(0.015625)"/>
       <path id="DejaVuSans-20" transform="scale(0.015625)"/>
       <path id="DejaVuSans-66" d="M 2375 4863 
L 2375 4384 
L 1825 4384 
Q 1516 4384 1395 4259 
Q 1275 4134 1275 3809 
L 1275 3500 
L 2222 3500 
L 2222 3053 
L 1275 3053 
L 1275 0 
L 697 0 
L 697 3053 
L 147 3053 
L 147 3500 
L 697 3500 
L 697 3744 
Q 697 4328 969 4595 
Q 1241 4863 1831 4863 
L 2375 4863 
z
" transform="scale(0.015625)"/>
       <path id="DejaVuSans-65" d="M 3597 1894 
L 3597 1613 
L 953 1613 
Q 991 1019 1311 708 
Q 1631 397 2203 397 
Q 2534 397 2845 478 
Q 3156 559 3463 722 
L 3463 178 
Q 3153 47 2828 -22 
Q 2503 -91 2169 -91 
Q 1331 -91 842 396 
Q 353 884 353 1716 
Q 353 2575 817 3079 
Q 1281 3584 2069 3584 
Q 2775 3584 3186 3129 
Q 3597 2675 3597 1894 
z
M 3022 2063 
Q 3016 2534 2758 2815 
Q 2500 3097 2075 3097 
Q 1594 3097 1305 2825 
Q 1016 2553 972 2059 
L 3022 2063 
z
" transform="scale(0.015625)"/>
       <path id="DejaVuSans-64" d="M 2906 2969 
L 2906 4863 
L 3481 4863 
L 3481 0 
L 2906 0 
L 2906 525 
Q 2725 213 2448 61 
Q 2172 -91 1784 -91 
Q 1150 -91 751 415 
Q 353 922 353 1747 
Q 353 2572 751 3078 
Q 1150 3584 1784 3584 
Q 2172 3584 2448 3432 
Q 2725 3281 2906 2969 
z
M 947 1747 
Q 947 1113 1208 752 
Q 1469 391 1925 391 
Q 2381 391 2643 752 
Q 2906 1113 2906 1747 
Q 2906 2381 2643 2742 
Q 2381 3103 1925 3103 
Q 1469 3103 1208 2742 
Q 947 2381 947 1747 
z
" transform="scale(0.015625)"/>
      </defs>
      <use xlink:href="#DejaVuSans-52"/>
      <use xlink:href="#DejaVuSans-49" x="69.482422"/>
      <use xlink:href="#DejaVuSans-56" x="98.974609"/>
      <use xlink:href="#DejaVuSans-31" x="167.382812"/>
      <use xlink:href="#DejaVuSans-30" x="231.005859"/>
      <use xlink:href="#DejaVuSans-20" x="294.628906"/>
      <use xlink:href="#DejaVuSans-66" x="326.416016"/>
      <use xlink:href="#DejaVuSans-65" x="361.621094"/>
      <use xlink:href="#DejaVuSans-64" x="423.144531"/>
     </g>
    </g>
    <g id="LineCollection_3">
     <path d="M 317.233906 111.976562 
L 317.233906 101.976562 
" style="fill: none; stroke: #a35ac7"/>
    </g>
    <g id="line2d_21">
     <path d="M 307.233906 106.976562 
L 327.233906 106.976562 
" style="fill: none; stroke-dasharray: 3.7,1.6; stroke-dashoffset: 0; stroke: #a35ac7"/>
    </g>
    <g id="line2d_22">
     <g>
      <use xlink:href="#mb9b8e80012" x="317.233906" y="106.976562" style="fill: #a35ac7; stroke: #000000; stroke-linejoin: miter"/>
     </g>
    </g>
    <g id="text_18">
     <!-- RIV10 fed±SD (n=8) -->
     <g transform="translate(335.233906 110.476562) scale(0.1 -0.1)">
      <defs>
       <path id="DejaVuSans-b1" d="M 2944 4013 
L 2944 2803 
L 4684 2803 
L 4684 2272 
L 2944 2272 
L 2944 1063 
L 2419 1063 
L 2419 2272 
L 678 2272 
L 678 2803 
L 2419 2803 
L 2419 4013 
L 2944 4013 
z
M 678 531 
L 4684 531 
L 4684 0 
L 678 0 
L 678 531 
z
" transform="scale(0.015625)"/>
       <path id="DejaVuSans-53" d="M 3425 4513 
L 3425 3897 
Q 3066 4069 2747 4153 
Q 2428 4238 2131 4238 
Q 1616 4238 1336 4038 
Q 1056 3838 1056 3469 
Q 1056 3159 1242 3001 
Q 1428 2844 1947 2747 
L 2328 2669 
Q 3034 2534 3370 2195 
Q 3706 1856 3706 1288 
Q 3706 609 3251 259 
Q 2797 -91 1919 -91 
Q 1588 -91 1214 -16 
Q 841 59 441 206 
L 441 856 
Q 825 641 1194 531 
Q 1563 422 1919 422 
Q 2459 422 2753 634 
Q 3047 847 3047 1241 
Q 3047 1584 2836 1778 
Q 2625 1972 2144 2069 
L 1759 2144 
Q 1053 2284 737 2584 
Q 422 2884 422 3419 
Q 422 4038 858 4394 
Q 1294 4750 2059 4750 
Q 2388 4750 2728 4690 
Q 3069 4631 3425 4513 
z
" transform="scale(0.015625)"/>
       <path id="DejaVuSans-44" d="M 1259 4147 
L 1259 519 
L 2022 519 
Q 2988 519 3436 956 
Q 3884 1394 3884 2338 
Q 3884 3275 3436 3711 
Q 2988 4147 2022 4147 
L 1259 4147 
z
M 628 4666 
L 1925 4666 
Q 3281 4666 3915 4102 
Q 4550 3538 4550 2338 
Q 4550 1131 3912 565 
Q 3275 0 1925 0 
L 628 0 
L 628 4666 
z
" transform="scale(0.015625)"/>
       <path id="DejaVuSans-28" d="M 1984 4856 
Q 1566 4138 1362 3434 
Q 1159 2731 1159 2009 
Q 1159 1288 1364 580 
Q 1569 -128 1984 -844 
L 1484 -844 
Q 1016 -109 783 600 
Q 550 1309 550 2009 
Q 550 2706 781 3412 
Q 1013 4119 1484 4856 
L 1984 4856 
z
" transform="scale(0.015625)"/>
       <path id="DejaVuSans-6e" d="M 3513 2113 
L 3513 0 
L 2938 0 
L 2938 2094 
Q 2938 2591 2744 2837 
Q 2550 3084 2163 3084 
Q 1697 3084 1428 2787 
Q 1159 2491 1159 1978 
L 1159 0 
L 581 0 
L 581 3500 
L 1159 3500 
L 1159 2956 
Q 1366 3272 1645 3428 
Q 1925 3584 2291 3584 
Q 2894 3584 3203 3211 
Q 3513 2838 3513 2113 
z
" transform="scale(0.015625)"/>
       <path id="DejaVuSans-3d" d="M 678 2906 
L 4684 2906 
L 4684 2381 
L 678 2381 
L 678 2906 
z
M 678 1631 
L 4684 1631 
L 4684 1100 
L 678 1100 
L 678 1631 
z
" transform="scale(0.015625)"/>
       <path id="DejaVuSans-38" d="M 2034 2216 
Q 1584 2216 1326 1975 
Q 1069 1734 1069 1313 
Q 1069 891 1326 650 
Q 1584 409 2034 409 
Q 2484 409 2743 651 
Q 3003 894 3003 1313 
Q 3003 1734 2745 1975 
Q 2488 2216 2034 2216 
z
M 1403 2484 
Q 997 2584 770 2862 
Q 544 3141 544 3541 
Q 544 4100 942 4425 
Q 1341 4750 2034 4750 
Q 2731 4750 3128 4425 
Q 3525 4100 3525 3541 
Q 3525 3141 3298 2862 
Q 3072 2584 2669 2484 
Q 3125 2378 3379 2068 
Q 3634 1759 3634 1313 
Q 3634 634 3220 271 
Q 2806 -91 2034 -91 
Q 1263 -91 848 271 
Q 434 634 434 1313 
Q 434 1759 690 2068 
Q 947 2378 1403 2484 
z
M 1172 3481 
Q 1172 3119 1398 2916 
Q 1625 2713 2034 2713 
Q 2441 2713 2670 2916 
Q 2900 3119 2900 3481 
Q 2900 3844 2670 4047 
Q 2441 4250 2034 4250 
Q 1625 4250 1398 4047 
Q 1172 3844 1172 3481 
z
" transform="scale(0.015625)"/>
       <path id="DejaVuSans-29" d="M 513 4856 
L 1013 4856 
Q 1481 4119 1714 3412 
Q 1947 2706 1947 2009 
Q 1947 1309 1714 600 
Q 1481 -109 1013 -844 
L 513 -844 
Q 928 -128 1133 580 
Q 1338 1288 1338 2009 
Q 1338 2731 1133 3434 
Q 928 4138 513 4856 
z
" transform="scale(0.015625)"/>
      </defs>
      <use xlink:href="#DejaVuSans-52"/>
      <use xlink:href="#DejaVuSans-49" x="69.482422"/>
      <use xlink:href="#DejaVuSans-56" x="98.974609"/>
      <use xlink:href="#DejaVuSans-31" x="167.382812"/>
      <use xlink:href="#DejaVuSans-30" x="231.005859"/>
      <use xlink:href="#DejaVuSans-20" x="294.628906"/>
      <use xlink:href="#DejaVuSans-66" x="326.416016"/>
      <use xlink:href="#DejaVuSans-65" x="361.621094"/>
      <use xlink:href="#DejaVuSans-64" x="423.144531"/>
      <use xlink:href="#DejaVuSans-b1" x="486.621094"/>
      <use xlink:href="#DejaVuSans-53" x="570.410156"/>
      <use xlink:href="#DejaVuSans-44" x="633.886719"/>
      <use xlink:href="#DejaVuSans-20" x="710.888672"/>
      <use xlink:href="#DejaVuSans-28" x="742.675781"/>
      <use xlink:href="#DejaVuSans-6e" x="781.689453"/>
      <use xlink:href="#DejaVuSans-3d" x="845.068359"/>
      <use xlink:href="#DejaVuSans-38" x="928.857422"/>
      <use xlink:href="#DejaVuSans-29" x="992.480469"/>
     </g>
    </g>
    <g id="line2d_23">
     <path d="M 307.233906 121.654687 
L 327.233906 121.654687 
" style="fill: none; stroke: #ddb8ea; stroke-width: 2; stroke-linecap: square"/>
    </g>
    <g id="line2d_24"/>
    <g id="text_19">
     <!-- RIV10 fasted -->
     <g transform="translate(335.233906 125.154687) scale(0.1 -0.1)">
      <defs>
       <path id="DejaVuSans-61" d="M 2194 1759 
Q 1497 1759 1228 1600 
Q 959 1441 959 1056 
Q 959 750 1161 570 
Q 1363 391 1709 391 
Q 2188 391 2477 730 
Q 2766 1069 2766 1631 
L 2766 1759 
L 2194 1759 
z
M 3341 1997 
L 3341 0 
L 2766 0 
L 2766 531 
Q 2569 213 2275 61 
Q 1981 -91 1556 -91 
Q 1019 -91 701 211 
Q 384 513 384 1019 
Q 384 1609 779 1909 
Q 1175 2209 1959 2209 
L 2766 2209 
L 2766 2266 
Q 2766 2663 2505 2880 
Q 2244 3097 1772 3097 
Q 1472 3097 1187 3025 
Q 903 2953 641 2809 
L 641 3341 
Q 956 3463 1253 3523 
Q 1550 3584 1831 3584 
Q 2591 3584 2966 3190 
Q 3341 2797 3341 1997 
z
" transform="scale(0.015625)"/>
       <path id="DejaVuSans-73" d="M 2834 3397 
L 2834 2853 
Q 2591 2978 2328 3040 
Q 2066 3103 1784 3103 
Q 1356 3103 1142 2972 
Q 928 2841 928 2578 
Q 928 2378 1081 2264 
Q 1234 2150 1697 2047 
L 1894 2003 
Q 2506 1872 2764 1633 
Q 3022 1394 3022 966 
Q 3022 478 2636 193 
Q 2250 -91 1575 -91 
Q 1294 -91 989 -36 
Q 684 19 347 128 
L 347 722 
Q 666 556 975 473 
Q 1284 391 1588 391 
Q 1994 391 2212 530 
Q 2431 669 2431 922 
Q 2431 1156 2273 1281 
Q 2116 1406 1581 1522 
L 1381 1569 
Q 847 1681 609 1914 
Q 372 2147 372 2553 
Q 372 3047 722 3315 
Q 1072 3584 1716 3584 
Q 2034 3584 2315 3537 
Q 2597 3491 2834 3397 
z
" transform="scale(0.015625)"/>
       <path id="DejaVuSans-74" d="M 1172 4494 
L 1172 3500 
L 2356 3500 
L 2356 3053 
L 1172 3053 
L 1172 1153 
Q 1172 725 1289 603 
Q 1406 481 1766 481 
L 2356 481 
L 2356 0 
L 1766 0 
Q 1100 0 847 248 
Q 594 497 594 1153 
L 594 3053 
L 172 3053 
L 172 3500 
L 594 3500 
L 594 4494 
L 1172 4494 
z
" transform="scale(0.015625)"/>
      </defs>
      <use xlink:href="#DejaVuSans-52"/>
      <use xlink:href="#DejaVuSans-49" x="69.482422"/>
      <use xlink:href="#DejaVuSans-56" x="98.974609"/>
      <use xlink:href="#DejaVuSans-31" x="167.382812"/>
      <use xlink:href="#DejaVuSans-30" x="231.005859"/>
      <use xlink:href="#DejaVuSans-20" x="294.628906"/>
      <use xlink:href="#DejaVuSans-66" x="326.416016"/>
      <use xlink:href="#DejaVuSans-61" x="361.621094"/>
      <use xlink:href="#DejaVuSans-73" x="422.900391"/>
      <use xlink:href="#DejaVuSans-74" x="475"/>
      <use xlink:href="#DejaVuSans-65" x="514.208984"/>
      <use xlink:href="#DejaVuSans-64" x="575.732422"/>
     </g>
    </g>
    <g id="LineCollection_4">
     <path d="M 317.233906 141.332812 
L 317.233906 131.332812 
" style="fill: none; stroke: #ddb8ea"/>
    </g>
    <g id="line2d_25">
     <path d="M 307.233906 136.332812 
L 327.233906 136.332812 
" style="fill: none; stroke-dasharray: 3.7,1.6; stroke-dashoffset: 0; stroke: #ddb8ea"/>
    </g>
    <g id="line2d_26">
     <g>
      <use xlink:href="#m2872211d63" x="317.233906" y="136.332812" style="fill: #ddb8ea; stroke: #000000; stroke-linejoin: miter"/>
     </g>
    </g>
    <g id="text_20">
     <!-- RIV10 fasted±SD (n=8) -->
     <g transform="translate(335.233906 139.832812) scale(0.1 -0.1)">
      <use xlink:href="#DejaVuSans-52"/>
      <use xlink:href="#DejaVuSans-49" x="69.482422"/>
      <use xlink:href="#DejaVuSans-56" x="98.974609"/>
      <use xlink:href="#DejaVuSans-31" x="167.382812"/>
      <use xlink:href="#DejaVuSans-30" x="231.005859"/>
      <use xlink:href="#DejaVuSans-20" x="294.628906"/>
      <use xlink:href="#DejaVuSans-66" x="326.416016"/>
      <use xlink:href="#DejaVuSans-61" x="361.621094"/>
      <use xlink:href="#DejaVuSans-73" x="422.900391"/>
      <use xlink:href="#DejaVuSans-74" x="475"/>
      <use xlink:href="#DejaVuSans-65" x="514.208984"/>
      <use xlink:href="#DejaVuSans-64" x="575.732422"/>
      <use xlink:href="#DejaVuSans-b1" x="639.208984"/>
      <use xlink:href="#DejaVuSans-53" x="722.998047"/>
      <use xlink:href="#DejaVuSans-44" x="786.474609"/>
      <use xlink:href="#DejaVuSans-20" x="863.476562"/>
      <use xlink:href="#DejaVuSans-28" x="895.263672"/>
      <use xlink:href="#DejaVuSans-6e" x="934.277344"/>
      <use xlink:href="#DejaVuSans-3d" x="997.65625"/>
      <use xlink:href="#DejaVuSans-38" x="1081.445312"/>
      <use xlink:href="#DejaVuSans-29" x="1145.068359"/>
     </g>
    </g>
   </g>
  </g>
  <g id="axes_2">
   <g id="patch_8">
    <path d="M 72.044844 633.6 
L 462.644844 633.6 
L 462.644844 392.556522 
L 72.044844 392.556522 
z
" style="fill: #ffffff"/>
   </g>
   <g id="matplotlib.axis_3">
    <g id="xtick_8">
     <g id="line2d_27">
      <g>
       <use xlink:href="#mb4d48eb026" x="89.799389" y="633.6" style="stroke: #000000; stroke-width: 0.8"/>
      </g>
     </g>
     <g id="text_21">
      <!-- 0 -->
      <g transform="translate(85.027514 651.997656) scale(0.15 -0.15)">
       <use xlink:href="#DejaVuSans-30"/>
      </g>
     </g>
    </g>
    <g id="xtick_9">
     <g id="line2d_28">
      <g>
       <use xlink:href="#mb4d48eb026" x="148.981207" y="633.6" style="stroke: #000000; stroke-width: 0.8"/>
      </g>
     </g>
     <g id="text_22">
      <!-- 5 -->
      <g transform="translate(144.209332 651.997656) scale(0.15 -0.15)">
       <use xlink:href="#DejaVuSans-35"/>
      </g>
     </g>
    </g>
    <g id="xtick_10">
     <g id="line2d_29">
      <g>
       <use xlink:href="#mb4d48eb026" x="208.163026" y="633.6" style="stroke: #000000; stroke-width: 0.8"/>
      </g>
     </g>
     <g id="text_23">
      <!-- 10 -->
      <g transform="translate(198.619276 651.997656) scale(0.15 -0.15)">
       <use xlink:href="#DejaVuSans-31"/>
       <use xlink:href="#DejaVuSans-30" x="63.623047"/>
      </g>
     </g>
    </g>
    <g id="xtick_11">
     <g id="line2d_30">
      <g>
       <use xlink:href="#mb4d48eb026" x="267.344844" y="633.6" style="stroke: #000000; stroke-width: 0.8"/>
      </g>
     </g>
     <g id="text_24">
      <!-- 15 -->
      <g transform="translate(257.801094 651.997656) scale(0.15 -0.15)">
       <use xlink:href="#DejaVuSans-31"/>
       <use xlink:href="#DejaVuSans-35" x="63.623047"/>
      </g>
     </g>
    </g>
    <g id="xtick_12">
     <g id="line2d_31">
      <g>
       <use xlink:href="#mb4d48eb026" x="326.526662" y="633.6" style="stroke: #000000; stroke-width: 0.8"/>
      </g>
     </g>
     <g id="text_25">
      <!-- 20 -->
      <g transform="translate(316.982912 651.997656) scale(0.15 -0.15)">
       <use xlink:href="#DejaVuSans-32"/>
       <use xlink:href="#DejaVuSans-30" x="63.623047"/>
      </g>
     </g>
    </g>
    <g id="xtick_13">
     <g id="line2d_32">
      <g>
       <use xlink:href="#mb4d48eb026" x="385.70848" y="633.6" style="stroke: #000000; stroke-width: 0.8"/>
      </g>
     </g>
     <g id="text_26">
      <!-- 25 -->
      <g transform="translate(376.16473 651.997656) scale(0.15 -0.15)">
       <use xlink:href="#DejaVuSans-32"/>
       <use xlink:href="#DejaVuSans-35" x="63.623047"/>
      </g>
     </g>
    </g>
    <g id="xtick_14">
     <g id="line2d_33">
      <g>
       <use xlink:href="#mb4d48eb026" x="444.890298" y="633.6" style="stroke: #000000; stroke-width: 0.8"/>
      </g>
     </g>
     <g id="text_27">
      <!-- 30 -->
      <g transform="translate(435.346548 651.997656) scale(0.15 -0.15)">
       <use xlink:href="#DejaVuSans-33"/>
       <use xlink:href="#DejaVuSans-30" x="63.623047"/>
      </g>
     </g>
    </g>
    <g id="text_28">
     <!-- time [hr] -->
     <g transform="translate(222.270312 672.794375) scale(0.18 -0.18)">
      <use xlink:href="#DejaVuSans-Bold-74"/>
      <use xlink:href="#DejaVuSans-Bold-69" x="47.802734"/>
      <use xlink:href="#DejaVuSans-Bold-6d" x="82.080078"/>
      <use xlink:href="#DejaVuSans-Bold-65" x="186.279297"/>
      <use xlink:href="#DejaVuSans-Bold-20" x="254.101562"/>
      <use xlink:href="#DejaVuSans-Bold-5b" x="288.916016"/>
      <use xlink:href="#DejaVuSans-Bold-68" x="334.619141"/>
      <use xlink:href="#DejaVuSans-Bold-72" x="405.810547"/>
      <use xlink:href="#DejaVuSans-Bold-5d" x="455.126953"/>
     </g>
    </g>
   </g>
   <g id="matplotlib.axis_4">
    <g id="ytick_8">
     <g id="line2d_34">
      <g>
       <use xlink:href="#m601b2556c8" x="72.044844" y="630.386087" style="stroke: #000000; stroke-width: 0.8"/>
      </g>
     </g>
     <g id="text_29">
      <!-- −0.1 -->
      <g transform="translate(28.620625 636.084915) scale(0.15 -0.15)">
       <defs>
        <path id="DejaVuSans-2212" d="M 678 2272 
L 4684 2272 
L 4684 1741 
L 678 1741 
L 678 2272 
z
" transform="scale(0.015625)"/>
       </defs>
       <use xlink:href="#DejaVuSans-2212"/>
       <use xlink:href="#DejaVuSans-30" x="83.789062"/>
       <use xlink:href="#DejaVuSans-2e" x="147.412109"/>
       <use xlink:href="#DejaVuSans-31" x="179.199219"/>
      </g>
     </g>
    </g>
    <g id="ytick_9">
     <g id="line2d_35">
      <g>
       <use xlink:href="#m601b2556c8" x="72.044844" y="590.212174" style="stroke: #000000; stroke-width: 0.8"/>
      </g>
     </g>
     <g id="text_30">
      <!-- 0.0 -->
      <g transform="translate(41.190156 595.911002) scale(0.15 -0.15)">
       <use xlink:href="#DejaVuSans-30"/>
       <use xlink:href="#DejaVuSans-2e" x="63.623047"/>
       <use xlink:href="#DejaVuSans-30" x="95.410156"/>
      </g>
     </g>
    </g>
    <g id="ytick_10">
     <g id="line2d_36">
      <g>
       <use xlink:href="#m601b2556c8" x="72.044844" y="550.038261" style="stroke: #000000; stroke-width: 0.8"/>
      </g>
     </g>
     <g id="text_31">
      <!-- 0.1 -->
      <g transform="translate(41.190156 555.737089) scale(0.15 -0.15)">
       <use xlink:href="#DejaVuSans-30"/>
       <use xlink:href="#DejaVuSans-2e" x="63.623047"/>
       <use xlink:href="#DejaVuSans-31" x="95.410156"/>
      </g>
     </g>
    </g>
    <g id="ytick_11">
     <g id="line2d_37">
      <g>
       <use xlink:href="#m601b2556c8" x="72.044844" y="509.864348" style="stroke: #000000; stroke-width: 0.8"/>
      </g>
     </g>
     <g id="text_32">
      <!-- 0.2 -->
      <g transform="translate(41.190156 515.563176) scale(0.15 -0.15)">
       <use xlink:href="#DejaVuSans-30"/>
       <use xlink:href="#DejaVuSans-2e" x="63.623047"/>
       <use xlink:href="#DejaVuSans-32" x="95.410156"/>
      </g>
     </g>
    </g>
    <g id="ytick_12">
     <g id="line2d_38">
      <g>
       <use xlink:href="#m601b2556c8" x="72.044844" y="469.690435" style="stroke: #000000; stroke-width: 0.8"/>
      </g>
     </g>
     <g id="text_33">
      <!-- 0.3 -->
      <g transform="translate(41.190156 475.389263) scale(0.15 -0.15)">
       <use xlink:href="#DejaVuSans-30"/>
       <use xlink:href="#DejaVuSans-2e" x="63.623047"/>
       <use xlink:href="#DejaVuSans-33" x="95.410156"/>
      </g>
     </g>
    </g>
    <g id="ytick_13">
     <g id="line2d_39">
      <g>
       <use xlink:href="#m601b2556c8" x="72.044844" y="429.516522" style="stroke: #000000; stroke-width: 0.8"/>
      </g>
     </g>
     <g id="text_34">
      <!-- 0.4 -->
      <g transform="translate(41.190156 435.21535) scale(0.15 -0.15)">
       <use xlink:href="#DejaVuSans-30"/>
       <use xlink:href="#DejaVuSans-2e" x="63.623047"/>
       <use xlink:href="#DejaVuSans-34" x="95.410156"/>
      </g>
     </g>
    </g>
    <g id="text_35">
     <!-- Xa inhibition [-] -->
     <g transform="translate(20.877188 592.807011) rotate(-90) scale(0.18 -0.18)">
      <defs>
       <path id="DejaVuSans-Bold-58" d="M 3188 2381 
L 4806 0 
L 3553 0 
L 2463 1594 
L 1381 0 
L 122 0 
L 1741 2381 
L 184 4666 
L 1441 4666 
L 2463 3163 
L 3481 4666 
L 4744 4666 
L 3188 2381 
z
" transform="scale(0.015625)"/>
       <path id="DejaVuSans-Bold-6e" d="M 4056 2131 
L 4056 0 
L 2931 0 
L 2931 347 
L 2931 1631 
Q 2931 2084 2911 2256 
Q 2891 2428 2841 2509 
Q 2775 2619 2662 2680 
Q 2550 2741 2406 2741 
Q 2056 2741 1856 2470 
Q 1656 2200 1656 1722 
L 1656 0 
L 538 0 
L 538 3500 
L 1656 3500 
L 1656 2988 
Q 1909 3294 2193 3439 
Q 2478 3584 2822 3584 
Q 3428 3584 3742 3212 
Q 4056 2841 4056 2131 
z
" transform="scale(0.015625)"/>
       <path id="DejaVuSans-Bold-62" d="M 2400 722 
Q 2759 722 2948 984 
Q 3138 1247 3138 1747 
Q 3138 2247 2948 2509 
Q 2759 2772 2400 2772 
Q 2041 2772 1848 2508 
Q 1656 2244 1656 1747 
Q 1656 1250 1848 986 
Q 2041 722 2400 722 
z
M 1656 2988 
Q 1888 3294 2169 3439 
Q 2450 3584 2816 3584 
Q 3463 3584 3878 3070 
Q 4294 2556 4294 1747 
Q 4294 938 3878 423 
Q 3463 -91 2816 -91 
Q 2450 -91 2169 54 
Q 1888 200 1656 506 
L 1656 0 
L 538 0 
L 538 4863 
L 1656 4863 
L 1656 2988 
z
" transform="scale(0.015625)"/>
      </defs>
      <use xlink:href="#DejaVuSans-Bold-58"/>
      <use xlink:href="#DejaVuSans-Bold-61" x="77.099609"/>
      <use xlink:href="#DejaVuSans-Bold-20" x="144.580078"/>
      <use xlink:href="#DejaVuSans-Bold-69" x="179.394531"/>
      <use xlink:href="#DejaVuSans-Bold-6e" x="213.671875"/>
      <use xlink:href="#DejaVuSans-Bold-68" x="284.863281"/>
      <use xlink:href="#DejaVuSans-Bold-69" x="356.054688"/>
      <use xlink:href="#DejaVuSans-Bold-62" x="390.332031"/>
      <use xlink:href="#DejaVuSans-Bold-69" x="461.914062"/>
      <use xlink:href="#DejaVuSans-Bold-74" x="496.191406"/>
      <use xlink:href="#DejaVuSans-Bold-69" x="543.994141"/>
      <use xlink:href="#DejaVuSans-Bold-6f" x="578.271484"/>
      <use xlink:href="#DejaVuSans-Bold-6e" x="646.972656"/>
      <use xlink:href="#DejaVuSans-Bold-20" x="718.164062"/>
      <use xlink:href="#DejaVuSans-Bold-5b" x="752.978516"/>
      <use xlink:href="#DejaVuSans-Bold-2d" x="798.681641"/>
      <use xlink:href="#DejaVuSans-Bold-5d" x="840.185547"/>
     </g>
    </g>
   </g>
   <g id="LineCollection_5">
    <path d="M 89.799389 590.212174 
L 89.799389 586.706087 
" clip-path="url(#p0bb464962e)" style="fill: none; stroke: #a35ac7"/>
    <path d="M 92.566331 591.088696 
L 92.566331 557.78087 
" clip-path="url(#p0bb464962e)" style="fill: none; stroke: #a35ac7"/>
    <path d="M 95.794431 622.643478 
L 95.794431 526.226087 
" clip-path="url(#p0bb464962e)" style="fill: none; stroke: #a35ac7"/>
    <path d="M 99.02253 612.125217 
L 99.02253 529.732174 
" clip-path="url(#p0bb464962e)" style="fill: none; stroke: #a35ac7"/>
    <path d="M 101.328315 607.742609 
L 101.328315 483.276522 
" clip-path="url(#p0bb464962e)" style="fill: none; stroke: #a35ac7"/>
    <path d="M 104.095257 599.853913 
L 104.095257 513.954783 
" clip-path="url(#p0bb464962e)" style="fill: none; stroke: #a35ac7"/>
    <path d="M 107.323356 588.45913 
L 107.323356 513.078261 
" clip-path="url(#p0bb464962e)" style="fill: none; stroke: #a35ac7"/>
    <path d="M 110.090298 553.398261 
L 110.090298 500.806957 
" clip-path="url(#p0bb464962e)" style="fill: none; stroke: #a35ac7"/>
    <path d="M 112.85724 541.126957 
L 112.85724 492.041739 
" clip-path="url(#p0bb464962e)" style="fill: none; stroke: #a35ac7"/>
    <path d="M 117.468811 530.608696 
L 117.468811 474.511304 
" clip-path="url(#p0bb464962e)" style="fill: none; stroke: #a35ac7"/>
    <path d="M 119.313439 519.213913 
L 119.313439 450.845217 
" clip-path="url(#p0bb464962e)" style="fill: none; stroke: #a35ac7"/>
    <path d="M 122.541538 492.041739 
L 122.541538 432.438261 
" clip-path="url(#p0bb464962e)" style="fill: none; stroke: #a35ac7"/>
    <path d="M 124.847323 471.881739 
L 124.847323 403.513043 
" clip-path="url(#p0bb464962e)" style="fill: none; stroke: #a35ac7"/>
    <path d="M 131.303521 466.622609 
L 131.303521 429.808696 
" clip-path="url(#p0bb464962e)" style="fill: none; stroke: #a35ac7"/>
    <path d="M 137.298563 456.104348 
L 137.298563 426.302609 
" clip-path="url(#p0bb464962e)" style="fill: none; stroke: #a35ac7"/>
    <path d="M 160.356414 505.189565 
L 160.356414 450.845217 
" clip-path="url(#p0bb464962e)" style="fill: none; stroke: #a35ac7"/>
    <path d="M 183.875422 535.867826 
L 183.875422 481.523478 
" clip-path="url(#p0bb464962e)" style="fill: none; stroke: #a35ac7"/>
    <path d="M 231.374596 563.916522 
L 231.374596 514.831304 
" clip-path="url(#p0bb464962e)" style="fill: none; stroke: #a35ac7"/>
    <path d="M 267.344844 606.866087 
L 267.344844 513.954783 
" clip-path="url(#p0bb464962e)" style="fill: none; stroke: #a35ac7"/>
    <path d="M 373.872116 574.434783 
L 373.872116 574.434783 
" clip-path="url(#p0bb464962e)" style="fill: none; stroke: #a35ac7"/>
   </g>
   <g id="LineCollection_6">
    <path d="M 89.799389 603.36 
L 89.799389 577.064348 
" clip-path="url(#p0bb464962e)" style="fill: none; stroke: #ddb8ea"/>
    <path d="M 95.333274 559.533913 
L 95.333274 538.497391 
" clip-path="url(#p0bb464962e)" style="fill: none; stroke: #ddb8ea"/>
    <path d="M 99.02253 551.645217 
L 99.02253 497.30087 
" clip-path="url(#p0bb464962e)" style="fill: none; stroke: #ddb8ea"/>
    <path d="M 101.328315 546.386087 
L 101.328315 460.486957 
" clip-path="url(#p0bb464962e)" style="fill: none; stroke: #ddb8ea"/>
    <path d="M 104.095257 546.386087 
L 104.095257 467.49913 
" clip-path="url(#p0bb464962e)" style="fill: none; stroke: #ddb8ea"/>
    <path d="M 106.401042 532.361739 
L 106.401042 476.264348 
" clip-path="url(#p0bb464962e)" style="fill: none; stroke: #ddb8ea"/>
    <path d="M 110.090298 522.72 
L 110.090298 470.128696 
" clip-path="url(#p0bb464962e)" style="fill: none; stroke: #ddb8ea"/>
    <path d="M 112.85724 529.732174 
L 112.85724 457.857391 
" clip-path="url(#p0bb464962e)" style="fill: none; stroke: #ddb8ea"/>
    <path d="M 116.546497 511.325217 
L 116.546497 481.523478 
" clip-path="url(#p0bb464962e)" style="fill: none; stroke: #ddb8ea"/>
    <path d="M 121.619224 507.81913 
L 121.619224 451.721739 
" clip-path="url(#p0bb464962e)" style="fill: none; stroke: #ddb8ea"/>
    <path d="M 125.769637 500.806957 
L 125.769637 442.956522 
" clip-path="url(#p0bb464962e)" style="fill: none; stroke: #ddb8ea"/>
    <path d="M 130.842364 512.201739 
L 130.842364 442.08 
" clip-path="url(#p0bb464962e)" style="fill: none; stroke: #ddb8ea"/>
    <path d="M 136.376249 527.97913 
L 136.376249 450.845217 
" clip-path="url(#p0bb464962e)" style="fill: none; stroke: #ddb8ea"/>
    <path d="M 159.895257 538.497391 
L 159.895257 457.857391 
" clip-path="url(#p0bb464962e)" style="fill: none; stroke: #ddb8ea"/>
    <path d="M 183.875422 555.151304 
L 183.875422 493.794783 
" clip-path="url(#p0bb464962e)" style="fill: none; stroke: #ddb8ea"/>
    <path d="M 231.374596 570.928696 
L 231.374596 492.041739 
" clip-path="url(#p0bb464962e)" style="fill: none; stroke: #ddb8ea"/>
    <path d="M 267.344844 590.212174 
L 267.344844 525.349565 
" clip-path="url(#p0bb464962e)" style="fill: none; stroke: #ddb8ea"/>
    <path d="M 374.333274 556.904348 
L 374.333274 555.151304 
" clip-path="url(#p0bb464962e)" style="fill: none; stroke: #ddb8ea"/>
   </g>
   <g id="line2d_40">
    <path d="M 89.799389 590.212174 
L 90.509571 588.651027 
L 91.219753 583.525677 
L 91.929935 575.975054 
L 96.191026 523.185661 
L 97.611389 509.706854 
L 99.031753 498.765412 
L 100.452116 489.994593 
L 101.87248 483.010571 
L 103.292844 477.475843 
L 104.713207 473.112387 
L 106.133571 469.697216 
L 107.553935 467.053198 
L 108.974298 465.039776 
L 110.394662 463.545066 
L 111.815026 462.479511 
L 113.235389 461.770964 
L 114.655753 461.3609 
L 116.076116 461.201512 
L 117.49648 461.253491 
L 118.916844 461.484305 
L 121.047389 462.107838 
L 123.177935 463.000217 
L 126.018662 464.511616 
L 128.859389 466.298996 
L 132.410298 468.809701 
L 136.671389 472.095185 
L 143.063026 477.342587 
L 158.687026 490.6188 
L 169.339753 499.484945 
L 178.572116 506.871041 
L 187.094298 513.388438 
L 194.906298 519.084071 
L 202.718298 524.498757 
L 210.530298 529.624134 
L 217.632116 534.029131 
L 224.733935 538.19147 
L 231.835753 542.113092 
L 238.937571 545.797828 
L 246.039389 549.251116 
L 253.851389 552.790527 
L 261.663389 556.068602 
L 269.475389 559.097032 
L 277.287389 561.888356 
L 285.099389 564.455649 
L 293.621571 567.016513 
L 302.143753 569.344024 
L 311.376116 571.622053 
L 320.60848 573.667555 
L 330.551026 575.633664 
L 340.493571 577.377702 
L 351.146298 579.025359 
L 362.509207 580.558942 
L 374.582298 581.96586 
L 388.075753 583.303343 
L 402.279389 584.482566 
L 417.903389 585.552624 
L 434.947753 586.496509 
L 444.890298 586.95722 
L 444.890298 586.95722 
" clip-path="url(#p0bb464962e)" style="fill: none; stroke: #a35ac7; stroke-width: 2; stroke-linecap: square"/>
   </g>
   <g id="line2d_41">
    <path d="M 89.799389 588.45913 
L 92.566331 574.434783 
L 95.794431 574.434783 
L 99.02253 570.928696 
L 101.328315 545.509565 
L 104.095257 556.904348 
L 107.323356 550.768696 
L 110.090298 527.102609 
L 112.85724 516.584348 
L 117.468811 502.56 
L 119.313439 485.029565 
L 122.541538 462.24 
L 124.847323 437.697391 
L 131.303521 448.215652 
L 137.298563 441.203478 
L 160.356414 478.017391 
L 183.875422 508.695652 
L 231.374596 539.373913 
L 267.344844 560.410435 
L 373.872116 574.434783 
" clip-path="url(#p0bb464962e)" style="fill: none; stroke-dasharray: 3.7,1.6; stroke-dashoffset: 0; stroke: #a35ac7"/>
    <g clip-path="url(#p0bb464962e)">
     <use xlink:href="#mb9b8e80012" x="89.799389" y="588.45913" style="fill: #a35ac7; stroke: #000000; stroke-linejoin: miter"/>
     <use xlink:href="#mb9b8e80012" x="92.566331" y="574.434783" style="fill: #a35ac7; stroke: #000000; stroke-linejoin: miter"/>
     <use xlink:href="#mb9b8e80012" x="95.794431" y="574.434783" style="fill: #a35ac7; stroke: #000000; stroke-linejoin: miter"/>
     <use xlink:href="#mb9b8e80012" x="99.02253" y="570.928696" style="fill: #a35ac7; stroke: #000000; stroke-linejoin: miter"/>
     <use xlink:href="#mb9b8e80012" x="101.328315" y="545.509565" style="fill: #a35ac7; stroke: #000000; stroke-linejoin: miter"/>
     <use xlink:href="#mb9b8e80012" x="104.095257" y="556.904348" style="fill: #a35ac7; stroke: #000000; stroke-linejoin: miter"/>
     <use xlink:href="#mb9b8e80012" x="107.323356" y="550.768696" style="fill: #a35ac7; stroke: #000000; stroke-linejoin: miter"/>
     <use xlink:href="#mb9b8e80012" x="110.090298" y="527.102609" style="fill: #a35ac7; stroke: #000000; stroke-linejoin: miter"/>
     <use xlink:href="#mb9b8e80012" x="112.85724" y="516.584348" style="fill: #a35ac7; stroke: #000000; stroke-linejoin: miter"/>
     <use xlink:href="#mb9b8e80012" x="117.468811" y="502.56" style="fill: #a35ac7; stroke: #000000; stroke-linejoin: miter"/>
     <use xlink:href="#mb9b8e80012" x="119.313439" y="485.029565" style="fill: #a35ac7; stroke: #000000; stroke-linejoin: miter"/>
     <use xlink:href="#mb9b8e80012" x="122.541538" y="462.24" style="fill: #a35ac7; stroke: #000000; stroke-linejoin: miter"/>
     <use xlink:href="#mb9b8e80012" x="124.847323" y="437.697391" style="fill: #a35ac7; stroke: #000000; stroke-linejoin: miter"/>
     <use xlink:href="#mb9b8e80012" x="131.303521" y="448.215652" style="fill: #a35ac7; stroke: #000000; stroke-linejoin: miter"/>
     <use xlink:href="#mb9b8e80012" x="137.298563" y="441.203478" style="fill: #a35ac7; stroke: #000000; stroke-linejoin: miter"/>
     <use xlink:href="#mb9b8e80012" x="160.356414" y="478.017391" style="fill: #a35ac7; stroke: #000000; stroke-linejoin: miter"/>
     <use xlink:href="#mb9b8e80012" x="183.875422" y="508.695652" style="fill: #a35ac7; stroke: #000000; stroke-linejoin: miter"/>
     <use xlink:href="#mb9b8e80012" x="231.374596" y="539.373913" style="fill: #a35ac7; stroke: #000000; stroke-linejoin: miter"/>
     <use xlink:href="#mb9b8e80012" x="267.344844" y="560.410435" style="fill: #a35ac7; stroke: #000000; stroke-linejoin: miter"/>
     <use xlink:href="#mb9b8e80012" x="373.872116" y="574.434783" style="fill: #a35ac7; stroke: #000000; stroke-linejoin: miter"/>
    </g>
   </g>
   <g id="line2d_42">
    <path d="M 89.799389 590.212174 
L 90.509571 588.930727 
L 91.219753 584.7052 
L 91.929935 578.428173 
L 94.06048 554.915222 
L 95.480844 539.655871 
L 96.901207 526.358921 
L 98.321571 515.245509 
L 99.741935 506.153366 
L 101.162298 498.802672 
L 102.582662 492.906094 
L 104.003026 488.207848 
L 105.423389 484.493019 
L 106.843753 481.585562 
L 108.264116 479.34276 
L 109.68448 477.649217 
L 111.104844 476.411493 
L 112.525207 475.553644 
L 113.945571 475.01365 
L 115.365935 474.740592 
L 116.786298 474.692436 
L 118.206662 474.834298 
L 120.337207 475.341031 
L 122.467753 476.131682 
L 124.598298 477.144863 
L 127.439026 478.760527 
L 130.989935 481.088461 
L 135.251026 484.180892 
L 140.93248 488.593239 
L 155.846298 500.601247 
L 165.788844 508.419327 
L 174.311026 514.841404 
L 182.123026 520.458645 
L 189.935026 525.797917 
L 197.747026 530.848981 
L 204.848844 535.187036 
L 211.950662 539.283182 
L 219.05248 543.13968 
L 226.154298 546.76072 
L 233.256116 550.152081 
L 241.068116 553.625762 
L 248.880116 556.840914 
L 256.692116 559.809464 
L 264.504116 562.544107 
L 272.316116 565.058007 
L 280.838298 567.564409 
L 289.36048 569.84138 
L 298.592844 572.068982 
L 307.825207 574.068396 
L 317.767753 575.989486 
L 328.42048 577.806946 
L 339.073207 579.401765 
L 350.436116 580.885567 
L 363.219389 582.320055 
L 376.712844 583.60151 
L 391.626662 584.782091 
L 407.960844 585.838537 
L 425.715389 586.758067 
L 444.890298 587.537426 
L 444.890298 587.537426 
" clip-path="url(#p0bb464962e)" style="fill: none; stroke: #ddb8ea; stroke-width: 2; stroke-linecap: square"/>
   </g>
   <g id="line2d_43">
    <path d="M 89.799389 590.212174 
L 95.333274 549.015652 
L 99.02253 524.473043 
L 101.328315 503.436522 
L 104.095257 506.942609 
L 106.401042 504.313043 
L 110.090298 496.424348 
L 112.85724 493.794783 
L 116.546497 496.424348 
L 121.619224 479.770435 
L 125.769637 471.881739 
L 130.842364 477.14087 
L 136.376249 489.412174 
L 159.895257 498.177391 
L 183.875422 524.473043 
L 231.374596 531.485217 
L 267.344844 557.78087 
L 374.333274 556.027826 
" clip-path="url(#p0bb464962e)" style="fill: none; stroke-dasharray: 3.7,1.6; stroke-dashoffset: 0; stroke: #ddb8ea"/>
    <g clip-path="url(#p0bb464962e)">
     <use xlink:href="#m2872211d63" x="89.799389" y="590.212174" style="fill: #ddb8ea; stroke: #000000; stroke-linejoin: miter"/>
     <use xlink:href="#m2872211d63" x="95.333274" y="549.015652" style="fill: #ddb8ea; stroke: #000000; stroke-linejoin: miter"/>
     <use xlink:href="#m2872211d63" x="99.02253" y="524.473043" style="fill: #ddb8ea; stroke: #000000; stroke-linejoin: miter"/>
     <use xlink:href="#m2872211d63" x="101.328315" y="503.436522" style="fill: #ddb8ea; stroke: #000000; stroke-linejoin: miter"/>
     <use xlink:href="#m2872211d63" x="104.095257" y="506.942609" style="fill: #ddb8ea; stroke: #000000; stroke-linejoin: miter"/>
     <use xlink:href="#m2872211d63" x="106.401042" y="504.313043" style="fill: #ddb8ea; stroke: #000000; stroke-linejoin: miter"/>
     <use xlink:href="#m2872211d63" x="110.090298" y="496.424348" style="fill: #ddb8ea; stroke: #000000; stroke-linejoin: miter"/>
     <use xlink:href="#m2872211d63" x="112.85724" y="493.794783" style="fill: #ddb8ea; stroke: #000000; stroke-linejoin: miter"/>
     <use xlink:href="#m2872211d63" x="116.546497" y="496.424348" style="fill: #ddb8ea; stroke: #000000; stroke-linejoin: miter"/>
     <use xlink:href="#m2872211d63" x="121.619224" y="479.770435" style="fill: #ddb8ea; stroke: #000000; stroke-linejoin: miter"/>
     <use xlink:href="#m2872211d63" x="125.769637" y="471.881739" style="fill: #ddb8ea; stroke: #000000; stroke-linejoin: miter"/>
     <use xlink:href="#m2872211d63" x="130.842364" y="477.14087" style="fill: #ddb8ea; stroke: #000000; stroke-linejoin: miter"/>
     <use xlink:href="#m2872211d63" x="136.376249" y="489.412174" style="fill: #ddb8ea; stroke: #000000; stroke-linejoin: miter"/>
     <use xlink:href="#m2872211d63" x="159.895257" y="498.177391" style="fill: #ddb8ea; stroke: #000000; stroke-linejoin: miter"/>
     <use xlink:href="#m2872211d63" x="183.875422" y="524.473043" style="fill: #ddb8ea; stroke: #000000; stroke-linejoin: miter"/>
     <use xlink:href="#m2872211d63" x="231.374596" y="531.485217" style="fill: #ddb8ea; stroke: #000000; stroke-linejoin: miter"/>
     <use xlink:href="#m2872211d63" x="267.344844" y="557.78087" style="fill: #ddb8ea; stroke: #000000; stroke-linejoin: miter"/>
     <use xlink:href="#m2872211d63" x="374.333274" y="556.027826" style="fill: #ddb8ea; stroke: #000000; stroke-linejoin: miter"/>
    </g>
   </g>
   <g id="patch_9">
    <path d="M 72.044844 633.6 
L 72.044844 392.556522 
" style="fill: none; stroke: #000000; stroke-width: 0.8; stroke-linejoin: miter; stroke-linecap: square"/>
   </g>
   <g id="patch_10">
    <path d="M 462.644844 633.6 
L 462.644844 392.556522 
" style="fill: none; stroke: #000000; stroke-width: 0.8; stroke-linejoin: miter; stroke-linecap: square"/>
   </g>
   <g id="patch_11">
    <path d="M 72.044844 633.6 
L 462.644844 633.6 
" style="fill: none; stroke: #000000; stroke-width: 0.8; stroke-linejoin: miter; stroke-linecap: square"/>
   </g>
   <g id="patch_12">
    <path d="M 72.044844 392.556522 
L 462.644844 392.556522 
" style="fill: none; stroke: #000000; stroke-width: 0.8; stroke-linejoin: miter; stroke-linecap: square"/>
   </g>
   <g id="legend_2">
    <g id="patch_13">
     <path d="M 305.233906 459.269022 
L 455.644844 459.269022 
Q 457.644844 459.269022 457.644844 457.269022 
L 457.644844 399.556522 
Q 457.644844 397.556522 455.644844 397.556522 
L 305.233906 397.556522 
Q 303.233906 397.556522 303.233906 399.556522 
L 303.233906 457.269022 
Q 303.233906 459.269022 305.233906 459.269022 
z
" style="fill: #ffffff; opacity: 0.8; stroke: #cccccc; stroke-linejoin: miter"/>
    </g>
    <g id="line2d_44">
     <path d="M 307.233906 405.654959 
L 327.233906 405.654959 
" style="fill: none; stroke: #a35ac7; stroke-width: 2; stroke-linecap: square"/>
    </g>
    <g id="line2d_45"/>
    <g id="text_36">
     <!-- RIV10 fed -->
     <g transform="translate(335.233906 409.154959) scale(0.1 -0.1)">
      <use xlink:href="#DejaVuSans-52"/>
      <use xlink:href="#DejaVuSans-49" x="69.482422"/>
      <use xlink:href="#DejaVuSans-56" x="98.974609"/>
      <use xlink:href="#DejaVuSans-31" x="167.382812"/>
      <use xlink:href="#DejaVuSans-30" x="231.005859"/>
      <use xlink:href="#DejaVuSans-20" x="294.628906"/>
      <use xlink:href="#DejaVuSans-66" x="326.416016"/>
      <use xlink:href="#DejaVuSans-65" x="361.621094"/>
      <use xlink:href="#DejaVuSans-64" x="423.144531"/>
     </g>
    </g>
    <g id="LineCollection_7">
     <path d="M 317.233906 425.333084 
L 317.233906 415.333084 
" style="fill: none; stroke: #a35ac7"/>
    </g>
    <g id="line2d_46">
     <path d="M 307.233906 420.333084 
L 327.233906 420.333084 
" style="fill: none; stroke-dasharray: 3.7,1.6; stroke-dashoffset: 0; stroke: #a35ac7"/>
    </g>
    <g id="line2d_47">
     <g>
      <use xlink:href="#mb9b8e80012" x="317.233906" y="420.333084" style="fill: #a35ac7; stroke: #000000; stroke-linejoin: miter"/>
     </g>
    </g>
    <g id="text_37">
     <!-- RIV10 fed±SD (n=8) -->
     <g transform="translate(335.233906 423.833084) scale(0.1 -0.1)">
      <use xlink:href="#DejaVuSans-52"/>
      <use xlink:href="#DejaVuSans-49" x="69.482422"/>
      <use xlink:href="#DejaVuSans-56" x="98.974609"/>
      <use xlink:href="#DejaVuSans-31" x="167.382812"/>
      <use xlink:href="#DejaVuSans-30" x="231.005859"/>
      <use xlink:href="#DejaVuSans-20" x="294.628906"/>
      <use xlink:href="#DejaVuSans-66" x="326.416016"/>
      <use xlink:href="#DejaVuSans-65" x="361.621094"/>
      <use xlink:href="#DejaVuSans-64" x="423.144531"/>
      <use xlink:href="#DejaVuSans-b1" x="486.621094"/>
      <use xlink:href="#DejaVuSans-53" x="570.410156"/>
      <use xlink:href="#DejaVuSans-44" x="633.886719"/>
      <use xlink:href="#DejaVuSans-20" x="710.888672"/>
      <use xlink:href="#DejaVuSans-28" x="742.675781"/>
      <use xlink:href="#DejaVuSans-6e" x="781.689453"/>
      <use xlink:href="#DejaVuSans-3d" x="845.068359"/>
      <use xlink:href="#DejaVuSans-38" x="928.857422"/>
      <use xlink:href="#DejaVuSans-29" x="992.480469"/>
     </g>
    </g>
    <g id="line2d_48">
     <path d="M 307.233906 435.011209 
L 327.233906 435.011209 
" style="fill: none; stroke: #ddb8ea; stroke-width: 2; stroke-linecap: square"/>
    </g>
    <g id="line2d_49"/>
    <g id="text_38">
     <!-- RIV10 fasted -->
     <g transform="translate(335.233906 438.511209) scale(0.1 -0.1)">
      <use xlink:href="#DejaVuSans-52"/>
      <use xlink:href="#DejaVuSans-49" x="69.482422"/>
      <use xlink:href="#DejaVuSans-56" x="98.974609"/>
      <use xlink:href="#DejaVuSans-31" x="167.382812"/>
      <use xlink:href="#DejaVuSans-30" x="231.005859"/>
      <use xlink:href="#DejaVuSans-20" x="294.628906"/>
      <use xlink:href="#DejaVuSans-66" x="326.416016"/>
      <use xlink:href="#DejaVuSans-61" x="361.621094"/>
      <use xlink:href="#DejaVuSans-73" x="422.900391"/>
      <use xlink:href="#DejaVuSans-74" x="475"/>
      <use xlink:href="#DejaVuSans-65" x="514.208984"/>
      <use xlink:href="#DejaVuSans-64" x="575.732422"/>
     </g>
    </g>
    <g id="LineCollection_8">
     <path d="M 317.233906 454.689334 
L 317.233906 444.689334 
" style="fill: none; stroke: #ddb8ea"/>
    </g>
    <g id="line2d_50">
     <path d="M 307.233906 449.689334 
L 327.233906 449.689334 
" style="fill: none; stroke-dasharray: 3.7,1.6; stroke-dashoffset: 0; stroke: #ddb8ea"/>
    </g>
    <g id="line2d_51">
     <g>
      <use xlink:href="#m2872211d63" x="317.233906" y="449.689334" style="fill: #ddb8ea; stroke: #000000; stroke-linejoin: miter"/>
     </g>
    </g>
    <g id="text_39">
     <!-- RIV10 fasted±SD (n=8) -->
     <g transform="translate(335.233906 453.189334) scale(0.1 -0.1)">
      <use xlink:href="#DejaVuSans-52"/>
      <use xlink:href="#DejaVuSans-49" x="69.482422"/>
      <use xlink:href="#DejaVuSans-56" x="98.974609"/>
      <use xlink:href="#DejaVuSans-31" x="167.382812"/>
      <use xlink:href="#DejaVuSans-30" x="231.005859"/>
      <use xlink:href="#DejaVuSans-20" x="294.628906"/>
      <use xlink:href="#DejaVuSans-66" x="326.416016"/>
      <use xlink:href="#DejaVuSans-61" x="361.621094"/>
      <use xlink:href="#DejaVuSans-73" x="422.900391"/>
      <use xlink:href="#DejaVuSans-74" x="475"/>
      <use xlink:href="#DejaVuSans-65" x="514.208984"/>
      <use xlink:href="#DejaVuSans-64" x="575.732422"/>
      <use xlink:href="#DejaVuSans-b1" x="639.208984"/>
      <use xlink:href="#DejaVuSans-53" x="722.998047"/>
      <use xlink:href="#DejaVuSans-44" x="786.474609"/>
      <use xlink:href="#DejaVuSans-20" x="863.476562"/>
      <use xlink:href="#DejaVuSans-28" x="895.263672"/>
      <use xlink:href="#DejaVuSans-6e" x="934.277344"/>
      <use xlink:href="#DejaVuSans-3d" x="997.65625"/>
      <use xlink:href="#DejaVuSans-38" x="1081.445312"/>
      <use xlink:href="#DejaVuSans-29" x="1145.068359"/>
     </g>
    </g>
   </g>
  </g>
  <g id="text_40">
   <!-- Kubitza2006 -->
   <g transform="translate(172.972578 26.196094) scale(0.25 -0.25)">
    <defs>
     <path id="DejaVuSans-Bold-4b" d="M 588 4666 
L 1791 4666 
L 1791 2963 
L 3525 4666 
L 4922 4666 
L 2675 2456 
L 5153 0 
L 3647 0 
L 1791 1838 
L 1791 0 
L 588 0 
L 588 4666 
z
" transform="scale(0.015625)"/>
     <path id="DejaVuSans-Bold-75" d="M 500 1363 
L 500 3500 
L 1625 3500 
L 1625 3150 
Q 1625 2866 1622 2436 
Q 1619 2006 1619 1863 
Q 1619 1441 1641 1255 
Q 1663 1069 1716 984 
Q 1784 875 1895 815 
Q 2006 756 2150 756 
Q 2500 756 2700 1025 
Q 2900 1294 2900 1772 
L 2900 3500 
L 4019 3500 
L 4019 0 
L 2900 0 
L 2900 506 
Q 2647 200 2364 54 
Q 2081 -91 1741 -91 
Q 1134 -91 817 281 
Q 500 653 500 1363 
z
" transform="scale(0.015625)"/>
     <path id="DejaVuSans-Bold-7a" d="M 366 3500 
L 3419 3500 
L 3419 2719 
L 1575 800 
L 3419 800 
L 3419 0 
L 288 0 
L 288 781 
L 2131 2700 
L 366 2700 
L 366 3500 
z
" transform="scale(0.015625)"/>
     <path id="DejaVuSans-Bold-32" d="M 1844 884 
L 3897 884 
L 3897 0 
L 506 0 
L 506 884 
L 2209 2388 
Q 2438 2594 2547 2791 
Q 2656 2988 2656 3200 
Q 2656 3528 2436 3728 
Q 2216 3928 1850 3928 
Q 1569 3928 1234 3808 
Q 900 3688 519 3450 
L 519 4475 
Q 925 4609 1322 4679 
Q 1719 4750 2100 4750 
Q 2938 4750 3402 4381 
Q 3866 4013 3866 3353 
Q 3866 2972 3669 2642 
Q 3472 2313 2841 1759 
L 1844 884 
z
" transform="scale(0.015625)"/>
     <path id="DejaVuSans-Bold-30" d="M 2944 2338 
Q 2944 3213 2780 3570 
Q 2616 3928 2228 3928 
Q 1841 3928 1675 3570 
Q 1509 3213 1509 2338 
Q 1509 1453 1675 1090 
Q 1841 728 2228 728 
Q 2613 728 2778 1090 
Q 2944 1453 2944 2338 
z
M 4147 2328 
Q 4147 1169 3647 539 
Q 3147 -91 2228 -91 
Q 1306 -91 806 539 
Q 306 1169 306 2328 
Q 306 3491 806 4120 
Q 1306 4750 2228 4750 
Q 3147 4750 3647 4120 
Q 4147 3491 4147 2328 
z
" transform="scale(0.015625)"/>
     <path id="DejaVuSans-Bold-36" d="M 2316 2303 
Q 2000 2303 1842 2098 
Q 1684 1894 1684 1484 
Q 1684 1075 1842 870 
Q 2000 666 2316 666 
Q 2634 666 2792 870 
Q 2950 1075 2950 1484 
Q 2950 1894 2792 2098 
Q 2634 2303 2316 2303 
z
M 3803 4544 
L 3803 3681 
Q 3506 3822 3243 3889 
Q 2981 3956 2731 3956 
Q 2194 3956 1894 3657 
Q 1594 3359 1544 2772 
Q 1750 2925 1990 3001 
Q 2231 3078 2516 3078 
Q 3231 3078 3670 2659 
Q 4109 2241 4109 1563 
Q 4109 813 3618 361 
Q 3128 -91 2303 -91 
Q 1394 -91 895 523 
Q 397 1138 397 2266 
Q 397 3422 980 4083 
Q 1563 4744 2578 4744 
Q 2900 4744 3203 4694 
Q 3506 4644 3803 4544 
z
" transform="scale(0.015625)"/>
    </defs>
    <use xlink:href="#DejaVuSans-Bold-4b"/>
    <use xlink:href="#DejaVuSans-Bold-75" x="75.740234"/>
    <use xlink:href="#DejaVuSans-Bold-62" x="146.931641"/>
    <use xlink:href="#DejaVuSans-Bold-69" x="218.513672"/>
    <use xlink:href="#DejaVuSans-Bold-74" x="252.791016"/>
    <use xlink:href="#DejaVuSans-Bold-7a" x="300.59375"/>
    <use xlink:href="#DejaVuSans-Bold-61" x="358.796875"/>
    <use xlink:href="#DejaVuSans-Bold-32" x="426.277344"/>
    <use xlink:href="#DejaVuSans-Bold-30" x="495.857422"/>
    <use xlink:href="#DejaVuSans-Bold-30" x="565.4375"/>
    <use xlink:href="#DejaVuSans-Bold-36" x="635.017578"/>
   </g>
  </g>
 </g>
 <defs>
  <clipPath id="p556eec79ec">
   <rect x="72.044844" y="79.2" width="390.6" height="241.043478"/>
  </clipPath>
  <clipPath id="p0bb464962e">
   <rect x="72.044844" y="392.556522" width="390.6" height="241.043478"/>
  </clipPath>
 </defs>
</svg>
