<?xml version="1.0" encoding="utf-8" standalone="no"?>
<!DOCTYPE svg PUBLIC "-//W3C//DTD SVG 1.1//EN"
  "http://www.w3.org/Graphics/SVG/1.1/DTD/svg11.dtd">
<svg xmlns:xlink="http://www.w3.org/1999/xlink" width="847.875313pt" height="370.537812pt" viewBox="0 0 847.875313 370.537812" xmlns="http://www.w3.org/2000/svg" version="1.1">
 <metadata>
  <rdf:RDF xmlns:dc="http://purl.org/dc/elements/1.1/" xmlns:cc="http://creativecommons.org/ns#" xmlns:rdf="http://www.w3.org/1999/02/22-rdf-syntax-ns#">
   <cc:Work>
    <dc:type rdf:resource="http://purl.org/dc/dcmitype/StillImage"/>
    <dc:date>2026-01-05T10:58:57.188305</dc:date>
    <dc:format>image/svg+xml</dc:format>
    <dc:creator>
     <cc:Agent>
      <dc:title>Matplotlib v3.10.8, https://matplotlib.org/</dc:title>
     </cc:Agent>
    </dc:creator>
   </cc:Work>
  </rdf:RDF>
 </metadata>
 <defs>
  <style type="text/css">*{stroke-linejoin: round; stroke-linecap: butt}</style>
 </defs>
 <g id="figure_1">
  <g id="patch_1">
   <path d="M 0 370.537812 
L 847.875313 370.537812 
L 847.875313 0 
L 0 0 
z
" style="fill: #ffffff"/>
  </g>
  <g id="axes_1">
   <g id="patch_2">
    <path d="M 59.475313 320.4 
L 399.127486 320.4 
L 399.127486 43.2 
L 59.475313 43.2 
z
" style="fill: #ffffff"/>
   </g>
   <g id="matplotlib.axis_1">
    <g id="xtick_1">
     <g id="line2d_1">
      <defs>
       <path id="m7ef82c91de" d="M 0 0 
L 0 3.5 
" style="stroke: #000000; stroke-width: 0.8"/>
      </defs>
      <g>
       <use xlink:href="#m7ef82c91de" x="74.914048" y="320.4" style="stroke: #000000; stroke-width: 0.8"/>
      </g>
     </g>
     <g id="text_1">
      <!-- 0 -->
      <g transform="translate(70.142173 338.797656) scale(0.15 -0.15)">
       <defs>
        <path id="DejaVuSans-30" d="M 2034 4250 
Q 1547 4250 1301 3770 
Q 1056 3291 1056 2328 
Q 1056 1369 1301 889 
Q 1547 409 2034 409 
Q 2525 409 2770 889 
Q 3016 1369 3016 2328 
Q 3016 3291 2770 3770 
Q 2525 4250 2034 4250 
z
M 2034 4750 
Q 2819 4750 3233 4129 
Q 3647 3509 3647 2328 
Q 3647 1150 3233 529 
Q 2819 -91 2034 -91 
Q 1250 -91 836 529 
Q 422 1150 422 2328 
Q 422 3509 836 4129 
Q 1250 4750 2034 4750 
z
" transform="scale(0.015625)"/>
       </defs>
       <use xlink:href="#DejaVuSans-30"/>
      </g>
     </g>
    </g>
    <g id="xtick_2">
     <g id="line2d_2">
      <g>
       <use xlink:href="#m7ef82c91de" x="126.376498" y="320.4" style="stroke: #000000; stroke-width: 0.8"/>
      </g>
     </g>
     <g id="text_2">
      <!-- 5 -->
      <g transform="translate(121.604623 338.797656) scale(0.15 -0.15)">
       <defs>
        <path id="DejaVuSans-35" d="M 691 4666 
L 3169 4666 
L 3169 4134 
L 1269 4134 
L 1269 2991 
Q 1406 3038 1543 3061 
Q 1681 3084 1819 3084 
Q 2600 3084 3056 2656 
Q 3513 2228 3513 1497 
Q 3513 744 3044 326 
Q 2575 -91 1722 -91 
Q 1428 -91 1123 -41 
Q 819 9 494 109 
L 494 744 
Q 775 591 1075 516 
Q 1375 441 1709 441 
Q 2250 441 2565 725 
Q 2881 1009 2881 1497 
Q 2881 1984 2565 2268 
Q 2250 2553 1709 2553 
Q 1456 2553 1204 2497 
Q 953 2441 691 2322 
L 691 4666 
z
" transform="scale(0.015625)"/>
       </defs>
       <use xlink:href="#DejaVuSans-35"/>
      </g>
     </g>
    </g>
    <g id="xtick_3">
     <g id="line2d_3">
      <g>
       <use xlink:href="#m7ef82c91de" x="177.838949" y="320.4" style="stroke: #000000; stroke-width: 0.8"/>
      </g>
     </g>
     <g id="text_3">
      <!-- 10 -->
      <g transform="translate(168.295199 338.797656) scale(0.15 -0.15)">
       <defs>
        <path id="DejaVuSans-31" d="M 794 531 
L 1825 531 
L 1825 4091 
L 703 3866 
L 703 4441 
L 1819 4666 
L 2450 4666 
L 2450 531 
L 3481 531 
L 3481 0 
L 794 0 
L 794 531 
z
" transform="scale(0.015625)"/>
       </defs>
       <use xlink:href="#DejaVuSans-31"/>
       <use xlink:href="#DejaVuSans-30" transform="translate(63.623047 0)"/>
      </g>
     </g>
    </g>
    <g id="xtick_4">
     <g id="line2d_4">
      <g>
       <use xlink:href="#m7ef82c91de" x="229.301399" y="320.4" style="stroke: #000000; stroke-width: 0.8"/>
      </g>
     </g>
     <g id="text_4">
      <!-- 15 -->
      <g transform="translate(219.757649 338.797656) scale(0.15 -0.15)">
       <use xlink:href="#DejaVuSans-31"/>
       <use xlink:href="#DejaVuSans-35" transform="translate(63.623047 0)"/>
      </g>
     </g>
    </g>
    <g id="xtick_5">
     <g id="line2d_5">
      <g>
       <use xlink:href="#m7ef82c91de" x="280.76385" y="320.4" style="stroke: #000000; stroke-width: 0.8"/>
      </g>
     </g>
     <g id="text_5">
      <!-- 20 -->
      <g transform="translate(271.2201 338.797656) scale(0.15 -0.15)">
       <defs>
        <path id="DejaVuSans-32" d="M 1228 531 
L 3431 531 
L 3431 0 
L 469 0 
L 469 531 
Q 828 903 1448 1529 
Q 2069 2156 2228 2338 
Q 2531 2678 2651 2914 
Q 2772 3150 2772 3378 
Q 2772 3750 2511 3984 
Q 2250 4219 1831 4219 
Q 1534 4219 1204 4116 
Q 875 4013 500 3803 
L 500 4441 
Q 881 4594 1212 4672 
Q 1544 4750 1819 4750 
Q 2544 4750 2975 4387 
Q 3406 4025 3406 3419 
Q 3406 3131 3298 2873 
Q 3191 2616 2906 2266 
Q 2828 2175 2409 1742 
Q 1991 1309 1228 531 
z
" transform="scale(0.015625)"/>
       </defs>
       <use xlink:href="#DejaVuSans-32"/>
       <use xlink:href="#DejaVuSans-30" transform="translate(63.623047 0)"/>
      </g>
     </g>
    </g>
    <g id="xtick_6">
     <g id="line2d_6">
      <g>
       <use xlink:href="#m7ef82c91de" x="332.226301" y="320.4" style="stroke: #000000; stroke-width: 0.8"/>
      </g>
     </g>
     <g id="text_6">
      <!-- 25 -->
      <g transform="translate(322.682551 338.797656) scale(0.15 -0.15)">
       <use xlink:href="#DejaVuSans-32"/>
       <use xlink:href="#DejaVuSans-35" transform="translate(63.623047 0)"/>
      </g>
     </g>
    </g>
    <g id="xtick_7">
     <g id="line2d_7">
      <g>
       <use xlink:href="#m7ef82c91de" x="383.688751" y="320.4" style="stroke: #000000; stroke-width: 0.8"/>
      </g>
     </g>
     <g id="text_7">
      <!-- 30 -->
      <g transform="translate(374.145001 338.797656) scale(0.15 -0.15)">
       <defs>
        <path id="DejaVuSans-33" d="M 2597 2516 
Q 3050 2419 3304 2112 
Q 3559 1806 3559 1356 
Q 3559 666 3084 287 
Q 2609 -91 1734 -91 
Q 1441 -91 1130 -33 
Q 819 25 488 141 
L 488 750 
Q 750 597 1062 519 
Q 1375 441 1716 441 
Q 2309 441 2620 675 
Q 2931 909 2931 1356 
Q 2931 1769 2642 2001 
Q 2353 2234 1838 2234 
L 1294 2234 
L 1294 2753 
L 1863 2753 
Q 2328 2753 2575 2939 
Q 2822 3125 2822 3475 
Q 2822 3834 2567 4026 
Q 2313 4219 1838 4219 
Q 1578 4219 1281 4162 
Q 984 4106 628 3988 
L 628 4550 
Q 988 4650 1302 4700 
Q 1616 4750 1894 4750 
Q 2613 4750 3031 4423 
Q 3450 4097 3450 3541 
Q 3450 3153 3228 2886 
Q 3006 2619 2597 2516 
z
" transform="scale(0.015625)"/>
       </defs>
       <use xlink:href="#DejaVuSans-33"/>
       <use xlink:href="#DejaVuSans-30" transform="translate(63.623047 0)"/>
      </g>
     </g>
    </g>
    <g id="text_8">
     <!-- time [hr] -->
     <g transform="translate(184.226868 359.594375) scale(0.18 -0.18)">
      <defs>
       <path id="DejaVuSans-Bold-74" d="M 1759 4494 
L 1759 3500 
L 2913 3500 
L 2913 2700 
L 1759 2700 
L 1759 1216 
Q 1759 972 1856 886 
Q 1953 800 2241 800 
L 2816 800 
L 2816 0 
L 1856 0 
Q 1194 0 917 276 
Q 641 553 641 1216 
L 641 2700 
L 84 2700 
L 84 3500 
L 641 3500 
L 641 4494 
L 1759 4494 
z
" transform="scale(0.015625)"/>
       <path id="DejaVuSans-Bold-69" d="M 538 3500 
L 1656 3500 
L 1656 0 
L 538 0 
L 538 3500 
z
M 538 4863 
L 1656 4863 
L 1656 3950 
L 538 3950 
L 538 4863 
z
" transform="scale(0.015625)"/>
       <path id="DejaVuSans-Bold-6d" d="M 3781 2919 
Q 3994 3244 4286 3414 
Q 4578 3584 4928 3584 
Q 5531 3584 5847 3212 
Q 6163 2841 6163 2131 
L 6163 0 
L 5038 0 
L 5038 1825 
Q 5041 1866 5042 1909 
Q 5044 1953 5044 2034 
Q 5044 2406 4934 2573 
Q 4825 2741 4581 2741 
Q 4263 2741 4089 2478 
Q 3916 2216 3909 1719 
L 3909 0 
L 2784 0 
L 2784 1825 
Q 2784 2406 2684 2573 
Q 2584 2741 2328 2741 
Q 2006 2741 1831 2477 
Q 1656 2213 1656 1722 
L 1656 0 
L 531 0 
L 531 3500 
L 1656 3500 
L 1656 2988 
Q 1863 3284 2130 3434 
Q 2397 3584 2719 3584 
Q 3081 3584 3359 3409 
Q 3638 3234 3781 2919 
z
" transform="scale(0.015625)"/>
       <path id="DejaVuSans-Bold-65" d="M 4031 1759 
L 4031 1441 
L 1416 1441 
Q 1456 1047 1700 850 
Q 1944 653 2381 653 
Q 2734 653 3104 758 
Q 3475 863 3866 1075 
L 3866 213 
Q 3469 63 3072 -14 
Q 2675 -91 2278 -91 
Q 1328 -91 801 392 
Q 275 875 275 1747 
Q 275 2603 792 3093 
Q 1309 3584 2216 3584 
Q 3041 3584 3536 3087 
Q 4031 2591 4031 1759 
z
M 2881 2131 
Q 2881 2450 2695 2645 
Q 2509 2841 2209 2841 
Q 1884 2841 1681 2658 
Q 1478 2475 1428 2131 
L 2881 2131 
z
" transform="scale(0.015625)"/>
       <path id="DejaVuSans-Bold-20" transform="scale(0.015625)"/>
       <path id="DejaVuSans-Bold-5b" d="M 550 4863 
L 2491 4863 
L 2491 4159 
L 1613 4159 
L 1613 -141 
L 2491 -141 
L 2491 -844 
L 550 -844 
L 550 4863 
z
" transform="scale(0.015625)"/>
       <path id="DejaVuSans-Bold-68" d="M 4056 2131 
L 4056 0 
L 2931 0 
L 2931 347 
L 2931 1625 
Q 2931 2084 2911 2256 
Q 2891 2428 2841 2509 
Q 2775 2619 2662 2680 
Q 2550 2741 2406 2741 
Q 2056 2741 1856 2470 
Q 1656 2200 1656 1722 
L 1656 0 
L 538 0 
L 538 4863 
L 1656 4863 
L 1656 2988 
Q 1909 3294 2193 3439 
Q 2478 3584 2822 3584 
Q 3428 3584 3742 3212 
Q 4056 2841 4056 2131 
z
" transform="scale(0.015625)"/>
       <path id="DejaVuSans-Bold-72" d="M 3138 2547 
Q 2991 2616 2845 2648 
Q 2700 2681 2553 2681 
Q 2122 2681 1889 2404 
Q 1656 2128 1656 1613 
L 1656 0 
L 538 0 
L 538 3500 
L 1656 3500 
L 1656 2925 
Q 1872 3269 2151 3426 
Q 2431 3584 2822 3584 
Q 2878 3584 2943 3579 
Q 3009 3575 3134 3559 
L 3138 2547 
z
" transform="scale(0.015625)"/>
       <path id="DejaVuSans-Bold-5d" d="M 2375 -844 
L 434 -844 
L 434 -141 
L 1313 -141 
L 1313 4159 
L 434 4159 
L 434 4863 
L 2375 4863 
L 2375 -844 
z
" transform="scale(0.015625)"/>
      </defs>
      <use xlink:href="#DejaVuSans-Bold-74"/>
      <use xlink:href="#DejaVuSans-Bold-69" transform="translate(47.802734 0)"/>
      <use xlink:href="#DejaVuSans-Bold-6d" transform="translate(82.080078 0)"/>
      <use xlink:href="#DejaVuSans-Bold-65" transform="translate(186.279297 0)"/>
      <use xlink:href="#DejaVuSans-Bold-20" transform="translate(254.101562 0)"/>
      <use xlink:href="#DejaVuSans-Bold-5b" transform="translate(288.916016 0)"/>
      <use xlink:href="#DejaVuSans-Bold-68" transform="translate(334.619141 0)"/>
      <use xlink:href="#DejaVuSans-Bold-72" transform="translate(405.810547 0)"/>
      <use xlink:href="#DejaVuSans-Bold-5d" transform="translate(455.126953 0)"/>
     </g>
    </g>
   </g>
   <g id="matplotlib.axis_2">
    <g id="ytick_1">
     <g id="line2d_8">
      <defs>
       <path id="m256849064c" d="M 0 0 
L -3.5 0 
" style="stroke: #000000; stroke-width: 0.8"/>
      </defs>
      <g>
       <use xlink:href="#m256849064c" x="59.475313" y="297.411883" style="stroke: #000000; stroke-width: 0.8"/>
      </g>
     </g>
     <g id="text_9">
      <!-- 1.0 -->
      <g transform="translate(28.620625 303.110712) scale(0.15 -0.15)">
       <defs>
        <path id="DejaVuSans-2e" d="M 684 794 
L 1344 794 
L 1344 0 
L 684 0 
L 684 794 
z
" transform="scale(0.015625)"/>
       </defs>
       <use xlink:href="#DejaVuSans-31"/>
       <use xlink:href="#DejaVuSans-2e" transform="translate(63.623047 0)"/>
       <use xlink:href="#DejaVuSans-30" transform="translate(95.410156 0)"/>
      </g>
     </g>
    </g>
    <g id="ytick_2">
     <g id="line2d_9">
      <g>
       <use xlink:href="#m256849064c" x="59.475313" y="259.068307" style="stroke: #000000; stroke-width: 0.8"/>
      </g>
     </g>
     <g id="text_10">
      <!-- 1.1 -->
      <g transform="translate(28.620625 264.767136) scale(0.15 -0.15)">
       <use xlink:href="#DejaVuSans-31"/>
       <use xlink:href="#DejaVuSans-2e" transform="translate(63.623047 0)"/>
       <use xlink:href="#DejaVuSans-31" transform="translate(95.410156 0)"/>
      </g>
     </g>
    </g>
    <g id="ytick_3">
     <g id="line2d_10">
      <g>
       <use xlink:href="#m256849064c" x="59.475313" y="220.724731" style="stroke: #000000; stroke-width: 0.8"/>
      </g>
     </g>
     <g id="text_11">
      <!-- 1.2 -->
      <g transform="translate(28.620625 226.42356) scale(0.15 -0.15)">
       <use xlink:href="#DejaVuSans-31"/>
       <use xlink:href="#DejaVuSans-2e" transform="translate(63.623047 0)"/>
       <use xlink:href="#DejaVuSans-32" transform="translate(95.410156 0)"/>
      </g>
     </g>
    </g>
    <g id="ytick_4">
     <g id="line2d_11">
      <g>
       <use xlink:href="#m256849064c" x="59.475313" y="182.381155" style="stroke: #000000; stroke-width: 0.8"/>
      </g>
     </g>
     <g id="text_12">
      <!-- 1.3 -->
      <g transform="translate(28.620625 188.079983) scale(0.15 -0.15)">
       <use xlink:href="#DejaVuSans-31"/>
       <use xlink:href="#DejaVuSans-2e" transform="translate(63.623047 0)"/>
       <use xlink:href="#DejaVuSans-33" transform="translate(95.410156 0)"/>
      </g>
     </g>
    </g>
    <g id="ytick_5">
     <g id="line2d_12">
      <g>
       <use xlink:href="#m256849064c" x="59.475313" y="144.037579" style="stroke: #000000; stroke-width: 0.8"/>
      </g>
     </g>
     <g id="text_13">
      <!-- 1.4 -->
      <g transform="translate(28.620625 149.736407) scale(0.15 -0.15)">
       <defs>
        <path id="DejaVuSans-34" d="M 2419 4116 
L 825 1625 
L 2419 1625 
L 2419 4116 
z
M 2253 4666 
L 3047 4666 
L 3047 1625 
L 3713 1625 
L 3713 1100 
L 3047 1100 
L 3047 0 
L 2419 0 
L 2419 1100 
L 313 1100 
L 313 1709 
L 2253 4666 
z
" transform="scale(0.015625)"/>
       </defs>
       <use xlink:href="#DejaVuSans-31"/>
       <use xlink:href="#DejaVuSans-2e" transform="translate(63.623047 0)"/>
       <use xlink:href="#DejaVuSans-34" transform="translate(95.410156 0)"/>
      </g>
     </g>
    </g>
    <g id="ytick_6">
     <g id="line2d_13">
      <g>
       <use xlink:href="#m256849064c" x="59.475313" y="105.694003" style="stroke: #000000; stroke-width: 0.8"/>
      </g>
     </g>
     <g id="text_14">
      <!-- 1.5 -->
      <g transform="translate(28.620625 111.392831) scale(0.15 -0.15)">
       <use xlink:href="#DejaVuSans-31"/>
       <use xlink:href="#DejaVuSans-2e" transform="translate(63.623047 0)"/>
       <use xlink:href="#DejaVuSans-35" transform="translate(95.410156 0)"/>
      </g>
     </g>
    </g>
    <g id="ytick_7">
     <g id="line2d_14">
      <g>
       <use xlink:href="#m256849064c" x="59.475313" y="67.350427" style="stroke: #000000; stroke-width: 0.8"/>
      </g>
     </g>
     <g id="text_15">
      <!-- 1.6 -->
      <g transform="translate(28.620625 73.049255) scale(0.15 -0.15)">
       <defs>
        <path id="DejaVuSans-36" d="M 2113 2584 
Q 1688 2584 1439 2293 
Q 1191 2003 1191 1497 
Q 1191 994 1439 701 
Q 1688 409 2113 409 
Q 2538 409 2786 701 
Q 3034 994 3034 1497 
Q 3034 2003 2786 2293 
Q 2538 2584 2113 2584 
z
M 3366 4563 
L 3366 3988 
Q 3128 4100 2886 4159 
Q 2644 4219 2406 4219 
Q 1781 4219 1451 3797 
Q 1122 3375 1075 2522 
Q 1259 2794 1537 2939 
Q 1816 3084 2150 3084 
Q 2853 3084 3261 2657 
Q 3669 2231 3669 1497 
Q 3669 778 3244 343 
Q 2819 -91 2113 -91 
Q 1303 -91 875 529 
Q 447 1150 447 2328 
Q 447 3434 972 4092 
Q 1497 4750 2381 4750 
Q 2619 4750 2861 4703 
Q 3103 4656 3366 4563 
z
" transform="scale(0.015625)"/>
       </defs>
       <use xlink:href="#DejaVuSans-31"/>
       <use xlink:href="#DejaVuSans-2e" transform="translate(63.623047 0)"/>
       <use xlink:href="#DejaVuSans-36" transform="translate(95.410156 0)"/>
      </g>
     </g>
    </g>
    <g id="text_16">
     <!-- PT ratio [-] -->
     <g transform="translate(20.877187 236.84625) rotate(-90) scale(0.18 -0.18)">
      <defs>
       <path id="DejaVuSans-Bold-50" d="M 588 4666 
L 2584 4666 
Q 3475 4666 3951 4270 
Q 4428 3875 4428 3144 
Q 4428 2409 3951 2014 
Q 3475 1619 2584 1619 
L 1791 1619 
L 1791 0 
L 588 0 
L 588 4666 
z
M 1791 3794 
L 1791 2491 
L 2456 2491 
Q 2806 2491 2997 2661 
Q 3188 2831 3188 3144 
Q 3188 3456 2997 3625 
Q 2806 3794 2456 3794 
L 1791 3794 
z
" transform="scale(0.015625)"/>
       <path id="DejaVuSans-Bold-54" d="M 31 4666 
L 4331 4666 
L 4331 3756 
L 2784 3756 
L 2784 0 
L 1581 0 
L 1581 3756 
L 31 3756 
L 31 4666 
z
" transform="scale(0.015625)"/>
       <path id="DejaVuSans-Bold-61" d="M 2106 1575 
Q 1756 1575 1579 1456 
Q 1403 1338 1403 1106 
Q 1403 894 1545 773 
Q 1688 653 1941 653 
Q 2256 653 2472 879 
Q 2688 1106 2688 1447 
L 2688 1575 
L 2106 1575 
z
M 3816 1997 
L 3816 0 
L 2688 0 
L 2688 519 
Q 2463 200 2181 54 
Q 1900 -91 1497 -91 
Q 953 -91 614 226 
Q 275 544 275 1050 
Q 275 1666 698 1953 
Q 1122 2241 2028 2241 
L 2688 2241 
L 2688 2328 
Q 2688 2594 2478 2717 
Q 2269 2841 1825 2841 
Q 1466 2841 1156 2769 
Q 847 2697 581 2553 
L 581 3406 
Q 941 3494 1303 3539 
Q 1666 3584 2028 3584 
Q 2975 3584 3395 3211 
Q 3816 2838 3816 1997 
z
" transform="scale(0.015625)"/>
       <path id="DejaVuSans-Bold-6f" d="M 2203 2784 
Q 1831 2784 1636 2517 
Q 1441 2250 1441 1747 
Q 1441 1244 1636 976 
Q 1831 709 2203 709 
Q 2569 709 2762 976 
Q 2956 1244 2956 1747 
Q 2956 2250 2762 2517 
Q 2569 2784 2203 2784 
z
M 2203 3584 
Q 3106 3584 3614 3096 
Q 4122 2609 4122 1747 
Q 4122 884 3614 396 
Q 3106 -91 2203 -91 
Q 1297 -91 786 396 
Q 275 884 275 1747 
Q 275 2609 786 3096 
Q 1297 3584 2203 3584 
z
" transform="scale(0.015625)"/>
       <path id="DejaVuSans-Bold-2d" d="M 347 2297 
L 2309 2297 
L 2309 1388 
L 347 1388 
L 347 2297 
z
" transform="scale(0.015625)"/>
      </defs>
      <use xlink:href="#DejaVuSans-Bold-50"/>
      <use xlink:href="#DejaVuSans-Bold-54" transform="translate(73.291016 0)"/>
      <use xlink:href="#DejaVuSans-Bold-20" transform="translate(141.503906 0)"/>
      <use xlink:href="#DejaVuSans-Bold-72" transform="translate(176.318359 0)"/>
      <use xlink:href="#DejaVuSans-Bold-61" transform="translate(225.634766 0)"/>
      <use xlink:href="#DejaVuSans-Bold-74" transform="translate(293.115234 0)"/>
      <use xlink:href="#DejaVuSans-Bold-69" transform="translate(340.917969 0)"/>
      <use xlink:href="#DejaVuSans-Bold-6f" transform="translate(375.195312 0)"/>
      <use xlink:href="#DejaVuSans-Bold-20" transform="translate(443.896484 0)"/>
      <use xlink:href="#DejaVuSans-Bold-5b" transform="translate(478.710938 0)"/>
      <use xlink:href="#DejaVuSans-Bold-2d" transform="translate(524.414062 0)"/>
      <use xlink:href="#DejaVuSans-Bold-5d" transform="translate(565.917969 0)"/>
     </g>
    </g>
   </g>
   <g id="LineCollection_1">
    <path d="M 76.534384 307.8 
L 76.534384 287.023767 
" clip-path="url(#p842e953273)" style="fill: none; stroke: #a35ac7"/>
    <path d="M 79.35686 306.057942 
L 79.35686 287.032781 
" clip-path="url(#p842e953273)" style="fill: none; stroke: #a35ac7"/>
    <path d="M 82.623762 302.581715 
L 82.623762 259.314235 
" clip-path="url(#p842e953273)" style="fill: none; stroke: #a35ac7"/>
    <path d="M 85.481208 303.440349 
L 85.481208 235.926042 
" clip-path="url(#p842e953273)" style="fill: none; stroke: #a35ac7"/>
    <path d="M 88.318255 304.295602 
L 88.318255 228.138617 
" clip-path="url(#p842e953273)" style="fill: none; stroke: #a35ac7"/>
    <path d="M 90.76916 300.821629 
L 90.76916 209.083032 
" clip-path="url(#p842e953273)" style="fill: none; stroke: #a35ac7"/>
    <path d="M 93.220065 293.880442 
L 93.220065 193.49466 
" clip-path="url(#p842e953273)" style="fill: none; stroke: #a35ac7"/>
    <path d="M 95.2994 244.479703 
L 95.2994 194.370196 
" clip-path="url(#p842e953273)" style="fill: none; stroke: #a35ac7"/>
    <path d="M 98.159761 265.266077 
L 98.159761 144.122091 
" clip-path="url(#p842e953273)" style="fill: none; stroke: #a35ac7"/>
    <path d="M 100.67478 221.065593 
L 100.67478 120.733898 
" clip-path="url(#p842e953273)" style="fill: none; stroke: #a35ac7"/>
    <path d="M 103.573026 181.194336 
L 103.573026 103.414736 
" clip-path="url(#p842e953273)" style="fill: none; stroke: #a35ac7"/>
    <path d="M 105.669847 163.857146 
L 105.669847 60.095423 
" clip-path="url(#p842e953273)" style="fill: none; stroke: #a35ac7"/>
    <path d="M 110.928656 153.439732 
L 110.928656 63.580664 
" clip-path="url(#p842e953273)" style="fill: none; stroke: #a35ac7"/>
    <path d="M 116.172894 162.953439 
L 116.172894 55.8 
" clip-path="url(#p842e953273)" style="fill: none; stroke: #a35ac7"/>
    <path d="M 136.237676 187.142798 
L 136.237676 121.728876 
" clip-path="url(#p842e953273)" style="fill: none; stroke: #a35ac7"/>
    <path d="M 156.659457 240.792761 
L 156.659457 191.124966 
" clip-path="url(#p842e953273)" style="fill: none; stroke: #a35ac7"/>
    <path d="M 198.523014 271.841048 
L 198.523014 244.995784 
" clip-path="url(#p842e953273)" style="fill: none; stroke: #a35ac7"/>
    <path d="M 229.128729 296.858617 
L 229.128729 275.435591 
" clip-path="url(#p842e953273)" style="fill: none; stroke: #a35ac7"/>
    <path d="M 321.135299 306.926718 
L 321.135299 282.69792 
" clip-path="url(#p842e953273)" style="fill: none; stroke: #a35ac7"/>
   </g>
   <g id="LineCollection_2">
    <path d="M 80.204914 287.013626 
L 80.204914 274.918383 
" clip-path="url(#p842e953273)" style="fill: none; stroke: #ddb8ea"/>
    <path d="M 82.763647 260.151459 
L 82.763647 192.619124 
" clip-path="url(#p842e953273)" style="fill: none; stroke: #ddb8ea"/>
    <path d="M 85.267009 236.755379 
L 85.267009 157.107518 
" clip-path="url(#p842e953273)" style="fill: none; stroke: #ddb8ea"/>
    <path d="M 87.688771 228.090164 
L 87.688771 165.790762 
" clip-path="url(#p842e953273)" style="fill: none; stroke: #ddb8ea"/>
    <path d="M 90.531646 209.026691 
L 90.531646 174.47626 
" clip-path="url(#p842e953273)" style="fill: none; stroke: #ddb8ea"/>
    <path d="M 93.775234 193.429304 
L 93.775234 177.962628 
" clip-path="url(#p842e953273)" style="fill: none; stroke: #ddb8ea"/>
    <path d="M 95.381 244.554072 
L 95.381 137.254147 
" clip-path="url(#p842e953273)" style="fill: none; stroke: #ddb8ea"/>
    <path d="M 98.183075 244.554072 
L 98.183075 152.87407 
" clip-path="url(#p842e953273)" style="fill: none; stroke: #ddb8ea"/>
    <path d="M 100.663123 198.628433 
L 100.663123 150.288028 
" clip-path="url(#p842e953273)" style="fill: none; stroke: #ddb8ea"/>
    <path d="M 103.511827 197.761912 
L 103.511827 133.842148 
" clip-path="url(#p842e953273)" style="fill: none; stroke: #ddb8ea"/>
    <path d="M 105.529962 193.429304 
L 105.529962 138.192785 
" clip-path="url(#p842e953273)" style="fill: none; stroke: #ddb8ea"/>
    <path d="M 110.777114 201.227998 
L 110.777114 130.430149 
" clip-path="url(#p842e953273)" style="fill: none; stroke: #ddb8ea"/>
    <path d="M 116.39875 212.492777 
L 116.39875 141.730987 
" clip-path="url(#p842e953273)" style="fill: none; stroke: #ddb8ea"/>
    <path d="M 136.545132 232.422772 
L 136.545132 153.14676 
" clip-path="url(#p842e953273)" style="fill: none; stroke: #ddb8ea"/>
    <path d="M 156.618657 259.284938 
L 156.618657 207.8841 
" clip-path="url(#p842e953273)" style="fill: none; stroke: #ddb8ea"/>
    <path d="M 198.464729 303.477534 
L 198.464729 261.037137 
" clip-path="url(#p842e953273)" style="fill: none; stroke: #ddb8ea"/>
    <path d="M 229.119986 302.611012 
L 229.119986 277.721901 
" clip-path="url(#p842e953273)" style="fill: none; stroke: #ddb8ea"/>
    <path d="M 321.930896 301.744491 
L 321.930896 296.583674 
" clip-path="url(#p842e953273)" style="fill: none; stroke: #ddb8ea"/>
   </g>
   <g id="line2d_15">
    <path d="M 74.914048 297.411883 
L 75.531597 296.771373 
L 76.149146 294.62067 
L 76.766696 291.311942 
L 78.001795 282.533352 
L 82.324641 248.015713 
L 83.559739 239.760861 
L 84.794838 232.576892 
L 86.029937 226.449116 
L 87.265036 221.313692 
L 88.500135 217.083047 
L 89.735233 213.661063 
L 90.970332 210.951859 
L 92.205431 208.864613 
L 93.44053 207.315946 
L 94.675629 206.230861 
L 95.910728 205.542838 
L 97.145826 205.193445 
L 98.380925 205.131724 
L 99.616024 205.31346 
L 100.851123 205.700444 
L 102.703771 206.595019 
L 104.556419 207.786141 
L 107.026617 209.711235 
L 110.114364 212.479427 
L 114.43721 216.720439 
L 128.640846 230.919153 
L 134.198791 236.055794 
L 139.139186 240.34236 
L 144.079581 244.361244 
L 149.019977 248.118255 
L 153.960372 251.62408 
L 159.518316 255.283984 
L 165.076261 258.66181 
L 170.634206 261.777026 
L 176.19215 264.648451 
L 182.367645 267.574717 
L 188.543139 270.245089 
L 194.718633 272.68096 
L 201.511676 275.113155 
L 208.30472 277.30976 
L 215.715313 279.463327 
L 223.125905 281.388937 
L 231.154048 283.245047 
L 239.799739 285.00642 
L 249.06298 286.653265 
L 258.943771 288.171309 
L 269.442111 289.55161 
L 280.558 290.790154 
L 292.908988 291.93973 
L 306.495075 292.975896 
L 321.316261 293.884414 
L 338.607645 294.712441 
L 358.369226 295.423907 
L 381.218554 296.016431 
L 383.688751 296.068824 
L 383.688751 296.068824 
" clip-path="url(#p842e953273)" style="fill: none; stroke: #a35ac7; stroke-width: 2; stroke-linecap: square"/>
   </g>
   <g id="line2d_16">
    <path d="M 76.534384 297.411883 
L 79.35686 296.545362 
L 82.623762 280.947975 
L 85.481208 269.683196 
L 88.318255 266.21711 
L 90.76916 254.95233 
L 93.220065 243.687551 
L 95.2994 219.424949 
L 98.159761 204.694084 
L 100.67478 170.899746 
L 103.573026 142.304536 
L 105.669847 111.976284 
L 110.928656 108.510198 
L 116.172894 109.37672 
L 136.237676 154.435837 
L 156.659457 215.958863 
L 198.523014 258.418416 
L 229.128729 286.147104 
L 321.135299 294.812319 
" clip-path="url(#p842e953273)" style="fill: none; stroke-dasharray: 3.7,1.6; stroke-dashoffset: 0; stroke: #a35ac7"/>
    <defs>
     <path id="m1922fec314" d="M -3 3 
L 3 3 
L 3 -3 
L -3 -3 
z
" style="stroke: #000000; stroke-linejoin: miter"/>
    </defs>
    <g clip-path="url(#p842e953273)">
     <use xlink:href="#m1922fec314" x="76.534384" y="297.411883" style="fill: #a35ac7; stroke: #000000; stroke-linejoin: miter"/>
     <use xlink:href="#m1922fec314" x="79.35686" y="296.545362" style="fill: #a35ac7; stroke: #000000; stroke-linejoin: miter"/>
     <use xlink:href="#m1922fec314" x="82.623762" y="280.947975" style="fill: #a35ac7; stroke: #000000; stroke-linejoin: miter"/>
     <use xlink:href="#m1922fec314" x="85.481208" y="269.683196" style="fill: #a35ac7; stroke: #000000; stroke-linejoin: miter"/>
     <use xlink:href="#m1922fec314" x="88.318255" y="266.21711" style="fill: #a35ac7; stroke: #000000; stroke-linejoin: miter"/>
     <use xlink:href="#m1922fec314" x="90.76916" y="254.95233" style="fill: #a35ac7; stroke: #000000; stroke-linejoin: miter"/>
     <use xlink:href="#m1922fec314" x="93.220065" y="243.687551" style="fill: #a35ac7; stroke: #000000; stroke-linejoin: miter"/>
     <use xlink:href="#m1922fec314" x="95.2994" y="219.424949" style="fill: #a35ac7; stroke: #000000; stroke-linejoin: miter"/>
     <use xlink:href="#m1922fec314" x="98.159761" y="204.694084" style="fill: #a35ac7; stroke: #000000; stroke-linejoin: miter"/>
     <use xlink:href="#m1922fec314" x="100.67478" y="170.899746" style="fill: #a35ac7; stroke: #000000; stroke-linejoin: miter"/>
     <use xlink:href="#m1922fec314" x="103.573026" y="142.304536" style="fill: #a35ac7; stroke: #000000; stroke-linejoin: miter"/>
     <use xlink:href="#m1922fec314" x="105.669847" y="111.976284" style="fill: #a35ac7; stroke: #000000; stroke-linejoin: miter"/>
     <use xlink:href="#m1922fec314" x="110.928656" y="108.510198" style="fill: #a35ac7; stroke: #000000; stroke-linejoin: miter"/>
     <use xlink:href="#m1922fec314" x="116.172894" y="109.37672" style="fill: #a35ac7; stroke: #000000; stroke-linejoin: miter"/>
     <use xlink:href="#m1922fec314" x="136.237676" y="154.435837" style="fill: #a35ac7; stroke: #000000; stroke-linejoin: miter"/>
     <use xlink:href="#m1922fec314" x="156.659457" y="215.958863" style="fill: #a35ac7; stroke: #000000; stroke-linejoin: miter"/>
     <use xlink:href="#m1922fec314" x="198.523014" y="258.418416" style="fill: #a35ac7; stroke: #000000; stroke-linejoin: miter"/>
     <use xlink:href="#m1922fec314" x="229.128729" y="286.147104" style="fill: #a35ac7; stroke: #000000; stroke-linejoin: miter"/>
     <use xlink:href="#m1922fec314" x="321.135299" y="294.812319" style="fill: #a35ac7; stroke: #000000; stroke-linejoin: miter"/>
    </g>
   </g>
   <g id="line2d_17">
    <path d="M 74.914048 297.411883 
L 75.531597 296.886621 
L 76.149146 295.122244 
L 76.766696 292.405897 
L 78.001795 285.187457 
L 82.94219 253.100276 
L 84.177289 246.670867 
L 85.412388 241.123246 
L 86.647486 236.42595 
L 87.882585 232.517411 
L 89.117684 229.322422 
L 90.352783 226.761976 
L 91.587882 224.758928 
L 92.82298 223.241048 
L 94.058079 222.142477 
L 95.293178 221.404225 
L 96.528277 220.974104 
L 97.763376 220.806349 
L 98.998475 220.861092 
L 100.233573 221.103768 
L 102.086222 221.756 
L 103.93887 222.681054 
L 106.409067 224.225632 
L 109.496814 226.492688 
L 113.81966 230.01177 
L 129.258396 242.894016 
L 134.81634 247.147453 
L 140.374285 251.116461 
L 145.932229 254.799821 
L 151.490174 258.207517 
L 157.048119 261.354415 
L 162.606063 264.257148 
L 168.781558 267.216573 
L 174.957052 269.917883 
L 181.132546 272.382336 
L 187.925589 274.843304 
L 194.718633 277.066047 
L 202.129226 279.245352 
L 209.539818 281.194057 
L 217.567961 283.072499 
L 226.213652 284.855124 
L 235.476894 286.521891 
L 245.357684 288.058344 
L 255.856024 289.455419 
L 266.971913 290.709045 
L 279.322901 291.872645 
L 292.908988 292.921471 
L 307.730174 293.841107 
L 324.404008 294.653038 
L 343.54804 295.360616 
L 366.397368 295.971984 
L 383.688751 296.310379 
L 383.688751 296.310379 
" clip-path="url(#p842e953273)" style="fill: none; stroke: #ddb8ea; stroke-width: 2; stroke-linecap: square"/>
   </g>
   <g id="line2d_18">
    <path d="M 80.204914 280.966004 
L 82.763647 226.385291 
L 85.267009 196.931448 
L 87.688771 196.940463 
L 90.531646 191.751475 
L 93.775234 185.695966 
L 95.381 190.90411 
L 98.183075 198.714071 
L 100.663123 174.45823 
L 103.511827 165.80203 
L 105.529962 165.811045 
L 110.777114 165.829074 
L 116.39875 177.111882 
L 136.545132 192.784766 
L 156.618657 233.584519 
L 198.464729 282.257335 
L 229.119986 290.166457 
L 321.930896 299.164082 
" clip-path="url(#p842e953273)" style="fill: none; stroke-dasharray: 3.7,1.6; stroke-dashoffset: 0; stroke: #ddb8ea"/>
    <defs>
     <path id="md2483bd4f1" d="M -3 3 
L 3 3 
L 3 -3 
L -3 -3 
z
" style="stroke: #000000; stroke-linejoin: miter"/>
    </defs>
    <g clip-path="url(#p842e953273)">
     <use xlink:href="#md2483bd4f1" x="80.204914" y="280.966004" style="fill: #ddb8ea; stroke: #000000; stroke-linejoin: miter"/>
     <use xlink:href="#md2483bd4f1" x="82.763647" y="226.385291" style="fill: #ddb8ea; stroke: #000000; stroke-linejoin: miter"/>
     <use xlink:href="#md2483bd4f1" x="85.267009" y="196.931448" style="fill: #ddb8ea; stroke: #000000; stroke-linejoin: miter"/>
     <use xlink:href="#md2483bd4f1" x="87.688771" y="196.940463" style="fill: #ddb8ea; stroke: #000000; stroke-linejoin: miter"/>
     <use xlink:href="#md2483bd4f1" x="90.531646" y="191.751475" style="fill: #ddb8ea; stroke: #000000; stroke-linejoin: miter"/>
     <use xlink:href="#md2483bd4f1" x="93.775234" y="185.695966" style="fill: #ddb8ea; stroke: #000000; stroke-linejoin: miter"/>
     <use xlink:href="#md2483bd4f1" x="95.381" y="190.90411" style="fill: #ddb8ea; stroke: #000000; stroke-linejoin: miter"/>
     <use xlink:href="#md2483bd4f1" x="98.183075" y="198.714071" style="fill: #ddb8ea; stroke: #000000; stroke-linejoin: miter"/>
     <use xlink:href="#md2483bd4f1" x="100.663123" y="174.45823" style="fill: #ddb8ea; stroke: #000000; stroke-linejoin: miter"/>
     <use xlink:href="#md2483bd4f1" x="103.511827" y="165.80203" style="fill: #ddb8ea; stroke: #000000; stroke-linejoin: miter"/>
     <use xlink:href="#md2483bd4f1" x="105.529962" y="165.811045" style="fill: #ddb8ea; stroke: #000000; stroke-linejoin: miter"/>
     <use xlink:href="#md2483bd4f1" x="110.777114" y="165.829074" style="fill: #ddb8ea; stroke: #000000; stroke-linejoin: miter"/>
     <use xlink:href="#md2483bd4f1" x="116.39875" y="177.111882" style="fill: #ddb8ea; stroke: #000000; stroke-linejoin: miter"/>
     <use xlink:href="#md2483bd4f1" x="136.545132" y="192.784766" style="fill: #ddb8ea; stroke: #000000; stroke-linejoin: miter"/>
     <use xlink:href="#md2483bd4f1" x="156.618657" y="233.584519" style="fill: #ddb8ea; stroke: #000000; stroke-linejoin: miter"/>
     <use xlink:href="#md2483bd4f1" x="198.464729" y="282.257335" style="fill: #ddb8ea; stroke: #000000; stroke-linejoin: miter"/>
     <use xlink:href="#md2483bd4f1" x="229.119986" y="290.166457" style="fill: #ddb8ea; stroke: #000000; stroke-linejoin: miter"/>
     <use xlink:href="#md2483bd4f1" x="321.930896" y="299.164082" style="fill: #ddb8ea; stroke: #000000; stroke-linejoin: miter"/>
    </g>
   </g>
   <g id="patch_3">
    <path d="M 59.475313 320.4 
L 59.475313 43.2 
" style="fill: none; stroke: #000000; stroke-width: 0.8; stroke-linejoin: miter; stroke-linecap: square"/>
   </g>
   <g id="patch_4">
    <path d="M 399.127486 320.4 
L 399.127486 43.2 
" style="fill: none; stroke: #000000; stroke-width: 0.8; stroke-linejoin: miter; stroke-linecap: square"/>
   </g>
   <g id="patch_5">
    <path d="M 59.475313 320.4 
L 399.127486 320.4 
" style="fill: none; stroke: #000000; stroke-width: 0.8; stroke-linejoin: miter; stroke-linecap: square"/>
   </g>
   <g id="patch_6">
    <path d="M 59.475313 43.2 
L 399.127486 43.2 
" style="fill: none; stroke: #000000; stroke-width: 0.8; stroke-linejoin: miter; stroke-linecap: square"/>
   </g>
   <g id="legend_1">
    <g id="patch_7">
     <path d="M 165.880611 109.9125 
L 392.127486 109.9125 
Q 394.127486 109.9125 394.127486 107.9125 
L 394.127486 50.2 
Q 394.127486 48.2 392.127486 48.2 
L 165.880611 48.2 
Q 163.880611 48.2 163.880611 50.2 
L 163.880611 107.9125 
Q 163.880611 109.9125 165.880611 109.9125 
z
" style="fill: #ffffff; opacity: 0.8; stroke: #cccccc; stroke-linejoin: miter"/>
    </g>
    <g id="line2d_19">
     <path d="M 167.880611 56.298437 
L 187.880611 56.298437 
" style="fill: none; stroke: #a35ac7; stroke-width: 2; stroke-linecap: square"/>
    </g>
    <g id="line2d_20"/>
    <g id="text_17">
     <!-- Rivaroxaban 10 mg (fed) -->
     <g transform="translate(195.880611 59.798437) scale(0.1 -0.1)">
      <defs>
       <path id="DejaVuSans-52" d="M 2841 2188 
Q 3044 2119 3236 1894 
Q 3428 1669 3622 1275 
L 4263 0 
L 3584 0 
L 2988 1197 
Q 2756 1666 2539 1819 
Q 2322 1972 1947 1972 
L 1259 1972 
L 1259 0 
L 628 0 
L 628 4666 
L 2053 4666 
Q 2853 4666 3247 4331 
Q 3641 3997 3641 3322 
Q 3641 2881 3436 2590 
Q 3231 2300 2841 2188 
z
M 1259 4147 
L 1259 2491 
L 2053 2491 
Q 2509 2491 2742 2702 
Q 2975 2913 2975 3322 
Q 2975 3731 2742 3939 
Q 2509 4147 2053 4147 
L 1259 4147 
z
" transform="scale(0.015625)"/>
       <path id="DejaVuSans-69" d="M 603 3500 
L 1178 3500 
L 1178 0 
L 603 0 
L 603 3500 
z
M 603 4863 
L 1178 4863 
L 1178 4134 
L 603 4134 
L 603 4863 
z
" transform="scale(0.015625)"/>
       <path id="DejaVuSans-76" d="M 191 3500 
L 800 3500 
L 1894 563 
L 2988 3500 
L 3597 3500 
L 2284 0 
L 1503 0 
L 191 3500 
z
" transform="scale(0.015625)"/>
       <path id="DejaVuSans-61" d="M 2194 1759 
Q 1497 1759 1228 1600 
Q 959 1441 959 1056 
Q 959 750 1161 570 
Q 1363 391 1709 391 
Q 2188 391 2477 730 
Q 2766 1069 2766 1631 
L 2766 1759 
L 2194 1759 
z
M 3341 1997 
L 3341 0 
L 2766 0 
L 2766 531 
Q 2569 213 2275 61 
Q 1981 -91 1556 -91 
Q 1019 -91 701 211 
Q 384 513 384 1019 
Q 384 1609 779 1909 
Q 1175 2209 1959 2209 
L 2766 2209 
L 2766 2266 
Q 2766 2663 2505 2880 
Q 2244 3097 1772 3097 
Q 1472 3097 1187 3025 
Q 903 2953 641 2809 
L 641 3341 
Q 956 3463 1253 3523 
Q 1550 3584 1831 3584 
Q 2591 3584 2966 3190 
Q 3341 2797 3341 1997 
z
" transform="scale(0.015625)"/>
       <path id="DejaVuSans-72" d="M 2631 2963 
Q 2534 3019 2420 3045 
Q 2306 3072 2169 3072 
Q 1681 3072 1420 2755 
Q 1159 2438 1159 1844 
L 1159 0 
L 581 0 
L 581 3500 
L 1159 3500 
L 1159 2956 
Q 1341 3275 1631 3429 
Q 1922 3584 2338 3584 
Q 2397 3584 2469 3576 
Q 2541 3569 2628 3553 
L 2631 2963 
z
" transform="scale(0.015625)"/>
       <path id="DejaVuSans-6f" d="M 1959 3097 
Q 1497 3097 1228 2736 
Q 959 2375 959 1747 
Q 959 1119 1226 758 
Q 1494 397 1959 397 
Q 2419 397 2687 759 
Q 2956 1122 2956 1747 
Q 2956 2369 2687 2733 
Q 2419 3097 1959 3097 
z
M 1959 3584 
Q 2709 3584 3137 3096 
Q 3566 2609 3566 1747 
Q 3566 888 3137 398 
Q 2709 -91 1959 -91 
Q 1206 -91 779 398 
Q 353 888 353 1747 
Q 353 2609 779 3096 
Q 1206 3584 1959 3584 
z
" transform="scale(0.015625)"/>
       <path id="DejaVuSans-78" d="M 3513 3500 
L 2247 1797 
L 3578 0 
L 2900 0 
L 1881 1375 
L 863 0 
L 184 0 
L 1544 1831 
L 300 3500 
L 978 3500 
L 1906 2253 
L 2834 3500 
L 3513 3500 
z
" transform="scale(0.015625)"/>
       <path id="DejaVuSans-62" d="M 3116 1747 
Q 3116 2381 2855 2742 
Q 2594 3103 2138 3103 
Q 1681 3103 1420 2742 
Q 1159 2381 1159 1747 
Q 1159 1113 1420 752 
Q 1681 391 2138 391 
Q 2594 391 2855 752 
Q 3116 1113 3116 1747 
z
M 1159 2969 
Q 1341 3281 1617 3432 
Q 1894 3584 2278 3584 
Q 2916 3584 3314 3078 
Q 3713 2572 3713 1747 
Q 3713 922 3314 415 
Q 2916 -91 2278 -91 
Q 1894 -91 1617 61 
Q 1341 213 1159 525 
L 1159 0 
L 581 0 
L 581 4863 
L 1159 4863 
L 1159 2969 
z
" transform="scale(0.015625)"/>
       <path id="DejaVuSans-6e" d="M 3513 2113 
L 3513 0 
L 2938 0 
L 2938 2094 
Q 2938 2591 2744 2837 
Q 2550 3084 2163 3084 
Q 1697 3084 1428 2787 
Q 1159 2491 1159 1978 
L 1159 0 
L 581 0 
L 581 3500 
L 1159 3500 
L 1159 2956 
Q 1366 3272 1645 3428 
Q 1925 3584 2291 3584 
Q 2894 3584 3203 3211 
Q 3513 2838 3513 2113 
z
" transform="scale(0.015625)"/>
       <path id="DejaVuSans-20" transform="scale(0.015625)"/>
       <path id="DejaVuSans-6d" d="M 3328 2828 
Q 3544 3216 3844 3400 
Q 4144 3584 4550 3584 
Q 5097 3584 5394 3201 
Q 5691 2819 5691 2113 
L 5691 0 
L 5113 0 
L 5113 2094 
Q 5113 2597 4934 2840 
Q 4756 3084 4391 3084 
Q 3944 3084 3684 2787 
Q 3425 2491 3425 1978 
L 3425 0 
L 2847 0 
L 2847 2094 
Q 2847 2600 2669 2842 
Q 2491 3084 2119 3084 
Q 1678 3084 1418 2786 
Q 1159 2488 1159 1978 
L 1159 0 
L 581 0 
L 581 3500 
L 1159 3500 
L 1159 2956 
Q 1356 3278 1631 3431 
Q 1906 3584 2284 3584 
Q 2666 3584 2933 3390 
Q 3200 3197 3328 2828 
z
" transform="scale(0.015625)"/>
       <path id="DejaVuSans-67" d="M 2906 1791 
Q 2906 2416 2648 2759 
Q 2391 3103 1925 3103 
Q 1463 3103 1205 2759 
Q 947 2416 947 1791 
Q 947 1169 1205 825 
Q 1463 481 1925 481 
Q 2391 481 2648 825 
Q 2906 1169 2906 1791 
z
M 3481 434 
Q 3481 -459 3084 -895 
Q 2688 -1331 1869 -1331 
Q 1566 -1331 1297 -1286 
Q 1028 -1241 775 -1147 
L 775 -588 
Q 1028 -725 1275 -790 
Q 1522 -856 1778 -856 
Q 2344 -856 2625 -561 
Q 2906 -266 2906 331 
L 2906 616 
Q 2728 306 2450 153 
Q 2172 0 1784 0 
Q 1141 0 747 490 
Q 353 981 353 1791 
Q 353 2603 747 3093 
Q 1141 3584 1784 3584 
Q 2172 3584 2450 3431 
Q 2728 3278 2906 2969 
L 2906 3500 
L 3481 3500 
L 3481 434 
z
" transform="scale(0.015625)"/>
       <path id="DejaVuSans-28" d="M 1984 4856 
Q 1566 4138 1362 3434 
Q 1159 2731 1159 2009 
Q 1159 1288 1364 580 
Q 1569 -128 1984 -844 
L 1484 -844 
Q 1016 -109 783 600 
Q 550 1309 550 2009 
Q 550 2706 781 3412 
Q 1013 4119 1484 4856 
L 1984 4856 
z
" transform="scale(0.015625)"/>
       <path id="DejaVuSans-66" d="M 2375 4863 
L 2375 4384 
L 1825 4384 
Q 1516 4384 1395 4259 
Q 1275 4134 1275 3809 
L 1275 3500 
L 2222 3500 
L 2222 3053 
L 1275 3053 
L 1275 0 
L 697 0 
L 697 3053 
L 147 3053 
L 147 3500 
L 697 3500 
L 697 3744 
Q 697 4328 969 4595 
Q 1241 4863 1831 4863 
L 2375 4863 
z
" transform="scale(0.015625)"/>
       <path id="DejaVuSans-65" d="M 3597 1894 
L 3597 1613 
L 953 1613 
Q 991 1019 1311 708 
Q 1631 397 2203 397 
Q 2534 397 2845 478 
Q 3156 559 3463 722 
L 3463 178 
Q 3153 47 2828 -22 
Q 2503 -91 2169 -91 
Q 1331 -91 842 396 
Q 353 884 353 1716 
Q 353 2575 817 3079 
Q 1281 3584 2069 3584 
Q 2775 3584 3186 3129 
Q 3597 2675 3597 1894 
z
M 3022 2063 
Q 3016 2534 2758 2815 
Q 2500 3097 2075 3097 
Q 1594 3097 1305 2825 
Q 1016 2553 972 2059 
L 3022 2063 
z
" transform="scale(0.015625)"/>
       <path id="DejaVuSans-64" d="M 2906 2969 
L 2906 4863 
L 3481 4863 
L 3481 0 
L 2906 0 
L 2906 525 
Q 2725 213 2448 61 
Q 2172 -91 1784 -91 
Q 1150 -91 751 415 
Q 353 922 353 1747 
Q 353 2572 751 3078 
Q 1150 3584 1784 3584 
Q 2172 3584 2448 3432 
Q 2725 3281 2906 2969 
z
M 947 1747 
Q 947 1113 1208 752 
Q 1469 391 1925 391 
Q 2381 391 2643 752 
Q 2906 1113 2906 1747 
Q 2906 2381 2643 2742 
Q 2381 3103 1925 3103 
Q 1469 3103 1208 2742 
Q 947 2381 947 1747 
z
" transform="scale(0.015625)"/>
       <path id="DejaVuSans-29" d="M 513 4856 
L 1013 4856 
Q 1481 4119 1714 3412 
Q 1947 2706 1947 2009 
Q 1947 1309 1714 600 
Q 1481 -109 1013 -844 
L 513 -844 
Q 928 -128 1133 580 
Q 1338 1288 1338 2009 
Q 1338 2731 1133 3434 
Q 928 4138 513 4856 
z
" transform="scale(0.015625)"/>
      </defs>
      <use xlink:href="#DejaVuSans-52"/>
      <use xlink:href="#DejaVuSans-69" transform="translate(69.482422 0)"/>
      <use xlink:href="#DejaVuSans-76" transform="translate(97.265625 0)"/>
      <use xlink:href="#DejaVuSans-61" transform="translate(156.445312 0)"/>
      <use xlink:href="#DejaVuSans-72" transform="translate(217.724609 0)"/>
      <use xlink:href="#DejaVuSans-6f" transform="translate(256.587891 0)"/>
      <use xlink:href="#DejaVuSans-78" transform="translate(314.644531 0)"/>
      <use xlink:href="#DejaVuSans-61" transform="translate(373.824219 0)"/>
      <use xlink:href="#DejaVuSans-62" transform="translate(435.103516 0)"/>
      <use xlink:href="#DejaVuSans-61" transform="translate(498.580078 0)"/>
      <use xlink:href="#DejaVuSans-6e" transform="translate(559.859375 0)"/>
      <use xlink:href="#DejaVuSans-20" transform="translate(623.238281 0)"/>
      <use xlink:href="#DejaVuSans-31" transform="translate(655.025391 0)"/>
      <use xlink:href="#DejaVuSans-30" transform="translate(718.648438 0)"/>
      <use xlink:href="#DejaVuSans-20" transform="translate(782.271484 0)"/>
      <use xlink:href="#DejaVuSans-6d" transform="translate(814.058594 0)"/>
      <use xlink:href="#DejaVuSans-67" transform="translate(911.470703 0)"/>
      <use xlink:href="#DejaVuSans-20" transform="translate(974.947266 0)"/>
      <use xlink:href="#DejaVuSans-28" transform="translate(1006.734375 0)"/>
      <use xlink:href="#DejaVuSans-66" transform="translate(1045.748047 0)"/>
      <use xlink:href="#DejaVuSans-65" transform="translate(1080.953125 0)"/>
      <use xlink:href="#DejaVuSans-64" transform="translate(1142.476562 0)"/>
      <use xlink:href="#DejaVuSans-29" transform="translate(1205.953125 0)"/>
     </g>
    </g>
    <g id="LineCollection_3">
     <path d="M 177.880611 75.976562 
L 177.880611 65.976562 
" style="fill: none; stroke: #a35ac7"/>
    </g>
    <g id="line2d_21">
     <path d="M 167.880611 70.976562 
L 187.880611 70.976562 
" style="fill: none; stroke-dasharray: 3.7,1.6; stroke-dashoffset: 0; stroke: #a35ac7"/>
    </g>
    <g id="line2d_22">
     <g>
      <use xlink:href="#m1922fec314" x="177.880611" y="70.976562" style="fill: #a35ac7; stroke: #000000; stroke-linejoin: miter"/>
     </g>
    </g>
    <g id="text_18">
     <!-- Rivaroxaban 10 mg (fed)±SD (n=8) -->
     <g transform="translate(195.880611 74.476562) scale(0.1 -0.1)">
      <defs>
       <path id="DejaVuSans-b1" d="M 2944 4013 
L 2944 2803 
L 4684 2803 
L 4684 2272 
L 2944 2272 
L 2944 1063 
L 2419 1063 
L 2419 2272 
L 678 2272 
L 678 2803 
L 2419 2803 
L 2419 4013 
L 2944 4013 
z
M 678 531 
L 4684 531 
L 4684 0 
L 678 0 
L 678 531 
z
" transform="scale(0.015625)"/>
       <path id="DejaVuSans-53" d="M 3425 4513 
L 3425 3897 
Q 3066 4069 2747 4153 
Q 2428 4238 2131 4238 
Q 1616 4238 1336 4038 
Q 1056 3838 1056 3469 
Q 1056 3159 1242 3001 
Q 1428 2844 1947 2747 
L 2328 2669 
Q 3034 2534 3370 2195 
Q 3706 1856 3706 1288 
Q 3706 609 3251 259 
Q 2797 -91 1919 -91 
Q 1588 -91 1214 -16 
Q 841 59 441 206 
L 441 856 
Q 825 641 1194 531 
Q 1563 422 1919 422 
Q 2459 422 2753 634 
Q 3047 847 3047 1241 
Q 3047 1584 2836 1778 
Q 2625 1972 2144 2069 
L 1759 2144 
Q 1053 2284 737 2584 
Q 422 2884 422 3419 
Q 422 4038 858 4394 
Q 1294 4750 2059 4750 
Q 2388 4750 2728 4690 
Q 3069 4631 3425 4513 
z
" transform="scale(0.015625)"/>
       <path id="DejaVuSans-44" d="M 1259 4147 
L 1259 519 
L 2022 519 
Q 2988 519 3436 956 
Q 3884 1394 3884 2338 
Q 3884 3275 3436 3711 
Q 2988 4147 2022 4147 
L 1259 4147 
z
M 628 4666 
L 1925 4666 
Q 3281 4666 3915 4102 
Q 4550 3538 4550 2338 
Q 4550 1131 3912 565 
Q 3275 0 1925 0 
L 628 0 
L 628 4666 
z
" transform="scale(0.015625)"/>
       <path id="DejaVuSans-3d" d="M 678 2906 
L 4684 2906 
L 4684 2381 
L 678 2381 
L 678 2906 
z
M 678 1631 
L 4684 1631 
L 4684 1100 
L 678 1100 
L 678 1631 
z
" transform="scale(0.015625)"/>
       <path id="DejaVuSans-38" d="M 2034 2216 
Q 1584 2216 1326 1975 
Q 1069 1734 1069 1313 
Q 1069 891 1326 650 
Q 1584 409 2034 409 
Q 2484 409 2743 651 
Q 3003 894 3003 1313 
Q 3003 1734 2745 1975 
Q 2488 2216 2034 2216 
z
M 1403 2484 
Q 997 2584 770 2862 
Q 544 3141 544 3541 
Q 544 4100 942 4425 
Q 1341 4750 2034 4750 
Q 2731 4750 3128 4425 
Q 3525 4100 3525 3541 
Q 3525 3141 3298 2862 
Q 3072 2584 2669 2484 
Q 3125 2378 3379 2068 
Q 3634 1759 3634 1313 
Q 3634 634 3220 271 
Q 2806 -91 2034 -91 
Q 1263 -91 848 271 
Q 434 634 434 1313 
Q 434 1759 690 2068 
Q 947 2378 1403 2484 
z
M 1172 3481 
Q 1172 3119 1398 2916 
Q 1625 2713 2034 2713 
Q 2441 2713 2670 2916 
Q 2900 3119 2900 3481 
Q 2900 3844 2670 4047 
Q 2441 4250 2034 4250 
Q 1625 4250 1398 4047 
Q 1172 3844 1172 3481 
z
" transform="scale(0.015625)"/>
      </defs>
      <use xlink:href="#DejaVuSans-52"/>
      <use xlink:href="#DejaVuSans-69" transform="translate(69.482422 0)"/>
      <use xlink:href="#DejaVuSans-76" transform="translate(97.265625 0)"/>
      <use xlink:href="#DejaVuSans-61" transform="translate(156.445312 0)"/>
      <use xlink:href="#DejaVuSans-72" transform="translate(217.724609 0)"/>
      <use xlink:href="#DejaVuSans-6f" transform="translate(256.587891 0)"/>
      <use xlink:href="#DejaVuSans-78" transform="translate(314.644531 0)"/>
      <use xlink:href="#DejaVuSans-61" transform="translate(373.824219 0)"/>
      <use xlink:href="#DejaVuSans-62" transform="translate(435.103516 0)"/>
      <use xlink:href="#DejaVuSans-61" transform="translate(498.580078 0)"/>
      <use xlink:href="#DejaVuSans-6e" transform="translate(559.859375 0)"/>
      <use xlink:href="#DejaVuSans-20" transform="translate(623.238281 0)"/>
      <use xlink:href="#DejaVuSans-31" transform="translate(655.025391 0)"/>
      <use xlink:href="#DejaVuSans-30" transform="translate(718.648438 0)"/>
      <use xlink:href="#DejaVuSans-20" transform="translate(782.271484 0)"/>
      <use xlink:href="#DejaVuSans-6d" transform="translate(814.058594 0)"/>
      <use xlink:href="#DejaVuSans-67" transform="translate(911.470703 0)"/>
      <use xlink:href="#DejaVuSans-20" transform="translate(974.947266 0)"/>
      <use xlink:href="#DejaVuSans-28" transform="translate(1006.734375 0)"/>
      <use xlink:href="#DejaVuSans-66" transform="translate(1045.748047 0)"/>
      <use xlink:href="#DejaVuSans-65" transform="translate(1080.953125 0)"/>
      <use xlink:href="#DejaVuSans-64" transform="translate(1142.476562 0)"/>
      <use xlink:href="#DejaVuSans-29" transform="translate(1205.953125 0)"/>
      <use xlink:href="#DejaVuSans-b1" transform="translate(1244.966797 0)"/>
      <use xlink:href="#DejaVuSans-53" transform="translate(1328.755859 0)"/>
      <use xlink:href="#DejaVuSans-44" transform="translate(1392.232422 0)"/>
      <use xlink:href="#DejaVuSans-20" transform="translate(1469.234375 0)"/>
      <use xlink:href="#DejaVuSans-28" transform="translate(1501.021484 0)"/>
      <use xlink:href="#DejaVuSans-6e" transform="translate(1540.035156 0)"/>
      <use xlink:href="#DejaVuSans-3d" transform="translate(1603.414062 0)"/>
      <use xlink:href="#DejaVuSans-38" transform="translate(1687.203125 0)"/>
      <use xlink:href="#DejaVuSans-29" transform="translate(1750.826172 0)"/>
     </g>
    </g>
    <g id="line2d_23">
     <path d="M 167.880611 85.654687 
L 187.880611 85.654687 
" style="fill: none; stroke: #ddb8ea; stroke-width: 2; stroke-linecap: square"/>
    </g>
    <g id="line2d_24"/>
    <g id="text_19">
     <!-- Rivaroxaban 10 mg (fasted) -->
     <g transform="translate(195.880611 89.154687) scale(0.1 -0.1)">
      <defs>
       <path id="DejaVuSans-73" d="M 2834 3397 
L 2834 2853 
Q 2591 2978 2328 3040 
Q 2066 3103 1784 3103 
Q 1356 3103 1142 2972 
Q 928 2841 928 2578 
Q 928 2378 1081 2264 
Q 1234 2150 1697 2047 
L 1894 2003 
Q 2506 1872 2764 1633 
Q 3022 1394 3022 966 
Q 3022 478 2636 193 
Q 2250 -91 1575 -91 
Q 1294 -91 989 -36 
Q 684 19 347 128 
L 347 722 
Q 666 556 975 473 
Q 1284 391 1588 391 
Q 1994 391 2212 530 
Q 2431 669 2431 922 
Q 2431 1156 2273 1281 
Q 2116 1406 1581 1522 
L 1381 1569 
Q 847 1681 609 1914 
Q 372 2147 372 2553 
Q 372 3047 722 3315 
Q 1072 3584 1716 3584 
Q 2034 3584 2315 3537 
Q 2597 3491 2834 3397 
z
" transform="scale(0.015625)"/>
       <path id="DejaVuSans-74" d="M 1172 4494 
L 1172 3500 
L 2356 3500 
L 2356 3053 
L 1172 3053 
L 1172 1153 
Q 1172 725 1289 603 
Q 1406 481 1766 481 
L 2356 481 
L 2356 0 
L 1766 0 
Q 1100 0 847 248 
Q 594 497 594 1153 
L 594 3053 
L 172 3053 
L 172 3500 
L 594 3500 
L 594 4494 
L 1172 4494 
z
" transform="scale(0.015625)"/>
      </defs>
      <use xlink:href="#DejaVuSans-52"/>
      <use xlink:href="#DejaVuSans-69" transform="translate(69.482422 0)"/>
      <use xlink:href="#DejaVuSans-76" transform="translate(97.265625 0)"/>
      <use xlink:href="#DejaVuSans-61" transform="translate(156.445312 0)"/>
      <use xlink:href="#DejaVuSans-72" transform="translate(217.724609 0)"/>
      <use xlink:href="#DejaVuSans-6f" transform="translate(256.587891 0)"/>
      <use xlink:href="#DejaVuSans-78" transform="translate(314.644531 0)"/>
      <use xlink:href="#DejaVuSans-61" transform="translate(373.824219 0)"/>
      <use xlink:href="#DejaVuSans-62" transform="translate(435.103516 0)"/>
      <use xlink:href="#DejaVuSans-61" transform="translate(498.580078 0)"/>
      <use xlink:href="#DejaVuSans-6e" transform="translate(559.859375 0)"/>
      <use xlink:href="#DejaVuSans-20" transform="translate(623.238281 0)"/>
      <use xlink:href="#DejaVuSans-31" transform="translate(655.025391 0)"/>
      <use xlink:href="#DejaVuSans-30" transform="translate(718.648438 0)"/>
      <use xlink:href="#DejaVuSans-20" transform="translate(782.271484 0)"/>
      <use xlink:href="#DejaVuSans-6d" transform="translate(814.058594 0)"/>
      <use xlink:href="#DejaVuSans-67" transform="translate(911.470703 0)"/>
      <use xlink:href="#DejaVuSans-20" transform="translate(974.947266 0)"/>
      <use xlink:href="#DejaVuSans-28" transform="translate(1006.734375 0)"/>
      <use xlink:href="#DejaVuSans-66" transform="translate(1045.748047 0)"/>
      <use xlink:href="#DejaVuSans-61" transform="translate(1080.953125 0)"/>
      <use xlink:href="#DejaVuSans-73" transform="translate(1142.232422 0)"/>
      <use xlink:href="#DejaVuSans-74" transform="translate(1194.332031 0)"/>
      <use xlink:href="#DejaVuSans-65" transform="translate(1233.541016 0)"/>
      <use xlink:href="#DejaVuSans-64" transform="translate(1295.064453 0)"/>
      <use xlink:href="#DejaVuSans-29" transform="translate(1358.541016 0)"/>
     </g>
    </g>
    <g id="LineCollection_4">
     <path d="M 177.880611 105.332812 
L 177.880611 95.332812 
" style="fill: none; stroke: #ddb8ea"/>
    </g>
    <g id="line2d_25">
     <path d="M 167.880611 100.332812 
L 187.880611 100.332812 
" style="fill: none; stroke-dasharray: 3.7,1.6; stroke-dashoffset: 0; stroke: #ddb8ea"/>
    </g>
    <g id="line2d_26">
     <g>
      <use xlink:href="#md2483bd4f1" x="177.880611" y="100.332812" style="fill: #ddb8ea; stroke: #000000; stroke-linejoin: miter"/>
     </g>
    </g>
    <g id="text_20">
     <!-- Rivaroxaban 10 mg (fasted)±SD (n=8) -->
     <g transform="translate(195.880611 103.832812) scale(0.1 -0.1)">
      <use xlink:href="#DejaVuSans-52"/>
      <use xlink:href="#DejaVuSans-69" transform="translate(69.482422 0)"/>
      <use xlink:href="#DejaVuSans-76" transform="translate(97.265625 0)"/>
      <use xlink:href="#DejaVuSans-61" transform="translate(156.445312 0)"/>
      <use xlink:href="#DejaVuSans-72" transform="translate(217.724609 0)"/>
      <use xlink:href="#DejaVuSans-6f" transform="translate(256.587891 0)"/>
      <use xlink:href="#DejaVuSans-78" transform="translate(314.644531 0)"/>
      <use xlink:href="#DejaVuSans-61" transform="translate(373.824219 0)"/>
      <use xlink:href="#DejaVuSans-62" transform="translate(435.103516 0)"/>
      <use xlink:href="#DejaVuSans-61" transform="translate(498.580078 0)"/>
      <use xlink:href="#DejaVuSans-6e" transform="translate(559.859375 0)"/>
      <use xlink:href="#DejaVuSans-20" transform="translate(623.238281 0)"/>
      <use xlink:href="#DejaVuSans-31" transform="translate(655.025391 0)"/>
      <use xlink:href="#DejaVuSans-30" transform="translate(718.648438 0)"/>
      <use xlink:href="#DejaVuSans-20" transform="translate(782.271484 0)"/>
      <use xlink:href="#DejaVuSans-6d" transform="translate(814.058594 0)"/>
      <use xlink:href="#DejaVuSans-67" transform="translate(911.470703 0)"/>
      <use xlink:href="#DejaVuSans-20" transform="translate(974.947266 0)"/>
      <use xlink:href="#DejaVuSans-28" transform="translate(1006.734375 0)"/>
      <use xlink:href="#DejaVuSans-66" transform="translate(1045.748047 0)"/>
      <use xlink:href="#DejaVuSans-61" transform="translate(1080.953125 0)"/>
      <use xlink:href="#DejaVuSans-73" transform="translate(1142.232422 0)"/>
      <use xlink:href="#DejaVuSans-74" transform="translate(1194.332031 0)"/>
      <use xlink:href="#DejaVuSans-65" transform="translate(1233.541016 0)"/>
      <use xlink:href="#DejaVuSans-64" transform="translate(1295.064453 0)"/>
      <use xlink:href="#DejaVuSans-29" transform="translate(1358.541016 0)"/>
      <use xlink:href="#DejaVuSans-b1" transform="translate(1397.554688 0)"/>
      <use xlink:href="#DejaVuSans-53" transform="translate(1481.34375 0)"/>
      <use xlink:href="#DejaVuSans-44" transform="translate(1544.820312 0)"/>
      <use xlink:href="#DejaVuSans-20" transform="translate(1621.822266 0)"/>
      <use xlink:href="#DejaVuSans-28" transform="translate(1653.609375 0)"/>
      <use xlink:href="#DejaVuSans-6e" transform="translate(1692.623047 0)"/>
      <use xlink:href="#DejaVuSans-3d" transform="translate(1756.001953 0)"/>
      <use xlink:href="#DejaVuSans-38" transform="translate(1839.791016 0)"/>
      <use xlink:href="#DejaVuSans-29" transform="translate(1903.414062 0)"/>
     </g>
    </g>
   </g>
  </g>
  <g id="axes_2">
   <g id="patch_8">
    <path d="M 501.023139 320.4 
L 840.675313 320.4 
L 840.675313 43.2 
L 501.023139 43.2 
z
" style="fill: #ffffff"/>
   </g>
   <g id="matplotlib.axis_3">
    <g id="xtick_8">
     <g id="line2d_27">
      <g>
       <use xlink:href="#m7ef82c91de" x="516.461874" y="320.4" style="stroke: #000000; stroke-width: 0.8"/>
      </g>
     </g>
     <g id="text_21">
      <!-- 0 -->
      <g transform="translate(511.689999 338.797656) scale(0.15 -0.15)">
       <use xlink:href="#DejaVuSans-30"/>
      </g>
     </g>
    </g>
    <g id="xtick_9">
     <g id="line2d_28">
      <g>
       <use xlink:href="#m7ef82c91de" x="567.924324" y="320.4" style="stroke: #000000; stroke-width: 0.8"/>
      </g>
     </g>
     <g id="text_22">
      <!-- 5 -->
      <g transform="translate(563.152449 338.797656) scale(0.15 -0.15)">
       <use xlink:href="#DejaVuSans-35"/>
      </g>
     </g>
    </g>
    <g id="xtick_10">
     <g id="line2d_29">
      <g>
       <use xlink:href="#m7ef82c91de" x="619.386775" y="320.4" style="stroke: #000000; stroke-width: 0.8"/>
      </g>
     </g>
     <g id="text_23">
      <!-- 10 -->
      <g transform="translate(609.843025 338.797656) scale(0.15 -0.15)">
       <use xlink:href="#DejaVuSans-31"/>
       <use xlink:href="#DejaVuSans-30" transform="translate(63.623047 0)"/>
      </g>
     </g>
    </g>
    <g id="xtick_11">
     <g id="line2d_30">
      <g>
       <use xlink:href="#m7ef82c91de" x="670.849226" y="320.4" style="stroke: #000000; stroke-width: 0.8"/>
      </g>
     </g>
     <g id="text_24">
      <!-- 15 -->
      <g transform="translate(661.305476 338.797656) scale(0.15 -0.15)">
       <use xlink:href="#DejaVuSans-31"/>
       <use xlink:href="#DejaVuSans-35" transform="translate(63.623047 0)"/>
      </g>
     </g>
    </g>
    <g id="xtick_12">
     <g id="line2d_31">
      <g>
       <use xlink:href="#m7ef82c91de" x="722.311676" y="320.4" style="stroke: #000000; stroke-width: 0.8"/>
      </g>
     </g>
     <g id="text_25">
      <!-- 20 -->
      <g transform="translate(712.767926 338.797656) scale(0.15 -0.15)">
       <use xlink:href="#DejaVuSans-32"/>
       <use xlink:href="#DejaVuSans-30" transform="translate(63.623047 0)"/>
      </g>
     </g>
    </g>
    <g id="xtick_13">
     <g id="line2d_32">
      <g>
       <use xlink:href="#m7ef82c91de" x="773.774127" y="320.4" style="stroke: #000000; stroke-width: 0.8"/>
      </g>
     </g>
     <g id="text_26">
      <!-- 25 -->
      <g transform="translate(764.230377 338.797656) scale(0.15 -0.15)">
       <use xlink:href="#DejaVuSans-32"/>
       <use xlink:href="#DejaVuSans-35" transform="translate(63.623047 0)"/>
      </g>
     </g>
    </g>
    <g id="xtick_14">
     <g id="line2d_33">
      <g>
       <use xlink:href="#m7ef82c91de" x="825.236577" y="320.4" style="stroke: #000000; stroke-width: 0.8"/>
      </g>
     </g>
     <g id="text_27">
      <!-- 30 -->
      <g transform="translate(815.692827 338.797656) scale(0.15 -0.15)">
       <use xlink:href="#DejaVuSans-33"/>
       <use xlink:href="#DejaVuSans-30" transform="translate(63.623047 0)"/>
      </g>
     </g>
    </g>
    <g id="text_28">
     <!-- time [hr] -->
     <g transform="translate(625.774694 359.594375) scale(0.18 -0.18)">
      <use xlink:href="#DejaVuSans-Bold-74"/>
      <use xlink:href="#DejaVuSans-Bold-69" transform="translate(47.802734 0)"/>
      <use xlink:href="#DejaVuSans-Bold-6d" transform="translate(82.080078 0)"/>
      <use xlink:href="#DejaVuSans-Bold-65" transform="translate(186.279297 0)"/>
      <use xlink:href="#DejaVuSans-Bold-20" transform="translate(254.101562 0)"/>
      <use xlink:href="#DejaVuSans-Bold-5b" transform="translate(288.916016 0)"/>
      <use xlink:href="#DejaVuSans-Bold-68" transform="translate(334.619141 0)"/>
      <use xlink:href="#DejaVuSans-Bold-72" transform="translate(405.810547 0)"/>
      <use xlink:href="#DejaVuSans-Bold-5d" transform="translate(455.126953 0)"/>
     </g>
    </g>
   </g>
   <g id="matplotlib.axis_4">
    <g id="ytick_8">
     <g id="line2d_34">
      <g>
       <use xlink:href="#m256849064c" x="501.023139" y="316.704" style="stroke: #000000; stroke-width: 0.8"/>
      </g>
     </g>
     <g id="text_29">
      <!-- −0.1 -->
      <g transform="translate(457.59892 322.402828) scale(0.15 -0.15)">
       <defs>
        <path id="DejaVuSans-2212" d="M 678 2272 
L 4684 2272 
L 4684 1741 
L 678 1741 
L 678 2272 
z
" transform="scale(0.015625)"/>
       </defs>
       <use xlink:href="#DejaVuSans-2212"/>
       <use xlink:href="#DejaVuSans-30" transform="translate(83.789062 0)"/>
       <use xlink:href="#DejaVuSans-2e" transform="translate(147.412109 0)"/>
       <use xlink:href="#DejaVuSans-31" transform="translate(179.199219 0)"/>
      </g>
     </g>
    </g>
    <g id="ytick_9">
     <g id="line2d_35">
      <g>
       <use xlink:href="#m256849064c" x="501.023139" y="270.504" style="stroke: #000000; stroke-width: 0.8"/>
      </g>
     </g>
     <g id="text_30">
      <!-- 0.0 -->
      <g transform="translate(470.168451 276.202828) scale(0.15 -0.15)">
       <use xlink:href="#DejaVuSans-30"/>
       <use xlink:href="#DejaVuSans-2e" transform="translate(63.623047 0)"/>
       <use xlink:href="#DejaVuSans-30" transform="translate(95.410156 0)"/>
      </g>
     </g>
    </g>
    <g id="ytick_10">
     <g id="line2d_36">
      <g>
       <use xlink:href="#m256849064c" x="501.023139" y="224.304" style="stroke: #000000; stroke-width: 0.8"/>
      </g>
     </g>
     <g id="text_31">
      <!-- 0.1 -->
      <g transform="translate(470.168451 230.002828) scale(0.15 -0.15)">
       <use xlink:href="#DejaVuSans-30"/>
       <use xlink:href="#DejaVuSans-2e" transform="translate(63.623047 0)"/>
       <use xlink:href="#DejaVuSans-31" transform="translate(95.410156 0)"/>
      </g>
     </g>
    </g>
    <g id="ytick_11">
     <g id="line2d_37">
      <g>
       <use xlink:href="#m256849064c" x="501.023139" y="178.104" style="stroke: #000000; stroke-width: 0.8"/>
      </g>
     </g>
     <g id="text_32">
      <!-- 0.2 -->
      <g transform="translate(470.168451 183.802828) scale(0.15 -0.15)">
       <use xlink:href="#DejaVuSans-30"/>
       <use xlink:href="#DejaVuSans-2e" transform="translate(63.623047 0)"/>
       <use xlink:href="#DejaVuSans-32" transform="translate(95.410156 0)"/>
      </g>
     </g>
    </g>
    <g id="ytick_12">
     <g id="line2d_38">
      <g>
       <use xlink:href="#m256849064c" x="501.023139" y="131.904" style="stroke: #000000; stroke-width: 0.8"/>
      </g>
     </g>
     <g id="text_33">
      <!-- 0.3 -->
      <g transform="translate(470.168451 137.602828) scale(0.15 -0.15)">
       <use xlink:href="#DejaVuSans-30"/>
       <use xlink:href="#DejaVuSans-2e" transform="translate(63.623047 0)"/>
       <use xlink:href="#DejaVuSans-33" transform="translate(95.410156 0)"/>
      </g>
     </g>
    </g>
    <g id="ytick_13">
     <g id="line2d_39">
      <g>
       <use xlink:href="#m256849064c" x="501.023139" y="85.704" style="stroke: #000000; stroke-width: 0.8"/>
      </g>
     </g>
     <g id="text_34">
      <!-- 0.4 -->
      <g transform="translate(470.168451 91.402828) scale(0.15 -0.15)">
       <use xlink:href="#DejaVuSans-30"/>
       <use xlink:href="#DejaVuSans-2e" transform="translate(63.623047 0)"/>
       <use xlink:href="#DejaVuSans-34" transform="translate(95.410156 0)"/>
      </g>
     </g>
    </g>
    <g id="text_35">
     <!-- Xa inhibition [-] -->
     <g transform="translate(449.855482 261.52875) rotate(-90) scale(0.18 -0.18)">
      <defs>
       <path id="DejaVuSans-Bold-58" d="M 3188 2381 
L 4806 0 
L 3553 0 
L 2463 1594 
L 1381 0 
L 122 0 
L 1741 2381 
L 184 4666 
L 1441 4666 
L 2463 3163 
L 3481 4666 
L 4744 4666 
L 3188 2381 
z
" transform="scale(0.015625)"/>
       <path id="DejaVuSans-Bold-6e" d="M 4056 2131 
L 4056 0 
L 2931 0 
L 2931 347 
L 2931 1631 
Q 2931 2084 2911 2256 
Q 2891 2428 2841 2509 
Q 2775 2619 2662 2680 
Q 2550 2741 2406 2741 
Q 2056 2741 1856 2470 
Q 1656 2200 1656 1722 
L 1656 0 
L 538 0 
L 538 3500 
L 1656 3500 
L 1656 2988 
Q 1909 3294 2193 3439 
Q 2478 3584 2822 3584 
Q 3428 3584 3742 3212 
Q 4056 2841 4056 2131 
z
" transform="scale(0.015625)"/>
       <path id="DejaVuSans-Bold-62" d="M 2400 722 
Q 2759 722 2948 984 
Q 3138 1247 3138 1747 
Q 3138 2247 2948 2509 
Q 2759 2772 2400 2772 
Q 2041 2772 1848 2508 
Q 1656 2244 1656 1747 
Q 1656 1250 1848 986 
Q 2041 722 2400 722 
z
M 1656 2988 
Q 1888 3294 2169 3439 
Q 2450 3584 2816 3584 
Q 3463 3584 3878 3070 
Q 4294 2556 4294 1747 
Q 4294 938 3878 423 
Q 3463 -91 2816 -91 
Q 2450 -91 2169 54 
Q 1888 200 1656 506 
L 1656 0 
L 538 0 
L 538 4863 
L 1656 4863 
L 1656 2988 
z
" transform="scale(0.015625)"/>
      </defs>
      <use xlink:href="#DejaVuSans-Bold-58"/>
      <use xlink:href="#DejaVuSans-Bold-61" transform="translate(77.099609 0)"/>
      <use xlink:href="#DejaVuSans-Bold-20" transform="translate(144.580078 0)"/>
      <use xlink:href="#DejaVuSans-Bold-69" transform="translate(179.394531 0)"/>
      <use xlink:href="#DejaVuSans-Bold-6e" transform="translate(213.671875 0)"/>
      <use xlink:href="#DejaVuSans-Bold-68" transform="translate(284.863281 0)"/>
      <use xlink:href="#DejaVuSans-Bold-69" transform="translate(356.054688 0)"/>
      <use xlink:href="#DejaVuSans-Bold-62" transform="translate(390.332031 0)"/>
      <use xlink:href="#DejaVuSans-Bold-69" transform="translate(461.914062 0)"/>
      <use xlink:href="#DejaVuSans-Bold-74" transform="translate(496.191406 0)"/>
      <use xlink:href="#DejaVuSans-Bold-69" transform="translate(543.994141 0)"/>
      <use xlink:href="#DejaVuSans-Bold-6f" transform="translate(578.271484 0)"/>
      <use xlink:href="#DejaVuSans-Bold-6e" transform="translate(646.972656 0)"/>
      <use xlink:href="#DejaVuSans-Bold-20" transform="translate(718.164062 0)"/>
      <use xlink:href="#DejaVuSans-Bold-5b" transform="translate(752.978516 0)"/>
      <use xlink:href="#DejaVuSans-Bold-2d" transform="translate(798.681641 0)"/>
      <use xlink:href="#DejaVuSans-Bold-5d" transform="translate(840.185547 0)"/>
     </g>
    </g>
   </g>
   <g id="LineCollection_5">
    <path d="M 516.461874 270.504 
L 516.461874 266.472 
" clip-path="url(#pe59c72ce7b)" style="fill: none; stroke: #a35ac7"/>
    <path d="M 518.86791 271.512 
L 518.86791 233.208 
" clip-path="url(#pe59c72ce7b)" style="fill: none; stroke: #a35ac7"/>
    <path d="M 521.674953 307.8 
L 521.674953 196.92 
" clip-path="url(#pe59c72ce7b)" style="fill: none; stroke: #a35ac7"/>
    <path d="M 524.481996 295.704 
L 524.481996 200.952 
" clip-path="url(#pe59c72ce7b)" style="fill: none; stroke: #a35ac7"/>
    <path d="M 526.487026 290.664 
L 526.487026 147.528 
" clip-path="url(#pe59c72ce7b)" style="fill: none; stroke: #a35ac7"/>
    <path d="M 528.893063 281.592 
L 528.893063 182.808 
" clip-path="url(#pe59c72ce7b)" style="fill: none; stroke: #a35ac7"/>
    <path d="M 531.700106 268.488 
L 531.700106 181.8 
" clip-path="url(#pe59c72ce7b)" style="fill: none; stroke: #a35ac7"/>
    <path d="M 534.106143 228.168 
L 534.106143 167.688 
" clip-path="url(#pe59c72ce7b)" style="fill: none; stroke: #a35ac7"/>
    <path d="M 536.512179 214.056 
L 536.512179 157.608 
" clip-path="url(#pe59c72ce7b)" style="fill: none; stroke: #a35ac7"/>
    <path d="M 540.52224 201.96 
L 540.52224 137.448 
" clip-path="url(#pe59c72ce7b)" style="fill: none; stroke: #a35ac7"/>
    <path d="M 542.126265 188.856 
L 542.126265 110.232 
" clip-path="url(#pe59c72ce7b)" style="fill: none; stroke: #a35ac7"/>
    <path d="M 544.933307 157.608 
L 544.933307 89.064 
" clip-path="url(#pe59c72ce7b)" style="fill: none; stroke: #a35ac7"/>
    <path d="M 546.938338 134.424 
L 546.938338 55.8 
" clip-path="url(#pe59c72ce7b)" style="fill: none; stroke: #a35ac7"/>
    <path d="M 552.552424 128.376 
L 552.552424 86.04 
" clip-path="url(#pe59c72ce7b)" style="fill: none; stroke: #a35ac7"/>
    <path d="M 557.765503 116.28 
L 557.765503 82.008 
" clip-path="url(#pe59c72ce7b)" style="fill: none; stroke: #a35ac7"/>
    <path d="M 577.815808 172.728 
L 577.815808 110.232 
" clip-path="url(#pe59c72ce7b)" style="fill: none; stroke: #a35ac7"/>
    <path d="M 598.26712 208.008 
L 598.26712 145.512 
" clip-path="url(#pe59c72ce7b)" style="fill: none; stroke: #a35ac7"/>
    <path d="M 639.570749 240.264 
L 639.570749 183.816 
" clip-path="url(#pe59c72ce7b)" style="fill: none; stroke: #a35ac7"/>
    <path d="M 670.849226 289.656 
L 670.849226 182.808 
" clip-path="url(#pe59c72ce7b)" style="fill: none; stroke: #a35ac7"/>
    <path d="M 763.481637 252.36 
L 763.481637 252.36 
" clip-path="url(#pe59c72ce7b)" style="fill: none; stroke: #a35ac7"/>
   </g>
   <g id="LineCollection_6">
    <path d="M 516.461874 285.624 
L 516.461874 255.384 
" clip-path="url(#pe59c72ce7b)" style="fill: none; stroke: #ddb8ea"/>
    <path d="M 521.273947 235.224 
L 521.273947 211.032 
" clip-path="url(#pe59c72ce7b)" style="fill: none; stroke: #ddb8ea"/>
    <path d="M 524.481996 226.152 
L 524.481996 163.656 
" clip-path="url(#pe59c72ce7b)" style="fill: none; stroke: #ddb8ea"/>
    <path d="M 526.487026 220.104 
L 526.487026 121.32 
" clip-path="url(#pe59c72ce7b)" style="fill: none; stroke: #ddb8ea"/>
    <path d="M 528.893063 220.104 
L 528.893063 129.384 
" clip-path="url(#pe59c72ce7b)" style="fill: none; stroke: #ddb8ea"/>
    <path d="M 530.898094 203.976 
L 530.898094 139.464 
" clip-path="url(#pe59c72ce7b)" style="fill: none; stroke: #ddb8ea"/>
    <path d="M 534.106143 192.888 
L 534.106143 132.408 
" clip-path="url(#pe59c72ce7b)" style="fill: none; stroke: #ddb8ea"/>
    <path d="M 536.512179 200.952 
L 536.512179 118.296 
" clip-path="url(#pe59c72ce7b)" style="fill: none; stroke: #ddb8ea"/>
    <path d="M 539.720228 179.784 
L 539.720228 145.512 
" clip-path="url(#pe59c72ce7b)" style="fill: none; stroke: #ddb8ea"/>
    <path d="M 544.131295 175.752 
L 544.131295 111.24 
" clip-path="url(#pe59c72ce7b)" style="fill: none; stroke: #ddb8ea"/>
    <path d="M 547.74035 167.688 
L 547.74035 101.16 
" clip-path="url(#pe59c72ce7b)" style="fill: none; stroke: #ddb8ea"/>
    <path d="M 552.151417 180.792 
L 552.151417 100.152 
" clip-path="url(#pe59c72ce7b)" style="fill: none; stroke: #ddb8ea"/>
    <path d="M 556.963491 198.936 
L 556.963491 110.232 
" clip-path="url(#pe59c72ce7b)" style="fill: none; stroke: #ddb8ea"/>
    <path d="M 577.414802 211.032 
L 577.414802 118.296 
" clip-path="url(#pe59c72ce7b)" style="fill: none; stroke: #ddb8ea"/>
    <path d="M 598.26712 230.184 
L 598.26712 159.624 
" clip-path="url(#pe59c72ce7b)" style="fill: none; stroke: #ddb8ea"/>
    <path d="M 639.570749 248.328 
L 639.570749 157.608 
" clip-path="url(#pe59c72ce7b)" style="fill: none; stroke: #ddb8ea"/>
    <path d="M 670.849226 270.504 
L 670.849226 195.912 
" clip-path="url(#pe59c72ce7b)" style="fill: none; stroke: #ddb8ea"/>
    <path d="M 763.882643 232.2 
L 763.882643 230.184 
" clip-path="url(#pe59c72ce7b)" style="fill: none; stroke: #ddb8ea"/>
   </g>
   <g id="line2d_40">
    <path d="M 516.461874 270.504 
L 517.079423 268.708682 
L 517.696973 262.814529 
L 518.932071 243.921026 
L 521.402269 202.346112 
L 522.637368 185.287213 
L 523.872467 171.291172 
L 525.107565 160.01338 
L 526.342664 151.006956 
L 527.577763 143.852926 
L 528.812862 138.197256 
L 530.047961 133.753042 
L 531.28306 130.291608 
L 532.518158 127.631532 
L 533.753257 125.628685 
L 534.988356 124.168038 
L 536.223455 123.157233 
L 537.458554 122.521607 
L 538.693652 122.200381 
L 539.928751 122.143744 
L 541.16385 122.310603 
L 542.398949 122.66685 
L 544.251597 123.495316 
L 546.104245 124.609256 
L 548.574443 126.436281 
L 551.044641 128.556714 
L 554.132388 131.500946 
L 558.455233 135.981359 
L 564.630728 142.769109 
L 586.244957 166.833634 
L 593.65555 174.661697 
L 601.066143 182.156704 
L 607.859186 188.706682 
L 614.652229 194.93357 
L 620.827724 200.305819 
L 627.003218 205.399499 
L 633.178712 210.214034 
L 639.354206 214.751416 
L 645.5297 219.015851 
L 651.705194 223.013422 
L 657.880688 226.751776 
L 664.056182 230.239827 
L 670.231676 233.487476 
L 677.02472 236.794938 
L 683.817763 239.839245 
L 690.610807 242.635666 
L 697.40385 245.199611 
L 704.814443 247.749498 
L 712.225036 250.060446 
L 720.253178 252.316215 
L 728.28132 254.33665 
L 736.927012 256.274152 
L 745.572704 257.989123 
L 754.835945 259.606143 
L 764.716735 261.108444 
L 775.215075 262.484325 
L 786.948514 263.790232 
L 799.299502 264.939945 
L 812.885589 265.981874 
L 825.236577 266.760803 
L 825.236577 266.760803 
" clip-path="url(#pe59c72ce7b)" style="fill: none; stroke: #a35ac7; stroke-width: 2; stroke-linecap: square"/>
   </g>
   <g id="line2d_41">
    <path d="M 516.461874 268.488 
L 518.86791 252.36 
L 521.674953 252.36 
L 524.481996 248.328 
L 526.487026 219.096 
L 528.893063 232.2 
L 531.700106 225.144 
L 534.106143 197.928 
L 536.512179 185.832 
L 540.52224 169.704 
L 542.126265 149.544 
L 544.933307 123.336 
L 546.938338 95.112 
L 552.552424 107.208 
L 557.765503 99.144 
L 577.815808 141.48 
L 598.26712 176.76 
L 639.570749 212.04 
L 670.849226 236.232 
L 763.481637 252.36 
" clip-path="url(#pe59c72ce7b)" style="fill: none; stroke-dasharray: 3.7,1.6; stroke-dashoffset: 0; stroke: #a35ac7"/>
    <g clip-path="url(#pe59c72ce7b)">
     <use xlink:href="#m1922fec314" x="516.461874" y="268.488" style="fill: #a35ac7; stroke: #000000; stroke-linejoin: miter"/>
     <use xlink:href="#m1922fec314" x="518.86791" y="252.36" style="fill: #a35ac7; stroke: #000000; stroke-linejoin: miter"/>
     <use xlink:href="#m1922fec314" x="521.674953" y="252.36" style="fill: #a35ac7; stroke: #000000; stroke-linejoin: miter"/>
     <use xlink:href="#m1922fec314" x="524.481996" y="248.328" style="fill: #a35ac7; stroke: #000000; stroke-linejoin: miter"/>
     <use xlink:href="#m1922fec314" x="526.487026" y="219.096" style="fill: #a35ac7; stroke: #000000; stroke-linejoin: miter"/>
     <use xlink:href="#m1922fec314" x="528.893063" y="232.2" style="fill: #a35ac7; stroke: #000000; stroke-linejoin: miter"/>
     <use xlink:href="#m1922fec314" x="531.700106" y="225.144" style="fill: #a35ac7; stroke: #000000; stroke-linejoin: miter"/>
     <use xlink:href="#m1922fec314" x="534.106143" y="197.928" style="fill: #a35ac7; stroke: #000000; stroke-linejoin: miter"/>
     <use xlink:href="#m1922fec314" x="536.512179" y="185.832" style="fill: #a35ac7; stroke: #000000; stroke-linejoin: miter"/>
     <use xlink:href="#m1922fec314" x="540.52224" y="169.704" style="fill: #a35ac7; stroke: #000000; stroke-linejoin: miter"/>
     <use xlink:href="#m1922fec314" x="542.126265" y="149.544" style="fill: #a35ac7; stroke: #000000; stroke-linejoin: miter"/>
     <use xlink:href="#m1922fec314" x="544.933307" y="123.336" style="fill: #a35ac7; stroke: #000000; stroke-linejoin: miter"/>
     <use xlink:href="#m1922fec314" x="546.938338" y="95.112" style="fill: #a35ac7; stroke: #000000; stroke-linejoin: miter"/>
     <use xlink:href="#m1922fec314" x="552.552424" y="107.208" style="fill: #a35ac7; stroke: #000000; stroke-linejoin: miter"/>
     <use xlink:href="#m1922fec314" x="557.765503" y="99.144" style="fill: #a35ac7; stroke: #000000; stroke-linejoin: miter"/>
     <use xlink:href="#m1922fec314" x="577.815808" y="141.48" style="fill: #a35ac7; stroke: #000000; stroke-linejoin: miter"/>
     <use xlink:href="#m1922fec314" x="598.26712" y="176.76" style="fill: #a35ac7; stroke: #000000; stroke-linejoin: miter"/>
     <use xlink:href="#m1922fec314" x="639.570749" y="212.04" style="fill: #a35ac7; stroke: #000000; stroke-linejoin: miter"/>
     <use xlink:href="#m1922fec314" x="670.849226" y="236.232" style="fill: #a35ac7; stroke: #000000; stroke-linejoin: miter"/>
     <use xlink:href="#m1922fec314" x="763.481637" y="252.36" style="fill: #a35ac7; stroke: #000000; stroke-linejoin: miter"/>
    </g>
   </g>
   <g id="line2d_42">
    <path d="M 516.461874 270.504 
L 517.079423 269.030337 
L 517.696973 264.17098 
L 518.314522 256.952399 
L 520.16717 229.912505 
L 522.019818 204.404732 
L 523.254917 190.374782 
L 524.490016 178.792791 
L 525.725115 169.380609 
L 526.960214 161.802969 
L 528.195312 155.744812 
L 529.430411 150.935266 
L 530.66551 147.150198 
L 531.900609 144.207194 
L 533.135708 141.958673 
L 534.370807 140.285261 
L 535.605905 139.090137 
L 536.841004 138.294428 
L 538.076103 137.833552 
L 539.311202 137.654342 
L 540.546301 137.712789 
L 541.781399 137.972277 
L 543.634048 138.672843 
L 545.486696 139.674387 
L 547.339344 140.911944 
L 549.809542 142.84276 
L 552.897289 145.5828 
L 556.602585 149.186118 
L 562.16053 154.944282 
L 583.774759 177.695887 
L 591.185352 185.025088 
L 597.978396 191.428067 
L 604.771439 197.508611 
L 610.946933 202.747744 
L 617.122427 207.708643 
L 623.297921 212.391495 
L 629.473415 216.79914 
L 635.648909 220.936597 
L 641.824403 224.810674 
L 647.999897 228.429626 
L 654.175392 231.802854 
L 660.350886 234.940631 
L 667.143929 238.133264 
L 673.936973 241.069264 
L 680.730016 243.763991 
L 687.52306 246.232842 
L 694.933652 248.6864 
L 702.344245 250.908534 
L 710.372388 253.076223 
L 718.40053 255.016607 
L 727.046222 256.876315 
L 736.309463 258.631511 
L 746.190253 260.263673 
L 756.688593 261.759745 
L 767.804482 263.112019 
L 779.537921 264.31776 
L 792.506459 265.426695 
L 806.710095 266.417493 
L 822.76638 267.309136 
L 825.236577 267.42804 
L 825.236577 267.42804 
" clip-path="url(#pe59c72ce7b)" style="fill: none; stroke: #ddb8ea; stroke-width: 2; stroke-linecap: square"/>
   </g>
   <g id="line2d_43">
    <path d="M 516.461874 270.504 
L 521.273947 223.128 
L 524.481996 194.904 
L 526.487026 170.712 
L 528.893063 174.744 
L 530.898094 171.72 
L 534.106143 162.648 
L 536.512179 159.624 
L 539.720228 162.648 
L 544.131295 143.496 
L 547.74035 134.424 
L 552.151417 140.472 
L 556.963491 154.584 
L 577.414802 164.664 
L 598.26712 194.904 
L 639.570749 202.968 
L 670.849226 233.208 
L 763.882643 231.192 
" clip-path="url(#pe59c72ce7b)" style="fill: none; stroke-dasharray: 3.7,1.6; stroke-dashoffset: 0; stroke: #ddb8ea"/>
    <g clip-path="url(#pe59c72ce7b)">
     <use xlink:href="#md2483bd4f1" x="516.461874" y="270.504" style="fill: #ddb8ea; stroke: #000000; stroke-linejoin: miter"/>
     <use xlink:href="#md2483bd4f1" x="521.273947" y="223.128" style="fill: #ddb8ea; stroke: #000000; stroke-linejoin: miter"/>
     <use xlink:href="#md2483bd4f1" x="524.481996" y="194.904" style="fill: #ddb8ea; stroke: #000000; stroke-linejoin: miter"/>
     <use xlink:href="#md2483bd4f1" x="526.487026" y="170.712" style="fill: #ddb8ea; stroke: #000000; stroke-linejoin: miter"/>
     <use xlink:href="#md2483bd4f1" x="528.893063" y="174.744" style="fill: #ddb8ea; stroke: #000000; stroke-linejoin: miter"/>
     <use xlink:href="#md2483bd4f1" x="530.898094" y="171.72" style="fill: #ddb8ea; stroke: #000000; stroke-linejoin: miter"/>
     <use xlink:href="#md2483bd4f1" x="534.106143" y="162.648" style="fill: #ddb8ea; stroke: #000000; stroke-linejoin: miter"/>
     <use xlink:href="#md2483bd4f1" x="536.512179" y="159.624" style="fill: #ddb8ea; stroke: #000000; stroke-linejoin: miter"/>
     <use xlink:href="#md2483bd4f1" x="539.720228" y="162.648" style="fill: #ddb8ea; stroke: #000000; stroke-linejoin: miter"/>
     <use xlink:href="#md2483bd4f1" x="544.131295" y="143.496" style="fill: #ddb8ea; stroke: #000000; stroke-linejoin: miter"/>
     <use xlink:href="#md2483bd4f1" x="547.74035" y="134.424" style="fill: #ddb8ea; stroke: #000000; stroke-linejoin: miter"/>
     <use xlink:href="#md2483bd4f1" x="552.151417" y="140.472" style="fill: #ddb8ea; stroke: #000000; stroke-linejoin: miter"/>
     <use xlink:href="#md2483bd4f1" x="556.963491" y="154.584" style="fill: #ddb8ea; stroke: #000000; stroke-linejoin: miter"/>
     <use xlink:href="#md2483bd4f1" x="577.414802" y="164.664" style="fill: #ddb8ea; stroke: #000000; stroke-linejoin: miter"/>
     <use xlink:href="#md2483bd4f1" x="598.26712" y="194.904" style="fill: #ddb8ea; stroke: #000000; stroke-linejoin: miter"/>
     <use xlink:href="#md2483bd4f1" x="639.570749" y="202.968" style="fill: #ddb8ea; stroke: #000000; stroke-linejoin: miter"/>
     <use xlink:href="#md2483bd4f1" x="670.849226" y="233.208" style="fill: #ddb8ea; stroke: #000000; stroke-linejoin: miter"/>
     <use xlink:href="#md2483bd4f1" x="763.882643" y="231.192" style="fill: #ddb8ea; stroke: #000000; stroke-linejoin: miter"/>
    </g>
   </g>
   <g id="patch_9">
    <path d="M 501.023139 320.4 
L 501.023139 43.2 
" style="fill: none; stroke: #000000; stroke-width: 0.8; stroke-linejoin: miter; stroke-linecap: square"/>
   </g>
   <g id="patch_10">
    <path d="M 840.675313 320.4 
L 840.675313 43.2 
" style="fill: none; stroke: #000000; stroke-width: 0.8; stroke-linejoin: miter; stroke-linecap: square"/>
   </g>
   <g id="patch_11">
    <path d="M 501.023139 320.4 
L 840.675313 320.4 
" style="fill: none; stroke: #000000; stroke-width: 0.8; stroke-linejoin: miter; stroke-linecap: square"/>
   </g>
   <g id="patch_12">
    <path d="M 501.023139 43.2 
L 840.675313 43.2 
" style="fill: none; stroke: #000000; stroke-width: 0.8; stroke-linejoin: miter; stroke-linecap: square"/>
   </g>
   <g id="legend_2">
    <g id="patch_13">
     <path d="M 607.428438 109.9125 
L 833.675313 109.9125 
Q 835.675313 109.9125 835.675313 107.9125 
L 835.675313 50.2 
Q 835.675313 48.2 833.675313 48.2 
L 607.428438 48.2 
Q 605.428438 48.2 605.428438 50.2 
L 605.428438 107.9125 
Q 605.428438 109.9125 607.428438 109.9125 
z
" style="fill: #ffffff; opacity: 0.8; stroke: #cccccc; stroke-linejoin: miter"/>
    </g>
    <g id="line2d_44">
     <path d="M 609.428438 56.298437 
L 629.428438 56.298437 
" style="fill: none; stroke: #a35ac7; stroke-width: 2; stroke-linecap: square"/>
    </g>
    <g id="line2d_45"/>
    <g id="text_36">
     <!-- Rivaroxaban 10 mg (fed) -->
     <g transform="translate(637.428438 59.798437) scale(0.1 -0.1)">
      <use xlink:href="#DejaVuSans-52"/>
      <use xlink:href="#DejaVuSans-69" transform="translate(69.482422 0)"/>
      <use xlink:href="#DejaVuSans-76" transform="translate(97.265625 0)"/>
      <use xlink:href="#DejaVuSans-61" transform="translate(156.445312 0)"/>
      <use xlink:href="#DejaVuSans-72" transform="translate(217.724609 0)"/>
      <use xlink:href="#DejaVuSans-6f" transform="translate(256.587891 0)"/>
      <use xlink:href="#DejaVuSans-78" transform="translate(314.644531 0)"/>
      <use xlink:href="#DejaVuSans-61" transform="translate(373.824219 0)"/>
      <use xlink:href="#DejaVuSans-62" transform="translate(435.103516 0)"/>
      <use xlink:href="#DejaVuSans-61" transform="translate(498.580078 0)"/>
      <use xlink:href="#DejaVuSans-6e" transform="translate(559.859375 0)"/>
      <use xlink:href="#DejaVuSans-20" transform="translate(623.238281 0)"/>
      <use xlink:href="#DejaVuSans-31" transform="translate(655.025391 0)"/>
      <use xlink:href="#DejaVuSans-30" transform="translate(718.648438 0)"/>
      <use xlink:href="#DejaVuSans-20" transform="translate(782.271484 0)"/>
      <use xlink:href="#DejaVuSans-6d" transform="translate(814.058594 0)"/>
      <use xlink:href="#DejaVuSans-67" transform="translate(911.470703 0)"/>
      <use xlink:href="#DejaVuSans-20" transform="translate(974.947266 0)"/>
      <use xlink:href="#DejaVuSans-28" transform="translate(1006.734375 0)"/>
      <use xlink:href="#DejaVuSans-66" transform="translate(1045.748047 0)"/>
      <use xlink:href="#DejaVuSans-65" transform="translate(1080.953125 0)"/>
      <use xlink:href="#DejaVuSans-64" transform="translate(1142.476562 0)"/>
      <use xlink:href="#DejaVuSans-29" transform="translate(1205.953125 0)"/>
     </g>
    </g>
    <g id="LineCollection_7">
     <path d="M 619.428438 75.976562 
L 619.428438 65.976562 
" style="fill: none; stroke: #a35ac7"/>
    </g>
    <g id="line2d_46">
     <path d="M 609.428438 70.976562 
L 629.428438 70.976562 
" style="fill: none; stroke-dasharray: 3.7,1.6; stroke-dashoffset: 0; stroke: #a35ac7"/>
    </g>
    <g id="line2d_47">
     <g>
      <use xlink:href="#m1922fec314" x="619.428438" y="70.976562" style="fill: #a35ac7; stroke: #000000; stroke-linejoin: miter"/>
     </g>
    </g>
    <g id="text_37">
     <!-- Rivaroxaban 10 mg (fed)±SD (n=8) -->
     <g transform="translate(637.428438 74.476562) scale(0.1 -0.1)">
      <use xlink:href="#DejaVuSans-52"/>
      <use xlink:href="#DejaVuSans-69" transform="translate(69.482422 0)"/>
      <use xlink:href="#DejaVuSans-76" transform="translate(97.265625 0)"/>
      <use xlink:href="#DejaVuSans-61" transform="translate(156.445312 0)"/>
      <use xlink:href="#DejaVuSans-72" transform="translate(217.724609 0)"/>
      <use xlink:href="#DejaVuSans-6f" transform="translate(256.587891 0)"/>
      <use xlink:href="#DejaVuSans-78" transform="translate(314.644531 0)"/>
      <use xlink:href="#DejaVuSans-61" transform="translate(373.824219 0)"/>
      <use xlink:href="#DejaVuSans-62" transform="translate(435.103516 0)"/>
      <use xlink:href="#DejaVuSans-61" transform="translate(498.580078 0)"/>
      <use xlink:href="#DejaVuSans-6e" transform="translate(559.859375 0)"/>
      <use xlink:href="#DejaVuSans-20" transform="translate(623.238281 0)"/>
      <use xlink:href="#DejaVuSans-31" transform="translate(655.025391 0)"/>
      <use xlink:href="#DejaVuSans-30" transform="translate(718.648438 0)"/>
      <use xlink:href="#DejaVuSans-20" transform="translate(782.271484 0)"/>
      <use xlink:href="#DejaVuSans-6d" transform="translate(814.058594 0)"/>
      <use xlink:href="#DejaVuSans-67" transform="translate(911.470703 0)"/>
      <use xlink:href="#DejaVuSans-20" transform="translate(974.947266 0)"/>
      <use xlink:href="#DejaVuSans-28" transform="translate(1006.734375 0)"/>
      <use xlink:href="#DejaVuSans-66" transform="translate(1045.748047 0)"/>
      <use xlink:href="#DejaVuSans-65" transform="translate(1080.953125 0)"/>
      <use xlink:href="#DejaVuSans-64" transform="translate(1142.476562 0)"/>
      <use xlink:href="#DejaVuSans-29" transform="translate(1205.953125 0)"/>
      <use xlink:href="#DejaVuSans-b1" transform="translate(1244.966797 0)"/>
      <use xlink:href="#DejaVuSans-53" transform="translate(1328.755859 0)"/>
      <use xlink:href="#DejaVuSans-44" transform="translate(1392.232422 0)"/>
      <use xlink:href="#DejaVuSans-20" transform="translate(1469.234375 0)"/>
      <use xlink:href="#DejaVuSans-28" transform="translate(1501.021484 0)"/>
      <use xlink:href="#DejaVuSans-6e" transform="translate(1540.035156 0)"/>
      <use xlink:href="#DejaVuSans-3d" transform="translate(1603.414062 0)"/>
      <use xlink:href="#DejaVuSans-38" transform="translate(1687.203125 0)"/>
      <use xlink:href="#DejaVuSans-29" transform="translate(1750.826172 0)"/>
     </g>
    </g>
    <g id="line2d_48">
     <path d="M 609.428438 85.654687 
L 629.428438 85.654687 
" style="fill: none; stroke: #ddb8ea; stroke-width: 2; stroke-linecap: square"/>
    </g>
    <g id="line2d_49"/>
    <g id="text_38">
     <!-- Rivaroxaban 10 mg (fasted) -->
     <g transform="translate(637.428438 89.154687) scale(0.1 -0.1)">
      <use xlink:href="#DejaVuSans-52"/>
      <use xlink:href="#DejaVuSans-69" transform="translate(69.482422 0)"/>
      <use xlink:href="#DejaVuSans-76" transform="translate(97.265625 0)"/>
      <use xlink:href="#DejaVuSans-61" transform="translate(156.445312 0)"/>
      <use xlink:href="#DejaVuSans-72" transform="translate(217.724609 0)"/>
      <use xlink:href="#DejaVuSans-6f" transform="translate(256.587891 0)"/>
      <use xlink:href="#DejaVuSans-78" transform="translate(314.644531 0)"/>
      <use xlink:href="#DejaVuSans-61" transform="translate(373.824219 0)"/>
      <use xlink:href="#DejaVuSans-62" transform="translate(435.103516 0)"/>
      <use xlink:href="#DejaVuSans-61" transform="translate(498.580078 0)"/>
      <use xlink:href="#DejaVuSans-6e" transform="translate(559.859375 0)"/>
      <use xlink:href="#DejaVuSans-20" transform="translate(623.238281 0)"/>
      <use xlink:href="#DejaVuSans-31" transform="translate(655.025391 0)"/>
      <use xlink:href="#DejaVuSans-30" transform="translate(718.648438 0)"/>
      <use xlink:href="#DejaVuSans-20" transform="translate(782.271484 0)"/>
      <use xlink:href="#DejaVuSans-6d" transform="translate(814.058594 0)"/>
      <use xlink:href="#DejaVuSans-67" transform="translate(911.470703 0)"/>
      <use xlink:href="#DejaVuSans-20" transform="translate(974.947266 0)"/>
      <use xlink:href="#DejaVuSans-28" transform="translate(1006.734375 0)"/>
      <use xlink:href="#DejaVuSans-66" transform="translate(1045.748047 0)"/>
      <use xlink:href="#DejaVuSans-61" transform="translate(1080.953125 0)"/>
      <use xlink:href="#DejaVuSans-73" transform="translate(1142.232422 0)"/>
      <use xlink:href="#DejaVuSans-74" transform="translate(1194.332031 0)"/>
      <use xlink:href="#DejaVuSans-65" transform="translate(1233.541016 0)"/>
      <use xlink:href="#DejaVuSans-64" transform="translate(1295.064453 0)"/>
      <use xlink:href="#DejaVuSans-29" transform="translate(1358.541016 0)"/>
     </g>
    </g>
    <g id="LineCollection_8">
     <path d="M 619.428438 105.332812 
L 619.428438 95.332812 
" style="fill: none; stroke: #ddb8ea"/>
    </g>
    <g id="line2d_50">
     <path d="M 609.428438 100.332812 
L 629.428438 100.332812 
" style="fill: none; stroke-dasharray: 3.7,1.6; stroke-dashoffset: 0; stroke: #ddb8ea"/>
    </g>
    <g id="line2d_51">
     <g>
      <use xlink:href="#md2483bd4f1" x="619.428438" y="100.332812" style="fill: #ddb8ea; stroke: #000000; stroke-linejoin: miter"/>
     </g>
    </g>
    <g id="text_39">
     <!-- Rivaroxaban 10 mg (fasted)±SD (n=8) -->
     <g transform="translate(637.428438 103.832812) scale(0.1 -0.1)">
      <use xlink:href="#DejaVuSans-52"/>
      <use xlink:href="#DejaVuSans-69" transform="translate(69.482422 0)"/>
      <use xlink:href="#DejaVuSans-76" transform="translate(97.265625 0)"/>
      <use xlink:href="#DejaVuSans-61" transform="translate(156.445312 0)"/>
      <use xlink:href="#DejaVuSans-72" transform="translate(217.724609 0)"/>
      <use xlink:href="#DejaVuSans-6f" transform="translate(256.587891 0)"/>
      <use xlink:href="#DejaVuSans-78" transform="translate(314.644531 0)"/>
      <use xlink:href="#DejaVuSans-61" transform="translate(373.824219 0)"/>
      <use xlink:href="#DejaVuSans-62" transform="translate(435.103516 0)"/>
      <use xlink:href="#DejaVuSans-61" transform="translate(498.580078 0)"/>
      <use xlink:href="#DejaVuSans-6e" transform="translate(559.859375 0)"/>
      <use xlink:href="#DejaVuSans-20" transform="translate(623.238281 0)"/>
      <use xlink:href="#DejaVuSans-31" transform="translate(655.025391 0)"/>
      <use xlink:href="#DejaVuSans-30" transform="translate(718.648438 0)"/>
      <use xlink:href="#DejaVuSans-20" transform="translate(782.271484 0)"/>
      <use xlink:href="#DejaVuSans-6d" transform="translate(814.058594 0)"/>
      <use xlink:href="#DejaVuSans-67" transform="translate(911.470703 0)"/>
      <use xlink:href="#DejaVuSans-20" transform="translate(974.947266 0)"/>
      <use xlink:href="#DejaVuSans-28" transform="translate(1006.734375 0)"/>
      <use xlink:href="#DejaVuSans-66" transform="translate(1045.748047 0)"/>
      <use xlink:href="#DejaVuSans-61" transform="translate(1080.953125 0)"/>
      <use xlink:href="#DejaVuSans-73" transform="translate(1142.232422 0)"/>
      <use xlink:href="#DejaVuSans-74" transform="translate(1194.332031 0)"/>
      <use xlink:href="#DejaVuSans-65" transform="translate(1233.541016 0)"/>
      <use xlink:href="#DejaVuSans-64" transform="translate(1295.064453 0)"/>
      <use xlink:href="#DejaVuSans-29" transform="translate(1358.541016 0)"/>
      <use xlink:href="#DejaVuSans-b1" transform="translate(1397.554688 0)"/>
      <use xlink:href="#DejaVuSans-53" transform="translate(1481.34375 0)"/>
      <use xlink:href="#DejaVuSans-44" transform="translate(1544.820312 0)"/>
      <use xlink:href="#DejaVuSans-20" transform="translate(1621.822266 0)"/>
      <use xlink:href="#DejaVuSans-28" transform="translate(1653.609375 0)"/>
      <use xlink:href="#DejaVuSans-6e" transform="translate(1692.623047 0)"/>
      <use xlink:href="#DejaVuSans-3d" transform="translate(1756.001953 0)"/>
      <use xlink:href="#DejaVuSans-38" transform="translate(1839.791016 0)"/>
      <use xlink:href="#DejaVuSans-29" transform="translate(1903.414062 0)"/>
     </g>
    </g>
   </g>
  </g>
  <g id="text_40">
   <!-- Kubitza2006 -->
   <g transform="translate(349.403047 26.196094) scale(0.25 -0.25)">
    <defs>
     <path id="DejaVuSans-Bold-4b" d="M 588 4666 
L 1791 4666 
L 1791 2963 
L 3525 4666 
L 4922 4666 
L 2675 2456 
L 5153 0 
L 3647 0 
L 1791 1838 
L 1791 0 
L 588 0 
L 588 4666 
z
" transform="scale(0.015625)"/>
     <path id="DejaVuSans-Bold-75" d="M 500 1363 
L 500 3500 
L 1625 3500 
L 1625 3150 
Q 1625 2866 1622 2436 
Q 1619 2006 1619 1863 
Q 1619 1441 1641 1255 
Q 1663 1069 1716 984 
Q 1784 875 1895 815 
Q 2006 756 2150 756 
Q 2500 756 2700 1025 
Q 2900 1294 2900 1772 
L 2900 3500 
L 4019 3500 
L 4019 0 
L 2900 0 
L 2900 506 
Q 2647 200 2364 54 
Q 2081 -91 1741 -91 
Q 1134 -91 817 281 
Q 500 653 500 1363 
z
" transform="scale(0.015625)"/>
     <path id="DejaVuSans-Bold-7a" d="M 366 3500 
L 3419 3500 
L 3419 2719 
L 1575 800 
L 3419 800 
L 3419 0 
L 288 0 
L 288 781 
L 2131 2700 
L 366 2700 
L 366 3500 
z
" transform="scale(0.015625)"/>
     <path id="DejaVuSans-Bold-32" d="M 1844 884 
L 3897 884 
L 3897 0 
L 506 0 
L 506 884 
L 2209 2388 
Q 2438 2594 2547 2791 
Q 2656 2988 2656 3200 
Q 2656 3528 2436 3728 
Q 2216 3928 1850 3928 
Q 1569 3928 1234 3808 
Q 900 3688 519 3450 
L 519 4475 
Q 925 4609 1322 4679 
Q 1719 4750 2100 4750 
Q 2938 4750 3402 4381 
Q 3866 4013 3866 3353 
Q 3866 2972 3669 2642 
Q 3472 2313 2841 1759 
L 1844 884 
z
" transform="scale(0.015625)"/>
     <path id="DejaVuSans-Bold-30" d="M 2944 2338 
Q 2944 3213 2780 3570 
Q 2616 3928 2228 3928 
Q 1841 3928 1675 3570 
Q 1509 3213 1509 2338 
Q 1509 1453 1675 1090 
Q 1841 728 2228 728 
Q 2613 728 2778 1090 
Q 2944 1453 2944 2338 
z
M 4147 2328 
Q 4147 1169 3647 539 
Q 3147 -91 2228 -91 
Q 1306 -91 806 539 
Q 306 1169 306 2328 
Q 306 3491 806 4120 
Q 1306 4750 2228 4750 
Q 3147 4750 3647 4120 
Q 4147 3491 4147 2328 
z
" transform="scale(0.015625)"/>
     <path id="DejaVuSans-Bold-36" d="M 2316 2303 
Q 2000 2303 1842 2098 
Q 1684 1894 1684 1484 
Q 1684 1075 1842 870 
Q 2000 666 2316 666 
Q 2634 666 2792 870 
Q 2950 1075 2950 1484 
Q 2950 1894 2792 2098 
Q 2634 2303 2316 2303 
z
M 3803 4544 
L 3803 3681 
Q 3506 3822 3243 3889 
Q 2981 3956 2731 3956 
Q 2194 3956 1894 3657 
Q 1594 3359 1544 2772 
Q 1750 2925 1990 3001 
Q 2231 3078 2516 3078 
Q 3231 3078 3670 2659 
Q 4109 2241 4109 1563 
Q 4109 813 3618 361 
Q 3128 -91 2303 -91 
Q 1394 -91 895 523 
Q 397 1138 397 2266 
Q 397 3422 980 4083 
Q 1563 4744 2578 4744 
Q 2900 4744 3203 4694 
Q 3506 4644 3803 4544 
z
" transform="scale(0.015625)"/>
    </defs>
    <use xlink:href="#DejaVuSans-Bold-4b"/>
    <use xlink:href="#DejaVuSans-Bold-75" transform="translate(75.740234 0)"/>
    <use xlink:href="#DejaVuSans-Bold-62" transform="translate(146.931641 0)"/>
    <use xlink:href="#DejaVuSans-Bold-69" transform="translate(218.513672 0)"/>
    <use xlink:href="#DejaVuSans-Bold-74" transform="translate(252.791016 0)"/>
    <use xlink:href="#DejaVuSans-Bold-7a" transform="translate(300.59375 0)"/>
    <use xlink:href="#DejaVuSans-Bold-61" transform="translate(358.796875 0)"/>
    <use xlink:href="#DejaVuSans-Bold-32" transform="translate(426.277344 0)"/>
    <use xlink:href="#DejaVuSans-Bold-30" transform="translate(495.857422 0)"/>
    <use xlink:href="#DejaVuSans-Bold-30" transform="translate(565.4375 0)"/>
    <use xlink:href="#DejaVuSans-Bold-36" transform="translate(635.017578 0)"/>
   </g>
  </g>
 </g>
 <defs>
  <clipPath id="p842e953273">
   <rect x="59.475313" y="43.2" width="339.652174" height="277.2"/>
  </clipPath>
  <clipPath id="pe59c72ce7b">
   <rect x="501.023139" y="43.2" width="339.652174" height="277.2"/>
  </clipPath>
 </defs>
</svg>
