<?xml version="1.0" encoding="utf-8" standalone="no"?>
<!DOCTYPE svg PUBLIC "-//W3C//DTD SVG 1.1//EN"
  "http://www.w3.org/Graphics/SVG/1.1/DTD/svg11.dtd">
<svg xmlns:xlink="http://www.w3.org/1999/xlink" width="457.295pt" height="370.537812pt" viewBox="0 0 457.295 370.537812" xmlns="http://www.w3.org/2000/svg" version="1.1">
 <metadata>
  <rdf:RDF xmlns:dc="http://purl.org/dc/elements/1.1/" xmlns:cc="http://creativecommons.org/ns#" xmlns:rdf="http://www.w3.org/1999/02/22-rdf-syntax-ns#">
   <cc:Work>
    <dc:type rdf:resource="http://purl.org/dc/dcmitype/StillImage"/>
    <dc:date>2025-07-19T10:59:05.289075</dc:date>
    <dc:format>image/svg+xml</dc:format>
    <dc:creator>
     <cc:Agent>
      <dc:title>Matplotlib v3.9.1, https://matplotlib.org/</dc:title>
     </cc:Agent>
    </dc:creator>
   </cc:Work>
  </rdf:RDF>
 </metadata>
 <defs>
  <style type="text/css">*{stroke-linejoin: round; stroke-linecap: butt}</style>
 </defs>
 <g id="figure_1">
  <g id="patch_1">
   <path d="M 0 370.537812 
L 457.295 370.537812 
L 457.295 0 
L 0 0 
z
" style="fill: #ffffff"/>
  </g>
  <g id="axes_1">
   <g id="patch_2">
    <path d="M 59.495 320.4 
L 450.095 320.4 
L 450.095 43.2 
L 59.495 43.2 
z
" style="fill: #ffffff"/>
   </g>
   <g id="matplotlib.axis_1">
    <g id="xtick_1">
     <g id="line2d_1">
      <defs>
       <path id="me8cf206dda" d="M 0 0 
L 0 3.5 
" style="stroke: #000000; stroke-width: 0.8"/>
      </defs>
      <g>
       <use xlink:href="#me8cf206dda" x="77.249545" y="320.4" style="stroke: #000000; stroke-width: 0.8"/>
      </g>
     </g>
     <g id="text_1">
      <!-- 0 -->
      <g transform="translate(72.47767 338.797656) scale(0.15 -0.15)">
       <defs>
        <path id="DejaVuSans-30" d="M 2034 4250 
Q 1547 4250 1301 3770 
Q 1056 3291 1056 2328 
Q 1056 1369 1301 889 
Q 1547 409 2034 409 
Q 2525 409 2770 889 
Q 3016 1369 3016 2328 
Q 3016 3291 2770 3770 
Q 2525 4250 2034 4250 
z
M 2034 4750 
Q 2819 4750 3233 4129 
Q 3647 3509 3647 2328 
Q 3647 1150 3233 529 
Q 2819 -91 2034 -91 
Q 1250 -91 836 529 
Q 422 1150 422 2328 
Q 422 3509 836 4129 
Q 1250 4750 2034 4750 
z
" transform="scale(0.015625)"/>
       </defs>
       <use xlink:href="#DejaVuSans-30"/>
      </g>
     </g>
    </g>
    <g id="xtick_2">
     <g id="line2d_2">
      <g>
       <use xlink:href="#me8cf206dda" x="136.431364" y="320.4" style="stroke: #000000; stroke-width: 0.8"/>
      </g>
     </g>
     <g id="text_2">
      <!-- 5 -->
      <g transform="translate(131.659489 338.797656) scale(0.15 -0.15)">
       <defs>
        <path id="DejaVuSans-35" d="M 691 4666 
L 3169 4666 
L 3169 4134 
L 1269 4134 
L 1269 2991 
Q 1406 3038 1543 3061 
Q 1681 3084 1819 3084 
Q 2600 3084 3056 2656 
Q 3513 2228 3513 1497 
Q 3513 744 3044 326 
Q 2575 -91 1722 -91 
Q 1428 -91 1123 -41 
Q 819 9 494 109 
L 494 744 
Q 775 591 1075 516 
Q 1375 441 1709 441 
Q 2250 441 2565 725 
Q 2881 1009 2881 1497 
Q 2881 1984 2565 2268 
Q 2250 2553 1709 2553 
Q 1456 2553 1204 2497 
Q 953 2441 691 2322 
L 691 4666 
z
" transform="scale(0.015625)"/>
       </defs>
       <use xlink:href="#DejaVuSans-35"/>
      </g>
     </g>
    </g>
    <g id="xtick_3">
     <g id="line2d_3">
      <g>
       <use xlink:href="#me8cf206dda" x="195.613182" y="320.4" style="stroke: #000000; stroke-width: 0.8"/>
      </g>
     </g>
     <g id="text_3">
      <!-- 10 -->
      <g transform="translate(186.069432 338.797656) scale(0.15 -0.15)">
       <defs>
        <path id="DejaVuSans-31" d="M 794 531 
L 1825 531 
L 1825 4091 
L 703 3866 
L 703 4441 
L 1819 4666 
L 2450 4666 
L 2450 531 
L 3481 531 
L 3481 0 
L 794 0 
L 794 531 
z
" transform="scale(0.015625)"/>
       </defs>
       <use xlink:href="#DejaVuSans-31"/>
       <use xlink:href="#DejaVuSans-30" x="63.623047"/>
      </g>
     </g>
    </g>
    <g id="xtick_4">
     <g id="line2d_4">
      <g>
       <use xlink:href="#me8cf206dda" x="254.795" y="320.4" style="stroke: #000000; stroke-width: 0.8"/>
      </g>
     </g>
     <g id="text_4">
      <!-- 15 -->
      <g transform="translate(245.25125 338.797656) scale(0.15 -0.15)">
       <use xlink:href="#DejaVuSans-31"/>
       <use xlink:href="#DejaVuSans-35" x="63.623047"/>
      </g>
     </g>
    </g>
    <g id="xtick_5">
     <g id="line2d_5">
      <g>
       <use xlink:href="#me8cf206dda" x="313.976818" y="320.4" style="stroke: #000000; stroke-width: 0.8"/>
      </g>
     </g>
     <g id="text_5">
      <!-- 20 -->
      <g transform="translate(304.433068 338.797656) scale(0.15 -0.15)">
       <defs>
        <path id="DejaVuSans-32" d="M 1228 531 
L 3431 531 
L 3431 0 
L 469 0 
L 469 531 
Q 828 903 1448 1529 
Q 2069 2156 2228 2338 
Q 2531 2678 2651 2914 
Q 2772 3150 2772 3378 
Q 2772 3750 2511 3984 
Q 2250 4219 1831 4219 
Q 1534 4219 1204 4116 
Q 875 4013 500 3803 
L 500 4441 
Q 881 4594 1212 4672 
Q 1544 4750 1819 4750 
Q 2544 4750 2975 4387 
Q 3406 4025 3406 3419 
Q 3406 3131 3298 2873 
Q 3191 2616 2906 2266 
Q 2828 2175 2409 1742 
Q 1991 1309 1228 531 
z
" transform="scale(0.015625)"/>
       </defs>
       <use xlink:href="#DejaVuSans-32"/>
       <use xlink:href="#DejaVuSans-30" x="63.623047"/>
      </g>
     </g>
    </g>
    <g id="xtick_6">
     <g id="line2d_6">
      <g>
       <use xlink:href="#me8cf206dda" x="373.158636" y="320.4" style="stroke: #000000; stroke-width: 0.8"/>
      </g>
     </g>
     <g id="text_6">
      <!-- 25 -->
      <g transform="translate(363.614886 338.797656) scale(0.15 -0.15)">
       <use xlink:href="#DejaVuSans-32"/>
       <use xlink:href="#DejaVuSans-35" x="63.623047"/>
      </g>
     </g>
    </g>
    <g id="xtick_7">
     <g id="line2d_7">
      <g>
       <use xlink:href="#me8cf206dda" x="432.340455" y="320.4" style="stroke: #000000; stroke-width: 0.8"/>
      </g>
     </g>
     <g id="text_7">
      <!-- 30 -->
      <g transform="translate(422.796705 338.797656) scale(0.15 -0.15)">
       <defs>
        <path id="DejaVuSans-33" d="M 2597 2516 
Q 3050 2419 3304 2112 
Q 3559 1806 3559 1356 
Q 3559 666 3084 287 
Q 2609 -91 1734 -91 
Q 1441 -91 1130 -33 
Q 819 25 488 141 
L 488 750 
Q 750 597 1062 519 
Q 1375 441 1716 441 
Q 2309 441 2620 675 
Q 2931 909 2931 1356 
Q 2931 1769 2642 2001 
Q 2353 2234 1838 2234 
L 1294 2234 
L 1294 2753 
L 1863 2753 
Q 2328 2753 2575 2939 
Q 2822 3125 2822 3475 
Q 2822 3834 2567 4026 
Q 2313 4219 1838 4219 
Q 1578 4219 1281 4162 
Q 984 4106 628 3988 
L 628 4550 
Q 988 4650 1302 4700 
Q 1616 4750 1894 4750 
Q 2613 4750 3031 4423 
Q 3450 4097 3450 3541 
Q 3450 3153 3228 2886 
Q 3006 2619 2597 2516 
z
" transform="scale(0.015625)"/>
       </defs>
       <use xlink:href="#DejaVuSans-33"/>
       <use xlink:href="#DejaVuSans-30" x="63.623047"/>
      </g>
     </g>
    </g>
    <g id="text_8">
     <!-- time [hr] -->
     <g transform="translate(209.720469 359.594375) scale(0.18 -0.18)">
      <defs>
       <path id="DejaVuSans-Bold-74" d="M 1759 4494 
L 1759 3500 
L 2913 3500 
L 2913 2700 
L 1759 2700 
L 1759 1216 
Q 1759 972 1856 886 
Q 1953 800 2241 800 
L 2816 800 
L 2816 0 
L 1856 0 
Q 1194 0 917 276 
Q 641 553 641 1216 
L 641 2700 
L 84 2700 
L 84 3500 
L 641 3500 
L 641 4494 
L 1759 4494 
z
" transform="scale(0.015625)"/>
       <path id="DejaVuSans-Bold-69" d="M 538 3500 
L 1656 3500 
L 1656 0 
L 538 0 
L 538 3500 
z
M 538 4863 
L 1656 4863 
L 1656 3950 
L 538 3950 
L 538 4863 
z
" transform="scale(0.015625)"/>
       <path id="DejaVuSans-Bold-6d" d="M 3781 2919 
Q 3994 3244 4286 3414 
Q 4578 3584 4928 3584 
Q 5531 3584 5847 3212 
Q 6163 2841 6163 2131 
L 6163 0 
L 5038 0 
L 5038 1825 
Q 5041 1866 5042 1909 
Q 5044 1953 5044 2034 
Q 5044 2406 4934 2573 
Q 4825 2741 4581 2741 
Q 4263 2741 4089 2478 
Q 3916 2216 3909 1719 
L 3909 0 
L 2784 0 
L 2784 1825 
Q 2784 2406 2684 2573 
Q 2584 2741 2328 2741 
Q 2006 2741 1831 2477 
Q 1656 2213 1656 1722 
L 1656 0 
L 531 0 
L 531 3500 
L 1656 3500 
L 1656 2988 
Q 1863 3284 2130 3434 
Q 2397 3584 2719 3584 
Q 3081 3584 3359 3409 
Q 3638 3234 3781 2919 
z
" transform="scale(0.015625)"/>
       <path id="DejaVuSans-Bold-65" d="M 4031 1759 
L 4031 1441 
L 1416 1441 
Q 1456 1047 1700 850 
Q 1944 653 2381 653 
Q 2734 653 3104 758 
Q 3475 863 3866 1075 
L 3866 213 
Q 3469 63 3072 -14 
Q 2675 -91 2278 -91 
Q 1328 -91 801 392 
Q 275 875 275 1747 
Q 275 2603 792 3093 
Q 1309 3584 2216 3584 
Q 3041 3584 3536 3087 
Q 4031 2591 4031 1759 
z
M 2881 2131 
Q 2881 2450 2695 2645 
Q 2509 2841 2209 2841 
Q 1884 2841 1681 2658 
Q 1478 2475 1428 2131 
L 2881 2131 
z
" transform="scale(0.015625)"/>
       <path id="DejaVuSans-Bold-20" transform="scale(0.015625)"/>
       <path id="DejaVuSans-Bold-5b" d="M 550 4863 
L 2491 4863 
L 2491 4159 
L 1613 4159 
L 1613 -141 
L 2491 -141 
L 2491 -844 
L 550 -844 
L 550 4863 
z
" transform="scale(0.015625)"/>
       <path id="DejaVuSans-Bold-68" d="M 4056 2131 
L 4056 0 
L 2931 0 
L 2931 347 
L 2931 1625 
Q 2931 2084 2911 2256 
Q 2891 2428 2841 2509 
Q 2775 2619 2662 2680 
Q 2550 2741 2406 2741 
Q 2056 2741 1856 2470 
Q 1656 2200 1656 1722 
L 1656 0 
L 538 0 
L 538 4863 
L 1656 4863 
L 1656 2988 
Q 1909 3294 2193 3439 
Q 2478 3584 2822 3584 
Q 3428 3584 3742 3212 
Q 4056 2841 4056 2131 
z
" transform="scale(0.015625)"/>
       <path id="DejaVuSans-Bold-72" d="M 3138 2547 
Q 2991 2616 2845 2648 
Q 2700 2681 2553 2681 
Q 2122 2681 1889 2404 
Q 1656 2128 1656 1613 
L 1656 0 
L 538 0 
L 538 3500 
L 1656 3500 
L 1656 2925 
Q 1872 3269 2151 3426 
Q 2431 3584 2822 3584 
Q 2878 3584 2943 3579 
Q 3009 3575 3134 3559 
L 3138 2547 
z
" transform="scale(0.015625)"/>
       <path id="DejaVuSans-Bold-5d" d="M 2375 -844 
L 434 -844 
L 434 -141 
L 1313 -141 
L 1313 4159 
L 434 4159 
L 434 4863 
L 2375 4863 
L 2375 -844 
z
" transform="scale(0.015625)"/>
      </defs>
      <use xlink:href="#DejaVuSans-Bold-74"/>
      <use xlink:href="#DejaVuSans-Bold-69" x="47.802734"/>
      <use xlink:href="#DejaVuSans-Bold-6d" x="82.080078"/>
      <use xlink:href="#DejaVuSans-Bold-65" x="186.279297"/>
      <use xlink:href="#DejaVuSans-Bold-20" x="254.101562"/>
      <use xlink:href="#DejaVuSans-Bold-5b" x="288.916016"/>
      <use xlink:href="#DejaVuSans-Bold-68" x="334.619141"/>
      <use xlink:href="#DejaVuSans-Bold-72" x="405.810547"/>
      <use xlink:href="#DejaVuSans-Bold-5d" x="455.126953"/>
     </g>
    </g>
   </g>
   <g id="matplotlib.axis_2">
    <g id="ytick_1">
     <g id="line2d_8">
      <defs>
       <path id="m1f6543e56c" d="M 0 0 
L -3.5 0 
" style="stroke: #000000; stroke-width: 0.8"/>
      </defs>
      <g>
       <use xlink:href="#m1f6543e56c" x="59.495" y="307.8" style="stroke: #000000; stroke-width: 0.8"/>
      </g>
     </g>
     <g id="text_9">
      <!-- 0.0 -->
      <g transform="translate(28.640313 313.498828) scale(0.15 -0.15)">
       <defs>
        <path id="DejaVuSans-2e" d="M 684 794 
L 1344 794 
L 1344 0 
L 684 0 
L 684 794 
z
" transform="scale(0.015625)"/>
       </defs>
       <use xlink:href="#DejaVuSans-30"/>
       <use xlink:href="#DejaVuSans-2e" x="63.623047"/>
       <use xlink:href="#DejaVuSans-30" x="95.410156"/>
      </g>
     </g>
    </g>
    <g id="ytick_2">
     <g id="line2d_9">
      <g>
       <use xlink:href="#m1f6543e56c" x="59.495" y="263.03653" style="stroke: #000000; stroke-width: 0.8"/>
      </g>
     </g>
     <g id="text_10">
      <!-- 0.1 -->
      <g transform="translate(28.640313 268.735358) scale(0.15 -0.15)">
       <use xlink:href="#DejaVuSans-30"/>
       <use xlink:href="#DejaVuSans-2e" x="63.623047"/>
       <use xlink:href="#DejaVuSans-31" x="95.410156"/>
      </g>
     </g>
    </g>
    <g id="ytick_3">
     <g id="line2d_10">
      <g>
       <use xlink:href="#m1f6543e56c" x="59.495" y="218.27306" style="stroke: #000000; stroke-width: 0.8"/>
      </g>
     </g>
     <g id="text_11">
      <!-- 0.2 -->
      <g transform="translate(28.640313 223.971888) scale(0.15 -0.15)">
       <use xlink:href="#DejaVuSans-30"/>
       <use xlink:href="#DejaVuSans-2e" x="63.623047"/>
       <use xlink:href="#DejaVuSans-32" x="95.410156"/>
      </g>
     </g>
    </g>
    <g id="ytick_4">
     <g id="line2d_11">
      <g>
       <use xlink:href="#m1f6543e56c" x="59.495" y="173.50959" style="stroke: #000000; stroke-width: 0.8"/>
      </g>
     </g>
     <g id="text_12">
      <!-- 0.3 -->
      <g transform="translate(28.640313 179.208418) scale(0.15 -0.15)">
       <use xlink:href="#DejaVuSans-30"/>
       <use xlink:href="#DejaVuSans-2e" x="63.623047"/>
       <use xlink:href="#DejaVuSans-33" x="95.410156"/>
      </g>
     </g>
    </g>
    <g id="ytick_5">
     <g id="line2d_12">
      <g>
       <use xlink:href="#m1f6543e56c" x="59.495" y="128.74612" style="stroke: #000000; stroke-width: 0.8"/>
      </g>
     </g>
     <g id="text_13">
      <!-- 0.4 -->
      <g transform="translate(28.640313 134.444948) scale(0.15 -0.15)">
       <defs>
        <path id="DejaVuSans-34" d="M 2419 4116 
L 825 1625 
L 2419 1625 
L 2419 4116 
z
M 2253 4666 
L 3047 4666 
L 3047 1625 
L 3713 1625 
L 3713 1100 
L 3047 1100 
L 3047 0 
L 2419 0 
L 2419 1100 
L 313 1100 
L 313 1709 
L 2253 4666 
z
" transform="scale(0.015625)"/>
       </defs>
       <use xlink:href="#DejaVuSans-30"/>
       <use xlink:href="#DejaVuSans-2e" x="63.623047"/>
       <use xlink:href="#DejaVuSans-34" x="95.410156"/>
      </g>
     </g>
    </g>
    <g id="ytick_6">
     <g id="line2d_13">
      <g>
       <use xlink:href="#m1f6543e56c" x="59.495" y="83.98265" style="stroke: #000000; stroke-width: 0.8"/>
      </g>
     </g>
     <g id="text_14">
      <!-- 0.5 -->
      <g transform="translate(28.640313 89.681478) scale(0.15 -0.15)">
       <use xlink:href="#DejaVuSans-30"/>
       <use xlink:href="#DejaVuSans-2e" x="63.623047"/>
       <use xlink:href="#DejaVuSans-35" x="95.410156"/>
      </g>
     </g>
    </g>
    <g id="text_15">
     <!-- rivaroxaban plasma [µM] -->
     <g transform="translate(20.877187 309.166875) rotate(-90) scale(0.18 -0.18)">
      <defs>
       <path id="DejaVuSans-Bold-76" d="M 97 3500 
L 1216 3500 
L 2088 1081 
L 2956 3500 
L 4078 3500 
L 2700 0 
L 1472 0 
L 97 3500 
z
" transform="scale(0.015625)"/>
       <path id="DejaVuSans-Bold-61" d="M 2106 1575 
Q 1756 1575 1579 1456 
Q 1403 1338 1403 1106 
Q 1403 894 1545 773 
Q 1688 653 1941 653 
Q 2256 653 2472 879 
Q 2688 1106 2688 1447 
L 2688 1575 
L 2106 1575 
z
M 3816 1997 
L 3816 0 
L 2688 0 
L 2688 519 
Q 2463 200 2181 54 
Q 1900 -91 1497 -91 
Q 953 -91 614 226 
Q 275 544 275 1050 
Q 275 1666 698 1953 
Q 1122 2241 2028 2241 
L 2688 2241 
L 2688 2328 
Q 2688 2594 2478 2717 
Q 2269 2841 1825 2841 
Q 1466 2841 1156 2769 
Q 847 2697 581 2553 
L 581 3406 
Q 941 3494 1303 3539 
Q 1666 3584 2028 3584 
Q 2975 3584 3395 3211 
Q 3816 2838 3816 1997 
z
" transform="scale(0.015625)"/>
       <path id="DejaVuSans-Bold-6f" d="M 2203 2784 
Q 1831 2784 1636 2517 
Q 1441 2250 1441 1747 
Q 1441 1244 1636 976 
Q 1831 709 2203 709 
Q 2569 709 2762 976 
Q 2956 1244 2956 1747 
Q 2956 2250 2762 2517 
Q 2569 2784 2203 2784 
z
M 2203 3584 
Q 3106 3584 3614 3096 
Q 4122 2609 4122 1747 
Q 4122 884 3614 396 
Q 3106 -91 2203 -91 
Q 1297 -91 786 396 
Q 275 884 275 1747 
Q 275 2609 786 3096 
Q 1297 3584 2203 3584 
z
" transform="scale(0.015625)"/>
       <path id="DejaVuSans-Bold-78" d="M 1422 1791 
L 159 3500 
L 1344 3500 
L 2059 2463 
L 2784 3500 
L 3969 3500 
L 2706 1797 
L 4031 0 
L 2847 0 
L 2059 1106 
L 1281 0 
L 97 0 
L 1422 1791 
z
" transform="scale(0.015625)"/>
       <path id="DejaVuSans-Bold-62" d="M 2400 722 
Q 2759 722 2948 984 
Q 3138 1247 3138 1747 
Q 3138 2247 2948 2509 
Q 2759 2772 2400 2772 
Q 2041 2772 1848 2508 
Q 1656 2244 1656 1747 
Q 1656 1250 1848 986 
Q 2041 722 2400 722 
z
M 1656 2988 
Q 1888 3294 2169 3439 
Q 2450 3584 2816 3584 
Q 3463 3584 3878 3070 
Q 4294 2556 4294 1747 
Q 4294 938 3878 423 
Q 3463 -91 2816 -91 
Q 2450 -91 2169 54 
Q 1888 200 1656 506 
L 1656 0 
L 538 0 
L 538 4863 
L 1656 4863 
L 1656 2988 
z
" transform="scale(0.015625)"/>
       <path id="DejaVuSans-Bold-6e" d="M 4056 2131 
L 4056 0 
L 2931 0 
L 2931 347 
L 2931 1631 
Q 2931 2084 2911 2256 
Q 2891 2428 2841 2509 
Q 2775 2619 2662 2680 
Q 2550 2741 2406 2741 
Q 2056 2741 1856 2470 
Q 1656 2200 1656 1722 
L 1656 0 
L 538 0 
L 538 3500 
L 1656 3500 
L 1656 2988 
Q 1909 3294 2193 3439 
Q 2478 3584 2822 3584 
Q 3428 3584 3742 3212 
Q 4056 2841 4056 2131 
z
" transform="scale(0.015625)"/>
       <path id="DejaVuSans-Bold-70" d="M 1656 506 
L 1656 -1331 
L 538 -1331 
L 538 3500 
L 1656 3500 
L 1656 2988 
Q 1888 3294 2169 3439 
Q 2450 3584 2816 3584 
Q 3463 3584 3878 3070 
Q 4294 2556 4294 1747 
Q 4294 938 3878 423 
Q 3463 -91 2816 -91 
Q 2450 -91 2169 54 
Q 1888 200 1656 506 
z
M 2400 2772 
Q 2041 2772 1848 2508 
Q 1656 2244 1656 1747 
Q 1656 1250 1848 986 
Q 2041 722 2400 722 
Q 2759 722 2948 984 
Q 3138 1247 3138 1747 
Q 3138 2247 2948 2509 
Q 2759 2772 2400 2772 
z
" transform="scale(0.015625)"/>
       <path id="DejaVuSans-Bold-6c" d="M 538 4863 
L 1656 4863 
L 1656 0 
L 538 0 
L 538 4863 
z
" transform="scale(0.015625)"/>
       <path id="DejaVuSans-Bold-73" d="M 3272 3391 
L 3272 2541 
Q 2913 2691 2578 2766 
Q 2244 2841 1947 2841 
Q 1628 2841 1473 2761 
Q 1319 2681 1319 2516 
Q 1319 2381 1436 2309 
Q 1553 2238 1856 2203 
L 2053 2175 
Q 2913 2066 3209 1816 
Q 3506 1566 3506 1031 
Q 3506 472 3093 190 
Q 2681 -91 1863 -91 
Q 1516 -91 1145 -36 
Q 775 19 384 128 
L 384 978 
Q 719 816 1070 734 
Q 1422 653 1784 653 
Q 2113 653 2278 743 
Q 2444 834 2444 1013 
Q 2444 1163 2330 1236 
Q 2216 1309 1875 1350 
L 1678 1375 
Q 931 1469 631 1722 
Q 331 1975 331 2491 
Q 331 3047 712 3315 
Q 1094 3584 1881 3584 
Q 2191 3584 2531 3537 
Q 2872 3491 3272 3391 
z
" transform="scale(0.015625)"/>
       <path id="DejaVuSans-Bold-b5" d="M 544 -1338 
L 544 3500 
L 1672 3500 
L 1672 1466 
Q 1672 1103 1828 926 
Q 1984 750 2303 750 
Q 2625 750 2781 926 
Q 2938 1103 2938 1466 
L 2938 3500 
L 4063 3500 
L 4063 1159 
Q 4063 938 4114 850 
Q 4166 763 4288 763 
Q 4344 763 4395 778 
Q 4447 794 4506 831 
L 4506 50 
Q 4341 -22 4195 -56 
Q 4050 -91 3909 -91 
Q 3631 -91 3454 26 
Q 3278 144 3169 403 
Q 3022 156 2811 32 
Q 2600 -91 2322 -91 
Q 2091 -91 1928 -17 
Q 1766 56 1672 206 
L 1672 -1338 
L 544 -1338 
z
" transform="scale(0.015625)"/>
       <path id="DejaVuSans-Bold-4d" d="M 588 4666 
L 2119 4666 
L 3181 2169 
L 4250 4666 
L 5778 4666 
L 5778 0 
L 4641 0 
L 4641 3413 
L 3566 897 
L 2803 897 
L 1728 3413 
L 1728 0 
L 588 0 
L 588 4666 
z
" transform="scale(0.015625)"/>
      </defs>
      <use xlink:href="#DejaVuSans-Bold-72"/>
      <use xlink:href="#DejaVuSans-Bold-69" x="49.316406"/>
      <use xlink:href="#DejaVuSans-Bold-76" x="83.59375"/>
      <use xlink:href="#DejaVuSans-Bold-61" x="148.779297"/>
      <use xlink:href="#DejaVuSans-Bold-72" x="216.259766"/>
      <use xlink:href="#DejaVuSans-Bold-6f" x="265.576172"/>
      <use xlink:href="#DejaVuSans-Bold-78" x="334.277344"/>
      <use xlink:href="#DejaVuSans-Bold-61" x="398.779297"/>
      <use xlink:href="#DejaVuSans-Bold-62" x="466.259766"/>
      <use xlink:href="#DejaVuSans-Bold-61" x="537.841797"/>
      <use xlink:href="#DejaVuSans-Bold-6e" x="605.322266"/>
      <use xlink:href="#DejaVuSans-Bold-20" x="676.513672"/>
      <use xlink:href="#DejaVuSans-Bold-70" x="711.328125"/>
      <use xlink:href="#DejaVuSans-Bold-6c" x="782.910156"/>
      <use xlink:href="#DejaVuSans-Bold-61" x="817.1875"/>
      <use xlink:href="#DejaVuSans-Bold-73" x="884.667969"/>
      <use xlink:href="#DejaVuSans-Bold-6d" x="944.189453"/>
      <use xlink:href="#DejaVuSans-Bold-61" x="1048.388672"/>
      <use xlink:href="#DejaVuSans-Bold-20" x="1115.869141"/>
      <use xlink:href="#DejaVuSans-Bold-5b" x="1150.683594"/>
      <use xlink:href="#DejaVuSans-Bold-b5" x="1196.386719"/>
      <use xlink:href="#DejaVuSans-Bold-4d" x="1269.970703"/>
      <use xlink:href="#DejaVuSans-Bold-5d" x="1369.482422"/>
     </g>
    </g>
   </g>
   <g id="LineCollection_1">
    <path clip-path="url(#p6bddc0b488)" style="fill: none; stroke: #a35ac7"/>
    <path clip-path="url(#p6bddc0b488)" style="fill: none; stroke: #a35ac7"/>
    <path clip-path="url(#p6bddc0b488)" style="fill: none; stroke: #a35ac7"/>
    <path clip-path="url(#p6bddc0b488)" style="fill: none; stroke: #a35ac7"/>
    <path clip-path="url(#p6bddc0b488)" style="fill: none; stroke: #a35ac7"/>
    <path clip-path="url(#p6bddc0b488)" style="fill: none; stroke: #a35ac7"/>
    <path clip-path="url(#p6bddc0b488)" style="fill: none; stroke: #a35ac7"/>
    <path clip-path="url(#p6bddc0b488)" style="fill: none; stroke: #a35ac7"/>
    <path clip-path="url(#p6bddc0b488)" style="fill: none; stroke: #a35ac7"/>
    <path clip-path="url(#p6bddc0b488)" style="fill: none; stroke: #a35ac7"/>
    <path clip-path="url(#p6bddc0b488)" style="fill: none; stroke: #a35ac7"/>
    <path clip-path="url(#p6bddc0b488)" style="fill: none; stroke: #a35ac7"/>
    <path clip-path="url(#p6bddc0b488)" style="fill: none; stroke: #a35ac7"/>
    <path clip-path="url(#p6bddc0b488)" style="fill: none; stroke: #a35ac7"/>
   </g>
   <g id="LineCollection_2">
    <path clip-path="url(#p6bddc0b488)" style="fill: none; stroke: #ddb8ea"/>
    <path clip-path="url(#p6bddc0b488)" style="fill: none; stroke: #ddb8ea"/>
    <path clip-path="url(#p6bddc0b488)" style="fill: none; stroke: #ddb8ea"/>
    <path clip-path="url(#p6bddc0b488)" style="fill: none; stroke: #ddb8ea"/>
    <path clip-path="url(#p6bddc0b488)" style="fill: none; stroke: #ddb8ea"/>
    <path clip-path="url(#p6bddc0b488)" style="fill: none; stroke: #ddb8ea"/>
    <path clip-path="url(#p6bddc0b488)" style="fill: none; stroke: #ddb8ea"/>
    <path clip-path="url(#p6bddc0b488)" style="fill: none; stroke: #ddb8ea"/>
    <path clip-path="url(#p6bddc0b488)" style="fill: none; stroke: #ddb8ea"/>
    <path clip-path="url(#p6bddc0b488)" style="fill: none; stroke: #ddb8ea"/>
    <path clip-path="url(#p6bddc0b488)" style="fill: none; stroke: #ddb8ea"/>
    <path clip-path="url(#p6bddc0b488)" style="fill: none; stroke: #ddb8ea"/>
    <path clip-path="url(#p6bddc0b488)" style="fill: none; stroke: #ddb8ea"/>
    <path clip-path="url(#p6bddc0b488)" style="fill: none; stroke: #ddb8ea"/>
    <path clip-path="url(#p6bddc0b488)" style="fill: none; stroke: #ddb8ea"/>
   </g>
   <g id="LineCollection_3">
    <path clip-path="url(#p6bddc0b488)" style="fill: none; stroke: #ddb8ea"/>
    <path clip-path="url(#p6bddc0b488)" style="fill: none; stroke: #ddb8ea"/>
    <path clip-path="url(#p6bddc0b488)" style="fill: none; stroke: #ddb8ea"/>
    <path clip-path="url(#p6bddc0b488)" style="fill: none; stroke: #ddb8ea"/>
    <path clip-path="url(#p6bddc0b488)" style="fill: none; stroke: #ddb8ea"/>
    <path clip-path="url(#p6bddc0b488)" style="fill: none; stroke: #ddb8ea"/>
    <path clip-path="url(#p6bddc0b488)" style="fill: none; stroke: #ddb8ea"/>
    <path clip-path="url(#p6bddc0b488)" style="fill: none; stroke: #ddb8ea"/>
    <path clip-path="url(#p6bddc0b488)" style="fill: none; stroke: #ddb8ea"/>
    <path clip-path="url(#p6bddc0b488)" style="fill: none; stroke: #ddb8ea"/>
    <path clip-path="url(#p6bddc0b488)" style="fill: none; stroke: #ddb8ea"/>
    <path clip-path="url(#p6bddc0b488)" style="fill: none; stroke: #ddb8ea"/>
   </g>
   <g id="line2d_14">
    <path d="M 77.249545 307.8 
L 77.959727 306.308597 
L 78.669909 301.290485 
L 79.380091 293.539346 
L 80.800455 272.789848 
L 86.481909 177.804339 
L 87.902273 158.2129 
L 89.322636 141.153396 
L 90.743 126.595015 
L 92.163364 114.400889 
L 93.583727 104.378239 
L 95.004091 96.310358 
L 96.424455 89.976487 
L 97.844818 85.163652 
L 99.265182 81.673266 
L 99.975364 80.366705 
L 100.685545 79.324341 
L 101.395727 78.526473 
L 102.105909 77.954563 
L 102.816091 77.591202 
L 103.526273 77.420077 
L 104.236455 77.425929 
L 104.946636 77.594508 
L 105.656818 77.912522 
L 107.077182 78.948193 
L 108.497545 80.443934 
L 109.917909 82.322957 
L 111.338273 84.519225 
L 113.468818 88.286822 
L 116.309545 93.957464 
L 119.860455 101.700943 
L 126.252091 116.403414 
L 134.064091 134.256961 
L 139.035364 145.106545 
L 144.006636 155.423841 
L 148.977909 165.1706 
L 153.239 173.066637 
L 157.500091 180.547595 
L 161.761182 187.626892 
L 166.022273 194.320883 
L 170.283364 200.647304 
L 174.544455 206.62433 
L 178.805545 212.270009 
L 183.776818 218.461282 
L 188.748091 224.252296 
L 193.719364 229.668504 
L 198.690636 234.73392 
L 203.661909 239.471124 
L 208.633182 243.901302 
L 213.604455 248.044308 
L 218.575727 251.918729 
L 223.547 255.541962 
L 229.228455 259.396054 
L 234.909909 262.96591 
L 240.591364 266.272488 
L 246.272818 269.335204 
L 252.664455 272.511608 
L 259.056091 275.425706 
L 265.447727 278.09916 
L 272.549545 280.811541 
L 279.651364 283.276218 
L 286.753182 285.515812 
L 294.565182 287.743872 
L 302.377182 289.749161 
L 310.899364 291.708793 
L 320.131727 293.592398 
L 330.074273 295.375072 
L 340.016818 296.934068 
L 350.669545 298.38802 
L 362.742636 299.802082 
L 375.525909 301.06847 
L 389.729545 302.241822 
L 405.353545 303.297714 
L 422.397909 304.222204 
L 432.340455 304.671122 
L 432.340455 304.671122 
" clip-path="url(#p6bddc0b488)" style="fill: none; stroke: #a35ac7; stroke-width: 2; stroke-linecap: square"/>
   </g>
   <g id="line2d_15">
    <path d="M 81.984091 304.548387 
L 85.535 296.419355 
L 87.902273 284.225806 
L 91.453182 272.032258 
L 95.004091 247.645161 
L 100.922273 195.619355 
L 106.840455 103.76129 
L 112.758636 74.496774 
L 123.411364 55.8 
L 147.084091 140.341935 
L 170.756818 194.806452 
L 219.285909 247.645161 
L 254.795 274.470968 
L 361.322273 296.419355 
" clip-path="url(#p6bddc0b488)" style="fill: none; stroke-dasharray: 3.7,1.6; stroke-dashoffset: 0; stroke: #a35ac7"/>
    <defs>
     <path id="m7d2a78c915" d="M -3 3 
L 3 3 
L 3 -3 
L -3 -3 
z
" style="stroke: #000000; stroke-linejoin: miter"/>
    </defs>
    <g clip-path="url(#p6bddc0b488)">
     <use xlink:href="#m7d2a78c915" x="81.984091" y="304.548387" style="fill: #a35ac7; stroke: #000000; stroke-linejoin: miter"/>
     <use xlink:href="#m7d2a78c915" x="85.535" y="296.419355" style="fill: #a35ac7; stroke: #000000; stroke-linejoin: miter"/>
     <use xlink:href="#m7d2a78c915" x="87.902273" y="284.225806" style="fill: #a35ac7; stroke: #000000; stroke-linejoin: miter"/>
     <use xlink:href="#m7d2a78c915" x="91.453182" y="272.032258" style="fill: #a35ac7; stroke: #000000; stroke-linejoin: miter"/>
     <use xlink:href="#m7d2a78c915" x="95.004091" y="247.645161" style="fill: #a35ac7; stroke: #000000; stroke-linejoin: miter"/>
     <use xlink:href="#m7d2a78c915" x="100.922273" y="195.619355" style="fill: #a35ac7; stroke: #000000; stroke-linejoin: miter"/>
     <use xlink:href="#m7d2a78c915" x="106.840455" y="103.76129" style="fill: #a35ac7; stroke: #000000; stroke-linejoin: miter"/>
     <use xlink:href="#m7d2a78c915" x="112.758636" y="74.496774" style="fill: #a35ac7; stroke: #000000; stroke-linejoin: miter"/>
     <use xlink:href="#m7d2a78c915" x="123.411364" y="55.8" style="fill: #a35ac7; stroke: #000000; stroke-linejoin: miter"/>
     <use xlink:href="#m7d2a78c915" x="147.084091" y="140.341935" style="fill: #a35ac7; stroke: #000000; stroke-linejoin: miter"/>
     <use xlink:href="#m7d2a78c915" x="170.756818" y="194.806452" style="fill: #a35ac7; stroke: #000000; stroke-linejoin: miter"/>
     <use xlink:href="#m7d2a78c915" x="219.285909" y="247.645161" style="fill: #a35ac7; stroke: #000000; stroke-linejoin: miter"/>
     <use xlink:href="#m7d2a78c915" x="254.795" y="274.470968" style="fill: #a35ac7; stroke: #000000; stroke-linejoin: miter"/>
     <use xlink:href="#m7d2a78c915" x="361.322273" y="296.419355" style="fill: #a35ac7; stroke: #000000; stroke-linejoin: miter"/>
    </g>
   </g>
   <g id="line2d_16">
    <path d="M 77.249545 307.8 
L 77.959727 306.577049 
L 78.669909 302.462198 
L 79.380091 296.106264 
L 80.800455 279.091675 
L 86.481909 201.203558 
L 87.902273 185.138578 
L 89.322636 171.149785 
L 90.743 159.211912 
L 92.163364 149.212729 
L 93.583727 140.994156 
L 95.004091 134.378494 
L 96.424455 129.184719 
L 97.844818 125.238194 
L 99.265182 122.376078 
L 99.975364 121.304698 
L 100.685545 120.449959 
L 101.395727 119.795708 
L 102.105909 119.326741 
L 102.816091 119.028785 
L 103.526273 118.888463 
L 104.236455 118.893262 
L 104.946636 119.031496 
L 106.367 119.665424 
L 107.787364 120.711771 
L 109.207727 122.102716 
L 110.628091 123.779848 
L 112.758636 126.724399 
L 114.889182 130.061686 
L 117.729909 134.934793 
L 121.991 142.770819 
L 136.194636 169.357313 
L 141.165909 178.073262 
L 146.137182 186.334812 
L 151.108455 194.124357 
L 156.079727 201.445437 
L 161.051 208.31287 
L 166.022273 214.747124 
L 170.993545 220.771143 
L 175.964818 226.408571 
L 180.936091 231.682773 
L 185.907364 236.616325 
L 190.878636 241.230751 
L 195.849909 245.546421 
L 200.821182 249.582519 
L 205.792455 253.357067 
L 211.473909 257.372196 
L 217.155364 261.09126 
L 222.836818 264.536068 
L 228.518273 267.726833 
L 234.199727 270.682282 
L 240.591364 273.74744 
L 246.983 276.559482 
L 253.374636 279.139309 
L 260.476455 281.756699 
L 267.578273 284.135061 
L 275.390273 286.501173 
L 283.202273 288.630712 
L 291.724455 290.711765 
L 300.246636 292.566895 
L 309.479 294.350052 
L 319.421545 296.037661 
L 330.074273 297.611559 
L 341.437182 299.058968 
L 353.510273 300.372227 
L 367.003727 301.607922 
L 381.917545 302.735973 
L 398.251727 303.737087 
L 416.006273 304.602129 
L 432.340455 305.23432 
L 432.340455 305.23432 
" clip-path="url(#p6bddc0b488)" style="fill: none; stroke: #ddb8ea; stroke-width: 2; stroke-linecap: square"/>
   </g>
   <g id="line2d_17">
    <path d="M 77.249545 307.8 
L 81.984091 289.916129 
L 85.535 262.277419 
L 89.085909 237.890323 
L 91.453182 215.129032 
L 95.004091 203.748387 
L 100.922273 184.23871 
L 106.840455 172.858065 
L 112.758636 172.045161 
L 124.595 176.109677 
L 148.267727 225.696774 
L 171.940455 243.580645 
L 219.285909 262.277419 
L 254.795 277.722581 
L 361.322273 293.167742 
" clip-path="url(#p6bddc0b488)" style="fill: none; stroke-dasharray: 3.7,1.6; stroke-dashoffset: 0; stroke: #ddb8ea"/>
    <defs>
     <path id="md88bce297e" d="M -3 3 
L 3 3 
L 3 -3 
L -3 -3 
z
" style="stroke: #000000; stroke-linejoin: miter"/>
    </defs>
    <g clip-path="url(#p6bddc0b488)">
     <use xlink:href="#md88bce297e" x="77.249545" y="307.8" style="fill: #ddb8ea; stroke: #000000; stroke-linejoin: miter"/>
     <use xlink:href="#md88bce297e" x="81.984091" y="289.916129" style="fill: #ddb8ea; stroke: #000000; stroke-linejoin: miter"/>
     <use xlink:href="#md88bce297e" x="85.535" y="262.277419" style="fill: #ddb8ea; stroke: #000000; stroke-linejoin: miter"/>
     <use xlink:href="#md88bce297e" x="89.085909" y="237.890323" style="fill: #ddb8ea; stroke: #000000; stroke-linejoin: miter"/>
     <use xlink:href="#md88bce297e" x="91.453182" y="215.129032" style="fill: #ddb8ea; stroke: #000000; stroke-linejoin: miter"/>
     <use xlink:href="#md88bce297e" x="95.004091" y="203.748387" style="fill: #ddb8ea; stroke: #000000; stroke-linejoin: miter"/>
     <use xlink:href="#md88bce297e" x="100.922273" y="184.23871" style="fill: #ddb8ea; stroke: #000000; stroke-linejoin: miter"/>
     <use xlink:href="#md88bce297e" x="106.840455" y="172.858065" style="fill: #ddb8ea; stroke: #000000; stroke-linejoin: miter"/>
     <use xlink:href="#md88bce297e" x="112.758636" y="172.045161" style="fill: #ddb8ea; stroke: #000000; stroke-linejoin: miter"/>
     <use xlink:href="#md88bce297e" x="124.595" y="176.109677" style="fill: #ddb8ea; stroke: #000000; stroke-linejoin: miter"/>
     <use xlink:href="#md88bce297e" x="148.267727" y="225.696774" style="fill: #ddb8ea; stroke: #000000; stroke-linejoin: miter"/>
     <use xlink:href="#md88bce297e" x="171.940455" y="243.580645" style="fill: #ddb8ea; stroke: #000000; stroke-linejoin: miter"/>
     <use xlink:href="#md88bce297e" x="219.285909" y="262.277419" style="fill: #ddb8ea; stroke: #000000; stroke-linejoin: miter"/>
     <use xlink:href="#md88bce297e" x="254.795" y="277.722581" style="fill: #ddb8ea; stroke: #000000; stroke-linejoin: miter"/>
     <use xlink:href="#md88bce297e" x="361.322273" y="293.167742" style="fill: #ddb8ea; stroke: #000000; stroke-linejoin: miter"/>
    </g>
   </g>
   <g id="line2d_18">
    <path d="M 77.249545 307.8 
L 77.959727 306.577049 
L 78.669909 302.462198 
L 79.380091 296.106264 
L 80.800455 279.091675 
L 86.481909 201.203558 
L 87.902273 185.138578 
L 89.322636 171.149785 
L 90.743 159.211912 
L 92.163364 149.212729 
L 93.583727 140.994156 
L 95.004091 134.378494 
L 96.424455 129.184719 
L 97.844818 125.238194 
L 99.265182 122.376078 
L 99.975364 121.304698 
L 100.685545 120.449959 
L 101.395727 119.795708 
L 102.105909 119.326741 
L 102.816091 119.028785 
L 103.526273 118.888463 
L 104.236455 118.893262 
L 104.946636 119.031496 
L 106.367 119.665424 
L 107.787364 120.711771 
L 109.207727 122.102716 
L 110.628091 123.779848 
L 112.758636 126.724399 
L 114.889182 130.061686 
L 117.729909 134.934793 
L 121.991 142.770819 
L 136.194636 169.357313 
L 141.165909 178.073262 
L 146.137182 186.334812 
L 151.108455 194.124357 
L 156.079727 201.445437 
L 161.051 208.31287 
L 166.022273 214.747124 
L 170.993545 220.771143 
L 175.964818 226.408571 
L 180.936091 231.682773 
L 185.907364 236.616325 
L 190.878636 241.230751 
L 195.849909 245.546421 
L 200.821182 249.582519 
L 205.792455 253.357067 
L 211.473909 257.372196 
L 217.155364 261.09126 
L 222.836818 264.536068 
L 228.518273 267.726833 
L 234.199727 270.682282 
L 240.591364 273.74744 
L 246.983 276.559482 
L 253.374636 279.139309 
L 260.476455 281.756699 
L 267.578273 284.135061 
L 275.390273 286.501173 
L 283.202273 288.630712 
L 291.724455 290.711765 
L 300.246636 292.566895 
L 309.479 294.350052 
L 319.421545 296.037661 
L 330.074273 297.611559 
L 341.437182 299.058968 
L 353.510273 300.372227 
L 367.003727 301.607922 
L 381.917545 302.735973 
L 398.251727 303.737087 
L 416.006273 304.602129 
L 432.340455 305.23432 
L 432.340455 305.23432 
" clip-path="url(#p6bddc0b488)" style="fill: none; stroke: #ddb8ea; stroke-width: 2; stroke-linecap: square"/>
   </g>
   <g id="line2d_19">
    <path d="M 82.064337 277.722581 
L 85.397655 238.703226 
L 88.730973 214.316129 
L 90.953184 208.625806 
L 106.508666 182.612903 
L 112.434564 180.174194 
L 123.915991 187.490323 
L 147.989951 232.2 
L 171.323174 245.206452 
L 219.100725 261.464516 
L 254.656112 275.283871 
L 361.322273 288.290323 
" clip-path="url(#p6bddc0b488)" style="fill: none; stroke-dasharray: 3.7,1.6; stroke-dashoffset: 0; stroke: #ddb8ea"/>
    <defs>
     <path id="m7def180b63" d="M 0 -3 
L -3 3 
L 3 3 
z
" style="stroke: #000000; stroke-linejoin: miter"/>
    </defs>
    <g clip-path="url(#p6bddc0b488)">
     <use xlink:href="#m7def180b63" x="82.064337" y="277.722581" style="fill: #ddb8ea; stroke: #000000; stroke-linejoin: miter"/>
     <use xlink:href="#m7def180b63" x="85.397655" y="238.703226" style="fill: #ddb8ea; stroke: #000000; stroke-linejoin: miter"/>
     <use xlink:href="#m7def180b63" x="88.730973" y="214.316129" style="fill: #ddb8ea; stroke: #000000; stroke-linejoin: miter"/>
     <use xlink:href="#m7def180b63" x="90.953184" y="208.625806" style="fill: #ddb8ea; stroke: #000000; stroke-linejoin: miter"/>
     <use xlink:href="#m7def180b63" x="106.508666" y="182.612903" style="fill: #ddb8ea; stroke: #000000; stroke-linejoin: miter"/>
     <use xlink:href="#m7def180b63" x="112.434564" y="180.174194" style="fill: #ddb8ea; stroke: #000000; stroke-linejoin: miter"/>
     <use xlink:href="#m7def180b63" x="123.915991" y="187.490323" style="fill: #ddb8ea; stroke: #000000; stroke-linejoin: miter"/>
     <use xlink:href="#m7def180b63" x="147.989951" y="232.2" style="fill: #ddb8ea; stroke: #000000; stroke-linejoin: miter"/>
     <use xlink:href="#m7def180b63" x="171.323174" y="245.206452" style="fill: #ddb8ea; stroke: #000000; stroke-linejoin: miter"/>
     <use xlink:href="#m7def180b63" x="219.100725" y="261.464516" style="fill: #ddb8ea; stroke: #000000; stroke-linejoin: miter"/>
     <use xlink:href="#m7def180b63" x="254.656112" y="275.283871" style="fill: #ddb8ea; stroke: #000000; stroke-linejoin: miter"/>
     <use xlink:href="#m7def180b63" x="361.322273" y="288.290323" style="fill: #ddb8ea; stroke: #000000; stroke-linejoin: miter"/>
    </g>
   </g>
   <g id="patch_3">
    <path d="M 59.495 320.4 
L 59.495 43.2 
" style="fill: none; stroke: #000000; stroke-width: 0.8; stroke-linejoin: miter; stroke-linecap: square"/>
   </g>
   <g id="patch_4">
    <path d="M 450.095 320.4 
L 450.095 43.2 
" style="fill: none; stroke: #000000; stroke-width: 0.8; stroke-linejoin: miter; stroke-linecap: square"/>
   </g>
   <g id="patch_5">
    <path d="M 59.495 320.4 
L 450.095 320.4 
" style="fill: none; stroke: #000000; stroke-width: 0.8; stroke-linejoin: miter; stroke-linecap: square"/>
   </g>
   <g id="patch_6">
    <path d="M 59.495 43.2 
L 450.095 43.2 
" style="fill: none; stroke: #000000; stroke-width: 0.8; stroke-linejoin: miter; stroke-linecap: square"/>
   </g>
   <g id="legend_1">
    <g id="patch_7">
     <path d="M 280.402812 139.26875 
L 443.095 139.26875 
Q 445.095 139.26875 445.095 137.26875 
L 445.095 50.2 
Q 445.095 48.2 443.095 48.2 
L 280.402812 48.2 
Q 278.402812 48.2 278.402812 50.2 
L 278.402812 137.26875 
Q 278.402812 139.26875 280.402812 139.26875 
z
" style="fill: #ffffff; opacity: 0.8; stroke: #cccccc; stroke-linejoin: miter"/>
    </g>
    <g id="line2d_20">
     <path d="M 282.402812 56.298437 
L 302.402812 56.298437 
" style="fill: none; stroke: #a35ac7; stroke-width: 2; stroke-linecap: square"/>
    </g>
    <g id="line2d_21"/>
    <g id="text_16">
     <!-- RIV20 fed -->
     <g transform="translate(310.402812 59.798437) scale(0.1 -0.1)">
      <defs>
       <path id="DejaVuSans-52" d="M 2841 2188 
Q 3044 2119 3236 1894 
Q 3428 1669 3622 1275 
L 4263 0 
L 3584 0 
L 2988 1197 
Q 2756 1666 2539 1819 
Q 2322 1972 1947 1972 
L 1259 1972 
L 1259 0 
L 628 0 
L 628 4666 
L 2053 4666 
Q 2853 4666 3247 4331 
Q 3641 3997 3641 3322 
Q 3641 2881 3436 2590 
Q 3231 2300 2841 2188 
z
M 1259 4147 
L 1259 2491 
L 2053 2491 
Q 2509 2491 2742 2702 
Q 2975 2913 2975 3322 
Q 2975 3731 2742 3939 
Q 2509 4147 2053 4147 
L 1259 4147 
z
" transform="scale(0.015625)"/>
       <path id="DejaVuSans-49" d="M 628 4666 
L 1259 4666 
L 1259 0 
L 628 0 
L 628 4666 
z
" transform="scale(0.015625)"/>
       <path id="DejaVuSans-56" d="M 1831 0 
L 50 4666 
L 709 4666 
L 2188 738 
L 3669 4666 
L 4325 4666 
L 2547 0 
L 1831 0 
z
" transform="scale(0.015625)"/>
       <path id="DejaVuSans-20" transform="scale(0.015625)"/>
       <path id="DejaVuSans-66" d="M 2375 4863 
L 2375 4384 
L 1825 4384 
Q 1516 4384 1395 4259 
Q 1275 4134 1275 3809 
L 1275 3500 
L 2222 3500 
L 2222 3053 
L 1275 3053 
L 1275 0 
L 697 0 
L 697 3053 
L 147 3053 
L 147 3500 
L 697 3500 
L 697 3744 
Q 697 4328 969 4595 
Q 1241 4863 1831 4863 
L 2375 4863 
z
" transform="scale(0.015625)"/>
       <path id="DejaVuSans-65" d="M 3597 1894 
L 3597 1613 
L 953 1613 
Q 991 1019 1311 708 
Q 1631 397 2203 397 
Q 2534 397 2845 478 
Q 3156 559 3463 722 
L 3463 178 
Q 3153 47 2828 -22 
Q 2503 -91 2169 -91 
Q 1331 -91 842 396 
Q 353 884 353 1716 
Q 353 2575 817 3079 
Q 1281 3584 2069 3584 
Q 2775 3584 3186 3129 
Q 3597 2675 3597 1894 
z
M 3022 2063 
Q 3016 2534 2758 2815 
Q 2500 3097 2075 3097 
Q 1594 3097 1305 2825 
Q 1016 2553 972 2059 
L 3022 2063 
z
" transform="scale(0.015625)"/>
       <path id="DejaVuSans-64" d="M 2906 2969 
L 2906 4863 
L 3481 4863 
L 3481 0 
L 2906 0 
L 2906 525 
Q 2725 213 2448 61 
Q 2172 -91 1784 -91 
Q 1150 -91 751 415 
Q 353 922 353 1747 
Q 353 2572 751 3078 
Q 1150 3584 1784 3584 
Q 2172 3584 2448 3432 
Q 2725 3281 2906 2969 
z
M 947 1747 
Q 947 1113 1208 752 
Q 1469 391 1925 391 
Q 2381 391 2643 752 
Q 2906 1113 2906 1747 
Q 2906 2381 2643 2742 
Q 2381 3103 1925 3103 
Q 1469 3103 1208 2742 
Q 947 2381 947 1747 
z
" transform="scale(0.015625)"/>
      </defs>
      <use xlink:href="#DejaVuSans-52"/>
      <use xlink:href="#DejaVuSans-49" x="69.482422"/>
      <use xlink:href="#DejaVuSans-56" x="98.974609"/>
      <use xlink:href="#DejaVuSans-32" x="167.382812"/>
      <use xlink:href="#DejaVuSans-30" x="231.005859"/>
      <use xlink:href="#DejaVuSans-20" x="294.628906"/>
      <use xlink:href="#DejaVuSans-66" x="326.416016"/>
      <use xlink:href="#DejaVuSans-65" x="361.621094"/>
      <use xlink:href="#DejaVuSans-64" x="423.144531"/>
     </g>
    </g>
    <g id="LineCollection_4">
     <path d="M 292.402812 75.976562 
L 292.402812 65.976562 
" style="fill: none; stroke: #a35ac7"/>
    </g>
    <g id="line2d_22">
     <path d="M 282.402812 70.976562 
L 302.402812 70.976562 
" style="fill: none; stroke-dasharray: 3.7,1.6; stroke-dashoffset: 0; stroke: #a35ac7"/>
    </g>
    <g id="line2d_23">
     <g>
      <use xlink:href="#m7d2a78c915" x="292.402812" y="70.976562" style="fill: #a35ac7; stroke: #000000; stroke-linejoin: miter"/>
     </g>
    </g>
    <g id="text_17">
     <!-- RIV20 fed±SD (n=10) -->
     <g transform="translate(310.402812 74.476562) scale(0.1 -0.1)">
      <defs>
       <path id="DejaVuSans-b1" d="M 2944 4013 
L 2944 2803 
L 4684 2803 
L 4684 2272 
L 2944 2272 
L 2944 1063 
L 2419 1063 
L 2419 2272 
L 678 2272 
L 678 2803 
L 2419 2803 
L 2419 4013 
L 2944 4013 
z
M 678 531 
L 4684 531 
L 4684 0 
L 678 0 
L 678 531 
z
" transform="scale(0.015625)"/>
       <path id="DejaVuSans-53" d="M 3425 4513 
L 3425 3897 
Q 3066 4069 2747 4153 
Q 2428 4238 2131 4238 
Q 1616 4238 1336 4038 
Q 1056 3838 1056 3469 
Q 1056 3159 1242 3001 
Q 1428 2844 1947 2747 
L 2328 2669 
Q 3034 2534 3370 2195 
Q 3706 1856 3706 1288 
Q 3706 609 3251 259 
Q 2797 -91 1919 -91 
Q 1588 -91 1214 -16 
Q 841 59 441 206 
L 441 856 
Q 825 641 1194 531 
Q 1563 422 1919 422 
Q 2459 422 2753 634 
Q 3047 847 3047 1241 
Q 3047 1584 2836 1778 
Q 2625 1972 2144 2069 
L 1759 2144 
Q 1053 2284 737 2584 
Q 422 2884 422 3419 
Q 422 4038 858 4394 
Q 1294 4750 2059 4750 
Q 2388 4750 2728 4690 
Q 3069 4631 3425 4513 
z
" transform="scale(0.015625)"/>
       <path id="DejaVuSans-44" d="M 1259 4147 
L 1259 519 
L 2022 519 
Q 2988 519 3436 956 
Q 3884 1394 3884 2338 
Q 3884 3275 3436 3711 
Q 2988 4147 2022 4147 
L 1259 4147 
z
M 628 4666 
L 1925 4666 
Q 3281 4666 3915 4102 
Q 4550 3538 4550 2338 
Q 4550 1131 3912 565 
Q 3275 0 1925 0 
L 628 0 
L 628 4666 
z
" transform="scale(0.015625)"/>
       <path id="DejaVuSans-28" d="M 1984 4856 
Q 1566 4138 1362 3434 
Q 1159 2731 1159 2009 
Q 1159 1288 1364 580 
Q 1569 -128 1984 -844 
L 1484 -844 
Q 1016 -109 783 600 
Q 550 1309 550 2009 
Q 550 2706 781 3412 
Q 1013 4119 1484 4856 
L 1984 4856 
z
" transform="scale(0.015625)"/>
       <path id="DejaVuSans-6e" d="M 3513 2113 
L 3513 0 
L 2938 0 
L 2938 2094 
Q 2938 2591 2744 2837 
Q 2550 3084 2163 3084 
Q 1697 3084 1428 2787 
Q 1159 2491 1159 1978 
L 1159 0 
L 581 0 
L 581 3500 
L 1159 3500 
L 1159 2956 
Q 1366 3272 1645 3428 
Q 1925 3584 2291 3584 
Q 2894 3584 3203 3211 
Q 3513 2838 3513 2113 
z
" transform="scale(0.015625)"/>
       <path id="DejaVuSans-3d" d="M 678 2906 
L 4684 2906 
L 4684 2381 
L 678 2381 
L 678 2906 
z
M 678 1631 
L 4684 1631 
L 4684 1100 
L 678 1100 
L 678 1631 
z
" transform="scale(0.015625)"/>
       <path id="DejaVuSans-29" d="M 513 4856 
L 1013 4856 
Q 1481 4119 1714 3412 
Q 1947 2706 1947 2009 
Q 1947 1309 1714 600 
Q 1481 -109 1013 -844 
L 513 -844 
Q 928 -128 1133 580 
Q 1338 1288 1338 2009 
Q 1338 2731 1133 3434 
Q 928 4138 513 4856 
z
" transform="scale(0.015625)"/>
      </defs>
      <use xlink:href="#DejaVuSans-52"/>
      <use xlink:href="#DejaVuSans-49" x="69.482422"/>
      <use xlink:href="#DejaVuSans-56" x="98.974609"/>
      <use xlink:href="#DejaVuSans-32" x="167.382812"/>
      <use xlink:href="#DejaVuSans-30" x="231.005859"/>
      <use xlink:href="#DejaVuSans-20" x="294.628906"/>
      <use xlink:href="#DejaVuSans-66" x="326.416016"/>
      <use xlink:href="#DejaVuSans-65" x="361.621094"/>
      <use xlink:href="#DejaVuSans-64" x="423.144531"/>
      <use xlink:href="#DejaVuSans-b1" x="486.621094"/>
      <use xlink:href="#DejaVuSans-53" x="570.410156"/>
      <use xlink:href="#DejaVuSans-44" x="633.886719"/>
      <use xlink:href="#DejaVuSans-20" x="710.888672"/>
      <use xlink:href="#DejaVuSans-28" x="742.675781"/>
      <use xlink:href="#DejaVuSans-6e" x="781.689453"/>
      <use xlink:href="#DejaVuSans-3d" x="845.068359"/>
      <use xlink:href="#DejaVuSans-31" x="928.857422"/>
      <use xlink:href="#DejaVuSans-30" x="992.480469"/>
      <use xlink:href="#DejaVuSans-29" x="1056.103516"/>
     </g>
    </g>
    <g id="line2d_24">
     <path d="M 282.402812 85.654687 
L 302.402812 85.654687 
" style="fill: none; stroke: #ddb8ea; stroke-width: 2; stroke-linecap: square"/>
    </g>
    <g id="line2d_25"/>
    <g id="text_18">
     <!-- RIV20 fasted -->
     <g transform="translate(310.402812 89.154687) scale(0.1 -0.1)">
      <defs>
       <path id="DejaVuSans-61" d="M 2194 1759 
Q 1497 1759 1228 1600 
Q 959 1441 959 1056 
Q 959 750 1161 570 
Q 1363 391 1709 391 
Q 2188 391 2477 730 
Q 2766 1069 2766 1631 
L 2766 1759 
L 2194 1759 
z
M 3341 1997 
L 3341 0 
L 2766 0 
L 2766 531 
Q 2569 213 2275 61 
Q 1981 -91 1556 -91 
Q 1019 -91 701 211 
Q 384 513 384 1019 
Q 384 1609 779 1909 
Q 1175 2209 1959 2209 
L 2766 2209 
L 2766 2266 
Q 2766 2663 2505 2880 
Q 2244 3097 1772 3097 
Q 1472 3097 1187 3025 
Q 903 2953 641 2809 
L 641 3341 
Q 956 3463 1253 3523 
Q 1550 3584 1831 3584 
Q 2591 3584 2966 3190 
Q 3341 2797 3341 1997 
z
" transform="scale(0.015625)"/>
       <path id="DejaVuSans-73" d="M 2834 3397 
L 2834 2853 
Q 2591 2978 2328 3040 
Q 2066 3103 1784 3103 
Q 1356 3103 1142 2972 
Q 928 2841 928 2578 
Q 928 2378 1081 2264 
Q 1234 2150 1697 2047 
L 1894 2003 
Q 2506 1872 2764 1633 
Q 3022 1394 3022 966 
Q 3022 478 2636 193 
Q 2250 -91 1575 -91 
Q 1294 -91 989 -36 
Q 684 19 347 128 
L 347 722 
Q 666 556 975 473 
Q 1284 391 1588 391 
Q 1994 391 2212 530 
Q 2431 669 2431 922 
Q 2431 1156 2273 1281 
Q 2116 1406 1581 1522 
L 1381 1569 
Q 847 1681 609 1914 
Q 372 2147 372 2553 
Q 372 3047 722 3315 
Q 1072 3584 1716 3584 
Q 2034 3584 2315 3537 
Q 2597 3491 2834 3397 
z
" transform="scale(0.015625)"/>
       <path id="DejaVuSans-74" d="M 1172 4494 
L 1172 3500 
L 2356 3500 
L 2356 3053 
L 1172 3053 
L 1172 1153 
Q 1172 725 1289 603 
Q 1406 481 1766 481 
L 2356 481 
L 2356 0 
L 1766 0 
Q 1100 0 847 248 
Q 594 497 594 1153 
L 594 3053 
L 172 3053 
L 172 3500 
L 594 3500 
L 594 4494 
L 1172 4494 
z
" transform="scale(0.015625)"/>
      </defs>
      <use xlink:href="#DejaVuSans-52"/>
      <use xlink:href="#DejaVuSans-49" x="69.482422"/>
      <use xlink:href="#DejaVuSans-56" x="98.974609"/>
      <use xlink:href="#DejaVuSans-32" x="167.382812"/>
      <use xlink:href="#DejaVuSans-30" x="231.005859"/>
      <use xlink:href="#DejaVuSans-20" x="294.628906"/>
      <use xlink:href="#DejaVuSans-66" x="326.416016"/>
      <use xlink:href="#DejaVuSans-61" x="361.621094"/>
      <use xlink:href="#DejaVuSans-73" x="422.900391"/>
      <use xlink:href="#DejaVuSans-74" x="475"/>
      <use xlink:href="#DejaVuSans-65" x="514.208984"/>
      <use xlink:href="#DejaVuSans-64" x="575.732422"/>
     </g>
    </g>
    <g id="LineCollection_5">
     <path d="M 292.402812 105.332812 
L 292.402812 95.332812 
" style="fill: none; stroke: #ddb8ea"/>
    </g>
    <g id="line2d_26">
     <path d="M 282.402812 100.332812 
L 302.402812 100.332812 
" style="fill: none; stroke-dasharray: 3.7,1.6; stroke-dashoffset: 0; stroke: #ddb8ea"/>
    </g>
    <g id="line2d_27">
     <g>
      <use xlink:href="#md88bce297e" x="292.402812" y="100.332812" style="fill: #ddb8ea; stroke: #000000; stroke-linejoin: miter"/>
     </g>
    </g>
    <g id="text_19">
     <!-- RIV20 fasted±SD (n=10) -->
     <g transform="translate(310.402812 103.832812) scale(0.1 -0.1)">
      <use xlink:href="#DejaVuSans-52"/>
      <use xlink:href="#DejaVuSans-49" x="69.482422"/>
      <use xlink:href="#DejaVuSans-56" x="98.974609"/>
      <use xlink:href="#DejaVuSans-32" x="167.382812"/>
      <use xlink:href="#DejaVuSans-30" x="231.005859"/>
      <use xlink:href="#DejaVuSans-20" x="294.628906"/>
      <use xlink:href="#DejaVuSans-66" x="326.416016"/>
      <use xlink:href="#DejaVuSans-61" x="361.621094"/>
      <use xlink:href="#DejaVuSans-73" x="422.900391"/>
      <use xlink:href="#DejaVuSans-74" x="475"/>
      <use xlink:href="#DejaVuSans-65" x="514.208984"/>
      <use xlink:href="#DejaVuSans-64" x="575.732422"/>
      <use xlink:href="#DejaVuSans-b1" x="639.208984"/>
      <use xlink:href="#DejaVuSans-53" x="722.998047"/>
      <use xlink:href="#DejaVuSans-44" x="786.474609"/>
      <use xlink:href="#DejaVuSans-20" x="863.476562"/>
      <use xlink:href="#DejaVuSans-28" x="895.263672"/>
      <use xlink:href="#DejaVuSans-6e" x="934.277344"/>
      <use xlink:href="#DejaVuSans-3d" x="997.65625"/>
      <use xlink:href="#DejaVuSans-31" x="1081.445312"/>
      <use xlink:href="#DejaVuSans-30" x="1145.068359"/>
      <use xlink:href="#DejaVuSans-29" x="1208.691406"/>
     </g>
    </g>
    <g id="line2d_28">
     <path d="M 282.402812 115.010937 
L 302.402812 115.010937 
" style="fill: none; stroke: #ddb8ea; stroke-width: 2; stroke-linecap: square"/>
    </g>
    <g id="line2d_29"/>
    <g id="text_20">
     <!-- RIV4x5 fasted -->
     <g transform="translate(310.402812 118.510937) scale(0.1 -0.1)">
      <defs>
       <path id="DejaVuSans-78" d="M 3513 3500 
L 2247 1797 
L 3578 0 
L 2900 0 
L 1881 1375 
L 863 0 
L 184 0 
L 1544 1831 
L 300 3500 
L 978 3500 
L 1906 2253 
L 2834 3500 
L 3513 3500 
z
" transform="scale(0.015625)"/>
      </defs>
      <use xlink:href="#DejaVuSans-52"/>
      <use xlink:href="#DejaVuSans-49" x="69.482422"/>
      <use xlink:href="#DejaVuSans-56" x="98.974609"/>
      <use xlink:href="#DejaVuSans-34" x="167.382812"/>
      <use xlink:href="#DejaVuSans-78" x="231.005859"/>
      <use xlink:href="#DejaVuSans-35" x="290.185547"/>
      <use xlink:href="#DejaVuSans-20" x="353.808594"/>
      <use xlink:href="#DejaVuSans-66" x="385.595703"/>
      <use xlink:href="#DejaVuSans-61" x="420.800781"/>
      <use xlink:href="#DejaVuSans-73" x="482.080078"/>
      <use xlink:href="#DejaVuSans-74" x="534.179688"/>
      <use xlink:href="#DejaVuSans-65" x="573.388672"/>
      <use xlink:href="#DejaVuSans-64" x="634.912109"/>
     </g>
    </g>
    <g id="LineCollection_6">
     <path d="M 292.402812 134.689062 
L 292.402812 124.689062 
" style="fill: none; stroke: #ddb8ea"/>
    </g>
    <g id="line2d_30">
     <path d="M 282.402812 129.689062 
L 302.402812 129.689062 
" style="fill: none; stroke-dasharray: 3.7,1.6; stroke-dashoffset: 0; stroke: #ddb8ea"/>
    </g>
    <g id="line2d_31">
     <g>
      <use xlink:href="#m7def180b63" x="292.402812" y="129.689062" style="fill: #ddb8ea; stroke: #000000; stroke-linejoin: miter"/>
     </g>
    </g>
    <g id="text_21">
     <!-- RIV4x5 fasted±SD (n=10) -->
     <g transform="translate(310.402812 133.189062) scale(0.1 -0.1)">
      <use xlink:href="#DejaVuSans-52"/>
      <use xlink:href="#DejaVuSans-49" x="69.482422"/>
      <use xlink:href="#DejaVuSans-56" x="98.974609"/>
      <use xlink:href="#DejaVuSans-34" x="167.382812"/>
      <use xlink:href="#DejaVuSans-78" x="231.005859"/>
      <use xlink:href="#DejaVuSans-35" x="290.185547"/>
      <use xlink:href="#DejaVuSans-20" x="353.808594"/>
      <use xlink:href="#DejaVuSans-66" x="385.595703"/>
      <use xlink:href="#DejaVuSans-61" x="420.800781"/>
      <use xlink:href="#DejaVuSans-73" x="482.080078"/>
      <use xlink:href="#DejaVuSans-74" x="534.179688"/>
      <use xlink:href="#DejaVuSans-65" x="573.388672"/>
      <use xlink:href="#DejaVuSans-64" x="634.912109"/>
      <use xlink:href="#DejaVuSans-b1" x="698.388672"/>
      <use xlink:href="#DejaVuSans-53" x="782.177734"/>
      <use xlink:href="#DejaVuSans-44" x="845.654297"/>
      <use xlink:href="#DejaVuSans-20" x="922.65625"/>
      <use xlink:href="#DejaVuSans-28" x="954.443359"/>
      <use xlink:href="#DejaVuSans-6e" x="993.457031"/>
      <use xlink:href="#DejaVuSans-3d" x="1056.835938"/>
      <use xlink:href="#DejaVuSans-31" x="1140.625"/>
      <use xlink:href="#DejaVuSans-30" x="1204.248047"/>
      <use xlink:href="#DejaVuSans-29" x="1267.871094"/>
     </g>
    </g>
   </g>
  </g>
  <g id="text_22">
   <!-- Kubitza2006 -->
   <g transform="translate(160.422734 26.196094) scale(0.25 -0.25)">
    <defs>
     <path id="DejaVuSans-Bold-4b" d="M 588 4666 
L 1791 4666 
L 1791 2963 
L 3525 4666 
L 4922 4666 
L 2675 2456 
L 5153 0 
L 3647 0 
L 1791 1838 
L 1791 0 
L 588 0 
L 588 4666 
z
" transform="scale(0.015625)"/>
     <path id="DejaVuSans-Bold-75" d="M 500 1363 
L 500 3500 
L 1625 3500 
L 1625 3150 
Q 1625 2866 1622 2436 
Q 1619 2006 1619 1863 
Q 1619 1441 1641 1255 
Q 1663 1069 1716 984 
Q 1784 875 1895 815 
Q 2006 756 2150 756 
Q 2500 756 2700 1025 
Q 2900 1294 2900 1772 
L 2900 3500 
L 4019 3500 
L 4019 0 
L 2900 0 
L 2900 506 
Q 2647 200 2364 54 
Q 2081 -91 1741 -91 
Q 1134 -91 817 281 
Q 500 653 500 1363 
z
" transform="scale(0.015625)"/>
     <path id="DejaVuSans-Bold-7a" d="M 366 3500 
L 3419 3500 
L 3419 2719 
L 1575 800 
L 3419 800 
L 3419 0 
L 288 0 
L 288 781 
L 2131 2700 
L 366 2700 
L 366 3500 
z
" transform="scale(0.015625)"/>
     <path id="DejaVuSans-Bold-32" d="M 1844 884 
L 3897 884 
L 3897 0 
L 506 0 
L 506 884 
L 2209 2388 
Q 2438 2594 2547 2791 
Q 2656 2988 2656 3200 
Q 2656 3528 2436 3728 
Q 2216 3928 1850 3928 
Q 1569 3928 1234 3808 
Q 900 3688 519 3450 
L 519 4475 
Q 925 4609 1322 4679 
Q 1719 4750 2100 4750 
Q 2938 4750 3402 4381 
Q 3866 4013 3866 3353 
Q 3866 2972 3669 2642 
Q 3472 2313 2841 1759 
L 1844 884 
z
" transform="scale(0.015625)"/>
     <path id="DejaVuSans-Bold-30" d="M 2944 2338 
Q 2944 3213 2780 3570 
Q 2616 3928 2228 3928 
Q 1841 3928 1675 3570 
Q 1509 3213 1509 2338 
Q 1509 1453 1675 1090 
Q 1841 728 2228 728 
Q 2613 728 2778 1090 
Q 2944 1453 2944 2338 
z
M 4147 2328 
Q 4147 1169 3647 539 
Q 3147 -91 2228 -91 
Q 1306 -91 806 539 
Q 306 1169 306 2328 
Q 306 3491 806 4120 
Q 1306 4750 2228 4750 
Q 3147 4750 3647 4120 
Q 4147 3491 4147 2328 
z
" transform="scale(0.015625)"/>
     <path id="DejaVuSans-Bold-36" d="M 2316 2303 
Q 2000 2303 1842 2098 
Q 1684 1894 1684 1484 
Q 1684 1075 1842 870 
Q 2000 666 2316 666 
Q 2634 666 2792 870 
Q 2950 1075 2950 1484 
Q 2950 1894 2792 2098 
Q 2634 2303 2316 2303 
z
M 3803 4544 
L 3803 3681 
Q 3506 3822 3243 3889 
Q 2981 3956 2731 3956 
Q 2194 3956 1894 3657 
Q 1594 3359 1544 2772 
Q 1750 2925 1990 3001 
Q 2231 3078 2516 3078 
Q 3231 3078 3670 2659 
Q 4109 2241 4109 1563 
Q 4109 813 3618 361 
Q 3128 -91 2303 -91 
Q 1394 -91 895 523 
Q 397 1138 397 2266 
Q 397 3422 980 4083 
Q 1563 4744 2578 4744 
Q 2900 4744 3203 4694 
Q 3506 4644 3803 4544 
z
" transform="scale(0.015625)"/>
    </defs>
    <use xlink:href="#DejaVuSans-Bold-4b"/>
    <use xlink:href="#DejaVuSans-Bold-75" x="75.740234"/>
    <use xlink:href="#DejaVuSans-Bold-62" x="146.931641"/>
    <use xlink:href="#DejaVuSans-Bold-69" x="218.513672"/>
    <use xlink:href="#DejaVuSans-Bold-74" x="252.791016"/>
    <use xlink:href="#DejaVuSans-Bold-7a" x="300.59375"/>
    <use xlink:href="#DejaVuSans-Bold-61" x="358.796875"/>
    <use xlink:href="#DejaVuSans-Bold-32" x="426.277344"/>
    <use xlink:href="#DejaVuSans-Bold-30" x="495.857422"/>
    <use xlink:href="#DejaVuSans-Bold-30" x="565.4375"/>
    <use xlink:href="#DejaVuSans-Bold-36" x="635.017578"/>
   </g>
  </g>
 </g>
 <defs>
  <clipPath id="p6bddc0b488">
   <rect x="59.495" y="43.2" width="390.6" height="277.2"/>
  </clipPath>
 </defs>
</svg>
