<?xml version="1.0" encoding="utf-8" standalone="no"?>
<!DOCTYPE svg PUBLIC "-//W3C//DTD SVG 1.1//EN"
  "http://www.w3.org/Graphics/SVG/1.1/DTD/svg11.dtd">
<svg xmlns:xlink="http://www.w3.org/1999/xlink" width="469.864531pt" height="370.537812pt" viewBox="0 0 469.864531 370.537812" xmlns="http://www.w3.org/2000/svg" version="1.1">
 <metadata>
  <rdf:RDF xmlns:dc="http://purl.org/dc/elements/1.1/" xmlns:cc="http://creativecommons.org/ns#" xmlns:rdf="http://www.w3.org/1999/02/22-rdf-syntax-ns#">
   <cc:Work>
    <dc:type rdf:resource="http://purl.org/dc/dcmitype/StillImage"/>
    <dc:date>2025-07-19T10:59:04.993649</dc:date>
    <dc:format>image/svg+xml</dc:format>
    <dc:creator>
     <cc:Agent>
      <dc:title>Matplotlib v3.9.1, https://matplotlib.org/</dc:title>
     </cc:Agent>
    </dc:creator>
   </cc:Work>
  </rdf:RDF>
 </metadata>
 <defs>
  <style type="text/css">*{stroke-linejoin: round; stroke-linecap: butt}</style>
 </defs>
 <g id="figure_1">
  <g id="patch_1">
   <path d="M 0 370.537812 
L 469.864531 370.537812 
L 469.864531 0 
L 0 0 
z
" style="fill: #ffffff"/>
  </g>
  <g id="axes_1">
   <g id="patch_2">
    <path d="M 72.064531 320.4 
L 462.664531 320.4 
L 462.664531 43.2 
L 72.064531 43.2 
z
" style="fill: #ffffff"/>
   </g>
   <g id="matplotlib.axis_1">
    <g id="xtick_1">
     <g id="line2d_1">
      <defs>
       <path id="m8195aa9c6e" d="M 0 0 
L 0 3.5 
" style="stroke: #000000; stroke-width: 0.8"/>
      </defs>
      <g>
       <use xlink:href="#m8195aa9c6e" x="89.819077" y="320.4" style="stroke: #000000; stroke-width: 0.8"/>
      </g>
     </g>
     <g id="text_1">
      <!-- 0 -->
      <g transform="translate(85.047202 338.797656) scale(0.15 -0.15)">
       <defs>
        <path id="DejaVuSans-30" d="M 2034 4250 
Q 1547 4250 1301 3770 
Q 1056 3291 1056 2328 
Q 1056 1369 1301 889 
Q 1547 409 2034 409 
Q 2525 409 2770 889 
Q 3016 1369 3016 2328 
Q 3016 3291 2770 3770 
Q 2525 4250 2034 4250 
z
M 2034 4750 
Q 2819 4750 3233 4129 
Q 3647 3509 3647 2328 
Q 3647 1150 3233 529 
Q 2819 -91 2034 -91 
Q 1250 -91 836 529 
Q 422 1150 422 2328 
Q 422 3509 836 4129 
Q 1250 4750 2034 4750 
z
" transform="scale(0.015625)"/>
       </defs>
       <use xlink:href="#DejaVuSans-30"/>
      </g>
     </g>
    </g>
    <g id="xtick_2">
     <g id="line2d_2">
      <g>
       <use xlink:href="#m8195aa9c6e" x="149.000895" y="320.4" style="stroke: #000000; stroke-width: 0.8"/>
      </g>
     </g>
     <g id="text_2">
      <!-- 5 -->
      <g transform="translate(144.22902 338.797656) scale(0.15 -0.15)">
       <defs>
        <path id="DejaVuSans-35" d="M 691 4666 
L 3169 4666 
L 3169 4134 
L 1269 4134 
L 1269 2991 
Q 1406 3038 1543 3061 
Q 1681 3084 1819 3084 
Q 2600 3084 3056 2656 
Q 3513 2228 3513 1497 
Q 3513 744 3044 326 
Q 2575 -91 1722 -91 
Q 1428 -91 1123 -41 
Q 819 9 494 109 
L 494 744 
Q 775 591 1075 516 
Q 1375 441 1709 441 
Q 2250 441 2565 725 
Q 2881 1009 2881 1497 
Q 2881 1984 2565 2268 
Q 2250 2553 1709 2553 
Q 1456 2553 1204 2497 
Q 953 2441 691 2322 
L 691 4666 
z
" transform="scale(0.015625)"/>
       </defs>
       <use xlink:href="#DejaVuSans-35"/>
      </g>
     </g>
    </g>
    <g id="xtick_3">
     <g id="line2d_3">
      <g>
       <use xlink:href="#m8195aa9c6e" x="208.182713" y="320.4" style="stroke: #000000; stroke-width: 0.8"/>
      </g>
     </g>
     <g id="text_3">
      <!-- 10 -->
      <g transform="translate(198.638963 338.797656) scale(0.15 -0.15)">
       <defs>
        <path id="DejaVuSans-31" d="M 794 531 
L 1825 531 
L 1825 4091 
L 703 3866 
L 703 4441 
L 1819 4666 
L 2450 4666 
L 2450 531 
L 3481 531 
L 3481 0 
L 794 0 
L 794 531 
z
" transform="scale(0.015625)"/>
       </defs>
       <use xlink:href="#DejaVuSans-31"/>
       <use xlink:href="#DejaVuSans-30" x="63.623047"/>
      </g>
     </g>
    </g>
    <g id="xtick_4">
     <g id="line2d_4">
      <g>
       <use xlink:href="#m8195aa9c6e" x="267.364531" y="320.4" style="stroke: #000000; stroke-width: 0.8"/>
      </g>
     </g>
     <g id="text_4">
      <!-- 15 -->
      <g transform="translate(257.820781 338.797656) scale(0.15 -0.15)">
       <use xlink:href="#DejaVuSans-31"/>
       <use xlink:href="#DejaVuSans-35" x="63.623047"/>
      </g>
     </g>
    </g>
    <g id="xtick_5">
     <g id="line2d_5">
      <g>
       <use xlink:href="#m8195aa9c6e" x="326.546349" y="320.4" style="stroke: #000000; stroke-width: 0.8"/>
      </g>
     </g>
     <g id="text_5">
      <!-- 20 -->
      <g transform="translate(317.002599 338.797656) scale(0.15 -0.15)">
       <defs>
        <path id="DejaVuSans-32" d="M 1228 531 
L 3431 531 
L 3431 0 
L 469 0 
L 469 531 
Q 828 903 1448 1529 
Q 2069 2156 2228 2338 
Q 2531 2678 2651 2914 
Q 2772 3150 2772 3378 
Q 2772 3750 2511 3984 
Q 2250 4219 1831 4219 
Q 1534 4219 1204 4116 
Q 875 4013 500 3803 
L 500 4441 
Q 881 4594 1212 4672 
Q 1544 4750 1819 4750 
Q 2544 4750 2975 4387 
Q 3406 4025 3406 3419 
Q 3406 3131 3298 2873 
Q 3191 2616 2906 2266 
Q 2828 2175 2409 1742 
Q 1991 1309 1228 531 
z
" transform="scale(0.015625)"/>
       </defs>
       <use xlink:href="#DejaVuSans-32"/>
       <use xlink:href="#DejaVuSans-30" x="63.623047"/>
      </g>
     </g>
    </g>
    <g id="xtick_6">
     <g id="line2d_6">
      <g>
       <use xlink:href="#m8195aa9c6e" x="385.728168" y="320.4" style="stroke: #000000; stroke-width: 0.8"/>
      </g>
     </g>
     <g id="text_6">
      <!-- 25 -->
      <g transform="translate(376.184418 338.797656) scale(0.15 -0.15)">
       <use xlink:href="#DejaVuSans-32"/>
       <use xlink:href="#DejaVuSans-35" x="63.623047"/>
      </g>
     </g>
    </g>
    <g id="xtick_7">
     <g id="line2d_7">
      <g>
       <use xlink:href="#m8195aa9c6e" x="444.909986" y="320.4" style="stroke: #000000; stroke-width: 0.8"/>
      </g>
     </g>
     <g id="text_7">
      <!-- 30 -->
      <g transform="translate(435.366236 338.797656) scale(0.15 -0.15)">
       <defs>
        <path id="DejaVuSans-33" d="M 2597 2516 
Q 3050 2419 3304 2112 
Q 3559 1806 3559 1356 
Q 3559 666 3084 287 
Q 2609 -91 1734 -91 
Q 1441 -91 1130 -33 
Q 819 25 488 141 
L 488 750 
Q 750 597 1062 519 
Q 1375 441 1716 441 
Q 2309 441 2620 675 
Q 2931 909 2931 1356 
Q 2931 1769 2642 2001 
Q 2353 2234 1838 2234 
L 1294 2234 
L 1294 2753 
L 1863 2753 
Q 2328 2753 2575 2939 
Q 2822 3125 2822 3475 
Q 2822 3834 2567 4026 
Q 2313 4219 1838 4219 
Q 1578 4219 1281 4162 
Q 984 4106 628 3988 
L 628 4550 
Q 988 4650 1302 4700 
Q 1616 4750 1894 4750 
Q 2613 4750 3031 4423 
Q 3450 4097 3450 3541 
Q 3450 3153 3228 2886 
Q 3006 2619 2597 2516 
z
" transform="scale(0.015625)"/>
       </defs>
       <use xlink:href="#DejaVuSans-33"/>
       <use xlink:href="#DejaVuSans-30" x="63.623047"/>
      </g>
     </g>
    </g>
    <g id="text_8">
     <!-- time [hr] -->
     <g transform="translate(222.29 359.594375) scale(0.18 -0.18)">
      <defs>
       <path id="DejaVuSans-Bold-74" d="M 1759 4494 
L 1759 3500 
L 2913 3500 
L 2913 2700 
L 1759 2700 
L 1759 1216 
Q 1759 972 1856 886 
Q 1953 800 2241 800 
L 2816 800 
L 2816 0 
L 1856 0 
Q 1194 0 917 276 
Q 641 553 641 1216 
L 641 2700 
L 84 2700 
L 84 3500 
L 641 3500 
L 641 4494 
L 1759 4494 
z
" transform="scale(0.015625)"/>
       <path id="DejaVuSans-Bold-69" d="M 538 3500 
L 1656 3500 
L 1656 0 
L 538 0 
L 538 3500 
z
M 538 4863 
L 1656 4863 
L 1656 3950 
L 538 3950 
L 538 4863 
z
" transform="scale(0.015625)"/>
       <path id="DejaVuSans-Bold-6d" d="M 3781 2919 
Q 3994 3244 4286 3414 
Q 4578 3584 4928 3584 
Q 5531 3584 5847 3212 
Q 6163 2841 6163 2131 
L 6163 0 
L 5038 0 
L 5038 1825 
Q 5041 1866 5042 1909 
Q 5044 1953 5044 2034 
Q 5044 2406 4934 2573 
Q 4825 2741 4581 2741 
Q 4263 2741 4089 2478 
Q 3916 2216 3909 1719 
L 3909 0 
L 2784 0 
L 2784 1825 
Q 2784 2406 2684 2573 
Q 2584 2741 2328 2741 
Q 2006 2741 1831 2477 
Q 1656 2213 1656 1722 
L 1656 0 
L 531 0 
L 531 3500 
L 1656 3500 
L 1656 2988 
Q 1863 3284 2130 3434 
Q 2397 3584 2719 3584 
Q 3081 3584 3359 3409 
Q 3638 3234 3781 2919 
z
" transform="scale(0.015625)"/>
       <path id="DejaVuSans-Bold-65" d="M 4031 1759 
L 4031 1441 
L 1416 1441 
Q 1456 1047 1700 850 
Q 1944 653 2381 653 
Q 2734 653 3104 758 
Q 3475 863 3866 1075 
L 3866 213 
Q 3469 63 3072 -14 
Q 2675 -91 2278 -91 
Q 1328 -91 801 392 
Q 275 875 275 1747 
Q 275 2603 792 3093 
Q 1309 3584 2216 3584 
Q 3041 3584 3536 3087 
Q 4031 2591 4031 1759 
z
M 2881 2131 
Q 2881 2450 2695 2645 
Q 2509 2841 2209 2841 
Q 1884 2841 1681 2658 
Q 1478 2475 1428 2131 
L 2881 2131 
z
" transform="scale(0.015625)"/>
       <path id="DejaVuSans-Bold-20" transform="scale(0.015625)"/>
       <path id="DejaVuSans-Bold-5b" d="M 550 4863 
L 2491 4863 
L 2491 4159 
L 1613 4159 
L 1613 -141 
L 2491 -141 
L 2491 -844 
L 550 -844 
L 550 4863 
z
" transform="scale(0.015625)"/>
       <path id="DejaVuSans-Bold-68" d="M 4056 2131 
L 4056 0 
L 2931 0 
L 2931 347 
L 2931 1625 
Q 2931 2084 2911 2256 
Q 2891 2428 2841 2509 
Q 2775 2619 2662 2680 
Q 2550 2741 2406 2741 
Q 2056 2741 1856 2470 
Q 1656 2200 1656 1722 
L 1656 0 
L 538 0 
L 538 4863 
L 1656 4863 
L 1656 2988 
Q 1909 3294 2193 3439 
Q 2478 3584 2822 3584 
Q 3428 3584 3742 3212 
Q 4056 2841 4056 2131 
z
" transform="scale(0.015625)"/>
       <path id="DejaVuSans-Bold-72" d="M 3138 2547 
Q 2991 2616 2845 2648 
Q 2700 2681 2553 2681 
Q 2122 2681 1889 2404 
Q 1656 2128 1656 1613 
L 1656 0 
L 538 0 
L 538 3500 
L 1656 3500 
L 1656 2925 
Q 1872 3269 2151 3426 
Q 2431 3584 2822 3584 
Q 2878 3584 2943 3579 
Q 3009 3575 3134 3559 
L 3138 2547 
z
" transform="scale(0.015625)"/>
       <path id="DejaVuSans-Bold-5d" d="M 2375 -844 
L 434 -844 
L 434 -141 
L 1313 -141 
L 1313 4159 
L 434 4159 
L 434 4863 
L 2375 4863 
L 2375 -844 
z
" transform="scale(0.015625)"/>
      </defs>
      <use xlink:href="#DejaVuSans-Bold-74"/>
      <use xlink:href="#DejaVuSans-Bold-69" x="47.802734"/>
      <use xlink:href="#DejaVuSans-Bold-6d" x="82.080078"/>
      <use xlink:href="#DejaVuSans-Bold-65" x="186.279297"/>
      <use xlink:href="#DejaVuSans-Bold-20" x="254.101562"/>
      <use xlink:href="#DejaVuSans-Bold-5b" x="288.916016"/>
      <use xlink:href="#DejaVuSans-Bold-68" x="334.619141"/>
      <use xlink:href="#DejaVuSans-Bold-72" x="405.810547"/>
      <use xlink:href="#DejaVuSans-Bold-5d" x="455.126953"/>
     </g>
    </g>
   </g>
   <g id="matplotlib.axis_2">
    <g id="ytick_1">
     <g id="line2d_8">
      <defs>
       <path id="m649c374988" d="M 0 0 
L -3.5 0 
" style="stroke: #000000; stroke-width: 0.8"/>
      </defs>
      <g>
       <use xlink:href="#m649c374988" x="72.064531" y="313.431263" style="stroke: #000000; stroke-width: 0.8"/>
      </g>
     </g>
     <g id="text_9">
      <!-- −0.1 -->
      <g transform="translate(28.640313 319.130091) scale(0.15 -0.15)">
       <defs>
        <path id="DejaVuSans-2212" d="M 678 2272 
L 4684 2272 
L 4684 1741 
L 678 1741 
L 678 2272 
z
" transform="scale(0.015625)"/>
        <path id="DejaVuSans-2e" d="M 684 794 
L 1344 794 
L 1344 0 
L 684 0 
L 684 794 
z
" transform="scale(0.015625)"/>
       </defs>
       <use xlink:href="#DejaVuSans-2212"/>
       <use xlink:href="#DejaVuSans-30" x="83.789062"/>
       <use xlink:href="#DejaVuSans-2e" x="147.412109"/>
       <use xlink:href="#DejaVuSans-31" x="179.199219"/>
      </g>
     </g>
    </g>
    <g id="ytick_2">
     <g id="line2d_9">
      <g>
       <use xlink:href="#m649c374988" x="72.064531" y="266.607692" style="stroke: #000000; stroke-width: 0.8"/>
      </g>
     </g>
     <g id="text_10">
      <!-- 0.0 -->
      <g transform="translate(41.209844 272.30652) scale(0.15 -0.15)">
       <use xlink:href="#DejaVuSans-30"/>
       <use xlink:href="#DejaVuSans-2e" x="63.623047"/>
       <use xlink:href="#DejaVuSans-30" x="95.410156"/>
      </g>
     </g>
    </g>
    <g id="ytick_3">
     <g id="line2d_10">
      <g>
       <use xlink:href="#m649c374988" x="72.064531" y="219.784122" style="stroke: #000000; stroke-width: 0.8"/>
      </g>
     </g>
     <g id="text_11">
      <!-- 0.1 -->
      <g transform="translate(41.209844 225.48295) scale(0.15 -0.15)">
       <use xlink:href="#DejaVuSans-30"/>
       <use xlink:href="#DejaVuSans-2e" x="63.623047"/>
       <use xlink:href="#DejaVuSans-31" x="95.410156"/>
      </g>
     </g>
    </g>
    <g id="ytick_4">
     <g id="line2d_11">
      <g>
       <use xlink:href="#m649c374988" x="72.064531" y="172.960551" style="stroke: #000000; stroke-width: 0.8"/>
      </g>
     </g>
     <g id="text_12">
      <!-- 0.2 -->
      <g transform="translate(41.209844 178.659379) scale(0.15 -0.15)">
       <use xlink:href="#DejaVuSans-30"/>
       <use xlink:href="#DejaVuSans-2e" x="63.623047"/>
       <use xlink:href="#DejaVuSans-32" x="95.410156"/>
      </g>
     </g>
    </g>
    <g id="ytick_5">
     <g id="line2d_12">
      <g>
       <use xlink:href="#m649c374988" x="72.064531" y="126.13698" style="stroke: #000000; stroke-width: 0.8"/>
      </g>
     </g>
     <g id="text_13">
      <!-- 0.3 -->
      <g transform="translate(41.209844 131.835808) scale(0.15 -0.15)">
       <use xlink:href="#DejaVuSans-30"/>
       <use xlink:href="#DejaVuSans-2e" x="63.623047"/>
       <use xlink:href="#DejaVuSans-33" x="95.410156"/>
      </g>
     </g>
    </g>
    <g id="ytick_6">
     <g id="line2d_13">
      <g>
       <use xlink:href="#m649c374988" x="72.064531" y="79.313409" style="stroke: #000000; stroke-width: 0.8"/>
      </g>
     </g>
     <g id="text_14">
      <!-- 0.4 -->
      <g transform="translate(41.209844 85.012237) scale(0.15 -0.15)">
       <defs>
        <path id="DejaVuSans-34" d="M 2419 4116 
L 825 1625 
L 2419 1625 
L 2419 4116 
z
M 2253 4666 
L 3047 4666 
L 3047 1625 
L 3713 1625 
L 3713 1100 
L 3047 1100 
L 3047 0 
L 2419 0 
L 2419 1100 
L 313 1100 
L 313 1709 
L 2253 4666 
z
" transform="scale(0.015625)"/>
       </defs>
       <use xlink:href="#DejaVuSans-30"/>
       <use xlink:href="#DejaVuSans-2e" x="63.623047"/>
       <use xlink:href="#DejaVuSans-34" x="95.410156"/>
      </g>
     </g>
    </g>
    <g id="text_15">
     <!-- rivaroxaban plasma [µM] -->
     <g transform="translate(20.877187 309.166875) rotate(-90) scale(0.18 -0.18)">
      <defs>
       <path id="DejaVuSans-Bold-76" d="M 97 3500 
L 1216 3500 
L 2088 1081 
L 2956 3500 
L 4078 3500 
L 2700 0 
L 1472 0 
L 97 3500 
z
" transform="scale(0.015625)"/>
       <path id="DejaVuSans-Bold-61" d="M 2106 1575 
Q 1756 1575 1579 1456 
Q 1403 1338 1403 1106 
Q 1403 894 1545 773 
Q 1688 653 1941 653 
Q 2256 653 2472 879 
Q 2688 1106 2688 1447 
L 2688 1575 
L 2106 1575 
z
M 3816 1997 
L 3816 0 
L 2688 0 
L 2688 519 
Q 2463 200 2181 54 
Q 1900 -91 1497 -91 
Q 953 -91 614 226 
Q 275 544 275 1050 
Q 275 1666 698 1953 
Q 1122 2241 2028 2241 
L 2688 2241 
L 2688 2328 
Q 2688 2594 2478 2717 
Q 2269 2841 1825 2841 
Q 1466 2841 1156 2769 
Q 847 2697 581 2553 
L 581 3406 
Q 941 3494 1303 3539 
Q 1666 3584 2028 3584 
Q 2975 3584 3395 3211 
Q 3816 2838 3816 1997 
z
" transform="scale(0.015625)"/>
       <path id="DejaVuSans-Bold-6f" d="M 2203 2784 
Q 1831 2784 1636 2517 
Q 1441 2250 1441 1747 
Q 1441 1244 1636 976 
Q 1831 709 2203 709 
Q 2569 709 2762 976 
Q 2956 1244 2956 1747 
Q 2956 2250 2762 2517 
Q 2569 2784 2203 2784 
z
M 2203 3584 
Q 3106 3584 3614 3096 
Q 4122 2609 4122 1747 
Q 4122 884 3614 396 
Q 3106 -91 2203 -91 
Q 1297 -91 786 396 
Q 275 884 275 1747 
Q 275 2609 786 3096 
Q 1297 3584 2203 3584 
z
" transform="scale(0.015625)"/>
       <path id="DejaVuSans-Bold-78" d="M 1422 1791 
L 159 3500 
L 1344 3500 
L 2059 2463 
L 2784 3500 
L 3969 3500 
L 2706 1797 
L 4031 0 
L 2847 0 
L 2059 1106 
L 1281 0 
L 97 0 
L 1422 1791 
z
" transform="scale(0.015625)"/>
       <path id="DejaVuSans-Bold-62" d="M 2400 722 
Q 2759 722 2948 984 
Q 3138 1247 3138 1747 
Q 3138 2247 2948 2509 
Q 2759 2772 2400 2772 
Q 2041 2772 1848 2508 
Q 1656 2244 1656 1747 
Q 1656 1250 1848 986 
Q 2041 722 2400 722 
z
M 1656 2988 
Q 1888 3294 2169 3439 
Q 2450 3584 2816 3584 
Q 3463 3584 3878 3070 
Q 4294 2556 4294 1747 
Q 4294 938 3878 423 
Q 3463 -91 2816 -91 
Q 2450 -91 2169 54 
Q 1888 200 1656 506 
L 1656 0 
L 538 0 
L 538 4863 
L 1656 4863 
L 1656 2988 
z
" transform="scale(0.015625)"/>
       <path id="DejaVuSans-Bold-6e" d="M 4056 2131 
L 4056 0 
L 2931 0 
L 2931 347 
L 2931 1631 
Q 2931 2084 2911 2256 
Q 2891 2428 2841 2509 
Q 2775 2619 2662 2680 
Q 2550 2741 2406 2741 
Q 2056 2741 1856 2470 
Q 1656 2200 1656 1722 
L 1656 0 
L 538 0 
L 538 3500 
L 1656 3500 
L 1656 2988 
Q 1909 3294 2193 3439 
Q 2478 3584 2822 3584 
Q 3428 3584 3742 3212 
Q 4056 2841 4056 2131 
z
" transform="scale(0.015625)"/>
       <path id="DejaVuSans-Bold-70" d="M 1656 506 
L 1656 -1331 
L 538 -1331 
L 538 3500 
L 1656 3500 
L 1656 2988 
Q 1888 3294 2169 3439 
Q 2450 3584 2816 3584 
Q 3463 3584 3878 3070 
Q 4294 2556 4294 1747 
Q 4294 938 3878 423 
Q 3463 -91 2816 -91 
Q 2450 -91 2169 54 
Q 1888 200 1656 506 
z
M 2400 2772 
Q 2041 2772 1848 2508 
Q 1656 2244 1656 1747 
Q 1656 1250 1848 986 
Q 2041 722 2400 722 
Q 2759 722 2948 984 
Q 3138 1247 3138 1747 
Q 3138 2247 2948 2509 
Q 2759 2772 2400 2772 
z
" transform="scale(0.015625)"/>
       <path id="DejaVuSans-Bold-6c" d="M 538 4863 
L 1656 4863 
L 1656 0 
L 538 0 
L 538 4863 
z
" transform="scale(0.015625)"/>
       <path id="DejaVuSans-Bold-73" d="M 3272 3391 
L 3272 2541 
Q 2913 2691 2578 2766 
Q 2244 2841 1947 2841 
Q 1628 2841 1473 2761 
Q 1319 2681 1319 2516 
Q 1319 2381 1436 2309 
Q 1553 2238 1856 2203 
L 2053 2175 
Q 2913 2066 3209 1816 
Q 3506 1566 3506 1031 
Q 3506 472 3093 190 
Q 2681 -91 1863 -91 
Q 1516 -91 1145 -36 
Q 775 19 384 128 
L 384 978 
Q 719 816 1070 734 
Q 1422 653 1784 653 
Q 2113 653 2278 743 
Q 2444 834 2444 1013 
Q 2444 1163 2330 1236 
Q 2216 1309 1875 1350 
L 1678 1375 
Q 931 1469 631 1722 
Q 331 1975 331 2491 
Q 331 3047 712 3315 
Q 1094 3584 1881 3584 
Q 2191 3584 2531 3537 
Q 2872 3491 3272 3391 
z
" transform="scale(0.015625)"/>
       <path id="DejaVuSans-Bold-b5" d="M 544 -1338 
L 544 3500 
L 1672 3500 
L 1672 1466 
Q 1672 1103 1828 926 
Q 1984 750 2303 750 
Q 2625 750 2781 926 
Q 2938 1103 2938 1466 
L 2938 3500 
L 4063 3500 
L 4063 1159 
Q 4063 938 4114 850 
Q 4166 763 4288 763 
Q 4344 763 4395 778 
Q 4447 794 4506 831 
L 4506 50 
Q 4341 -22 4195 -56 
Q 4050 -91 3909 -91 
Q 3631 -91 3454 26 
Q 3278 144 3169 403 
Q 3022 156 2811 32 
Q 2600 -91 2322 -91 
Q 2091 -91 1928 -17 
Q 1766 56 1672 206 
L 1672 -1338 
L 544 -1338 
z
" transform="scale(0.015625)"/>
       <path id="DejaVuSans-Bold-4d" d="M 588 4666 
L 2119 4666 
L 3181 2169 
L 4250 4666 
L 5778 4666 
L 5778 0 
L 4641 0 
L 4641 3413 
L 3566 897 
L 2803 897 
L 1728 3413 
L 1728 0 
L 588 0 
L 588 4666 
z
" transform="scale(0.015625)"/>
      </defs>
      <use xlink:href="#DejaVuSans-Bold-72"/>
      <use xlink:href="#DejaVuSans-Bold-69" x="49.316406"/>
      <use xlink:href="#DejaVuSans-Bold-76" x="83.59375"/>
      <use xlink:href="#DejaVuSans-Bold-61" x="148.779297"/>
      <use xlink:href="#DejaVuSans-Bold-72" x="216.259766"/>
      <use xlink:href="#DejaVuSans-Bold-6f" x="265.576172"/>
      <use xlink:href="#DejaVuSans-Bold-78" x="334.277344"/>
      <use xlink:href="#DejaVuSans-Bold-61" x="398.779297"/>
      <use xlink:href="#DejaVuSans-Bold-62" x="466.259766"/>
      <use xlink:href="#DejaVuSans-Bold-61" x="537.841797"/>
      <use xlink:href="#DejaVuSans-Bold-6e" x="605.322266"/>
      <use xlink:href="#DejaVuSans-Bold-20" x="676.513672"/>
      <use xlink:href="#DejaVuSans-Bold-70" x="711.328125"/>
      <use xlink:href="#DejaVuSans-Bold-6c" x="782.910156"/>
      <use xlink:href="#DejaVuSans-Bold-61" x="817.1875"/>
      <use xlink:href="#DejaVuSans-Bold-73" x="884.667969"/>
      <use xlink:href="#DejaVuSans-Bold-6d" x="944.189453"/>
      <use xlink:href="#DejaVuSans-Bold-61" x="1048.388672"/>
      <use xlink:href="#DejaVuSans-Bold-20" x="1115.869141"/>
      <use xlink:href="#DejaVuSans-Bold-5b" x="1150.683594"/>
      <use xlink:href="#DejaVuSans-Bold-b5" x="1196.386719"/>
      <use xlink:href="#DejaVuSans-Bold-4d" x="1269.970703"/>
      <use xlink:href="#DejaVuSans-Bold-5d" x="1369.482422"/>
     </g>
    </g>
   </g>
   <g id="LineCollection_1">
    <path d="M 89.819077 307.8 
L 89.819077 223.8 
" clip-path="url(#p7d05d4bcb3)" style="fill: none; stroke: #a35ac7"/>
    <path d="M 92.170672 306.992308 
L 92.170672 224.607692 
" clip-path="url(#p7d05d4bcb3)" style="fill: none; stroke: #a35ac7"/>
    <path d="M 95.462906 307.8 
L 95.462906 223.8 
" clip-path="url(#p7d05d4bcb3)" style="fill: none; stroke: #a35ac7"/>
    <path d="M 98.28482 290.838462 
L 98.28482 231.069231 
" clip-path="url(#p7d05d4bcb3)" style="fill: none; stroke: #a35ac7"/>
    <path d="M 101.577054 298.915385 
L 101.577054 214.915385 
" clip-path="url(#p7d05d4bcb3)" style="fill: none; stroke: #a35ac7"/>
    <path d="M 104.398968 293.261538 
L 104.398968 207.646154 
" clip-path="url(#p7d05d4bcb3)" style="fill: none; stroke: #a35ac7"/>
    <path d="M 106.750564 283.569231 
L 106.750564 196.338462 
" clip-path="url(#p7d05d4bcb3)" style="fill: none; stroke: #a35ac7"/>
    <path d="M 113.335031 250.453846 
L 113.335031 164.838462 
" clip-path="url(#p7d05d4bcb3)" style="fill: none; stroke: #a35ac7"/>
    <path d="M 119.449179 201.184615 
L 119.449179 117.184615 
" clip-path="url(#p7d05d4bcb3)" style="fill: none; stroke: #a35ac7"/>
    <path d="M 125.563327 157.569231 
L 125.563327 70.338462 
" clip-path="url(#p7d05d4bcb3)" style="fill: none; stroke: #a35ac7"/>
    <path d="M 136.850985 139.8 
L 136.850985 55.8 
" clip-path="url(#p7d05d4bcb3)" style="fill: none; stroke: #a35ac7"/>
    <path d="M 161.307578 201.992308 
L 161.307578 117.992308 
" clip-path="url(#p7d05d4bcb3)" style="fill: none; stroke: #a35ac7"/>
    <path d="M 184.353213 240.761538 
L 184.353213 151.915385 
" clip-path="url(#p7d05d4bcb3)" style="fill: none; stroke: #a35ac7"/>
    <path d="M 231.85544 277.107692 
L 231.85544 189.876923 
" clip-path="url(#p7d05d4bcb3)" style="fill: none; stroke: #a35ac7"/>
    <path d="M 266.659053 288.415385 
L 266.659053 201.184615 
" clip-path="url(#p7d05d4bcb3)" style="fill: none; stroke: #a35ac7"/>
    <path d="M 373.891804 302.953846 
L 373.891804 217.338462 
" clip-path="url(#p7d05d4bcb3)" style="fill: none; stroke: #a35ac7"/>
   </g>
   <g id="LineCollection_2">
    <path d="M 95.462906 266.607692 
L 95.462906 240.761538 
" clip-path="url(#p7d05d4bcb3)" style="fill: none; stroke: #ddb8ea"/>
    <path d="M 98.755139 261.761538 
L 98.755139 205.223077 
" clip-path="url(#p7d05d4bcb3)" style="fill: none; stroke: #ddb8ea"/>
    <path d="M 101.577054 249.646154 
L 101.577054 191.492308 
" clip-path="url(#p7d05d4bcb3)" style="fill: none; stroke: #ddb8ea"/>
    <path d="M 103.928649 249.646154 
L 103.928649 185.030769 
" clip-path="url(#p7d05d4bcb3)" style="fill: none; stroke: #ddb8ea"/>
    <path d="M 106.750564 232.684615 
L 106.750564 187.453846 
" clip-path="url(#p7d05d4bcb3)" style="fill: none; stroke: #ddb8ea"/>
    <path d="M 112.394393 222.992308 
L 112.394393 169.684615 
" clip-path="url(#p7d05d4bcb3)" style="fill: none; stroke: #ddb8ea"/>
    <path d="M 125.563327 176.146154 
L 125.563327 137.376923 
" clip-path="url(#p7d05d4bcb3)" style="fill: none; stroke: #ddb8ea"/>
    <path d="M 136.850985 183.415385 
L 136.850985 152.723077 
" clip-path="url(#p7d05d4bcb3)" style="fill: none; stroke: #ddb8ea"/>
    <path d="M 160.366939 216.530769 
L 160.366939 201.992308 
" clip-path="url(#p7d05d4bcb3)" style="fill: none; stroke: #ddb8ea"/>
    <path d="M 185.293851 228.646154 
L 185.293851 218.953846 
" clip-path="url(#p7d05d4bcb3)" style="fill: none; stroke: #ddb8ea"/>
    <path d="M 231.85544 244.8 
L 231.85544 239.953846 
" clip-path="url(#p7d05d4bcb3)" style="fill: none; stroke: #ddb8ea"/>
    <path d="M 267.129372 249.646154 
L 267.129372 248.030769 
" clip-path="url(#p7d05d4bcb3)" style="fill: none; stroke: #ddb8ea"/>
    <path d="M 373.891804 260.146154 
L 373.891804 253.684615 
" clip-path="url(#p7d05d4bcb3)" style="fill: none; stroke: #ddb8ea"/>
   </g>
   <g id="line2d_14">
    <path d="M 89.819077 266.607692 
L 90.529259 265.818495 
L 91.23944 263.163091 
L 91.949622 259.061467 
L 93.369986 248.081579 
L 99.761622 192.469812 
L 101.181986 182.769775 
L 102.602349 174.410558 
L 104.022713 167.343719 
L 105.443077 161.479412 
L 106.86344 156.707639 
L 108.283804 152.911648 
L 109.704168 149.976098 
L 111.124531 147.791793 
L 112.544895 146.258173 
L 113.965259 145.284389 
L 115.385622 144.789477 
L 116.805986 144.702021 
L 118.226349 144.959508 
L 119.646713 145.507548 
L 121.067077 146.29904 
L 122.48744 147.293351 
L 124.617986 149.090041 
L 126.748531 151.167965 
L 129.589259 154.244991 
L 133.850349 159.250675 
L 150.184531 178.903043 
L 155.865986 185.214028 
L 160.837259 190.415252 
L 165.808531 195.311643 
L 170.779804 199.909189 
L 175.751077 204.219346 
L 180.722349 208.256196 
L 185.693622 212.034841 
L 191.375077 216.056657 
L 197.056531 219.783273 
L 202.737986 223.235796 
L 208.41944 226.434089 
L 214.100895 229.396715 
L 220.492531 232.469443 
L 226.884168 235.288496 
L 233.275804 237.874788 
L 240.377622 240.498756 
L 247.47944 242.883104 
L 255.29144 245.255177 
L 263.10344 247.390082 
L 271.625622 249.47638 
L 280.147804 251.336187 
L 289.380168 253.123839 
L 299.322713 254.815702 
L 309.97544 256.393568 
L 321.338349 257.844625 
L 333.41144 259.161195 
L 346.904895 260.400005 
L 361.108531 261.482047 
L 377.442713 262.495343 
L 395.197259 263.37091 
L 415.792531 264.155805 
L 439.228531 264.82017 
L 444.909986 264.952003 
L 444.909986 264.952003 
" clip-path="url(#p7d05d4bcb3)" style="fill: none; stroke: #a35ac7; stroke-width: 2; stroke-linecap: square"/>
   </g>
   <g id="line2d_15">
    <path d="M 89.819077 265.8 
L 92.170672 265.8 
L 95.462906 265.8 
L 98.28482 260.953846 
L 101.577054 256.915385 
L 104.398968 250.453846 
L 106.750564 239.953846 
L 113.335031 207.646154 
L 119.449179 159.184615 
L 125.563327 113.953846 
L 136.850985 97.8 
L 161.307578 159.992308 
L 184.353213 196.338462 
L 231.85544 233.492308 
L 266.659053 244.8 
L 373.891804 260.146154 
" clip-path="url(#p7d05d4bcb3)" style="fill: none; stroke-dasharray: 3.7,1.6; stroke-dashoffset: 0; stroke: #a35ac7"/>
    <defs>
     <path id="m0560a20382" d="M -3 3 
L 3 3 
L 3 -3 
L -3 -3 
z
" style="stroke: #000000; stroke-linejoin: miter"/>
    </defs>
    <g clip-path="url(#p7d05d4bcb3)">
     <use xlink:href="#m0560a20382" x="89.819077" y="265.8" style="fill: #a35ac7; stroke: #000000; stroke-linejoin: miter"/>
     <use xlink:href="#m0560a20382" x="92.170672" y="265.8" style="fill: #a35ac7; stroke: #000000; stroke-linejoin: miter"/>
     <use xlink:href="#m0560a20382" x="95.462906" y="265.8" style="fill: #a35ac7; stroke: #000000; stroke-linejoin: miter"/>
     <use xlink:href="#m0560a20382" x="98.28482" y="260.953846" style="fill: #a35ac7; stroke: #000000; stroke-linejoin: miter"/>
     <use xlink:href="#m0560a20382" x="101.577054" y="256.915385" style="fill: #a35ac7; stroke: #000000; stroke-linejoin: miter"/>
     <use xlink:href="#m0560a20382" x="104.398968" y="250.453846" style="fill: #a35ac7; stroke: #000000; stroke-linejoin: miter"/>
     <use xlink:href="#m0560a20382" x="106.750564" y="239.953846" style="fill: #a35ac7; stroke: #000000; stroke-linejoin: miter"/>
     <use xlink:href="#m0560a20382" x="113.335031" y="207.646154" style="fill: #a35ac7; stroke: #000000; stroke-linejoin: miter"/>
     <use xlink:href="#m0560a20382" x="119.449179" y="159.184615" style="fill: #a35ac7; stroke: #000000; stroke-linejoin: miter"/>
     <use xlink:href="#m0560a20382" x="125.563327" y="113.953846" style="fill: #a35ac7; stroke: #000000; stroke-linejoin: miter"/>
     <use xlink:href="#m0560a20382" x="136.850985" y="97.8" style="fill: #a35ac7; stroke: #000000; stroke-linejoin: miter"/>
     <use xlink:href="#m0560a20382" x="161.307578" y="159.992308" style="fill: #a35ac7; stroke: #000000; stroke-linejoin: miter"/>
     <use xlink:href="#m0560a20382" x="184.353213" y="196.338462" style="fill: #a35ac7; stroke: #000000; stroke-linejoin: miter"/>
     <use xlink:href="#m0560a20382" x="231.85544" y="233.492308" style="fill: #a35ac7; stroke: #000000; stroke-linejoin: miter"/>
     <use xlink:href="#m0560a20382" x="266.659053" y="244.8" style="fill: #a35ac7; stroke: #000000; stroke-linejoin: miter"/>
     <use xlink:href="#m0560a20382" x="373.891804" y="260.146154" style="fill: #a35ac7; stroke: #000000; stroke-linejoin: miter"/>
    </g>
   </g>
   <g id="line2d_16">
    <path d="M 89.819077 266.607692 
L 90.529259 265.960551 
L 91.23944 263.783119 
L 91.949622 260.419788 
L 93.369986 251.41628 
L 99.761622 205.81463 
L 101.181986 197.8606 
L 102.602349 191.006043 
L 104.022713 185.211235 
L 105.443077 180.402502 
L 106.86344 176.489648 
L 108.283804 173.376936 
L 109.704168 170.969785 
L 111.124531 169.178655 
L 112.544895 167.921087 
L 113.965259 167.122583 
L 115.385622 166.716756 
L 116.805986 166.645041 
L 118.226349 166.856181 
L 119.646713 167.305574 
L 121.067077 167.954598 
L 123.197622 169.230847 
L 125.328168 170.788998 
L 128.168895 173.179314 
L 131.719804 176.488938 
L 138.11144 182.84287 
L 147.343804 191.990298 
L 153.025259 197.316393 
L 158.706713 202.332684 
L 164.388168 207.023108 
L 170.069622 211.391028 
L 175.751077 215.449248 
L 181.432531 219.214777 
L 187.113986 222.706102 
L 192.79544 225.941801 
L 198.476895 228.939852 
L 204.868531 232.049801 
L 211.260168 234.90326 
L 217.651804 237.521243 
L 224.753622 240.177434 
L 231.85544 242.591098 
L 239.66744 244.992352 
L 247.47944 247.15353 
L 256.001622 249.265506 
L 264.523804 251.148204 
L 273.756168 252.957861 
L 283.698713 254.67055 
L 294.35144 256.267838 
L 305.714349 257.736757 
L 317.78744 259.069533 
L 331.280895 260.323592 
L 345.484531 261.418954 
L 361.108531 262.404663 
L 378.863077 263.299538 
L 398.748168 264.077626 
L 422.184168 264.763175 
L 444.909986 265.250027 
L 444.909986 265.250027 
" clip-path="url(#p7d05d4bcb3)" style="fill: none; stroke: #ddb8ea; stroke-width: 2; stroke-linecap: square"/>
   </g>
   <g id="line2d_17">
    <path d="M 95.462906 253.684615 
L 98.755139 233.492308 
L 101.577054 220.569231 
L 103.928649 217.338462 
L 106.750564 210.069231 
L 112.394393 196.338462 
L 125.563327 156.761538 
L 136.850985 168.069231 
L 160.366939 209.261538 
L 185.293851 223.8 
L 231.85544 242.376923 
L 267.129372 248.838462 
L 373.891804 256.915385 
" clip-path="url(#p7d05d4bcb3)" style="fill: none; stroke-dasharray: 3.7,1.6; stroke-dashoffset: 0; stroke: #ddb8ea"/>
    <defs>
     <path id="m0bc8397555" d="M -3 3 
L 3 3 
L 3 -3 
L -3 -3 
z
" style="stroke: #000000; stroke-linejoin: miter"/>
    </defs>
    <g clip-path="url(#p7d05d4bcb3)">
     <use xlink:href="#m0bc8397555" x="95.462906" y="253.684615" style="fill: #ddb8ea; stroke: #000000; stroke-linejoin: miter"/>
     <use xlink:href="#m0bc8397555" x="98.755139" y="233.492308" style="fill: #ddb8ea; stroke: #000000; stroke-linejoin: miter"/>
     <use xlink:href="#m0bc8397555" x="101.577054" y="220.569231" style="fill: #ddb8ea; stroke: #000000; stroke-linejoin: miter"/>
     <use xlink:href="#m0bc8397555" x="103.928649" y="217.338462" style="fill: #ddb8ea; stroke: #000000; stroke-linejoin: miter"/>
     <use xlink:href="#m0bc8397555" x="106.750564" y="210.069231" style="fill: #ddb8ea; stroke: #000000; stroke-linejoin: miter"/>
     <use xlink:href="#m0bc8397555" x="112.394393" y="196.338462" style="fill: #ddb8ea; stroke: #000000; stroke-linejoin: miter"/>
     <use xlink:href="#m0bc8397555" x="125.563327" y="156.761538" style="fill: #ddb8ea; stroke: #000000; stroke-linejoin: miter"/>
     <use xlink:href="#m0bc8397555" x="136.850985" y="168.069231" style="fill: #ddb8ea; stroke: #000000; stroke-linejoin: miter"/>
     <use xlink:href="#m0bc8397555" x="160.366939" y="209.261538" style="fill: #ddb8ea; stroke: #000000; stroke-linejoin: miter"/>
     <use xlink:href="#m0bc8397555" x="185.293851" y="223.8" style="fill: #ddb8ea; stroke: #000000; stroke-linejoin: miter"/>
     <use xlink:href="#m0bc8397555" x="231.85544" y="242.376923" style="fill: #ddb8ea; stroke: #000000; stroke-linejoin: miter"/>
     <use xlink:href="#m0bc8397555" x="267.129372" y="248.838462" style="fill: #ddb8ea; stroke: #000000; stroke-linejoin: miter"/>
     <use xlink:href="#m0bc8397555" x="373.891804" y="256.915385" style="fill: #ddb8ea; stroke: #000000; stroke-linejoin: miter"/>
    </g>
   </g>
   <g id="patch_3">
    <path d="M 72.064531 320.4 
L 72.064531 43.2 
" style="fill: none; stroke: #000000; stroke-width: 0.8; stroke-linejoin: miter; stroke-linecap: square"/>
   </g>
   <g id="patch_4">
    <path d="M 462.664531 320.4 
L 462.664531 43.2 
" style="fill: none; stroke: #000000; stroke-width: 0.8; stroke-linejoin: miter; stroke-linecap: square"/>
   </g>
   <g id="patch_5">
    <path d="M 72.064531 320.4 
L 462.664531 320.4 
" style="fill: none; stroke: #000000; stroke-width: 0.8; stroke-linejoin: miter; stroke-linecap: square"/>
   </g>
   <g id="patch_6">
    <path d="M 72.064531 43.2 
L 462.664531 43.2 
" style="fill: none; stroke: #000000; stroke-width: 0.8; stroke-linejoin: miter; stroke-linecap: square"/>
   </g>
   <g id="legend_1">
    <g id="patch_7">
     <path d="M 305.253594 109.9125 
L 455.664531 109.9125 
Q 457.664531 109.9125 457.664531 107.9125 
L 457.664531 50.2 
Q 457.664531 48.2 455.664531 48.2 
L 305.253594 48.2 
Q 303.253594 48.2 303.253594 50.2 
L 303.253594 107.9125 
Q 303.253594 109.9125 305.253594 109.9125 
z
" style="fill: #ffffff; opacity: 0.8; stroke: #cccccc; stroke-linejoin: miter"/>
    </g>
    <g id="line2d_18">
     <path d="M 307.253594 56.298437 
L 327.253594 56.298437 
" style="fill: none; stroke: #a35ac7; stroke-width: 2; stroke-linecap: square"/>
    </g>
    <g id="line2d_19"/>
    <g id="text_16">
     <!-- RIV10 fed -->
     <g transform="translate(335.253594 59.798437) scale(0.1 -0.1)">
      <defs>
       <path id="DejaVuSans-52" d="M 2841 2188 
Q 3044 2119 3236 1894 
Q 3428 1669 3622 1275 
L 4263 0 
L 3584 0 
L 2988 1197 
Q 2756 1666 2539 1819 
Q 2322 1972 1947 1972 
L 1259 1972 
L 1259 0 
L 628 0 
L 628 4666 
L 2053 4666 
Q 2853 4666 3247 4331 
Q 3641 3997 3641 3322 
Q 3641 2881 3436 2590 
Q 3231 2300 2841 2188 
z
M 1259 4147 
L 1259 2491 
L 2053 2491 
Q 2509 2491 2742 2702 
Q 2975 2913 2975 3322 
Q 2975 3731 2742 3939 
Q 2509 4147 2053 4147 
L 1259 4147 
z
" transform="scale(0.015625)"/>
       <path id="DejaVuSans-49" d="M 628 4666 
L 1259 4666 
L 1259 0 
L 628 0 
L 628 4666 
z
" transform="scale(0.015625)"/>
       <path id="DejaVuSans-56" d="M 1831 0 
L 50 4666 
L 709 4666 
L 2188 738 
L 3669 4666 
L 4325 4666 
L 2547 0 
L 1831 0 
z
" transform="scale(0.015625)"/>
       <path id="DejaVuSans-20" transform="scale(0.015625)"/>
       <path id="DejaVuSans-66" d="M 2375 4863 
L 2375 4384 
L 1825 4384 
Q 1516 4384 1395 4259 
Q 1275 4134 1275 3809 
L 1275 3500 
L 2222 3500 
L 2222 3053 
L 1275 3053 
L 1275 0 
L 697 0 
L 697 3053 
L 147 3053 
L 147 3500 
L 697 3500 
L 697 3744 
Q 697 4328 969 4595 
Q 1241 4863 1831 4863 
L 2375 4863 
z
" transform="scale(0.015625)"/>
       <path id="DejaVuSans-65" d="M 3597 1894 
L 3597 1613 
L 953 1613 
Q 991 1019 1311 708 
Q 1631 397 2203 397 
Q 2534 397 2845 478 
Q 3156 559 3463 722 
L 3463 178 
Q 3153 47 2828 -22 
Q 2503 -91 2169 -91 
Q 1331 -91 842 396 
Q 353 884 353 1716 
Q 353 2575 817 3079 
Q 1281 3584 2069 3584 
Q 2775 3584 3186 3129 
Q 3597 2675 3597 1894 
z
M 3022 2063 
Q 3016 2534 2758 2815 
Q 2500 3097 2075 3097 
Q 1594 3097 1305 2825 
Q 1016 2553 972 2059 
L 3022 2063 
z
" transform="scale(0.015625)"/>
       <path id="DejaVuSans-64" d="M 2906 2969 
L 2906 4863 
L 3481 4863 
L 3481 0 
L 2906 0 
L 2906 525 
Q 2725 213 2448 61 
Q 2172 -91 1784 -91 
Q 1150 -91 751 415 
Q 353 922 353 1747 
Q 353 2572 751 3078 
Q 1150 3584 1784 3584 
Q 2172 3584 2448 3432 
Q 2725 3281 2906 2969 
z
M 947 1747 
Q 947 1113 1208 752 
Q 1469 391 1925 391 
Q 2381 391 2643 752 
Q 2906 1113 2906 1747 
Q 2906 2381 2643 2742 
Q 2381 3103 1925 3103 
Q 1469 3103 1208 2742 
Q 947 2381 947 1747 
z
" transform="scale(0.015625)"/>
      </defs>
      <use xlink:href="#DejaVuSans-52"/>
      <use xlink:href="#DejaVuSans-49" x="69.482422"/>
      <use xlink:href="#DejaVuSans-56" x="98.974609"/>
      <use xlink:href="#DejaVuSans-31" x="167.382812"/>
      <use xlink:href="#DejaVuSans-30" x="231.005859"/>
      <use xlink:href="#DejaVuSans-20" x="294.628906"/>
      <use xlink:href="#DejaVuSans-66" x="326.416016"/>
      <use xlink:href="#DejaVuSans-65" x="361.621094"/>
      <use xlink:href="#DejaVuSans-64" x="423.144531"/>
     </g>
    </g>
    <g id="LineCollection_3">
     <path d="M 317.253594 75.976562 
L 317.253594 65.976562 
" style="fill: none; stroke: #a35ac7"/>
    </g>
    <g id="line2d_20">
     <path d="M 307.253594 70.976562 
L 327.253594 70.976562 
" style="fill: none; stroke-dasharray: 3.7,1.6; stroke-dashoffset: 0; stroke: #a35ac7"/>
    </g>
    <g id="line2d_21">
     <g>
      <use xlink:href="#m0560a20382" x="317.253594" y="70.976562" style="fill: #a35ac7; stroke: #000000; stroke-linejoin: miter"/>
     </g>
    </g>
    <g id="text_17">
     <!-- RIV10 fed±SD (n=8) -->
     <g transform="translate(335.253594 74.476562) scale(0.1 -0.1)">
      <defs>
       <path id="DejaVuSans-b1" d="M 2944 4013 
L 2944 2803 
L 4684 2803 
L 4684 2272 
L 2944 2272 
L 2944 1063 
L 2419 1063 
L 2419 2272 
L 678 2272 
L 678 2803 
L 2419 2803 
L 2419 4013 
L 2944 4013 
z
M 678 531 
L 4684 531 
L 4684 0 
L 678 0 
L 678 531 
z
" transform="scale(0.015625)"/>
       <path id="DejaVuSans-53" d="M 3425 4513 
L 3425 3897 
Q 3066 4069 2747 4153 
Q 2428 4238 2131 4238 
Q 1616 4238 1336 4038 
Q 1056 3838 1056 3469 
Q 1056 3159 1242 3001 
Q 1428 2844 1947 2747 
L 2328 2669 
Q 3034 2534 3370 2195 
Q 3706 1856 3706 1288 
Q 3706 609 3251 259 
Q 2797 -91 1919 -91 
Q 1588 -91 1214 -16 
Q 841 59 441 206 
L 441 856 
Q 825 641 1194 531 
Q 1563 422 1919 422 
Q 2459 422 2753 634 
Q 3047 847 3047 1241 
Q 3047 1584 2836 1778 
Q 2625 1972 2144 2069 
L 1759 2144 
Q 1053 2284 737 2584 
Q 422 2884 422 3419 
Q 422 4038 858 4394 
Q 1294 4750 2059 4750 
Q 2388 4750 2728 4690 
Q 3069 4631 3425 4513 
z
" transform="scale(0.015625)"/>
       <path id="DejaVuSans-44" d="M 1259 4147 
L 1259 519 
L 2022 519 
Q 2988 519 3436 956 
Q 3884 1394 3884 2338 
Q 3884 3275 3436 3711 
Q 2988 4147 2022 4147 
L 1259 4147 
z
M 628 4666 
L 1925 4666 
Q 3281 4666 3915 4102 
Q 4550 3538 4550 2338 
Q 4550 1131 3912 565 
Q 3275 0 1925 0 
L 628 0 
L 628 4666 
z
" transform="scale(0.015625)"/>
       <path id="DejaVuSans-28" d="M 1984 4856 
Q 1566 4138 1362 3434 
Q 1159 2731 1159 2009 
Q 1159 1288 1364 580 
Q 1569 -128 1984 -844 
L 1484 -844 
Q 1016 -109 783 600 
Q 550 1309 550 2009 
Q 550 2706 781 3412 
Q 1013 4119 1484 4856 
L 1984 4856 
z
" transform="scale(0.015625)"/>
       <path id="DejaVuSans-6e" d="M 3513 2113 
L 3513 0 
L 2938 0 
L 2938 2094 
Q 2938 2591 2744 2837 
Q 2550 3084 2163 3084 
Q 1697 3084 1428 2787 
Q 1159 2491 1159 1978 
L 1159 0 
L 581 0 
L 581 3500 
L 1159 3500 
L 1159 2956 
Q 1366 3272 1645 3428 
Q 1925 3584 2291 3584 
Q 2894 3584 3203 3211 
Q 3513 2838 3513 2113 
z
" transform="scale(0.015625)"/>
       <path id="DejaVuSans-3d" d="M 678 2906 
L 4684 2906 
L 4684 2381 
L 678 2381 
L 678 2906 
z
M 678 1631 
L 4684 1631 
L 4684 1100 
L 678 1100 
L 678 1631 
z
" transform="scale(0.015625)"/>
       <path id="DejaVuSans-38" d="M 2034 2216 
Q 1584 2216 1326 1975 
Q 1069 1734 1069 1313 
Q 1069 891 1326 650 
Q 1584 409 2034 409 
Q 2484 409 2743 651 
Q 3003 894 3003 1313 
Q 3003 1734 2745 1975 
Q 2488 2216 2034 2216 
z
M 1403 2484 
Q 997 2584 770 2862 
Q 544 3141 544 3541 
Q 544 4100 942 4425 
Q 1341 4750 2034 4750 
Q 2731 4750 3128 4425 
Q 3525 4100 3525 3541 
Q 3525 3141 3298 2862 
Q 3072 2584 2669 2484 
Q 3125 2378 3379 2068 
Q 3634 1759 3634 1313 
Q 3634 634 3220 271 
Q 2806 -91 2034 -91 
Q 1263 -91 848 271 
Q 434 634 434 1313 
Q 434 1759 690 2068 
Q 947 2378 1403 2484 
z
M 1172 3481 
Q 1172 3119 1398 2916 
Q 1625 2713 2034 2713 
Q 2441 2713 2670 2916 
Q 2900 3119 2900 3481 
Q 2900 3844 2670 4047 
Q 2441 4250 2034 4250 
Q 1625 4250 1398 4047 
Q 1172 3844 1172 3481 
z
" transform="scale(0.015625)"/>
       <path id="DejaVuSans-29" d="M 513 4856 
L 1013 4856 
Q 1481 4119 1714 3412 
Q 1947 2706 1947 2009 
Q 1947 1309 1714 600 
Q 1481 -109 1013 -844 
L 513 -844 
Q 928 -128 1133 580 
Q 1338 1288 1338 2009 
Q 1338 2731 1133 3434 
Q 928 4138 513 4856 
z
" transform="scale(0.015625)"/>
      </defs>
      <use xlink:href="#DejaVuSans-52"/>
      <use xlink:href="#DejaVuSans-49" x="69.482422"/>
      <use xlink:href="#DejaVuSans-56" x="98.974609"/>
      <use xlink:href="#DejaVuSans-31" x="167.382812"/>
      <use xlink:href="#DejaVuSans-30" x="231.005859"/>
      <use xlink:href="#DejaVuSans-20" x="294.628906"/>
      <use xlink:href="#DejaVuSans-66" x="326.416016"/>
      <use xlink:href="#DejaVuSans-65" x="361.621094"/>
      <use xlink:href="#DejaVuSans-64" x="423.144531"/>
      <use xlink:href="#DejaVuSans-b1" x="486.621094"/>
      <use xlink:href="#DejaVuSans-53" x="570.410156"/>
      <use xlink:href="#DejaVuSans-44" x="633.886719"/>
      <use xlink:href="#DejaVuSans-20" x="710.888672"/>
      <use xlink:href="#DejaVuSans-28" x="742.675781"/>
      <use xlink:href="#DejaVuSans-6e" x="781.689453"/>
      <use xlink:href="#DejaVuSans-3d" x="845.068359"/>
      <use xlink:href="#DejaVuSans-38" x="928.857422"/>
      <use xlink:href="#DejaVuSans-29" x="992.480469"/>
     </g>
    </g>
    <g id="line2d_22">
     <path d="M 307.253594 85.654687 
L 327.253594 85.654687 
" style="fill: none; stroke: #ddb8ea; stroke-width: 2; stroke-linecap: square"/>
    </g>
    <g id="line2d_23"/>
    <g id="text_18">
     <!-- RIV10 fasted -->
     <g transform="translate(335.253594 89.154687) scale(0.1 -0.1)">
      <defs>
       <path id="DejaVuSans-61" d="M 2194 1759 
Q 1497 1759 1228 1600 
Q 959 1441 959 1056 
Q 959 750 1161 570 
Q 1363 391 1709 391 
Q 2188 391 2477 730 
Q 2766 1069 2766 1631 
L 2766 1759 
L 2194 1759 
z
M 3341 1997 
L 3341 0 
L 2766 0 
L 2766 531 
Q 2569 213 2275 61 
Q 1981 -91 1556 -91 
Q 1019 -91 701 211 
Q 384 513 384 1019 
Q 384 1609 779 1909 
Q 1175 2209 1959 2209 
L 2766 2209 
L 2766 2266 
Q 2766 2663 2505 2880 
Q 2244 3097 1772 3097 
Q 1472 3097 1187 3025 
Q 903 2953 641 2809 
L 641 3341 
Q 956 3463 1253 3523 
Q 1550 3584 1831 3584 
Q 2591 3584 2966 3190 
Q 3341 2797 3341 1997 
z
" transform="scale(0.015625)"/>
       <path id="DejaVuSans-73" d="M 2834 3397 
L 2834 2853 
Q 2591 2978 2328 3040 
Q 2066 3103 1784 3103 
Q 1356 3103 1142 2972 
Q 928 2841 928 2578 
Q 928 2378 1081 2264 
Q 1234 2150 1697 2047 
L 1894 2003 
Q 2506 1872 2764 1633 
Q 3022 1394 3022 966 
Q 3022 478 2636 193 
Q 2250 -91 1575 -91 
Q 1294 -91 989 -36 
Q 684 19 347 128 
L 347 722 
Q 666 556 975 473 
Q 1284 391 1588 391 
Q 1994 391 2212 530 
Q 2431 669 2431 922 
Q 2431 1156 2273 1281 
Q 2116 1406 1581 1522 
L 1381 1569 
Q 847 1681 609 1914 
Q 372 2147 372 2553 
Q 372 3047 722 3315 
Q 1072 3584 1716 3584 
Q 2034 3584 2315 3537 
Q 2597 3491 2834 3397 
z
" transform="scale(0.015625)"/>
       <path id="DejaVuSans-74" d="M 1172 4494 
L 1172 3500 
L 2356 3500 
L 2356 3053 
L 1172 3053 
L 1172 1153 
Q 1172 725 1289 603 
Q 1406 481 1766 481 
L 2356 481 
L 2356 0 
L 1766 0 
Q 1100 0 847 248 
Q 594 497 594 1153 
L 594 3053 
L 172 3053 
L 172 3500 
L 594 3500 
L 594 4494 
L 1172 4494 
z
" transform="scale(0.015625)"/>
      </defs>
      <use xlink:href="#DejaVuSans-52"/>
      <use xlink:href="#DejaVuSans-49" x="69.482422"/>
      <use xlink:href="#DejaVuSans-56" x="98.974609"/>
      <use xlink:href="#DejaVuSans-31" x="167.382812"/>
      <use xlink:href="#DejaVuSans-30" x="231.005859"/>
      <use xlink:href="#DejaVuSans-20" x="294.628906"/>
      <use xlink:href="#DejaVuSans-66" x="326.416016"/>
      <use xlink:href="#DejaVuSans-61" x="361.621094"/>
      <use xlink:href="#DejaVuSans-73" x="422.900391"/>
      <use xlink:href="#DejaVuSans-74" x="475"/>
      <use xlink:href="#DejaVuSans-65" x="514.208984"/>
      <use xlink:href="#DejaVuSans-64" x="575.732422"/>
     </g>
    </g>
    <g id="LineCollection_4">
     <path d="M 317.253594 105.332812 
L 317.253594 95.332812 
" style="fill: none; stroke: #ddb8ea"/>
    </g>
    <g id="line2d_24">
     <path d="M 307.253594 100.332812 
L 327.253594 100.332812 
" style="fill: none; stroke-dasharray: 3.7,1.6; stroke-dashoffset: 0; stroke: #ddb8ea"/>
    </g>
    <g id="line2d_25">
     <g>
      <use xlink:href="#m0bc8397555" x="317.253594" y="100.332812" style="fill: #ddb8ea; stroke: #000000; stroke-linejoin: miter"/>
     </g>
    </g>
    <g id="text_19">
     <!-- RIV10 fasted±SD (n=8) -->
     <g transform="translate(335.253594 103.832812) scale(0.1 -0.1)">
      <use xlink:href="#DejaVuSans-52"/>
      <use xlink:href="#DejaVuSans-49" x="69.482422"/>
      <use xlink:href="#DejaVuSans-56" x="98.974609"/>
      <use xlink:href="#DejaVuSans-31" x="167.382812"/>
      <use xlink:href="#DejaVuSans-30" x="231.005859"/>
      <use xlink:href="#DejaVuSans-20" x="294.628906"/>
      <use xlink:href="#DejaVuSans-66" x="326.416016"/>
      <use xlink:href="#DejaVuSans-61" x="361.621094"/>
      <use xlink:href="#DejaVuSans-73" x="422.900391"/>
      <use xlink:href="#DejaVuSans-74" x="475"/>
      <use xlink:href="#DejaVuSans-65" x="514.208984"/>
      <use xlink:href="#DejaVuSans-64" x="575.732422"/>
      <use xlink:href="#DejaVuSans-b1" x="639.208984"/>
      <use xlink:href="#DejaVuSans-53" x="722.998047"/>
      <use xlink:href="#DejaVuSans-44" x="786.474609"/>
      <use xlink:href="#DejaVuSans-20" x="863.476562"/>
      <use xlink:href="#DejaVuSans-28" x="895.263672"/>
      <use xlink:href="#DejaVuSans-6e" x="934.277344"/>
      <use xlink:href="#DejaVuSans-3d" x="997.65625"/>
      <use xlink:href="#DejaVuSans-38" x="1081.445312"/>
      <use xlink:href="#DejaVuSans-29" x="1145.068359"/>
     </g>
    </g>
   </g>
  </g>
  <g id="text_20">
   <!-- Kubitza2006 -->
   <g transform="translate(172.992266 26.196094) scale(0.25 -0.25)">
    <defs>
     <path id="DejaVuSans-Bold-4b" d="M 588 4666 
L 1791 4666 
L 1791 2963 
L 3525 4666 
L 4922 4666 
L 2675 2456 
L 5153 0 
L 3647 0 
L 1791 1838 
L 1791 0 
L 588 0 
L 588 4666 
z
" transform="scale(0.015625)"/>
     <path id="DejaVuSans-Bold-75" d="M 500 1363 
L 500 3500 
L 1625 3500 
L 1625 3150 
Q 1625 2866 1622 2436 
Q 1619 2006 1619 1863 
Q 1619 1441 1641 1255 
Q 1663 1069 1716 984 
Q 1784 875 1895 815 
Q 2006 756 2150 756 
Q 2500 756 2700 1025 
Q 2900 1294 2900 1772 
L 2900 3500 
L 4019 3500 
L 4019 0 
L 2900 0 
L 2900 506 
Q 2647 200 2364 54 
Q 2081 -91 1741 -91 
Q 1134 -91 817 281 
Q 500 653 500 1363 
z
" transform="scale(0.015625)"/>
     <path id="DejaVuSans-Bold-7a" d="M 366 3500 
L 3419 3500 
L 3419 2719 
L 1575 800 
L 3419 800 
L 3419 0 
L 288 0 
L 288 781 
L 2131 2700 
L 366 2700 
L 366 3500 
z
" transform="scale(0.015625)"/>
     <path id="DejaVuSans-Bold-32" d="M 1844 884 
L 3897 884 
L 3897 0 
L 506 0 
L 506 884 
L 2209 2388 
Q 2438 2594 2547 2791 
Q 2656 2988 2656 3200 
Q 2656 3528 2436 3728 
Q 2216 3928 1850 3928 
Q 1569 3928 1234 3808 
Q 900 3688 519 3450 
L 519 4475 
Q 925 4609 1322 4679 
Q 1719 4750 2100 4750 
Q 2938 4750 3402 4381 
Q 3866 4013 3866 3353 
Q 3866 2972 3669 2642 
Q 3472 2313 2841 1759 
L 1844 884 
z
" transform="scale(0.015625)"/>
     <path id="DejaVuSans-Bold-30" d="M 2944 2338 
Q 2944 3213 2780 3570 
Q 2616 3928 2228 3928 
Q 1841 3928 1675 3570 
Q 1509 3213 1509 2338 
Q 1509 1453 1675 1090 
Q 1841 728 2228 728 
Q 2613 728 2778 1090 
Q 2944 1453 2944 2338 
z
M 4147 2328 
Q 4147 1169 3647 539 
Q 3147 -91 2228 -91 
Q 1306 -91 806 539 
Q 306 1169 306 2328 
Q 306 3491 806 4120 
Q 1306 4750 2228 4750 
Q 3147 4750 3647 4120 
Q 4147 3491 4147 2328 
z
" transform="scale(0.015625)"/>
     <path id="DejaVuSans-Bold-36" d="M 2316 2303 
Q 2000 2303 1842 2098 
Q 1684 1894 1684 1484 
Q 1684 1075 1842 870 
Q 2000 666 2316 666 
Q 2634 666 2792 870 
Q 2950 1075 2950 1484 
Q 2950 1894 2792 2098 
Q 2634 2303 2316 2303 
z
M 3803 4544 
L 3803 3681 
Q 3506 3822 3243 3889 
Q 2981 3956 2731 3956 
Q 2194 3956 1894 3657 
Q 1594 3359 1544 2772 
Q 1750 2925 1990 3001 
Q 2231 3078 2516 3078 
Q 3231 3078 3670 2659 
Q 4109 2241 4109 1563 
Q 4109 813 3618 361 
Q 3128 -91 2303 -91 
Q 1394 -91 895 523 
Q 397 1138 397 2266 
Q 397 3422 980 4083 
Q 1563 4744 2578 4744 
Q 2900 4744 3203 4694 
Q 3506 4644 3803 4544 
z
" transform="scale(0.015625)"/>
    </defs>
    <use xlink:href="#DejaVuSans-Bold-4b"/>
    <use xlink:href="#DejaVuSans-Bold-75" x="75.740234"/>
    <use xlink:href="#DejaVuSans-Bold-62" x="146.931641"/>
    <use xlink:href="#DejaVuSans-Bold-69" x="218.513672"/>
    <use xlink:href="#DejaVuSans-Bold-74" x="252.791016"/>
    <use xlink:href="#DejaVuSans-Bold-7a" x="300.59375"/>
    <use xlink:href="#DejaVuSans-Bold-61" x="358.796875"/>
    <use xlink:href="#DejaVuSans-Bold-32" x="426.277344"/>
    <use xlink:href="#DejaVuSans-Bold-30" x="495.857422"/>
    <use xlink:href="#DejaVuSans-Bold-30" x="565.4375"/>
    <use xlink:href="#DejaVuSans-Bold-36" x="635.017578"/>
   </g>
  </g>
 </g>
 <defs>
  <clipPath id="p7d05d4bcb3">
   <rect x="72.064531" y="43.2" width="390.6" height="277.2"/>
  </clipPath>
 </defs>
</svg>
