<?xml version="1.0" encoding="utf-8" standalone="no"?>
<!DOCTYPE svg PUBLIC "-//W3C//DTD SVG 1.1//EN"
  "http://www.w3.org/Graphics/SVG/1.1/DTD/svg11.dtd">
<svg xmlns:xlink="http://www.w3.org/1999/xlink" width="452.508125pt" height="683.737812pt" viewBox="0 0 452.508125 683.737812" xmlns="http://www.w3.org/2000/svg" version="1.1">
 <metadata>
  <rdf:RDF xmlns:dc="http://purl.org/dc/elements/1.1/" xmlns:cc="http://creativecommons.org/ns#" xmlns:rdf="http://www.w3.org/1999/02/22-rdf-syntax-ns#">
   <cc:Work>
    <dc:type rdf:resource="http://purl.org/dc/dcmitype/StillImage"/>
    <dc:date>2025-07-19T10:58:39.618244</dc:date>
    <dc:format>image/svg+xml</dc:format>
    <dc:creator>
     <cc:Agent>
      <dc:title>Matplotlib v3.9.1, https://matplotlib.org/</dc:title>
     </cc:Agent>
    </dc:creator>
   </cc:Work>
  </rdf:RDF>
 </metadata>
 <defs>
  <style type="text/css">*{stroke-linejoin: round; stroke-linecap: butt}</style>
 </defs>
 <g id="figure_1">
  <g id="patch_1">
   <path d="M 0 683.737812 
L 452.508125 683.737812 
L 452.508125 0 
L 0 0 
z
" style="fill: #ffffff"/>
  </g>
  <g id="axes_1">
   <g id="patch_2">
    <path d="M 54.708125 320.243478 
L 445.308125 320.243478 
L 445.308125 79.2 
L 54.708125 79.2 
z
" style="fill: #ffffff"/>
   </g>
   <g id="matplotlib.axis_1">
    <g id="xtick_1">
     <g id="line2d_1">
      <defs>
       <path id="m4aafe868ff" d="M 0 0 
L 0 3.5 
" style="stroke: #000000; stroke-width: 0.8"/>
      </defs>
      <g>
       <use xlink:href="#m4aafe868ff" x="72.46267" y="320.243478" style="stroke: #000000; stroke-width: 0.8"/>
      </g>
     </g>
     <g id="text_1">
      <!-- 0 -->
      <g transform="translate(67.690795 338.641135) scale(0.15 -0.15)">
       <defs>
        <path id="DejaVuSans-30" d="M 2034 4250 
Q 1547 4250 1301 3770 
Q 1056 3291 1056 2328 
Q 1056 1369 1301 889 
Q 1547 409 2034 409 
Q 2525 409 2770 889 
Q 3016 1369 3016 2328 
Q 3016 3291 2770 3770 
Q 2525 4250 2034 4250 
z
M 2034 4750 
Q 2819 4750 3233 4129 
Q 3647 3509 3647 2328 
Q 3647 1150 3233 529 
Q 2819 -91 2034 -91 
Q 1250 -91 836 529 
Q 422 1150 422 2328 
Q 422 3509 836 4129 
Q 1250 4750 2034 4750 
z
" transform="scale(0.015625)"/>
       </defs>
       <use xlink:href="#DejaVuSans-30"/>
      </g>
     </g>
    </g>
    <g id="xtick_2">
     <g id="line2d_2">
      <g>
       <use xlink:href="#m4aafe868ff" x="143.480852" y="320.243478" style="stroke: #000000; stroke-width: 0.8"/>
      </g>
     </g>
     <g id="text_2">
      <!-- 10 -->
      <g transform="translate(133.937102 338.641135) scale(0.15 -0.15)">
       <defs>
        <path id="DejaVuSans-31" d="M 794 531 
L 1825 531 
L 1825 4091 
L 703 3866 
L 703 4441 
L 1819 4666 
L 2450 4666 
L 2450 531 
L 3481 531 
L 3481 0 
L 794 0 
L 794 531 
z
" transform="scale(0.015625)"/>
       </defs>
       <use xlink:href="#DejaVuSans-31"/>
       <use xlink:href="#DejaVuSans-30" x="63.623047"/>
      </g>
     </g>
    </g>
    <g id="xtick_3">
     <g id="line2d_3">
      <g>
       <use xlink:href="#m4aafe868ff" x="214.499034" y="320.243478" style="stroke: #000000; stroke-width: 0.8"/>
      </g>
     </g>
     <g id="text_3">
      <!-- 20 -->
      <g transform="translate(204.955284 338.641135) scale(0.15 -0.15)">
       <defs>
        <path id="DejaVuSans-32" d="M 1228 531 
L 3431 531 
L 3431 0 
L 469 0 
L 469 531 
Q 828 903 1448 1529 
Q 2069 2156 2228 2338 
Q 2531 2678 2651 2914 
Q 2772 3150 2772 3378 
Q 2772 3750 2511 3984 
Q 2250 4219 1831 4219 
Q 1534 4219 1204 4116 
Q 875 4013 500 3803 
L 500 4441 
Q 881 4594 1212 4672 
Q 1544 4750 1819 4750 
Q 2544 4750 2975 4387 
Q 3406 4025 3406 3419 
Q 3406 3131 3298 2873 
Q 3191 2616 2906 2266 
Q 2828 2175 2409 1742 
Q 1991 1309 1228 531 
z
" transform="scale(0.015625)"/>
       </defs>
       <use xlink:href="#DejaVuSans-32"/>
       <use xlink:href="#DejaVuSans-30" x="63.623047"/>
      </g>
     </g>
    </g>
    <g id="xtick_4">
     <g id="line2d_4">
      <g>
       <use xlink:href="#m4aafe868ff" x="285.517216" y="320.243478" style="stroke: #000000; stroke-width: 0.8"/>
      </g>
     </g>
     <g id="text_4">
      <!-- 30 -->
      <g transform="translate(275.973466 338.641135) scale(0.15 -0.15)">
       <defs>
        <path id="DejaVuSans-33" d="M 2597 2516 
Q 3050 2419 3304 2112 
Q 3559 1806 3559 1356 
Q 3559 666 3084 287 
Q 2609 -91 1734 -91 
Q 1441 -91 1130 -33 
Q 819 25 488 141 
L 488 750 
Q 750 597 1062 519 
Q 1375 441 1716 441 
Q 2309 441 2620 675 
Q 2931 909 2931 1356 
Q 2931 1769 2642 2001 
Q 2353 2234 1838 2234 
L 1294 2234 
L 1294 2753 
L 1863 2753 
Q 2328 2753 2575 2939 
Q 2822 3125 2822 3475 
Q 2822 3834 2567 4026 
Q 2313 4219 1838 4219 
Q 1578 4219 1281 4162 
Q 984 4106 628 3988 
L 628 4550 
Q 988 4650 1302 4700 
Q 1616 4750 1894 4750 
Q 2613 4750 3031 4423 
Q 3450 4097 3450 3541 
Q 3450 3153 3228 2886 
Q 3006 2619 2597 2516 
z
" transform="scale(0.015625)"/>
       </defs>
       <use xlink:href="#DejaVuSans-33"/>
       <use xlink:href="#DejaVuSans-30" x="63.623047"/>
      </g>
     </g>
    </g>
    <g id="xtick_5">
     <g id="line2d_5">
      <g>
       <use xlink:href="#m4aafe868ff" x="356.535398" y="320.243478" style="stroke: #000000; stroke-width: 0.8"/>
      </g>
     </g>
     <g id="text_5">
      <!-- 40 -->
      <g transform="translate(346.991648 338.641135) scale(0.15 -0.15)">
       <defs>
        <path id="DejaVuSans-34" d="M 2419 4116 
L 825 1625 
L 2419 1625 
L 2419 4116 
z
M 2253 4666 
L 3047 4666 
L 3047 1625 
L 3713 1625 
L 3713 1100 
L 3047 1100 
L 3047 0 
L 2419 0 
L 2419 1100 
L 313 1100 
L 313 1709 
L 2253 4666 
z
" transform="scale(0.015625)"/>
       </defs>
       <use xlink:href="#DejaVuSans-34"/>
       <use xlink:href="#DejaVuSans-30" x="63.623047"/>
      </g>
     </g>
    </g>
    <g id="xtick_6">
     <g id="line2d_6">
      <g>
       <use xlink:href="#m4aafe868ff" x="427.55358" y="320.243478" style="stroke: #000000; stroke-width: 0.8"/>
      </g>
     </g>
     <g id="text_6">
      <!-- 50 -->
      <g transform="translate(418.00983 338.641135) scale(0.15 -0.15)">
       <defs>
        <path id="DejaVuSans-35" d="M 691 4666 
L 3169 4666 
L 3169 4134 
L 1269 4134 
L 1269 2991 
Q 1406 3038 1543 3061 
Q 1681 3084 1819 3084 
Q 2600 3084 3056 2656 
Q 3513 2228 3513 1497 
Q 3513 744 3044 326 
Q 2575 -91 1722 -91 
Q 1428 -91 1123 -41 
Q 819 9 494 109 
L 494 744 
Q 775 591 1075 516 
Q 1375 441 1709 441 
Q 2250 441 2565 725 
Q 2881 1009 2881 1497 
Q 2881 1984 2565 2268 
Q 2250 2553 1709 2553 
Q 1456 2553 1204 2497 
Q 953 2441 691 2322 
L 691 4666 
z
" transform="scale(0.015625)"/>
       </defs>
       <use xlink:href="#DejaVuSans-35"/>
       <use xlink:href="#DejaVuSans-30" x="63.623047"/>
      </g>
     </g>
    </g>
    <g id="text_7">
     <!-- time [hr] -->
     <g transform="translate(204.933594 359.437853) scale(0.18 -0.18)">
      <defs>
       <path id="DejaVuSans-Bold-74" d="M 1759 4494 
L 1759 3500 
L 2913 3500 
L 2913 2700 
L 1759 2700 
L 1759 1216 
Q 1759 972 1856 886 
Q 1953 800 2241 800 
L 2816 800 
L 2816 0 
L 1856 0 
Q 1194 0 917 276 
Q 641 553 641 1216 
L 641 2700 
L 84 2700 
L 84 3500 
L 641 3500 
L 641 4494 
L 1759 4494 
z
" transform="scale(0.015625)"/>
       <path id="DejaVuSans-Bold-69" d="M 538 3500 
L 1656 3500 
L 1656 0 
L 538 0 
L 538 3500 
z
M 538 4863 
L 1656 4863 
L 1656 3950 
L 538 3950 
L 538 4863 
z
" transform="scale(0.015625)"/>
       <path id="DejaVuSans-Bold-6d" d="M 3781 2919 
Q 3994 3244 4286 3414 
Q 4578 3584 4928 3584 
Q 5531 3584 5847 3212 
Q 6163 2841 6163 2131 
L 6163 0 
L 5038 0 
L 5038 1825 
Q 5041 1866 5042 1909 
Q 5044 1953 5044 2034 
Q 5044 2406 4934 2573 
Q 4825 2741 4581 2741 
Q 4263 2741 4089 2478 
Q 3916 2216 3909 1719 
L 3909 0 
L 2784 0 
L 2784 1825 
Q 2784 2406 2684 2573 
Q 2584 2741 2328 2741 
Q 2006 2741 1831 2477 
Q 1656 2213 1656 1722 
L 1656 0 
L 531 0 
L 531 3500 
L 1656 3500 
L 1656 2988 
Q 1863 3284 2130 3434 
Q 2397 3584 2719 3584 
Q 3081 3584 3359 3409 
Q 3638 3234 3781 2919 
z
" transform="scale(0.015625)"/>
       <path id="DejaVuSans-Bold-65" d="M 4031 1759 
L 4031 1441 
L 1416 1441 
Q 1456 1047 1700 850 
Q 1944 653 2381 653 
Q 2734 653 3104 758 
Q 3475 863 3866 1075 
L 3866 213 
Q 3469 63 3072 -14 
Q 2675 -91 2278 -91 
Q 1328 -91 801 392 
Q 275 875 275 1747 
Q 275 2603 792 3093 
Q 1309 3584 2216 3584 
Q 3041 3584 3536 3087 
Q 4031 2591 4031 1759 
z
M 2881 2131 
Q 2881 2450 2695 2645 
Q 2509 2841 2209 2841 
Q 1884 2841 1681 2658 
Q 1478 2475 1428 2131 
L 2881 2131 
z
" transform="scale(0.015625)"/>
       <path id="DejaVuSans-Bold-20" transform="scale(0.015625)"/>
       <path id="DejaVuSans-Bold-5b" d="M 550 4863 
L 2491 4863 
L 2491 4159 
L 1613 4159 
L 1613 -141 
L 2491 -141 
L 2491 -844 
L 550 -844 
L 550 4863 
z
" transform="scale(0.015625)"/>
       <path id="DejaVuSans-Bold-68" d="M 4056 2131 
L 4056 0 
L 2931 0 
L 2931 347 
L 2931 1625 
Q 2931 2084 2911 2256 
Q 2891 2428 2841 2509 
Q 2775 2619 2662 2680 
Q 2550 2741 2406 2741 
Q 2056 2741 1856 2470 
Q 1656 2200 1656 1722 
L 1656 0 
L 538 0 
L 538 4863 
L 1656 4863 
L 1656 2988 
Q 1909 3294 2193 3439 
Q 2478 3584 2822 3584 
Q 3428 3584 3742 3212 
Q 4056 2841 4056 2131 
z
" transform="scale(0.015625)"/>
       <path id="DejaVuSans-Bold-72" d="M 3138 2547 
Q 2991 2616 2845 2648 
Q 2700 2681 2553 2681 
Q 2122 2681 1889 2404 
Q 1656 2128 1656 1613 
L 1656 0 
L 538 0 
L 538 3500 
L 1656 3500 
L 1656 2925 
Q 1872 3269 2151 3426 
Q 2431 3584 2822 3584 
Q 2878 3584 2943 3579 
Q 3009 3575 3134 3559 
L 3138 2547 
z
" transform="scale(0.015625)"/>
       <path id="DejaVuSans-Bold-5d" d="M 2375 -844 
L 434 -844 
L 434 -141 
L 1313 -141 
L 1313 4159 
L 434 4159 
L 434 4863 
L 2375 4863 
L 2375 -844 
z
" transform="scale(0.015625)"/>
      </defs>
      <use xlink:href="#DejaVuSans-Bold-74"/>
      <use xlink:href="#DejaVuSans-Bold-69" x="47.802734"/>
      <use xlink:href="#DejaVuSans-Bold-6d" x="82.080078"/>
      <use xlink:href="#DejaVuSans-Bold-65" x="186.279297"/>
      <use xlink:href="#DejaVuSans-Bold-20" x="254.101562"/>
      <use xlink:href="#DejaVuSans-Bold-5b" x="288.916016"/>
      <use xlink:href="#DejaVuSans-Bold-68" x="334.619141"/>
      <use xlink:href="#DejaVuSans-Bold-72" x="405.810547"/>
      <use xlink:href="#DejaVuSans-Bold-5d" x="455.126953"/>
     </g>
    </g>
   </g>
   <g id="matplotlib.axis_2">
    <g id="ytick_1">
     <g id="line2d_7">
      <defs>
       <path id="m25a6c77067" d="M 0 0 
L -3.5 0 
" style="stroke: #000000; stroke-width: 0.8"/>
      </defs>
      <g>
       <use xlink:href="#m25a6c77067" x="54.708125" y="290.401215" style="stroke: #000000; stroke-width: 0.8"/>
      </g>
     </g>
     <g id="text_8">
      <!-- 13 -->
      <g transform="translate(28.620625 296.100043) scale(0.15 -0.15)">
       <use xlink:href="#DejaVuSans-31"/>
       <use xlink:href="#DejaVuSans-33" x="63.623047"/>
      </g>
     </g>
    </g>
    <g id="ytick_2">
     <g id="line2d_8">
      <g>
       <use xlink:href="#m25a6c77067" x="54.708125" y="252.629732" style="stroke: #000000; stroke-width: 0.8"/>
      </g>
     </g>
     <g id="text_9">
      <!-- 14 -->
      <g transform="translate(28.620625 258.32856) scale(0.15 -0.15)">
       <use xlink:href="#DejaVuSans-31"/>
       <use xlink:href="#DejaVuSans-34" x="63.623047"/>
      </g>
     </g>
    </g>
    <g id="ytick_3">
     <g id="line2d_9">
      <g>
       <use xlink:href="#m25a6c77067" x="54.708125" y="214.858249" style="stroke: #000000; stroke-width: 0.8"/>
      </g>
     </g>
     <g id="text_10">
      <!-- 15 -->
      <g transform="translate(28.620625 220.557077) scale(0.15 -0.15)">
       <use xlink:href="#DejaVuSans-31"/>
       <use xlink:href="#DejaVuSans-35" x="63.623047"/>
      </g>
     </g>
    </g>
    <g id="ytick_4">
     <g id="line2d_10">
      <g>
       <use xlink:href="#m25a6c77067" x="54.708125" y="177.086766" style="stroke: #000000; stroke-width: 0.8"/>
      </g>
     </g>
     <g id="text_11">
      <!-- 16 -->
      <g transform="translate(28.620625 182.785594) scale(0.15 -0.15)">
       <defs>
        <path id="DejaVuSans-36" d="M 2113 2584 
Q 1688 2584 1439 2293 
Q 1191 2003 1191 1497 
Q 1191 994 1439 701 
Q 1688 409 2113 409 
Q 2538 409 2786 701 
Q 3034 994 3034 1497 
Q 3034 2003 2786 2293 
Q 2538 2584 2113 2584 
z
M 3366 4563 
L 3366 3988 
Q 3128 4100 2886 4159 
Q 2644 4219 2406 4219 
Q 1781 4219 1451 3797 
Q 1122 3375 1075 2522 
Q 1259 2794 1537 2939 
Q 1816 3084 2150 3084 
Q 2853 3084 3261 2657 
Q 3669 2231 3669 1497 
Q 3669 778 3244 343 
Q 2819 -91 2113 -91 
Q 1303 -91 875 529 
Q 447 1150 447 2328 
Q 447 3434 972 4092 
Q 1497 4750 2381 4750 
Q 2619 4750 2861 4703 
Q 3103 4656 3366 4563 
z
" transform="scale(0.015625)"/>
       </defs>
       <use xlink:href="#DejaVuSans-31"/>
       <use xlink:href="#DejaVuSans-36" x="63.623047"/>
      </g>
     </g>
    </g>
    <g id="ytick_5">
     <g id="line2d_11">
      <g>
       <use xlink:href="#m25a6c77067" x="54.708125" y="139.315283" style="stroke: #000000; stroke-width: 0.8"/>
      </g>
     </g>
     <g id="text_12">
      <!-- 17 -->
      <g transform="translate(28.620625 145.014111) scale(0.15 -0.15)">
       <defs>
        <path id="DejaVuSans-37" d="M 525 4666 
L 3525 4666 
L 3525 4397 
L 1831 0 
L 1172 0 
L 2766 4134 
L 525 4134 
L 525 4666 
z
" transform="scale(0.015625)"/>
       </defs>
       <use xlink:href="#DejaVuSans-31"/>
       <use xlink:href="#DejaVuSans-37" x="63.623047"/>
      </g>
     </g>
    </g>
    <g id="ytick_6">
     <g id="line2d_12">
      <g>
       <use xlink:href="#m25a6c77067" x="54.708125" y="101.5438" style="stroke: #000000; stroke-width: 0.8"/>
      </g>
     </g>
     <g id="text_13">
      <!-- 18 -->
      <g transform="translate(28.620625 107.242628) scale(0.15 -0.15)">
       <defs>
        <path id="DejaVuSans-38" d="M 2034 2216 
Q 1584 2216 1326 1975 
Q 1069 1734 1069 1313 
Q 1069 891 1326 650 
Q 1584 409 2034 409 
Q 2484 409 2743 651 
Q 3003 894 3003 1313 
Q 3003 1734 2745 1975 
Q 2488 2216 2034 2216 
z
M 1403 2484 
Q 997 2584 770 2862 
Q 544 3141 544 3541 
Q 544 4100 942 4425 
Q 1341 4750 2034 4750 
Q 2731 4750 3128 4425 
Q 3525 4100 3525 3541 
Q 3525 3141 3298 2862 
Q 3072 2584 2669 2484 
Q 3125 2378 3379 2068 
Q 3634 1759 3634 1313 
Q 3634 634 3220 271 
Q 2806 -91 2034 -91 
Q 1263 -91 848 271 
Q 434 634 434 1313 
Q 434 1759 690 2068 
Q 947 2378 1403 2484 
z
M 1172 3481 
Q 1172 3119 1398 2916 
Q 1625 2713 2034 2713 
Q 2441 2713 2670 2916 
Q 2900 3119 2900 3481 
Q 2900 3844 2670 4047 
Q 2441 4250 2034 4250 
Q 1625 4250 1398 4047 
Q 1172 3844 1172 3481 
z
" transform="scale(0.015625)"/>
       </defs>
       <use xlink:href="#DejaVuSans-31"/>
       <use xlink:href="#DejaVuSans-38" x="63.623047"/>
      </g>
     </g>
    </g>
    <g id="text_14">
     <!-- PT [s] -->
     <g transform="translate(20.877188 229.174239) rotate(-90) scale(0.18 -0.18)">
      <defs>
       <path id="DejaVuSans-Bold-50" d="M 588 4666 
L 2584 4666 
Q 3475 4666 3951 4270 
Q 4428 3875 4428 3144 
Q 4428 2409 3951 2014 
Q 3475 1619 2584 1619 
L 1791 1619 
L 1791 0 
L 588 0 
L 588 4666 
z
M 1791 3794 
L 1791 2491 
L 2456 2491 
Q 2806 2491 2997 2661 
Q 3188 2831 3188 3144 
Q 3188 3456 2997 3625 
Q 2806 3794 2456 3794 
L 1791 3794 
z
" transform="scale(0.015625)"/>
       <path id="DejaVuSans-Bold-54" d="M 31 4666 
L 4331 4666 
L 4331 3756 
L 2784 3756 
L 2784 0 
L 1581 0 
L 1581 3756 
L 31 3756 
L 31 4666 
z
" transform="scale(0.015625)"/>
       <path id="DejaVuSans-Bold-73" d="M 3272 3391 
L 3272 2541 
Q 2913 2691 2578 2766 
Q 2244 2841 1947 2841 
Q 1628 2841 1473 2761 
Q 1319 2681 1319 2516 
Q 1319 2381 1436 2309 
Q 1553 2238 1856 2203 
L 2053 2175 
Q 2913 2066 3209 1816 
Q 3506 1566 3506 1031 
Q 3506 472 3093 190 
Q 2681 -91 1863 -91 
Q 1516 -91 1145 -36 
Q 775 19 384 128 
L 384 978 
Q 719 816 1070 734 
Q 1422 653 1784 653 
Q 2113 653 2278 743 
Q 2444 834 2444 1013 
Q 2444 1163 2330 1236 
Q 2216 1309 1875 1350 
L 1678 1375 
Q 931 1469 631 1722 
Q 331 1975 331 2491 
Q 331 3047 712 3315 
Q 1094 3584 1881 3584 
Q 2191 3584 2531 3537 
Q 2872 3491 3272 3391 
z
" transform="scale(0.015625)"/>
      </defs>
      <use xlink:href="#DejaVuSans-Bold-50"/>
      <use xlink:href="#DejaVuSans-Bold-54" x="73.291016"/>
      <use xlink:href="#DejaVuSans-Bold-20" x="141.503906"/>
      <use xlink:href="#DejaVuSans-Bold-5b" x="176.318359"/>
      <use xlink:href="#DejaVuSans-Bold-73" x="222.021484"/>
      <use xlink:href="#DejaVuSans-Bold-5d" x="281.542969"/>
     </g>
    </g>
   </g>
   <g id="LineCollection_1">
    <path clip-path="url(#p4cb3100ba3)" style="fill: none; stroke: #000000"/>
    <path clip-path="url(#p4cb3100ba3)" style="fill: none; stroke: #000000"/>
    <path clip-path="url(#p4cb3100ba3)" style="fill: none; stroke: #000000"/>
    <path clip-path="url(#p4cb3100ba3)" style="fill: none; stroke: #000000"/>
    <path clip-path="url(#p4cb3100ba3)" style="fill: none; stroke: #000000"/>
    <path clip-path="url(#p4cb3100ba3)" style="fill: none; stroke: #000000"/>
    <path clip-path="url(#p4cb3100ba3)" style="fill: none; stroke: #000000"/>
    <path clip-path="url(#p4cb3100ba3)" style="fill: none; stroke: #000000"/>
    <path clip-path="url(#p4cb3100ba3)" style="fill: none; stroke: #000000"/>
   </g>
   <g id="LineCollection_2">
    <path clip-path="url(#p4cb3100ba3)" style="fill: none; stroke: #1f77b4"/>
    <path clip-path="url(#p4cb3100ba3)" style="fill: none; stroke: #1f77b4"/>
    <path clip-path="url(#p4cb3100ba3)" style="fill: none; stroke: #1f77b4"/>
    <path clip-path="url(#p4cb3100ba3)" style="fill: none; stroke: #1f77b4"/>
    <path clip-path="url(#p4cb3100ba3)" style="fill: none; stroke: #1f77b4"/>
    <path clip-path="url(#p4cb3100ba3)" style="fill: none; stroke: #1f77b4"/>
    <path clip-path="url(#p4cb3100ba3)" style="fill: none; stroke: #1f77b4"/>
    <path clip-path="url(#p4cb3100ba3)" style="fill: none; stroke: #1f77b4"/>
    <path clip-path="url(#p4cb3100ba3)" style="fill: none; stroke: #1f77b4"/>
   </g>
   <g id="line2d_13">
    <path d="M 72.46267 309.286957 
L 73.172852 304.388295 
L 73.883034 290.55399 
L 75.303398 251.095854 
L 76.723761 210.164814 
L 78.144125 174.967434 
L 79.564489 147.189429 
L 80.984852 126.397585 
L 81.695034 118.289829 
L 82.405216 111.510867 
L 83.115398 105.918051 
L 83.82558 101.377834 
L 84.535761 97.767571 
L 85.245943 94.976083 
L 85.956125 92.903494 
L 86.666307 91.46066 
L 87.376489 90.56838 
L 88.08667 90.156522 
L 88.796852 90.163134 
L 89.507034 90.533591 
L 90.217216 91.219787 
L 90.927398 92.179398 
L 92.347761 94.774535 
L 93.768125 98.072309 
L 95.89867 103.932465 
L 98.739398 112.768748 
L 104.420852 131.644194 
L 109.392125 147.887184 
L 113.653216 161.053544 
L 117.204125 171.377673 
L 120.755034 181.08916 
L 124.305943 190.193797 
L 127.856852 198.710581 
L 131.407761 206.664995 
L 134.95867 214.085405 
L 138.50958 221.001132 
L 142.060489 227.441401 
L 145.611398 233.434776 
L 149.162307 239.008852 
L 152.713216 244.190092 
L 156.264125 249.003741 
L 159.815034 253.473797 
L 163.365943 257.623001 
L 166.916852 261.472854 
L 170.467761 265.043637 
L 174.728852 268.98702 
L 178.989943 272.58683 
L 183.251034 275.871649 
L 187.512125 278.867913 
L 191.773216 281.600034 
L 196.034307 284.090521 
L 201.00558 286.718244 
L 205.976852 289.075275 
L 210.948125 291.188834 
L 216.62958 293.337668 
L 222.311034 295.233526 
L 227.992489 296.905706 
L 234.384125 298.551818 
L 241.485943 300.126859 
L 248.587761 301.471896 
L 256.399761 302.725372 
L 264.921943 303.865404 
L 274.154307 304.878631 
L 284.807034 305.815273 
L 296.880125 306.638983 
L 310.37358 307.330865 
L 326.707761 307.931411 
L 345.88267 308.405747 
L 370.739034 308.782801 
L 404.11758 309.048812 
L 427.55358 309.146314 
L 427.55358 309.146314 
" clip-path="url(#p4cb3100ba3)" style="fill: none; stroke: #000000; stroke-width: 2; stroke-linecap: square"/>
   </g>
   <g id="line2d_14">
    <path d="M 72.46267 292.972268 
L 79.206843 193.504361 
L 86.51303 173.937668 
L 101.125404 159.389272 
L 129.226124 287.302767 
L 157.888858 286.144265 
L 200.601951 302.286907 
L 328.179217 289.811915 
L 413.605404 299.188459 
" clip-path="url(#p4cb3100ba3)" style="fill: none; stroke-dasharray: 3.7,1.6; stroke-dashoffset: 0; stroke: #000000"/>
    <defs>
     <path id="mf5d6fc0663" d="M -3 3 
L 3 3 
L 3 -3 
L -3 -3 
z
" style="stroke: #000000; stroke-linejoin: miter"/>
    </defs>
    <g clip-path="url(#p4cb3100ba3)">
     <use xlink:href="#mf5d6fc0663" x="72.46267" y="292.972268" style="stroke: #000000; stroke-linejoin: miter"/>
     <use xlink:href="#mf5d6fc0663" x="79.206843" y="193.504361" style="stroke: #000000; stroke-linejoin: miter"/>
     <use xlink:href="#mf5d6fc0663" x="86.51303" y="173.937668" style="stroke: #000000; stroke-linejoin: miter"/>
     <use xlink:href="#mf5d6fc0663" x="101.125404" y="159.389272" style="stroke: #000000; stroke-linejoin: miter"/>
     <use xlink:href="#mf5d6fc0663" x="129.226124" y="287.302767" style="stroke: #000000; stroke-linejoin: miter"/>
     <use xlink:href="#mf5d6fc0663" x="157.888858" y="286.144265" style="stroke: #000000; stroke-linejoin: miter"/>
     <use xlink:href="#mf5d6fc0663" x="200.601951" y="302.286907" style="stroke: #000000; stroke-linejoin: miter"/>
     <use xlink:href="#mf5d6fc0663" x="328.179217" y="289.811915" style="stroke: #000000; stroke-linejoin: miter"/>
     <use xlink:href="#mf5d6fc0663" x="413.605404" y="299.188459" style="stroke: #000000; stroke-linejoin: miter"/>
    </g>
   </g>
   <g id="line2d_15">
    <path d="M 72.46267 309.286957 
L 73.172852 306.322369 
L 73.883034 297.912937 
L 75.303398 273.622042 
L 77.433943 236.1599 
L 78.854307 215.851854 
L 80.27467 200.064067 
L 81.695034 188.388009 
L 82.405216 183.887134 
L 83.115398 180.16242 
L 83.82558 177.131123 
L 84.535761 174.715839 
L 85.245943 172.84535 
L 85.956125 171.454895 
L 86.666307 170.486083 
L 87.376489 169.886601 
L 88.08667 169.609802 
L 88.796852 169.614247 
L 89.507034 169.863223 
L 90.217216 170.324278 
L 90.927398 170.968777 
L 92.347761 172.710199 
L 93.768125 174.919877 
L 95.89867 178.837574 
L 98.739398 184.723441 
L 111.52267 212.223422 
L 115.07358 219.162204 
L 118.624489 225.675056 
L 122.175398 231.763079 
L 125.726307 237.439687 
L 129.277216 242.724112 
L 132.828125 247.638008 
L 136.379034 252.203672 
L 139.929943 256.443136 
L 143.480852 260.377699 
L 147.031761 264.027705 
L 151.292852 268.05918 
L 155.553943 271.739892 
L 159.815034 275.0989 
L 164.076125 278.163127 
L 168.337216 280.957454 
L 172.598307 283.504835 
L 177.56958 286.192783 
L 182.540852 288.604006 
L 187.512125 290.766295 
L 192.483398 292.704792 
L 198.164852 294.675217 
L 203.846307 296.413315 
L 210.237943 298.124452 
L 216.62958 299.609471 
L 223.731398 301.030104 
L 231.543398 302.354146 
L 240.06558 303.558455 
L 249.297943 304.628887 
L 259.240489 305.559585 
L 270.603398 306.398194 
L 283.38667 307.11862 
L 298.300489 307.735573 
L 316.055034 308.245701 
L 338.780852 308.662002 
L 368.608489 308.96722 
L 411.92958 309.166173 
L 427.55358 309.201937 
L 427.55358 309.201937 
" clip-path="url(#p4cb3100ba3)" style="fill: none; stroke: #1f77b4; stroke-width: 2; stroke-linecap: square"/>
   </g>
   <g id="line2d_16">
    <path d="M 72.46267 299.117711 
L 79.206843 263.34808 
L 86.51303 215.28515 
L 100.56339 266.670028 
L 129.226124 285.626517 
L 157.326843 283.351321 
L 200.039937 300.052712 
L 328.179217 293.723163 
L 413.04339 301.424262 
" clip-path="url(#p4cb3100ba3)" style="fill: none; stroke-dasharray: 3.7,1.6; stroke-dashoffset: 0; stroke: #1f77b4"/>
    <defs>
     <path id="m18e7e7d11b" d="M -3 3 
L 3 3 
L 3 -3 
L -3 -3 
z
" style="stroke: #000000; stroke-linejoin: miter"/>
    </defs>
    <g clip-path="url(#p4cb3100ba3)">
     <use xlink:href="#m18e7e7d11b" x="72.46267" y="299.117711" style="fill: #1f77b4; stroke: #000000; stroke-linejoin: miter"/>
     <use xlink:href="#m18e7e7d11b" x="79.206843" y="263.34808" style="fill: #1f77b4; stroke: #000000; stroke-linejoin: miter"/>
     <use xlink:href="#m18e7e7d11b" x="86.51303" y="215.28515" style="fill: #1f77b4; stroke: #000000; stroke-linejoin: miter"/>
     <use xlink:href="#m18e7e7d11b" x="100.56339" y="266.670028" style="fill: #1f77b4; stroke: #000000; stroke-linejoin: miter"/>
     <use xlink:href="#m18e7e7d11b" x="129.226124" y="285.626517" style="fill: #1f77b4; stroke: #000000; stroke-linejoin: miter"/>
     <use xlink:href="#m18e7e7d11b" x="157.326843" y="283.351321" style="fill: #1f77b4; stroke: #000000; stroke-linejoin: miter"/>
     <use xlink:href="#m18e7e7d11b" x="200.039937" y="300.052712" style="fill: #1f77b4; stroke: #000000; stroke-linejoin: miter"/>
     <use xlink:href="#m18e7e7d11b" x="328.179217" y="293.723163" style="fill: #1f77b4; stroke: #000000; stroke-linejoin: miter"/>
     <use xlink:href="#m18e7e7d11b" x="413.04339" y="301.424262" style="fill: #1f77b4; stroke: #000000; stroke-linejoin: miter"/>
    </g>
   </g>
   <g id="patch_3">
    <path d="M 54.708125 320.243478 
L 54.708125 79.2 
" style="fill: none; stroke: #000000; stroke-width: 0.8; stroke-linejoin: miter; stroke-linecap: square"/>
   </g>
   <g id="patch_4">
    <path d="M 445.308125 320.243478 
L 445.308125 79.2 
" style="fill: none; stroke: #000000; stroke-width: 0.8; stroke-linejoin: miter; stroke-linecap: square"/>
   </g>
   <g id="patch_5">
    <path d="M 54.708125 320.243478 
L 445.308125 320.243478 
" style="fill: none; stroke: #000000; stroke-width: 0.8; stroke-linejoin: miter; stroke-linecap: square"/>
   </g>
   <g id="patch_6">
    <path d="M 54.708125 79.2 
L 445.308125 79.2 
" style="fill: none; stroke: #000000; stroke-width: 0.8; stroke-linejoin: miter; stroke-linecap: square"/>
   </g>
   <g id="legend_1">
    <g id="patch_7">
     <path d="M 292.884688 145.9125 
L 438.308125 145.9125 
Q 440.308125 145.9125 440.308125 143.9125 
L 440.308125 86.2 
Q 440.308125 84.2 438.308125 84.2 
L 292.884688 84.2 
Q 290.884688 84.2 290.884688 86.2 
L 290.884688 143.9125 
Q 290.884688 145.9125 292.884688 145.9125 
z
" style="fill: #ffffff; opacity: 0.8; stroke: #cccccc; stroke-linejoin: miter"/>
    </g>
    <g id="line2d_17">
     <path d="M 294.884688 92.298437 
L 314.884688 92.298437 
" style="fill: none; stroke: #000000; stroke-width: 2; stroke-linecap: square"/>
    </g>
    <g id="line2d_18"/>
    <g id="text_15">
     <!-- non-obese -->
     <g transform="translate(322.884688 95.798437) scale(0.1 -0.1)">
      <defs>
       <path id="DejaVuSans-6e" d="M 3513 2113 
L 3513 0 
L 2938 0 
L 2938 2094 
Q 2938 2591 2744 2837 
Q 2550 3084 2163 3084 
Q 1697 3084 1428 2787 
Q 1159 2491 1159 1978 
L 1159 0 
L 581 0 
L 581 3500 
L 1159 3500 
L 1159 2956 
Q 1366 3272 1645 3428 
Q 1925 3584 2291 3584 
Q 2894 3584 3203 3211 
Q 3513 2838 3513 2113 
z
" transform="scale(0.015625)"/>
       <path id="DejaVuSans-6f" d="M 1959 3097 
Q 1497 3097 1228 2736 
Q 959 2375 959 1747 
Q 959 1119 1226 758 
Q 1494 397 1959 397 
Q 2419 397 2687 759 
Q 2956 1122 2956 1747 
Q 2956 2369 2687 2733 
Q 2419 3097 1959 3097 
z
M 1959 3584 
Q 2709 3584 3137 3096 
Q 3566 2609 3566 1747 
Q 3566 888 3137 398 
Q 2709 -91 1959 -91 
Q 1206 -91 779 398 
Q 353 888 353 1747 
Q 353 2609 779 3096 
Q 1206 3584 1959 3584 
z
" transform="scale(0.015625)"/>
       <path id="DejaVuSans-2d" d="M 313 2009 
L 1997 2009 
L 1997 1497 
L 313 1497 
L 313 2009 
z
" transform="scale(0.015625)"/>
       <path id="DejaVuSans-62" d="M 3116 1747 
Q 3116 2381 2855 2742 
Q 2594 3103 2138 3103 
Q 1681 3103 1420 2742 
Q 1159 2381 1159 1747 
Q 1159 1113 1420 752 
Q 1681 391 2138 391 
Q 2594 391 2855 752 
Q 3116 1113 3116 1747 
z
M 1159 2969 
Q 1341 3281 1617 3432 
Q 1894 3584 2278 3584 
Q 2916 3584 3314 3078 
Q 3713 2572 3713 1747 
Q 3713 922 3314 415 
Q 2916 -91 2278 -91 
Q 1894 -91 1617 61 
Q 1341 213 1159 525 
L 1159 0 
L 581 0 
L 581 4863 
L 1159 4863 
L 1159 2969 
z
" transform="scale(0.015625)"/>
       <path id="DejaVuSans-65" d="M 3597 1894 
L 3597 1613 
L 953 1613 
Q 991 1019 1311 708 
Q 1631 397 2203 397 
Q 2534 397 2845 478 
Q 3156 559 3463 722 
L 3463 178 
Q 3153 47 2828 -22 
Q 2503 -91 2169 -91 
Q 1331 -91 842 396 
Q 353 884 353 1716 
Q 353 2575 817 3079 
Q 1281 3584 2069 3584 
Q 2775 3584 3186 3129 
Q 3597 2675 3597 1894 
z
M 3022 2063 
Q 3016 2534 2758 2815 
Q 2500 3097 2075 3097 
Q 1594 3097 1305 2825 
Q 1016 2553 972 2059 
L 3022 2063 
z
" transform="scale(0.015625)"/>
       <path id="DejaVuSans-73" d="M 2834 3397 
L 2834 2853 
Q 2591 2978 2328 3040 
Q 2066 3103 1784 3103 
Q 1356 3103 1142 2972 
Q 928 2841 928 2578 
Q 928 2378 1081 2264 
Q 1234 2150 1697 2047 
L 1894 2003 
Q 2506 1872 2764 1633 
Q 3022 1394 3022 966 
Q 3022 478 2636 193 
Q 2250 -91 1575 -91 
Q 1294 -91 989 -36 
Q 684 19 347 128 
L 347 722 
Q 666 556 975 473 
Q 1284 391 1588 391 
Q 1994 391 2212 530 
Q 2431 669 2431 922 
Q 2431 1156 2273 1281 
Q 2116 1406 1581 1522 
L 1381 1569 
Q 847 1681 609 1914 
Q 372 2147 372 2553 
Q 372 3047 722 3315 
Q 1072 3584 1716 3584 
Q 2034 3584 2315 3537 
Q 2597 3491 2834 3397 
z
" transform="scale(0.015625)"/>
      </defs>
      <use xlink:href="#DejaVuSans-6e"/>
      <use xlink:href="#DejaVuSans-6f" x="63.378906"/>
      <use xlink:href="#DejaVuSans-6e" x="124.560547"/>
      <use xlink:href="#DejaVuSans-2d" x="187.939453"/>
      <use xlink:href="#DejaVuSans-6f" x="225.898438"/>
      <use xlink:href="#DejaVuSans-62" x="287.080078"/>
      <use xlink:href="#DejaVuSans-65" x="350.556641"/>
      <use xlink:href="#DejaVuSans-73" x="412.080078"/>
      <use xlink:href="#DejaVuSans-65" x="464.179688"/>
     </g>
    </g>
    <g id="LineCollection_3">
     <path d="M 304.884688 111.976562 
L 304.884688 101.976562 
" style="fill: none; stroke: #000000"/>
    </g>
    <g id="line2d_19">
     <path d="M 294.884688 106.976562 
L 314.884688 106.976562 
" style="fill: none; stroke-dasharray: 3.7,1.6; stroke-dashoffset: 0; stroke: #000000"/>
    </g>
    <g id="line2d_20">
     <g>
      <use xlink:href="#mf5d6fc0663" x="304.884688" y="106.976562" style="stroke: #000000; stroke-linejoin: miter"/>
     </g>
    </g>
    <g id="text_16">
     <!-- non-obese±SD (n=18) -->
     <g transform="translate(322.884688 110.476562) scale(0.1 -0.1)">
      <defs>
       <path id="DejaVuSans-b1" d="M 2944 4013 
L 2944 2803 
L 4684 2803 
L 4684 2272 
L 2944 2272 
L 2944 1063 
L 2419 1063 
L 2419 2272 
L 678 2272 
L 678 2803 
L 2419 2803 
L 2419 4013 
L 2944 4013 
z
M 678 531 
L 4684 531 
L 4684 0 
L 678 0 
L 678 531 
z
" transform="scale(0.015625)"/>
       <path id="DejaVuSans-53" d="M 3425 4513 
L 3425 3897 
Q 3066 4069 2747 4153 
Q 2428 4238 2131 4238 
Q 1616 4238 1336 4038 
Q 1056 3838 1056 3469 
Q 1056 3159 1242 3001 
Q 1428 2844 1947 2747 
L 2328 2669 
Q 3034 2534 3370 2195 
Q 3706 1856 3706 1288 
Q 3706 609 3251 259 
Q 2797 -91 1919 -91 
Q 1588 -91 1214 -16 
Q 841 59 441 206 
L 441 856 
Q 825 641 1194 531 
Q 1563 422 1919 422 
Q 2459 422 2753 634 
Q 3047 847 3047 1241 
Q 3047 1584 2836 1778 
Q 2625 1972 2144 2069 
L 1759 2144 
Q 1053 2284 737 2584 
Q 422 2884 422 3419 
Q 422 4038 858 4394 
Q 1294 4750 2059 4750 
Q 2388 4750 2728 4690 
Q 3069 4631 3425 4513 
z
" transform="scale(0.015625)"/>
       <path id="DejaVuSans-44" d="M 1259 4147 
L 1259 519 
L 2022 519 
Q 2988 519 3436 956 
Q 3884 1394 3884 2338 
Q 3884 3275 3436 3711 
Q 2988 4147 2022 4147 
L 1259 4147 
z
M 628 4666 
L 1925 4666 
Q 3281 4666 3915 4102 
Q 4550 3538 4550 2338 
Q 4550 1131 3912 565 
Q 3275 0 1925 0 
L 628 0 
L 628 4666 
z
" transform="scale(0.015625)"/>
       <path id="DejaVuSans-20" transform="scale(0.015625)"/>
       <path id="DejaVuSans-28" d="M 1984 4856 
Q 1566 4138 1362 3434 
Q 1159 2731 1159 2009 
Q 1159 1288 1364 580 
Q 1569 -128 1984 -844 
L 1484 -844 
Q 1016 -109 783 600 
Q 550 1309 550 2009 
Q 550 2706 781 3412 
Q 1013 4119 1484 4856 
L 1984 4856 
z
" transform="scale(0.015625)"/>
       <path id="DejaVuSans-3d" d="M 678 2906 
L 4684 2906 
L 4684 2381 
L 678 2381 
L 678 2906 
z
M 678 1631 
L 4684 1631 
L 4684 1100 
L 678 1100 
L 678 1631 
z
" transform="scale(0.015625)"/>
       <path id="DejaVuSans-29" d="M 513 4856 
L 1013 4856 
Q 1481 4119 1714 3412 
Q 1947 2706 1947 2009 
Q 1947 1309 1714 600 
Q 1481 -109 1013 -844 
L 513 -844 
Q 928 -128 1133 580 
Q 1338 1288 1338 2009 
Q 1338 2731 1133 3434 
Q 928 4138 513 4856 
z
" transform="scale(0.015625)"/>
      </defs>
      <use xlink:href="#DejaVuSans-6e"/>
      <use xlink:href="#DejaVuSans-6f" x="63.378906"/>
      <use xlink:href="#DejaVuSans-6e" x="124.560547"/>
      <use xlink:href="#DejaVuSans-2d" x="187.939453"/>
      <use xlink:href="#DejaVuSans-6f" x="225.898438"/>
      <use xlink:href="#DejaVuSans-62" x="287.080078"/>
      <use xlink:href="#DejaVuSans-65" x="350.556641"/>
      <use xlink:href="#DejaVuSans-73" x="412.080078"/>
      <use xlink:href="#DejaVuSans-65" x="464.179688"/>
      <use xlink:href="#DejaVuSans-b1" x="525.703125"/>
      <use xlink:href="#DejaVuSans-53" x="609.492188"/>
      <use xlink:href="#DejaVuSans-44" x="672.96875"/>
      <use xlink:href="#DejaVuSans-20" x="749.970703"/>
      <use xlink:href="#DejaVuSans-28" x="781.757812"/>
      <use xlink:href="#DejaVuSans-6e" x="820.771484"/>
      <use xlink:href="#DejaVuSans-3d" x="884.150391"/>
      <use xlink:href="#DejaVuSans-31" x="967.939453"/>
      <use xlink:href="#DejaVuSans-38" x="1031.5625"/>
      <use xlink:href="#DejaVuSans-29" x="1095.185547"/>
     </g>
    </g>
    <g id="line2d_21">
     <path d="M 294.884688 121.654687 
L 314.884688 121.654687 
" style="fill: none; stroke: #1f77b4; stroke-width: 2; stroke-linecap: square"/>
    </g>
    <g id="line2d_22"/>
    <g id="text_17">
     <!-- obese -->
     <g transform="translate(322.884688 125.154687) scale(0.1 -0.1)">
      <use xlink:href="#DejaVuSans-6f"/>
      <use xlink:href="#DejaVuSans-62" x="61.181641"/>
      <use xlink:href="#DejaVuSans-65" x="124.658203"/>
      <use xlink:href="#DejaVuSans-73" x="186.181641"/>
      <use xlink:href="#DejaVuSans-65" x="238.28125"/>
     </g>
    </g>
    <g id="LineCollection_4">
     <path d="M 304.884688 141.332812 
L 304.884688 131.332812 
" style="fill: none; stroke: #1f77b4"/>
    </g>
    <g id="line2d_23">
     <path d="M 294.884688 136.332812 
L 314.884688 136.332812 
" style="fill: none; stroke-dasharray: 3.7,1.6; stroke-dashoffset: 0; stroke: #1f77b4"/>
    </g>
    <g id="line2d_24">
     <g>
      <use xlink:href="#m18e7e7d11b" x="304.884688" y="136.332812" style="fill: #1f77b4; stroke: #000000; stroke-linejoin: miter"/>
     </g>
    </g>
    <g id="text_18">
     <!-- obese±SD (n=18) -->
     <g transform="translate(322.884688 139.832812) scale(0.1 -0.1)">
      <use xlink:href="#DejaVuSans-6f"/>
      <use xlink:href="#DejaVuSans-62" x="61.181641"/>
      <use xlink:href="#DejaVuSans-65" x="124.658203"/>
      <use xlink:href="#DejaVuSans-73" x="186.181641"/>
      <use xlink:href="#DejaVuSans-65" x="238.28125"/>
      <use xlink:href="#DejaVuSans-b1" x="299.804688"/>
      <use xlink:href="#DejaVuSans-53" x="383.59375"/>
      <use xlink:href="#DejaVuSans-44" x="447.070312"/>
      <use xlink:href="#DejaVuSans-20" x="524.072266"/>
      <use xlink:href="#DejaVuSans-28" x="555.859375"/>
      <use xlink:href="#DejaVuSans-6e" x="594.873047"/>
      <use xlink:href="#DejaVuSans-3d" x="658.251953"/>
      <use xlink:href="#DejaVuSans-31" x="742.041016"/>
      <use xlink:href="#DejaVuSans-38" x="805.664062"/>
      <use xlink:href="#DejaVuSans-29" x="869.287109"/>
     </g>
    </g>
   </g>
  </g>
  <g id="axes_2">
   <g id="patch_8">
    <path d="M 54.708125 633.6 
L 445.308125 633.6 
L 445.308125 392.556522 
L 54.708125 392.556522 
z
" style="fill: #ffffff"/>
   </g>
   <g id="matplotlib.axis_3">
    <g id="xtick_7">
     <g id="line2d_25">
      <g>
       <use xlink:href="#m4aafe868ff" x="72.46267" y="633.6" style="stroke: #000000; stroke-width: 0.8"/>
      </g>
     </g>
     <g id="text_19">
      <!-- 0 -->
      <g transform="translate(67.690795 651.997656) scale(0.15 -0.15)">
       <use xlink:href="#DejaVuSans-30"/>
      </g>
     </g>
    </g>
    <g id="xtick_8">
     <g id="line2d_26">
      <g>
       <use xlink:href="#m4aafe868ff" x="143.480852" y="633.6" style="stroke: #000000; stroke-width: 0.8"/>
      </g>
     </g>
     <g id="text_20">
      <!-- 10 -->
      <g transform="translate(133.937102 651.997656) scale(0.15 -0.15)">
       <use xlink:href="#DejaVuSans-31"/>
       <use xlink:href="#DejaVuSans-30" x="63.623047"/>
      </g>
     </g>
    </g>
    <g id="xtick_9">
     <g id="line2d_27">
      <g>
       <use xlink:href="#m4aafe868ff" x="214.499034" y="633.6" style="stroke: #000000; stroke-width: 0.8"/>
      </g>
     </g>
     <g id="text_21">
      <!-- 20 -->
      <g transform="translate(204.955284 651.997656) scale(0.15 -0.15)">
       <use xlink:href="#DejaVuSans-32"/>
       <use xlink:href="#DejaVuSans-30" x="63.623047"/>
      </g>
     </g>
    </g>
    <g id="xtick_10">
     <g id="line2d_28">
      <g>
       <use xlink:href="#m4aafe868ff" x="285.517216" y="633.6" style="stroke: #000000; stroke-width: 0.8"/>
      </g>
     </g>
     <g id="text_22">
      <!-- 30 -->
      <g transform="translate(275.973466 651.997656) scale(0.15 -0.15)">
       <use xlink:href="#DejaVuSans-33"/>
       <use xlink:href="#DejaVuSans-30" x="63.623047"/>
      </g>
     </g>
    </g>
    <g id="xtick_11">
     <g id="line2d_29">
      <g>
       <use xlink:href="#m4aafe868ff" x="356.535398" y="633.6" style="stroke: #000000; stroke-width: 0.8"/>
      </g>
     </g>
     <g id="text_23">
      <!-- 40 -->
      <g transform="translate(346.991648 651.997656) scale(0.15 -0.15)">
       <use xlink:href="#DejaVuSans-34"/>
       <use xlink:href="#DejaVuSans-30" x="63.623047"/>
      </g>
     </g>
    </g>
    <g id="xtick_12">
     <g id="line2d_30">
      <g>
       <use xlink:href="#m4aafe868ff" x="427.55358" y="633.6" style="stroke: #000000; stroke-width: 0.8"/>
      </g>
     </g>
     <g id="text_24">
      <!-- 50 -->
      <g transform="translate(418.00983 651.997656) scale(0.15 -0.15)">
       <use xlink:href="#DejaVuSans-35"/>
       <use xlink:href="#DejaVuSans-30" x="63.623047"/>
      </g>
     </g>
    </g>
    <g id="text_25">
     <!-- time [hr] -->
     <g transform="translate(204.933594 672.794375) scale(0.18 -0.18)">
      <use xlink:href="#DejaVuSans-Bold-74"/>
      <use xlink:href="#DejaVuSans-Bold-69" x="47.802734"/>
      <use xlink:href="#DejaVuSans-Bold-6d" x="82.080078"/>
      <use xlink:href="#DejaVuSans-Bold-65" x="186.279297"/>
      <use xlink:href="#DejaVuSans-Bold-20" x="254.101562"/>
      <use xlink:href="#DejaVuSans-Bold-5b" x="288.916016"/>
      <use xlink:href="#DejaVuSans-Bold-68" x="334.619141"/>
      <use xlink:href="#DejaVuSans-Bold-72" x="405.810547"/>
      <use xlink:href="#DejaVuSans-Bold-5d" x="455.126953"/>
     </g>
    </g>
   </g>
   <g id="matplotlib.axis_4">
    <g id="ytick_7">
     <g id="line2d_31">
      <g>
       <use xlink:href="#m25a6c77067" x="54.708125" y="606.022687" style="stroke: #000000; stroke-width: 0.8"/>
      </g>
     </g>
     <g id="text_26">
      <!-- 30 -->
      <g transform="translate(28.620625 611.721515) scale(0.15 -0.15)">
       <use xlink:href="#DejaVuSans-33"/>
       <use xlink:href="#DejaVuSans-30" x="63.623047"/>
      </g>
     </g>
    </g>
    <g id="ytick_8">
     <g id="line2d_32">
      <g>
       <use xlink:href="#m25a6c77067" x="54.708125" y="554.082713" style="stroke: #000000; stroke-width: 0.8"/>
      </g>
     </g>
     <g id="text_27">
      <!-- 35 -->
      <g transform="translate(28.620625 559.781542) scale(0.15 -0.15)">
       <use xlink:href="#DejaVuSans-33"/>
       <use xlink:href="#DejaVuSans-35" x="63.623047"/>
      </g>
     </g>
    </g>
    <g id="ytick_9">
     <g id="line2d_33">
      <g>
       <use xlink:href="#m25a6c77067" x="54.708125" y="502.14274" style="stroke: #000000; stroke-width: 0.8"/>
      </g>
     </g>
     <g id="text_28">
      <!-- 40 -->
      <g transform="translate(28.620625 507.841568) scale(0.15 -0.15)">
       <use xlink:href="#DejaVuSans-34"/>
       <use xlink:href="#DejaVuSans-30" x="63.623047"/>
      </g>
     </g>
    </g>
    <g id="ytick_10">
     <g id="line2d_34">
      <g>
       <use xlink:href="#m25a6c77067" x="54.708125" y="450.202767" style="stroke: #000000; stroke-width: 0.8"/>
      </g>
     </g>
     <g id="text_29">
      <!-- 45 -->
      <g transform="translate(28.620625 455.901595) scale(0.15 -0.15)">
       <use xlink:href="#DejaVuSans-34"/>
       <use xlink:href="#DejaVuSans-35" x="63.623047"/>
      </g>
     </g>
    </g>
    <g id="ytick_11">
     <g id="line2d_35">
      <g>
       <use xlink:href="#m25a6c77067" x="54.708125" y="398.262793" style="stroke: #000000; stroke-width: 0.8"/>
      </g>
     </g>
     <g id="text_30">
      <!-- 50 -->
      <g transform="translate(28.620625 403.961622) scale(0.15 -0.15)">
       <use xlink:href="#DejaVuSans-35"/>
       <use xlink:href="#DejaVuSans-30" x="63.623047"/>
      </g>
     </g>
    </g>
    <g id="text_31">
     <!-- aPTT [s] -->
     <g transform="translate(20.877188 554.946542) rotate(-90) scale(0.18 -0.18)">
      <defs>
       <path id="DejaVuSans-Bold-61" d="M 2106 1575 
Q 1756 1575 1579 1456 
Q 1403 1338 1403 1106 
Q 1403 894 1545 773 
Q 1688 653 1941 653 
Q 2256 653 2472 879 
Q 2688 1106 2688 1447 
L 2688 1575 
L 2106 1575 
z
M 3816 1997 
L 3816 0 
L 2688 0 
L 2688 519 
Q 2463 200 2181 54 
Q 1900 -91 1497 -91 
Q 953 -91 614 226 
Q 275 544 275 1050 
Q 275 1666 698 1953 
Q 1122 2241 2028 2241 
L 2688 2241 
L 2688 2328 
Q 2688 2594 2478 2717 
Q 2269 2841 1825 2841 
Q 1466 2841 1156 2769 
Q 847 2697 581 2553 
L 581 3406 
Q 941 3494 1303 3539 
Q 1666 3584 2028 3584 
Q 2975 3584 3395 3211 
Q 3816 2838 3816 1997 
z
" transform="scale(0.015625)"/>
      </defs>
      <use xlink:href="#DejaVuSans-Bold-61"/>
      <use xlink:href="#DejaVuSans-Bold-50" x="67.480469"/>
      <use xlink:href="#DejaVuSans-Bold-54" x="140.771484"/>
      <use xlink:href="#DejaVuSans-Bold-54" x="211.234375"/>
      <use xlink:href="#DejaVuSans-Bold-20" x="279.447266"/>
      <use xlink:href="#DejaVuSans-Bold-5b" x="314.261719"/>
      <use xlink:href="#DejaVuSans-Bold-73" x="359.964844"/>
      <use xlink:href="#DejaVuSans-Bold-5d" x="419.486328"/>
     </g>
    </g>
   </g>
   <g id="LineCollection_5">
    <path clip-path="url(#p0f44462357)" style="fill: none; stroke: #000000"/>
    <path clip-path="url(#p0f44462357)" style="fill: none; stroke: #000000"/>
    <path clip-path="url(#p0f44462357)" style="fill: none; stroke: #000000"/>
    <path clip-path="url(#p0f44462357)" style="fill: none; stroke: #000000"/>
    <path clip-path="url(#p0f44462357)" style="fill: none; stroke: #000000"/>
    <path clip-path="url(#p0f44462357)" style="fill: none; stroke: #000000"/>
    <path clip-path="url(#p0f44462357)" style="fill: none; stroke: #000000"/>
    <path clip-path="url(#p0f44462357)" style="fill: none; stroke: #000000"/>
    <path clip-path="url(#p0f44462357)" style="fill: none; stroke: #000000"/>
   </g>
   <g id="LineCollection_6">
    <path clip-path="url(#p0f44462357)" style="fill: none; stroke: #1f77b4"/>
    <path clip-path="url(#p0f44462357)" style="fill: none; stroke: #1f77b4"/>
    <path clip-path="url(#p0f44462357)" style="fill: none; stroke: #1f77b4"/>
    <path clip-path="url(#p0f44462357)" style="fill: none; stroke: #1f77b4"/>
    <path clip-path="url(#p0f44462357)" style="fill: none; stroke: #1f77b4"/>
    <path clip-path="url(#p0f44462357)" style="fill: none; stroke: #1f77b4"/>
    <path clip-path="url(#p0f44462357)" style="fill: none; stroke: #1f77b4"/>
    <path clip-path="url(#p0f44462357)" style="fill: none; stroke: #1f77b4"/>
    <path clip-path="url(#p0f44462357)" style="fill: none; stroke: #1f77b4"/>
   </g>
   <g id="line2d_36">
    <path d="M 72.46267 622.643478 
L 73.172852 615.630577 
L 73.883034 597.405346 
L 75.303398 555.523162 
L 76.01358 537.858917 
L 76.723761 523.157323 
L 77.433943 511.135375 
L 78.144125 501.371843 
L 78.854307 493.457431 
L 79.564489 487.04154 
L 80.27467 481.838653 
L 80.984852 477.62104 
L 81.695034 474.208309 
L 82.405216 471.457531 
L 83.115398 469.255005 
L 83.82558 467.509736 
L 84.535761 466.148396 
L 85.245943 465.111451 
L 85.956125 464.350212 
L 86.666307 463.824569 
L 87.376489 463.501245 
L 88.08667 463.352452 
L 88.796852 463.354839 
L 89.507034 463.488666 
L 90.927398 464.085977 
L 92.347761 465.037103 
L 93.768125 466.262416 
L 95.89867 468.487115 
L 98.029216 471.050024 
L 100.869943 474.824206 
L 105.131034 480.952456 
L 111.52267 490.640462 
L 127.14667 514.495895 
L 134.248489 524.875732 
L 140.640125 533.808778 
L 146.32158 541.368778 
L 152.003034 548.534956 
L 156.974307 554.463227 
L 161.94558 560.06128 
L 166.916852 565.32394 
L 171.888125 570.250573 
L 176.859398 574.844546 
L 181.83067 579.112655 
L 186.801943 583.064536 
L 191.773216 586.712104 
L 196.744489 590.069008 
L 201.715761 593.150147 
L 206.687034 595.971231 
L 211.658307 598.5484 
L 216.62958 600.897906 
L 222.311034 603.324921 
L 227.992489 605.49902 
L 233.673943 607.4427 
L 240.06558 609.380438 
L 246.457216 611.081934 
L 253.559034 612.727192 
L 260.660852 614.145726 
L 268.472852 615.479075 
L 276.995034 616.701403 
L 286.227398 617.795577 
L 296.169943 618.752885 
L 307.532852 619.620269 
L 320.316125 620.369074 
L 335.229943 621.013036 
L 352.984489 621.547396 
L 375.000125 621.974177 
L 403.407398 622.289611 
L 427.55358 622.437705 
L 427.55358 622.437705 
" clip-path="url(#p0f44462357)" style="fill: none; stroke: #000000; stroke-width: 2; stroke-linecap: square"/>
   </g>
   <g id="line2d_37">
    <path d="M 72.46267 498.767579 
L 79.335398 440.264794 
L 86.832918 440.264794 
L 101.203166 403.513043 
L 129.318869 480.766722 
L 157.434571 523.518758 
L 200.545315 582.021544 
L 328.62796 494.267365 
L 414.224654 585.771722 
" clip-path="url(#p0f44462357)" style="fill: none; stroke-dasharray: 3.7,1.6; stroke-dashoffset: 0; stroke: #000000"/>
    <g clip-path="url(#p0f44462357)">
     <use xlink:href="#mf5d6fc0663" x="72.46267" y="498.767579" style="stroke: #000000; stroke-linejoin: miter"/>
     <use xlink:href="#mf5d6fc0663" x="79.335398" y="440.264794" style="stroke: #000000; stroke-linejoin: miter"/>
     <use xlink:href="#mf5d6fc0663" x="86.832918" y="440.264794" style="stroke: #000000; stroke-linejoin: miter"/>
     <use xlink:href="#mf5d6fc0663" x="101.203166" y="403.513043" style="stroke: #000000; stroke-linejoin: miter"/>
     <use xlink:href="#mf5d6fc0663" x="129.318869" y="480.766722" style="stroke: #000000; stroke-linejoin: miter"/>
     <use xlink:href="#mf5d6fc0663" x="157.434571" y="523.518758" style="stroke: #000000; stroke-linejoin: miter"/>
     <use xlink:href="#mf5d6fc0663" x="200.545315" y="582.021544" style="stroke: #000000; stroke-linejoin: miter"/>
     <use xlink:href="#mf5d6fc0663" x="328.62796" y="494.267365" style="stroke: #000000; stroke-linejoin: miter"/>
     <use xlink:href="#mf5d6fc0663" x="414.224654" y="585.771722" style="stroke: #000000; stroke-linejoin: miter"/>
    </g>
   </g>
   <g id="line2d_38">
    <path d="M 72.46267 622.643478 
L 73.172852 618.361917 
L 73.883034 606.824006 
L 76.01358 564.4272 
L 77.433943 542.651188 
L 78.144125 534.201024 
L 78.854307 527.142262 
L 79.564489 521.276911 
L 80.27467 516.423151 
L 80.984852 512.422785 
L 81.695034 509.141751 
L 82.405216 506.467885 
L 83.115398 504.307843 
L 83.82558 502.58403 
L 84.535761 501.23186 
L 85.245943 500.197418 
L 85.956125 499.435535 
L 86.666307 498.908216 
L 87.376489 498.58336 
L 88.08667 498.433734 
L 88.796852 498.436134 
L 89.507034 498.570713 
L 90.927398 499.170583 
L 92.347761 500.1231 
L 93.768125 501.345368 
L 95.89867 503.55073 
L 98.739398 506.959372 
L 102.290307 511.655019 
L 108.681943 520.584181 
L 117.914307 533.420369 
L 123.595761 540.965101 
L 129.277216 548.14075 
L 134.248489 554.085659 
L 139.219761 559.703667 
L 144.191034 564.987665 
L 149.162307 569.936048 
L 154.13358 574.551647 
L 159.104852 578.840927 
L 164.076125 582.813304 
L 169.047398 586.480537 
L 174.01867 589.856168 
L 178.989943 592.955025 
L 183.961216 595.792774 
L 188.932489 598.385537 
L 193.903761 600.749566 
L 199.585216 603.191891 
L 205.26667 605.379971 
L 210.948125 607.336363 
L 217.339761 609.286973 
L 223.731398 610.999937 
L 230.833216 612.656429 
L 237.935034 614.084766 
L 245.747034 615.427426 
L 254.269216 616.658373 
L 263.50158 617.760329 
L 273.444125 618.724498 
L 284.807034 619.598141 
L 297.590307 620.352381 
L 312.504125 621.001042 
L 330.25867 621.539318 
L 352.274307 621.969237 
L 380.68158 622.286996 
L 421.161943 622.499844 
L 427.55358 622.519055 
L 427.55358 622.519055 
" clip-path="url(#p0f44462357)" style="fill: none; stroke: #1f77b4; stroke-width: 2; stroke-linecap: square"/>
   </g>
   <g id="line2d_39">
    <path d="M 72.46267 552.770151 
L 79.335398 441.014829 
L 86.832918 496.517472 
L 100.578373 496.517472 
L 129.318869 519.768579 
L 158.059365 522.018687 
L 200.545315 594.772151 
L 328.003166 519.018544 
L 413.599861 585.771722 
" clip-path="url(#p0f44462357)" style="fill: none; stroke-dasharray: 3.7,1.6; stroke-dashoffset: 0; stroke: #1f77b4"/>
    <g clip-path="url(#p0f44462357)">
     <use xlink:href="#m18e7e7d11b" x="72.46267" y="552.770151" style="fill: #1f77b4; stroke: #000000; stroke-linejoin: miter"/>
     <use xlink:href="#m18e7e7d11b" x="79.335398" y="441.014829" style="fill: #1f77b4; stroke: #000000; stroke-linejoin: miter"/>
     <use xlink:href="#m18e7e7d11b" x="86.832918" y="496.517472" style="fill: #1f77b4; stroke: #000000; stroke-linejoin: miter"/>
     <use xlink:href="#m18e7e7d11b" x="100.578373" y="496.517472" style="fill: #1f77b4; stroke: #000000; stroke-linejoin: miter"/>
     <use xlink:href="#m18e7e7d11b" x="129.318869" y="519.768579" style="fill: #1f77b4; stroke: #000000; stroke-linejoin: miter"/>
     <use xlink:href="#m18e7e7d11b" x="158.059365" y="522.018687" style="fill: #1f77b4; stroke: #000000; stroke-linejoin: miter"/>
     <use xlink:href="#m18e7e7d11b" x="200.545315" y="594.772151" style="fill: #1f77b4; stroke: #000000; stroke-linejoin: miter"/>
     <use xlink:href="#m18e7e7d11b" x="328.003166" y="519.018544" style="fill: #1f77b4; stroke: #000000; stroke-linejoin: miter"/>
     <use xlink:href="#m18e7e7d11b" x="413.599861" y="585.771722" style="fill: #1f77b4; stroke: #000000; stroke-linejoin: miter"/>
    </g>
   </g>
   <g id="patch_9">
    <path d="M 54.708125 633.6 
L 54.708125 392.556522 
" style="fill: none; stroke: #000000; stroke-width: 0.8; stroke-linejoin: miter; stroke-linecap: square"/>
   </g>
   <g id="patch_10">
    <path d="M 445.308125 633.6 
L 445.308125 392.556522 
" style="fill: none; stroke: #000000; stroke-width: 0.8; stroke-linejoin: miter; stroke-linecap: square"/>
   </g>
   <g id="patch_11">
    <path d="M 54.708125 633.6 
L 445.308125 633.6 
" style="fill: none; stroke: #000000; stroke-width: 0.8; stroke-linejoin: miter; stroke-linecap: square"/>
   </g>
   <g id="patch_12">
    <path d="M 54.708125 392.556522 
L 445.308125 392.556522 
" style="fill: none; stroke: #000000; stroke-width: 0.8; stroke-linejoin: miter; stroke-linecap: square"/>
   </g>
   <g id="legend_2">
    <g id="patch_13">
     <path d="M 292.884688 459.269022 
L 438.308125 459.269022 
Q 440.308125 459.269022 440.308125 457.269022 
L 440.308125 399.556522 
Q 440.308125 397.556522 438.308125 397.556522 
L 292.884688 397.556522 
Q 290.884688 397.556522 290.884688 399.556522 
L 290.884688 457.269022 
Q 290.884688 459.269022 292.884688 459.269022 
z
" style="fill: #ffffff; opacity: 0.8; stroke: #cccccc; stroke-linejoin: miter"/>
    </g>
    <g id="line2d_40">
     <path d="M 294.884688 405.654959 
L 314.884688 405.654959 
" style="fill: none; stroke: #000000; stroke-width: 2; stroke-linecap: square"/>
    </g>
    <g id="line2d_41"/>
    <g id="text_32">
     <!-- non-obese -->
     <g transform="translate(322.884688 409.154959) scale(0.1 -0.1)">
      <use xlink:href="#DejaVuSans-6e"/>
      <use xlink:href="#DejaVuSans-6f" x="63.378906"/>
      <use xlink:href="#DejaVuSans-6e" x="124.560547"/>
      <use xlink:href="#DejaVuSans-2d" x="187.939453"/>
      <use xlink:href="#DejaVuSans-6f" x="225.898438"/>
      <use xlink:href="#DejaVuSans-62" x="287.080078"/>
      <use xlink:href="#DejaVuSans-65" x="350.556641"/>
      <use xlink:href="#DejaVuSans-73" x="412.080078"/>
      <use xlink:href="#DejaVuSans-65" x="464.179688"/>
     </g>
    </g>
    <g id="LineCollection_7">
     <path d="M 304.884688 425.333084 
L 304.884688 415.333084 
" style="fill: none; stroke: #000000"/>
    </g>
    <g id="line2d_42">
     <path d="M 294.884688 420.333084 
L 314.884688 420.333084 
" style="fill: none; stroke-dasharray: 3.7,1.6; stroke-dashoffset: 0; stroke: #000000"/>
    </g>
    <g id="line2d_43">
     <g>
      <use xlink:href="#mf5d6fc0663" x="304.884688" y="420.333084" style="stroke: #000000; stroke-linejoin: miter"/>
     </g>
    </g>
    <g id="text_33">
     <!-- non-obese±SD (n=18) -->
     <g transform="translate(322.884688 423.833084) scale(0.1 -0.1)">
      <use xlink:href="#DejaVuSans-6e"/>
      <use xlink:href="#DejaVuSans-6f" x="63.378906"/>
      <use xlink:href="#DejaVuSans-6e" x="124.560547"/>
      <use xlink:href="#DejaVuSans-2d" x="187.939453"/>
      <use xlink:href="#DejaVuSans-6f" x="225.898438"/>
      <use xlink:href="#DejaVuSans-62" x="287.080078"/>
      <use xlink:href="#DejaVuSans-65" x="350.556641"/>
      <use xlink:href="#DejaVuSans-73" x="412.080078"/>
      <use xlink:href="#DejaVuSans-65" x="464.179688"/>
      <use xlink:href="#DejaVuSans-b1" x="525.703125"/>
      <use xlink:href="#DejaVuSans-53" x="609.492188"/>
      <use xlink:href="#DejaVuSans-44" x="672.96875"/>
      <use xlink:href="#DejaVuSans-20" x="749.970703"/>
      <use xlink:href="#DejaVuSans-28" x="781.757812"/>
      <use xlink:href="#DejaVuSans-6e" x="820.771484"/>
      <use xlink:href="#DejaVuSans-3d" x="884.150391"/>
      <use xlink:href="#DejaVuSans-31" x="967.939453"/>
      <use xlink:href="#DejaVuSans-38" x="1031.5625"/>
      <use xlink:href="#DejaVuSans-29" x="1095.185547"/>
     </g>
    </g>
    <g id="line2d_44">
     <path d="M 294.884688 435.011209 
L 314.884688 435.011209 
" style="fill: none; stroke: #1f77b4; stroke-width: 2; stroke-linecap: square"/>
    </g>
    <g id="line2d_45"/>
    <g id="text_34">
     <!-- obese -->
     <g transform="translate(322.884688 438.511209) scale(0.1 -0.1)">
      <use xlink:href="#DejaVuSans-6f"/>
      <use xlink:href="#DejaVuSans-62" x="61.181641"/>
      <use xlink:href="#DejaVuSans-65" x="124.658203"/>
      <use xlink:href="#DejaVuSans-73" x="186.181641"/>
      <use xlink:href="#DejaVuSans-65" x="238.28125"/>
     </g>
    </g>
    <g id="LineCollection_8">
     <path d="M 304.884688 454.689334 
L 304.884688 444.689334 
" style="fill: none; stroke: #1f77b4"/>
    </g>
    <g id="line2d_46">
     <path d="M 294.884688 449.689334 
L 314.884688 449.689334 
" style="fill: none; stroke-dasharray: 3.7,1.6; stroke-dashoffset: 0; stroke: #1f77b4"/>
    </g>
    <g id="line2d_47">
     <g>
      <use xlink:href="#m18e7e7d11b" x="304.884688" y="449.689334" style="fill: #1f77b4; stroke: #000000; stroke-linejoin: miter"/>
     </g>
    </g>
    <g id="text_35">
     <!-- obese±SD (n=18) -->
     <g transform="translate(322.884688 453.189334) scale(0.1 -0.1)">
      <use xlink:href="#DejaVuSans-6f"/>
      <use xlink:href="#DejaVuSans-62" x="61.181641"/>
      <use xlink:href="#DejaVuSans-65" x="124.658203"/>
      <use xlink:href="#DejaVuSans-73" x="186.181641"/>
      <use xlink:href="#DejaVuSans-65" x="238.28125"/>
      <use xlink:href="#DejaVuSans-b1" x="299.804688"/>
      <use xlink:href="#DejaVuSans-53" x="383.59375"/>
      <use xlink:href="#DejaVuSans-44" x="447.070312"/>
      <use xlink:href="#DejaVuSans-20" x="524.072266"/>
      <use xlink:href="#DejaVuSans-28" x="555.859375"/>
      <use xlink:href="#DejaVuSans-6e" x="594.873047"/>
      <use xlink:href="#DejaVuSans-3d" x="658.251953"/>
      <use xlink:href="#DejaVuSans-31" x="742.041016"/>
      <use xlink:href="#DejaVuSans-38" x="805.664062"/>
      <use xlink:href="#DejaVuSans-29" x="869.287109"/>
     </g>
    </g>
   </g>
  </g>
  <g id="text_36">
   <!-- Alalawneh2024 -->
   <g transform="translate(135.979609 26.196094) scale(0.25 -0.25)">
    <defs>
     <path id="DejaVuSans-Bold-41" d="M 3419 850 
L 1538 850 
L 1241 0 
L 31 0 
L 1759 4666 
L 3194 4666 
L 4922 0 
L 3713 0 
L 3419 850 
z
M 1838 1716 
L 3116 1716 
L 2478 3572 
L 1838 1716 
z
" transform="scale(0.015625)"/>
     <path id="DejaVuSans-Bold-6c" d="M 538 4863 
L 1656 4863 
L 1656 0 
L 538 0 
L 538 4863 
z
" transform="scale(0.015625)"/>
     <path id="DejaVuSans-Bold-77" d="M 225 3500 
L 1313 3500 
L 1900 1088 
L 2491 3500 
L 3425 3500 
L 4013 1113 
L 4603 3500 
L 5691 3500 
L 4769 0 
L 3547 0 
L 2956 2406 
L 2369 0 
L 1147 0 
L 225 3500 
z
" transform="scale(0.015625)"/>
     <path id="DejaVuSans-Bold-6e" d="M 4056 2131 
L 4056 0 
L 2931 0 
L 2931 347 
L 2931 1631 
Q 2931 2084 2911 2256 
Q 2891 2428 2841 2509 
Q 2775 2619 2662 2680 
Q 2550 2741 2406 2741 
Q 2056 2741 1856 2470 
Q 1656 2200 1656 1722 
L 1656 0 
L 538 0 
L 538 3500 
L 1656 3500 
L 1656 2988 
Q 1909 3294 2193 3439 
Q 2478 3584 2822 3584 
Q 3428 3584 3742 3212 
Q 4056 2841 4056 2131 
z
" transform="scale(0.015625)"/>
     <path id="DejaVuSans-Bold-32" d="M 1844 884 
L 3897 884 
L 3897 0 
L 506 0 
L 506 884 
L 2209 2388 
Q 2438 2594 2547 2791 
Q 2656 2988 2656 3200 
Q 2656 3528 2436 3728 
Q 2216 3928 1850 3928 
Q 1569 3928 1234 3808 
Q 900 3688 519 3450 
L 519 4475 
Q 925 4609 1322 4679 
Q 1719 4750 2100 4750 
Q 2938 4750 3402 4381 
Q 3866 4013 3866 3353 
Q 3866 2972 3669 2642 
Q 3472 2313 2841 1759 
L 1844 884 
z
" transform="scale(0.015625)"/>
     <path id="DejaVuSans-Bold-30" d="M 2944 2338 
Q 2944 3213 2780 3570 
Q 2616 3928 2228 3928 
Q 1841 3928 1675 3570 
Q 1509 3213 1509 2338 
Q 1509 1453 1675 1090 
Q 1841 728 2228 728 
Q 2613 728 2778 1090 
Q 2944 1453 2944 2338 
z
M 4147 2328 
Q 4147 1169 3647 539 
Q 3147 -91 2228 -91 
Q 1306 -91 806 539 
Q 306 1169 306 2328 
Q 306 3491 806 4120 
Q 1306 4750 2228 4750 
Q 3147 4750 3647 4120 
Q 4147 3491 4147 2328 
z
" transform="scale(0.015625)"/>
     <path id="DejaVuSans-Bold-34" d="M 2356 3675 
L 1038 1722 
L 2356 1722 
L 2356 3675 
z
M 2156 4666 
L 3494 4666 
L 3494 1722 
L 4159 1722 
L 4159 850 
L 3494 850 
L 3494 0 
L 2356 0 
L 2356 850 
L 288 850 
L 288 1881 
L 2156 4666 
z
" transform="scale(0.015625)"/>
    </defs>
    <use xlink:href="#DejaVuSans-Bold-41"/>
    <use xlink:href="#DejaVuSans-Bold-6c" x="77.392578"/>
    <use xlink:href="#DejaVuSans-Bold-61" x="111.669922"/>
    <use xlink:href="#DejaVuSans-Bold-6c" x="179.150391"/>
    <use xlink:href="#DejaVuSans-Bold-61" x="213.427734"/>
    <use xlink:href="#DejaVuSans-Bold-77" x="280.908203"/>
    <use xlink:href="#DejaVuSans-Bold-6e" x="373.291016"/>
    <use xlink:href="#DejaVuSans-Bold-65" x="444.482422"/>
    <use xlink:href="#DejaVuSans-Bold-68" x="512.304688"/>
    <use xlink:href="#DejaVuSans-Bold-32" x="583.496094"/>
    <use xlink:href="#DejaVuSans-Bold-30" x="653.076172"/>
    <use xlink:href="#DejaVuSans-Bold-32" x="722.65625"/>
    <use xlink:href="#DejaVuSans-Bold-34" x="792.236328"/>
   </g>
  </g>
 </g>
 <defs>
  <clipPath id="p4cb3100ba3">
   <rect x="54.708125" y="79.2" width="390.6" height="241.043478"/>
  </clipPath>
  <clipPath id="p0f44462357">
   <rect x="54.708125" y="392.556522" width="390.6" height="241.043478"/>
  </clipPath>
 </defs>
</svg>
