<?xml version="1.0" encoding="utf-8" standalone="no"?>
<!DOCTYPE svg PUBLIC "-//W3C//DTD SVG 1.1//EN"
  "http://www.w3.org/Graphics/SVG/1.1/DTD/svg11.dtd">
<svg xmlns:xlink="http://www.w3.org/1999/xlink" width="477.451062pt" height="996.937813pt" viewBox="0 0 477.451062 996.937813" xmlns="http://www.w3.org/2000/svg" version="1.1">
 <metadata>
  <rdf:RDF xmlns:dc="http://purl.org/dc/elements/1.1/" xmlns:cc="http://creativecommons.org/ns#" xmlns:rdf="http://www.w3.org/1999/02/22-rdf-syntax-ns#">
   <cc:Work>
    <dc:type rdf:resource="http://purl.org/dc/dcmitype/StillImage"/>
    <dc:date>2025-07-19T10:58:38.888022</dc:date>
    <dc:format>image/svg+xml</dc:format>
    <dc:creator>
     <cc:Agent>
      <dc:title>Matplotlib v3.9.1, https://matplotlib.org/</dc:title>
     </cc:Agent>
    </dc:creator>
   </cc:Work>
  </rdf:RDF>
 </metadata>
 <defs>
  <style type="text/css">*{stroke-linejoin: round; stroke-linecap: butt}</style>
 </defs>
 <g id="figure_1">
  <g id="patch_1">
   <path d="M 0 996.937813 
L 477.451062 996.937813 
L 477.451062 0 
L 0 0 
z
" style="fill: #ffffff"/>
  </g>
  <g id="axes_1">
   <g id="patch_2">
    <path d="M 79.651062 346.2 
L 470.251062 346.2 
L 470.251062 115.2 
L 79.651062 115.2 
z
" style="fill: #ffffff"/>
   </g>
   <g id="matplotlib.axis_1">
    <g id="xtick_1">
     <g id="line2d_1">
      <defs>
       <path id="mf91d74c93a" d="M 0 0 
L 0 3.5 
" style="stroke: #000000; stroke-width: 0.8"/>
      </defs>
      <g>
       <use xlink:href="#mf91d74c93a" x="97.405608" y="346.2" style="stroke: #000000; stroke-width: 0.8"/>
      </g>
     </g>
     <g id="text_1">
      <!-- 0 -->
      <g transform="translate(92.633733 364.597656) scale(0.15 -0.15)">
       <defs>
        <path id="DejaVuSans-30" d="M 2034 4250 
Q 1547 4250 1301 3770 
Q 1056 3291 1056 2328 
Q 1056 1369 1301 889 
Q 1547 409 2034 409 
Q 2525 409 2770 889 
Q 3016 1369 3016 2328 
Q 3016 3291 2770 3770 
Q 2525 4250 2034 4250 
z
M 2034 4750 
Q 2819 4750 3233 4129 
Q 3647 3509 3647 2328 
Q 3647 1150 3233 529 
Q 2819 -91 2034 -91 
Q 1250 -91 836 529 
Q 422 1150 422 2328 
Q 422 3509 836 4129 
Q 1250 4750 2034 4750 
z
" transform="scale(0.015625)"/>
       </defs>
       <use xlink:href="#DejaVuSans-30"/>
      </g>
     </g>
    </g>
    <g id="xtick_2">
     <g id="line2d_2">
      <g>
       <use xlink:href="#mf91d74c93a" x="168.42379" y="346.2" style="stroke: #000000; stroke-width: 0.8"/>
      </g>
     </g>
     <g id="text_2">
      <!-- 10 -->
      <g transform="translate(158.88004 364.597656) scale(0.15 -0.15)">
       <defs>
        <path id="DejaVuSans-31" d="M 794 531 
L 1825 531 
L 1825 4091 
L 703 3866 
L 703 4441 
L 1819 4666 
L 2450 4666 
L 2450 531 
L 3481 531 
L 3481 0 
L 794 0 
L 794 531 
z
" transform="scale(0.015625)"/>
       </defs>
       <use xlink:href="#DejaVuSans-31"/>
       <use xlink:href="#DejaVuSans-30" x="63.623047"/>
      </g>
     </g>
    </g>
    <g id="xtick_3">
     <g id="line2d_3">
      <g>
       <use xlink:href="#mf91d74c93a" x="239.441972" y="346.2" style="stroke: #000000; stroke-width: 0.8"/>
      </g>
     </g>
     <g id="text_3">
      <!-- 20 -->
      <g transform="translate(229.898222 364.597656) scale(0.15 -0.15)">
       <defs>
        <path id="DejaVuSans-32" d="M 1228 531 
L 3431 531 
L 3431 0 
L 469 0 
L 469 531 
Q 828 903 1448 1529 
Q 2069 2156 2228 2338 
Q 2531 2678 2651 2914 
Q 2772 3150 2772 3378 
Q 2772 3750 2511 3984 
Q 2250 4219 1831 4219 
Q 1534 4219 1204 4116 
Q 875 4013 500 3803 
L 500 4441 
Q 881 4594 1212 4672 
Q 1544 4750 1819 4750 
Q 2544 4750 2975 4387 
Q 3406 4025 3406 3419 
Q 3406 3131 3298 2873 
Q 3191 2616 2906 2266 
Q 2828 2175 2409 1742 
Q 1991 1309 1228 531 
z
" transform="scale(0.015625)"/>
       </defs>
       <use xlink:href="#DejaVuSans-32"/>
       <use xlink:href="#DejaVuSans-30" x="63.623047"/>
      </g>
     </g>
    </g>
    <g id="xtick_4">
     <g id="line2d_4">
      <g>
       <use xlink:href="#mf91d74c93a" x="310.460153" y="346.2" style="stroke: #000000; stroke-width: 0.8"/>
      </g>
     </g>
     <g id="text_4">
      <!-- 30 -->
      <g transform="translate(300.916403 364.597656) scale(0.15 -0.15)">
       <defs>
        <path id="DejaVuSans-33" d="M 2597 2516 
Q 3050 2419 3304 2112 
Q 3559 1806 3559 1356 
Q 3559 666 3084 287 
Q 2609 -91 1734 -91 
Q 1441 -91 1130 -33 
Q 819 25 488 141 
L 488 750 
Q 750 597 1062 519 
Q 1375 441 1716 441 
Q 2309 441 2620 675 
Q 2931 909 2931 1356 
Q 2931 1769 2642 2001 
Q 2353 2234 1838 2234 
L 1294 2234 
L 1294 2753 
L 1863 2753 
Q 2328 2753 2575 2939 
Q 2822 3125 2822 3475 
Q 2822 3834 2567 4026 
Q 2313 4219 1838 4219 
Q 1578 4219 1281 4162 
Q 984 4106 628 3988 
L 628 4550 
Q 988 4650 1302 4700 
Q 1616 4750 1894 4750 
Q 2613 4750 3031 4423 
Q 3450 4097 3450 3541 
Q 3450 3153 3228 2886 
Q 3006 2619 2597 2516 
z
" transform="scale(0.015625)"/>
       </defs>
       <use xlink:href="#DejaVuSans-33"/>
       <use xlink:href="#DejaVuSans-30" x="63.623047"/>
      </g>
     </g>
    </g>
    <g id="xtick_5">
     <g id="line2d_5">
      <g>
       <use xlink:href="#mf91d74c93a" x="381.478335" y="346.2" style="stroke: #000000; stroke-width: 0.8"/>
      </g>
     </g>
     <g id="text_5">
      <!-- 40 -->
      <g transform="translate(371.934585 364.597656) scale(0.15 -0.15)">
       <defs>
        <path id="DejaVuSans-34" d="M 2419 4116 
L 825 1625 
L 2419 1625 
L 2419 4116 
z
M 2253 4666 
L 3047 4666 
L 3047 1625 
L 3713 1625 
L 3713 1100 
L 3047 1100 
L 3047 0 
L 2419 0 
L 2419 1100 
L 313 1100 
L 313 1709 
L 2253 4666 
z
" transform="scale(0.015625)"/>
       </defs>
       <use xlink:href="#DejaVuSans-34"/>
       <use xlink:href="#DejaVuSans-30" x="63.623047"/>
      </g>
     </g>
    </g>
    <g id="xtick_6">
     <g id="line2d_6">
      <g>
       <use xlink:href="#mf91d74c93a" x="452.496517" y="346.2" style="stroke: #000000; stroke-width: 0.8"/>
      </g>
     </g>
     <g id="text_6">
      <!-- 50 -->
      <g transform="translate(442.952767 364.597656) scale(0.15 -0.15)">
       <defs>
        <path id="DejaVuSans-35" d="M 691 4666 
L 3169 4666 
L 3169 4134 
L 1269 4134 
L 1269 2991 
Q 1406 3038 1543 3061 
Q 1681 3084 1819 3084 
Q 2600 3084 3056 2656 
Q 3513 2228 3513 1497 
Q 3513 744 3044 326 
Q 2575 -91 1722 -91 
Q 1428 -91 1123 -41 
Q 819 9 494 109 
L 494 744 
Q 775 591 1075 516 
Q 1375 441 1709 441 
Q 2250 441 2565 725 
Q 2881 1009 2881 1497 
Q 2881 1984 2565 2268 
Q 2250 2553 1709 2553 
Q 1456 2553 1204 2497 
Q 953 2441 691 2322 
L 691 4666 
z
" transform="scale(0.015625)"/>
       </defs>
       <use xlink:href="#DejaVuSans-35"/>
       <use xlink:href="#DejaVuSans-30" x="63.623047"/>
      </g>
     </g>
    </g>
    <g id="text_7">
     <!-- time [hr] -->
     <g transform="translate(229.876531 385.394375) scale(0.18 -0.18)">
      <defs>
       <path id="DejaVuSans-Bold-74" d="M 1759 4494 
L 1759 3500 
L 2913 3500 
L 2913 2700 
L 1759 2700 
L 1759 1216 
Q 1759 972 1856 886 
Q 1953 800 2241 800 
L 2816 800 
L 2816 0 
L 1856 0 
Q 1194 0 917 276 
Q 641 553 641 1216 
L 641 2700 
L 84 2700 
L 84 3500 
L 641 3500 
L 641 4494 
L 1759 4494 
z
" transform="scale(0.015625)"/>
       <path id="DejaVuSans-Bold-69" d="M 538 3500 
L 1656 3500 
L 1656 0 
L 538 0 
L 538 3500 
z
M 538 4863 
L 1656 4863 
L 1656 3950 
L 538 3950 
L 538 4863 
z
" transform="scale(0.015625)"/>
       <path id="DejaVuSans-Bold-6d" d="M 3781 2919 
Q 3994 3244 4286 3414 
Q 4578 3584 4928 3584 
Q 5531 3584 5847 3212 
Q 6163 2841 6163 2131 
L 6163 0 
L 5038 0 
L 5038 1825 
Q 5041 1866 5042 1909 
Q 5044 1953 5044 2034 
Q 5044 2406 4934 2573 
Q 4825 2741 4581 2741 
Q 4263 2741 4089 2478 
Q 3916 2216 3909 1719 
L 3909 0 
L 2784 0 
L 2784 1825 
Q 2784 2406 2684 2573 
Q 2584 2741 2328 2741 
Q 2006 2741 1831 2477 
Q 1656 2213 1656 1722 
L 1656 0 
L 531 0 
L 531 3500 
L 1656 3500 
L 1656 2988 
Q 1863 3284 2130 3434 
Q 2397 3584 2719 3584 
Q 3081 3584 3359 3409 
Q 3638 3234 3781 2919 
z
" transform="scale(0.015625)"/>
       <path id="DejaVuSans-Bold-65" d="M 4031 1759 
L 4031 1441 
L 1416 1441 
Q 1456 1047 1700 850 
Q 1944 653 2381 653 
Q 2734 653 3104 758 
Q 3475 863 3866 1075 
L 3866 213 
Q 3469 63 3072 -14 
Q 2675 -91 2278 -91 
Q 1328 -91 801 392 
Q 275 875 275 1747 
Q 275 2603 792 3093 
Q 1309 3584 2216 3584 
Q 3041 3584 3536 3087 
Q 4031 2591 4031 1759 
z
M 2881 2131 
Q 2881 2450 2695 2645 
Q 2509 2841 2209 2841 
Q 1884 2841 1681 2658 
Q 1478 2475 1428 2131 
L 2881 2131 
z
" transform="scale(0.015625)"/>
       <path id="DejaVuSans-Bold-20" transform="scale(0.015625)"/>
       <path id="DejaVuSans-Bold-5b" d="M 550 4863 
L 2491 4863 
L 2491 4159 
L 1613 4159 
L 1613 -141 
L 2491 -141 
L 2491 -844 
L 550 -844 
L 550 4863 
z
" transform="scale(0.015625)"/>
       <path id="DejaVuSans-Bold-68" d="M 4056 2131 
L 4056 0 
L 2931 0 
L 2931 347 
L 2931 1625 
Q 2931 2084 2911 2256 
Q 2891 2428 2841 2509 
Q 2775 2619 2662 2680 
Q 2550 2741 2406 2741 
Q 2056 2741 1856 2470 
Q 1656 2200 1656 1722 
L 1656 0 
L 538 0 
L 538 4863 
L 1656 4863 
L 1656 2988 
Q 1909 3294 2193 3439 
Q 2478 3584 2822 3584 
Q 3428 3584 3742 3212 
Q 4056 2841 4056 2131 
z
" transform="scale(0.015625)"/>
       <path id="DejaVuSans-Bold-72" d="M 3138 2547 
Q 2991 2616 2845 2648 
Q 2700 2681 2553 2681 
Q 2122 2681 1889 2404 
Q 1656 2128 1656 1613 
L 1656 0 
L 538 0 
L 538 3500 
L 1656 3500 
L 1656 2925 
Q 1872 3269 2151 3426 
Q 2431 3584 2822 3584 
Q 2878 3584 2943 3579 
Q 3009 3575 3134 3559 
L 3138 2547 
z
" transform="scale(0.015625)"/>
       <path id="DejaVuSans-Bold-5d" d="M 2375 -844 
L 434 -844 
L 434 -141 
L 1313 -141 
L 1313 4159 
L 434 4159 
L 434 4863 
L 2375 4863 
L 2375 -844 
z
" transform="scale(0.015625)"/>
      </defs>
      <use xlink:href="#DejaVuSans-Bold-74"/>
      <use xlink:href="#DejaVuSans-Bold-69" x="47.802734"/>
      <use xlink:href="#DejaVuSans-Bold-6d" x="82.080078"/>
      <use xlink:href="#DejaVuSans-Bold-65" x="186.279297"/>
      <use xlink:href="#DejaVuSans-Bold-20" x="254.101562"/>
      <use xlink:href="#DejaVuSans-Bold-5b" x="288.916016"/>
      <use xlink:href="#DejaVuSans-Bold-68" x="334.619141"/>
      <use xlink:href="#DejaVuSans-Bold-72" x="405.810547"/>
      <use xlink:href="#DejaVuSans-Bold-5d" x="455.126953"/>
     </g>
    </g>
   </g>
   <g id="matplotlib.axis_2">
    <g id="ytick_1">
     <g id="line2d_7">
      <defs>
       <path id="me4a929fa69" d="M 0 0 
L -3.5 0 
" style="stroke: #000000; stroke-width: 0.8"/>
      </defs>
      <g>
       <use xlink:href="#me4a929fa69" x="79.651062" y="312.535449" style="stroke: #000000; stroke-width: 0.8"/>
      </g>
     </g>
     <g id="text_8">
      <!-- 0.0 -->
      <g transform="translate(48.796375 318.234277) scale(0.15 -0.15)">
       <defs>
        <path id="DejaVuSans-2e" d="M 684 794 
L 1344 794 
L 1344 0 
L 684 0 
L 684 794 
z
" transform="scale(0.015625)"/>
       </defs>
       <use xlink:href="#DejaVuSans-30"/>
       <use xlink:href="#DejaVuSans-2e" x="63.623047"/>
       <use xlink:href="#DejaVuSans-30" x="95.410156"/>
      </g>
     </g>
    </g>
    <g id="ytick_2">
     <g id="line2d_8">
      <g>
       <use xlink:href="#me4a929fa69" x="79.651062" y="274.938024" style="stroke: #000000; stroke-width: 0.8"/>
      </g>
     </g>
     <g id="text_9">
      <!-- 0.2 -->
      <g transform="translate(48.796375 280.636852) scale(0.15 -0.15)">
       <use xlink:href="#DejaVuSans-30"/>
       <use xlink:href="#DejaVuSans-2e" x="63.623047"/>
       <use xlink:href="#DejaVuSans-32" x="95.410156"/>
      </g>
     </g>
    </g>
    <g id="ytick_3">
     <g id="line2d_9">
      <g>
       <use xlink:href="#me4a929fa69" x="79.651062" y="237.340599" style="stroke: #000000; stroke-width: 0.8"/>
      </g>
     </g>
     <g id="text_10">
      <!-- 0.4 -->
      <g transform="translate(48.796375 243.039428) scale(0.15 -0.15)">
       <use xlink:href="#DejaVuSans-30"/>
       <use xlink:href="#DejaVuSans-2e" x="63.623047"/>
       <use xlink:href="#DejaVuSans-34" x="95.410156"/>
      </g>
     </g>
    </g>
    <g id="ytick_4">
     <g id="line2d_10">
      <g>
       <use xlink:href="#me4a929fa69" x="79.651062" y="199.743175" style="stroke: #000000; stroke-width: 0.8"/>
      </g>
     </g>
     <g id="text_11">
      <!-- 0.6 -->
      <g transform="translate(48.796375 205.442003) scale(0.15 -0.15)">
       <defs>
        <path id="DejaVuSans-36" d="M 2113 2584 
Q 1688 2584 1439 2293 
Q 1191 2003 1191 1497 
Q 1191 994 1439 701 
Q 1688 409 2113 409 
Q 2538 409 2786 701 
Q 3034 994 3034 1497 
Q 3034 2003 2786 2293 
Q 2538 2584 2113 2584 
z
M 3366 4563 
L 3366 3988 
Q 3128 4100 2886 4159 
Q 2644 4219 2406 4219 
Q 1781 4219 1451 3797 
Q 1122 3375 1075 2522 
Q 1259 2794 1537 2939 
Q 1816 3084 2150 3084 
Q 2853 3084 3261 2657 
Q 3669 2231 3669 1497 
Q 3669 778 3244 343 
Q 2819 -91 2113 -91 
Q 1303 -91 875 529 
Q 447 1150 447 2328 
Q 447 3434 972 4092 
Q 1497 4750 2381 4750 
Q 2619 4750 2861 4703 
Q 3103 4656 3366 4563 
z
" transform="scale(0.015625)"/>
       </defs>
       <use xlink:href="#DejaVuSans-30"/>
       <use xlink:href="#DejaVuSans-2e" x="63.623047"/>
       <use xlink:href="#DejaVuSans-36" x="95.410156"/>
      </g>
     </g>
    </g>
    <g id="ytick_5">
     <g id="line2d_11">
      <g>
       <use xlink:href="#me4a929fa69" x="79.651062" y="162.14575" style="stroke: #000000; stroke-width: 0.8"/>
      </g>
     </g>
     <g id="text_12">
      <!-- 0.8 -->
      <g transform="translate(48.796375 167.844578) scale(0.15 -0.15)">
       <defs>
        <path id="DejaVuSans-38" d="M 2034 2216 
Q 1584 2216 1326 1975 
Q 1069 1734 1069 1313 
Q 1069 891 1326 650 
Q 1584 409 2034 409 
Q 2484 409 2743 651 
Q 3003 894 3003 1313 
Q 3003 1734 2745 1975 
Q 2488 2216 2034 2216 
z
M 1403 2484 
Q 997 2584 770 2862 
Q 544 3141 544 3541 
Q 544 4100 942 4425 
Q 1341 4750 2034 4750 
Q 2731 4750 3128 4425 
Q 3525 4100 3525 3541 
Q 3525 3141 3298 2862 
Q 3072 2584 2669 2484 
Q 3125 2378 3379 2068 
Q 3634 1759 3634 1313 
Q 3634 634 3220 271 
Q 2806 -91 2034 -91 
Q 1263 -91 848 271 
Q 434 634 434 1313 
Q 434 1759 690 2068 
Q 947 2378 1403 2484 
z
M 1172 3481 
Q 1172 3119 1398 2916 
Q 1625 2713 2034 2713 
Q 2441 2713 2670 2916 
Q 2900 3119 2900 3481 
Q 2900 3844 2670 4047 
Q 2441 4250 2034 4250 
Q 1625 4250 1398 4047 
Q 1172 3844 1172 3481 
z
" transform="scale(0.015625)"/>
       </defs>
       <use xlink:href="#DejaVuSans-30"/>
       <use xlink:href="#DejaVuSans-2e" x="63.623047"/>
       <use xlink:href="#DejaVuSans-38" x="95.410156"/>
      </g>
     </g>
    </g>
    <g id="ytick_6">
     <g id="line2d_12">
      <g>
       <use xlink:href="#me4a929fa69" x="79.651062" y="124.548325" style="stroke: #000000; stroke-width: 0.8"/>
      </g>
     </g>
     <g id="text_13">
      <!-- 1.0 -->
      <g transform="translate(48.796375 130.247154) scale(0.15 -0.15)">
       <use xlink:href="#DejaVuSans-31"/>
       <use xlink:href="#DejaVuSans-2e" x="63.623047"/>
       <use xlink:href="#DejaVuSans-30" x="95.410156"/>
      </g>
     </g>
    </g>
    <g id="text_14">
     <!-- rivaroxaban plasma [µM] -->
     <g transform="translate(41.03325 358.066875) rotate(-90) scale(0.18 -0.18)">
      <defs>
       <path id="DejaVuSans-Bold-76" d="M 97 3500 
L 1216 3500 
L 2088 1081 
L 2956 3500 
L 4078 3500 
L 2700 0 
L 1472 0 
L 97 3500 
z
" transform="scale(0.015625)"/>
       <path id="DejaVuSans-Bold-61" d="M 2106 1575 
Q 1756 1575 1579 1456 
Q 1403 1338 1403 1106 
Q 1403 894 1545 773 
Q 1688 653 1941 653 
Q 2256 653 2472 879 
Q 2688 1106 2688 1447 
L 2688 1575 
L 2106 1575 
z
M 3816 1997 
L 3816 0 
L 2688 0 
L 2688 519 
Q 2463 200 2181 54 
Q 1900 -91 1497 -91 
Q 953 -91 614 226 
Q 275 544 275 1050 
Q 275 1666 698 1953 
Q 1122 2241 2028 2241 
L 2688 2241 
L 2688 2328 
Q 2688 2594 2478 2717 
Q 2269 2841 1825 2841 
Q 1466 2841 1156 2769 
Q 847 2697 581 2553 
L 581 3406 
Q 941 3494 1303 3539 
Q 1666 3584 2028 3584 
Q 2975 3584 3395 3211 
Q 3816 2838 3816 1997 
z
" transform="scale(0.015625)"/>
       <path id="DejaVuSans-Bold-6f" d="M 2203 2784 
Q 1831 2784 1636 2517 
Q 1441 2250 1441 1747 
Q 1441 1244 1636 976 
Q 1831 709 2203 709 
Q 2569 709 2762 976 
Q 2956 1244 2956 1747 
Q 2956 2250 2762 2517 
Q 2569 2784 2203 2784 
z
M 2203 3584 
Q 3106 3584 3614 3096 
Q 4122 2609 4122 1747 
Q 4122 884 3614 396 
Q 3106 -91 2203 -91 
Q 1297 -91 786 396 
Q 275 884 275 1747 
Q 275 2609 786 3096 
Q 1297 3584 2203 3584 
z
" transform="scale(0.015625)"/>
       <path id="DejaVuSans-Bold-78" d="M 1422 1791 
L 159 3500 
L 1344 3500 
L 2059 2463 
L 2784 3500 
L 3969 3500 
L 2706 1797 
L 4031 0 
L 2847 0 
L 2059 1106 
L 1281 0 
L 97 0 
L 1422 1791 
z
" transform="scale(0.015625)"/>
       <path id="DejaVuSans-Bold-62" d="M 2400 722 
Q 2759 722 2948 984 
Q 3138 1247 3138 1747 
Q 3138 2247 2948 2509 
Q 2759 2772 2400 2772 
Q 2041 2772 1848 2508 
Q 1656 2244 1656 1747 
Q 1656 1250 1848 986 
Q 2041 722 2400 722 
z
M 1656 2988 
Q 1888 3294 2169 3439 
Q 2450 3584 2816 3584 
Q 3463 3584 3878 3070 
Q 4294 2556 4294 1747 
Q 4294 938 3878 423 
Q 3463 -91 2816 -91 
Q 2450 -91 2169 54 
Q 1888 200 1656 506 
L 1656 0 
L 538 0 
L 538 4863 
L 1656 4863 
L 1656 2988 
z
" transform="scale(0.015625)"/>
       <path id="DejaVuSans-Bold-6e" d="M 4056 2131 
L 4056 0 
L 2931 0 
L 2931 347 
L 2931 1631 
Q 2931 2084 2911 2256 
Q 2891 2428 2841 2509 
Q 2775 2619 2662 2680 
Q 2550 2741 2406 2741 
Q 2056 2741 1856 2470 
Q 1656 2200 1656 1722 
L 1656 0 
L 538 0 
L 538 3500 
L 1656 3500 
L 1656 2988 
Q 1909 3294 2193 3439 
Q 2478 3584 2822 3584 
Q 3428 3584 3742 3212 
Q 4056 2841 4056 2131 
z
" transform="scale(0.015625)"/>
       <path id="DejaVuSans-Bold-70" d="M 1656 506 
L 1656 -1331 
L 538 -1331 
L 538 3500 
L 1656 3500 
L 1656 2988 
Q 1888 3294 2169 3439 
Q 2450 3584 2816 3584 
Q 3463 3584 3878 3070 
Q 4294 2556 4294 1747 
Q 4294 938 3878 423 
Q 3463 -91 2816 -91 
Q 2450 -91 2169 54 
Q 1888 200 1656 506 
z
M 2400 2772 
Q 2041 2772 1848 2508 
Q 1656 2244 1656 1747 
Q 1656 1250 1848 986 
Q 2041 722 2400 722 
Q 2759 722 2948 984 
Q 3138 1247 3138 1747 
Q 3138 2247 2948 2509 
Q 2759 2772 2400 2772 
z
" transform="scale(0.015625)"/>
       <path id="DejaVuSans-Bold-6c" d="M 538 4863 
L 1656 4863 
L 1656 0 
L 538 0 
L 538 4863 
z
" transform="scale(0.015625)"/>
       <path id="DejaVuSans-Bold-73" d="M 3272 3391 
L 3272 2541 
Q 2913 2691 2578 2766 
Q 2244 2841 1947 2841 
Q 1628 2841 1473 2761 
Q 1319 2681 1319 2516 
Q 1319 2381 1436 2309 
Q 1553 2238 1856 2203 
L 2053 2175 
Q 2913 2066 3209 1816 
Q 3506 1566 3506 1031 
Q 3506 472 3093 190 
Q 2681 -91 1863 -91 
Q 1516 -91 1145 -36 
Q 775 19 384 128 
L 384 978 
Q 719 816 1070 734 
Q 1422 653 1784 653 
Q 2113 653 2278 743 
Q 2444 834 2444 1013 
Q 2444 1163 2330 1236 
Q 2216 1309 1875 1350 
L 1678 1375 
Q 931 1469 631 1722 
Q 331 1975 331 2491 
Q 331 3047 712 3315 
Q 1094 3584 1881 3584 
Q 2191 3584 2531 3537 
Q 2872 3491 3272 3391 
z
" transform="scale(0.015625)"/>
       <path id="DejaVuSans-Bold-b5" d="M 544 -1338 
L 544 3500 
L 1672 3500 
L 1672 1466 
Q 1672 1103 1828 926 
Q 1984 750 2303 750 
Q 2625 750 2781 926 
Q 2938 1103 2938 1466 
L 2938 3500 
L 4063 3500 
L 4063 1159 
Q 4063 938 4114 850 
Q 4166 763 4288 763 
Q 4344 763 4395 778 
Q 4447 794 4506 831 
L 4506 50 
Q 4341 -22 4195 -56 
Q 4050 -91 3909 -91 
Q 3631 -91 3454 26 
Q 3278 144 3169 403 
Q 3022 156 2811 32 
Q 2600 -91 2322 -91 
Q 2091 -91 1928 -17 
Q 1766 56 1672 206 
L 1672 -1338 
L 544 -1338 
z
" transform="scale(0.015625)"/>
       <path id="DejaVuSans-Bold-4d" d="M 588 4666 
L 2119 4666 
L 3181 2169 
L 4250 4666 
L 5778 4666 
L 5778 0 
L 4641 0 
L 4641 3413 
L 3566 897 
L 2803 897 
L 1728 3413 
L 1728 0 
L 588 0 
L 588 4666 
z
" transform="scale(0.015625)"/>
      </defs>
      <use xlink:href="#DejaVuSans-Bold-72"/>
      <use xlink:href="#DejaVuSans-Bold-69" x="49.316406"/>
      <use xlink:href="#DejaVuSans-Bold-76" x="83.59375"/>
      <use xlink:href="#DejaVuSans-Bold-61" x="148.779297"/>
      <use xlink:href="#DejaVuSans-Bold-72" x="216.259766"/>
      <use xlink:href="#DejaVuSans-Bold-6f" x="265.576172"/>
      <use xlink:href="#DejaVuSans-Bold-78" x="334.277344"/>
      <use xlink:href="#DejaVuSans-Bold-61" x="398.779297"/>
      <use xlink:href="#DejaVuSans-Bold-62" x="466.259766"/>
      <use xlink:href="#DejaVuSans-Bold-61" x="537.841797"/>
      <use xlink:href="#DejaVuSans-Bold-6e" x="605.322266"/>
      <use xlink:href="#DejaVuSans-Bold-20" x="676.513672"/>
      <use xlink:href="#DejaVuSans-Bold-70" x="711.328125"/>
      <use xlink:href="#DejaVuSans-Bold-6c" x="782.910156"/>
      <use xlink:href="#DejaVuSans-Bold-61" x="817.1875"/>
      <use xlink:href="#DejaVuSans-Bold-73" x="884.667969"/>
      <use xlink:href="#DejaVuSans-Bold-6d" x="944.189453"/>
      <use xlink:href="#DejaVuSans-Bold-61" x="1048.388672"/>
      <use xlink:href="#DejaVuSans-Bold-20" x="1115.869141"/>
      <use xlink:href="#DejaVuSans-Bold-5b" x="1150.683594"/>
      <use xlink:href="#DejaVuSans-Bold-b5" x="1196.386719"/>
      <use xlink:href="#DejaVuSans-Bold-4d" x="1269.970703"/>
      <use xlink:href="#DejaVuSans-Bold-5d" x="1369.482422"/>
     </g>
    </g>
   </g>
   <g id="LineCollection_1">
    <path d="M 97.405608 312.535449 
L 97.405608 312.535449 
" clip-path="url(#p897c98410a)" style="fill: none; stroke: #000000"/>
    <path d="M 104.714972 277.328769 
L 104.714972 142.903264 
" clip-path="url(#p897c98410a)" style="fill: none; stroke: #000000"/>
    <path d="M 111.921832 236.12095 
L 111.921832 127.300304 
" clip-path="url(#p897c98410a)" style="fill: none; stroke: #000000"/>
    <path d="M 126.2674 222.51837 
L 126.2674 125.7 
" clip-path="url(#p897c98410a)" style="fill: none; stroke: #000000"/>
    <path d="M 154.265388 272.527858 
L 154.265388 183.711007 
" clip-path="url(#p897c98410a)" style="fill: none; stroke: #000000"/>
    <path d="M 182.578091 294.932109 
L 182.578091 246.122848 
" clip-path="url(#p897c98410a)" style="fill: none; stroke: #000000"/>
    <path d="M 225.551078 304.934006 
L 225.551078 282.529756 
" clip-path="url(#p897c98410a)" style="fill: none; stroke: #000000"/>
    <path d="M 353.349696 312.135373 
L 353.349696 307.334462 
" clip-path="url(#p897c98410a)" style="fill: none; stroke: #000000"/>
    <path d="M 438.460677 312.135373 
L 438.460677 312.135373 
" clip-path="url(#p897c98410a)" style="fill: none; stroke: #000000"/>
   </g>
   <g id="LineCollection_2">
    <path d="M 97.405608 312.535449 
L 97.405608 311.735297 
" clip-path="url(#p897c98410a)" style="fill: none; stroke: #1f77b4"/>
    <path d="M 104.714972 306.134234 
L 104.714972 179.710247 
" clip-path="url(#p897c98410a)" style="fill: none; stroke: #1f77b4"/>
    <path d="M 111.921832 268.527099 
L 111.921832 142.903264 
" clip-path="url(#p897c98410a)" style="fill: none; stroke: #1f77b4"/>
    <path d="M 126.2674 214.116776 
L 126.2674 143.703416 
" clip-path="url(#p897c98410a)" style="fill: none; stroke: #1f77b4"/>
    <path d="M 154.265388 250.923759 
L 154.265388 210.116016 
" clip-path="url(#p897c98410a)" style="fill: none; stroke: #1f77b4"/>
    <path d="M 182.578091 284.930211 
L 182.578091 256.924898 
" clip-path="url(#p897c98410a)" style="fill: none; stroke: #1f77b4"/>
    <path d="M 225.551078 298.532792 
L 225.551078 284.130059 
" clip-path="url(#p897c98410a)" style="fill: none; stroke: #1f77b4"/>
    <path d="M 353.349696 310.935145 
L 353.349696 307.734538 
" clip-path="url(#p897c98410a)" style="fill: none; stroke: #1f77b4"/>
    <path d="M 438.460677 312.935525 
L 438.460677 310.535069 
" clip-path="url(#p897c98410a)" style="fill: none; stroke: #1f77b4"/>
   </g>
   <g id="LineCollection_3">
    <path d="M 97.405608 312.535449 
L 97.405608 312.535449 
" clip-path="url(#p897c98410a)" style="fill: none; stroke: #ff7f0e"/>
    <path d="M 104.391438 335.7 
L 104.391438 179.865746 
" clip-path="url(#p897c98410a)" style="fill: none; stroke: #ff7f0e"/>
    <path d="M 111.627809 307.902538 
L 111.627809 169.757578 
" clip-path="url(#p897c98410a)" style="fill: none; stroke: #ff7f0e"/>
    <path d="M 125.809524 244.305316 
L 125.809524 144.065985 
" clip-path="url(#p897c98410a)" style="fill: none; stroke: #ff7f0e"/>
    <path d="M 154.61419 254.834657 
L 154.61419 184.077482 
" clip-path="url(#p897c98410a)" style="fill: none; stroke: #ff7f0e"/>
    <path d="M 182.795729 277.999209 
L 182.795729 243.462968 
" clip-path="url(#p897c98410a)" style="fill: none; stroke: #ff7f0e"/>
    <path d="M 225.418326 300.321413 
L 225.418326 273.366298 
" clip-path="url(#p897c98410a)" style="fill: none; stroke: #ff7f0e"/>
    <path d="M 353.365329 310.850754 
L 353.365329 305.79667 
" clip-path="url(#p897c98410a)" style="fill: none; stroke: #ff7f0e"/>
    <path d="M 438.678586 311.693101 
L 438.678586 311.693101 
" clip-path="url(#p897c98410a)" style="fill: none; stroke: #ff7f0e"/>
   </g>
   <g id="line2d_13">
    <path d="M 97.405608 312.535449 
L 98.11579 310.562641 
L 98.825972 304.928318 
L 100.246335 288.329275 
L 102.376881 261.744443 
L 103.797244 246.807375 
L 105.217608 234.927809 
L 106.637972 225.987122 
L 107.348153 222.504756 
L 108.058335 219.607604 
L 108.768517 217.239496 
L 109.478699 215.345969 
L 110.188881 213.875472 
L 110.899062 212.780041 
L 111.609244 212.01562 
L 112.319426 211.542128 
L 113.029608 211.323379 
L 113.73979 211.326892 
L 114.449972 211.523656 
L 115.160153 211.887857 
L 116.580517 213.029633 
L 118.000881 214.599207 
L 119.421244 216.477786 
L 121.55179 219.68059 
L 125.102699 225.542569 
L 132.914699 238.578579 
L 137.17579 245.160794 
L 140.726699 250.259207 
L 144.277608 255.000082 
L 147.828517 259.39466 
L 151.379426 263.461132 
L 154.930335 267.220333 
L 158.481244 270.693592 
L 162.032153 273.901682 
L 166.293244 277.429076 
L 170.554335 280.634758 
L 174.815426 283.547878 
L 179.076517 286.195048 
L 183.337608 288.60051 
L 188.308881 291.130695 
L 193.280153 293.39342 
L 198.251426 295.416953 
L 203.932881 297.468981 
L 209.614335 299.275029 
L 216.005972 301.049383 
L 222.397608 302.586313 
L 229.499426 304.054048 
L 237.311426 305.419741 
L 245.833608 306.660057 
L 255.065972 307.760994 
L 265.008517 308.717071 
L 276.371426 309.577637 
L 289.154699 310.316238 
L 304.068517 310.94825 
L 321.823062 311.47048 
L 343.838699 311.886139 
L 372.956153 312.197968 
L 414.856881 312.403843 
L 452.496517 312.478969 
L 452.496517 312.478969 
" clip-path="url(#p897c98410a)" style="fill: none; stroke: #000000; stroke-width: 2; stroke-linecap: square"/>
   </g>
   <g id="line2d_14">
    <path d="M 97.405608 312.535449 
L 104.714972 210.116016 
L 111.921832 181.710627 
L 126.2674 174.109185 
L 154.265388 228.119432 
L 182.578091 270.527478 
L 225.551078 293.731881 
L 353.349696 309.734917 
L 438.460677 312.135373 
" clip-path="url(#p897c98410a)" style="fill: none; stroke-dasharray: 3.7,1.6; stroke-dashoffset: 0; stroke: #000000"/>
    <defs>
     <path id="mc446cee50a" d="M -3 3 
L 3 3 
L 3 -3 
L -3 -3 
z
" style="stroke: #000000; stroke-linejoin: miter"/>
    </defs>
    <g clip-path="url(#p897c98410a)">
     <use xlink:href="#mc446cee50a" x="97.405608" y="312.535449" style="stroke: #000000; stroke-linejoin: miter"/>
     <use xlink:href="#mc446cee50a" x="104.714972" y="210.116016" style="stroke: #000000; stroke-linejoin: miter"/>
     <use xlink:href="#mc446cee50a" x="111.921832" y="181.710627" style="stroke: #000000; stroke-linejoin: miter"/>
     <use xlink:href="#mc446cee50a" x="126.2674" y="174.109185" style="stroke: #000000; stroke-linejoin: miter"/>
     <use xlink:href="#mc446cee50a" x="154.265388" y="228.119432" style="stroke: #000000; stroke-linejoin: miter"/>
     <use xlink:href="#mc446cee50a" x="182.578091" y="270.527478" style="stroke: #000000; stroke-linejoin: miter"/>
     <use xlink:href="#mc446cee50a" x="225.551078" y="293.731881" style="stroke: #000000; stroke-linejoin: miter"/>
     <use xlink:href="#mc446cee50a" x="353.349696" y="309.734917" style="stroke: #000000; stroke-linejoin: miter"/>
     <use xlink:href="#mc446cee50a" x="438.460677" y="312.135373" style="stroke: #000000; stroke-linejoin: miter"/>
    </g>
   </g>
   <g id="line2d_15">
    <path d="M 97.405608 312.535449 
L 98.11579 311.342917 
L 98.825972 307.937058 
L 100.246335 297.903197 
L 102.376881 281.833083 
L 103.797244 272.80386 
L 105.217608 265.622848 
L 106.637972 260.218344 
L 107.348153 258.113308 
L 108.058335 256.362025 
L 108.768517 254.930541 
L 109.478699 253.785934 
L 110.188881 252.897041 
L 110.899062 252.23487 
L 111.609244 251.77279 
L 112.319426 251.486572 
L 113.029608 251.354341 
L 113.73979 251.356464 
L 115.160153 251.695559 
L 116.580517 252.385745 
L 118.000881 253.334528 
L 120.131426 255.090083 
L 122.972153 257.793809 
L 136.465608 271.166179 
L 140.726699 274.890438 
L 144.98779 278.303946 
L 149.248881 281.419036 
L 153.509972 284.255682 
L 157.771062 286.836014 
L 162.032153 289.181943 
L 167.003426 291.650171 
L 171.974699 293.857785 
L 176.945972 295.832151 
L 182.627426 297.834375 
L 188.308881 299.596611 
L 194.700517 301.32793 
L 201.092153 302.827587 
L 208.193972 304.259728 
L 216.005972 305.592302 
L 224.528153 306.80254 
L 233.760517 307.876778 
L 243.703062 308.809669 
L 255.065972 309.649366 
L 267.849244 310.370055 
L 282.763062 310.986741 
L 300.517608 311.496306 
L 323.243426 311.911917 
L 353.071062 312.216498 
L 396.392153 312.414977 
L 452.496517 312.501308 
L 452.496517 312.501308 
" clip-path="url(#p897c98410a)" style="fill: none; stroke: #1f77b4; stroke-width: 2; stroke-linecap: square"/>
   </g>
   <g id="line2d_16">
    <path d="M 97.405608 312.135373 
L 104.714972 242.922241 
L 111.921832 205.715181 
L 126.2674 178.910096 
L 154.265388 230.519888 
L 182.578091 270.927554 
L 225.551078 291.331426 
L 353.349696 309.334841 
L 438.460677 311.735297 
" clip-path="url(#p897c98410a)" style="fill: none; stroke-dasharray: 3.7,1.6; stroke-dashoffset: 0; stroke: #1f77b4"/>
    <defs>
     <path id="mdb1e82d7a9" d="M -3 3 
L 3 3 
L 3 -3 
L -3 -3 
z
" style="stroke: #000000; stroke-linejoin: miter"/>
    </defs>
    <g clip-path="url(#p897c98410a)">
     <use xlink:href="#mdb1e82d7a9" x="97.405608" y="312.135373" style="fill: #1f77b4; stroke: #000000; stroke-linejoin: miter"/>
     <use xlink:href="#mdb1e82d7a9" x="104.714972" y="242.922241" style="fill: #1f77b4; stroke: #000000; stroke-linejoin: miter"/>
     <use xlink:href="#mdb1e82d7a9" x="111.921832" y="205.715181" style="fill: #1f77b4; stroke: #000000; stroke-linejoin: miter"/>
     <use xlink:href="#mdb1e82d7a9" x="126.2674" y="178.910096" style="fill: #1f77b4; stroke: #000000; stroke-linejoin: miter"/>
     <use xlink:href="#mdb1e82d7a9" x="154.265388" y="230.519888" style="fill: #1f77b4; stroke: #000000; stroke-linejoin: miter"/>
     <use xlink:href="#mdb1e82d7a9" x="182.578091" y="270.927554" style="fill: #1f77b4; stroke: #000000; stroke-linejoin: miter"/>
     <use xlink:href="#mdb1e82d7a9" x="225.551078" y="291.331426" style="fill: #1f77b4; stroke: #000000; stroke-linejoin: miter"/>
     <use xlink:href="#mdb1e82d7a9" x="353.349696" y="309.334841" style="fill: #1f77b4; stroke: #000000; stroke-linejoin: miter"/>
     <use xlink:href="#mdb1e82d7a9" x="438.460677" y="311.735297" style="fill: #1f77b4; stroke: #000000; stroke-linejoin: miter"/>
    </g>
   </g>
   <g id="line2d_17">
    <path d="M 97.405608 312.535449 
L 98.11579 311.550506 
L 98.825972 308.737518 
L 100.246335 300.450293 
L 102.376881 287.177569 
L 103.797244 279.720099 
L 105.217608 273.789116 
L 106.637972 269.325395 
L 108.058335 266.140362 
L 108.768517 264.958062 
L 109.478699 264.012701 
L 110.188881 263.278542 
L 110.899062 262.731638 
L 111.609244 262.349993 
L 112.319426 262.113598 
L 113.73979 262.006139 
L 115.160153 262.286206 
L 116.580517 262.856249 
L 118.000881 263.639873 
L 120.131426 265.089832 
L 122.972153 267.32291 
L 136.465608 278.367496 
L 140.726699 281.443459 
L 144.98779 284.262763 
L 149.248881 286.835596 
L 153.509972 289.178456 
L 158.481244 291.645514 
L 163.452517 293.85301 
L 168.42379 295.827637 
L 174.105244 297.830299 
L 179.786699 299.592988 
L 186.178335 301.324779 
L 192.569972 302.824854 
L 199.67179 304.257396 
L 207.48379 305.590345 
L 216.005972 306.800924 
L 225.238335 307.875465 
L 235.180881 308.808619 
L 246.54379 309.648553 
L 259.327063 310.369445 
L 274.240881 310.986304 
L 291.995426 311.496013 
L 314.721244 311.911741 
L 344.548881 312.216408 
L 387.869972 312.414943 
L 452.496517 312.507251 
L 452.496517 312.507251 
" clip-path="url(#p897c98410a)" style="fill: none; stroke: #ff7f0e; stroke-width: 2; stroke-linecap: square"/>
   </g>
   <g id="line2d_18">
    <path d="M 97.405608 312.535449 
L 104.391438 257.782873 
L 111.627809 238.830058 
L 125.809524 194.18565 
L 154.61419 219.45607 
L 182.795729 260.731088 
L 225.418326 286.843855 
L 353.365329 308.323712 
L 438.678586 311.693101 
" clip-path="url(#p897c98410a)" style="fill: none; stroke-dasharray: 3.7,1.6; stroke-dashoffset: 0; stroke: #ff7f0e"/>
    <defs>
     <path id="m50579b5764" d="M -3 3 
L 3 3 
L 3 -3 
L -3 -3 
z
" style="stroke: #000000; stroke-linejoin: miter"/>
    </defs>
    <g clip-path="url(#p897c98410a)">
     <use xlink:href="#m50579b5764" x="97.405608" y="312.535449" style="fill: #ff7f0e; stroke: #000000; stroke-linejoin: miter"/>
     <use xlink:href="#m50579b5764" x="104.391438" y="257.782873" style="fill: #ff7f0e; stroke: #000000; stroke-linejoin: miter"/>
     <use xlink:href="#m50579b5764" x="111.627809" y="238.830058" style="fill: #ff7f0e; stroke: #000000; stroke-linejoin: miter"/>
     <use xlink:href="#m50579b5764" x="125.809524" y="194.18565" style="fill: #ff7f0e; stroke: #000000; stroke-linejoin: miter"/>
     <use xlink:href="#m50579b5764" x="154.61419" y="219.45607" style="fill: #ff7f0e; stroke: #000000; stroke-linejoin: miter"/>
     <use xlink:href="#m50579b5764" x="182.795729" y="260.731088" style="fill: #ff7f0e; stroke: #000000; stroke-linejoin: miter"/>
     <use xlink:href="#m50579b5764" x="225.418326" y="286.843855" style="fill: #ff7f0e; stroke: #000000; stroke-linejoin: miter"/>
     <use xlink:href="#m50579b5764" x="353.365329" y="308.323712" style="fill: #ff7f0e; stroke: #000000; stroke-linejoin: miter"/>
     <use xlink:href="#m50579b5764" x="438.678586" y="311.693101" style="fill: #ff7f0e; stroke: #000000; stroke-linejoin: miter"/>
    </g>
   </g>
   <g id="patch_3">
    <path d="M 79.651062 346.2 
L 79.651062 115.2 
" style="fill: none; stroke: #000000; stroke-width: 0.8; stroke-linejoin: miter; stroke-linecap: square"/>
   </g>
   <g id="patch_4">
    <path d="M 470.251062 346.2 
L 470.251062 115.2 
" style="fill: none; stroke: #000000; stroke-width: 0.8; stroke-linejoin: miter; stroke-linecap: square"/>
   </g>
   <g id="patch_5">
    <path d="M 79.651062 346.2 
L 470.251062 346.2 
" style="fill: none; stroke: #000000; stroke-width: 0.8; stroke-linejoin: miter; stroke-linecap: square"/>
   </g>
   <g id="patch_6">
    <path d="M 79.651062 115.2 
L 470.251062 115.2 
" style="fill: none; stroke: #000000; stroke-width: 0.8; stroke-linejoin: miter; stroke-linecap: square"/>
   </g>
   <g id="legend_1">
    <g id="patch_7">
     <path d="M 299.016687 211.26875 
L 463.251062 211.26875 
Q 465.251062 211.26875 465.251062 209.26875 
L 465.251062 122.2 
Q 465.251062 120.2 463.251062 120.2 
L 299.016687 120.2 
Q 297.016687 120.2 297.016687 122.2 
L 297.016687 209.26875 
Q 297.016687 211.26875 299.016687 211.26875 
z
" style="fill: #ffffff; opacity: 0.8; stroke: #cccccc; stroke-linejoin: miter"/>
    </g>
    <g id="line2d_19">
     <path d="M 301.016687 128.298438 
L 321.016687 128.298438 
" style="fill: none; stroke: #000000; stroke-width: 2; stroke-linecap: square"/>
    </g>
    <g id="line2d_20"/>
    <g id="text_15">
     <!-- non-obese -->
     <g transform="translate(329.016687 131.798438) scale(0.1 -0.1)">
      <defs>
       <path id="DejaVuSans-6e" d="M 3513 2113 
L 3513 0 
L 2938 0 
L 2938 2094 
Q 2938 2591 2744 2837 
Q 2550 3084 2163 3084 
Q 1697 3084 1428 2787 
Q 1159 2491 1159 1978 
L 1159 0 
L 581 0 
L 581 3500 
L 1159 3500 
L 1159 2956 
Q 1366 3272 1645 3428 
Q 1925 3584 2291 3584 
Q 2894 3584 3203 3211 
Q 3513 2838 3513 2113 
z
" transform="scale(0.015625)"/>
       <path id="DejaVuSans-6f" d="M 1959 3097 
Q 1497 3097 1228 2736 
Q 959 2375 959 1747 
Q 959 1119 1226 758 
Q 1494 397 1959 397 
Q 2419 397 2687 759 
Q 2956 1122 2956 1747 
Q 2956 2369 2687 2733 
Q 2419 3097 1959 3097 
z
M 1959 3584 
Q 2709 3584 3137 3096 
Q 3566 2609 3566 1747 
Q 3566 888 3137 398 
Q 2709 -91 1959 -91 
Q 1206 -91 779 398 
Q 353 888 353 1747 
Q 353 2609 779 3096 
Q 1206 3584 1959 3584 
z
" transform="scale(0.015625)"/>
       <path id="DejaVuSans-2d" d="M 313 2009 
L 1997 2009 
L 1997 1497 
L 313 1497 
L 313 2009 
z
" transform="scale(0.015625)"/>
       <path id="DejaVuSans-62" d="M 3116 1747 
Q 3116 2381 2855 2742 
Q 2594 3103 2138 3103 
Q 1681 3103 1420 2742 
Q 1159 2381 1159 1747 
Q 1159 1113 1420 752 
Q 1681 391 2138 391 
Q 2594 391 2855 752 
Q 3116 1113 3116 1747 
z
M 1159 2969 
Q 1341 3281 1617 3432 
Q 1894 3584 2278 3584 
Q 2916 3584 3314 3078 
Q 3713 2572 3713 1747 
Q 3713 922 3314 415 
Q 2916 -91 2278 -91 
Q 1894 -91 1617 61 
Q 1341 213 1159 525 
L 1159 0 
L 581 0 
L 581 4863 
L 1159 4863 
L 1159 2969 
z
" transform="scale(0.015625)"/>
       <path id="DejaVuSans-65" d="M 3597 1894 
L 3597 1613 
L 953 1613 
Q 991 1019 1311 708 
Q 1631 397 2203 397 
Q 2534 397 2845 478 
Q 3156 559 3463 722 
L 3463 178 
Q 3153 47 2828 -22 
Q 2503 -91 2169 -91 
Q 1331 -91 842 396 
Q 353 884 353 1716 
Q 353 2575 817 3079 
Q 1281 3584 2069 3584 
Q 2775 3584 3186 3129 
Q 3597 2675 3597 1894 
z
M 3022 2063 
Q 3016 2534 2758 2815 
Q 2500 3097 2075 3097 
Q 1594 3097 1305 2825 
Q 1016 2553 972 2059 
L 3022 2063 
z
" transform="scale(0.015625)"/>
       <path id="DejaVuSans-73" d="M 2834 3397 
L 2834 2853 
Q 2591 2978 2328 3040 
Q 2066 3103 1784 3103 
Q 1356 3103 1142 2972 
Q 928 2841 928 2578 
Q 928 2378 1081 2264 
Q 1234 2150 1697 2047 
L 1894 2003 
Q 2506 1872 2764 1633 
Q 3022 1394 3022 966 
Q 3022 478 2636 193 
Q 2250 -91 1575 -91 
Q 1294 -91 989 -36 
Q 684 19 347 128 
L 347 722 
Q 666 556 975 473 
Q 1284 391 1588 391 
Q 1994 391 2212 530 
Q 2431 669 2431 922 
Q 2431 1156 2273 1281 
Q 2116 1406 1581 1522 
L 1381 1569 
Q 847 1681 609 1914 
Q 372 2147 372 2553 
Q 372 3047 722 3315 
Q 1072 3584 1716 3584 
Q 2034 3584 2315 3537 
Q 2597 3491 2834 3397 
z
" transform="scale(0.015625)"/>
      </defs>
      <use xlink:href="#DejaVuSans-6e"/>
      <use xlink:href="#DejaVuSans-6f" x="63.378906"/>
      <use xlink:href="#DejaVuSans-6e" x="124.560547"/>
      <use xlink:href="#DejaVuSans-2d" x="187.939453"/>
      <use xlink:href="#DejaVuSans-6f" x="225.898438"/>
      <use xlink:href="#DejaVuSans-62" x="287.080078"/>
      <use xlink:href="#DejaVuSans-65" x="350.556641"/>
      <use xlink:href="#DejaVuSans-73" x="412.080078"/>
      <use xlink:href="#DejaVuSans-65" x="464.179688"/>
     </g>
    </g>
    <g id="LineCollection_4">
     <path d="M 311.016687 147.976563 
L 311.016687 137.976563 
" style="fill: none; stroke: #000000"/>
    </g>
    <g id="line2d_21">
     <path d="M 301.016687 142.976563 
L 321.016687 142.976563 
" style="fill: none; stroke-dasharray: 3.7,1.6; stroke-dashoffset: 0; stroke: #000000"/>
    </g>
    <g id="line2d_22">
     <g>
      <use xlink:href="#mc446cee50a" x="311.016687" y="142.976563" style="stroke: #000000; stroke-linejoin: miter"/>
     </g>
    </g>
    <g id="text_16">
     <!-- non-obese±SD (n=18) -->
     <g transform="translate(329.016687 146.476563) scale(0.1 -0.1)">
      <defs>
       <path id="DejaVuSans-b1" d="M 2944 4013 
L 2944 2803 
L 4684 2803 
L 4684 2272 
L 2944 2272 
L 2944 1063 
L 2419 1063 
L 2419 2272 
L 678 2272 
L 678 2803 
L 2419 2803 
L 2419 4013 
L 2944 4013 
z
M 678 531 
L 4684 531 
L 4684 0 
L 678 0 
L 678 531 
z
" transform="scale(0.015625)"/>
       <path id="DejaVuSans-53" d="M 3425 4513 
L 3425 3897 
Q 3066 4069 2747 4153 
Q 2428 4238 2131 4238 
Q 1616 4238 1336 4038 
Q 1056 3838 1056 3469 
Q 1056 3159 1242 3001 
Q 1428 2844 1947 2747 
L 2328 2669 
Q 3034 2534 3370 2195 
Q 3706 1856 3706 1288 
Q 3706 609 3251 259 
Q 2797 -91 1919 -91 
Q 1588 -91 1214 -16 
Q 841 59 441 206 
L 441 856 
Q 825 641 1194 531 
Q 1563 422 1919 422 
Q 2459 422 2753 634 
Q 3047 847 3047 1241 
Q 3047 1584 2836 1778 
Q 2625 1972 2144 2069 
L 1759 2144 
Q 1053 2284 737 2584 
Q 422 2884 422 3419 
Q 422 4038 858 4394 
Q 1294 4750 2059 4750 
Q 2388 4750 2728 4690 
Q 3069 4631 3425 4513 
z
" transform="scale(0.015625)"/>
       <path id="DejaVuSans-44" d="M 1259 4147 
L 1259 519 
L 2022 519 
Q 2988 519 3436 956 
Q 3884 1394 3884 2338 
Q 3884 3275 3436 3711 
Q 2988 4147 2022 4147 
L 1259 4147 
z
M 628 4666 
L 1925 4666 
Q 3281 4666 3915 4102 
Q 4550 3538 4550 2338 
Q 4550 1131 3912 565 
Q 3275 0 1925 0 
L 628 0 
L 628 4666 
z
" transform="scale(0.015625)"/>
       <path id="DejaVuSans-20" transform="scale(0.015625)"/>
       <path id="DejaVuSans-28" d="M 1984 4856 
Q 1566 4138 1362 3434 
Q 1159 2731 1159 2009 
Q 1159 1288 1364 580 
Q 1569 -128 1984 -844 
L 1484 -844 
Q 1016 -109 783 600 
Q 550 1309 550 2009 
Q 550 2706 781 3412 
Q 1013 4119 1484 4856 
L 1984 4856 
z
" transform="scale(0.015625)"/>
       <path id="DejaVuSans-3d" d="M 678 2906 
L 4684 2906 
L 4684 2381 
L 678 2381 
L 678 2906 
z
M 678 1631 
L 4684 1631 
L 4684 1100 
L 678 1100 
L 678 1631 
z
" transform="scale(0.015625)"/>
       <path id="DejaVuSans-29" d="M 513 4856 
L 1013 4856 
Q 1481 4119 1714 3412 
Q 1947 2706 1947 2009 
Q 1947 1309 1714 600 
Q 1481 -109 1013 -844 
L 513 -844 
Q 928 -128 1133 580 
Q 1338 1288 1338 2009 
Q 1338 2731 1133 3434 
Q 928 4138 513 4856 
z
" transform="scale(0.015625)"/>
      </defs>
      <use xlink:href="#DejaVuSans-6e"/>
      <use xlink:href="#DejaVuSans-6f" x="63.378906"/>
      <use xlink:href="#DejaVuSans-6e" x="124.560547"/>
      <use xlink:href="#DejaVuSans-2d" x="187.939453"/>
      <use xlink:href="#DejaVuSans-6f" x="225.898438"/>
      <use xlink:href="#DejaVuSans-62" x="287.080078"/>
      <use xlink:href="#DejaVuSans-65" x="350.556641"/>
      <use xlink:href="#DejaVuSans-73" x="412.080078"/>
      <use xlink:href="#DejaVuSans-65" x="464.179688"/>
      <use xlink:href="#DejaVuSans-b1" x="525.703125"/>
      <use xlink:href="#DejaVuSans-53" x="609.492188"/>
      <use xlink:href="#DejaVuSans-44" x="672.96875"/>
      <use xlink:href="#DejaVuSans-20" x="749.970703"/>
      <use xlink:href="#DejaVuSans-28" x="781.757812"/>
      <use xlink:href="#DejaVuSans-6e" x="820.771484"/>
      <use xlink:href="#DejaVuSans-3d" x="884.150391"/>
      <use xlink:href="#DejaVuSans-31" x="967.939453"/>
      <use xlink:href="#DejaVuSans-38" x="1031.5625"/>
      <use xlink:href="#DejaVuSans-29" x="1095.185547"/>
     </g>
    </g>
    <g id="line2d_23">
     <path d="M 301.016687 157.654688 
L 321.016687 157.654688 
" style="fill: none; stroke: #1f77b4; stroke-width: 2; stroke-linecap: square"/>
    </g>
    <g id="line2d_24"/>
    <g id="text_17">
     <!-- obese -->
     <g transform="translate(329.016687 161.154688) scale(0.1 -0.1)">
      <use xlink:href="#DejaVuSans-6f"/>
      <use xlink:href="#DejaVuSans-62" x="61.181641"/>
      <use xlink:href="#DejaVuSans-65" x="124.658203"/>
      <use xlink:href="#DejaVuSans-73" x="186.181641"/>
      <use xlink:href="#DejaVuSans-65" x="238.28125"/>
     </g>
    </g>
    <g id="LineCollection_5">
     <path d="M 311.016687 177.332813 
L 311.016687 167.332813 
" style="fill: none; stroke: #1f77b4"/>
    </g>
    <g id="line2d_25">
     <path d="M 301.016687 172.332813 
L 321.016687 172.332813 
" style="fill: none; stroke-dasharray: 3.7,1.6; stroke-dashoffset: 0; stroke: #1f77b4"/>
    </g>
    <g id="line2d_26">
     <g>
      <use xlink:href="#mdb1e82d7a9" x="311.016687" y="172.332813" style="fill: #1f77b4; stroke: #000000; stroke-linejoin: miter"/>
     </g>
    </g>
    <g id="text_18">
     <!-- obese±SD (n=18) -->
     <g transform="translate(329.016687 175.832813) scale(0.1 -0.1)">
      <use xlink:href="#DejaVuSans-6f"/>
      <use xlink:href="#DejaVuSans-62" x="61.181641"/>
      <use xlink:href="#DejaVuSans-65" x="124.658203"/>
      <use xlink:href="#DejaVuSans-73" x="186.181641"/>
      <use xlink:href="#DejaVuSans-65" x="238.28125"/>
      <use xlink:href="#DejaVuSans-b1" x="299.804688"/>
      <use xlink:href="#DejaVuSans-53" x="383.59375"/>
      <use xlink:href="#DejaVuSans-44" x="447.070312"/>
      <use xlink:href="#DejaVuSans-20" x="524.072266"/>
      <use xlink:href="#DejaVuSans-28" x="555.859375"/>
      <use xlink:href="#DejaVuSans-6e" x="594.873047"/>
      <use xlink:href="#DejaVuSans-3d" x="658.251953"/>
      <use xlink:href="#DejaVuSans-31" x="742.041016"/>
      <use xlink:href="#DejaVuSans-38" x="805.664062"/>
      <use xlink:href="#DejaVuSans-29" x="869.287109"/>
     </g>
    </g>
    <g id="line2d_27">
     <path d="M 301.016687 187.010938 
L 321.016687 187.010938 
" style="fill: none; stroke: #ff7f0e; stroke-width: 2; stroke-linecap: square"/>
    </g>
    <g id="line2d_28"/>
    <g id="text_19">
     <!-- morbidly-obese -->
     <g transform="translate(329.016687 190.510938) scale(0.1 -0.1)">
      <defs>
       <path id="DejaVuSans-6d" d="M 3328 2828 
Q 3544 3216 3844 3400 
Q 4144 3584 4550 3584 
Q 5097 3584 5394 3201 
Q 5691 2819 5691 2113 
L 5691 0 
L 5113 0 
L 5113 2094 
Q 5113 2597 4934 2840 
Q 4756 3084 4391 3084 
Q 3944 3084 3684 2787 
Q 3425 2491 3425 1978 
L 3425 0 
L 2847 0 
L 2847 2094 
Q 2847 2600 2669 2842 
Q 2491 3084 2119 3084 
Q 1678 3084 1418 2786 
Q 1159 2488 1159 1978 
L 1159 0 
L 581 0 
L 581 3500 
L 1159 3500 
L 1159 2956 
Q 1356 3278 1631 3431 
Q 1906 3584 2284 3584 
Q 2666 3584 2933 3390 
Q 3200 3197 3328 2828 
z
" transform="scale(0.015625)"/>
       <path id="DejaVuSans-72" d="M 2631 2963 
Q 2534 3019 2420 3045 
Q 2306 3072 2169 3072 
Q 1681 3072 1420 2755 
Q 1159 2438 1159 1844 
L 1159 0 
L 581 0 
L 581 3500 
L 1159 3500 
L 1159 2956 
Q 1341 3275 1631 3429 
Q 1922 3584 2338 3584 
Q 2397 3584 2469 3576 
Q 2541 3569 2628 3553 
L 2631 2963 
z
" transform="scale(0.015625)"/>
       <path id="DejaVuSans-69" d="M 603 3500 
L 1178 3500 
L 1178 0 
L 603 0 
L 603 3500 
z
M 603 4863 
L 1178 4863 
L 1178 4134 
L 603 4134 
L 603 4863 
z
" transform="scale(0.015625)"/>
       <path id="DejaVuSans-64" d="M 2906 2969 
L 2906 4863 
L 3481 4863 
L 3481 0 
L 2906 0 
L 2906 525 
Q 2725 213 2448 61 
Q 2172 -91 1784 -91 
Q 1150 -91 751 415 
Q 353 922 353 1747 
Q 353 2572 751 3078 
Q 1150 3584 1784 3584 
Q 2172 3584 2448 3432 
Q 2725 3281 2906 2969 
z
M 947 1747 
Q 947 1113 1208 752 
Q 1469 391 1925 391 
Q 2381 391 2643 752 
Q 2906 1113 2906 1747 
Q 2906 2381 2643 2742 
Q 2381 3103 1925 3103 
Q 1469 3103 1208 2742 
Q 947 2381 947 1747 
z
" transform="scale(0.015625)"/>
       <path id="DejaVuSans-6c" d="M 603 4863 
L 1178 4863 
L 1178 0 
L 603 0 
L 603 4863 
z
" transform="scale(0.015625)"/>
       <path id="DejaVuSans-79" d="M 2059 -325 
Q 1816 -950 1584 -1140 
Q 1353 -1331 966 -1331 
L 506 -1331 
L 506 -850 
L 844 -850 
Q 1081 -850 1212 -737 
Q 1344 -625 1503 -206 
L 1606 56 
L 191 3500 
L 800 3500 
L 1894 763 
L 2988 3500 
L 3597 3500 
L 2059 -325 
z
" transform="scale(0.015625)"/>
      </defs>
      <use xlink:href="#DejaVuSans-6d"/>
      <use xlink:href="#DejaVuSans-6f" x="97.412109"/>
      <use xlink:href="#DejaVuSans-72" x="158.59375"/>
      <use xlink:href="#DejaVuSans-62" x="199.707031"/>
      <use xlink:href="#DejaVuSans-69" x="263.183594"/>
      <use xlink:href="#DejaVuSans-64" x="290.966797"/>
      <use xlink:href="#DejaVuSans-6c" x="354.443359"/>
      <use xlink:href="#DejaVuSans-79" x="382.226562"/>
      <use xlink:href="#DejaVuSans-2d" x="439.65625"/>
      <use xlink:href="#DejaVuSans-6f" x="477.615234"/>
      <use xlink:href="#DejaVuSans-62" x="538.796875"/>
      <use xlink:href="#DejaVuSans-65" x="602.273438"/>
      <use xlink:href="#DejaVuSans-73" x="663.796875"/>
      <use xlink:href="#DejaVuSans-65" x="715.896484"/>
     </g>
    </g>
    <g id="LineCollection_6">
     <path d="M 311.016687 206.689063 
L 311.016687 196.689063 
" style="fill: none; stroke: #ff7f0e"/>
    </g>
    <g id="line2d_29">
     <path d="M 301.016687 201.689063 
L 321.016687 201.689063 
" style="fill: none; stroke-dasharray: 3.7,1.6; stroke-dashoffset: 0; stroke: #ff7f0e"/>
    </g>
    <g id="line2d_30">
     <g>
      <use xlink:href="#m50579b5764" x="311.016687" y="201.689063" style="fill: #ff7f0e; stroke: #000000; stroke-linejoin: miter"/>
     </g>
    </g>
    <g id="text_20">
     <!-- morbidly-obese±SD (n=6) -->
     <g transform="translate(329.016687 205.189063) scale(0.1 -0.1)">
      <use xlink:href="#DejaVuSans-6d"/>
      <use xlink:href="#DejaVuSans-6f" x="97.412109"/>
      <use xlink:href="#DejaVuSans-72" x="158.59375"/>
      <use xlink:href="#DejaVuSans-62" x="199.707031"/>
      <use xlink:href="#DejaVuSans-69" x="263.183594"/>
      <use xlink:href="#DejaVuSans-64" x="290.966797"/>
      <use xlink:href="#DejaVuSans-6c" x="354.443359"/>
      <use xlink:href="#DejaVuSans-79" x="382.226562"/>
      <use xlink:href="#DejaVuSans-2d" x="439.65625"/>
      <use xlink:href="#DejaVuSans-6f" x="477.615234"/>
      <use xlink:href="#DejaVuSans-62" x="538.796875"/>
      <use xlink:href="#DejaVuSans-65" x="602.273438"/>
      <use xlink:href="#DejaVuSans-73" x="663.796875"/>
      <use xlink:href="#DejaVuSans-65" x="715.896484"/>
      <use xlink:href="#DejaVuSans-b1" x="777.419922"/>
      <use xlink:href="#DejaVuSans-53" x="861.208984"/>
      <use xlink:href="#DejaVuSans-44" x="924.685547"/>
      <use xlink:href="#DejaVuSans-20" x="1001.6875"/>
      <use xlink:href="#DejaVuSans-28" x="1033.474609"/>
      <use xlink:href="#DejaVuSans-6e" x="1072.488281"/>
      <use xlink:href="#DejaVuSans-3d" x="1135.867188"/>
      <use xlink:href="#DejaVuSans-36" x="1219.65625"/>
      <use xlink:href="#DejaVuSans-29" x="1283.279297"/>
     </g>
    </g>
   </g>
  </g>
  <g id="axes_2">
   <g id="patch_8">
    <path d="M 79.651062 646.5 
L 470.251062 646.5 
L 470.251062 415.5 
L 79.651062 415.5 
z
" style="fill: #ffffff"/>
   </g>
   <g id="matplotlib.axis_3">
    <g id="xtick_7">
     <g id="line2d_31">
      <g>
       <use xlink:href="#mf91d74c93a" x="97.405608" y="646.5" style="stroke: #000000; stroke-width: 0.8"/>
      </g>
     </g>
     <g id="text_21">
      <!-- 0 -->
      <g transform="translate(92.633733 664.897656) scale(0.15 -0.15)">
       <use xlink:href="#DejaVuSans-30"/>
      </g>
     </g>
    </g>
    <g id="xtick_8">
     <g id="line2d_32">
      <g>
       <use xlink:href="#mf91d74c93a" x="168.42379" y="646.5" style="stroke: #000000; stroke-width: 0.8"/>
      </g>
     </g>
     <g id="text_22">
      <!-- 10 -->
      <g transform="translate(158.88004 664.897656) scale(0.15 -0.15)">
       <use xlink:href="#DejaVuSans-31"/>
       <use xlink:href="#DejaVuSans-30" x="63.623047"/>
      </g>
     </g>
    </g>
    <g id="xtick_9">
     <g id="line2d_33">
      <g>
       <use xlink:href="#mf91d74c93a" x="239.441972" y="646.5" style="stroke: #000000; stroke-width: 0.8"/>
      </g>
     </g>
     <g id="text_23">
      <!-- 20 -->
      <g transform="translate(229.898222 664.897656) scale(0.15 -0.15)">
       <use xlink:href="#DejaVuSans-32"/>
       <use xlink:href="#DejaVuSans-30" x="63.623047"/>
      </g>
     </g>
    </g>
    <g id="xtick_10">
     <g id="line2d_34">
      <g>
       <use xlink:href="#mf91d74c93a" x="310.460153" y="646.5" style="stroke: #000000; stroke-width: 0.8"/>
      </g>
     </g>
     <g id="text_24">
      <!-- 30 -->
      <g transform="translate(300.916403 664.897656) scale(0.15 -0.15)">
       <use xlink:href="#DejaVuSans-33"/>
       <use xlink:href="#DejaVuSans-30" x="63.623047"/>
      </g>
     </g>
    </g>
    <g id="xtick_11">
     <g id="line2d_35">
      <g>
       <use xlink:href="#mf91d74c93a" x="381.478335" y="646.5" style="stroke: #000000; stroke-width: 0.8"/>
      </g>
     </g>
     <g id="text_25">
      <!-- 40 -->
      <g transform="translate(371.934585 664.897656) scale(0.15 -0.15)">
       <use xlink:href="#DejaVuSans-34"/>
       <use xlink:href="#DejaVuSans-30" x="63.623047"/>
      </g>
     </g>
    </g>
    <g id="xtick_12">
     <g id="line2d_36">
      <g>
       <use xlink:href="#mf91d74c93a" x="452.496517" y="646.5" style="stroke: #000000; stroke-width: 0.8"/>
      </g>
     </g>
     <g id="text_26">
      <!-- 50 -->
      <g transform="translate(442.952767 664.897656) scale(0.15 -0.15)">
       <use xlink:href="#DejaVuSans-35"/>
       <use xlink:href="#DejaVuSans-30" x="63.623047"/>
      </g>
     </g>
    </g>
    <g id="text_27">
     <!-- time [hr] -->
     <g transform="translate(229.876531 685.694375) scale(0.18 -0.18)">
      <use xlink:href="#DejaVuSans-Bold-74"/>
      <use xlink:href="#DejaVuSans-Bold-69" x="47.802734"/>
      <use xlink:href="#DejaVuSans-Bold-6d" x="82.080078"/>
      <use xlink:href="#DejaVuSans-Bold-65" x="186.279297"/>
      <use xlink:href="#DejaVuSans-Bold-20" x="254.101562"/>
      <use xlink:href="#DejaVuSans-Bold-5b" x="288.916016"/>
      <use xlink:href="#DejaVuSans-Bold-68" x="334.619141"/>
      <use xlink:href="#DejaVuSans-Bold-72" x="405.810547"/>
      <use xlink:href="#DejaVuSans-Bold-5d" x="455.126953"/>
     </g>
    </g>
   </g>
   <g id="matplotlib.axis_4">
    <g id="ytick_7">
     <g id="line2d_37">
      <g>
       <use xlink:href="#me4a929fa69" x="79.651062" y="636" style="stroke: #000000; stroke-width: 0.8"/>
      </g>
     </g>
     <g id="text_28">
      <!-- 0 -->
      <g transform="translate(63.107312 641.698828) scale(0.15 -0.15)">
       <use xlink:href="#DejaVuSans-30"/>
      </g>
     </g>
    </g>
    <g id="ytick_8">
     <g id="line2d_38">
      <g>
       <use xlink:href="#me4a929fa69" x="79.651062" y="581.625501" style="stroke: #000000; stroke-width: 0.8"/>
      </g>
     </g>
     <g id="text_29">
      <!-- 5 -->
      <g transform="translate(63.107312 587.324329) scale(0.15 -0.15)">
       <use xlink:href="#DejaVuSans-35"/>
      </g>
     </g>
    </g>
    <g id="ytick_9">
     <g id="line2d_39">
      <g>
       <use xlink:href="#me4a929fa69" x="79.651062" y="527.251001" style="stroke: #000000; stroke-width: 0.8"/>
      </g>
     </g>
     <g id="text_30">
      <!-- 10 -->
      <g transform="translate(53.563562 532.94983) scale(0.15 -0.15)">
       <use xlink:href="#DejaVuSans-31"/>
       <use xlink:href="#DejaVuSans-30" x="63.623047"/>
      </g>
     </g>
    </g>
    <g id="ytick_10">
     <g id="line2d_40">
      <g>
       <use xlink:href="#me4a929fa69" x="79.651062" y="472.876502" style="stroke: #000000; stroke-width: 0.8"/>
      </g>
     </g>
     <g id="text_31">
      <!-- 15 -->
      <g transform="translate(53.563562 478.57533) scale(0.15 -0.15)">
       <use xlink:href="#DejaVuSans-31"/>
       <use xlink:href="#DejaVuSans-35" x="63.623047"/>
      </g>
     </g>
    </g>
    <g id="ytick_11">
     <g id="line2d_41">
      <g>
       <use xlink:href="#me4a929fa69" x="79.651062" y="418.502003" style="stroke: #000000; stroke-width: 0.8"/>
      </g>
     </g>
     <g id="text_32">
      <!-- 20 -->
      <g transform="translate(53.563562 424.200831) scale(0.15 -0.15)">
       <use xlink:href="#DejaVuSans-32"/>
       <use xlink:href="#DejaVuSans-30" x="63.623047"/>
      </g>
     </g>
    </g>
    <g id="text_33">
     <!-- rivaroxaban urine [µmole] -->
     <g transform="translate(45.800437 664.194375) rotate(-90) scale(0.18 -0.18)">
      <defs>
       <path id="DejaVuSans-Bold-75" d="M 500 1363 
L 500 3500 
L 1625 3500 
L 1625 3150 
Q 1625 2866 1622 2436 
Q 1619 2006 1619 1863 
Q 1619 1441 1641 1255 
Q 1663 1069 1716 984 
Q 1784 875 1895 815 
Q 2006 756 2150 756 
Q 2500 756 2700 1025 
Q 2900 1294 2900 1772 
L 2900 3500 
L 4019 3500 
L 4019 0 
L 2900 0 
L 2900 506 
Q 2647 200 2364 54 
Q 2081 -91 1741 -91 
Q 1134 -91 817 281 
Q 500 653 500 1363 
z
" transform="scale(0.015625)"/>
      </defs>
      <use xlink:href="#DejaVuSans-Bold-72"/>
      <use xlink:href="#DejaVuSans-Bold-69" x="49.316406"/>
      <use xlink:href="#DejaVuSans-Bold-76" x="83.59375"/>
      <use xlink:href="#DejaVuSans-Bold-61" x="148.779297"/>
      <use xlink:href="#DejaVuSans-Bold-72" x="216.259766"/>
      <use xlink:href="#DejaVuSans-Bold-6f" x="265.576172"/>
      <use xlink:href="#DejaVuSans-Bold-78" x="334.277344"/>
      <use xlink:href="#DejaVuSans-Bold-61" x="398.779297"/>
      <use xlink:href="#DejaVuSans-Bold-62" x="466.259766"/>
      <use xlink:href="#DejaVuSans-Bold-61" x="537.841797"/>
      <use xlink:href="#DejaVuSans-Bold-6e" x="605.322266"/>
      <use xlink:href="#DejaVuSans-Bold-20" x="676.513672"/>
      <use xlink:href="#DejaVuSans-Bold-75" x="711.328125"/>
      <use xlink:href="#DejaVuSans-Bold-72" x="782.519531"/>
      <use xlink:href="#DejaVuSans-Bold-69" x="831.835938"/>
      <use xlink:href="#DejaVuSans-Bold-6e" x="866.113281"/>
      <use xlink:href="#DejaVuSans-Bold-65" x="937.304688"/>
      <use xlink:href="#DejaVuSans-Bold-20" x="1005.126953"/>
      <use xlink:href="#DejaVuSans-Bold-5b" x="1039.941406"/>
      <use xlink:href="#DejaVuSans-Bold-b5" x="1085.644531"/>
      <use xlink:href="#DejaVuSans-Bold-6d" x="1159.228516"/>
      <use xlink:href="#DejaVuSans-Bold-6f" x="1263.427734"/>
      <use xlink:href="#DejaVuSans-Bold-6c" x="1332.128906"/>
      <use xlink:href="#DejaVuSans-Bold-65" x="1366.40625"/>
      <use xlink:href="#DejaVuSans-Bold-5d" x="1434.228516"/>
     </g>
    </g>
   </g>
   <g id="LineCollection_7">
    <path d="M 120.841608 622.527379 
L 120.841608 579.115601 
" clip-path="url(#p1f47087c88)" style="fill: none; stroke: #000000"/>
    <path d="M 140.726699 618.688645 
L 140.726699 531.558782 
" clip-path="url(#p1f47087c88)" style="fill: none; stroke: #000000"/>
    <path d="M 162.813353 598.709026 
L 162.813353 494.654003 
" clip-path="url(#p1f47087c88)" style="fill: none; stroke: #000000"/>
    <path d="M 184.260844 583.927933 
L 184.260844 474.007093 
" clip-path="url(#p1f47087c88)" style="fill: none; stroke: #000000"/>
    <path d="M 205.637317 575.675259 
L 205.637317 464.296273 
" clip-path="url(#p1f47087c88)" style="fill: none; stroke: #000000"/>
    <path d="M 226.729717 570.908502 
L 226.729717 459.083311 
" clip-path="url(#p1f47087c88)" style="fill: none; stroke: #000000"/>
   </g>
   <g id="LineCollection_8">
    <path d="M 120.983644 624.772816 
L 120.983644 581.361038 
" clip-path="url(#p1f47087c88)" style="fill: none; stroke: #1f77b4"/>
    <path d="M 140.797717 615.49415 
L 140.797717 515.791812 
" clip-path="url(#p1f47087c88)" style="fill: none; stroke: #1f77b4"/>
    <path d="M 162.884372 592.014961 
L 162.884372 471.408911 
" clip-path="url(#p1f47087c88)" style="fill: none; stroke: #1f77b4"/>
    <path d="M 184.118808 574.096612 
L 184.118808 445.915482 
" clip-path="url(#p1f47087c88)" style="fill: none; stroke: #1f77b4"/>
    <path d="M 205.637317 563.027001 
L 205.637317 432.534781 
" clip-path="url(#p1f47087c88)" style="fill: none; stroke: #1f77b4"/>
    <path d="M 227.226844 557.087133 
L 227.226844 426 
" clip-path="url(#p1f47087c88)" style="fill: none; stroke: #1f77b4"/>
   </g>
   <g id="line2d_42">
    <path d="M 97.405608 636 
L 98.825972 635.923047 
L 99.536153 635.749279 
L 100.246335 635.444948 
L 100.956517 634.999403 
L 102.376881 633.686471 
L 103.797244 631.862025 
L 105.217608 629.615546 
L 107.348153 625.660335 
L 110.188881 619.714417 
L 122.261972 593.521166 
L 125.812881 586.565155 
L 129.36379 580.078995 
L 132.914699 574.057376 
L 136.465608 568.480574 
L 140.016517 563.322706 
L 143.567426 558.555898 
L 147.118335 554.152358 
L 150.669244 550.085364 
L 154.220153 546.32969 
L 157.771062 542.861763 
L 161.321972 539.65967 
L 165.583062 536.13957 
L 169.844153 532.940881 
L 174.105244 530.034281 
L 178.366335 527.393109 
L 182.627426 524.993133 
L 187.598699 522.468736 
L 192.569972 520.211196 
L 197.541244 518.192304 
L 203.222699 516.144982 
L 208.904153 514.343078 
L 215.29579 512.572795 
L 221.687426 511.039391 
L 228.789244 509.575024 
L 236.601244 508.212464 
L 245.123426 506.974993 
L 254.35579 505.876582 
L 264.298335 504.9227 
L 275.661244 504.064108 
L 288.444517 503.327202 
L 303.358335 502.69664 
L 321.112881 502.175608 
L 343.128517 501.760903 
L 372.245972 501.449789 
L 414.146699 501.244386 
L 452.496517 501.16854 
L 452.496517 501.16854 
" clip-path="url(#p1f47087c88)" style="fill: none; stroke: #000000; stroke-width: 2; stroke-linecap: square"/>
   </g>
   <g id="line2d_43">
    <path d="M 120.841608 600.82149 
L 140.726699 575.123714 
L 162.813353 546.681514 
L 184.260844 528.967513 
L 205.637317 519.985766 
L 226.729717 514.995906 
" clip-path="url(#p1f47087c88)" style="fill: none; stroke-dasharray: 3.7,1.6; stroke-dashoffset: 0; stroke: #000000"/>
    <g clip-path="url(#p1f47087c88)">
     <use xlink:href="#mc446cee50a" x="120.841608" y="600.82149" style="stroke: #000000; stroke-linejoin: miter"/>
     <use xlink:href="#mc446cee50a" x="140.726699" y="575.123714" style="stroke: #000000; stroke-linejoin: miter"/>
     <use xlink:href="#mc446cee50a" x="162.813353" y="546.681514" style="stroke: #000000; stroke-linejoin: miter"/>
     <use xlink:href="#mc446cee50a" x="184.260844" y="528.967513" style="stroke: #000000; stroke-linejoin: miter"/>
     <use xlink:href="#mc446cee50a" x="205.637317" y="519.985766" style="stroke: #000000; stroke-linejoin: miter"/>
     <use xlink:href="#mc446cee50a" x="226.729717" y="514.995906" style="stroke: #000000; stroke-linejoin: miter"/>
    </g>
   </g>
   <g id="line2d_44">
    <path d="M 97.405608 636 
L 98.825972 635.923047 
L 99.536153 635.749279 
L 100.246335 635.444948 
L 100.956517 634.999403 
L 102.376881 633.686471 
L 103.797244 631.862025 
L 105.217608 629.615546 
L 107.348153 625.660335 
L 110.188881 619.714417 
L 122.261972 593.521166 
L 125.812881 586.565155 
L 129.36379 580.078995 
L 132.914699 574.057376 
L 136.465608 568.480574 
L 140.016517 563.322706 
L 143.567426 558.555898 
L 147.118335 554.152358 
L 150.669244 550.085364 
L 154.220153 546.32969 
L 157.771062 542.861763 
L 161.321972 539.65967 
L 165.583062 536.13957 
L 169.844153 532.940881 
L 174.105244 530.034281 
L 178.366335 527.393109 
L 182.627426 524.993133 
L 187.598699 522.468736 
L 192.569972 520.211196 
L 197.541244 518.192304 
L 203.222699 516.144982 
L 208.904153 514.343078 
L 215.29579 512.572795 
L 221.687426 511.039391 
L 228.789244 509.575024 
L 236.601244 508.212464 
L 245.123426 506.974993 
L 254.35579 505.876582 
L 264.298335 504.9227 
L 275.661244 504.064108 
L 288.444517 503.327202 
L 303.358335 502.69664 
L 321.112881 502.175608 
L 343.128517 501.760903 
L 372.245972 501.449789 
L 414.146699 501.244386 
L 452.496517 501.16854 
L 452.496517 501.16854 
" clip-path="url(#p1f47087c88)" style="fill: none; stroke: #1f77b4; stroke-width: 2; stroke-linecap: square"/>
   </g>
   <g id="line2d_45">
    <path d="M 120.983644 603.066927 
L 140.797717 565.642981 
L 162.884372 531.711936 
L 184.118808 510.006047 
L 205.637317 497.780891 
L 227.226844 491.543567 
" clip-path="url(#p1f47087c88)" style="fill: none; stroke-dasharray: 3.7,1.6; stroke-dashoffset: 0; stroke: #1f77b4"/>
    <g clip-path="url(#p1f47087c88)">
     <use xlink:href="#mdb1e82d7a9" x="120.983644" y="603.066927" style="fill: #1f77b4; stroke: #000000; stroke-linejoin: miter"/>
     <use xlink:href="#mdb1e82d7a9" x="140.797717" y="565.642981" style="fill: #1f77b4; stroke: #000000; stroke-linejoin: miter"/>
     <use xlink:href="#mdb1e82d7a9" x="162.884372" y="531.711936" style="fill: #1f77b4; stroke: #000000; stroke-linejoin: miter"/>
     <use xlink:href="#mdb1e82d7a9" x="184.118808" y="510.006047" style="fill: #1f77b4; stroke: #000000; stroke-linejoin: miter"/>
     <use xlink:href="#mdb1e82d7a9" x="205.637317" y="497.780891" style="fill: #1f77b4; stroke: #000000; stroke-linejoin: miter"/>
     <use xlink:href="#mdb1e82d7a9" x="227.226844" y="491.543567" style="fill: #1f77b4; stroke: #000000; stroke-linejoin: miter"/>
    </g>
   </g>
   <g id="patch_9">
    <path d="M 79.651062 646.5 
L 79.651062 415.5 
" style="fill: none; stroke: #000000; stroke-width: 0.8; stroke-linejoin: miter; stroke-linecap: square"/>
   </g>
   <g id="patch_10">
    <path d="M 470.251062 646.5 
L 470.251062 415.5 
" style="fill: none; stroke: #000000; stroke-width: 0.8; stroke-linejoin: miter; stroke-linecap: square"/>
   </g>
   <g id="patch_11">
    <path d="M 79.651062 646.5 
L 470.251062 646.5 
" style="fill: none; stroke: #000000; stroke-width: 0.8; stroke-linejoin: miter; stroke-linecap: square"/>
   </g>
   <g id="patch_12">
    <path d="M 79.651062 415.5 
L 470.251062 415.5 
" style="fill: none; stroke: #000000; stroke-width: 0.8; stroke-linejoin: miter; stroke-linecap: square"/>
   </g>
   <g id="legend_2">
    <g id="patch_13">
     <path d="M 317.827625 482.2125 
L 463.251062 482.2125 
Q 465.251062 482.2125 465.251062 480.2125 
L 465.251062 422.5 
Q 465.251062 420.5 463.251062 420.5 
L 317.827625 420.5 
Q 315.827625 420.5 315.827625 422.5 
L 315.827625 480.2125 
Q 315.827625 482.2125 317.827625 482.2125 
z
" style="fill: #ffffff; opacity: 0.8; stroke: #cccccc; stroke-linejoin: miter"/>
    </g>
    <g id="line2d_46">
     <path d="M 319.827625 428.598438 
L 339.827625 428.598438 
" style="fill: none; stroke: #000000; stroke-width: 2; stroke-linecap: square"/>
    </g>
    <g id="line2d_47"/>
    <g id="text_34">
     <!-- non-obese -->
     <g transform="translate(347.827625 432.098438) scale(0.1 -0.1)">
      <use xlink:href="#DejaVuSans-6e"/>
      <use xlink:href="#DejaVuSans-6f" x="63.378906"/>
      <use xlink:href="#DejaVuSans-6e" x="124.560547"/>
      <use xlink:href="#DejaVuSans-2d" x="187.939453"/>
      <use xlink:href="#DejaVuSans-6f" x="225.898438"/>
      <use xlink:href="#DejaVuSans-62" x="287.080078"/>
      <use xlink:href="#DejaVuSans-65" x="350.556641"/>
      <use xlink:href="#DejaVuSans-73" x="412.080078"/>
      <use xlink:href="#DejaVuSans-65" x="464.179688"/>
     </g>
    </g>
    <g id="LineCollection_9">
     <path d="M 329.827625 448.276563 
L 329.827625 438.276563 
" style="fill: none; stroke: #000000"/>
    </g>
    <g id="line2d_48">
     <path d="M 319.827625 443.276563 
L 339.827625 443.276563 
" style="fill: none; stroke-dasharray: 3.7,1.6; stroke-dashoffset: 0; stroke: #000000"/>
    </g>
    <g id="line2d_49">
     <g>
      <use xlink:href="#mc446cee50a" x="329.827625" y="443.276563" style="stroke: #000000; stroke-linejoin: miter"/>
     </g>
    </g>
    <g id="text_35">
     <!-- non-obese±SD (n=18) -->
     <g transform="translate(347.827625 446.776563) scale(0.1 -0.1)">
      <use xlink:href="#DejaVuSans-6e"/>
      <use xlink:href="#DejaVuSans-6f" x="63.378906"/>
      <use xlink:href="#DejaVuSans-6e" x="124.560547"/>
      <use xlink:href="#DejaVuSans-2d" x="187.939453"/>
      <use xlink:href="#DejaVuSans-6f" x="225.898438"/>
      <use xlink:href="#DejaVuSans-62" x="287.080078"/>
      <use xlink:href="#DejaVuSans-65" x="350.556641"/>
      <use xlink:href="#DejaVuSans-73" x="412.080078"/>
      <use xlink:href="#DejaVuSans-65" x="464.179688"/>
      <use xlink:href="#DejaVuSans-b1" x="525.703125"/>
      <use xlink:href="#DejaVuSans-53" x="609.492188"/>
      <use xlink:href="#DejaVuSans-44" x="672.96875"/>
      <use xlink:href="#DejaVuSans-20" x="749.970703"/>
      <use xlink:href="#DejaVuSans-28" x="781.757812"/>
      <use xlink:href="#DejaVuSans-6e" x="820.771484"/>
      <use xlink:href="#DejaVuSans-3d" x="884.150391"/>
      <use xlink:href="#DejaVuSans-31" x="967.939453"/>
      <use xlink:href="#DejaVuSans-38" x="1031.5625"/>
      <use xlink:href="#DejaVuSans-29" x="1095.185547"/>
     </g>
    </g>
    <g id="line2d_50">
     <path d="M 319.827625 457.954688 
L 339.827625 457.954688 
" style="fill: none; stroke: #1f77b4; stroke-width: 2; stroke-linecap: square"/>
    </g>
    <g id="line2d_51"/>
    <g id="text_36">
     <!-- obese -->
     <g transform="translate(347.827625 461.454688) scale(0.1 -0.1)">
      <use xlink:href="#DejaVuSans-6f"/>
      <use xlink:href="#DejaVuSans-62" x="61.181641"/>
      <use xlink:href="#DejaVuSans-65" x="124.658203"/>
      <use xlink:href="#DejaVuSans-73" x="186.181641"/>
      <use xlink:href="#DejaVuSans-65" x="238.28125"/>
     </g>
    </g>
    <g id="LineCollection_10">
     <path d="M 329.827625 477.632812 
L 329.827625 467.632812 
" style="fill: none; stroke: #1f77b4"/>
    </g>
    <g id="line2d_52">
     <path d="M 319.827625 472.632812 
L 339.827625 472.632812 
" style="fill: none; stroke-dasharray: 3.7,1.6; stroke-dashoffset: 0; stroke: #1f77b4"/>
    </g>
    <g id="line2d_53">
     <g>
      <use xlink:href="#mdb1e82d7a9" x="329.827625" y="472.632812" style="fill: #1f77b4; stroke: #000000; stroke-linejoin: miter"/>
     </g>
    </g>
    <g id="text_37">
     <!-- obese±SD (n=18) -->
     <g transform="translate(347.827625 476.132812) scale(0.1 -0.1)">
      <use xlink:href="#DejaVuSans-6f"/>
      <use xlink:href="#DejaVuSans-62" x="61.181641"/>
      <use xlink:href="#DejaVuSans-65" x="124.658203"/>
      <use xlink:href="#DejaVuSans-73" x="186.181641"/>
      <use xlink:href="#DejaVuSans-65" x="238.28125"/>
      <use xlink:href="#DejaVuSans-b1" x="299.804688"/>
      <use xlink:href="#DejaVuSans-53" x="383.59375"/>
      <use xlink:href="#DejaVuSans-44" x="447.070312"/>
      <use xlink:href="#DejaVuSans-20" x="524.072266"/>
      <use xlink:href="#DejaVuSans-28" x="555.859375"/>
      <use xlink:href="#DejaVuSans-6e" x="594.873047"/>
      <use xlink:href="#DejaVuSans-3d" x="658.251953"/>
      <use xlink:href="#DejaVuSans-31" x="742.041016"/>
      <use xlink:href="#DejaVuSans-38" x="805.664062"/>
      <use xlink:href="#DejaVuSans-29" x="869.287109"/>
     </g>
    </g>
   </g>
  </g>
  <g id="axes_3">
   <g id="patch_14">
    <path d="M 79.651062 946.8 
L 470.251062 946.8 
L 470.251062 715.8 
L 79.651062 715.8 
z
" style="fill: #ffffff"/>
   </g>
   <g id="matplotlib.axis_5">
    <g id="xtick_13">
     <g id="line2d_54">
      <g>
       <use xlink:href="#mf91d74c93a" x="97.405608" y="946.8" style="stroke: #000000; stroke-width: 0.8"/>
      </g>
     </g>
     <g id="text_38">
      <!-- 0 -->
      <g transform="translate(92.633733 965.197656) scale(0.15 -0.15)">
       <use xlink:href="#DejaVuSans-30"/>
      </g>
     </g>
    </g>
    <g id="xtick_14">
     <g id="line2d_55">
      <g>
       <use xlink:href="#mf91d74c93a" x="168.42379" y="946.8" style="stroke: #000000; stroke-width: 0.8"/>
      </g>
     </g>
     <g id="text_39">
      <!-- 10 -->
      <g transform="translate(158.88004 965.197656) scale(0.15 -0.15)">
       <use xlink:href="#DejaVuSans-31"/>
       <use xlink:href="#DejaVuSans-30" x="63.623047"/>
      </g>
     </g>
    </g>
    <g id="xtick_15">
     <g id="line2d_56">
      <g>
       <use xlink:href="#mf91d74c93a" x="239.441972" y="946.8" style="stroke: #000000; stroke-width: 0.8"/>
      </g>
     </g>
     <g id="text_40">
      <!-- 20 -->
      <g transform="translate(229.898222 965.197656) scale(0.15 -0.15)">
       <use xlink:href="#DejaVuSans-32"/>
       <use xlink:href="#DejaVuSans-30" x="63.623047"/>
      </g>
     </g>
    </g>
    <g id="xtick_16">
     <g id="line2d_57">
      <g>
       <use xlink:href="#mf91d74c93a" x="310.460153" y="946.8" style="stroke: #000000; stroke-width: 0.8"/>
      </g>
     </g>
     <g id="text_41">
      <!-- 30 -->
      <g transform="translate(300.916403 965.197656) scale(0.15 -0.15)">
       <use xlink:href="#DejaVuSans-33"/>
       <use xlink:href="#DejaVuSans-30" x="63.623047"/>
      </g>
     </g>
    </g>
    <g id="xtick_17">
     <g id="line2d_58">
      <g>
       <use xlink:href="#mf91d74c93a" x="381.478335" y="946.8" style="stroke: #000000; stroke-width: 0.8"/>
      </g>
     </g>
     <g id="text_42">
      <!-- 40 -->
      <g transform="translate(371.934585 965.197656) scale(0.15 -0.15)">
       <use xlink:href="#DejaVuSans-34"/>
       <use xlink:href="#DejaVuSans-30" x="63.623047"/>
      </g>
     </g>
    </g>
    <g id="xtick_18">
     <g id="line2d_59">
      <g>
       <use xlink:href="#mf91d74c93a" x="452.496517" y="946.8" style="stroke: #000000; stroke-width: 0.8"/>
      </g>
     </g>
     <g id="text_43">
      <!-- 50 -->
      <g transform="translate(442.952767 965.197656) scale(0.15 -0.15)">
       <use xlink:href="#DejaVuSans-35"/>
       <use xlink:href="#DejaVuSans-30" x="63.623047"/>
      </g>
     </g>
    </g>
    <g id="text_44">
     <!-- time [hr] -->
     <g transform="translate(229.876531 985.994375) scale(0.18 -0.18)">
      <use xlink:href="#DejaVuSans-Bold-74"/>
      <use xlink:href="#DejaVuSans-Bold-69" x="47.802734"/>
      <use xlink:href="#DejaVuSans-Bold-6d" x="82.080078"/>
      <use xlink:href="#DejaVuSans-Bold-65" x="186.279297"/>
      <use xlink:href="#DejaVuSans-Bold-20" x="254.101562"/>
      <use xlink:href="#DejaVuSans-Bold-5b" x="288.916016"/>
      <use xlink:href="#DejaVuSans-Bold-68" x="334.619141"/>
      <use xlink:href="#DejaVuSans-Bold-72" x="405.810547"/>
      <use xlink:href="#DejaVuSans-Bold-5d" x="455.126953"/>
     </g>
    </g>
   </g>
   <g id="matplotlib.axis_6">
    <g id="ytick_12">
     <g id="line2d_60">
      <g>
       <use xlink:href="#me4a929fa69" x="79.651062" y="936.3" style="stroke: #000000; stroke-width: 0.8"/>
      </g>
     </g>
     <g id="text_45">
      <!-- 0.0 -->
      <g transform="translate(48.796375 941.998828) scale(0.15 -0.15)">
       <use xlink:href="#DejaVuSans-30"/>
       <use xlink:href="#DejaVuSans-2e" x="63.623047"/>
       <use xlink:href="#DejaVuSans-30" x="95.410156"/>
      </g>
     </g>
    </g>
    <g id="ytick_13">
     <g id="line2d_61">
      <g>
       <use xlink:href="#me4a929fa69" x="79.651062" y="875.2768" style="stroke: #000000; stroke-width: 0.8"/>
      </g>
     </g>
     <g id="text_46">
      <!-- 0.5 -->
      <g transform="translate(48.796375 880.975628) scale(0.15 -0.15)">
       <use xlink:href="#DejaVuSans-30"/>
       <use xlink:href="#DejaVuSans-2e" x="63.623047"/>
       <use xlink:href="#DejaVuSans-35" x="95.410156"/>
      </g>
     </g>
    </g>
    <g id="ytick_14">
     <g id="line2d_62">
      <g>
       <use xlink:href="#me4a929fa69" x="79.651062" y="814.2536" style="stroke: #000000; stroke-width: 0.8"/>
      </g>
     </g>
     <g id="text_47">
      <!-- 1.0 -->
      <g transform="translate(48.796375 819.952428) scale(0.15 -0.15)">
       <use xlink:href="#DejaVuSans-31"/>
       <use xlink:href="#DejaVuSans-2e" x="63.623047"/>
       <use xlink:href="#DejaVuSans-30" x="95.410156"/>
      </g>
     </g>
    </g>
    <g id="ytick_15">
     <g id="line2d_63">
      <g>
       <use xlink:href="#me4a929fa69" x="79.651062" y="753.2304" style="stroke: #000000; stroke-width: 0.8"/>
      </g>
     </g>
     <g id="text_48">
      <!-- 1.5 -->
      <g transform="translate(48.796375 758.929228) scale(0.15 -0.15)">
       <use xlink:href="#DejaVuSans-31"/>
       <use xlink:href="#DejaVuSans-2e" x="63.623047"/>
       <use xlink:href="#DejaVuSans-35" x="95.410156"/>
      </g>
     </g>
    </g>
    <g id="text_49">
     <!-- rivaroxaban excretion -->
     <g transform="translate(20.877187 943.084219) rotate(-90) scale(0.18 -0.18)">
      <defs>
       <path id="DejaVuSans-Bold-63" d="M 3366 3391 
L 3366 2478 
Q 3138 2634 2908 2709 
Q 2678 2784 2431 2784 
Q 1963 2784 1702 2511 
Q 1441 2238 1441 1747 
Q 1441 1256 1702 982 
Q 1963 709 2431 709 
Q 2694 709 2930 787 
Q 3166 866 3366 1019 
L 3366 103 
Q 3103 6 2833 -42 
Q 2563 -91 2291 -91 
Q 1344 -91 809 395 
Q 275 881 275 1747 
Q 275 2613 809 3098 
Q 1344 3584 2291 3584 
Q 2566 3584 2833 3536 
Q 3100 3488 3366 3391 
z
" transform="scale(0.015625)"/>
      </defs>
      <use xlink:href="#DejaVuSans-Bold-72"/>
      <use xlink:href="#DejaVuSans-Bold-69" x="49.316406"/>
      <use xlink:href="#DejaVuSans-Bold-76" x="83.59375"/>
      <use xlink:href="#DejaVuSans-Bold-61" x="148.779297"/>
      <use xlink:href="#DejaVuSans-Bold-72" x="216.259766"/>
      <use xlink:href="#DejaVuSans-Bold-6f" x="265.576172"/>
      <use xlink:href="#DejaVuSans-Bold-78" x="334.277344"/>
      <use xlink:href="#DejaVuSans-Bold-61" x="398.779297"/>
      <use xlink:href="#DejaVuSans-Bold-62" x="466.259766"/>
      <use xlink:href="#DejaVuSans-Bold-61" x="537.841797"/>
      <use xlink:href="#DejaVuSans-Bold-6e" x="605.322266"/>
      <use xlink:href="#DejaVuSans-Bold-20" x="676.513672"/>
      <use xlink:href="#DejaVuSans-Bold-65" x="711.328125"/>
      <use xlink:href="#DejaVuSans-Bold-78" x="779.150391"/>
      <use xlink:href="#DejaVuSans-Bold-63" x="843.652344"/>
      <use xlink:href="#DejaVuSans-Bold-72" x="902.929688"/>
      <use xlink:href="#DejaVuSans-Bold-65" x="952.246094"/>
      <use xlink:href="#DejaVuSans-Bold-74" x="1020.068359"/>
      <use xlink:href="#DejaVuSans-Bold-69" x="1067.871094"/>
      <use xlink:href="#DejaVuSans-Bold-6f" x="1102.148438"/>
      <use xlink:href="#DejaVuSans-Bold-6e" x="1170.849609"/>
     </g>
     <!-- urine [µmole/hr] -->
     <g transform="translate(41.03325 914.607656) rotate(-90) scale(0.18 -0.18)">
      <defs>
       <path id="DejaVuSans-Bold-2f" d="M 1644 4666 
L 2338 4666 
L 691 -594 
L 0 -594 
L 1644 4666 
z
" transform="scale(0.015625)"/>
      </defs>
      <use xlink:href="#DejaVuSans-Bold-75"/>
      <use xlink:href="#DejaVuSans-Bold-72" x="71.191406"/>
      <use xlink:href="#DejaVuSans-Bold-69" x="120.507812"/>
      <use xlink:href="#DejaVuSans-Bold-6e" x="154.785156"/>
      <use xlink:href="#DejaVuSans-Bold-65" x="225.976562"/>
      <use xlink:href="#DejaVuSans-Bold-20" x="293.798828"/>
      <use xlink:href="#DejaVuSans-Bold-5b" x="328.613281"/>
      <use xlink:href="#DejaVuSans-Bold-b5" x="374.316406"/>
      <use xlink:href="#DejaVuSans-Bold-6d" x="447.900391"/>
      <use xlink:href="#DejaVuSans-Bold-6f" x="552.099609"/>
      <use xlink:href="#DejaVuSans-Bold-6c" x="620.800781"/>
      <use xlink:href="#DejaVuSans-Bold-65" x="655.078125"/>
      <use xlink:href="#DejaVuSans-Bold-2f" x="722.900391"/>
      <use xlink:href="#DejaVuSans-Bold-68" x="759.423828"/>
      <use xlink:href="#DejaVuSans-Bold-72" x="830.615234"/>
      <use xlink:href="#DejaVuSans-Bold-5d" x="879.931641"/>
     </g>
    </g>
   </g>
   <g id="LineCollection_11">
    <path d="M 109.421884 880.3 
L 109.421884 757.1 
" clip-path="url(#p7ea645a183)" style="fill: none; stroke: #000000"/>
    <path d="M 131.068226 877.5 
L 131.068226 782.3 
" clip-path="url(#p7ea645a183)" style="fill: none; stroke: #000000"/>
    <path d="M 151.734517 899.9 
L 151.734517 765.5 
" clip-path="url(#p7ea645a183)" style="fill: none; stroke: #000000"/>
    <path d="M 173.608117 911.1 
L 173.608117 827.1 
" clip-path="url(#p7ea645a183)" style="fill: none; stroke: #000000"/>
    <path d="M 194.771535 919.5 
L 194.771535 885.9 
" clip-path="url(#p7ea645a183)" style="fill: none; stroke: #000000"/>
    <path d="M 210.182481 927.62 
L 210.182481 905.78 
" clip-path="url(#p7ea645a183)" style="fill: none; stroke: #000000"/>
   </g>
   <g id="LineCollection_12">
    <path d="M 109.194626 897.1 
L 109.194626 751.5 
" clip-path="url(#p7ea645a183)" style="fill: none; stroke: #1f77b4"/>
    <path d="M 130.92619 843.9 
L 130.92619 726.3 
" clip-path="url(#p7ea645a183)" style="fill: none; stroke: #1f77b4"/>
    <path d="M 151.876553 871.9 
L 151.876553 754.3 
" clip-path="url(#p7ea645a183)" style="fill: none; stroke: #1f77b4"/>
    <path d="M 173.537099 883.1 
L 173.537099 827.1 
" clip-path="url(#p7ea645a183)" style="fill: none; stroke: #1f77b4"/>
    <path d="M 194.913572 913.62 
L 194.913572 869.38 
" clip-path="url(#p7ea645a183)" style="fill: none; stroke: #1f77b4"/>
    <path d="M 216.432081 927.9 
L 216.432081 905.5 
" clip-path="url(#p7ea645a183)" style="fill: none; stroke: #1f77b4"/>
   </g>
   <g id="line2d_64">
    <path d="M 97.405608 936.3 
L 98.11579 933.079285 
L 98.825972 923.356371 
L 100.246335 894.316363 
L 102.376881 847.53037 
L 103.797244 821.181243 
L 105.217608 800.202659 
L 106.637972 784.399247 
L 107.348153 778.239231 
L 108.058335 773.111471 
L 108.768517 768.917177 
L 109.478699 765.560461 
L 110.188881 762.950497 
L 110.899062 761.002736 
L 111.609244 759.639485 
L 112.319426 758.790039 
L 113.029608 758.390549 
L 113.73979 758.383693 
L 114.449972 758.718264 
L 115.160153 759.348694 
L 115.870335 760.234561 
L 117.290699 762.633776 
L 118.711062 765.677617 
L 120.841608 771.060635 
L 123.682335 779.104934 
L 134.335062 810.176465 
L 137.885972 819.64274 
L 141.436881 828.483237 
L 144.98779 836.697538 
L 148.538699 844.308625 
L 152.089608 851.349806 
L 155.640517 857.85809 
L 159.191426 863.870883 
L 162.742335 869.424397 
L 166.293244 874.552932 
L 169.844153 879.288604 
L 173.395062 883.661299 
L 176.945972 887.69873 
L 180.496881 891.426548 
L 184.04779 894.868465 
L 187.598699 898.046393 
L 191.85979 901.53983 
L 196.120881 904.71424 
L 200.381972 907.598756 
L 204.643062 910.219849 
L 208.904153 912.601576 
L 213.875426 915.106775 
L 218.846699 917.347145 
L 223.817972 919.350682 
L 229.499426 921.382432 
L 235.180881 923.170632 
L 241.572517 924.92745 
L 247.964153 926.449191 
L 255.065972 927.90242 
L 262.877972 929.254616 
L 271.400153 930.482675 
L 280.632517 931.572731 
L 290.575062 932.519359 
L 301.937972 933.37142 
L 314.721244 934.102721 
L 329.635063 934.728487 
L 347.389608 935.245556 
L 369.405244 935.657107 
L 398.522699 935.965854 
L 440.423426 936.169695 
L 452.496517 936.200661 
L 452.496517 936.200661 
" clip-path="url(#p7ea645a183)" style="fill: none; stroke: #000000; stroke-width: 2; stroke-linecap: square"/>
   </g>
   <g id="line2d_65">
    <path d="M 109.421884 818.7 
L 131.068226 829.9 
L 151.734517 832.7 
L 173.608117 869.1 
L 194.771535 902.7 
L 210.182481 916.7 
" clip-path="url(#p7ea645a183)" style="fill: none; stroke-dasharray: 3.7,1.6; stroke-dashoffset: 0; stroke: #000000"/>
    <g clip-path="url(#p7ea645a183)">
     <use xlink:href="#mc446cee50a" x="109.421884" y="818.7" style="stroke: #000000; stroke-linejoin: miter"/>
     <use xlink:href="#mc446cee50a" x="131.068226" y="829.9" style="stroke: #000000; stroke-linejoin: miter"/>
     <use xlink:href="#mc446cee50a" x="151.734517" y="832.7" style="stroke: #000000; stroke-linejoin: miter"/>
     <use xlink:href="#mc446cee50a" x="173.608117" y="869.1" style="stroke: #000000; stroke-linejoin: miter"/>
     <use xlink:href="#mc446cee50a" x="194.771535" y="902.7" style="stroke: #000000; stroke-linejoin: miter"/>
     <use xlink:href="#mc446cee50a" x="210.182481" y="916.7" style="stroke: #000000; stroke-linejoin: miter"/>
    </g>
   </g>
   <g id="line2d_66">
    <path d="M 97.405608 936.3 
L 98.11579 933.079285 
L 98.825972 923.356371 
L 100.246335 894.316363 
L 102.376881 847.530369 
L 103.797244 821.181243 
L 105.217608 800.202659 
L 106.637972 784.399247 
L 107.348153 778.239231 
L 108.058335 773.111471 
L 108.768517 768.917177 
L 109.478699 765.560461 
L 110.188881 762.950497 
L 110.899062 761.002736 
L 111.609244 759.639485 
L 112.319426 758.790039 
L 113.029608 758.390549 
L 113.73979 758.383693 
L 114.449972 758.718264 
L 115.160153 759.348694 
L 115.870335 760.234561 
L 117.290699 762.633776 
L 118.711062 765.677617 
L 120.841608 771.060635 
L 123.682335 779.104935 
L 134.335062 810.176465 
L 137.885972 819.64274 
L 141.436881 828.483237 
L 144.98779 836.697538 
L 148.538699 844.308625 
L 152.089608 851.349806 
L 155.640517 857.85809 
L 159.191426 863.870883 
L 162.742335 869.424397 
L 166.293244 874.552932 
L 169.844153 879.288604 
L 173.395062 883.661299 
L 176.945972 887.69873 
L 180.496881 891.426548 
L 184.04779 894.868465 
L 187.598699 898.046393 
L 191.85979 901.53983 
L 196.120881 904.71424 
L 200.381972 907.598756 
L 204.643062 910.219849 
L 208.904153 912.601576 
L 213.875426 915.106775 
L 218.846699 917.347145 
L 223.817972 919.350682 
L 229.499426 921.382432 
L 235.180881 923.170632 
L 241.572517 924.92745 
L 247.964153 926.449191 
L 255.065972 927.90242 
L 262.877972 929.254616 
L 271.400153 930.482674 
L 280.632517 931.572731 
L 290.575062 932.519359 
L 301.937972 933.37142 
L 314.721244 934.102721 
L 329.635063 934.728487 
L 347.389608 935.245556 
L 369.405244 935.657107 
L 398.522699 935.965854 
L 440.423426 936.169695 
L 452.496517 936.200661 
L 452.496517 936.200661 
" clip-path="url(#p7ea645a183)" style="fill: none; stroke: #1f77b4; stroke-width: 2; stroke-linecap: square"/>
   </g>
   <g id="line2d_67">
    <path d="M 109.194626 824.3 
L 130.92619 785.1 
L 151.876553 813.1 
L 173.537099 855.1 
L 194.913572 891.5 
L 216.432081 916.7 
" clip-path="url(#p7ea645a183)" style="fill: none; stroke-dasharray: 3.7,1.6; stroke-dashoffset: 0; stroke: #1f77b4"/>
    <g clip-path="url(#p7ea645a183)">
     <use xlink:href="#mdb1e82d7a9" x="109.194626" y="824.3" style="fill: #1f77b4; stroke: #000000; stroke-linejoin: miter"/>
     <use xlink:href="#mdb1e82d7a9" x="130.92619" y="785.1" style="fill: #1f77b4; stroke: #000000; stroke-linejoin: miter"/>
     <use xlink:href="#mdb1e82d7a9" x="151.876553" y="813.1" style="fill: #1f77b4; stroke: #000000; stroke-linejoin: miter"/>
     <use xlink:href="#mdb1e82d7a9" x="173.537099" y="855.1" style="fill: #1f77b4; stroke: #000000; stroke-linejoin: miter"/>
     <use xlink:href="#mdb1e82d7a9" x="194.913572" y="891.5" style="fill: #1f77b4; stroke: #000000; stroke-linejoin: miter"/>
     <use xlink:href="#mdb1e82d7a9" x="216.432081" y="916.7" style="fill: #1f77b4; stroke: #000000; stroke-linejoin: miter"/>
    </g>
   </g>
   <g id="patch_15">
    <path d="M 79.651062 946.8 
L 79.651062 715.8 
" style="fill: none; stroke: #000000; stroke-width: 0.8; stroke-linejoin: miter; stroke-linecap: square"/>
   </g>
   <g id="patch_16">
    <path d="M 470.251062 946.8 
L 470.251062 715.8 
" style="fill: none; stroke: #000000; stroke-width: 0.8; stroke-linejoin: miter; stroke-linecap: square"/>
   </g>
   <g id="patch_17">
    <path d="M 79.651062 946.8 
L 470.251062 946.8 
" style="fill: none; stroke: #000000; stroke-width: 0.8; stroke-linejoin: miter; stroke-linecap: square"/>
   </g>
   <g id="patch_18">
    <path d="M 79.651062 715.8 
L 470.251062 715.8 
" style="fill: none; stroke: #000000; stroke-width: 0.8; stroke-linejoin: miter; stroke-linecap: square"/>
   </g>
   <g id="legend_3">
    <g id="patch_19">
     <path d="M 317.827625 782.5125 
L 463.251062 782.5125 
Q 465.251062 782.5125 465.251062 780.5125 
L 465.251062 722.8 
Q 465.251062 720.8 463.251062 720.8 
L 317.827625 720.8 
Q 315.827625 720.8 315.827625 722.8 
L 315.827625 780.5125 
Q 315.827625 782.5125 317.827625 782.5125 
z
" style="fill: #ffffff; opacity: 0.8; stroke: #cccccc; stroke-linejoin: miter"/>
    </g>
    <g id="line2d_68">
     <path d="M 319.827625 728.898438 
L 339.827625 728.898438 
" style="fill: none; stroke: #000000; stroke-width: 2; stroke-linecap: square"/>
    </g>
    <g id="line2d_69"/>
    <g id="text_50">
     <!-- non-obese -->
     <g transform="translate(347.827625 732.398438) scale(0.1 -0.1)">
      <use xlink:href="#DejaVuSans-6e"/>
      <use xlink:href="#DejaVuSans-6f" x="63.378906"/>
      <use xlink:href="#DejaVuSans-6e" x="124.560547"/>
      <use xlink:href="#DejaVuSans-2d" x="187.939453"/>
      <use xlink:href="#DejaVuSans-6f" x="225.898438"/>
      <use xlink:href="#DejaVuSans-62" x="287.080078"/>
      <use xlink:href="#DejaVuSans-65" x="350.556641"/>
      <use xlink:href="#DejaVuSans-73" x="412.080078"/>
      <use xlink:href="#DejaVuSans-65" x="464.179688"/>
     </g>
    </g>
    <g id="LineCollection_13">
     <path d="M 329.827625 748.576563 
L 329.827625 738.576563 
" style="fill: none; stroke: #000000"/>
    </g>
    <g id="line2d_70">
     <path d="M 319.827625 743.576563 
L 339.827625 743.576563 
" style="fill: none; stroke-dasharray: 3.7,1.6; stroke-dashoffset: 0; stroke: #000000"/>
    </g>
    <g id="line2d_71">
     <g>
      <use xlink:href="#mc446cee50a" x="329.827625" y="743.576563" style="stroke: #000000; stroke-linejoin: miter"/>
     </g>
    </g>
    <g id="text_51">
     <!-- non-obese±SD (n=18) -->
     <g transform="translate(347.827625 747.076563) scale(0.1 -0.1)">
      <use xlink:href="#DejaVuSans-6e"/>
      <use xlink:href="#DejaVuSans-6f" x="63.378906"/>
      <use xlink:href="#DejaVuSans-6e" x="124.560547"/>
      <use xlink:href="#DejaVuSans-2d" x="187.939453"/>
      <use xlink:href="#DejaVuSans-6f" x="225.898438"/>
      <use xlink:href="#DejaVuSans-62" x="287.080078"/>
      <use xlink:href="#DejaVuSans-65" x="350.556641"/>
      <use xlink:href="#DejaVuSans-73" x="412.080078"/>
      <use xlink:href="#DejaVuSans-65" x="464.179688"/>
      <use xlink:href="#DejaVuSans-b1" x="525.703125"/>
      <use xlink:href="#DejaVuSans-53" x="609.492188"/>
      <use xlink:href="#DejaVuSans-44" x="672.96875"/>
      <use xlink:href="#DejaVuSans-20" x="749.970703"/>
      <use xlink:href="#DejaVuSans-28" x="781.757812"/>
      <use xlink:href="#DejaVuSans-6e" x="820.771484"/>
      <use xlink:href="#DejaVuSans-3d" x="884.150391"/>
      <use xlink:href="#DejaVuSans-31" x="967.939453"/>
      <use xlink:href="#DejaVuSans-38" x="1031.5625"/>
      <use xlink:href="#DejaVuSans-29" x="1095.185547"/>
     </g>
    </g>
    <g id="line2d_72">
     <path d="M 319.827625 758.254688 
L 339.827625 758.254688 
" style="fill: none; stroke: #1f77b4; stroke-width: 2; stroke-linecap: square"/>
    </g>
    <g id="line2d_73"/>
    <g id="text_52">
     <!-- obese -->
     <g transform="translate(347.827625 761.754688) scale(0.1 -0.1)">
      <use xlink:href="#DejaVuSans-6f"/>
      <use xlink:href="#DejaVuSans-62" x="61.181641"/>
      <use xlink:href="#DejaVuSans-65" x="124.658203"/>
      <use xlink:href="#DejaVuSans-73" x="186.181641"/>
      <use xlink:href="#DejaVuSans-65" x="238.28125"/>
     </g>
    </g>
    <g id="LineCollection_14">
     <path d="M 329.827625 777.932812 
L 329.827625 767.932812 
" style="fill: none; stroke: #1f77b4"/>
    </g>
    <g id="line2d_74">
     <path d="M 319.827625 772.932812 
L 339.827625 772.932812 
" style="fill: none; stroke-dasharray: 3.7,1.6; stroke-dashoffset: 0; stroke: #1f77b4"/>
    </g>
    <g id="line2d_75">
     <g>
      <use xlink:href="#mdb1e82d7a9" x="329.827625" y="772.932812" style="fill: #1f77b4; stroke: #000000; stroke-linejoin: miter"/>
     </g>
    </g>
    <g id="text_53">
     <!-- obese±SD (n=18) -->
     <g transform="translate(347.827625 776.432812) scale(0.1 -0.1)">
      <use xlink:href="#DejaVuSans-6f"/>
      <use xlink:href="#DejaVuSans-62" x="61.181641"/>
      <use xlink:href="#DejaVuSans-65" x="124.658203"/>
      <use xlink:href="#DejaVuSans-73" x="186.181641"/>
      <use xlink:href="#DejaVuSans-65" x="238.28125"/>
      <use xlink:href="#DejaVuSans-b1" x="299.804688"/>
      <use xlink:href="#DejaVuSans-53" x="383.59375"/>
      <use xlink:href="#DejaVuSans-44" x="447.070312"/>
      <use xlink:href="#DejaVuSans-20" x="524.072266"/>
      <use xlink:href="#DejaVuSans-28" x="555.859375"/>
      <use xlink:href="#DejaVuSans-6e" x="594.873047"/>
      <use xlink:href="#DejaVuSans-3d" x="658.251953"/>
      <use xlink:href="#DejaVuSans-31" x="742.041016"/>
      <use xlink:href="#DejaVuSans-38" x="805.664062"/>
      <use xlink:href="#DejaVuSans-29" x="869.287109"/>
     </g>
    </g>
   </g>
  </g>
  <g id="text_54">
   <!-- Alalawneh2024 -->
   <g transform="translate(160.922547 26.196094) scale(0.25 -0.25)">
    <defs>
     <path id="DejaVuSans-Bold-41" d="M 3419 850 
L 1538 850 
L 1241 0 
L 31 0 
L 1759 4666 
L 3194 4666 
L 4922 0 
L 3713 0 
L 3419 850 
z
M 1838 1716 
L 3116 1716 
L 2478 3572 
L 1838 1716 
z
" transform="scale(0.015625)"/>
     <path id="DejaVuSans-Bold-77" d="M 225 3500 
L 1313 3500 
L 1900 1088 
L 2491 3500 
L 3425 3500 
L 4013 1113 
L 4603 3500 
L 5691 3500 
L 4769 0 
L 3547 0 
L 2956 2406 
L 2369 0 
L 1147 0 
L 225 3500 
z
" transform="scale(0.015625)"/>
     <path id="DejaVuSans-Bold-32" d="M 1844 884 
L 3897 884 
L 3897 0 
L 506 0 
L 506 884 
L 2209 2388 
Q 2438 2594 2547 2791 
Q 2656 2988 2656 3200 
Q 2656 3528 2436 3728 
Q 2216 3928 1850 3928 
Q 1569 3928 1234 3808 
Q 900 3688 519 3450 
L 519 4475 
Q 925 4609 1322 4679 
Q 1719 4750 2100 4750 
Q 2938 4750 3402 4381 
Q 3866 4013 3866 3353 
Q 3866 2972 3669 2642 
Q 3472 2313 2841 1759 
L 1844 884 
z
" transform="scale(0.015625)"/>
     <path id="DejaVuSans-Bold-30" d="M 2944 2338 
Q 2944 3213 2780 3570 
Q 2616 3928 2228 3928 
Q 1841 3928 1675 3570 
Q 1509 3213 1509 2338 
Q 1509 1453 1675 1090 
Q 1841 728 2228 728 
Q 2613 728 2778 1090 
Q 2944 1453 2944 2338 
z
M 4147 2328 
Q 4147 1169 3647 539 
Q 3147 -91 2228 -91 
Q 1306 -91 806 539 
Q 306 1169 306 2328 
Q 306 3491 806 4120 
Q 1306 4750 2228 4750 
Q 3147 4750 3647 4120 
Q 4147 3491 4147 2328 
z
" transform="scale(0.015625)"/>
     <path id="DejaVuSans-Bold-34" d="M 2356 3675 
L 1038 1722 
L 2356 1722 
L 2356 3675 
z
M 2156 4666 
L 3494 4666 
L 3494 1722 
L 4159 1722 
L 4159 850 
L 3494 850 
L 3494 0 
L 2356 0 
L 2356 850 
L 288 850 
L 288 1881 
L 2156 4666 
z
" transform="scale(0.015625)"/>
    </defs>
    <use xlink:href="#DejaVuSans-Bold-41"/>
    <use xlink:href="#DejaVuSans-Bold-6c" x="77.392578"/>
    <use xlink:href="#DejaVuSans-Bold-61" x="111.669922"/>
    <use xlink:href="#DejaVuSans-Bold-6c" x="179.150391"/>
    <use xlink:href="#DejaVuSans-Bold-61" x="213.427734"/>
    <use xlink:href="#DejaVuSans-Bold-77" x="280.908203"/>
    <use xlink:href="#DejaVuSans-Bold-6e" x="373.291016"/>
    <use xlink:href="#DejaVuSans-Bold-65" x="444.482422"/>
    <use xlink:href="#DejaVuSans-Bold-68" x="512.304688"/>
    <use xlink:href="#DejaVuSans-Bold-32" x="583.496094"/>
    <use xlink:href="#DejaVuSans-Bold-30" x="653.076172"/>
    <use xlink:href="#DejaVuSans-Bold-32" x="722.65625"/>
    <use xlink:href="#DejaVuSans-Bold-34" x="792.236328"/>
   </g>
  </g>
 </g>
 <defs>
  <clipPath id="p897c98410a">
   <rect x="79.651062" y="115.2" width="390.6" height="231"/>
  </clipPath>
  <clipPath id="p1f47087c88">
   <rect x="79.651062" y="415.5" width="390.6" height="231"/>
  </clipPath>
  <clipPath id="p7ea645a183">
   <rect x="79.651062" y="715.8" width="390.6" height="231"/>
  </clipPath>
 </defs>
</svg>
