<?xml version="1.0" encoding="utf-8" standalone="no"?>
<!DOCTYPE svg PUBLIC "-//W3C//DTD SVG 1.1//EN"
  "http://www.w3.org/Graphics/SVG/1.1/DTD/svg11.dtd">
<svg xmlns:xlink="http://www.w3.org/1999/xlink" width="876.52625pt" height="370.537812pt" viewBox="0 0 876.52625 370.537812" xmlns="http://www.w3.org/2000/svg" version="1.1">
 <metadata>
  <rdf:RDF xmlns:dc="http://purl.org/dc/elements/1.1/" xmlns:cc="http://creativecommons.org/ns#" xmlns:rdf="http://www.w3.org/1999/02/22-rdf-syntax-ns#">
   <cc:Work>
    <dc:type rdf:resource="http://purl.org/dc/dcmitype/StillImage"/>
    <dc:date>2026-01-05T10:59:12.492272</dc:date>
    <dc:format>image/svg+xml</dc:format>
    <dc:creator>
     <cc:Agent>
      <dc:title>Matplotlib v3.10.8, https://matplotlib.org/</dc:title>
     </cc:Agent>
    </dc:creator>
   </cc:Work>
  </rdf:RDF>
 </metadata>
 <defs>
  <style type="text/css">*{stroke-linejoin: round; stroke-linecap: butt}</style>
 </defs>
 <g id="figure_1">
  <g id="patch_1">
   <path d="M 0 370.537812 
L 876.52625 370.537812 
L 876.52625 0 
L 0 0 
z
" style="fill: #ffffff"/>
  </g>
  <g id="axes_1">
   <g id="patch_2">
    <path d="M 88.12625 320.4 
L 427.778424 320.4 
L 427.778424 43.2 
L 88.12625 43.2 
z
" style="fill: #ffffff"/>
   </g>
   <g id="matplotlib.axis_1">
    <g id="xtick_1">
     <g id="line2d_1">
      <defs>
       <path id="me63a5387bf" d="M 0 0 
L 0 3.5 
" style="stroke: #000000; stroke-width: 0.8"/>
      </defs>
      <g>
       <use xlink:href="#me63a5387bf" x="103.564985" y="320.4" style="stroke: #000000; stroke-width: 0.8"/>
      </g>
     </g>
     <g id="text_1">
      <!-- 0 -->
      <g transform="translate(98.79311 338.797656) scale(0.15 -0.15)">
       <defs>
        <path id="DejaVuSans-30" d="M 2034 4250 
Q 1547 4250 1301 3770 
Q 1056 3291 1056 2328 
Q 1056 1369 1301 889 
Q 1547 409 2034 409 
Q 2525 409 2770 889 
Q 3016 1369 3016 2328 
Q 3016 3291 2770 3770 
Q 2525 4250 2034 4250 
z
M 2034 4750 
Q 2819 4750 3233 4129 
Q 3647 3509 3647 2328 
Q 3647 1150 3233 529 
Q 2819 -91 2034 -91 
Q 1250 -91 836 529 
Q 422 1150 422 2328 
Q 422 3509 836 4129 
Q 1250 4750 2034 4750 
z
" transform="scale(0.015625)"/>
       </defs>
       <use xlink:href="#DejaVuSans-30"/>
      </g>
     </g>
    </g>
    <g id="xtick_2">
     <g id="line2d_2">
      <g>
       <use xlink:href="#me63a5387bf" x="155.027436" y="320.4" style="stroke: #000000; stroke-width: 0.8"/>
      </g>
     </g>
     <g id="text_2">
      <!-- 5 -->
      <g transform="translate(150.255561 338.797656) scale(0.15 -0.15)">
       <defs>
        <path id="DejaVuSans-35" d="M 691 4666 
L 3169 4666 
L 3169 4134 
L 1269 4134 
L 1269 2991 
Q 1406 3038 1543 3061 
Q 1681 3084 1819 3084 
Q 2600 3084 3056 2656 
Q 3513 2228 3513 1497 
Q 3513 744 3044 326 
Q 2575 -91 1722 -91 
Q 1428 -91 1123 -41 
Q 819 9 494 109 
L 494 744 
Q 775 591 1075 516 
Q 1375 441 1709 441 
Q 2250 441 2565 725 
Q 2881 1009 2881 1497 
Q 2881 1984 2565 2268 
Q 2250 2553 1709 2553 
Q 1456 2553 1204 2497 
Q 953 2441 691 2322 
L 691 4666 
z
" transform="scale(0.015625)"/>
       </defs>
       <use xlink:href="#DejaVuSans-35"/>
      </g>
     </g>
    </g>
    <g id="xtick_3">
     <g id="line2d_3">
      <g>
       <use xlink:href="#me63a5387bf" x="206.489886" y="320.4" style="stroke: #000000; stroke-width: 0.8"/>
      </g>
     </g>
     <g id="text_3">
      <!-- 10 -->
      <g transform="translate(196.946136 338.797656) scale(0.15 -0.15)">
       <defs>
        <path id="DejaVuSans-31" d="M 794 531 
L 1825 531 
L 1825 4091 
L 703 3866 
L 703 4441 
L 1819 4666 
L 2450 4666 
L 2450 531 
L 3481 531 
L 3481 0 
L 794 0 
L 794 531 
z
" transform="scale(0.015625)"/>
       </defs>
       <use xlink:href="#DejaVuSans-31"/>
       <use xlink:href="#DejaVuSans-30" transform="translate(63.623047 0)"/>
      </g>
     </g>
    </g>
    <g id="xtick_4">
     <g id="line2d_4">
      <g>
       <use xlink:href="#me63a5387bf" x="257.952337" y="320.4" style="stroke: #000000; stroke-width: 0.8"/>
      </g>
     </g>
     <g id="text_4">
      <!-- 15 -->
      <g transform="translate(248.408587 338.797656) scale(0.15 -0.15)">
       <use xlink:href="#DejaVuSans-31"/>
       <use xlink:href="#DejaVuSans-35" transform="translate(63.623047 0)"/>
      </g>
     </g>
    </g>
    <g id="xtick_5">
     <g id="line2d_5">
      <g>
       <use xlink:href="#me63a5387bf" x="309.414788" y="320.4" style="stroke: #000000; stroke-width: 0.8"/>
      </g>
     </g>
     <g id="text_5">
      <!-- 20 -->
      <g transform="translate(299.871038 338.797656) scale(0.15 -0.15)">
       <defs>
        <path id="DejaVuSans-32" d="M 1228 531 
L 3431 531 
L 3431 0 
L 469 0 
L 469 531 
Q 828 903 1448 1529 
Q 2069 2156 2228 2338 
Q 2531 2678 2651 2914 
Q 2772 3150 2772 3378 
Q 2772 3750 2511 3984 
Q 2250 4219 1831 4219 
Q 1534 4219 1204 4116 
Q 875 4013 500 3803 
L 500 4441 
Q 881 4594 1212 4672 
Q 1544 4750 1819 4750 
Q 2544 4750 2975 4387 
Q 3406 4025 3406 3419 
Q 3406 3131 3298 2873 
Q 3191 2616 2906 2266 
Q 2828 2175 2409 1742 
Q 1991 1309 1228 531 
z
" transform="scale(0.015625)"/>
       </defs>
       <use xlink:href="#DejaVuSans-32"/>
       <use xlink:href="#DejaVuSans-30" transform="translate(63.623047 0)"/>
      </g>
     </g>
    </g>
    <g id="xtick_6">
     <g id="line2d_6">
      <g>
       <use xlink:href="#me63a5387bf" x="360.877238" y="320.4" style="stroke: #000000; stroke-width: 0.8"/>
      </g>
     </g>
     <g id="text_6">
      <!-- 25 -->
      <g transform="translate(351.333488 338.797656) scale(0.15 -0.15)">
       <use xlink:href="#DejaVuSans-32"/>
       <use xlink:href="#DejaVuSans-35" transform="translate(63.623047 0)"/>
      </g>
     </g>
    </g>
    <g id="xtick_7">
     <g id="line2d_7">
      <g>
       <use xlink:href="#me63a5387bf" x="412.339689" y="320.4" style="stroke: #000000; stroke-width: 0.8"/>
      </g>
     </g>
     <g id="text_7">
      <!-- 30 -->
      <g transform="translate(402.795939 338.797656) scale(0.15 -0.15)">
       <defs>
        <path id="DejaVuSans-33" d="M 2597 2516 
Q 3050 2419 3304 2112 
Q 3559 1806 3559 1356 
Q 3559 666 3084 287 
Q 2609 -91 1734 -91 
Q 1441 -91 1130 -33 
Q 819 25 488 141 
L 488 750 
Q 750 597 1062 519 
Q 1375 441 1716 441 
Q 2309 441 2620 675 
Q 2931 909 2931 1356 
Q 2931 1769 2642 2001 
Q 2353 2234 1838 2234 
L 1294 2234 
L 1294 2753 
L 1863 2753 
Q 2328 2753 2575 2939 
Q 2822 3125 2822 3475 
Q 2822 3834 2567 4026 
Q 2313 4219 1838 4219 
Q 1578 4219 1281 4162 
Q 984 4106 628 3988 
L 628 4550 
Q 988 4650 1302 4700 
Q 1616 4750 1894 4750 
Q 2613 4750 3031 4423 
Q 3450 4097 3450 3541 
Q 3450 3153 3228 2886 
Q 3006 2619 2597 2516 
z
" transform="scale(0.015625)"/>
       </defs>
       <use xlink:href="#DejaVuSans-33"/>
       <use xlink:href="#DejaVuSans-30" transform="translate(63.623047 0)"/>
      </g>
     </g>
    </g>
    <g id="text_8">
     <!-- time [hr] -->
     <g transform="translate(212.877806 359.594375) scale(0.18 -0.18)">
      <defs>
       <path id="DejaVuSans-Bold-74" d="M 1759 4494 
L 1759 3500 
L 2913 3500 
L 2913 2700 
L 1759 2700 
L 1759 1216 
Q 1759 972 1856 886 
Q 1953 800 2241 800 
L 2816 800 
L 2816 0 
L 1856 0 
Q 1194 0 917 276 
Q 641 553 641 1216 
L 641 2700 
L 84 2700 
L 84 3500 
L 641 3500 
L 641 4494 
L 1759 4494 
z
" transform="scale(0.015625)"/>
       <path id="DejaVuSans-Bold-69" d="M 538 3500 
L 1656 3500 
L 1656 0 
L 538 0 
L 538 3500 
z
M 538 4863 
L 1656 4863 
L 1656 3950 
L 538 3950 
L 538 4863 
z
" transform="scale(0.015625)"/>
       <path id="DejaVuSans-Bold-6d" d="M 3781 2919 
Q 3994 3244 4286 3414 
Q 4578 3584 4928 3584 
Q 5531 3584 5847 3212 
Q 6163 2841 6163 2131 
L 6163 0 
L 5038 0 
L 5038 1825 
Q 5041 1866 5042 1909 
Q 5044 1953 5044 2034 
Q 5044 2406 4934 2573 
Q 4825 2741 4581 2741 
Q 4263 2741 4089 2478 
Q 3916 2216 3909 1719 
L 3909 0 
L 2784 0 
L 2784 1825 
Q 2784 2406 2684 2573 
Q 2584 2741 2328 2741 
Q 2006 2741 1831 2477 
Q 1656 2213 1656 1722 
L 1656 0 
L 531 0 
L 531 3500 
L 1656 3500 
L 1656 2988 
Q 1863 3284 2130 3434 
Q 2397 3584 2719 3584 
Q 3081 3584 3359 3409 
Q 3638 3234 3781 2919 
z
" transform="scale(0.015625)"/>
       <path id="DejaVuSans-Bold-65" d="M 4031 1759 
L 4031 1441 
L 1416 1441 
Q 1456 1047 1700 850 
Q 1944 653 2381 653 
Q 2734 653 3104 758 
Q 3475 863 3866 1075 
L 3866 213 
Q 3469 63 3072 -14 
Q 2675 -91 2278 -91 
Q 1328 -91 801 392 
Q 275 875 275 1747 
Q 275 2603 792 3093 
Q 1309 3584 2216 3584 
Q 3041 3584 3536 3087 
Q 4031 2591 4031 1759 
z
M 2881 2131 
Q 2881 2450 2695 2645 
Q 2509 2841 2209 2841 
Q 1884 2841 1681 2658 
Q 1478 2475 1428 2131 
L 2881 2131 
z
" transform="scale(0.015625)"/>
       <path id="DejaVuSans-Bold-20" transform="scale(0.015625)"/>
       <path id="DejaVuSans-Bold-5b" d="M 550 4863 
L 2491 4863 
L 2491 4159 
L 1613 4159 
L 1613 -141 
L 2491 -141 
L 2491 -844 
L 550 -844 
L 550 4863 
z
" transform="scale(0.015625)"/>
       <path id="DejaVuSans-Bold-68" d="M 4056 2131 
L 4056 0 
L 2931 0 
L 2931 347 
L 2931 1625 
Q 2931 2084 2911 2256 
Q 2891 2428 2841 2509 
Q 2775 2619 2662 2680 
Q 2550 2741 2406 2741 
Q 2056 2741 1856 2470 
Q 1656 2200 1656 1722 
L 1656 0 
L 538 0 
L 538 4863 
L 1656 4863 
L 1656 2988 
Q 1909 3294 2193 3439 
Q 2478 3584 2822 3584 
Q 3428 3584 3742 3212 
Q 4056 2841 4056 2131 
z
" transform="scale(0.015625)"/>
       <path id="DejaVuSans-Bold-72" d="M 3138 2547 
Q 2991 2616 2845 2648 
Q 2700 2681 2553 2681 
Q 2122 2681 1889 2404 
Q 1656 2128 1656 1613 
L 1656 0 
L 538 0 
L 538 3500 
L 1656 3500 
L 1656 2925 
Q 1872 3269 2151 3426 
Q 2431 3584 2822 3584 
Q 2878 3584 2943 3579 
Q 3009 3575 3134 3559 
L 3138 2547 
z
" transform="scale(0.015625)"/>
       <path id="DejaVuSans-Bold-5d" d="M 2375 -844 
L 434 -844 
L 434 -141 
L 1313 -141 
L 1313 4159 
L 434 4159 
L 434 4863 
L 2375 4863 
L 2375 -844 
z
" transform="scale(0.015625)"/>
      </defs>
      <use xlink:href="#DejaVuSans-Bold-74"/>
      <use xlink:href="#DejaVuSans-Bold-69" transform="translate(47.802734 0)"/>
      <use xlink:href="#DejaVuSans-Bold-6d" transform="translate(82.080078 0)"/>
      <use xlink:href="#DejaVuSans-Bold-65" transform="translate(186.279297 0)"/>
      <use xlink:href="#DejaVuSans-Bold-20" transform="translate(254.101562 0)"/>
      <use xlink:href="#DejaVuSans-Bold-5b" transform="translate(288.916016 0)"/>
      <use xlink:href="#DejaVuSans-Bold-68" transform="translate(334.619141 0)"/>
      <use xlink:href="#DejaVuSans-Bold-72" transform="translate(405.810547 0)"/>
      <use xlink:href="#DejaVuSans-Bold-5d" transform="translate(455.126953 0)"/>
     </g>
    </g>
   </g>
   <g id="matplotlib.axis_2">
    <g id="ytick_1">
     <g id="line2d_8">
      <defs>
       <path id="mb016188767" d="M 0 0 
L -3.5 0 
" style="stroke: #000000; stroke-width: 0.8"/>
      </defs>
      <g>
       <use xlink:href="#mb016188767" x="88.12625" y="307.8" style="stroke: #000000; stroke-width: 0.8"/>
      </g>
     </g>
     <g id="text_9">
      <!-- 0.0000 -->
      <g transform="translate(28.640313 313.498828) scale(0.15 -0.15)">
       <defs>
        <path id="DejaVuSans-2e" d="M 684 794 
L 1344 794 
L 1344 0 
L 684 0 
L 684 794 
z
" transform="scale(0.015625)"/>
       </defs>
       <use xlink:href="#DejaVuSans-30"/>
       <use xlink:href="#DejaVuSans-2e" transform="translate(63.623047 0)"/>
       <use xlink:href="#DejaVuSans-30" transform="translate(95.410156 0)"/>
       <use xlink:href="#DejaVuSans-30" transform="translate(159.033203 0)"/>
       <use xlink:href="#DejaVuSans-30" transform="translate(222.65625 0)"/>
       <use xlink:href="#DejaVuSans-30" transform="translate(286.279297 0)"/>
      </g>
     </g>
    </g>
    <g id="ytick_2">
     <g id="line2d_9">
      <g>
       <use xlink:href="#mb016188767" x="88.12625" y="253.956" style="stroke: #000000; stroke-width: 0.8"/>
      </g>
     </g>
     <g id="text_10">
      <!-- 0.0005 -->
      <g transform="translate(28.640313 259.654828) scale(0.15 -0.15)">
       <use xlink:href="#DejaVuSans-30"/>
       <use xlink:href="#DejaVuSans-2e" transform="translate(63.623047 0)"/>
       <use xlink:href="#DejaVuSans-30" transform="translate(95.410156 0)"/>
       <use xlink:href="#DejaVuSans-30" transform="translate(159.033203 0)"/>
       <use xlink:href="#DejaVuSans-30" transform="translate(222.65625 0)"/>
       <use xlink:href="#DejaVuSans-35" transform="translate(286.279297 0)"/>
      </g>
     </g>
    </g>
    <g id="ytick_3">
     <g id="line2d_10">
      <g>
       <use xlink:href="#mb016188767" x="88.12625" y="200.112" style="stroke: #000000; stroke-width: 0.8"/>
      </g>
     </g>
     <g id="text_11">
      <!-- 0.0010 -->
      <g transform="translate(28.640313 205.810828) scale(0.15 -0.15)">
       <use xlink:href="#DejaVuSans-30"/>
       <use xlink:href="#DejaVuSans-2e" transform="translate(63.623047 0)"/>
       <use xlink:href="#DejaVuSans-30" transform="translate(95.410156 0)"/>
       <use xlink:href="#DejaVuSans-30" transform="translate(159.033203 0)"/>
       <use xlink:href="#DejaVuSans-31" transform="translate(222.65625 0)"/>
       <use xlink:href="#DejaVuSans-30" transform="translate(286.279297 0)"/>
      </g>
     </g>
    </g>
    <g id="ytick_4">
     <g id="line2d_11">
      <g>
       <use xlink:href="#mb016188767" x="88.12625" y="146.268" style="stroke: #000000; stroke-width: 0.8"/>
      </g>
     </g>
     <g id="text_12">
      <!-- 0.0015 -->
      <g transform="translate(28.640313 151.966828) scale(0.15 -0.15)">
       <use xlink:href="#DejaVuSans-30"/>
       <use xlink:href="#DejaVuSans-2e" transform="translate(63.623047 0)"/>
       <use xlink:href="#DejaVuSans-30" transform="translate(95.410156 0)"/>
       <use xlink:href="#DejaVuSans-30" transform="translate(159.033203 0)"/>
       <use xlink:href="#DejaVuSans-31" transform="translate(222.65625 0)"/>
       <use xlink:href="#DejaVuSans-35" transform="translate(286.279297 0)"/>
      </g>
     </g>
    </g>
    <g id="ytick_5">
     <g id="line2d_12">
      <g>
       <use xlink:href="#mb016188767" x="88.12625" y="92.424" style="stroke: #000000; stroke-width: 0.8"/>
      </g>
     </g>
     <g id="text_13">
      <!-- 0.0020 -->
      <g transform="translate(28.640313 98.122828) scale(0.15 -0.15)">
       <use xlink:href="#DejaVuSans-30"/>
       <use xlink:href="#DejaVuSans-2e" transform="translate(63.623047 0)"/>
       <use xlink:href="#DejaVuSans-30" transform="translate(95.410156 0)"/>
       <use xlink:href="#DejaVuSans-30" transform="translate(159.033203 0)"/>
       <use xlink:href="#DejaVuSans-32" transform="translate(222.65625 0)"/>
       <use xlink:href="#DejaVuSans-30" transform="translate(286.279297 0)"/>
      </g>
     </g>
    </g>
    <g id="text_14">
     <!-- rivaroxaban plasma [µM] -->
     <g transform="translate(20.877188 309.166875) rotate(-90) scale(0.18 -0.18)">
      <defs>
       <path id="DejaVuSans-Bold-76" d="M 97 3500 
L 1216 3500 
L 2088 1081 
L 2956 3500 
L 4078 3500 
L 2700 0 
L 1472 0 
L 97 3500 
z
" transform="scale(0.015625)"/>
       <path id="DejaVuSans-Bold-61" d="M 2106 1575 
Q 1756 1575 1579 1456 
Q 1403 1338 1403 1106 
Q 1403 894 1545 773 
Q 1688 653 1941 653 
Q 2256 653 2472 879 
Q 2688 1106 2688 1447 
L 2688 1575 
L 2106 1575 
z
M 3816 1997 
L 3816 0 
L 2688 0 
L 2688 519 
Q 2463 200 2181 54 
Q 1900 -91 1497 -91 
Q 953 -91 614 226 
Q 275 544 275 1050 
Q 275 1666 698 1953 
Q 1122 2241 2028 2241 
L 2688 2241 
L 2688 2328 
Q 2688 2594 2478 2717 
Q 2269 2841 1825 2841 
Q 1466 2841 1156 2769 
Q 847 2697 581 2553 
L 581 3406 
Q 941 3494 1303 3539 
Q 1666 3584 2028 3584 
Q 2975 3584 3395 3211 
Q 3816 2838 3816 1997 
z
" transform="scale(0.015625)"/>
       <path id="DejaVuSans-Bold-6f" d="M 2203 2784 
Q 1831 2784 1636 2517 
Q 1441 2250 1441 1747 
Q 1441 1244 1636 976 
Q 1831 709 2203 709 
Q 2569 709 2762 976 
Q 2956 1244 2956 1747 
Q 2956 2250 2762 2517 
Q 2569 2784 2203 2784 
z
M 2203 3584 
Q 3106 3584 3614 3096 
Q 4122 2609 4122 1747 
Q 4122 884 3614 396 
Q 3106 -91 2203 -91 
Q 1297 -91 786 396 
Q 275 884 275 1747 
Q 275 2609 786 3096 
Q 1297 3584 2203 3584 
z
" transform="scale(0.015625)"/>
       <path id="DejaVuSans-Bold-78" d="M 1422 1791 
L 159 3500 
L 1344 3500 
L 2059 2463 
L 2784 3500 
L 3969 3500 
L 2706 1797 
L 4031 0 
L 2847 0 
L 2059 1106 
L 1281 0 
L 97 0 
L 1422 1791 
z
" transform="scale(0.015625)"/>
       <path id="DejaVuSans-Bold-62" d="M 2400 722 
Q 2759 722 2948 984 
Q 3138 1247 3138 1747 
Q 3138 2247 2948 2509 
Q 2759 2772 2400 2772 
Q 2041 2772 1848 2508 
Q 1656 2244 1656 1747 
Q 1656 1250 1848 986 
Q 2041 722 2400 722 
z
M 1656 2988 
Q 1888 3294 2169 3439 
Q 2450 3584 2816 3584 
Q 3463 3584 3878 3070 
Q 4294 2556 4294 1747 
Q 4294 938 3878 423 
Q 3463 -91 2816 -91 
Q 2450 -91 2169 54 
Q 1888 200 1656 506 
L 1656 0 
L 538 0 
L 538 4863 
L 1656 4863 
L 1656 2988 
z
" transform="scale(0.015625)"/>
       <path id="DejaVuSans-Bold-6e" d="M 4056 2131 
L 4056 0 
L 2931 0 
L 2931 347 
L 2931 1631 
Q 2931 2084 2911 2256 
Q 2891 2428 2841 2509 
Q 2775 2619 2662 2680 
Q 2550 2741 2406 2741 
Q 2056 2741 1856 2470 
Q 1656 2200 1656 1722 
L 1656 0 
L 538 0 
L 538 3500 
L 1656 3500 
L 1656 2988 
Q 1909 3294 2193 3439 
Q 2478 3584 2822 3584 
Q 3428 3584 3742 3212 
Q 4056 2841 4056 2131 
z
" transform="scale(0.015625)"/>
       <path id="DejaVuSans-Bold-70" d="M 1656 506 
L 1656 -1331 
L 538 -1331 
L 538 3500 
L 1656 3500 
L 1656 2988 
Q 1888 3294 2169 3439 
Q 2450 3584 2816 3584 
Q 3463 3584 3878 3070 
Q 4294 2556 4294 1747 
Q 4294 938 3878 423 
Q 3463 -91 2816 -91 
Q 2450 -91 2169 54 
Q 1888 200 1656 506 
z
M 2400 2772 
Q 2041 2772 1848 2508 
Q 1656 2244 1656 1747 
Q 1656 1250 1848 986 
Q 2041 722 2400 722 
Q 2759 722 2948 984 
Q 3138 1247 3138 1747 
Q 3138 2247 2948 2509 
Q 2759 2772 2400 2772 
z
" transform="scale(0.015625)"/>
       <path id="DejaVuSans-Bold-6c" d="M 538 4863 
L 1656 4863 
L 1656 0 
L 538 0 
L 538 4863 
z
" transform="scale(0.015625)"/>
       <path id="DejaVuSans-Bold-73" d="M 3272 3391 
L 3272 2541 
Q 2913 2691 2578 2766 
Q 2244 2841 1947 2841 
Q 1628 2841 1473 2761 
Q 1319 2681 1319 2516 
Q 1319 2381 1436 2309 
Q 1553 2238 1856 2203 
L 2053 2175 
Q 2913 2066 3209 1816 
Q 3506 1566 3506 1031 
Q 3506 472 3093 190 
Q 2681 -91 1863 -91 
Q 1516 -91 1145 -36 
Q 775 19 384 128 
L 384 978 
Q 719 816 1070 734 
Q 1422 653 1784 653 
Q 2113 653 2278 743 
Q 2444 834 2444 1013 
Q 2444 1163 2330 1236 
Q 2216 1309 1875 1350 
L 1678 1375 
Q 931 1469 631 1722 
Q 331 1975 331 2491 
Q 331 3047 712 3315 
Q 1094 3584 1881 3584 
Q 2191 3584 2531 3537 
Q 2872 3491 3272 3391 
z
" transform="scale(0.015625)"/>
       <path id="DejaVuSans-Bold-b5" d="M 544 -1338 
L 544 3500 
L 1672 3500 
L 1672 1466 
Q 1672 1103 1828 926 
Q 1984 750 2303 750 
Q 2625 750 2781 926 
Q 2938 1103 2938 1466 
L 2938 3500 
L 4063 3500 
L 4063 1159 
Q 4063 938 4114 850 
Q 4166 763 4288 763 
Q 4344 763 4395 778 
Q 4447 794 4506 831 
L 4506 50 
Q 4341 -22 4195 -56 
Q 4050 -91 3909 -91 
Q 3631 -91 3454 26 
Q 3278 144 3169 403 
Q 3022 156 2811 32 
Q 2600 -91 2322 -91 
Q 2091 -91 1928 -17 
Q 1766 56 1672 206 
L 1672 -1338 
L 544 -1338 
z
" transform="scale(0.015625)"/>
       <path id="DejaVuSans-Bold-4d" d="M 588 4666 
L 2119 4666 
L 3181 2169 
L 4250 4666 
L 5778 4666 
L 5778 0 
L 4641 0 
L 4641 3413 
L 3566 897 
L 2803 897 
L 1728 3413 
L 1728 0 
L 588 0 
L 588 4666 
z
" transform="scale(0.015625)"/>
      </defs>
      <use xlink:href="#DejaVuSans-Bold-72"/>
      <use xlink:href="#DejaVuSans-Bold-69" transform="translate(49.316406 0)"/>
      <use xlink:href="#DejaVuSans-Bold-76" transform="translate(83.59375 0)"/>
      <use xlink:href="#DejaVuSans-Bold-61" transform="translate(148.779297 0)"/>
      <use xlink:href="#DejaVuSans-Bold-72" transform="translate(216.259766 0)"/>
      <use xlink:href="#DejaVuSans-Bold-6f" transform="translate(265.576172 0)"/>
      <use xlink:href="#DejaVuSans-Bold-78" transform="translate(334.277344 0)"/>
      <use xlink:href="#DejaVuSans-Bold-61" transform="translate(398.779297 0)"/>
      <use xlink:href="#DejaVuSans-Bold-62" transform="translate(466.259766 0)"/>
      <use xlink:href="#DejaVuSans-Bold-61" transform="translate(537.841797 0)"/>
      <use xlink:href="#DejaVuSans-Bold-6e" transform="translate(605.322266 0)"/>
      <use xlink:href="#DejaVuSans-Bold-20" transform="translate(676.513672 0)"/>
      <use xlink:href="#DejaVuSans-Bold-70" transform="translate(711.328125 0)"/>
      <use xlink:href="#DejaVuSans-Bold-6c" transform="translate(782.910156 0)"/>
      <use xlink:href="#DejaVuSans-Bold-61" transform="translate(817.1875 0)"/>
      <use xlink:href="#DejaVuSans-Bold-73" transform="translate(884.667969 0)"/>
      <use xlink:href="#DejaVuSans-Bold-6d" transform="translate(944.189453 0)"/>
      <use xlink:href="#DejaVuSans-Bold-61" transform="translate(1048.388672 0)"/>
      <use xlink:href="#DejaVuSans-Bold-20" transform="translate(1115.869141 0)"/>
      <use xlink:href="#DejaVuSans-Bold-5b" transform="translate(1150.683594 0)"/>
      <use xlink:href="#DejaVuSans-Bold-b5" transform="translate(1196.386719 0)"/>
      <use xlink:href="#DejaVuSans-Bold-4d" transform="translate(1269.970703 0)"/>
      <use xlink:href="#DejaVuSans-Bold-5d" transform="translate(1369.482422 0)"/>
     </g>
    </g>
   </g>
   <g id="LineCollection_1">
    <path d="M 108.71123 144.741176 
L 108.71123 55.8 
" clip-path="url(#p02ee64fca3)" style="fill: none; stroke: #000000"/>
    <path d="M 113.857475 152.152941 
L 113.857475 82.976471 
" clip-path="url(#p02ee64fca3)" style="fill: none; stroke: #000000"/>
    <path d="M 119.00372 169.447059 
L 119.00372 120.035294 
" clip-path="url(#p02ee64fca3)" style="fill: none; stroke: #000000"/>
    <path d="M 124.149965 191.682353 
L 124.149965 147.211765 
" clip-path="url(#p02ee64fca3)" style="fill: none; stroke: #000000"/>
    <path d="M 129.29621 211.447059 
L 129.29621 162.035294 
" clip-path="url(#p02ee64fca3)" style="fill: none; stroke: #000000"/>
    <path d="M 134.442456 221.329412 
L 134.442456 176.858824 
" clip-path="url(#p02ee64fca3)" style="fill: none; stroke: #000000"/>
    <path d="M 144.734946 236.152941 
L 144.734946 196.623529 
" clip-path="url(#p02ee64fca3)" style="fill: none; stroke: #000000"/>
    <path d="M 165.319926 283.094118 
L 165.319926 268.270588 
" clip-path="url(#p02ee64fca3)" style="fill: none; stroke: #000000"/>
    <path d="M 185.904906 292.976471 
L 185.904906 278.152941 
" clip-path="url(#p02ee64fca3)" style="fill: none; stroke: #000000"/>
    <path clip-path="url(#p02ee64fca3)" style="fill: none; stroke: #000000"/>
    <path clip-path="url(#p02ee64fca3)" style="fill: none; stroke: #000000"/>
   </g>
   <g id="line2d_13">
    <path d="M 103.564985 307.8 
L 104.182535 307.378304 
L 104.800084 305.959426 
L 105.417633 303.767782 
L 106.652732 297.900836 
L 112.210677 268.185472 
L 113.445776 263.002394 
L 114.680875 258.535766 
L 115.915973 254.759701 
L 117.151072 251.626191 
L 118.386171 249.076462 
L 119.62127 247.048127 
L 120.856369 245.479558 
L 122.091467 244.312406 
L 123.326566 243.492938 
L 124.561665 242.97261 
L 125.796764 242.708161 
L 127.031863 242.66143 
L 128.266961 242.799015 
L 130.11961 243.288487 
L 131.972258 244.046072 
L 134.442456 245.361753 
L 137.530203 247.335744 
L 141.853048 250.435298 
L 157.291784 261.798214 
L 162.849728 265.519497 
L 168.407673 268.972953 
L 173.965618 272.1606 
L 179.523562 275.09452 
L 185.081507 277.790826 
L 191.257001 280.52901 
L 197.432495 283.018421 
L 203.607989 285.281074 
L 210.401033 287.532371 
L 217.194076 289.55871 
L 224.604669 291.538975 
L 232.632811 293.442441 
L 240.660954 295.123102 
L 249.306645 296.713712 
L 258.569886 298.197148 
L 268.450677 299.561366 
L 279.566566 300.865869 
L 291.300005 302.019441 
L 304.268542 303.072522 
L 319.089728 304.043253 
L 335.763562 304.899204 
L 354.290044 305.623567 
L 375.904274 306.243396 
L 401.841349 306.758888 
L 412.339689 306.915306 
L 412.339689 306.915306 
" clip-path="url(#p02ee64fca3)" style="fill: none; stroke: #000000; stroke-width: 2; stroke-linecap: square"/>
   </g>
   <g id="line2d_14">
    <path d="M 108.71123 100.270588 
L 113.857475 117.564706 
L 119.00372 144.741176 
L 124.149965 169.447059 
L 129.29621 186.741176 
L 134.442456 199.094118 
L 144.734946 216.388235 
L 165.319926 275.682353 
L 185.904906 285.564706 
L 340.292258 305.329412 
L 350.584748 305.329412 
" clip-path="url(#p02ee64fca3)" style="fill: none; stroke-dasharray: 3.7,1.6; stroke-dashoffset: 0; stroke: #000000"/>
    <defs>
     <path id="ma5d2e7677f" d="M -3 3 
L 3 3 
L 3 -3 
L -3 -3 
z
" style="stroke: #000000; stroke-linejoin: miter"/>
    </defs>
    <g clip-path="url(#p02ee64fca3)">
     <use xlink:href="#ma5d2e7677f" x="108.71123" y="100.270588" style="stroke: #000000; stroke-linejoin: miter"/>
     <use xlink:href="#ma5d2e7677f" x="113.857475" y="117.564706" style="stroke: #000000; stroke-linejoin: miter"/>
     <use xlink:href="#ma5d2e7677f" x="119.00372" y="144.741176" style="stroke: #000000; stroke-linejoin: miter"/>
     <use xlink:href="#ma5d2e7677f" x="124.149965" y="169.447059" style="stroke: #000000; stroke-linejoin: miter"/>
     <use xlink:href="#ma5d2e7677f" x="129.29621" y="186.741176" style="stroke: #000000; stroke-linejoin: miter"/>
     <use xlink:href="#ma5d2e7677f" x="134.442456" y="199.094118" style="stroke: #000000; stroke-linejoin: miter"/>
     <use xlink:href="#ma5d2e7677f" x="144.734946" y="216.388235" style="stroke: #000000; stroke-linejoin: miter"/>
     <use xlink:href="#ma5d2e7677f" x="165.319926" y="275.682353" style="stroke: #000000; stroke-linejoin: miter"/>
     <use xlink:href="#ma5d2e7677f" x="185.904906" y="285.564706" style="stroke: #000000; stroke-linejoin: miter"/>
     <use xlink:href="#ma5d2e7677f" x="340.292258" y="305.329412" style="stroke: #000000; stroke-linejoin: miter"/>
     <use xlink:href="#ma5d2e7677f" x="350.584748" y="305.329412" style="stroke: #000000; stroke-linejoin: miter"/>
    </g>
   </g>
   <g id="patch_3">
    <path d="M 88.12625 320.4 
L 88.12625 43.2 
" style="fill: none; stroke: #000000; stroke-width: 0.8; stroke-linejoin: miter; stroke-linecap: square"/>
   </g>
   <g id="patch_4">
    <path d="M 427.778424 320.4 
L 427.778424 43.2 
" style="fill: none; stroke: #000000; stroke-width: 0.8; stroke-linejoin: miter; stroke-linecap: square"/>
   </g>
   <g id="patch_5">
    <path d="M 88.12625 320.4 
L 427.778424 320.4 
" style="fill: none; stroke: #000000; stroke-width: 0.8; stroke-linejoin: miter; stroke-linecap: square"/>
   </g>
   <g id="patch_6">
    <path d="M 88.12625 43.2 
L 427.778424 43.2 
" style="fill: none; stroke: #000000; stroke-width: 0.8; stroke-linejoin: miter; stroke-linecap: square"/>
   </g>
   <g id="legend_1">
    <g id="patch_7">
     <path d="M 228.951861 80.55625 
L 420.778424 80.55625 
Q 422.778424 80.55625 422.778424 78.55625 
L 422.778424 50.2 
Q 422.778424 48.2 420.778424 48.2 
L 228.951861 48.2 
Q 226.951861 48.2 226.951861 50.2 
L 226.951861 78.55625 
Q 226.951861 80.55625 228.951861 80.55625 
z
" style="fill: #ffffff; opacity: 0.8; stroke: #cccccc; stroke-linejoin: miter"/>
    </g>
    <g id="line2d_15">
     <path d="M 230.951861 56.298437 
L 250.951861 56.298437 
" style="fill: none; stroke: #000000; stroke-width: 2; stroke-linecap: square"/>
    </g>
    <g id="line2d_16"/>
    <g id="text_15">
     <!-- API25, RIV25, EDO50 -->
     <g transform="translate(258.951861 59.798437) scale(0.1 -0.1)">
      <defs>
       <path id="DejaVuSans-41" d="M 2188 4044 
L 1331 1722 
L 3047 1722 
L 2188 4044 
z
M 1831 4666 
L 2547 4666 
L 4325 0 
L 3669 0 
L 3244 1197 
L 1141 1197 
L 716 0 
L 50 0 
L 1831 4666 
z
" transform="scale(0.015625)"/>
       <path id="DejaVuSans-50" d="M 1259 4147 
L 1259 2394 
L 2053 2394 
Q 2494 2394 2734 2622 
Q 2975 2850 2975 3272 
Q 2975 3691 2734 3919 
Q 2494 4147 2053 4147 
L 1259 4147 
z
M 628 4666 
L 2053 4666 
Q 2838 4666 3239 4311 
Q 3641 3956 3641 3272 
Q 3641 2581 3239 2228 
Q 2838 1875 2053 1875 
L 1259 1875 
L 1259 0 
L 628 0 
L 628 4666 
z
" transform="scale(0.015625)"/>
       <path id="DejaVuSans-49" d="M 628 4666 
L 1259 4666 
L 1259 0 
L 628 0 
L 628 4666 
z
" transform="scale(0.015625)"/>
       <path id="DejaVuSans-2c" d="M 750 794 
L 1409 794 
L 1409 256 
L 897 -744 
L 494 -744 
L 750 256 
L 750 794 
z
" transform="scale(0.015625)"/>
       <path id="DejaVuSans-20" transform="scale(0.015625)"/>
       <path id="DejaVuSans-52" d="M 2841 2188 
Q 3044 2119 3236 1894 
Q 3428 1669 3622 1275 
L 4263 0 
L 3584 0 
L 2988 1197 
Q 2756 1666 2539 1819 
Q 2322 1972 1947 1972 
L 1259 1972 
L 1259 0 
L 628 0 
L 628 4666 
L 2053 4666 
Q 2853 4666 3247 4331 
Q 3641 3997 3641 3322 
Q 3641 2881 3436 2590 
Q 3231 2300 2841 2188 
z
M 1259 4147 
L 1259 2491 
L 2053 2491 
Q 2509 2491 2742 2702 
Q 2975 2913 2975 3322 
Q 2975 3731 2742 3939 
Q 2509 4147 2053 4147 
L 1259 4147 
z
" transform="scale(0.015625)"/>
       <path id="DejaVuSans-56" d="M 1831 0 
L 50 4666 
L 709 4666 
L 2188 738 
L 3669 4666 
L 4325 4666 
L 2547 0 
L 1831 0 
z
" transform="scale(0.015625)"/>
       <path id="DejaVuSans-45" d="M 628 4666 
L 3578 4666 
L 3578 4134 
L 1259 4134 
L 1259 2753 
L 3481 2753 
L 3481 2222 
L 1259 2222 
L 1259 531 
L 3634 531 
L 3634 0 
L 628 0 
L 628 4666 
z
" transform="scale(0.015625)"/>
       <path id="DejaVuSans-44" d="M 1259 4147 
L 1259 519 
L 2022 519 
Q 2988 519 3436 956 
Q 3884 1394 3884 2338 
Q 3884 3275 3436 3711 
Q 2988 4147 2022 4147 
L 1259 4147 
z
M 628 4666 
L 1925 4666 
Q 3281 4666 3915 4102 
Q 4550 3538 4550 2338 
Q 4550 1131 3912 565 
Q 3275 0 1925 0 
L 628 0 
L 628 4666 
z
" transform="scale(0.015625)"/>
       <path id="DejaVuSans-4f" d="M 2522 4238 
Q 1834 4238 1429 3725 
Q 1025 3213 1025 2328 
Q 1025 1447 1429 934 
Q 1834 422 2522 422 
Q 3209 422 3611 934 
Q 4013 1447 4013 2328 
Q 4013 3213 3611 3725 
Q 3209 4238 2522 4238 
z
M 2522 4750 
Q 3503 4750 4090 4092 
Q 4678 3434 4678 2328 
Q 4678 1225 4090 567 
Q 3503 -91 2522 -91 
Q 1538 -91 948 565 
Q 359 1222 359 2328 
Q 359 3434 948 4092 
Q 1538 4750 2522 4750 
z
" transform="scale(0.015625)"/>
      </defs>
      <use xlink:href="#DejaVuSans-41"/>
      <use xlink:href="#DejaVuSans-50" transform="translate(68.408203 0)"/>
      <use xlink:href="#DejaVuSans-49" transform="translate(128.710938 0)"/>
      <use xlink:href="#DejaVuSans-32" transform="translate(158.203125 0)"/>
      <use xlink:href="#DejaVuSans-35" transform="translate(221.826172 0)"/>
      <use xlink:href="#DejaVuSans-2c" transform="translate(285.449219 0)"/>
      <use xlink:href="#DejaVuSans-20" transform="translate(317.236328 0)"/>
      <use xlink:href="#DejaVuSans-52" transform="translate(349.023438 0)"/>
      <use xlink:href="#DejaVuSans-49" transform="translate(418.505859 0)"/>
      <use xlink:href="#DejaVuSans-56" transform="translate(447.998047 0)"/>
      <use xlink:href="#DejaVuSans-32" transform="translate(516.40625 0)"/>
      <use xlink:href="#DejaVuSans-35" transform="translate(580.029297 0)"/>
      <use xlink:href="#DejaVuSans-2c" transform="translate(643.652344 0)"/>
      <use xlink:href="#DejaVuSans-20" transform="translate(675.439453 0)"/>
      <use xlink:href="#DejaVuSans-45" transform="translate(707.226562 0)"/>
      <use xlink:href="#DejaVuSans-44" transform="translate(770.410156 0)"/>
      <use xlink:href="#DejaVuSans-4f" transform="translate(847.412109 0)"/>
      <use xlink:href="#DejaVuSans-35" transform="translate(926.123047 0)"/>
      <use xlink:href="#DejaVuSans-30" transform="translate(989.746094 0)"/>
     </g>
    </g>
    <g id="LineCollection_2">
     <path d="M 240.951861 75.976562 
L 240.951861 65.976562 
" style="fill: none; stroke: #000000"/>
    </g>
    <g id="line2d_17">
     <path d="M 230.951861 70.976562 
L 250.951861 70.976562 
" style="fill: none; stroke-dasharray: 3.7,1.6; stroke-dashoffset: 0; stroke: #000000"/>
    </g>
    <g id="line2d_18">
     <g>
      <use xlink:href="#ma5d2e7677f" x="240.951861" y="70.976562" style="stroke: #000000; stroke-linejoin: miter"/>
     </g>
    </g>
    <g id="text_16">
     <!-- API25, RIV25, EDO50±SD (n=8) -->
     <g transform="translate(258.951861 74.476562) scale(0.1 -0.1)">
      <defs>
       <path id="DejaVuSans-b1" d="M 2944 4013 
L 2944 2803 
L 4684 2803 
L 4684 2272 
L 2944 2272 
L 2944 1063 
L 2419 1063 
L 2419 2272 
L 678 2272 
L 678 2803 
L 2419 2803 
L 2419 4013 
L 2944 4013 
z
M 678 531 
L 4684 531 
L 4684 0 
L 678 0 
L 678 531 
z
" transform="scale(0.015625)"/>
       <path id="DejaVuSans-53" d="M 3425 4513 
L 3425 3897 
Q 3066 4069 2747 4153 
Q 2428 4238 2131 4238 
Q 1616 4238 1336 4038 
Q 1056 3838 1056 3469 
Q 1056 3159 1242 3001 
Q 1428 2844 1947 2747 
L 2328 2669 
Q 3034 2534 3370 2195 
Q 3706 1856 3706 1288 
Q 3706 609 3251 259 
Q 2797 -91 1919 -91 
Q 1588 -91 1214 -16 
Q 841 59 441 206 
L 441 856 
Q 825 641 1194 531 
Q 1563 422 1919 422 
Q 2459 422 2753 634 
Q 3047 847 3047 1241 
Q 3047 1584 2836 1778 
Q 2625 1972 2144 2069 
L 1759 2144 
Q 1053 2284 737 2584 
Q 422 2884 422 3419 
Q 422 4038 858 4394 
Q 1294 4750 2059 4750 
Q 2388 4750 2728 4690 
Q 3069 4631 3425 4513 
z
" transform="scale(0.015625)"/>
       <path id="DejaVuSans-28" d="M 1984 4856 
Q 1566 4138 1362 3434 
Q 1159 2731 1159 2009 
Q 1159 1288 1364 580 
Q 1569 -128 1984 -844 
L 1484 -844 
Q 1016 -109 783 600 
Q 550 1309 550 2009 
Q 550 2706 781 3412 
Q 1013 4119 1484 4856 
L 1984 4856 
z
" transform="scale(0.015625)"/>
       <path id="DejaVuSans-6e" d="M 3513 2113 
L 3513 0 
L 2938 0 
L 2938 2094 
Q 2938 2591 2744 2837 
Q 2550 3084 2163 3084 
Q 1697 3084 1428 2787 
Q 1159 2491 1159 1978 
L 1159 0 
L 581 0 
L 581 3500 
L 1159 3500 
L 1159 2956 
Q 1366 3272 1645 3428 
Q 1925 3584 2291 3584 
Q 2894 3584 3203 3211 
Q 3513 2838 3513 2113 
z
" transform="scale(0.015625)"/>
       <path id="DejaVuSans-3d" d="M 678 2906 
L 4684 2906 
L 4684 2381 
L 678 2381 
L 678 2906 
z
M 678 1631 
L 4684 1631 
L 4684 1100 
L 678 1100 
L 678 1631 
z
" transform="scale(0.015625)"/>
       <path id="DejaVuSans-38" d="M 2034 2216 
Q 1584 2216 1326 1975 
Q 1069 1734 1069 1313 
Q 1069 891 1326 650 
Q 1584 409 2034 409 
Q 2484 409 2743 651 
Q 3003 894 3003 1313 
Q 3003 1734 2745 1975 
Q 2488 2216 2034 2216 
z
M 1403 2484 
Q 997 2584 770 2862 
Q 544 3141 544 3541 
Q 544 4100 942 4425 
Q 1341 4750 2034 4750 
Q 2731 4750 3128 4425 
Q 3525 4100 3525 3541 
Q 3525 3141 3298 2862 
Q 3072 2584 2669 2484 
Q 3125 2378 3379 2068 
Q 3634 1759 3634 1313 
Q 3634 634 3220 271 
Q 2806 -91 2034 -91 
Q 1263 -91 848 271 
Q 434 634 434 1313 
Q 434 1759 690 2068 
Q 947 2378 1403 2484 
z
M 1172 3481 
Q 1172 3119 1398 2916 
Q 1625 2713 2034 2713 
Q 2441 2713 2670 2916 
Q 2900 3119 2900 3481 
Q 2900 3844 2670 4047 
Q 2441 4250 2034 4250 
Q 1625 4250 1398 4047 
Q 1172 3844 1172 3481 
z
" transform="scale(0.015625)"/>
       <path id="DejaVuSans-29" d="M 513 4856 
L 1013 4856 
Q 1481 4119 1714 3412 
Q 1947 2706 1947 2009 
Q 1947 1309 1714 600 
Q 1481 -109 1013 -844 
L 513 -844 
Q 928 -128 1133 580 
Q 1338 1288 1338 2009 
Q 1338 2731 1133 3434 
Q 928 4138 513 4856 
z
" transform="scale(0.015625)"/>
      </defs>
      <use xlink:href="#DejaVuSans-41"/>
      <use xlink:href="#DejaVuSans-50" transform="translate(68.408203 0)"/>
      <use xlink:href="#DejaVuSans-49" transform="translate(128.710938 0)"/>
      <use xlink:href="#DejaVuSans-32" transform="translate(158.203125 0)"/>
      <use xlink:href="#DejaVuSans-35" transform="translate(221.826172 0)"/>
      <use xlink:href="#DejaVuSans-2c" transform="translate(285.449219 0)"/>
      <use xlink:href="#DejaVuSans-20" transform="translate(317.236328 0)"/>
      <use xlink:href="#DejaVuSans-52" transform="translate(349.023438 0)"/>
      <use xlink:href="#DejaVuSans-49" transform="translate(418.505859 0)"/>
      <use xlink:href="#DejaVuSans-56" transform="translate(447.998047 0)"/>
      <use xlink:href="#DejaVuSans-32" transform="translate(516.40625 0)"/>
      <use xlink:href="#DejaVuSans-35" transform="translate(580.029297 0)"/>
      <use xlink:href="#DejaVuSans-2c" transform="translate(643.652344 0)"/>
      <use xlink:href="#DejaVuSans-20" transform="translate(675.439453 0)"/>
      <use xlink:href="#DejaVuSans-45" transform="translate(707.226562 0)"/>
      <use xlink:href="#DejaVuSans-44" transform="translate(770.410156 0)"/>
      <use xlink:href="#DejaVuSans-4f" transform="translate(847.412109 0)"/>
      <use xlink:href="#DejaVuSans-35" transform="translate(926.123047 0)"/>
      <use xlink:href="#DejaVuSans-30" transform="translate(989.746094 0)"/>
      <use xlink:href="#DejaVuSans-b1" transform="translate(1053.369141 0)"/>
      <use xlink:href="#DejaVuSans-53" transform="translate(1137.158203 0)"/>
      <use xlink:href="#DejaVuSans-44" transform="translate(1200.634766 0)"/>
      <use xlink:href="#DejaVuSans-20" transform="translate(1277.636719 0)"/>
      <use xlink:href="#DejaVuSans-28" transform="translate(1309.423828 0)"/>
      <use xlink:href="#DejaVuSans-6e" transform="translate(1348.4375 0)"/>
      <use xlink:href="#DejaVuSans-3d" transform="translate(1411.816406 0)"/>
      <use xlink:href="#DejaVuSans-38" transform="translate(1495.605469 0)"/>
      <use xlink:href="#DejaVuSans-29" transform="translate(1559.228516 0)"/>
     </g>
    </g>
   </g>
  </g>
  <g id="axes_2">
   <g id="patch_8">
    <path d="M 529.674076 320.4 
L 869.32625 320.4 
L 869.32625 43.2 
L 529.674076 43.2 
z
" style="fill: #ffffff"/>
   </g>
   <g id="matplotlib.axis_3">
    <g id="xtick_8">
     <g id="line2d_19">
      <g>
       <use xlink:href="#me63a5387bf" x="545.112811" y="320.4" style="stroke: #000000; stroke-width: 0.8"/>
      </g>
     </g>
     <g id="text_17">
      <!-- 0 -->
      <g transform="translate(540.340936 338.797656) scale(0.15 -0.15)">
       <use xlink:href="#DejaVuSans-30"/>
      </g>
     </g>
    </g>
    <g id="xtick_9">
     <g id="line2d_20">
      <g>
       <use xlink:href="#me63a5387bf" x="596.575262" y="320.4" style="stroke: #000000; stroke-width: 0.8"/>
      </g>
     </g>
     <g id="text_18">
      <!-- 5 -->
      <g transform="translate(591.803387 338.797656) scale(0.15 -0.15)">
       <use xlink:href="#DejaVuSans-35"/>
      </g>
     </g>
    </g>
    <g id="xtick_10">
     <g id="line2d_21">
      <g>
       <use xlink:href="#me63a5387bf" x="648.037712" y="320.4" style="stroke: #000000; stroke-width: 0.8"/>
      </g>
     </g>
     <g id="text_19">
      <!-- 10 -->
      <g transform="translate(638.493962 338.797656) scale(0.15 -0.15)">
       <use xlink:href="#DejaVuSans-31"/>
       <use xlink:href="#DejaVuSans-30" transform="translate(63.623047 0)"/>
      </g>
     </g>
    </g>
    <g id="xtick_11">
     <g id="line2d_22">
      <g>
       <use xlink:href="#me63a5387bf" x="699.500163" y="320.4" style="stroke: #000000; stroke-width: 0.8"/>
      </g>
     </g>
     <g id="text_20">
      <!-- 15 -->
      <g transform="translate(689.956413 338.797656) scale(0.15 -0.15)">
       <use xlink:href="#DejaVuSans-31"/>
       <use xlink:href="#DejaVuSans-35" transform="translate(63.623047 0)"/>
      </g>
     </g>
    </g>
    <g id="xtick_12">
     <g id="line2d_23">
      <g>
       <use xlink:href="#me63a5387bf" x="750.962614" y="320.4" style="stroke: #000000; stroke-width: 0.8"/>
      </g>
     </g>
     <g id="text_21">
      <!-- 20 -->
      <g transform="translate(741.418864 338.797656) scale(0.15 -0.15)">
       <use xlink:href="#DejaVuSans-32"/>
       <use xlink:href="#DejaVuSans-30" transform="translate(63.623047 0)"/>
      </g>
     </g>
    </g>
    <g id="xtick_13">
     <g id="line2d_24">
      <g>
       <use xlink:href="#me63a5387bf" x="802.425064" y="320.4" style="stroke: #000000; stroke-width: 0.8"/>
      </g>
     </g>
     <g id="text_22">
      <!-- 25 -->
      <g transform="translate(792.881314 338.797656) scale(0.15 -0.15)">
       <use xlink:href="#DejaVuSans-32"/>
       <use xlink:href="#DejaVuSans-35" transform="translate(63.623047 0)"/>
      </g>
     </g>
    </g>
    <g id="xtick_14">
     <g id="line2d_25">
      <g>
       <use xlink:href="#me63a5387bf" x="853.887515" y="320.4" style="stroke: #000000; stroke-width: 0.8"/>
      </g>
     </g>
     <g id="text_23">
      <!-- 30 -->
      <g transform="translate(844.343765 338.797656) scale(0.15 -0.15)">
       <use xlink:href="#DejaVuSans-33"/>
       <use xlink:href="#DejaVuSans-30" transform="translate(63.623047 0)"/>
      </g>
     </g>
    </g>
    <g id="text_24">
     <!-- time [hr] -->
     <g transform="translate(654.425632 359.594375) scale(0.18 -0.18)">
      <use xlink:href="#DejaVuSans-Bold-74"/>
      <use xlink:href="#DejaVuSans-Bold-69" transform="translate(47.802734 0)"/>
      <use xlink:href="#DejaVuSans-Bold-6d" transform="translate(82.080078 0)"/>
      <use xlink:href="#DejaVuSans-Bold-65" transform="translate(186.279297 0)"/>
      <use xlink:href="#DejaVuSans-Bold-20" transform="translate(254.101562 0)"/>
      <use xlink:href="#DejaVuSans-Bold-5b" transform="translate(288.916016 0)"/>
      <use xlink:href="#DejaVuSans-Bold-68" transform="translate(334.619141 0)"/>
      <use xlink:href="#DejaVuSans-Bold-72" transform="translate(405.810547 0)"/>
      <use xlink:href="#DejaVuSans-Bold-5d" transform="translate(455.126953 0)"/>
     </g>
    </g>
   </g>
   <g id="matplotlib.axis_4">
    <g id="ytick_6">
     <g id="line2d_26">
      <g>
       <use xlink:href="#mb016188767" x="529.674076" y="307.8" style="stroke: #000000; stroke-width: 0.8"/>
      </g>
     </g>
     <g id="text_25">
      <!-- 0.000 -->
      <g transform="translate(479.731889 313.498828) scale(0.15 -0.15)">
       <use xlink:href="#DejaVuSans-30"/>
       <use xlink:href="#DejaVuSans-2e" transform="translate(63.623047 0)"/>
       <use xlink:href="#DejaVuSans-30" transform="translate(95.410156 0)"/>
       <use xlink:href="#DejaVuSans-30" transform="translate(159.033203 0)"/>
       <use xlink:href="#DejaVuSans-30" transform="translate(222.65625 0)"/>
      </g>
     </g>
    </g>
    <g id="ytick_7">
     <g id="line2d_27">
      <g>
       <use xlink:href="#mb016188767" x="529.674076" y="260.391328" style="stroke: #000000; stroke-width: 0.8"/>
      </g>
     </g>
     <g id="text_26">
      <!-- 0.005 -->
      <g transform="translate(479.731889 266.090157) scale(0.15 -0.15)">
       <use xlink:href="#DejaVuSans-30"/>
       <use xlink:href="#DejaVuSans-2e" transform="translate(63.623047 0)"/>
       <use xlink:href="#DejaVuSans-30" transform="translate(95.410156 0)"/>
       <use xlink:href="#DejaVuSans-30" transform="translate(159.033203 0)"/>
       <use xlink:href="#DejaVuSans-35" transform="translate(222.65625 0)"/>
      </g>
     </g>
    </g>
    <g id="ytick_8">
     <g id="line2d_28">
      <g>
       <use xlink:href="#mb016188767" x="529.674076" y="212.982657" style="stroke: #000000; stroke-width: 0.8"/>
      </g>
     </g>
     <g id="text_27">
      <!-- 0.010 -->
      <g transform="translate(479.731889 218.681485) scale(0.15 -0.15)">
       <use xlink:href="#DejaVuSans-30"/>
       <use xlink:href="#DejaVuSans-2e" transform="translate(63.623047 0)"/>
       <use xlink:href="#DejaVuSans-30" transform="translate(95.410156 0)"/>
       <use xlink:href="#DejaVuSans-31" transform="translate(159.033203 0)"/>
       <use xlink:href="#DejaVuSans-30" transform="translate(222.65625 0)"/>
      </g>
     </g>
    </g>
    <g id="ytick_9">
     <g id="line2d_29">
      <g>
       <use xlink:href="#mb016188767" x="529.674076" y="165.573985" style="stroke: #000000; stroke-width: 0.8"/>
      </g>
     </g>
     <g id="text_28">
      <!-- 0.015 -->
      <g transform="translate(479.731889 171.272813) scale(0.15 -0.15)">
       <use xlink:href="#DejaVuSans-30"/>
       <use xlink:href="#DejaVuSans-2e" transform="translate(63.623047 0)"/>
       <use xlink:href="#DejaVuSans-30" transform="translate(95.410156 0)"/>
       <use xlink:href="#DejaVuSans-31" transform="translate(159.033203 0)"/>
       <use xlink:href="#DejaVuSans-35" transform="translate(222.65625 0)"/>
      </g>
     </g>
    </g>
    <g id="ytick_10">
     <g id="line2d_30">
      <g>
       <use xlink:href="#mb016188767" x="529.674076" y="118.165314" style="stroke: #000000; stroke-width: 0.8"/>
      </g>
     </g>
     <g id="text_29">
      <!-- 0.020 -->
      <g transform="translate(479.731889 123.864142) scale(0.15 -0.15)">
       <use xlink:href="#DejaVuSans-30"/>
       <use xlink:href="#DejaVuSans-2e" transform="translate(63.623047 0)"/>
       <use xlink:href="#DejaVuSans-30" transform="translate(95.410156 0)"/>
       <use xlink:href="#DejaVuSans-32" transform="translate(159.033203 0)"/>
       <use xlink:href="#DejaVuSans-30" transform="translate(222.65625 0)"/>
      </g>
     </g>
    </g>
    <g id="ytick_11">
     <g id="line2d_31">
      <g>
       <use xlink:href="#mb016188767" x="529.674076" y="70.756642" style="stroke: #000000; stroke-width: 0.8"/>
      </g>
     </g>
     <g id="text_30">
      <!-- 0.025 -->
      <g transform="translate(479.731889 76.45547) scale(0.15 -0.15)">
       <use xlink:href="#DejaVuSans-30"/>
       <use xlink:href="#DejaVuSans-2e" transform="translate(63.623047 0)"/>
       <use xlink:href="#DejaVuSans-30" transform="translate(95.410156 0)"/>
       <use xlink:href="#DejaVuSans-32" transform="translate(159.033203 0)"/>
       <use xlink:href="#DejaVuSans-35" transform="translate(222.65625 0)"/>
      </g>
     </g>
    </g>
    <g id="text_31">
     <!-- rivaroxaban urine [µmole] -->
     <g transform="translate(471.968764 314.994375) rotate(-90) scale(0.18 -0.18)">
      <defs>
       <path id="DejaVuSans-Bold-75" d="M 500 1363 
L 500 3500 
L 1625 3500 
L 1625 3150 
Q 1625 2866 1622 2436 
Q 1619 2006 1619 1863 
Q 1619 1441 1641 1255 
Q 1663 1069 1716 984 
Q 1784 875 1895 815 
Q 2006 756 2150 756 
Q 2500 756 2700 1025 
Q 2900 1294 2900 1772 
L 2900 3500 
L 4019 3500 
L 4019 0 
L 2900 0 
L 2900 506 
Q 2647 200 2364 54 
Q 2081 -91 1741 -91 
Q 1134 -91 817 281 
Q 500 653 500 1363 
z
" transform="scale(0.015625)"/>
      </defs>
      <use xlink:href="#DejaVuSans-Bold-72"/>
      <use xlink:href="#DejaVuSans-Bold-69" transform="translate(49.316406 0)"/>
      <use xlink:href="#DejaVuSans-Bold-76" transform="translate(83.59375 0)"/>
      <use xlink:href="#DejaVuSans-Bold-61" transform="translate(148.779297 0)"/>
      <use xlink:href="#DejaVuSans-Bold-72" transform="translate(216.259766 0)"/>
      <use xlink:href="#DejaVuSans-Bold-6f" transform="translate(265.576172 0)"/>
      <use xlink:href="#DejaVuSans-Bold-78" transform="translate(334.277344 0)"/>
      <use xlink:href="#DejaVuSans-Bold-61" transform="translate(398.779297 0)"/>
      <use xlink:href="#DejaVuSans-Bold-62" transform="translate(466.259766 0)"/>
      <use xlink:href="#DejaVuSans-Bold-61" transform="translate(537.841797 0)"/>
      <use xlink:href="#DejaVuSans-Bold-6e" transform="translate(605.322266 0)"/>
      <use xlink:href="#DejaVuSans-Bold-20" transform="translate(676.513672 0)"/>
      <use xlink:href="#DejaVuSans-Bold-75" transform="translate(711.328125 0)"/>
      <use xlink:href="#DejaVuSans-Bold-72" transform="translate(782.519531 0)"/>
      <use xlink:href="#DejaVuSans-Bold-69" transform="translate(831.835938 0)"/>
      <use xlink:href="#DejaVuSans-Bold-6e" transform="translate(866.113281 0)"/>
      <use xlink:href="#DejaVuSans-Bold-65" transform="translate(937.304688 0)"/>
      <use xlink:href="#DejaVuSans-Bold-20" transform="translate(1005.126953 0)"/>
      <use xlink:href="#DejaVuSans-Bold-5b" transform="translate(1039.941406 0)"/>
      <use xlink:href="#DejaVuSans-Bold-b5" transform="translate(1085.644531 0)"/>
      <use xlink:href="#DejaVuSans-Bold-6d" transform="translate(1159.228516 0)"/>
      <use xlink:href="#DejaVuSans-Bold-6f" transform="translate(1263.427734 0)"/>
      <use xlink:href="#DejaVuSans-Bold-6c" transform="translate(1332.128906 0)"/>
      <use xlink:href="#DejaVuSans-Bold-65" transform="translate(1366.40625 0)"/>
      <use xlink:href="#DejaVuSans-Bold-5d" transform="translate(1434.228516 0)"/>
     </g>
    </g>
   </g>
   <g id="LineCollection_3">
    <path clip-path="url(#pdca87a6bbc)" style="fill: none; stroke: #000000"/>
    <path d="M 792.132574 124.740313 
L 792.132574 55.8 
" clip-path="url(#pdca87a6bbc)" style="fill: none; stroke: #000000"/>
   </g>
   <g id="line2d_32">
    <path d="M 545.112811 307.8 
L 546.965459 307.738983 
L 548.200558 307.526748 
L 549.435657 307.110425 
L 550.670756 306.471634 
L 551.905855 305.612064 
L 553.140954 304.545063 
L 554.993602 302.599169 
L 556.84625 300.306167 
L 559.316448 296.837051 
L 562.404195 292.053279 
L 567.34459 283.892799 
L 575.990282 269.56959 
L 580.930677 261.817499 
L 585.253523 255.398218 
L 589.576369 249.339442 
L 593.899214 243.641464 
L 598.22206 238.294508 
L 602.544906 233.283647 
L 606.867752 228.591593 
L 611.190598 224.200264 
L 615.513444 220.091649 
L 620.453839 215.719889 
L 625.394234 211.669748 
L 630.334629 207.917883 
L 635.275025 204.442498 
L 640.21542 201.223307 
L 645.773365 197.884548 
L 651.331309 194.821462 
L 656.889254 192.011305 
L 662.447199 189.433199 
L 668.622693 186.81755 
L 674.798187 184.440768 
L 681.59123 182.076227 
L 688.384274 179.948101 
L 695.794867 177.868429 
L 703.205459 176.01453 
L 711.233602 174.232555 
L 719.879293 172.546066 
L 729.142535 170.973212 
L 739.023325 169.526763 
L 749.521665 168.214375 
L 761.255104 166.9795 
L 774.223641 165.852198 
L 788.427278 164.851748 
L 804.483562 163.956821 
L 822.392495 163.189263 
L 843.389175 162.522911 
L 853.887515 162.262787 
L 853.887515 162.262787 
" clip-path="url(#pdca87a6bbc)" style="fill: none; stroke: #000000; stroke-width: 2; stroke-linecap: square"/>
   </g>
   <g id="line2d_33">
    <path d="M 545.112811 307.8 
L 792.132574 90.270157 
" clip-path="url(#pdca87a6bbc)" style="fill: none; stroke-dasharray: 3.7,1.6; stroke-dashoffset: 0; stroke: #000000"/>
    <g clip-path="url(#pdca87a6bbc)">
     <use xlink:href="#ma5d2e7677f" x="545.112811" y="307.8" style="stroke: #000000; stroke-linejoin: miter"/>
     <use xlink:href="#ma5d2e7677f" x="792.132574" y="90.270157" style="stroke: #000000; stroke-linejoin: miter"/>
    </g>
   </g>
   <g id="patch_9">
    <path d="M 529.674076 320.4 
L 529.674076 43.2 
" style="fill: none; stroke: #000000; stroke-width: 0.8; stroke-linejoin: miter; stroke-linecap: square"/>
   </g>
   <g id="patch_10">
    <path d="M 869.32625 320.4 
L 869.32625 43.2 
" style="fill: none; stroke: #000000; stroke-width: 0.8; stroke-linejoin: miter; stroke-linecap: square"/>
   </g>
   <g id="patch_11">
    <path d="M 529.674076 320.4 
L 869.32625 320.4 
" style="fill: none; stroke: #000000; stroke-width: 0.8; stroke-linejoin: miter; stroke-linecap: square"/>
   </g>
   <g id="patch_12">
    <path d="M 529.674076 43.2 
L 869.32625 43.2 
" style="fill: none; stroke: #000000; stroke-width: 0.8; stroke-linejoin: miter; stroke-linecap: square"/>
   </g>
   <g id="legend_2">
    <g id="patch_13">
     <path d="M 670.499688 80.55625 
L 862.32625 80.55625 
Q 864.32625 80.55625 864.32625 78.55625 
L 864.32625 50.2 
Q 864.32625 48.2 862.32625 48.2 
L 670.499688 48.2 
Q 668.499688 48.2 668.499688 50.2 
L 668.499688 78.55625 
Q 668.499688 80.55625 670.499688 80.55625 
z
" style="fill: #ffffff; opacity: 0.8; stroke: #cccccc; stroke-linejoin: miter"/>
    </g>
    <g id="line2d_34">
     <path d="M 672.499688 56.298437 
L 692.499688 56.298437 
" style="fill: none; stroke: #000000; stroke-width: 2; stroke-linecap: square"/>
    </g>
    <g id="line2d_35"/>
    <g id="text_32">
     <!-- API25, RIV25, EDO50 -->
     <g transform="translate(700.499688 59.798437) scale(0.1 -0.1)">
      <use xlink:href="#DejaVuSans-41"/>
      <use xlink:href="#DejaVuSans-50" transform="translate(68.408203 0)"/>
      <use xlink:href="#DejaVuSans-49" transform="translate(128.710938 0)"/>
      <use xlink:href="#DejaVuSans-32" transform="translate(158.203125 0)"/>
      <use xlink:href="#DejaVuSans-35" transform="translate(221.826172 0)"/>
      <use xlink:href="#DejaVuSans-2c" transform="translate(285.449219 0)"/>
      <use xlink:href="#DejaVuSans-20" transform="translate(317.236328 0)"/>
      <use xlink:href="#DejaVuSans-52" transform="translate(349.023438 0)"/>
      <use xlink:href="#DejaVuSans-49" transform="translate(418.505859 0)"/>
      <use xlink:href="#DejaVuSans-56" transform="translate(447.998047 0)"/>
      <use xlink:href="#DejaVuSans-32" transform="translate(516.40625 0)"/>
      <use xlink:href="#DejaVuSans-35" transform="translate(580.029297 0)"/>
      <use xlink:href="#DejaVuSans-2c" transform="translate(643.652344 0)"/>
      <use xlink:href="#DejaVuSans-20" transform="translate(675.439453 0)"/>
      <use xlink:href="#DejaVuSans-45" transform="translate(707.226562 0)"/>
      <use xlink:href="#DejaVuSans-44" transform="translate(770.410156 0)"/>
      <use xlink:href="#DejaVuSans-4f" transform="translate(847.412109 0)"/>
      <use xlink:href="#DejaVuSans-35" transform="translate(926.123047 0)"/>
      <use xlink:href="#DejaVuSans-30" transform="translate(989.746094 0)"/>
     </g>
    </g>
    <g id="LineCollection_4">
     <path d="M 682.499688 75.976562 
L 682.499688 65.976562 
" style="fill: none; stroke: #000000"/>
    </g>
    <g id="line2d_36">
     <path d="M 672.499688 70.976562 
L 692.499688 70.976562 
" style="fill: none; stroke-dasharray: 3.7,1.6; stroke-dashoffset: 0; stroke: #000000"/>
    </g>
    <g id="line2d_37">
     <g>
      <use xlink:href="#ma5d2e7677f" x="682.499688" y="70.976562" style="stroke: #000000; stroke-linejoin: miter"/>
     </g>
    </g>
    <g id="text_33">
     <!-- API25, RIV25, EDO50±SD (n=7) -->
     <g transform="translate(700.499688 74.476562) scale(0.1 -0.1)">
      <defs>
       <path id="DejaVuSans-37" d="M 525 4666 
L 3525 4666 
L 3525 4397 
L 1831 0 
L 1172 0 
L 2766 4134 
L 525 4134 
L 525 4666 
z
" transform="scale(0.015625)"/>
      </defs>
      <use xlink:href="#DejaVuSans-41"/>
      <use xlink:href="#DejaVuSans-50" transform="translate(68.408203 0)"/>
      <use xlink:href="#DejaVuSans-49" transform="translate(128.710938 0)"/>
      <use xlink:href="#DejaVuSans-32" transform="translate(158.203125 0)"/>
      <use xlink:href="#DejaVuSans-35" transform="translate(221.826172 0)"/>
      <use xlink:href="#DejaVuSans-2c" transform="translate(285.449219 0)"/>
      <use xlink:href="#DejaVuSans-20" transform="translate(317.236328 0)"/>
      <use xlink:href="#DejaVuSans-52" transform="translate(349.023438 0)"/>
      <use xlink:href="#DejaVuSans-49" transform="translate(418.505859 0)"/>
      <use xlink:href="#DejaVuSans-56" transform="translate(447.998047 0)"/>
      <use xlink:href="#DejaVuSans-32" transform="translate(516.40625 0)"/>
      <use xlink:href="#DejaVuSans-35" transform="translate(580.029297 0)"/>
      <use xlink:href="#DejaVuSans-2c" transform="translate(643.652344 0)"/>
      <use xlink:href="#DejaVuSans-20" transform="translate(675.439453 0)"/>
      <use xlink:href="#DejaVuSans-45" transform="translate(707.226562 0)"/>
      <use xlink:href="#DejaVuSans-44" transform="translate(770.410156 0)"/>
      <use xlink:href="#DejaVuSans-4f" transform="translate(847.412109 0)"/>
      <use xlink:href="#DejaVuSans-35" transform="translate(926.123047 0)"/>
      <use xlink:href="#DejaVuSans-30" transform="translate(989.746094 0)"/>
      <use xlink:href="#DejaVuSans-b1" transform="translate(1053.369141 0)"/>
      <use xlink:href="#DejaVuSans-53" transform="translate(1137.158203 0)"/>
      <use xlink:href="#DejaVuSans-44" transform="translate(1200.634766 0)"/>
      <use xlink:href="#DejaVuSans-20" transform="translate(1277.636719 0)"/>
      <use xlink:href="#DejaVuSans-28" transform="translate(1309.423828 0)"/>
      <use xlink:href="#DejaVuSans-6e" transform="translate(1348.4375 0)"/>
      <use xlink:href="#DejaVuSans-3d" transform="translate(1411.816406 0)"/>
      <use xlink:href="#DejaVuSans-37" transform="translate(1495.605469 0)"/>
      <use xlink:href="#DejaVuSans-29" transform="translate(1559.228516 0)"/>
     </g>
    </g>
   </g>
  </g>
  <g id="text_34">
   <!-- Rohr2024 (healthy) -->
   <g transform="translate(329.165313 26.196094) scale(0.25 -0.25)">
    <defs>
     <path id="DejaVuSans-Bold-52" d="M 2297 2597 
Q 2675 2597 2839 2737 
Q 3003 2878 3003 3200 
Q 3003 3519 2839 3656 
Q 2675 3794 2297 3794 
L 1791 3794 
L 1791 2597 
L 2297 2597 
z
M 1791 1766 
L 1791 0 
L 588 0 
L 588 4666 
L 2425 4666 
Q 3347 4666 3776 4356 
Q 4206 4047 4206 3378 
Q 4206 2916 3982 2619 
Q 3759 2322 3309 2181 
Q 3556 2125 3751 1926 
Q 3947 1728 4147 1325 
L 4800 0 
L 3519 0 
L 2950 1159 
Q 2778 1509 2601 1637 
Q 2425 1766 2131 1766 
L 1791 1766 
z
" transform="scale(0.015625)"/>
     <path id="DejaVuSans-Bold-32" d="M 1844 884 
L 3897 884 
L 3897 0 
L 506 0 
L 506 884 
L 2209 2388 
Q 2438 2594 2547 2791 
Q 2656 2988 2656 3200 
Q 2656 3528 2436 3728 
Q 2216 3928 1850 3928 
Q 1569 3928 1234 3808 
Q 900 3688 519 3450 
L 519 4475 
Q 925 4609 1322 4679 
Q 1719 4750 2100 4750 
Q 2938 4750 3402 4381 
Q 3866 4013 3866 3353 
Q 3866 2972 3669 2642 
Q 3472 2313 2841 1759 
L 1844 884 
z
" transform="scale(0.015625)"/>
     <path id="DejaVuSans-Bold-30" d="M 2944 2338 
Q 2944 3213 2780 3570 
Q 2616 3928 2228 3928 
Q 1841 3928 1675 3570 
Q 1509 3213 1509 2338 
Q 1509 1453 1675 1090 
Q 1841 728 2228 728 
Q 2613 728 2778 1090 
Q 2944 1453 2944 2338 
z
M 4147 2328 
Q 4147 1169 3647 539 
Q 3147 -91 2228 -91 
Q 1306 -91 806 539 
Q 306 1169 306 2328 
Q 306 3491 806 4120 
Q 1306 4750 2228 4750 
Q 3147 4750 3647 4120 
Q 4147 3491 4147 2328 
z
" transform="scale(0.015625)"/>
     <path id="DejaVuSans-Bold-34" d="M 2356 3675 
L 1038 1722 
L 2356 1722 
L 2356 3675 
z
M 2156 4666 
L 3494 4666 
L 3494 1722 
L 4159 1722 
L 4159 850 
L 3494 850 
L 3494 0 
L 2356 0 
L 2356 850 
L 288 850 
L 288 1881 
L 2156 4666 
z
" transform="scale(0.015625)"/>
     <path id="DejaVuSans-Bold-28" d="M 2413 -844 
L 1484 -844 
Q 1006 -72 778 623 
Q 550 1319 550 2003 
Q 550 2688 779 3389 
Q 1009 4091 1484 4856 
L 2413 4856 
Q 2013 4116 1813 3408 
Q 1613 2700 1613 2009 
Q 1613 1319 1811 609 
Q 2009 -100 2413 -844 
z
" transform="scale(0.015625)"/>
     <path id="DejaVuSans-Bold-79" d="M 78 3500 
L 1197 3500 
L 2138 1125 
L 2938 3500 
L 4056 3500 
L 2584 -331 
Q 2363 -916 2067 -1148 
Q 1772 -1381 1288 -1381 
L 641 -1381 
L 641 -647 
L 991 -647 
Q 1275 -647 1404 -556 
Q 1534 -466 1606 -231 
L 1638 -134 
L 78 3500 
z
" transform="scale(0.015625)"/>
     <path id="DejaVuSans-Bold-29" d="M 513 -844 
Q 913 -100 1113 609 
Q 1313 1319 1313 2009 
Q 1313 2700 1113 3408 
Q 913 4116 513 4856 
L 1441 4856 
Q 1916 4091 2145 3389 
Q 2375 2688 2375 2003 
Q 2375 1319 2147 623 
Q 1919 -72 1441 -844 
L 513 -844 
z
" transform="scale(0.015625)"/>
    </defs>
    <use xlink:href="#DejaVuSans-Bold-52"/>
    <use xlink:href="#DejaVuSans-Bold-6f" transform="translate(77.001953 0)"/>
    <use xlink:href="#DejaVuSans-Bold-68" transform="translate(145.703125 0)"/>
    <use xlink:href="#DejaVuSans-Bold-72" transform="translate(216.894531 0)"/>
    <use xlink:href="#DejaVuSans-Bold-32" transform="translate(266.210938 0)"/>
    <use xlink:href="#DejaVuSans-Bold-30" transform="translate(335.791016 0)"/>
    <use xlink:href="#DejaVuSans-Bold-32" transform="translate(405.371094 0)"/>
    <use xlink:href="#DejaVuSans-Bold-34" transform="translate(474.951172 0)"/>
    <use xlink:href="#DejaVuSans-Bold-20" transform="translate(544.53125 0)"/>
    <use xlink:href="#DejaVuSans-Bold-28" transform="translate(579.345703 0)"/>
    <use xlink:href="#DejaVuSans-Bold-68" transform="translate(625.048828 0)"/>
    <use xlink:href="#DejaVuSans-Bold-65" transform="translate(696.240234 0)"/>
    <use xlink:href="#DejaVuSans-Bold-61" transform="translate(764.0625 0)"/>
    <use xlink:href="#DejaVuSans-Bold-6c" transform="translate(831.542969 0)"/>
    <use xlink:href="#DejaVuSans-Bold-74" transform="translate(865.820312 0)"/>
    <use xlink:href="#DejaVuSans-Bold-68" transform="translate(913.623047 0)"/>
    <use xlink:href="#DejaVuSans-Bold-79" transform="translate(984.814453 0)"/>
    <use xlink:href="#DejaVuSans-Bold-29" transform="translate(1050 0)"/>
   </g>
  </g>
 </g>
 <defs>
  <clipPath id="p02ee64fca3">
   <rect x="88.12625" y="43.2" width="339.652174" height="277.2"/>
  </clipPath>
  <clipPath id="pdca87a6bbc">
   <rect x="529.674076" y="43.2" width="339.652174" height="277.2"/>
  </clipPath>
 </defs>
</svg>
