<?xml version="1.0" encoding="utf-8" standalone="no"?>
<!DOCTYPE svg PUBLIC "-//W3C//DTD SVG 1.1//EN"
  "http://www.w3.org/Graphics/SVG/1.1/DTD/svg11.dtd">
<svg xmlns:xlink="http://www.w3.org/1999/xlink" width="457.275313pt" height="683.737812pt" viewBox="0 0 457.275313 683.737812" xmlns="http://www.w3.org/2000/svg" version="1.1">
 <metadata>
  <rdf:RDF xmlns:dc="http://purl.org/dc/elements/1.1/" xmlns:cc="http://creativecommons.org/ns#" xmlns:rdf="http://www.w3.org/1999/02/22-rdf-syntax-ns#">
   <cc:Work>
    <dc:type rdf:resource="http://purl.org/dc/dcmitype/StillImage"/>
    <dc:date>2026-01-05T10:58:41.395800</dc:date>
    <dc:format>image/svg+xml</dc:format>
    <dc:creator>
     <cc:Agent>
      <dc:title>Matplotlib v3.10.8, https://matplotlib.org/</dc:title>
     </cc:Agent>
    </dc:creator>
   </cc:Work>
  </rdf:RDF>
 </metadata>
 <defs>
  <style type="text/css">*{stroke-linejoin: round; stroke-linecap: butt}</style>
 </defs>
 <g id="figure_1">
  <g id="patch_1">
   <path d="M 0 683.737812 
L 457.275313 683.737812 
L 457.275313 0 
L 0 0 
z
" style="fill: #ffffff"/>
  </g>
  <g id="axes_1">
   <g id="patch_2">
    <path d="M 59.475313 320.243478 
L 450.075312 320.243478 
L 450.075312 79.2 
L 59.475313 79.2 
z
" style="fill: #ffffff"/>
   </g>
   <g id="matplotlib.axis_1">
    <g id="xtick_1">
     <g id="line2d_1">
      <defs>
       <path id="ma85cb9d171" d="M 0 0 
L 0 3.5 
" style="stroke: #000000; stroke-width: 0.8"/>
      </defs>
      <g>
       <use xlink:href="#ma85cb9d171" x="77.229858" y="320.243478" style="stroke: #000000; stroke-width: 0.8"/>
      </g>
     </g>
     <g id="text_1">
      <!-- 0 -->
      <g transform="translate(72.457983 338.641135) scale(0.15 -0.15)">
       <defs>
        <path id="DejaVuSans-30" d="M 2034 4250 
Q 1547 4250 1301 3770 
Q 1056 3291 1056 2328 
Q 1056 1369 1301 889 
Q 1547 409 2034 409 
Q 2525 409 2770 889 
Q 3016 1369 3016 2328 
Q 3016 3291 2770 3770 
Q 2525 4250 2034 4250 
z
M 2034 4750 
Q 2819 4750 3233 4129 
Q 3647 3509 3647 2328 
Q 3647 1150 3233 529 
Q 2819 -91 2034 -91 
Q 1250 -91 836 529 
Q 422 1150 422 2328 
Q 422 3509 836 4129 
Q 1250 4750 2034 4750 
z
" transform="scale(0.015625)"/>
       </defs>
       <use xlink:href="#DejaVuSans-30"/>
      </g>
     </g>
    </g>
    <g id="xtick_2">
     <g id="line2d_2">
      <g>
       <use xlink:href="#ma85cb9d171" x="166.002585" y="320.243478" style="stroke: #000000; stroke-width: 0.8"/>
      </g>
     </g>
     <g id="text_2">
      <!-- 10 -->
      <g transform="translate(156.458835 338.641135) scale(0.15 -0.15)">
       <defs>
        <path id="DejaVuSans-31" d="M 794 531 
L 1825 531 
L 1825 4091 
L 703 3866 
L 703 4441 
L 1819 4666 
L 2450 4666 
L 2450 531 
L 3481 531 
L 3481 0 
L 794 0 
L 794 531 
z
" transform="scale(0.015625)"/>
       </defs>
       <use xlink:href="#DejaVuSans-31"/>
       <use xlink:href="#DejaVuSans-30" transform="translate(63.623047 0)"/>
      </g>
     </g>
    </g>
    <g id="xtick_3">
     <g id="line2d_3">
      <g>
       <use xlink:href="#ma85cb9d171" x="254.775313" y="320.243478" style="stroke: #000000; stroke-width: 0.8"/>
      </g>
     </g>
     <g id="text_3">
      <!-- 20 -->
      <g transform="translate(245.231563 338.641135) scale(0.15 -0.15)">
       <defs>
        <path id="DejaVuSans-32" d="M 1228 531 
L 3431 531 
L 3431 0 
L 469 0 
L 469 531 
Q 828 903 1448 1529 
Q 2069 2156 2228 2338 
Q 2531 2678 2651 2914 
Q 2772 3150 2772 3378 
Q 2772 3750 2511 3984 
Q 2250 4219 1831 4219 
Q 1534 4219 1204 4116 
Q 875 4013 500 3803 
L 500 4441 
Q 881 4594 1212 4672 
Q 1544 4750 1819 4750 
Q 2544 4750 2975 4387 
Q 3406 4025 3406 3419 
Q 3406 3131 3298 2873 
Q 3191 2616 2906 2266 
Q 2828 2175 2409 1742 
Q 1991 1309 1228 531 
z
" transform="scale(0.015625)"/>
       </defs>
       <use xlink:href="#DejaVuSans-32"/>
       <use xlink:href="#DejaVuSans-30" transform="translate(63.623047 0)"/>
      </g>
     </g>
    </g>
    <g id="xtick_4">
     <g id="line2d_4">
      <g>
       <use xlink:href="#ma85cb9d171" x="343.54804" y="320.243478" style="stroke: #000000; stroke-width: 0.8"/>
      </g>
     </g>
     <g id="text_4">
      <!-- 30 -->
      <g transform="translate(334.00429 338.641135) scale(0.15 -0.15)">
       <defs>
        <path id="DejaVuSans-33" d="M 2597 2516 
Q 3050 2419 3304 2112 
Q 3559 1806 3559 1356 
Q 3559 666 3084 287 
Q 2609 -91 1734 -91 
Q 1441 -91 1130 -33 
Q 819 25 488 141 
L 488 750 
Q 750 597 1062 519 
Q 1375 441 1716 441 
Q 2309 441 2620 675 
Q 2931 909 2931 1356 
Q 2931 1769 2642 2001 
Q 2353 2234 1838 2234 
L 1294 2234 
L 1294 2753 
L 1863 2753 
Q 2328 2753 2575 2939 
Q 2822 3125 2822 3475 
Q 2822 3834 2567 4026 
Q 2313 4219 1838 4219 
Q 1578 4219 1281 4162 
Q 984 4106 628 3988 
L 628 4550 
Q 988 4650 1302 4700 
Q 1616 4750 1894 4750 
Q 2613 4750 3031 4423 
Q 3450 4097 3450 3541 
Q 3450 3153 3228 2886 
Q 3006 2619 2597 2516 
z
" transform="scale(0.015625)"/>
       </defs>
       <use xlink:href="#DejaVuSans-33"/>
       <use xlink:href="#DejaVuSans-30" transform="translate(63.623047 0)"/>
      </g>
     </g>
    </g>
    <g id="xtick_5">
     <g id="line2d_5">
      <g>
       <use xlink:href="#ma85cb9d171" x="432.320767" y="320.243478" style="stroke: #000000; stroke-width: 0.8"/>
      </g>
     </g>
     <g id="text_5">
      <!-- 40 -->
      <g transform="translate(422.777017 338.641135) scale(0.15 -0.15)">
       <defs>
        <path id="DejaVuSans-34" d="M 2419 4116 
L 825 1625 
L 2419 1625 
L 2419 4116 
z
M 2253 4666 
L 3047 4666 
L 3047 1625 
L 3713 1625 
L 3713 1100 
L 3047 1100 
L 3047 0 
L 2419 0 
L 2419 1100 
L 313 1100 
L 313 1709 
L 2253 4666 
z
" transform="scale(0.015625)"/>
       </defs>
       <use xlink:href="#DejaVuSans-34"/>
       <use xlink:href="#DejaVuSans-30" transform="translate(63.623047 0)"/>
      </g>
     </g>
    </g>
    <g id="text_6">
     <!-- time [hr] -->
     <g transform="translate(209.700781 359.437853) scale(0.18 -0.18)">
      <defs>
       <path id="DejaVuSans-Bold-74" d="M 1759 4494 
L 1759 3500 
L 2913 3500 
L 2913 2700 
L 1759 2700 
L 1759 1216 
Q 1759 972 1856 886 
Q 1953 800 2241 800 
L 2816 800 
L 2816 0 
L 1856 0 
Q 1194 0 917 276 
Q 641 553 641 1216 
L 641 2700 
L 84 2700 
L 84 3500 
L 641 3500 
L 641 4494 
L 1759 4494 
z
" transform="scale(0.015625)"/>
       <path id="DejaVuSans-Bold-69" d="M 538 3500 
L 1656 3500 
L 1656 0 
L 538 0 
L 538 3500 
z
M 538 4863 
L 1656 4863 
L 1656 3950 
L 538 3950 
L 538 4863 
z
" transform="scale(0.015625)"/>
       <path id="DejaVuSans-Bold-6d" d="M 3781 2919 
Q 3994 3244 4286 3414 
Q 4578 3584 4928 3584 
Q 5531 3584 5847 3212 
Q 6163 2841 6163 2131 
L 6163 0 
L 5038 0 
L 5038 1825 
Q 5041 1866 5042 1909 
Q 5044 1953 5044 2034 
Q 5044 2406 4934 2573 
Q 4825 2741 4581 2741 
Q 4263 2741 4089 2478 
Q 3916 2216 3909 1719 
L 3909 0 
L 2784 0 
L 2784 1825 
Q 2784 2406 2684 2573 
Q 2584 2741 2328 2741 
Q 2006 2741 1831 2477 
Q 1656 2213 1656 1722 
L 1656 0 
L 531 0 
L 531 3500 
L 1656 3500 
L 1656 2988 
Q 1863 3284 2130 3434 
Q 2397 3584 2719 3584 
Q 3081 3584 3359 3409 
Q 3638 3234 3781 2919 
z
" transform="scale(0.015625)"/>
       <path id="DejaVuSans-Bold-65" d="M 4031 1759 
L 4031 1441 
L 1416 1441 
Q 1456 1047 1700 850 
Q 1944 653 2381 653 
Q 2734 653 3104 758 
Q 3475 863 3866 1075 
L 3866 213 
Q 3469 63 3072 -14 
Q 2675 -91 2278 -91 
Q 1328 -91 801 392 
Q 275 875 275 1747 
Q 275 2603 792 3093 
Q 1309 3584 2216 3584 
Q 3041 3584 3536 3087 
Q 4031 2591 4031 1759 
z
M 2881 2131 
Q 2881 2450 2695 2645 
Q 2509 2841 2209 2841 
Q 1884 2841 1681 2658 
Q 1478 2475 1428 2131 
L 2881 2131 
z
" transform="scale(0.015625)"/>
       <path id="DejaVuSans-Bold-20" transform="scale(0.015625)"/>
       <path id="DejaVuSans-Bold-5b" d="M 550 4863 
L 2491 4863 
L 2491 4159 
L 1613 4159 
L 1613 -141 
L 2491 -141 
L 2491 -844 
L 550 -844 
L 550 4863 
z
" transform="scale(0.015625)"/>
       <path id="DejaVuSans-Bold-68" d="M 4056 2131 
L 4056 0 
L 2931 0 
L 2931 347 
L 2931 1625 
Q 2931 2084 2911 2256 
Q 2891 2428 2841 2509 
Q 2775 2619 2662 2680 
Q 2550 2741 2406 2741 
Q 2056 2741 1856 2470 
Q 1656 2200 1656 1722 
L 1656 0 
L 538 0 
L 538 4863 
L 1656 4863 
L 1656 2988 
Q 1909 3294 2193 3439 
Q 2478 3584 2822 3584 
Q 3428 3584 3742 3212 
Q 4056 2841 4056 2131 
z
" transform="scale(0.015625)"/>
       <path id="DejaVuSans-Bold-72" d="M 3138 2547 
Q 2991 2616 2845 2648 
Q 2700 2681 2553 2681 
Q 2122 2681 1889 2404 
Q 1656 2128 1656 1613 
L 1656 0 
L 538 0 
L 538 3500 
L 1656 3500 
L 1656 2925 
Q 1872 3269 2151 3426 
Q 2431 3584 2822 3584 
Q 2878 3584 2943 3579 
Q 3009 3575 3134 3559 
L 3138 2547 
z
" transform="scale(0.015625)"/>
       <path id="DejaVuSans-Bold-5d" d="M 2375 -844 
L 434 -844 
L 434 -141 
L 1313 -141 
L 1313 4159 
L 434 4159 
L 434 4863 
L 2375 4863 
L 2375 -844 
z
" transform="scale(0.015625)"/>
      </defs>
      <use xlink:href="#DejaVuSans-Bold-74"/>
      <use xlink:href="#DejaVuSans-Bold-69" transform="translate(47.802734 0)"/>
      <use xlink:href="#DejaVuSans-Bold-6d" transform="translate(82.080078 0)"/>
      <use xlink:href="#DejaVuSans-Bold-65" transform="translate(186.279297 0)"/>
      <use xlink:href="#DejaVuSans-Bold-20" transform="translate(254.101562 0)"/>
      <use xlink:href="#DejaVuSans-Bold-5b" transform="translate(288.916016 0)"/>
      <use xlink:href="#DejaVuSans-Bold-68" transform="translate(334.619141 0)"/>
      <use xlink:href="#DejaVuSans-Bold-72" transform="translate(405.810547 0)"/>
      <use xlink:href="#DejaVuSans-Bold-5d" transform="translate(455.126953 0)"/>
     </g>
    </g>
   </g>
   <g id="matplotlib.axis_2">
    <g id="ytick_1">
     <g id="line2d_6">
      <defs>
       <path id="m0be096674f" d="M 0 0 
L -3.5 0 
" style="stroke: #000000; stroke-width: 0.8"/>
      </defs>
      <g>
       <use xlink:href="#m0be096674f" x="59.475313" y="289.176885" style="stroke: #000000; stroke-width: 0.8"/>
      </g>
     </g>
     <g id="text_7">
      <!-- 0.0 -->
      <g transform="translate(28.620625 294.875713) scale(0.15 -0.15)">
       <defs>
        <path id="DejaVuSans-2e" d="M 684 794 
L 1344 794 
L 1344 0 
L 684 0 
L 684 794 
z
" transform="scale(0.015625)"/>
       </defs>
       <use xlink:href="#DejaVuSans-30"/>
       <use xlink:href="#DejaVuSans-2e" transform="translate(63.623047 0)"/>
       <use xlink:href="#DejaVuSans-30" transform="translate(95.410156 0)"/>
      </g>
     </g>
    </g>
    <g id="ytick_2">
     <g id="line2d_7">
      <g>
       <use xlink:href="#m0be096674f" x="59.475313" y="257.971602" style="stroke: #000000; stroke-width: 0.8"/>
      </g>
     </g>
     <g id="text_8">
      <!-- 0.1 -->
      <g transform="translate(28.620625 263.67043) scale(0.15 -0.15)">
       <use xlink:href="#DejaVuSans-30"/>
       <use xlink:href="#DejaVuSans-2e" transform="translate(63.623047 0)"/>
       <use xlink:href="#DejaVuSans-31" transform="translate(95.410156 0)"/>
      </g>
     </g>
    </g>
    <g id="ytick_3">
     <g id="line2d_8">
      <g>
       <use xlink:href="#m0be096674f" x="59.475313" y="226.766318" style="stroke: #000000; stroke-width: 0.8"/>
      </g>
     </g>
     <g id="text_9">
      <!-- 0.2 -->
      <g transform="translate(28.620625 232.465146) scale(0.15 -0.15)">
       <use xlink:href="#DejaVuSans-30"/>
       <use xlink:href="#DejaVuSans-2e" transform="translate(63.623047 0)"/>
       <use xlink:href="#DejaVuSans-32" transform="translate(95.410156 0)"/>
      </g>
     </g>
    </g>
    <g id="ytick_4">
     <g id="line2d_9">
      <g>
       <use xlink:href="#m0be096674f" x="59.475313" y="195.561035" style="stroke: #000000; stroke-width: 0.8"/>
      </g>
     </g>
     <g id="text_10">
      <!-- 0.3 -->
      <g transform="translate(28.620625 201.259863) scale(0.15 -0.15)">
       <use xlink:href="#DejaVuSans-30"/>
       <use xlink:href="#DejaVuSans-2e" transform="translate(63.623047 0)"/>
       <use xlink:href="#DejaVuSans-33" transform="translate(95.410156 0)"/>
      </g>
     </g>
    </g>
    <g id="ytick_5">
     <g id="line2d_10">
      <g>
       <use xlink:href="#m0be096674f" x="59.475313" y="164.355751" style="stroke: #000000; stroke-width: 0.8"/>
      </g>
     </g>
     <g id="text_11">
      <!-- 0.4 -->
      <g transform="translate(28.620625 170.054579) scale(0.15 -0.15)">
       <use xlink:href="#DejaVuSans-30"/>
       <use xlink:href="#DejaVuSans-2e" transform="translate(63.623047 0)"/>
       <use xlink:href="#DejaVuSans-34" transform="translate(95.410156 0)"/>
      </g>
     </g>
    </g>
    <g id="ytick_6">
     <g id="line2d_11">
      <g>
       <use xlink:href="#m0be096674f" x="59.475313" y="133.150468" style="stroke: #000000; stroke-width: 0.8"/>
      </g>
     </g>
     <g id="text_12">
      <!-- 0.5 -->
      <g transform="translate(28.620625 138.849296) scale(0.15 -0.15)">
       <defs>
        <path id="DejaVuSans-35" d="M 691 4666 
L 3169 4666 
L 3169 4134 
L 1269 4134 
L 1269 2991 
Q 1406 3038 1543 3061 
Q 1681 3084 1819 3084 
Q 2600 3084 3056 2656 
Q 3513 2228 3513 1497 
Q 3513 744 3044 326 
Q 2575 -91 1722 -91 
Q 1428 -91 1123 -41 
Q 819 9 494 109 
L 494 744 
Q 775 591 1075 516 
Q 1375 441 1709 441 
Q 2250 441 2565 725 
Q 2881 1009 2881 1497 
Q 2881 1984 2565 2268 
Q 2250 2553 1709 2553 
Q 1456 2553 1204 2497 
Q 953 2441 691 2322 
L 691 4666 
z
" transform="scale(0.015625)"/>
       </defs>
       <use xlink:href="#DejaVuSans-30"/>
       <use xlink:href="#DejaVuSans-2e" transform="translate(63.623047 0)"/>
       <use xlink:href="#DejaVuSans-35" transform="translate(95.410156 0)"/>
      </g>
     </g>
    </g>
    <g id="ytick_7">
     <g id="line2d_12">
      <g>
       <use xlink:href="#m0be096674f" x="59.475313" y="101.945184" style="stroke: #000000; stroke-width: 0.8"/>
      </g>
     </g>
     <g id="text_13">
      <!-- 0.6 -->
      <g transform="translate(28.620625 107.644012) scale(0.15 -0.15)">
       <defs>
        <path id="DejaVuSans-36" d="M 2113 2584 
Q 1688 2584 1439 2293 
Q 1191 2003 1191 1497 
Q 1191 994 1439 701 
Q 1688 409 2113 409 
Q 2538 409 2786 701 
Q 3034 994 3034 1497 
Q 3034 2003 2786 2293 
Q 2538 2584 2113 2584 
z
M 3366 4563 
L 3366 3988 
Q 3128 4100 2886 4159 
Q 2644 4219 2406 4219 
Q 1781 4219 1451 3797 
Q 1122 3375 1075 2522 
Q 1259 2794 1537 2939 
Q 1816 3084 2150 3084 
Q 2853 3084 3261 2657 
Q 3669 2231 3669 1497 
Q 3669 778 3244 343 
Q 2819 -91 2113 -91 
Q 1303 -91 875 529 
Q 447 1150 447 2328 
Q 447 3434 972 4092 
Q 1497 4750 2381 4750 
Q 2619 4750 2861 4703 
Q 3103 4656 3366 4563 
z
" transform="scale(0.015625)"/>
       </defs>
       <use xlink:href="#DejaVuSans-30"/>
       <use xlink:href="#DejaVuSans-2e" transform="translate(63.623047 0)"/>
       <use xlink:href="#DejaVuSans-36" transform="translate(95.410156 0)"/>
      </g>
     </g>
    </g>
    <g id="text_14">
     <!-- Xa inhibition [-] -->
     <g transform="translate(20.877187 279.450489) rotate(-90) scale(0.18 -0.18)">
      <defs>
       <path id="DejaVuSans-Bold-58" d="M 3188 2381 
L 4806 0 
L 3553 0 
L 2463 1594 
L 1381 0 
L 122 0 
L 1741 2381 
L 184 4666 
L 1441 4666 
L 2463 3163 
L 3481 4666 
L 4744 4666 
L 3188 2381 
z
" transform="scale(0.015625)"/>
       <path id="DejaVuSans-Bold-61" d="M 2106 1575 
Q 1756 1575 1579 1456 
Q 1403 1338 1403 1106 
Q 1403 894 1545 773 
Q 1688 653 1941 653 
Q 2256 653 2472 879 
Q 2688 1106 2688 1447 
L 2688 1575 
L 2106 1575 
z
M 3816 1997 
L 3816 0 
L 2688 0 
L 2688 519 
Q 2463 200 2181 54 
Q 1900 -91 1497 -91 
Q 953 -91 614 226 
Q 275 544 275 1050 
Q 275 1666 698 1953 
Q 1122 2241 2028 2241 
L 2688 2241 
L 2688 2328 
Q 2688 2594 2478 2717 
Q 2269 2841 1825 2841 
Q 1466 2841 1156 2769 
Q 847 2697 581 2553 
L 581 3406 
Q 941 3494 1303 3539 
Q 1666 3584 2028 3584 
Q 2975 3584 3395 3211 
Q 3816 2838 3816 1997 
z
" transform="scale(0.015625)"/>
       <path id="DejaVuSans-Bold-6e" d="M 4056 2131 
L 4056 0 
L 2931 0 
L 2931 347 
L 2931 1631 
Q 2931 2084 2911 2256 
Q 2891 2428 2841 2509 
Q 2775 2619 2662 2680 
Q 2550 2741 2406 2741 
Q 2056 2741 1856 2470 
Q 1656 2200 1656 1722 
L 1656 0 
L 538 0 
L 538 3500 
L 1656 3500 
L 1656 2988 
Q 1909 3294 2193 3439 
Q 2478 3584 2822 3584 
Q 3428 3584 3742 3212 
Q 4056 2841 4056 2131 
z
" transform="scale(0.015625)"/>
       <path id="DejaVuSans-Bold-62" d="M 2400 722 
Q 2759 722 2948 984 
Q 3138 1247 3138 1747 
Q 3138 2247 2948 2509 
Q 2759 2772 2400 2772 
Q 2041 2772 1848 2508 
Q 1656 2244 1656 1747 
Q 1656 1250 1848 986 
Q 2041 722 2400 722 
z
M 1656 2988 
Q 1888 3294 2169 3439 
Q 2450 3584 2816 3584 
Q 3463 3584 3878 3070 
Q 4294 2556 4294 1747 
Q 4294 938 3878 423 
Q 3463 -91 2816 -91 
Q 2450 -91 2169 54 
Q 1888 200 1656 506 
L 1656 0 
L 538 0 
L 538 4863 
L 1656 4863 
L 1656 2988 
z
" transform="scale(0.015625)"/>
       <path id="DejaVuSans-Bold-6f" d="M 2203 2784 
Q 1831 2784 1636 2517 
Q 1441 2250 1441 1747 
Q 1441 1244 1636 976 
Q 1831 709 2203 709 
Q 2569 709 2762 976 
Q 2956 1244 2956 1747 
Q 2956 2250 2762 2517 
Q 2569 2784 2203 2784 
z
M 2203 3584 
Q 3106 3584 3614 3096 
Q 4122 2609 4122 1747 
Q 4122 884 3614 396 
Q 3106 -91 2203 -91 
Q 1297 -91 786 396 
Q 275 884 275 1747 
Q 275 2609 786 3096 
Q 1297 3584 2203 3584 
z
" transform="scale(0.015625)"/>
       <path id="DejaVuSans-Bold-2d" d="M 347 2297 
L 2309 2297 
L 2309 1388 
L 347 1388 
L 347 2297 
z
" transform="scale(0.015625)"/>
      </defs>
      <use xlink:href="#DejaVuSans-Bold-58"/>
      <use xlink:href="#DejaVuSans-Bold-61" transform="translate(77.099609 0)"/>
      <use xlink:href="#DejaVuSans-Bold-20" transform="translate(144.580078 0)"/>
      <use xlink:href="#DejaVuSans-Bold-69" transform="translate(179.394531 0)"/>
      <use xlink:href="#DejaVuSans-Bold-6e" transform="translate(213.671875 0)"/>
      <use xlink:href="#DejaVuSans-Bold-68" transform="translate(284.863281 0)"/>
      <use xlink:href="#DejaVuSans-Bold-69" transform="translate(356.054688 0)"/>
      <use xlink:href="#DejaVuSans-Bold-62" transform="translate(390.332031 0)"/>
      <use xlink:href="#DejaVuSans-Bold-69" transform="translate(461.914062 0)"/>
      <use xlink:href="#DejaVuSans-Bold-74" transform="translate(496.191406 0)"/>
      <use xlink:href="#DejaVuSans-Bold-69" transform="translate(543.994141 0)"/>
      <use xlink:href="#DejaVuSans-Bold-6f" transform="translate(578.271484 0)"/>
      <use xlink:href="#DejaVuSans-Bold-6e" transform="translate(646.972656 0)"/>
      <use xlink:href="#DejaVuSans-Bold-20" transform="translate(718.164062 0)"/>
      <use xlink:href="#DejaVuSans-Bold-5b" transform="translate(752.978516 0)"/>
      <use xlink:href="#DejaVuSans-Bold-2d" transform="translate(798.681641 0)"/>
      <use xlink:href="#DejaVuSans-Bold-5d" transform="translate(840.185547 0)"/>
     </g>
    </g>
   </g>
   <g id="LineCollection_1">
    <path d="M 77.229858 305.588553 
L 77.229858 268.604513 
" clip-path="url(#pfa7d142328)" style="fill: none; stroke: #000000"/>
    <path d="M 94.938288 300.503247 
L 94.938288 277.850523 
" clip-path="url(#pfa7d142328)" style="fill: none; stroke: #000000"/>
    <path d="M 112.646717 306.513154 
L 112.646717 267.679912 
" clip-path="url(#pfa7d142328)" style="fill: none; stroke: #000000"/>
    <path d="M 130.355147 298.654045 
L 130.355147 279.699725 
" clip-path="url(#pfa7d142328)" style="fill: none; stroke: #000000"/>
    <path d="M 148.063577 304.201651 
L 148.063577 274.152119 
" clip-path="url(#pfa7d142328)" style="fill: none; stroke: #000000"/>
    <path d="M 166.325395 289.176885 
L 166.325395 289.176885 
" clip-path="url(#pfa7d142328)" style="fill: none; stroke: #000000"/>
    <path d="M 184.033825 304.201651 
L 184.033825 274.152119 
" clip-path="url(#pfa7d142328)" style="fill: none; stroke: #000000"/>
    <path d="M 290.284403 289.176885 
L 290.284403 289.176885 
" clip-path="url(#pfa7d142328)" style="fill: none; stroke: #000000"/>
   </g>
   <g id="LineCollection_2">
    <path d="M 77.229858 307.437755 
L 77.229858 268.604513 
" clip-path="url(#pfa7d142328)" style="fill: none; stroke: #ffdab9"/>
    <path d="M 95.491676 232.545074 
L 95.491676 180.767419 
" clip-path="url(#pfa7d142328)" style="fill: none; stroke: #ffdab9"/>
    <path d="M 112.646717 239.017281 
L 112.646717 214.977655 
" clip-path="url(#pfa7d142328)" style="fill: none; stroke: #ffdab9"/>
    <path d="M 130.355147 256.5847 
L 130.355147 228.84667 
" clip-path="url(#pfa7d142328)" style="fill: none; stroke: #ffdab9"/>
    <path d="M 148.063577 273.227518 
L 148.063577 232.545074 
" clip-path="url(#pfa7d142328)" style="fill: none; stroke: #ffdab9"/>
    <path d="M 166.325395 292.644139 
L 166.325395 257.509301 
" clip-path="url(#pfa7d142328)" style="fill: none; stroke: #ffdab9"/>
    <path d="M 184.033825 297.267144 
L 184.033825 252.886296 
" clip-path="url(#pfa7d142328)" style="fill: none; stroke: #ffdab9"/>
    <path d="M 290.284403 300.040947 
L 290.284403 277.850523 
" clip-path="url(#pfa7d142328)" style="fill: none; stroke: #ffdab9"/>
   </g>
   <g id="LineCollection_3">
    <path d="M 77.229858 309.286957 
L 77.229858 268.604513 
" clip-path="url(#pfa7d142328)" style="fill: none; stroke: #d25100"/>
    <path d="M 95.491676 138.235773 
L 95.491676 90.156522 
" clip-path="url(#pfa7d142328)" style="fill: none; stroke: #d25100"/>
    <path d="M 112.646717 170.596808 
L 112.646717 105.874739 
" clip-path="url(#pfa7d142328)" style="fill: none; stroke: #d25100"/>
    <path d="M 130.355147 190.93803 
L 130.355147 139.160374 
" clip-path="url(#pfa7d142328)" style="fill: none; stroke: #d25100"/>
    <path d="M 148.063577 219.60066 
L 148.063577 173.370611 
" clip-path="url(#pfa7d142328)" style="fill: none; stroke: #d25100"/>
    <path d="M 166.325395 228.84667 
L 166.325395 201.108641 
" clip-path="url(#pfa7d142328)" style="fill: none; stroke: #d25100"/>
    <path d="M 184.033825 247.33869 
L 184.033825 214.053054 
" clip-path="url(#pfa7d142328)" style="fill: none; stroke: #d25100"/>
    <path d="M 290.284403 298.191745 
L 290.284403 244.564887 
" clip-path="url(#pfa7d142328)" style="fill: none; stroke: #d25100"/>
   </g>
   <g id="line2d_13">
    <path d="M 77.229858 289.176885 
L 432.320767 289.176885 
L 432.320767 289.176885 
" clip-path="url(#pfa7d142328)" style="fill: none; stroke: #000000; stroke-width: 2; stroke-linecap: square"/>
   </g>
   <g id="line2d_14">
    <path d="M 77.229858 287.096533 
L 94.938288 289.176885 
L 112.646717 287.096533 
L 130.355147 289.176885 
L 148.063577 289.176885 
L 166.325395 289.176885 
L 184.033825 289.176885 
L 290.284403 289.176885 
" clip-path="url(#pfa7d142328)" style="fill: none; stroke-dasharray: 3.7,1.6; stroke-dashoffset: 0; stroke: #000000"/>
    <defs>
     <path id="m6b48c61299" d="M -3 3 
L 3 3 
L 3 -3 
L -3 -3 
z
" style="stroke: #000000; stroke-linejoin: miter"/>
    </defs>
    <g clip-path="url(#pfa7d142328)">
     <use xlink:href="#m6b48c61299" x="77.229858" y="287.096533" style="stroke: #000000; stroke-linejoin: miter"/>
     <use xlink:href="#m6b48c61299" x="94.938288" y="289.176885" style="stroke: #000000; stroke-linejoin: miter"/>
     <use xlink:href="#m6b48c61299" x="112.646717" y="287.096533" style="stroke: #000000; stroke-linejoin: miter"/>
     <use xlink:href="#m6b48c61299" x="130.355147" y="289.176885" style="stroke: #000000; stroke-linejoin: miter"/>
     <use xlink:href="#m6b48c61299" x="148.063577" y="289.176885" style="stroke: #000000; stroke-linejoin: miter"/>
     <use xlink:href="#m6b48c61299" x="166.325395" y="289.176885" style="stroke: #000000; stroke-linejoin: miter"/>
     <use xlink:href="#m6b48c61299" x="184.033825" y="289.176885" style="stroke: #000000; stroke-linejoin: miter"/>
     <use xlink:href="#m6b48c61299" x="290.284403" y="289.176885" style="stroke: #000000; stroke-linejoin: miter"/>
    </g>
   </g>
   <g id="line2d_15">
    <path d="M 77.229858 289.176885 
L 77.584949 288.964212 
L 77.94004 288.156813 
L 78.650222 285.082705 
L 79.715494 278.349651 
L 82.556222 258.966936 
L 83.976585 251.167793 
L 85.041858 246.358747 
L 86.107131 242.36601 
L 87.172403 239.092722 
L 88.237676 236.439968 
L 89.302949 234.316243 
L 90.368222 232.64079 
L 91.433494 231.34406 
L 92.498767 230.366925 
L 93.56404 229.659453 
L 94.629312 229.179595 
L 96.049676 228.833514 
L 97.47004 228.760973 
L 98.890403 228.907092 
L 100.665858 229.331211 
L 102.796403 230.107967 
L 105.28204 231.276681 
L 108.477858 233.048984 
L 113.09404 235.898066 
L 131.913858 247.797668 
L 138.660585 251.673128 
L 145.052222 255.087595 
L 151.443858 258.250299 
L 157.835494 261.167096 
L 164.227131 263.847581 
L 170.973858 266.433471 
L 177.720585 268.784009 
L 184.822403 271.021213 
L 192.279313 273.128493 
L 200.091313 275.093113 
L 208.258403 276.906281 
L 216.780585 278.56307 
L 225.657858 280.062201 
L 235.245313 281.453353 
L 245.542949 282.719399 
L 256.550767 283.850066 
L 268.623858 284.868551 
L 282.117313 285.781937 
L 297.386222 286.587104 
L 314.785676 287.276622 
L 335.380949 287.861081 
L 360.237313 288.333425 
L 391.840403 288.698216 
L 432.320767 288.945439 
L 432.320767 288.945439 
" clip-path="url(#pfa7d142328)" style="fill: none; stroke: #ffdab9; stroke-width: 2; stroke-linecap: square"/>
   </g>
   <g id="line2d_16">
    <path d="M 77.229858 288.021134 
L 95.491676 206.656247 
L 112.646717 226.997468 
L 130.355147 242.715685 
L 148.063577 252.886296 
L 166.325395 275.07672 
L 184.033825 275.07672 
L 290.284403 288.945735 
" clip-path="url(#pfa7d142328)" style="fill: none; stroke-dasharray: 3.7,1.6; stroke-dashoffset: 0; stroke: #ffdab9"/>
    <defs>
     <path id="m155f09dabb" d="M -3 3 
L 3 3 
L 3 -3 
L -3 -3 
z
" style="stroke: #000000; stroke-linejoin: miter"/>
    </defs>
    <g clip-path="url(#pfa7d142328)">
     <use xlink:href="#m155f09dabb" x="77.229858" y="288.021134" style="fill: #ffdab9; stroke: #000000; stroke-linejoin: miter"/>
     <use xlink:href="#m155f09dabb" x="95.491676" y="206.656247" style="fill: #ffdab9; stroke: #000000; stroke-linejoin: miter"/>
     <use xlink:href="#m155f09dabb" x="112.646717" y="226.997468" style="fill: #ffdab9; stroke: #000000; stroke-linejoin: miter"/>
     <use xlink:href="#m155f09dabb" x="130.355147" y="242.715685" style="fill: #ffdab9; stroke: #000000; stroke-linejoin: miter"/>
     <use xlink:href="#m155f09dabb" x="148.063577" y="252.886296" style="fill: #ffdab9; stroke: #000000; stroke-linejoin: miter"/>
     <use xlink:href="#m155f09dabb" x="166.325395" y="275.07672" style="fill: #ffdab9; stroke: #000000; stroke-linejoin: miter"/>
     <use xlink:href="#m155f09dabb" x="184.033825" y="275.07672" style="fill: #ffdab9; stroke: #000000; stroke-linejoin: miter"/>
     <use xlink:href="#m155f09dabb" x="290.284403" y="288.945735" style="fill: #ffdab9; stroke: #000000; stroke-linejoin: miter"/>
    </g>
   </g>
   <g id="line2d_17">
    <path d="M 77.229858 289.176885 
L 77.584949 287.907151 
L 77.94004 283.198862 
L 78.650222 266.755611 
L 80.425676 219.72617 
L 81.490949 198.525783 
L 82.556222 182.898555 
L 83.621494 171.460614 
L 84.686767 163.022943 
L 85.75204 156.728281 
L 86.817312 151.984592 
L 87.882585 148.384135 
L 88.947858 145.642734 
L 90.013131 143.558895 
L 91.078403 141.987063 
L 92.143676 140.820134 
L 93.208949 139.977911 
L 94.274222 139.399358 
L 95.339494 139.037326 
L 96.759858 138.828739 
L 98.180222 138.873046 
L 99.600585 139.119931 
L 101.37604 139.655916 
L 103.506585 140.560453 
L 105.992222 141.889702 
L 108.832949 143.677101 
L 112.383858 146.201878 
L 116.644949 149.530478 
L 121.971312 154.001804 
L 128.362949 159.668612 
L 136.53004 167.213347 
L 148.603131 178.704583 
L 171.328949 200.385748 
L 180.916403 209.192294 
L 189.083494 216.40264 
L 196.540403 222.698549 
L 203.642222 228.405471 
L 210.388949 233.543757 
L 216.780585 238.143758 
L 223.172222 242.475504 
L 229.563858 246.535717 
L 235.955494 250.324863 
L 242.347131 253.846684 
L 248.738767 257.107681 
L 255.130403 260.116616 
L 261.52204 262.884013 
L 268.268767 265.556206 
L 275.015494 267.98746 
L 282.117313 270.303569 
L 289.219131 272.388549 
L 296.67604 274.349147 
L 304.48804 276.174152 
L 312.655131 277.856023 
L 321.532403 279.450246 
L 330.764767 280.880276 
L 340.707313 282.194103 
L 351.36004 283.378284 
L 363.07804 284.455558 
L 376.216403 285.431526 
L 390.775131 286.282438 
L 407.109312 287.011586 
L 426.284222 287.638468 
L 432.320767 287.795677 
L 432.320767 287.795677 
" clip-path="url(#pfa7d142328)" style="fill: none; stroke: #d25100; stroke-width: 2; stroke-linecap: square"/>
   </g>
   <g id="line2d_18">
    <path d="M 77.229858 288.945735 
L 95.491676 114.196147 
L 112.646717 138.235773 
L 130.355147 165.049202 
L 148.063577 196.485636 
L 166.325395 214.977655 
L 184.033825 230.695872 
L 290.284403 271.378316 
" clip-path="url(#pfa7d142328)" style="fill: none; stroke-dasharray: 3.7,1.6; stroke-dashoffset: 0; stroke: #d25100"/>
    <defs>
     <path id="m360960104b" d="M -3 3 
L 3 3 
L 3 -3 
L -3 -3 
z
" style="stroke: #000000; stroke-linejoin: miter"/>
    </defs>
    <g clip-path="url(#pfa7d142328)">
     <use xlink:href="#m360960104b" x="77.229858" y="288.945735" style="fill: #d25100; stroke: #000000; stroke-linejoin: miter"/>
     <use xlink:href="#m360960104b" x="95.491676" y="114.196147" style="fill: #d25100; stroke: #000000; stroke-linejoin: miter"/>
     <use xlink:href="#m360960104b" x="112.646717" y="138.235773" style="fill: #d25100; stroke: #000000; stroke-linejoin: miter"/>
     <use xlink:href="#m360960104b" x="130.355147" y="165.049202" style="fill: #d25100; stroke: #000000; stroke-linejoin: miter"/>
     <use xlink:href="#m360960104b" x="148.063577" y="196.485636" style="fill: #d25100; stroke: #000000; stroke-linejoin: miter"/>
     <use xlink:href="#m360960104b" x="166.325395" y="214.977655" style="fill: #d25100; stroke: #000000; stroke-linejoin: miter"/>
     <use xlink:href="#m360960104b" x="184.033825" y="230.695872" style="fill: #d25100; stroke: #000000; stroke-linejoin: miter"/>
     <use xlink:href="#m360960104b" x="290.284403" y="271.378316" style="fill: #d25100; stroke: #000000; stroke-linejoin: miter"/>
    </g>
   </g>
   <g id="patch_3">
    <path d="M 59.475313 320.243478 
L 59.475313 79.2 
" style="fill: none; stroke: #000000; stroke-width: 0.8; stroke-linejoin: miter; stroke-linecap: square"/>
   </g>
   <g id="patch_4">
    <path d="M 450.075312 320.243478 
L 450.075312 79.2 
" style="fill: none; stroke: #000000; stroke-width: 0.8; stroke-linejoin: miter; stroke-linecap: square"/>
   </g>
   <g id="patch_5">
    <path d="M 59.475312 320.243478 
L 450.075313 320.243478 
" style="fill: none; stroke: #000000; stroke-width: 0.8; stroke-linejoin: miter; stroke-linecap: square"/>
   </g>
   <g id="patch_6">
    <path d="M 59.475312 79.2 
L 450.075313 79.2 
" style="fill: none; stroke: #000000; stroke-width: 0.8; stroke-linejoin: miter; stroke-linecap: square"/>
   </g>
   <g id="legend_1">
    <g id="patch_7">
     <path d="M 259.089375 175.26875 
L 443.075312 175.26875 
Q 445.075312 175.26875 445.075312 173.26875 
L 445.075312 86.2 
Q 445.075312 84.2 443.075312 84.2 
L 259.089375 84.2 
Q 257.089375 84.2 257.089375 86.2 
L 257.089375 173.26875 
Q 257.089375 175.26875 259.089375 175.26875 
z
" style="fill: #ffffff; opacity: 0.8; stroke: #cccccc; stroke-linejoin: miter"/>
    </g>
    <g id="line2d_19">
     <path d="M 261.089375 92.298437 
L 281.089375 92.298437 
" style="fill: none; stroke: #000000; stroke-width: 2; stroke-linecap: square"/>
    </g>
    <g id="line2d_20"/>
    <g id="text_15">
     <!-- Placebo -->
     <g transform="translate(289.089375 95.798437) scale(0.1 -0.1)">
      <defs>
       <path id="DejaVuSans-50" d="M 1259 4147 
L 1259 2394 
L 2053 2394 
Q 2494 2394 2734 2622 
Q 2975 2850 2975 3272 
Q 2975 3691 2734 3919 
Q 2494 4147 2053 4147 
L 1259 4147 
z
M 628 4666 
L 2053 4666 
Q 2838 4666 3239 4311 
Q 3641 3956 3641 3272 
Q 3641 2581 3239 2228 
Q 2838 1875 2053 1875 
L 1259 1875 
L 1259 0 
L 628 0 
L 628 4666 
z
" transform="scale(0.015625)"/>
       <path id="DejaVuSans-6c" d="M 603 4863 
L 1178 4863 
L 1178 0 
L 603 0 
L 603 4863 
z
" transform="scale(0.015625)"/>
       <path id="DejaVuSans-61" d="M 2194 1759 
Q 1497 1759 1228 1600 
Q 959 1441 959 1056 
Q 959 750 1161 570 
Q 1363 391 1709 391 
Q 2188 391 2477 730 
Q 2766 1069 2766 1631 
L 2766 1759 
L 2194 1759 
z
M 3341 1997 
L 3341 0 
L 2766 0 
L 2766 531 
Q 2569 213 2275 61 
Q 1981 -91 1556 -91 
Q 1019 -91 701 211 
Q 384 513 384 1019 
Q 384 1609 779 1909 
Q 1175 2209 1959 2209 
L 2766 2209 
L 2766 2266 
Q 2766 2663 2505 2880 
Q 2244 3097 1772 3097 
Q 1472 3097 1187 3025 
Q 903 2953 641 2809 
L 641 3341 
Q 956 3463 1253 3523 
Q 1550 3584 1831 3584 
Q 2591 3584 2966 3190 
Q 3341 2797 3341 1997 
z
" transform="scale(0.015625)"/>
       <path id="DejaVuSans-63" d="M 3122 3366 
L 3122 2828 
Q 2878 2963 2633 3030 
Q 2388 3097 2138 3097 
Q 1578 3097 1268 2742 
Q 959 2388 959 1747 
Q 959 1106 1268 751 
Q 1578 397 2138 397 
Q 2388 397 2633 464 
Q 2878 531 3122 666 
L 3122 134 
Q 2881 22 2623 -34 
Q 2366 -91 2075 -91 
Q 1284 -91 818 406 
Q 353 903 353 1747 
Q 353 2603 823 3093 
Q 1294 3584 2113 3584 
Q 2378 3584 2631 3529 
Q 2884 3475 3122 3366 
z
" transform="scale(0.015625)"/>
       <path id="DejaVuSans-65" d="M 3597 1894 
L 3597 1613 
L 953 1613 
Q 991 1019 1311 708 
Q 1631 397 2203 397 
Q 2534 397 2845 478 
Q 3156 559 3463 722 
L 3463 178 
Q 3153 47 2828 -22 
Q 2503 -91 2169 -91 
Q 1331 -91 842 396 
Q 353 884 353 1716 
Q 353 2575 817 3079 
Q 1281 3584 2069 3584 
Q 2775 3584 3186 3129 
Q 3597 2675 3597 1894 
z
M 3022 2063 
Q 3016 2534 2758 2815 
Q 2500 3097 2075 3097 
Q 1594 3097 1305 2825 
Q 1016 2553 972 2059 
L 3022 2063 
z
" transform="scale(0.015625)"/>
       <path id="DejaVuSans-62" d="M 3116 1747 
Q 3116 2381 2855 2742 
Q 2594 3103 2138 3103 
Q 1681 3103 1420 2742 
Q 1159 2381 1159 1747 
Q 1159 1113 1420 752 
Q 1681 391 2138 391 
Q 2594 391 2855 752 
Q 3116 1113 3116 1747 
z
M 1159 2969 
Q 1341 3281 1617 3432 
Q 1894 3584 2278 3584 
Q 2916 3584 3314 3078 
Q 3713 2572 3713 1747 
Q 3713 922 3314 415 
Q 2916 -91 2278 -91 
Q 1894 -91 1617 61 
Q 1341 213 1159 525 
L 1159 0 
L 581 0 
L 581 4863 
L 1159 4863 
L 1159 2969 
z
" transform="scale(0.015625)"/>
       <path id="DejaVuSans-6f" d="M 1959 3097 
Q 1497 3097 1228 2736 
Q 959 2375 959 1747 
Q 959 1119 1226 758 
Q 1494 397 1959 397 
Q 2419 397 2687 759 
Q 2956 1122 2956 1747 
Q 2956 2369 2687 2733 
Q 2419 3097 1959 3097 
z
M 1959 3584 
Q 2709 3584 3137 3096 
Q 3566 2609 3566 1747 
Q 3566 888 3137 398 
Q 2709 -91 1959 -91 
Q 1206 -91 779 398 
Q 353 888 353 1747 
Q 353 2609 779 3096 
Q 1206 3584 1959 3584 
z
" transform="scale(0.015625)"/>
      </defs>
      <use xlink:href="#DejaVuSans-50"/>
      <use xlink:href="#DejaVuSans-6c" transform="translate(60.302734 0)"/>
      <use xlink:href="#DejaVuSans-61" transform="translate(88.085938 0)"/>
      <use xlink:href="#DejaVuSans-63" transform="translate(149.365234 0)"/>
      <use xlink:href="#DejaVuSans-65" transform="translate(204.345703 0)"/>
      <use xlink:href="#DejaVuSans-62" transform="translate(265.869141 0)"/>
      <use xlink:href="#DejaVuSans-6f" transform="translate(329.345703 0)"/>
     </g>
    </g>
    <g id="LineCollection_4">
     <path d="M 271.089375 111.976562 
L 271.089375 101.976562 
" style="fill: none; stroke: #000000"/>
    </g>
    <g id="line2d_21">
     <path d="M 261.089375 106.976562 
L 281.089375 106.976562 
" style="fill: none; stroke-dasharray: 3.7,1.6; stroke-dashoffset: 0; stroke: #000000"/>
    </g>
    <g id="line2d_22">
     <g>
      <use xlink:href="#m6b48c61299" x="271.089375" y="106.976562" style="stroke: #000000; stroke-linejoin: miter"/>
     </g>
    </g>
    <g id="text_16">
     <!-- Placebo±SD (n=4) -->
     <g transform="translate(289.089375 110.476562) scale(0.1 -0.1)">
      <defs>
       <path id="DejaVuSans-b1" d="M 2944 4013 
L 2944 2803 
L 4684 2803 
L 4684 2272 
L 2944 2272 
L 2944 1063 
L 2419 1063 
L 2419 2272 
L 678 2272 
L 678 2803 
L 2419 2803 
L 2419 4013 
L 2944 4013 
z
M 678 531 
L 4684 531 
L 4684 0 
L 678 0 
L 678 531 
z
" transform="scale(0.015625)"/>
       <path id="DejaVuSans-53" d="M 3425 4513 
L 3425 3897 
Q 3066 4069 2747 4153 
Q 2428 4238 2131 4238 
Q 1616 4238 1336 4038 
Q 1056 3838 1056 3469 
Q 1056 3159 1242 3001 
Q 1428 2844 1947 2747 
L 2328 2669 
Q 3034 2534 3370 2195 
Q 3706 1856 3706 1288 
Q 3706 609 3251 259 
Q 2797 -91 1919 -91 
Q 1588 -91 1214 -16 
Q 841 59 441 206 
L 441 856 
Q 825 641 1194 531 
Q 1563 422 1919 422 
Q 2459 422 2753 634 
Q 3047 847 3047 1241 
Q 3047 1584 2836 1778 
Q 2625 1972 2144 2069 
L 1759 2144 
Q 1053 2284 737 2584 
Q 422 2884 422 3419 
Q 422 4038 858 4394 
Q 1294 4750 2059 4750 
Q 2388 4750 2728 4690 
Q 3069 4631 3425 4513 
z
" transform="scale(0.015625)"/>
       <path id="DejaVuSans-44" d="M 1259 4147 
L 1259 519 
L 2022 519 
Q 2988 519 3436 956 
Q 3884 1394 3884 2338 
Q 3884 3275 3436 3711 
Q 2988 4147 2022 4147 
L 1259 4147 
z
M 628 4666 
L 1925 4666 
Q 3281 4666 3915 4102 
Q 4550 3538 4550 2338 
Q 4550 1131 3912 565 
Q 3275 0 1925 0 
L 628 0 
L 628 4666 
z
" transform="scale(0.015625)"/>
       <path id="DejaVuSans-20" transform="scale(0.015625)"/>
       <path id="DejaVuSans-28" d="M 1984 4856 
Q 1566 4138 1362 3434 
Q 1159 2731 1159 2009 
Q 1159 1288 1364 580 
Q 1569 -128 1984 -844 
L 1484 -844 
Q 1016 -109 783 600 
Q 550 1309 550 2009 
Q 550 2706 781 3412 
Q 1013 4119 1484 4856 
L 1984 4856 
z
" transform="scale(0.015625)"/>
       <path id="DejaVuSans-6e" d="M 3513 2113 
L 3513 0 
L 2938 0 
L 2938 2094 
Q 2938 2591 2744 2837 
Q 2550 3084 2163 3084 
Q 1697 3084 1428 2787 
Q 1159 2491 1159 1978 
L 1159 0 
L 581 0 
L 581 3500 
L 1159 3500 
L 1159 2956 
Q 1366 3272 1645 3428 
Q 1925 3584 2291 3584 
Q 2894 3584 3203 3211 
Q 3513 2838 3513 2113 
z
" transform="scale(0.015625)"/>
       <path id="DejaVuSans-3d" d="M 678 2906 
L 4684 2906 
L 4684 2381 
L 678 2381 
L 678 2906 
z
M 678 1631 
L 4684 1631 
L 4684 1100 
L 678 1100 
L 678 1631 
z
" transform="scale(0.015625)"/>
       <path id="DejaVuSans-29" d="M 513 4856 
L 1013 4856 
Q 1481 4119 1714 3412 
Q 1947 2706 1947 2009 
Q 1947 1309 1714 600 
Q 1481 -109 1013 -844 
L 513 -844 
Q 928 -128 1133 580 
Q 1338 1288 1338 2009 
Q 1338 2731 1133 3434 
Q 928 4138 513 4856 
z
" transform="scale(0.015625)"/>
      </defs>
      <use xlink:href="#DejaVuSans-50"/>
      <use xlink:href="#DejaVuSans-6c" transform="translate(60.302734 0)"/>
      <use xlink:href="#DejaVuSans-61" transform="translate(88.085938 0)"/>
      <use xlink:href="#DejaVuSans-63" transform="translate(149.365234 0)"/>
      <use xlink:href="#DejaVuSans-65" transform="translate(204.345703 0)"/>
      <use xlink:href="#DejaVuSans-62" transform="translate(265.869141 0)"/>
      <use xlink:href="#DejaVuSans-6f" transform="translate(329.345703 0)"/>
      <use xlink:href="#DejaVuSans-b1" transform="translate(390.527344 0)"/>
      <use xlink:href="#DejaVuSans-53" transform="translate(474.316406 0)"/>
      <use xlink:href="#DejaVuSans-44" transform="translate(537.792969 0)"/>
      <use xlink:href="#DejaVuSans-20" transform="translate(614.794922 0)"/>
      <use xlink:href="#DejaVuSans-28" transform="translate(646.582031 0)"/>
      <use xlink:href="#DejaVuSans-6e" transform="translate(685.595703 0)"/>
      <use xlink:href="#DejaVuSans-3d" transform="translate(748.974609 0)"/>
      <use xlink:href="#DejaVuSans-34" transform="translate(832.763672 0)"/>
      <use xlink:href="#DejaVuSans-29" transform="translate(896.386719 0)"/>
     </g>
    </g>
    <g id="line2d_23">
     <path d="M 261.089375 121.654688 
L 281.089375 121.654688 
" style="fill: none; stroke: #ffdab9; stroke-width: 2; stroke-linecap: square"/>
    </g>
    <g id="line2d_24"/>
    <g id="text_17">
     <!-- Rivaroxaban 5 mg -->
     <g transform="translate(289.089375 125.154688) scale(0.1 -0.1)">
      <defs>
       <path id="DejaVuSans-52" d="M 2841 2188 
Q 3044 2119 3236 1894 
Q 3428 1669 3622 1275 
L 4263 0 
L 3584 0 
L 2988 1197 
Q 2756 1666 2539 1819 
Q 2322 1972 1947 1972 
L 1259 1972 
L 1259 0 
L 628 0 
L 628 4666 
L 2053 4666 
Q 2853 4666 3247 4331 
Q 3641 3997 3641 3322 
Q 3641 2881 3436 2590 
Q 3231 2300 2841 2188 
z
M 1259 4147 
L 1259 2491 
L 2053 2491 
Q 2509 2491 2742 2702 
Q 2975 2913 2975 3322 
Q 2975 3731 2742 3939 
Q 2509 4147 2053 4147 
L 1259 4147 
z
" transform="scale(0.015625)"/>
       <path id="DejaVuSans-69" d="M 603 3500 
L 1178 3500 
L 1178 0 
L 603 0 
L 603 3500 
z
M 603 4863 
L 1178 4863 
L 1178 4134 
L 603 4134 
L 603 4863 
z
" transform="scale(0.015625)"/>
       <path id="DejaVuSans-76" d="M 191 3500 
L 800 3500 
L 1894 563 
L 2988 3500 
L 3597 3500 
L 2284 0 
L 1503 0 
L 191 3500 
z
" transform="scale(0.015625)"/>
       <path id="DejaVuSans-72" d="M 2631 2963 
Q 2534 3019 2420 3045 
Q 2306 3072 2169 3072 
Q 1681 3072 1420 2755 
Q 1159 2438 1159 1844 
L 1159 0 
L 581 0 
L 581 3500 
L 1159 3500 
L 1159 2956 
Q 1341 3275 1631 3429 
Q 1922 3584 2338 3584 
Q 2397 3584 2469 3576 
Q 2541 3569 2628 3553 
L 2631 2963 
z
" transform="scale(0.015625)"/>
       <path id="DejaVuSans-78" d="M 3513 3500 
L 2247 1797 
L 3578 0 
L 2900 0 
L 1881 1375 
L 863 0 
L 184 0 
L 1544 1831 
L 300 3500 
L 978 3500 
L 1906 2253 
L 2834 3500 
L 3513 3500 
z
" transform="scale(0.015625)"/>
       <path id="DejaVuSans-6d" d="M 3328 2828 
Q 3544 3216 3844 3400 
Q 4144 3584 4550 3584 
Q 5097 3584 5394 3201 
Q 5691 2819 5691 2113 
L 5691 0 
L 5113 0 
L 5113 2094 
Q 5113 2597 4934 2840 
Q 4756 3084 4391 3084 
Q 3944 3084 3684 2787 
Q 3425 2491 3425 1978 
L 3425 0 
L 2847 0 
L 2847 2094 
Q 2847 2600 2669 2842 
Q 2491 3084 2119 3084 
Q 1678 3084 1418 2786 
Q 1159 2488 1159 1978 
L 1159 0 
L 581 0 
L 581 3500 
L 1159 3500 
L 1159 2956 
Q 1356 3278 1631 3431 
Q 1906 3584 2284 3584 
Q 2666 3584 2933 3390 
Q 3200 3197 3328 2828 
z
" transform="scale(0.015625)"/>
       <path id="DejaVuSans-67" d="M 2906 1791 
Q 2906 2416 2648 2759 
Q 2391 3103 1925 3103 
Q 1463 3103 1205 2759 
Q 947 2416 947 1791 
Q 947 1169 1205 825 
Q 1463 481 1925 481 
Q 2391 481 2648 825 
Q 2906 1169 2906 1791 
z
M 3481 434 
Q 3481 -459 3084 -895 
Q 2688 -1331 1869 -1331 
Q 1566 -1331 1297 -1286 
Q 1028 -1241 775 -1147 
L 775 -588 
Q 1028 -725 1275 -790 
Q 1522 -856 1778 -856 
Q 2344 -856 2625 -561 
Q 2906 -266 2906 331 
L 2906 616 
Q 2728 306 2450 153 
Q 2172 0 1784 0 
Q 1141 0 747 490 
Q 353 981 353 1791 
Q 353 2603 747 3093 
Q 1141 3584 1784 3584 
Q 2172 3584 2450 3431 
Q 2728 3278 2906 2969 
L 2906 3500 
L 3481 3500 
L 3481 434 
z
" transform="scale(0.015625)"/>
      </defs>
      <use xlink:href="#DejaVuSans-52"/>
      <use xlink:href="#DejaVuSans-69" transform="translate(69.482422 0)"/>
      <use xlink:href="#DejaVuSans-76" transform="translate(97.265625 0)"/>
      <use xlink:href="#DejaVuSans-61" transform="translate(156.445312 0)"/>
      <use xlink:href="#DejaVuSans-72" transform="translate(217.724609 0)"/>
      <use xlink:href="#DejaVuSans-6f" transform="translate(256.587891 0)"/>
      <use xlink:href="#DejaVuSans-78" transform="translate(314.644531 0)"/>
      <use xlink:href="#DejaVuSans-61" transform="translate(373.824219 0)"/>
      <use xlink:href="#DejaVuSans-62" transform="translate(435.103516 0)"/>
      <use xlink:href="#DejaVuSans-61" transform="translate(498.580078 0)"/>
      <use xlink:href="#DejaVuSans-6e" transform="translate(559.859375 0)"/>
      <use xlink:href="#DejaVuSans-20" transform="translate(623.238281 0)"/>
      <use xlink:href="#DejaVuSans-35" transform="translate(655.025391 0)"/>
      <use xlink:href="#DejaVuSans-20" transform="translate(718.648438 0)"/>
      <use xlink:href="#DejaVuSans-6d" transform="translate(750.435547 0)"/>
      <use xlink:href="#DejaVuSans-67" transform="translate(847.847656 0)"/>
     </g>
    </g>
    <g id="LineCollection_5">
     <path d="M 271.089375 141.332812 
L 271.089375 131.332812 
" style="fill: none; stroke: #ffdab9"/>
    </g>
    <g id="line2d_25">
     <path d="M 261.089375 136.332812 
L 281.089375 136.332812 
" style="fill: none; stroke-dasharray: 3.7,1.6; stroke-dashoffset: 0; stroke: #ffdab9"/>
    </g>
    <g id="line2d_26">
     <g>
      <use xlink:href="#m155f09dabb" x="271.089375" y="136.332812" style="fill: #ffdab9; stroke: #000000; stroke-linejoin: miter"/>
     </g>
    </g>
    <g id="text_18">
     <!-- Rivaroxaban 5 mg±SD (n=8) -->
     <g transform="translate(289.089375 139.832812) scale(0.1 -0.1)">
      <defs>
       <path id="DejaVuSans-38" d="M 2034 2216 
Q 1584 2216 1326 1975 
Q 1069 1734 1069 1313 
Q 1069 891 1326 650 
Q 1584 409 2034 409 
Q 2484 409 2743 651 
Q 3003 894 3003 1313 
Q 3003 1734 2745 1975 
Q 2488 2216 2034 2216 
z
M 1403 2484 
Q 997 2584 770 2862 
Q 544 3141 544 3541 
Q 544 4100 942 4425 
Q 1341 4750 2034 4750 
Q 2731 4750 3128 4425 
Q 3525 4100 3525 3541 
Q 3525 3141 3298 2862 
Q 3072 2584 2669 2484 
Q 3125 2378 3379 2068 
Q 3634 1759 3634 1313 
Q 3634 634 3220 271 
Q 2806 -91 2034 -91 
Q 1263 -91 848 271 
Q 434 634 434 1313 
Q 434 1759 690 2068 
Q 947 2378 1403 2484 
z
M 1172 3481 
Q 1172 3119 1398 2916 
Q 1625 2713 2034 2713 
Q 2441 2713 2670 2916 
Q 2900 3119 2900 3481 
Q 2900 3844 2670 4047 
Q 2441 4250 2034 4250 
Q 1625 4250 1398 4047 
Q 1172 3844 1172 3481 
z
" transform="scale(0.015625)"/>
      </defs>
      <use xlink:href="#DejaVuSans-52"/>
      <use xlink:href="#DejaVuSans-69" transform="translate(69.482422 0)"/>
      <use xlink:href="#DejaVuSans-76" transform="translate(97.265625 0)"/>
      <use xlink:href="#DejaVuSans-61" transform="translate(156.445312 0)"/>
      <use xlink:href="#DejaVuSans-72" transform="translate(217.724609 0)"/>
      <use xlink:href="#DejaVuSans-6f" transform="translate(256.587891 0)"/>
      <use xlink:href="#DejaVuSans-78" transform="translate(314.644531 0)"/>
      <use xlink:href="#DejaVuSans-61" transform="translate(373.824219 0)"/>
      <use xlink:href="#DejaVuSans-62" transform="translate(435.103516 0)"/>
      <use xlink:href="#DejaVuSans-61" transform="translate(498.580078 0)"/>
      <use xlink:href="#DejaVuSans-6e" transform="translate(559.859375 0)"/>
      <use xlink:href="#DejaVuSans-20" transform="translate(623.238281 0)"/>
      <use xlink:href="#DejaVuSans-35" transform="translate(655.025391 0)"/>
      <use xlink:href="#DejaVuSans-20" transform="translate(718.648438 0)"/>
      <use xlink:href="#DejaVuSans-6d" transform="translate(750.435547 0)"/>
      <use xlink:href="#DejaVuSans-67" transform="translate(847.847656 0)"/>
      <use xlink:href="#DejaVuSans-b1" transform="translate(911.324219 0)"/>
      <use xlink:href="#DejaVuSans-53" transform="translate(995.113281 0)"/>
      <use xlink:href="#DejaVuSans-44" transform="translate(1058.589844 0)"/>
      <use xlink:href="#DejaVuSans-20" transform="translate(1135.591797 0)"/>
      <use xlink:href="#DejaVuSans-28" transform="translate(1167.378906 0)"/>
      <use xlink:href="#DejaVuSans-6e" transform="translate(1206.392578 0)"/>
      <use xlink:href="#DejaVuSans-3d" transform="translate(1269.771484 0)"/>
      <use xlink:href="#DejaVuSans-38" transform="translate(1353.560547 0)"/>
      <use xlink:href="#DejaVuSans-29" transform="translate(1417.183594 0)"/>
     </g>
    </g>
    <g id="line2d_27">
     <path d="M 261.089375 151.010937 
L 281.089375 151.010937 
" style="fill: none; stroke: #d25100; stroke-width: 2; stroke-linecap: square"/>
    </g>
    <g id="line2d_28"/>
    <g id="text_19">
     <!-- Rivaroxaban 30 mg -->
     <g transform="translate(289.089375 154.510937) scale(0.1 -0.1)">
      <use xlink:href="#DejaVuSans-52"/>
      <use xlink:href="#DejaVuSans-69" transform="translate(69.482422 0)"/>
      <use xlink:href="#DejaVuSans-76" transform="translate(97.265625 0)"/>
      <use xlink:href="#DejaVuSans-61" transform="translate(156.445312 0)"/>
      <use xlink:href="#DejaVuSans-72" transform="translate(217.724609 0)"/>
      <use xlink:href="#DejaVuSans-6f" transform="translate(256.587891 0)"/>
      <use xlink:href="#DejaVuSans-78" transform="translate(314.644531 0)"/>
      <use xlink:href="#DejaVuSans-61" transform="translate(373.824219 0)"/>
      <use xlink:href="#DejaVuSans-62" transform="translate(435.103516 0)"/>
      <use xlink:href="#DejaVuSans-61" transform="translate(498.580078 0)"/>
      <use xlink:href="#DejaVuSans-6e" transform="translate(559.859375 0)"/>
      <use xlink:href="#DejaVuSans-20" transform="translate(623.238281 0)"/>
      <use xlink:href="#DejaVuSans-33" transform="translate(655.025391 0)"/>
      <use xlink:href="#DejaVuSans-30" transform="translate(718.648438 0)"/>
      <use xlink:href="#DejaVuSans-20" transform="translate(782.271484 0)"/>
      <use xlink:href="#DejaVuSans-6d" transform="translate(814.058594 0)"/>
      <use xlink:href="#DejaVuSans-67" transform="translate(911.470703 0)"/>
     </g>
    </g>
    <g id="LineCollection_6">
     <path d="M 271.089375 170.689062 
L 271.089375 160.689062 
" style="fill: none; stroke: #d25100"/>
    </g>
    <g id="line2d_29">
     <path d="M 261.089375 165.689062 
L 281.089375 165.689062 
" style="fill: none; stroke-dasharray: 3.7,1.6; stroke-dashoffset: 0; stroke: #d25100"/>
    </g>
    <g id="line2d_30">
     <g>
      <use xlink:href="#m360960104b" x="271.089375" y="165.689062" style="fill: #d25100; stroke: #000000; stroke-linejoin: miter"/>
     </g>
    </g>
    <g id="text_20">
     <!-- Rivaroxaban 30 mg±SD (n=8) -->
     <g transform="translate(289.089375 169.189062) scale(0.1 -0.1)">
      <use xlink:href="#DejaVuSans-52"/>
      <use xlink:href="#DejaVuSans-69" transform="translate(69.482422 0)"/>
      <use xlink:href="#DejaVuSans-76" transform="translate(97.265625 0)"/>
      <use xlink:href="#DejaVuSans-61" transform="translate(156.445312 0)"/>
      <use xlink:href="#DejaVuSans-72" transform="translate(217.724609 0)"/>
      <use xlink:href="#DejaVuSans-6f" transform="translate(256.587891 0)"/>
      <use xlink:href="#DejaVuSans-78" transform="translate(314.644531 0)"/>
      <use xlink:href="#DejaVuSans-61" transform="translate(373.824219 0)"/>
      <use xlink:href="#DejaVuSans-62" transform="translate(435.103516 0)"/>
      <use xlink:href="#DejaVuSans-61" transform="translate(498.580078 0)"/>
      <use xlink:href="#DejaVuSans-6e" transform="translate(559.859375 0)"/>
      <use xlink:href="#DejaVuSans-20" transform="translate(623.238281 0)"/>
      <use xlink:href="#DejaVuSans-33" transform="translate(655.025391 0)"/>
      <use xlink:href="#DejaVuSans-30" transform="translate(718.648438 0)"/>
      <use xlink:href="#DejaVuSans-20" transform="translate(782.271484 0)"/>
      <use xlink:href="#DejaVuSans-6d" transform="translate(814.058594 0)"/>
      <use xlink:href="#DejaVuSans-67" transform="translate(911.470703 0)"/>
      <use xlink:href="#DejaVuSans-b1" transform="translate(974.947266 0)"/>
      <use xlink:href="#DejaVuSans-53" transform="translate(1058.736328 0)"/>
      <use xlink:href="#DejaVuSans-44" transform="translate(1122.212891 0)"/>
      <use xlink:href="#DejaVuSans-20" transform="translate(1199.214844 0)"/>
      <use xlink:href="#DejaVuSans-28" transform="translate(1231.001953 0)"/>
      <use xlink:href="#DejaVuSans-6e" transform="translate(1270.015625 0)"/>
      <use xlink:href="#DejaVuSans-3d" transform="translate(1333.394531 0)"/>
      <use xlink:href="#DejaVuSans-38" transform="translate(1417.183594 0)"/>
      <use xlink:href="#DejaVuSans-29" transform="translate(1480.806641 0)"/>
     </g>
    </g>
   </g>
  </g>
  <g id="axes_2">
   <g id="patch_8">
    <path d="M 59.475313 633.6 
L 450.075312 633.6 
L 450.075312 392.556522 
L 59.475313 392.556522 
z
" style="fill: #ffffff"/>
   </g>
   <g id="matplotlib.axis_3">
    <g id="xtick_6">
     <g id="line2d_31">
      <g>
       <use xlink:href="#ma85cb9d171" x="77.229858" y="633.6" style="stroke: #000000; stroke-width: 0.8"/>
      </g>
     </g>
     <g id="text_21">
      <!-- 0 -->
      <g transform="translate(72.457983 651.997656) scale(0.15 -0.15)">
       <use xlink:href="#DejaVuSans-30"/>
      </g>
     </g>
    </g>
    <g id="xtick_7">
     <g id="line2d_32">
      <g>
       <use xlink:href="#ma85cb9d171" x="166.002585" y="633.6" style="stroke: #000000; stroke-width: 0.8"/>
      </g>
     </g>
     <g id="text_22">
      <!-- 10 -->
      <g transform="translate(156.458835 651.997656) scale(0.15 -0.15)">
       <use xlink:href="#DejaVuSans-31"/>
       <use xlink:href="#DejaVuSans-30" transform="translate(63.623047 0)"/>
      </g>
     </g>
    </g>
    <g id="xtick_8">
     <g id="line2d_33">
      <g>
       <use xlink:href="#ma85cb9d171" x="254.775313" y="633.6" style="stroke: #000000; stroke-width: 0.8"/>
      </g>
     </g>
     <g id="text_23">
      <!-- 20 -->
      <g transform="translate(245.231563 651.997656) scale(0.15 -0.15)">
       <use xlink:href="#DejaVuSans-32"/>
       <use xlink:href="#DejaVuSans-30" transform="translate(63.623047 0)"/>
      </g>
     </g>
    </g>
    <g id="xtick_9">
     <g id="line2d_34">
      <g>
       <use xlink:href="#ma85cb9d171" x="343.54804" y="633.6" style="stroke: #000000; stroke-width: 0.8"/>
      </g>
     </g>
     <g id="text_24">
      <!-- 30 -->
      <g transform="translate(334.00429 651.997656) scale(0.15 -0.15)">
       <use xlink:href="#DejaVuSans-33"/>
       <use xlink:href="#DejaVuSans-30" transform="translate(63.623047 0)"/>
      </g>
     </g>
    </g>
    <g id="xtick_10">
     <g id="line2d_35">
      <g>
       <use xlink:href="#ma85cb9d171" x="432.320767" y="633.6" style="stroke: #000000; stroke-width: 0.8"/>
      </g>
     </g>
     <g id="text_25">
      <!-- 40 -->
      <g transform="translate(422.777017 651.997656) scale(0.15 -0.15)">
       <use xlink:href="#DejaVuSans-34"/>
       <use xlink:href="#DejaVuSans-30" transform="translate(63.623047 0)"/>
      </g>
     </g>
    </g>
    <g id="text_26">
     <!-- time [hr] -->
     <g transform="translate(209.700781 672.794375) scale(0.18 -0.18)">
      <use xlink:href="#DejaVuSans-Bold-74"/>
      <use xlink:href="#DejaVuSans-Bold-69" transform="translate(47.802734 0)"/>
      <use xlink:href="#DejaVuSans-Bold-6d" transform="translate(82.080078 0)"/>
      <use xlink:href="#DejaVuSans-Bold-65" transform="translate(186.279297 0)"/>
      <use xlink:href="#DejaVuSans-Bold-20" transform="translate(254.101562 0)"/>
      <use xlink:href="#DejaVuSans-Bold-5b" transform="translate(288.916016 0)"/>
      <use xlink:href="#DejaVuSans-Bold-68" transform="translate(334.619141 0)"/>
      <use xlink:href="#DejaVuSans-Bold-72" transform="translate(405.810547 0)"/>
      <use xlink:href="#DejaVuSans-Bold-5d" transform="translate(455.126953 0)"/>
     </g>
    </g>
   </g>
   <g id="matplotlib.axis_4">
    <g id="ytick_8">
     <g id="line2d_36">
      <g>
       <use xlink:href="#m0be096674f" x="59.475313" y="606.539544" style="stroke: #000000; stroke-width: 0.8"/>
      </g>
     </g>
     <g id="text_27">
      <!-- 1.0 -->
      <g transform="translate(28.620625 612.238372) scale(0.15 -0.15)">
       <use xlink:href="#DejaVuSans-31"/>
       <use xlink:href="#DejaVuSans-2e" transform="translate(63.623047 0)"/>
       <use xlink:href="#DejaVuSans-30" transform="translate(95.410156 0)"/>
      </g>
     </g>
    </g>
    <g id="ytick_9">
     <g id="line2d_37">
      <g>
       <use xlink:href="#m0be096674f" x="59.475313" y="569.601476" style="stroke: #000000; stroke-width: 0.8"/>
      </g>
     </g>
     <g id="text_28">
      <!-- 1.2 -->
      <g transform="translate(28.620625 575.300304) scale(0.15 -0.15)">
       <use xlink:href="#DejaVuSans-31"/>
       <use xlink:href="#DejaVuSans-2e" transform="translate(63.623047 0)"/>
       <use xlink:href="#DejaVuSans-32" transform="translate(95.410156 0)"/>
      </g>
     </g>
    </g>
    <g id="ytick_10">
     <g id="line2d_38">
      <g>
       <use xlink:href="#m0be096674f" x="59.475313" y="532.663409" style="stroke: #000000; stroke-width: 0.8"/>
      </g>
     </g>
     <g id="text_29">
      <!-- 1.4 -->
      <g transform="translate(28.620625 538.362237) scale(0.15 -0.15)">
       <use xlink:href="#DejaVuSans-31"/>
       <use xlink:href="#DejaVuSans-2e" transform="translate(63.623047 0)"/>
       <use xlink:href="#DejaVuSans-34" transform="translate(95.410156 0)"/>
      </g>
     </g>
    </g>
    <g id="ytick_11">
     <g id="line2d_39">
      <g>
       <use xlink:href="#m0be096674f" x="59.475313" y="495.725341" style="stroke: #000000; stroke-width: 0.8"/>
      </g>
     </g>
     <g id="text_30">
      <!-- 1.6 -->
      <g transform="translate(28.620625 501.42417) scale(0.15 -0.15)">
       <use xlink:href="#DejaVuSans-31"/>
       <use xlink:href="#DejaVuSans-2e" transform="translate(63.623047 0)"/>
       <use xlink:href="#DejaVuSans-36" transform="translate(95.410156 0)"/>
      </g>
     </g>
    </g>
    <g id="ytick_12">
     <g id="line2d_40">
      <g>
       <use xlink:href="#m0be096674f" x="59.475313" y="458.787274" style="stroke: #000000; stroke-width: 0.8"/>
      </g>
     </g>
     <g id="text_31">
      <!-- 1.8 -->
      <g transform="translate(28.620625 464.486102) scale(0.15 -0.15)">
       <use xlink:href="#DejaVuSans-31"/>
       <use xlink:href="#DejaVuSans-2e" transform="translate(63.623047 0)"/>
       <use xlink:href="#DejaVuSans-38" transform="translate(95.410156 0)"/>
      </g>
     </g>
    </g>
    <g id="ytick_13">
     <g id="line2d_41">
      <g>
       <use xlink:href="#m0be096674f" x="59.475313" y="421.849206" style="stroke: #000000; stroke-width: 0.8"/>
      </g>
     </g>
     <g id="text_32">
      <!-- 2.0 -->
      <g transform="translate(28.620625 427.548035) scale(0.15 -0.15)">
       <use xlink:href="#DejaVuSans-32"/>
       <use xlink:href="#DejaVuSans-2e" transform="translate(63.623047 0)"/>
       <use xlink:href="#DejaVuSans-30" transform="translate(95.410156 0)"/>
      </g>
     </g>
    </g>
    <g id="text_33">
     <!-- PT ratio [-] -->
     <g transform="translate(20.877187 568.124511) rotate(-90) scale(0.18 -0.18)">
      <defs>
       <path id="DejaVuSans-Bold-50" d="M 588 4666 
L 2584 4666 
Q 3475 4666 3951 4270 
Q 4428 3875 4428 3144 
Q 4428 2409 3951 2014 
Q 3475 1619 2584 1619 
L 1791 1619 
L 1791 0 
L 588 0 
L 588 4666 
z
M 1791 3794 
L 1791 2491 
L 2456 2491 
Q 2806 2491 2997 2661 
Q 3188 2831 3188 3144 
Q 3188 3456 2997 3625 
Q 2806 3794 2456 3794 
L 1791 3794 
z
" transform="scale(0.015625)"/>
       <path id="DejaVuSans-Bold-54" d="M 31 4666 
L 4331 4666 
L 4331 3756 
L 2784 3756 
L 2784 0 
L 1581 0 
L 1581 3756 
L 31 3756 
L 31 4666 
z
" transform="scale(0.015625)"/>
      </defs>
      <use xlink:href="#DejaVuSans-Bold-50"/>
      <use xlink:href="#DejaVuSans-Bold-54" transform="translate(73.291016 0)"/>
      <use xlink:href="#DejaVuSans-Bold-20" transform="translate(141.503906 0)"/>
      <use xlink:href="#DejaVuSans-Bold-72" transform="translate(176.318359 0)"/>
      <use xlink:href="#DejaVuSans-Bold-61" transform="translate(225.634766 0)"/>
      <use xlink:href="#DejaVuSans-Bold-74" transform="translate(293.115234 0)"/>
      <use xlink:href="#DejaVuSans-Bold-69" transform="translate(340.917969 0)"/>
      <use xlink:href="#DejaVuSans-Bold-6f" transform="translate(375.195312 0)"/>
      <use xlink:href="#DejaVuSans-Bold-20" transform="translate(443.896484 0)"/>
      <use xlink:href="#DejaVuSans-Bold-5b" transform="translate(478.710938 0)"/>
      <use xlink:href="#DejaVuSans-Bold-2d" transform="translate(524.414062 0)"/>
      <use xlink:href="#DejaVuSans-Bold-5d" transform="translate(565.917969 0)"/>
     </g>
    </g>
   </g>
   <g id="LineCollection_7">
    <path d="M 77.229858 609.715155 
L 77.229858 604.69264 
" clip-path="url(#pfb288850bf)" style="fill: none; stroke: #000000"/>
    <path d="M 94.929662 607.854964 
L 94.929662 604.69264 
" clip-path="url(#pfb288850bf)" style="fill: none; stroke: #000000"/>
    <path d="M 112.738949 613.408961 
L 112.738949 600.998834 
" clip-path="url(#pfb288850bf)" style="fill: none; stroke: #000000"/>
    <path d="M 130.171767 611.548771 
L 130.171767 600.998834 
" clip-path="url(#pfb288850bf)" style="fill: none; stroke: #000000"/>
    <path d="M 148.24804 622.643478 
L 148.24804 591.764317 
" clip-path="url(#pfb288850bf)" style="fill: none; stroke: #000000"/>
    <path d="M 165.947844 611.548771 
L 165.947844 600.998834 
" clip-path="url(#pfb288850bf)" style="fill: none; stroke: #000000"/>
    <path d="M 183.757131 609.701868 
L 183.757131 602.845737 
" clip-path="url(#pfb288850bf)" style="fill: none; stroke: #000000"/>
    <path d="M 290.284403 611.548771 
L 290.284403 600.998834 
" clip-path="url(#pfb288850bf)" style="fill: none; stroke: #000000"/>
   </g>
   <g id="LineCollection_8">
    <path d="M 77.229858 608.133993 
L 77.229858 604.413612 
" clip-path="url(#pfb288850bf)" style="fill: none; stroke: #ffdab9"/>
    <path d="M 95.031462 566.279708 
L 95.031462 547.677803 
" clip-path="url(#pfb288850bf)" style="fill: none; stroke: #ffdab9"/>
    <path d="M 112.738949 583.021422 
L 112.738949 564.419517 
" clip-path="url(#pfb288850bf)" style="fill: none; stroke: #ffdab9"/>
    <path d="M 130.757599 590.462184 
L 130.757599 571.860279 
" clip-path="url(#pfb288850bf)" style="fill: none; stroke: #ffdab9"/>
    <path d="M 148.24804 601.623326 
L 148.24804 584.881612 
" clip-path="url(#pfb288850bf)" style="fill: none; stroke: #ffdab9"/>
    <path d="M 165.957447 607.203898 
L 165.957447 596.042755 
" clip-path="url(#pfb288850bf)" style="fill: none; stroke: #ffdab9"/>
    <path d="M 183.757131 610.924278 
L 183.757131 597.902945 
" clip-path="url(#pfb288850bf)" style="fill: none; stroke: #ffdab9"/>
    <path d="M 290.284403 622.085421 
L 290.284403 579.301041 
" clip-path="url(#pfb288850bf)" style="fill: none; stroke: #ffdab9"/>
   </g>
   <g id="LineCollection_9">
    <path d="M 77.306688 609.994183 
L 77.306688 604.413612 
" clip-path="url(#pfb288850bf)" style="fill: none; stroke: #d25100"/>
    <path d="M 95.261953 487.221614 
L 95.261953 403.513043 
" clip-path="url(#pfb288850bf)" style="fill: none; stroke: #d25100"/>
    <path d="M 112.738949 512.334185 
L 112.738949 424.905234 
" clip-path="url(#pfb288850bf)" style="fill: none; stroke: #d25100"/>
    <path d="M 130.354239 543.957422 
L 130.354239 491.87209 
" clip-path="url(#pfb288850bf)" style="fill: none; stroke: #d25100"/>
    <path d="M 148.24804 562.559327 
L 148.24804 529.075899 
" clip-path="url(#pfb288850bf)" style="fill: none; stroke: #d25100"/>
    <path d="M 166.030436 577.44085 
L 166.030436 555.118565 
" clip-path="url(#pfb288850bf)" style="fill: none; stroke: #d25100"/>
    <path d="M 183.757131 583.021422 
L 183.757131 568.139898 
" clip-path="url(#pfb288850bf)" style="fill: none; stroke: #d25100"/>
    <path d="M 290.284403 612.784469 
L 290.284403 575.58066 
" clip-path="url(#pfb288850bf)" style="fill: none; stroke: #d25100"/>
   </g>
   <g id="line2d_42">
    <path d="M 77.229858 606.539544 
L 432.320767 606.539544 
L 432.320767 606.539544 
" clip-path="url(#pfb288850bf)" style="fill: none; stroke: #000000; stroke-width: 2; stroke-linecap: square"/>
   </g>
   <g id="line2d_43">
    <path d="M 77.229858 607.203898 
L 94.929662 606.273802 
L 112.738949 607.203898 
L 130.171767 606.273802 
L 148.24804 607.203898 
L 165.947844 606.273802 
L 183.757131 606.273802 
L 290.284403 606.273802 
" clip-path="url(#pfb288850bf)" style="fill: none; stroke-dasharray: 3.7,1.6; stroke-dashoffset: 0; stroke: #000000"/>
    <g clip-path="url(#pfb288850bf)">
     <use xlink:href="#m6b48c61299" x="77.229858" y="607.203898" style="stroke: #000000; stroke-linejoin: miter"/>
     <use xlink:href="#m6b48c61299" x="94.929662" y="606.273802" style="stroke: #000000; stroke-linejoin: miter"/>
     <use xlink:href="#m6b48c61299" x="112.738949" y="607.203898" style="stroke: #000000; stroke-linejoin: miter"/>
     <use xlink:href="#m6b48c61299" x="130.171767" y="606.273802" style="stroke: #000000; stroke-linejoin: miter"/>
     <use xlink:href="#m6b48c61299" x="148.24804" y="607.203898" style="stroke: #000000; stroke-linejoin: miter"/>
     <use xlink:href="#m6b48c61299" x="165.947844" y="606.273802" style="stroke: #000000; stroke-linejoin: miter"/>
     <use xlink:href="#m6b48c61299" x="183.757131" y="606.273802" style="stroke: #000000; stroke-linejoin: miter"/>
     <use xlink:href="#m6b48c61299" x="290.284403" y="606.273802" style="stroke: #000000; stroke-linejoin: miter"/>
    </g>
   </g>
   <g id="line2d_44">
    <path d="M 77.229858 606.539544 
L 77.584949 606.485668 
L 77.94004 606.280233 
L 78.650222 605.484814 
L 79.715494 603.665876 
L 81.84604 599.223333 
L 83.621494 595.691473 
L 85.041858 593.267195 
L 86.462222 591.254298 
L 87.882585 589.640366 
L 89.302949 588.387168 
L 90.723312 587.447284 
L 92.143676 586.772682 
L 93.56404 586.318815 
L 95.339494 586.002411 
L 97.114949 585.904948 
L 99.245494 586.004255 
L 102.086222 586.392801 
L 105.637131 587.132019 
L 111.318585 588.585785 
L 126.232403 592.489634 
L 134.399494 594.351022 
L 142.566585 595.982311 
L 151.088767 597.459382 
L 160.321131 598.831293 
L 170.263676 600.080533 
L 181.271494 601.230905 
L 193.344585 602.259996 
L 206.83804 603.177173 
L 221.751858 603.96491 
L 239.151313 604.654546 
L 259.391494 605.22841 
L 284.247858 605.700335 
L 315.495858 606.060792 
L 358.461858 606.318345 
L 425.57404 606.473346 
L 432.320767 606.480907 
L 432.320767 606.480907 
" clip-path="url(#pfb288850bf)" style="fill: none; stroke: #ffdab9; stroke-width: 2; stroke-linecap: square"/>
   </g>
   <g id="line2d_45">
    <path d="M 77.229858 606.273802 
L 95.031462 556.978755 
L 112.738949 573.720469 
L 130.757599 581.161231 
L 148.24804 593.252469 
L 165.957447 601.623326 
L 183.757131 604.413612 
L 290.284403 600.693231 
" clip-path="url(#pfb288850bf)" style="fill: none; stroke-dasharray: 3.7,1.6; stroke-dashoffset: 0; stroke: #ffdab9"/>
    <g clip-path="url(#pfb288850bf)">
     <use xlink:href="#m155f09dabb" x="77.229858" y="606.273802" style="fill: #ffdab9; stroke: #000000; stroke-linejoin: miter"/>
     <use xlink:href="#m155f09dabb" x="95.031462" y="556.978755" style="fill: #ffdab9; stroke: #000000; stroke-linejoin: miter"/>
     <use xlink:href="#m155f09dabb" x="112.738949" y="573.720469" style="fill: #ffdab9; stroke: #000000; stroke-linejoin: miter"/>
     <use xlink:href="#m155f09dabb" x="130.757599" y="581.161231" style="fill: #ffdab9; stroke: #000000; stroke-linejoin: miter"/>
     <use xlink:href="#m155f09dabb" x="148.24804" y="593.252469" style="fill: #ffdab9; stroke: #000000; stroke-linejoin: miter"/>
     <use xlink:href="#m155f09dabb" x="165.957447" y="601.623326" style="fill: #ffdab9; stroke: #000000; stroke-linejoin: miter"/>
     <use xlink:href="#m155f09dabb" x="183.757131" y="604.413612" style="fill: #ffdab9; stroke: #000000; stroke-linejoin: miter"/>
     <use xlink:href="#m155f09dabb" x="290.284403" y="600.693231" style="fill: #ffdab9; stroke: #000000; stroke-linejoin: miter"/>
    </g>
   </g>
   <g id="line2d_46">
    <path d="M 77.229858 606.539544 
L 77.584949 606.21642 
L 77.94004 604.986746 
L 78.650222 600.261619 
L 79.360403 593.505952 
L 81.135858 573.158289 
L 82.911312 553.428696 
L 84.331676 540.014091 
L 85.75204 529.021645 
L 86.817312 522.28494 
L 87.882585 516.710917 
L 88.947858 512.167222 
L 90.013131 508.523473 
L 91.078403 505.658415 
L 92.143676 503.462869 
L 93.208949 501.840424 
L 94.274222 500.706966 
L 95.339494 499.989682 
L 96.404767 499.62585 
L 97.47004 499.561606 
L 98.535313 499.750793 
L 99.600585 500.153895 
L 101.020949 500.966415 
L 102.441312 502.03278 
L 104.216767 503.640964 
L 106.347313 505.866229 
L 109.18804 509.161352 
L 113.804222 514.914811 
L 124.101858 527.837112 
L 129.428222 534.113817 
L 134.399494 539.622893 
L 139.015676 544.423888 
L 143.631858 548.92443 
L 148.24804 553.133473 
L 153.219313 557.354226 
L 158.190585 561.267968 
L 163.161858 564.892385 
L 168.133131 568.245173 
L 173.104403 571.343675 
L 178.430767 574.400368 
L 183.757131 577.204176 
L 189.438585 579.937323 
L 195.12004 582.425631 
L 201.156585 584.823724 
L 207.548222 587.111435 
L 213.939858 589.164742 
L 220.686585 591.102862 
L 227.788403 592.91487 
L 235.245313 594.59328 
L 243.412403 596.19906 
L 251.934585 597.648165 
L 261.166949 598.992452 
L 271.109494 600.215977 
L 282.117313 601.342454 
L 294.190403 602.350067 
L 307.683858 603.248039 
L 322.952767 604.035215 
L 340.352222 604.706073 
L 360.947494 605.272381 
L 386.158949 605.733654 
L 418.117131 606.085639 
L 432.320767 606.187883 
L 432.320767 606.187883 
" clip-path="url(#pfb288850bf)" style="fill: none; stroke: #d25100; stroke-width: 2; stroke-linecap: square"/>
   </g>
   <g id="line2d_47">
    <path d="M 77.306688 607.203898 
L 95.261953 445.367329 
L 112.738949 468.619709 
L 130.354239 517.914756 
L 148.24804 545.817613 
L 166.030436 566.279708 
L 183.757131 575.58066 
L 290.284403 594.182564 
" clip-path="url(#pfb288850bf)" style="fill: none; stroke-dasharray: 3.7,1.6; stroke-dashoffset: 0; stroke: #d25100"/>
    <g clip-path="url(#pfb288850bf)">
     <use xlink:href="#m360960104b" x="77.306688" y="607.203898" style="fill: #d25100; stroke: #000000; stroke-linejoin: miter"/>
     <use xlink:href="#m360960104b" x="95.261953" y="445.367329" style="fill: #d25100; stroke: #000000; stroke-linejoin: miter"/>
     <use xlink:href="#m360960104b" x="112.738949" y="468.619709" style="fill: #d25100; stroke: #000000; stroke-linejoin: miter"/>
     <use xlink:href="#m360960104b" x="130.354239" y="517.914756" style="fill: #d25100; stroke: #000000; stroke-linejoin: miter"/>
     <use xlink:href="#m360960104b" x="148.24804" y="545.817613" style="fill: #d25100; stroke: #000000; stroke-linejoin: miter"/>
     <use xlink:href="#m360960104b" x="166.030436" y="566.279708" style="fill: #d25100; stroke: #000000; stroke-linejoin: miter"/>
     <use xlink:href="#m360960104b" x="183.757131" y="575.58066" style="fill: #d25100; stroke: #000000; stroke-linejoin: miter"/>
     <use xlink:href="#m360960104b" x="290.284403" y="594.182564" style="fill: #d25100; stroke: #000000; stroke-linejoin: miter"/>
    </g>
   </g>
   <g id="patch_9">
    <path d="M 59.475313 633.6 
L 59.475313 392.556522 
" style="fill: none; stroke: #000000; stroke-width: 0.8; stroke-linejoin: miter; stroke-linecap: square"/>
   </g>
   <g id="patch_10">
    <path d="M 450.075312 633.6 
L 450.075312 392.556522 
" style="fill: none; stroke: #000000; stroke-width: 0.8; stroke-linejoin: miter; stroke-linecap: square"/>
   </g>
   <g id="patch_11">
    <path d="M 59.475312 633.6 
L 450.075313 633.6 
" style="fill: none; stroke: #000000; stroke-width: 0.8; stroke-linejoin: miter; stroke-linecap: square"/>
   </g>
   <g id="patch_12">
    <path d="M 59.475312 392.556522 
L 450.075313 392.556522 
" style="fill: none; stroke: #000000; stroke-width: 0.8; stroke-linejoin: miter; stroke-linecap: square"/>
   </g>
   <g id="legend_2">
    <g id="patch_13">
     <path d="M 259.089375 488.625272 
L 443.075312 488.625272 
Q 445.075312 488.625272 445.075312 486.625272 
L 445.075312 399.556522 
Q 445.075312 397.556522 443.075312 397.556522 
L 259.089375 397.556522 
Q 257.089375 397.556522 257.089375 399.556522 
L 257.089375 486.625272 
Q 257.089375 488.625272 259.089375 488.625272 
z
" style="fill: #ffffff; opacity: 0.8; stroke: #cccccc; stroke-linejoin: miter"/>
    </g>
    <g id="line2d_48">
     <path d="M 261.089375 405.654959 
L 281.089375 405.654959 
" style="fill: none; stroke: #000000; stroke-width: 2; stroke-linecap: square"/>
    </g>
    <g id="line2d_49"/>
    <g id="text_34">
     <!-- Placebo -->
     <g transform="translate(289.089375 409.154959) scale(0.1 -0.1)">
      <use xlink:href="#DejaVuSans-50"/>
      <use xlink:href="#DejaVuSans-6c" transform="translate(60.302734 0)"/>
      <use xlink:href="#DejaVuSans-61" transform="translate(88.085938 0)"/>
      <use xlink:href="#DejaVuSans-63" transform="translate(149.365234 0)"/>
      <use xlink:href="#DejaVuSans-65" transform="translate(204.345703 0)"/>
      <use xlink:href="#DejaVuSans-62" transform="translate(265.869141 0)"/>
      <use xlink:href="#DejaVuSans-6f" transform="translate(329.345703 0)"/>
     </g>
    </g>
    <g id="LineCollection_10">
     <path d="M 271.089375 425.333084 
L 271.089375 415.333084 
" style="fill: none; stroke: #000000"/>
    </g>
    <g id="line2d_50">
     <path d="M 261.089375 420.333084 
L 281.089375 420.333084 
" style="fill: none; stroke-dasharray: 3.7,1.6; stroke-dashoffset: 0; stroke: #000000"/>
    </g>
    <g id="line2d_51">
     <g>
      <use xlink:href="#m6b48c61299" x="271.089375" y="420.333084" style="stroke: #000000; stroke-linejoin: miter"/>
     </g>
    </g>
    <g id="text_35">
     <!-- Placebo±SD (n=4) -->
     <g transform="translate(289.089375 423.833084) scale(0.1 -0.1)">
      <use xlink:href="#DejaVuSans-50"/>
      <use xlink:href="#DejaVuSans-6c" transform="translate(60.302734 0)"/>
      <use xlink:href="#DejaVuSans-61" transform="translate(88.085938 0)"/>
      <use xlink:href="#DejaVuSans-63" transform="translate(149.365234 0)"/>
      <use xlink:href="#DejaVuSans-65" transform="translate(204.345703 0)"/>
      <use xlink:href="#DejaVuSans-62" transform="translate(265.869141 0)"/>
      <use xlink:href="#DejaVuSans-6f" transform="translate(329.345703 0)"/>
      <use xlink:href="#DejaVuSans-b1" transform="translate(390.527344 0)"/>
      <use xlink:href="#DejaVuSans-53" transform="translate(474.316406 0)"/>
      <use xlink:href="#DejaVuSans-44" transform="translate(537.792969 0)"/>
      <use xlink:href="#DejaVuSans-20" transform="translate(614.794922 0)"/>
      <use xlink:href="#DejaVuSans-28" transform="translate(646.582031 0)"/>
      <use xlink:href="#DejaVuSans-6e" transform="translate(685.595703 0)"/>
      <use xlink:href="#DejaVuSans-3d" transform="translate(748.974609 0)"/>
      <use xlink:href="#DejaVuSans-34" transform="translate(832.763672 0)"/>
      <use xlink:href="#DejaVuSans-29" transform="translate(896.386719 0)"/>
     </g>
    </g>
    <g id="line2d_52">
     <path d="M 261.089375 435.011209 
L 281.089375 435.011209 
" style="fill: none; stroke: #ffdab9; stroke-width: 2; stroke-linecap: square"/>
    </g>
    <g id="line2d_53"/>
    <g id="text_36">
     <!-- Rivaroxaban 5 mg -->
     <g transform="translate(289.089375 438.511209) scale(0.1 -0.1)">
      <use xlink:href="#DejaVuSans-52"/>
      <use xlink:href="#DejaVuSans-69" transform="translate(69.482422 0)"/>
      <use xlink:href="#DejaVuSans-76" transform="translate(97.265625 0)"/>
      <use xlink:href="#DejaVuSans-61" transform="translate(156.445312 0)"/>
      <use xlink:href="#DejaVuSans-72" transform="translate(217.724609 0)"/>
      <use xlink:href="#DejaVuSans-6f" transform="translate(256.587891 0)"/>
      <use xlink:href="#DejaVuSans-78" transform="translate(314.644531 0)"/>
      <use xlink:href="#DejaVuSans-61" transform="translate(373.824219 0)"/>
      <use xlink:href="#DejaVuSans-62" transform="translate(435.103516 0)"/>
      <use xlink:href="#DejaVuSans-61" transform="translate(498.580078 0)"/>
      <use xlink:href="#DejaVuSans-6e" transform="translate(559.859375 0)"/>
      <use xlink:href="#DejaVuSans-20" transform="translate(623.238281 0)"/>
      <use xlink:href="#DejaVuSans-35" transform="translate(655.025391 0)"/>
      <use xlink:href="#DejaVuSans-20" transform="translate(718.648438 0)"/>
      <use xlink:href="#DejaVuSans-6d" transform="translate(750.435547 0)"/>
      <use xlink:href="#DejaVuSans-67" transform="translate(847.847656 0)"/>
     </g>
    </g>
    <g id="LineCollection_11">
     <path d="M 271.089375 454.689334 
L 271.089375 444.689334 
" style="fill: none; stroke: #ffdab9"/>
    </g>
    <g id="line2d_54">
     <path d="M 261.089375 449.689334 
L 281.089375 449.689334 
" style="fill: none; stroke-dasharray: 3.7,1.6; stroke-dashoffset: 0; stroke: #ffdab9"/>
    </g>
    <g id="line2d_55">
     <g>
      <use xlink:href="#m155f09dabb" x="271.089375" y="449.689334" style="fill: #ffdab9; stroke: #000000; stroke-linejoin: miter"/>
     </g>
    </g>
    <g id="text_37">
     <!-- Rivaroxaban 5 mg±SD (n=8) -->
     <g transform="translate(289.089375 453.189334) scale(0.1 -0.1)">
      <use xlink:href="#DejaVuSans-52"/>
      <use xlink:href="#DejaVuSans-69" transform="translate(69.482422 0)"/>
      <use xlink:href="#DejaVuSans-76" transform="translate(97.265625 0)"/>
      <use xlink:href="#DejaVuSans-61" transform="translate(156.445312 0)"/>
      <use xlink:href="#DejaVuSans-72" transform="translate(217.724609 0)"/>
      <use xlink:href="#DejaVuSans-6f" transform="translate(256.587891 0)"/>
      <use xlink:href="#DejaVuSans-78" transform="translate(314.644531 0)"/>
      <use xlink:href="#DejaVuSans-61" transform="translate(373.824219 0)"/>
      <use xlink:href="#DejaVuSans-62" transform="translate(435.103516 0)"/>
      <use xlink:href="#DejaVuSans-61" transform="translate(498.580078 0)"/>
      <use xlink:href="#DejaVuSans-6e" transform="translate(559.859375 0)"/>
      <use xlink:href="#DejaVuSans-20" transform="translate(623.238281 0)"/>
      <use xlink:href="#DejaVuSans-35" transform="translate(655.025391 0)"/>
      <use xlink:href="#DejaVuSans-20" transform="translate(718.648438 0)"/>
      <use xlink:href="#DejaVuSans-6d" transform="translate(750.435547 0)"/>
      <use xlink:href="#DejaVuSans-67" transform="translate(847.847656 0)"/>
      <use xlink:href="#DejaVuSans-b1" transform="translate(911.324219 0)"/>
      <use xlink:href="#DejaVuSans-53" transform="translate(995.113281 0)"/>
      <use xlink:href="#DejaVuSans-44" transform="translate(1058.589844 0)"/>
      <use xlink:href="#DejaVuSans-20" transform="translate(1135.591797 0)"/>
      <use xlink:href="#DejaVuSans-28" transform="translate(1167.378906 0)"/>
      <use xlink:href="#DejaVuSans-6e" transform="translate(1206.392578 0)"/>
      <use xlink:href="#DejaVuSans-3d" transform="translate(1269.771484 0)"/>
      <use xlink:href="#DejaVuSans-38" transform="translate(1353.560547 0)"/>
      <use xlink:href="#DejaVuSans-29" transform="translate(1417.183594 0)"/>
     </g>
    </g>
    <g id="line2d_56">
     <path d="M 261.089375 464.367459 
L 281.089375 464.367459 
" style="fill: none; stroke: #d25100; stroke-width: 2; stroke-linecap: square"/>
    </g>
    <g id="line2d_57"/>
    <g id="text_38">
     <!-- Rivaroxaban 30 mg -->
     <g transform="translate(289.089375 467.867459) scale(0.1 -0.1)">
      <use xlink:href="#DejaVuSans-52"/>
      <use xlink:href="#DejaVuSans-69" transform="translate(69.482422 0)"/>
      <use xlink:href="#DejaVuSans-76" transform="translate(97.265625 0)"/>
      <use xlink:href="#DejaVuSans-61" transform="translate(156.445312 0)"/>
      <use xlink:href="#DejaVuSans-72" transform="translate(217.724609 0)"/>
      <use xlink:href="#DejaVuSans-6f" transform="translate(256.587891 0)"/>
      <use xlink:href="#DejaVuSans-78" transform="translate(314.644531 0)"/>
      <use xlink:href="#DejaVuSans-61" transform="translate(373.824219 0)"/>
      <use xlink:href="#DejaVuSans-62" transform="translate(435.103516 0)"/>
      <use xlink:href="#DejaVuSans-61" transform="translate(498.580078 0)"/>
      <use xlink:href="#DejaVuSans-6e" transform="translate(559.859375 0)"/>
      <use xlink:href="#DejaVuSans-20" transform="translate(623.238281 0)"/>
      <use xlink:href="#DejaVuSans-33" transform="translate(655.025391 0)"/>
      <use xlink:href="#DejaVuSans-30" transform="translate(718.648438 0)"/>
      <use xlink:href="#DejaVuSans-20" transform="translate(782.271484 0)"/>
      <use xlink:href="#DejaVuSans-6d" transform="translate(814.058594 0)"/>
      <use xlink:href="#DejaVuSans-67" transform="translate(911.470703 0)"/>
     </g>
    </g>
    <g id="LineCollection_12">
     <path d="M 271.089375 484.045584 
L 271.089375 474.045584 
" style="fill: none; stroke: #d25100"/>
    </g>
    <g id="line2d_58">
     <path d="M 261.089375 479.045584 
L 281.089375 479.045584 
" style="fill: none; stroke-dasharray: 3.7,1.6; stroke-dashoffset: 0; stroke: #d25100"/>
    </g>
    <g id="line2d_59">
     <g>
      <use xlink:href="#m360960104b" x="271.089375" y="479.045584" style="fill: #d25100; stroke: #000000; stroke-linejoin: miter"/>
     </g>
    </g>
    <g id="text_39">
     <!-- Rivaroxaban 30 mg±SD (n=8) -->
     <g transform="translate(289.089375 482.545584) scale(0.1 -0.1)">
      <use xlink:href="#DejaVuSans-52"/>
      <use xlink:href="#DejaVuSans-69" transform="translate(69.482422 0)"/>
      <use xlink:href="#DejaVuSans-76" transform="translate(97.265625 0)"/>
      <use xlink:href="#DejaVuSans-61" transform="translate(156.445312 0)"/>
      <use xlink:href="#DejaVuSans-72" transform="translate(217.724609 0)"/>
      <use xlink:href="#DejaVuSans-6f" transform="translate(256.587891 0)"/>
      <use xlink:href="#DejaVuSans-78" transform="translate(314.644531 0)"/>
      <use xlink:href="#DejaVuSans-61" transform="translate(373.824219 0)"/>
      <use xlink:href="#DejaVuSans-62" transform="translate(435.103516 0)"/>
      <use xlink:href="#DejaVuSans-61" transform="translate(498.580078 0)"/>
      <use xlink:href="#DejaVuSans-6e" transform="translate(559.859375 0)"/>
      <use xlink:href="#DejaVuSans-20" transform="translate(623.238281 0)"/>
      <use xlink:href="#DejaVuSans-33" transform="translate(655.025391 0)"/>
      <use xlink:href="#DejaVuSans-30" transform="translate(718.648438 0)"/>
      <use xlink:href="#DejaVuSans-20" transform="translate(782.271484 0)"/>
      <use xlink:href="#DejaVuSans-6d" transform="translate(814.058594 0)"/>
      <use xlink:href="#DejaVuSans-67" transform="translate(911.470703 0)"/>
      <use xlink:href="#DejaVuSans-b1" transform="translate(974.947266 0)"/>
      <use xlink:href="#DejaVuSans-53" transform="translate(1058.736328 0)"/>
      <use xlink:href="#DejaVuSans-44" transform="translate(1122.212891 0)"/>
      <use xlink:href="#DejaVuSans-20" transform="translate(1199.214844 0)"/>
      <use xlink:href="#DejaVuSans-28" transform="translate(1231.001953 0)"/>
      <use xlink:href="#DejaVuSans-6e" transform="translate(1270.015625 0)"/>
      <use xlink:href="#DejaVuSans-3d" transform="translate(1333.394531 0)"/>
      <use xlink:href="#DejaVuSans-38" transform="translate(1417.183594 0)"/>
      <use xlink:href="#DejaVuSans-29" transform="translate(1480.806641 0)"/>
     </g>
    </g>
   </g>
  </g>
  <g id="text_40">
   <!-- Graff2007 -->
   <g transform="translate(177.951875 26.196094) scale(0.25 -0.25)">
    <defs>
     <path id="DejaVuSans-Bold-47" d="M 4781 347 
Q 4331 128 3847 18 
Q 3363 -91 2847 -91 
Q 1681 -91 1000 561 
Q 319 1213 319 2328 
Q 319 3456 1012 4103 
Q 1706 4750 2913 4750 
Q 3378 4750 3804 4662 
Q 4231 4575 4609 4403 
L 4609 3438 
Q 4219 3659 3833 3768 
Q 3447 3878 3059 3878 
Q 2341 3878 1952 3476 
Q 1563 3075 1563 2328 
Q 1563 1588 1938 1184 
Q 2313 781 3003 781 
Q 3191 781 3352 804 
Q 3513 828 3641 878 
L 3641 1784 
L 2906 1784 
L 2906 2591 
L 4781 2591 
L 4781 347 
z
" transform="scale(0.015625)"/>
     <path id="DejaVuSans-Bold-66" d="M 2841 4863 
L 2841 4128 
L 2222 4128 
Q 1984 4128 1890 4042 
Q 1797 3956 1797 3744 
L 1797 3500 
L 2753 3500 
L 2753 2700 
L 1797 2700 
L 1797 0 
L 678 0 
L 678 2700 
L 122 2700 
L 122 3500 
L 678 3500 
L 678 3744 
Q 678 4316 997 4589 
Q 1316 4863 1984 4863 
L 2841 4863 
z
" transform="scale(0.015625)"/>
     <path id="DejaVuSans-Bold-32" d="M 1844 884 
L 3897 884 
L 3897 0 
L 506 0 
L 506 884 
L 2209 2388 
Q 2438 2594 2547 2791 
Q 2656 2988 2656 3200 
Q 2656 3528 2436 3728 
Q 2216 3928 1850 3928 
Q 1569 3928 1234 3808 
Q 900 3688 519 3450 
L 519 4475 
Q 925 4609 1322 4679 
Q 1719 4750 2100 4750 
Q 2938 4750 3402 4381 
Q 3866 4013 3866 3353 
Q 3866 2972 3669 2642 
Q 3472 2313 2841 1759 
L 1844 884 
z
" transform="scale(0.015625)"/>
     <path id="DejaVuSans-Bold-30" d="M 2944 2338 
Q 2944 3213 2780 3570 
Q 2616 3928 2228 3928 
Q 1841 3928 1675 3570 
Q 1509 3213 1509 2338 
Q 1509 1453 1675 1090 
Q 1841 728 2228 728 
Q 2613 728 2778 1090 
Q 2944 1453 2944 2338 
z
M 4147 2328 
Q 4147 1169 3647 539 
Q 3147 -91 2228 -91 
Q 1306 -91 806 539 
Q 306 1169 306 2328 
Q 306 3491 806 4120 
Q 1306 4750 2228 4750 
Q 3147 4750 3647 4120 
Q 4147 3491 4147 2328 
z
" transform="scale(0.015625)"/>
     <path id="DejaVuSans-Bold-37" d="M 428 4666 
L 3944 4666 
L 3944 3988 
L 2125 0 
L 953 0 
L 2675 3781 
L 428 3781 
L 428 4666 
z
" transform="scale(0.015625)"/>
    </defs>
    <use xlink:href="#DejaVuSans-Bold-47"/>
    <use xlink:href="#DejaVuSans-Bold-72" transform="translate(82.080078 0)"/>
    <use xlink:href="#DejaVuSans-Bold-61" transform="translate(131.396484 0)"/>
    <use xlink:href="#DejaVuSans-Bold-66" transform="translate(198.876953 0)"/>
    <use xlink:href="#DejaVuSans-Bold-66" transform="translate(242.382812 0)"/>
    <use xlink:href="#DejaVuSans-Bold-32" transform="translate(285.888672 0)"/>
    <use xlink:href="#DejaVuSans-Bold-30" transform="translate(355.46875 0)"/>
    <use xlink:href="#DejaVuSans-Bold-30" transform="translate(425.048828 0)"/>
    <use xlink:href="#DejaVuSans-Bold-37" transform="translate(494.628906 0)"/>
   </g>
  </g>
 </g>
 <defs>
  <clipPath id="pfa7d142328">
   <rect x="59.475313" y="79.2" width="390.6" height="241.043478"/>
  </clipPath>
  <clipPath id="pfb288850bf">
   <rect x="59.475313" y="392.556522" width="390.6" height="241.043478"/>
  </clipPath>
 </defs>
</svg>
